<svg width="32" height="32" viewBox="0 0 32 32" fill="none" xmlns="http://www.w3.org/2000/svg">
<g clip-path="url(#clip0_659_8263)">
<path d="M18.525 23.7068C18.0198 23.2015 18.0198 22.3854 18.525 21.8802L23.5384 16.8409H3.88637C3.17387 16.8409 2.59091 16.2579 2.59091 15.5454C2.59091 14.8329 3.17387 14.2499 3.88637 14.2499H23.5384L18.512 9.22358C18.0068 8.71835 18.0068 7.90221 18.512 7.39699C19.0173 6.89176 19.8334 6.89176 20.3386 7.39699L27.5932 14.6386C28.0984 15.1438 28.0984 15.9599 27.5932 16.4652L20.3516 23.7068C19.8464 24.199 19.0173 24.199 18.525 23.7068Z" fill="#7DDB29"/>
</g>
<defs>
<clipPath id="clip0_659_8263">
<rect width="31.0909" height="31.0909" fill="white" transform="matrix(-1 0 0 1 31.0909 0)"/>
</clipPath>
</defs>
</svg>
