<svg width="256" height="54" viewBox="0 0 256 54" fill="none" xmlns="http://www.w3.org/2000/svg">
<path d="M108.892 35.212H98.884L97.228 40H91.936L100.972 14.836H106.84L115.876 40H110.548L108.892 35.212ZM107.524 31.18L103.888 20.668L100.252 31.18H107.524ZM124.294 22.972C124.942 22.012 125.83 21.232 126.958 20.632C128.11 20.032 129.418 19.732 130.882 19.732C132.586 19.732 134.122 20.152 135.49 20.992C136.882 21.832 137.974 23.032 138.766 24.592C139.582 26.128 139.99 27.916 139.99 29.956C139.99 31.996 139.582 33.808 138.766 35.392C137.974 36.952 136.882 38.164 135.49 39.028C134.122 39.892 132.586 40.324 130.882 40.324C129.394 40.324 128.086 40.036 126.958 39.46C125.854 38.86 124.966 38.092 124.294 37.156V40H119.254V13.36H124.294V22.972ZM134.842 29.956C134.842 28.756 134.59 27.724 134.086 26.86C133.606 25.972 132.958 25.3 132.142 24.844C131.35 24.388 130.486 24.16 129.55 24.16C128.638 24.16 127.774 24.4 126.958 24.88C126.166 25.336 125.518 26.008 125.014 26.896C124.534 27.784 124.294 28.828 124.294 30.028C124.294 31.228 124.534 32.272 125.014 33.16C125.518 34.048 126.166 34.732 126.958 35.212C127.774 35.668 128.638 35.896 129.55 35.896C130.486 35.896 131.35 35.656 132.142 35.176C132.958 34.696 133.606 34.012 134.086 33.124C134.59 32.236 134.842 31.18 134.842 29.956ZM152.508 40.324C150.588 40.324 148.86 39.904 147.324 39.064C145.788 38.2 144.576 36.988 143.688 35.428C142.824 33.868 142.392 32.068 142.392 30.028C142.392 27.988 142.836 26.188 143.724 24.628C144.636 23.068 145.872 21.868 147.432 21.028C148.992 20.164 150.732 19.732 152.652 19.732C154.572 19.732 156.312 20.164 157.872 21.028C159.432 21.868 160.656 23.068 161.544 24.628C162.456 26.188 162.912 27.988 162.912 30.028C162.912 32.068 162.444 33.868 161.508 35.428C160.596 36.988 159.348 38.2 157.764 39.064C156.204 39.904 154.452 40.324 152.508 40.324ZM152.508 35.932C153.42 35.932 154.272 35.716 155.064 35.284C155.88 34.828 156.528 34.156 157.008 33.268C157.488 32.38 157.728 31.3 157.728 30.028C157.728 28.132 157.224 26.68 156.216 25.672C155.232 24.64 154.02 24.124 152.58 24.124C151.14 24.124 149.928 24.64 148.944 25.672C147.984 26.68 147.504 28.132 147.504 30.028C147.504 31.924 147.972 33.388 148.908 34.42C149.868 35.428 151.068 35.932 152.508 35.932ZM185.437 20.056V40H180.361V37.48C179.713 38.344 178.861 39.028 177.805 39.532C176.773 40.012 175.645 40.252 174.421 40.252C172.861 40.252 171.481 39.928 170.281 39.28C169.081 38.608 168.133 37.636 167.437 36.364C166.765 35.068 166.429 33.532 166.429 31.756V20.056H171.469V31.036C171.469 32.62 171.865 33.844 172.657 34.708C173.449 35.548 174.529 35.968 175.897 35.968C177.289 35.968 178.381 35.548 179.173 34.708C179.965 33.844 180.361 32.62 180.361 31.036V20.056H185.437ZM196.278 24.196V33.844C196.278 34.516 196.434 35.008 196.746 35.32C197.082 35.608 197.634 35.752 198.402 35.752H200.742V40H197.574C193.326 40 191.202 37.936 191.202 33.808V24.196H188.826V20.056H191.202V15.124H196.278V20.056H200.742V24.196H196.278ZM217.913 14.872V30.424C217.913 32.128 218.357 33.436 219.245 34.348C220.133 35.236 221.381 35.68 222.989 35.68C224.621 35.68 225.881 35.236 226.769 34.348C227.657 33.436 228.101 32.128 228.101 30.424V14.872H233.177V30.388C233.177 32.524 232.709 34.336 231.773 35.824C230.861 37.288 229.625 38.392 228.065 39.136C226.529 39.88 224.813 40.252 222.917 40.252C221.045 40.252 219.341 39.88 217.805 39.136C216.293 38.392 215.093 37.288 214.205 35.824C213.317 34.336 212.873 32.524 212.873 30.388V14.872H217.913ZM245.679 40.324C244.047 40.324 242.583 40.036 241.287 39.46C239.991 38.86 238.959 38.056 238.191 37.048C237.447 36.04 237.039 34.924 236.967 33.7H242.043C242.139 34.468 242.511 35.104 243.159 35.608C243.831 36.112 244.659 36.364 245.643 36.364C246.603 36.364 247.347 36.172 247.875 35.788C248.427 35.404 248.703 34.912 248.703 34.312C248.703 33.664 248.367 33.184 247.695 32.872C247.047 32.536 246.003 32.176 244.562 31.792C243.075 31.432 241.851 31.06 240.891 30.676C239.955 30.292 239.139 29.704 238.443 28.912C237.771 28.12 237.435 27.052 237.435 25.708C237.435 24.604 237.747 23.596 238.371 22.684C239.019 21.772 239.931 21.052 241.107 20.524C242.307 19.996 243.711 19.732 245.319 19.732C247.695 19.732 249.591 20.332 251.007 21.532C252.423 22.708 253.203 24.304 253.347 26.32H248.523C248.451 25.528 248.115 24.904 247.515 24.448C246.939 23.968 246.159 23.728 245.175 23.728C244.263 23.728 243.555 23.896 243.051 24.232C242.571 24.568 242.331 25.036 242.331 25.636C242.331 26.308 242.667 26.824 243.339 27.184C244.011 27.52 245.055 27.868 246.471 28.228C247.911 28.588 249.099 28.96 250.035 29.344C250.971 29.728 251.775 30.328 252.447 31.144C253.143 31.936 253.503 32.992 253.527 34.312C253.527 35.464 253.203 36.496 252.555 37.408C251.931 38.32 251.019 39.04 249.819 39.568C248.643 40.072 247.263 40.324 245.679 40.324Z" fill="#12062E"/>
<path d="M68.0607 28.0607C68.6465 27.4749 68.6465 26.5251 68.0607 25.9393L58.5147 16.3934C57.9289 15.8076 56.9792 15.8076 56.3934 16.3934C55.8076 16.9792 55.8076 17.9289 56.3934 18.5147L64.8787 27L56.3934 35.4853C55.8076 36.0711 55.8076 37.0208 56.3934 37.6066C56.9792 38.1924 57.9289 38.1924 58.5147 37.6066L68.0607 28.0607ZM-80 28.5H67V25.5H-80V28.5Z" fill="#12062E"/>
</svg>
