<svg width="84" height="84" viewBox="0 0 84 84" fill="none" xmlns="http://www.w3.org/2000/svg">
<g clip-path="url(#clip0_576_38199)">
<path d="M11.66 27.2089C10.2127 27.2089 8.98467 27.7136 7.97524 28.7231C6.96581 29.7325 6.46094 30.9438 6.46094 32.3575V54.0641C6.46094 55.5133 6.96565 56.7402 7.97524 57.7498C8.98467 58.7592 10.2127 59.2641 11.66 59.2641C13.1062 59.2641 14.3268 58.7594 15.3206 57.7498C16.3124 56.7403 16.8097 55.5133 16.8097 54.0641V32.3575C16.8097 30.9436 16.3049 29.7325 15.2954 28.7231C14.2858 27.7136 13.0737 27.2089 11.66 27.2089Z" fill="white"/>
<path d="M53.4594 7.72293L57.0437 1.11104C57.2789 0.673309 57.1952 0.337642 56.7918 0.101611C56.3539 -0.101915 56.0175 0.00121509 55.7824 0.403712L52.1481 7.06845C48.9501 5.65455 45.5678 4.94631 42.0011 4.94631C38.4336 4.94631 35.0509 5.6547 31.8542 7.06845L28.2197 0.403712C27.9835 0.00121509 27.6471 -0.101004 27.2103 0.101611C26.806 0.338705 26.7223 0.673309 26.9585 1.11104L30.5428 7.72293C26.9083 9.57638 24.0137 12.1577 21.86 15.4724C19.7062 18.789 18.6289 22.4133 18.6289 26.3517H65.3225C65.3225 22.4142 64.245 18.7898 62.0914 15.4724C59.9375 12.1577 57.0596 9.57638 53.4594 7.72293ZM32.7373 17.34C32.3496 17.7285 31.8867 17.9219 31.3486 17.9219C30.8094 17.9219 30.3558 17.7285 29.9858 17.34C29.6159 16.9533 29.4309 16.4922 29.4309 15.9522C29.4309 15.4141 29.6159 14.9521 29.9858 14.5645C30.3558 14.1778 30.8104 13.9844 31.3486 13.9844C31.8867 13.9844 32.3496 14.1778 32.7373 14.5645C33.124 14.953 33.3182 15.4141 33.3182 15.9522C33.3172 16.4913 33.123 16.9533 32.7373 17.34ZM54.0143 17.34C53.6435 17.7285 53.1889 17.9219 52.6517 17.9219C52.1124 17.9219 51.6496 17.7285 51.2627 17.34C50.8753 16.9533 50.6819 16.4922 50.6819 15.9522C50.6819 15.4141 50.8753 14.9521 51.2627 14.5645C51.6496 14.1778 52.1124 13.9844 52.6517 13.9844C53.1899 13.9844 53.6434 14.1778 54.0143 14.5645C54.3846 14.953 54.5693 15.4141 54.5693 15.9522C54.5693 16.4913 54.3844 16.9533 54.0143 17.34Z" fill="white"/>
<path d="M18.8281 61.7885C18.8281 63.338 19.3663 64.6497 20.4427 65.7261C21.52 66.8025 22.8317 67.3407 24.3801 67.3407H28.1159L28.1671 78.801C28.1671 80.2482 28.6718 81.4771 29.6813 82.4867C30.6907 83.4963 31.9029 84.001 33.3157 84.001C34.7621 84.001 35.9909 83.4963 37.0005 82.4867C38.0101 81.4771 38.5148 80.2483 38.5148 78.801V67.3417H45.4809V78.801C45.4809 80.2482 45.9854 81.4771 46.995 82.4867C48.0046 83.4963 49.2323 84.001 50.6797 84.001C52.1261 84.001 53.3549 83.4963 54.3645 82.4867C55.3741 81.4771 55.8786 80.2483 55.8786 78.801V67.3417H59.6648C61.179 67.3417 62.4738 66.8034 63.5522 65.727C64.6285 64.6506 65.1669 63.3389 65.1669 61.7895V28.168H18.8281V61.7885Z" fill="white"/>
<path d="M72.3382 27.2089C70.9243 27.2089 69.7132 27.7062 68.7036 28.698C67.6942 29.6917 67.1895 30.9122 67.1895 32.3575V54.0641C67.1895 55.5133 67.694 56.7402 68.7036 57.7498C69.7132 58.7594 70.9252 59.2641 72.3382 59.2641C73.7846 59.2641 75.0134 58.7594 76.023 57.7498C77.0325 56.7402 77.5371 55.5133 77.5371 54.0641V32.3575C77.5371 30.9121 77.0325 29.6917 76.023 28.698C75.0134 27.7062 73.7846 27.2089 72.3382 27.2089Z" fill="white"/>
</g>
<defs>
<clipPath id="clip0_576_38199">
<rect width="84" height="84" fill="white"/>
</clipPath>
</defs>
</svg>
