<svg width="317" height="38" viewBox="0 0 317 38" fill="none" xmlns="http://www.w3.org/2000/svg">
<g clip-path="url(#clip0_381_36734)">
<path d="M46.6781 37.8415C46.4815 37.7622 46.3029 37.6436 46.153 37.493C46.0032 37.3424 45.8853 37.1629 45.8064 36.9652C45.7279 36.7759 45.6875 36.5728 45.6875 36.3677C45.6875 36.1626 45.7279 35.9595 45.8064 35.7702L60.0714 1.1958C60.0714 1.11613 60.1506 1.03647 60.2299 0.877137L60.3091 0.797473C60.3884 0.717808 60.3884 0.717808 60.3884 0.638144C60.3884 0.638144 60.4676 0.558479 60.5469 0.558479C60.6261 0.478815 60.7054 0.478815 60.6261 0.478815C60.776 0.334079 60.9732 0.249129 61.1809 0.239821H61.8149C62.0526 0.239821 62.2111 0.319485 62.3696 0.478815L62.4489 0.558479C62.5281 0.558479 62.6074 0.638144 62.6074 0.638144C62.6074 0.638144 62.6866 0.717808 62.6866 0.797473C62.7659 0.877137 62.7659 0.956802 62.7659 0.877137C62.8451 0.956802 62.8451 1.11613 62.9244 1.1958L77.1894 35.7702C77.2678 35.9595 77.3083 36.1626 77.3083 36.3677C77.3083 36.5728 77.2678 36.7759 77.1894 36.9652C77.1105 37.1629 76.9925 37.3424 76.8427 37.493C76.6929 37.6436 76.5143 37.7622 76.3176 37.8415C76.1591 37.9212 75.9214 38.0008 75.6836 38.0008C74.9704 38.0008 74.4949 37.6822 74.2571 37.0449L71.0079 29.1581H51.9086L48.6594 37.0449C48.4216 37.6822 47.9461 38.0008 47.2329 38.0008H46.9159C46.9159 38.0008 46.8366 37.9212 46.6781 37.8415ZM69.8191 25.9715L61.4979 5.89601L53.2559 25.9715H69.8191ZM96.1301 0.160156C99.2209 0.160156 101.836 1.1958 103.976 3.18741C106.116 5.17902 107.225 7.64863 107.225 10.4369C107.225 13.1455 106.195 15.5354 104.214 17.527C102.153 19.5186 99.6964 20.5543 96.8434 20.7136H96.2094H85.8276V36.4075C85.8276 36.8855 85.6691 37.2042 85.3521 37.5228C85.0351 37.8415 84.7181 38.0008 84.2426 38.0008C83.7671 38.0008 83.4501 37.8415 83.1331 37.5228C82.8161 37.2042 82.6576 36.8855 82.6576 36.4075V1.75345C82.6576 1.27546 82.8161 0.956802 83.1331 0.638144C83.4501 0.319485 83.7671 0.160156 84.2426 0.160156H96.1301ZM96.2886 17.527C98.4284 17.4474 100.251 16.7304 101.757 15.3761C103.263 14.0218 104.055 12.3488 104.055 10.3572C104.055 8.36561 103.263 6.69265 101.757 5.33835C100.172 3.98406 98.3491 3.26707 96.1301 3.26707H85.7484V17.527H96.2886ZM116.894 36.4075C116.894 36.8855 116.735 37.2042 116.418 37.5228C116.101 37.8415 115.784 38.0008 115.309 38.0008C114.833 38.0008 114.516 37.8415 114.199 37.5228C113.882 37.2042 113.724 36.8855 113.724 36.4075V1.83311C113.724 1.35512 113.882 1.03647 114.199 0.717808C114.516 0.39915 114.833 0.239821 115.309 0.239821C115.784 0.239821 116.101 0.39915 116.418 0.717808C116.735 1.03647 116.894 1.35512 116.894 1.83311V36.4075Z" fill="#292C2D"/>
<path d="M147.881 38.0004C142.651 38.0004 138.292 36.1681 134.567 32.4239C130.842 28.7593 129.02 24.2981 129.02 19.0402C129.02 13.7824 130.842 9.32117 134.567 5.6566C138.213 1.91236 142.651 0.0800781 147.881 0.0800781C152.161 0.0800781 155.965 1.35471 159.372 3.98364C159.689 4.22264 159.927 4.62096 160.006 5.01928C160.086 5.49727 159.927 5.81593 159.689 6.21425C159.452 6.53291 159.055 6.7719 158.659 6.85157C158.184 6.93123 157.867 6.85157 157.47 6.53291C154.617 4.38196 151.447 3.26666 147.881 3.26666C143.522 3.26666 139.877 4.78029 136.786 7.88721C133.695 10.9941 132.19 14.6587 132.19 19.0402C132.19 23.4218 133.695 27.0864 136.786 30.1933C139.877 33.3002 143.522 34.8138 147.881 34.8138C151.923 34.8138 155.489 33.4595 158.421 30.7509C158.738 30.4323 159.135 30.273 159.531 30.3526C160.006 30.3526 160.323 30.5119 160.64 30.9103C160.957 31.2289 161.116 31.6272 161.037 32.0256C161.037 32.5036 160.878 32.8222 160.482 33.1409C156.995 36.3275 152.795 38.0004 147.881 38.0004Z" fill="#636566"/>
<path d="M168.327 38.0004C167.852 38.0004 167.535 37.8411 167.218 37.5224C166.901 37.2038 166.742 36.8851 166.742 36.4071V1.67337C166.742 1.19538 166.901 0.876724 167.218 0.558066C167.535 0.239407 167.931 0.0800781 168.327 0.0800781L189.17 0.159743C189.645 0.159743 189.962 0.319072 190.279 0.63773C190.596 0.956388 190.755 1.35471 190.755 1.75303C190.755 2.23102 190.596 2.54968 190.279 2.86834C189.962 3.187 189.645 3.34633 189.17 3.34633L169.912 3.26666V17.447H184.336C184.811 17.447 185.128 17.6063 185.445 17.9249C185.762 18.2436 185.921 18.5623 185.921 19.0402C185.921 19.5182 185.762 19.8369 185.445 20.1555C185.128 20.4742 184.811 20.6335 184.336 20.6335H169.912V34.8138H189.17C189.645 34.8138 189.962 34.9732 190.279 35.2918C190.596 35.6105 190.755 35.9291 190.755 36.4071C190.755 36.8851 190.596 37.2038 190.279 37.5224C189.962 37.8411 189.645 38.0004 189.17 38.0004H168.327Z" fill="#636566"/>
<path d="M223.565 37.4432L199.473 6.29435V36.4076C199.473 36.8855 199.314 37.2042 198.997 37.5229C198.68 37.8415 198.363 38.0008 197.888 38.0008C197.412 38.0008 197.095 37.8415 196.778 37.5229C196.461 37.2042 196.303 36.8855 196.303 36.4076V1.6738C196.303 0.956821 196.62 0.399169 197.333 0.160175C198.046 -0.0788186 198.601 0.0805105 199.076 0.717827L223.089 31.787V1.6738C223.089 1.19581 223.248 0.877156 223.565 0.558498C223.882 0.23984 224.278 0.0805105 224.674 0.0805105C225.15 0.0805105 225.467 0.23984 225.784 0.558498C226.101 0.877156 226.259 1.19581 226.259 1.6738V36.8059C226.259 36.8855 226.259 36.9652 226.18 36.9652C226.18 36.9652 226.18 37.0449 226.101 37.1245C226.101 37.2042 226.021 37.2042 226.021 37.2839C226.021 37.2839 225.942 37.3635 225.942 37.4432C225.942 37.5229 225.863 37.5229 225.863 37.6025L225.625 37.8415C225.625 37.8415 225.546 37.8415 225.546 37.9212C225.467 37.9212 225.467 38.0008 225.387 38.0008C225.387 38.0008 225.308 38.0008 225.308 38.0805C225.229 38.0805 225.229 38.0805 225.15 38.1602H224.357C224.278 38.1602 224.199 38.0805 224.119 38.0805L224.04 38.0008C223.961 38.0008 223.882 37.9212 223.882 37.9212L223.802 37.8415C223.644 37.5229 223.644 37.5229 223.565 37.4432ZM243.139 3.26709H232.758C232.282 3.26709 231.965 3.10776 231.648 2.78911C231.331 2.47045 231.173 2.15179 231.173 1.6738C231.173 1.19581 231.331 0.877156 231.648 0.558498C231.965 0.23984 232.361 0.0805105 232.758 0.0805105H256.612C257.087 0.0805105 257.404 0.23984 257.721 0.558498C258.038 0.877156 258.197 1.19581 258.197 1.6738C258.197 2.15179 258.038 2.47045 257.721 2.78911C257.404 3.10776 257.087 3.26709 256.612 3.26709H246.23V36.3279C246.23 36.8059 246.072 37.1245 245.755 37.4432C245.438 37.7619 245.041 37.9212 244.645 37.9212C244.249 37.9212 243.853 37.7619 243.536 37.4432C243.219 37.1245 243.06 36.7262 243.06 36.3279V3.26709H243.139Z" fill="#636566"/>
<path d="M264.22 38.0004C263.744 38.0004 263.427 37.8411 263.11 37.5224C262.793 37.2038 262.635 36.8851 262.635 36.4071V1.67337C262.635 1.19538 262.793 0.876724 263.11 0.558066C263.427 0.239407 263.824 0.0800781 264.22 0.0800781L285.063 0.159743C285.538 0.159743 285.855 0.319072 286.172 0.63773C286.489 0.956388 286.648 1.35471 286.648 1.75303C286.648 2.23102 286.489 2.54968 286.172 2.86834C285.855 3.187 285.538 3.34633 285.063 3.34633L265.805 3.26666V17.447H280.228C280.704 17.447 281.021 17.6063 281.338 17.9249C281.655 18.2436 281.813 18.5623 281.813 19.0402C281.813 19.5182 281.655 19.8369 281.338 20.1555C281.021 20.4742 280.704 20.6335 280.228 20.6335H265.805V34.8138H285.063C285.538 34.8138 285.855 34.9732 286.172 35.2918C286.489 35.6105 286.648 35.9291 286.648 36.4071C286.648 36.8851 286.489 37.2038 286.172 37.5224C285.855 37.8411 285.538 38.0004 285.063 38.0004H264.22Z" fill="#636566"/>
<path d="M305.589 0.239821C308.601 0.239821 311.216 1.1958 313.356 3.18741C315.495 5.17902 316.526 7.56896 316.526 10.3572C316.526 12.8268 315.654 15.0574 313.91 16.9694C312.167 18.8813 310.027 19.9966 307.412 20.395L314.861 35.6906C315.02 36.0889 315.099 36.4872 314.941 36.8855C314.782 37.2838 314.544 37.6025 314.148 37.7618C313.91 37.8415 313.673 37.9212 313.435 37.9212C312.801 37.9212 312.325 37.6025 312.008 37.0449L303.925 20.4746H295.128V36.0889C295.128 36.4872 294.97 36.8855 294.653 37.2042C294.336 37.5228 294.019 37.6822 293.543 37.6822C293.147 37.6822 292.751 37.5228 292.434 37.2042C292.117 36.8855 291.958 36.4872 291.958 36.0889V1.75345C291.958 1.27546 292.117 0.956802 292.434 0.638144C292.751 0.319485 293.147 0.160156 293.543 0.160156H305.589V0.239821ZM313.514 10.3572C313.514 8.44527 312.722 6.77232 311.216 5.33835C309.71 3.98406 307.808 3.26707 305.668 3.26707H295.366V17.3677H305.827C307.967 17.3677 309.789 16.6507 311.295 15.2964C312.722 13.9421 313.514 12.2692 313.514 10.3572Z" fill="#636566"/>
<path d="M35.9003 30.4312C34.3153 30.3516 32.8095 30.1126 31.4623 29.7142C29.798 29.2362 28.3715 28.5193 27.1828 27.5633C25.8355 26.5277 24.8053 25.1734 24.0128 23.5801C23.775 24.536 23.458 25.3327 23.0618 26.1293C23.8543 27.2446 24.726 28.2803 25.8355 29.1566C27.262 30.2719 28.9263 31.0685 30.8283 31.6262C32.334 32.1042 33.9983 32.3432 35.7418 32.4228H35.9003C36.455 31.7855 36.9305 31.0685 37.406 30.3516C37.0098 30.4312 36.455 30.4312 35.9003 30.4312ZM21.3183 11.3914C20.8428 12.5864 20.4465 13.7813 20.2088 15.1356L20.605 18.1629C20.7635 20.2342 21.1598 22.0664 21.7938 23.6597C22.2693 22.3054 22.5863 20.7121 22.7448 19.0392C22.6655 18.7205 22.6655 18.4019 22.6655 18.0035C22.507 15.6136 22.0315 13.383 21.3183 11.3914ZM19.7333 7.88615C19.337 7.16916 18.8615 6.53185 18.3068 5.89453L17.1973 7.88615C17.435 8.2048 17.6728 8.60313 17.9105 9.00145C18.386 9.71843 18.703 10.5947 19.0993 11.3914C19.4163 10.5151 19.8125 9.71843 20.2088 8.92178C20.0503 8.52346 19.8918 8.2048 19.7333 7.88615Z" fill="#FEE734"/>
<path d="M22.1111 5.97485L20.6846 7.96647L20.2091 8.92244L19.0996 11.392C18.3864 13.3837 17.9109 15.6143 17.7524 18.0042C17.7524 18.3229 17.6731 18.6415 17.6731 19.0398C17.8316 20.7925 18.1486 22.3061 18.6241 23.6604C19.2581 22.0671 19.7336 20.2348 19.8129 18.1635C19.8921 17.1279 20.0506 16.0923 20.2091 15.1363C20.4469 13.782 20.8431 12.5073 21.3186 11.392C21.6183 10.5505 22.0174 9.74806 22.5074 9.00211L23.2206 7.8868L22.1111 5.97485ZM13.2351 27.564C12.0464 28.5199 10.5406 29.2369 8.95562 29.7149C7.60837 30.1132 6.10262 30.3522 4.51762 30.4319H2.93262L4.43837 32.5032H4.59687C6.34037 32.4235 8.00462 32.1048 9.51037 31.7065C11.4124 31.1489 13.0766 30.2725 14.5031 29.2369C15.6126 28.3606 16.4844 27.4046 17.2769 26.2097L16.3259 23.6604C15.6126 25.174 14.5824 26.5283 13.2351 27.564Z" fill="#362D81"/>
<path d="M39.8626 25.094C38.2776 25.333 33.1263 25.6517 30.3526 23.4211C28.8468 22.2261 28.0543 20.3938 27.8958 17.6056C27.7373 15.4546 27.4203 13.5427 26.9448 11.7104C26.7071 10.8341 26.4693 10.0374 26.1523 9.24079C25.7561 8.12549 25.2806 7.08985 24.7258 6.13387C24.4031 5.49554 24.0321 4.88299 23.6163 4.30159C22.9823 3.42528 22.3483 2.62863 21.7143 1.83199C21.2388 1.27433 20.7633 0.796347 20.2878 0.318359C19.8123 0.796347 19.3368 1.27433 18.8613 1.83199C19.3368 2.30997 19.8123 2.78796 20.2878 3.34561C21.0011 4.14226 21.6351 4.9389 22.1898 5.89488C22.5861 6.5322 22.9823 7.16951 23.2993 7.88649C23.8541 9.0018 24.3296 10.1968 24.7258 11.4714C25.0428 12.5867 25.3598 13.8613 25.5976 15.136C25.7561 15.9326 25.8353 16.8089 25.9146 17.6852C26.1523 21.0311 27.2618 23.4211 29.1638 24.9347C31.6206 26.8467 34.9491 27.245 37.4058 27.245C38.1983 27.245 38.8323 27.1653 39.3078 27.1653C39.5456 26.528 39.7833 25.9704 39.9418 25.333V25.2534L39.8626 25.094Z" fill="#14934A"/>
<path d="M24.0122 31.6263C23.2197 30.9889 22.3479 30.1126 21.4762 29.077C21.0799 29.7143 20.6044 30.272 20.2082 30.7499C21.0799 31.7059 21.9517 32.5822 22.7442 33.2195C25.2802 35.2112 28.0539 36.3265 30.7484 36.9638C31.5409 36.4858 32.3334 35.9281 33.1259 35.2908C30.1937 34.8925 26.8652 33.8569 24.0122 31.6263ZM18.5439 23.6598C18.0684 22.3055 17.7514 20.7122 17.5929 19.0393C17.5929 18.8003 17.5137 18.6409 17.5137 18.4019C17.2759 15.534 16.6419 13.3034 15.7702 11.5508L15.2947 13.3034C15.1362 13.8611 15.0569 14.578 14.8984 15.2154C15.1362 16.1713 15.3739 17.2866 15.4532 18.5613C15.6008 20.2562 15.8924 21.9352 16.3249 23.5801C16.5627 24.5361 16.8797 25.3328 17.2759 26.1294C17.7178 27.1721 18.2762 28.161 18.9402 29.077C19.4157 28.5193 19.8119 27.9617 20.2082 27.2447C19.5742 26.2091 19.0194 25.0141 18.5439 23.6598Z" fill="#DF242A"/>
<path d="M24.6468 11.5508C23.775 13.3034 23.0618 15.6137 22.9033 18.4019C22.9033 18.6409 22.824 18.8003 22.824 19.0393C22.6655 20.7919 22.3485 22.3055 21.873 23.6598C21.3975 25.0141 20.8428 26.2091 20.2088 27.2447L18.9408 29.077C18.069 30.1126 17.1973 30.9889 16.4048 31.6263C13.5518 33.8569 10.2233 34.8925 7.29102 35.3705C8.00427 36.0078 8.79677 36.4858 9.66852 37.0434C12.363 36.4061 15.1368 35.2908 17.6728 33.2992C18.4653 32.6619 19.337 31.8652 20.2088 30.8296C20.6843 30.3516 21.0805 29.7143 21.4768 29.1567C22.0315 28.2803 22.6655 27.3244 23.141 26.2091C23.458 25.4124 23.775 24.5361 24.092 23.6598C24.4883 22.1462 24.8845 20.4732 24.9638 18.6409C25.043 17.3663 25.2015 16.3307 25.5185 15.295C25.2808 13.8611 24.9638 12.6661 24.6468 11.5508Z" fill="#E0157D"/>
<path d="M20.2088 0.398315L18.7823 1.91194C18.1483 2.62892 17.5143 3.50523 16.8803 4.38154C16.4841 4.9392 16.1671 5.57651 15.7708 6.21383C15.2161 7.1698 14.8198 8.20544 14.3443 9.32075L14.1066 10.1174L13.5518 11.7903C13.0763 13.543 12.7593 15.5346 12.6008 17.6855C12.4423 20.3941 11.5706 22.3061 10.1441 23.501C8.40059 24.935 5.70609 25.3333 3.56634 25.3333C2.45684 25.413 1.42659 25.2537 0.475586 25.0147L1.26809 27.3249C1.82284 27.4046 2.29834 27.4046 2.93234 27.4046H3.56634C4.12109 27.4046 4.59659 27.4046 5.15134 27.3249C7.76659 27.0859 9.82709 26.2893 11.3328 25.0943C13.3141 23.5807 14.3443 21.1908 14.5821 17.8449L14.8991 15.2956C14.9783 14.6583 15.1368 14.021 15.2953 13.3836L15.7708 11.631C16.1671 10.3564 16.6426 9.16142 17.1973 8.04611C17.5143 7.32913 17.9106 6.69182 18.3068 6.0545C18.8616 5.09853 19.4956 4.30188 20.2088 3.50523L21.6353 1.99161C21.1598 1.35429 20.6843 0.876303 20.2088 0.398315Z" fill="#1AA1D9"/>
</g>
<defs>
<clipPath id="clip0_381_36734">
<rect width="317" height="38" fill="white"/>
</clipPath>
</defs>
</svg>
