<svg width="89" height="104" viewBox="0 0 89 104" fill="none" xmlns="http://www.w3.org/2000/svg">
<path d="M32.1726 92.8032C27.1942 90.6858 22.5356 85.3045 22.5245 79.7983C22.5109 73.7951 26.3776 68.6984 31.1867 65.3489C30.6085 67.4981 30.2932 69.4639 31.7256 71.3863C33.0571 73.1736 35.3892 74.0421 37.5912 73.5707C42.7365 72.4624 42.9726 66.8971 39.9222 63.6547C36.9063 60.4437 33.9888 56.8168 35.1368 52.1603C35.7114 49.8261 37.1681 47.6396 39.0135 46.0768C37.595 49.7443 41.6258 53.3613 44.2815 55.163C48.8883 58.2887 53.9429 60.651 58.1787 64.3152C62.6343 68.1661 65.9245 73.373 65.2601 79.4121C64.5401 85.9578 59.2537 90.5103 53.324 92.8086C65.8543 90.0875 78.8013 80.519 79.0666 66.8461C79.2863 55.5974 71.4435 46.9405 61.7283 41.9843L61.2207 41.7117C61.4874 42.3483 61.5746 42.8898 61.5645 43.3745C61.6515 43.017 61.7106 42.6496 61.7272 42.2706C61.7249 42.7209 61.6651 43.1691 61.5492 43.6047L61.5645 43.3745C61.4203 43.9717 61.1773 44.5415 60.8452 45.0612L60.9878 44.9103C59.0496 48.0734 53.8024 48.7602 51.2103 45.485C47.0433 40.2165 51.2976 34.5363 51.8927 28.9572C52.6378 21.9651 48.1812 15.1772 42.6555 11.1152C45.6989 15.9592 41.6894 22.3677 38.4816 25.9505C35.3711 29.4234 31.5882 32.3231 28.1544 35.4786C24.4658 38.8678 20.9197 42.4379 17.8878 46.4157C11.824 54.3776 8.1117 64.3911 10.8398 74.3239C13.5661 84.2499 22.3044 90.5688 32.1726 92.8032Z" fill="white"/>
</svg>
