<svg width="29" height="29" viewBox="0 0 29 29" fill="none" xmlns="http://www.w3.org/2000/svg">
<path d="M0.207367 7.12144C0.217223 7.17675 0.225203 7.23207 0.228488 7.28784C0.270263 8.00372 0.811453 13.7155 7.61553 20.67C7.61553 20.67 13.4931 26.6598 19.679 27.9191C19.7057 27.9246 19.732 27.9306 19.7588 27.938C20.1333 28.0399 23.3176 28.8447 24.959 27.1986L27.2974 24.9021C27.3185 24.8814 27.3406 24.8611 27.3631 24.8417C27.5964 24.6412 29.2204 23.1408 27.5959 21.5454C25.9517 19.9306 23.8789 17.9619 23.6442 17.7388C23.633 17.7282 23.6222 17.7176 23.6114 17.7065C23.4842 17.5765 22.276 16.4075 20.8608 17.4756C20.82 17.5064 20.7815 17.541 20.7449 17.577L18.4553 19.8315C17.9423 20.3179 17.1274 20.3114 16.6219 19.8172L8.79976 12.1648C8.27453 11.6508 8.28814 10.8114 8.8298 10.3141L10.6604 8.63431C10.6604 8.63431 12.666 6.81075 10.512 4.84106L7.31466 1.70099C7.29494 1.68162 7.27617 1.6618 7.25739 1.64106C7.05087 1.41242 5.51836 -0.153004 3.72018 1.58943C3.66526 1.64244 3.60565 1.69038 3.54228 1.73279C2.93209 2.14397 -0.274683 4.4414 0.207367 7.12144Z" fill="white"/>
</svg>
