<svg width="29" height="29" viewBox="0 0 29 29" fill="none" xmlns="http://www.w3.org/2000/svg">
<path d="M0.0491634 7.12119C0.0590203 7.17651 0.0669997 7.23182 0.0702854 7.2876C0.11206 8.00347 0.65325 13.7153 7.45732 20.6698C7.45732 20.6698 13.3349 26.6595 19.5208 27.9189C19.5475 27.9244 19.5738 27.9304 19.6005 27.9378C19.9751 28.0396 23.1594 28.8445 24.8008 27.1984L27.1392 24.9019C27.1603 24.8811 27.1824 24.8608 27.2049 24.8415C27.4382 24.641 29.0622 23.1405 27.4377 21.5451C25.7935 19.9304 23.7207 17.9616 23.486 17.7385C23.4748 17.7279 23.464 17.7173 23.4532 17.7063C23.326 17.5763 22.1178 16.4073 20.7026 17.4753C20.6618 17.5062 20.6233 17.5408 20.5867 17.5767L18.2971 19.8313C17.7841 20.3176 16.9692 20.3112 16.4637 19.817L8.64156 12.1646C8.11633 11.6506 8.12994 10.8112 8.6716 10.3138L10.5022 8.63407C10.5022 8.63407 12.5078 6.8105 10.3538 4.84081L7.15645 1.70074C7.13674 1.68138 7.11796 1.66156 7.09919 1.64082C6.89266 1.41218 5.36015 -0.153248 3.56197 1.58919C3.50706 1.6422 3.44744 1.69014 3.38408 1.73255C2.77389 2.14373 -0.432886 4.44116 0.0491634 7.12119Z" fill="#12062E"/>
</svg>
