<svg width="380" height="139" viewBox="0 0 380 139" fill="none" xmlns="http://www.w3.org/2000/svg">
<path d="M34.6 13.144C44.072 13.144 52.3493 15.0213 59.432 18.776C66.5147 22.5307 71.976 27.8213 75.816 34.648C79.7413 41.3893 81.704 49.1973 81.704 58.072C81.704 66.8613 79.7413 74.6693 75.816 81.496C71.976 88.3227 66.472 93.6133 59.304 97.368C52.2213 101.123 43.9867 103 34.6 103H0.936V13.144H34.6ZM33.192 84.056C41.4693 84.056 47.912 81.7947 52.52 77.272C57.128 72.7493 59.432 66.3493 59.432 58.072C59.432 49.7947 57.128 43.352 52.52 38.744C47.912 34.136 41.4693 31.832 33.192 31.832H22.824V84.056H33.192ZM161.264 66.136C161.264 68.184 161.136 70.3173 160.88 72.536H111.344C111.685 76.9733 113.093 80.3867 115.568 82.776C118.128 85.08 121.243 86.232 124.912 86.232C130.373 86.232 134.171 83.928 136.304 79.32H159.6C158.405 84.0133 156.229 88.2373 153.072 91.992C150 95.7467 146.117 98.6907 141.424 100.824C136.731 102.957 131.483 104.024 125.68 104.024C118.683 104.024 112.453 102.531 106.992 99.544C101.531 96.5573 97.264 92.2907 94.192 86.744C91.12 81.1973 89.584 74.712 89.584 67.288C89.584 59.864 91.0773 53.3787 94.064 47.832C97.136 42.2853 101.403 38.0187 106.864 35.032C112.325 32.0453 118.597 30.552 125.68 30.552C132.592 30.552 138.736 32.0027 144.112 34.904C149.488 37.8053 153.669 41.944 156.656 47.32C159.728 52.696 161.264 58.968 161.264 66.136ZM138.864 60.376C138.864 56.6213 137.584 53.6347 135.024 51.416C132.464 49.1973 129.264 48.088 125.424 48.088C121.755 48.088 118.64 49.1547 116.08 51.288C113.605 53.4213 112.069 56.4507 111.472 60.376H138.864ZM201.867 104.024C195.638 104.024 190.091 102.957 185.227 100.824C180.363 98.6907 176.523 95.7893 173.707 92.12C170.891 88.3653 169.312 84.184 168.971 79.576H190.603C190.859 82.0507 192.011 84.056 194.059 85.592C196.107 87.128 198.624 87.896 201.611 87.896C204.342 87.896 206.432 87.384 207.883 86.36C209.419 85.2507 210.187 83.8427 210.187 82.136C210.187 80.088 209.12 78.5947 206.987 77.656C204.854 76.632 201.398 75.5227 196.619 74.328C191.499 73.1333 187.232 71.896 183.819 70.616C180.406 69.2507 177.462 67.16 174.987 64.344C172.512 61.4427 171.275 57.56 171.275 52.696C171.275 48.6 172.384 44.888 174.603 41.56C176.907 38.1467 180.235 35.4587 184.587 33.496C189.024 31.5333 194.272 30.552 200.331 30.552C209.291 30.552 216.331 32.7707 221.451 37.208C226.656 41.6453 229.643 47.5333 230.411 54.872H210.187C209.846 52.3973 208.736 50.4347 206.859 48.984C205.067 47.5333 202.678 46.808 199.691 46.808C197.131 46.808 195.168 47.32 193.803 48.344C192.438 49.2827 191.755 50.6053 191.755 52.312C191.755 54.36 192.822 55.896 194.955 56.92C197.174 57.944 200.587 58.968 205.195 59.992C210.486 61.3573 214.795 62.7227 218.123 64.088C221.451 65.368 224.352 67.5013 226.827 70.488C229.387 73.3893 230.71 77.3147 230.795 82.264C230.795 86.4453 229.6 90.2 227.211 93.528C224.907 96.7707 221.536 99.3307 217.099 101.208C212.747 103.085 207.67 104.024 201.867 104.024ZM255.194 24.152C251.354 24.152 248.197 23.0427 245.722 20.824C243.333 18.52 242.138 15.704 242.138 12.376C242.138 8.96266 243.333 6.14666 245.722 3.92799C248.197 1.62399 251.354 0.471992 255.194 0.471992C258.949 0.471992 262.021 1.62399 264.41 3.92799C266.885 6.14666 268.122 8.96266 268.122 12.376C268.122 15.704 266.885 18.52 264.41 20.824C262.021 23.0427 258.949 24.152 255.194 24.152ZM266.074 31.576V103H244.186V31.576H266.074ZM309.072 30.552C314.107 30.552 318.501 31.576 322.256 33.624C326.096 35.672 329.04 38.36 331.088 41.688V31.576H352.976V102.872C352.976 109.443 351.653 115.373 349.008 120.664C346.448 126.04 342.48 130.307 337.104 133.464C331.813 136.621 325.2 138.2 317.264 138.2C306.683 138.2 298.107 135.683 291.536 130.648C284.965 125.699 281.211 118.957 280.272 110.424H301.904C302.587 113.155 304.208 115.288 306.768 116.824C309.328 118.445 312.485 119.256 316.24 119.256C320.763 119.256 324.347 117.933 326.992 115.288C329.723 112.728 331.088 108.589 331.088 102.872V92.76C328.955 96.088 326.011 98.8187 322.256 100.952C318.501 103 314.107 104.024 309.072 104.024C303.184 104.024 297.851 102.531 293.072 99.544C288.293 96.472 284.496 92.1627 281.68 86.616C278.949 80.984 277.584 74.4987 277.584 67.16C277.584 59.8213 278.949 53.3787 281.68 47.832C284.496 42.2853 288.293 38.0187 293.072 35.032C297.851 32.0453 303.184 30.552 309.072 30.552ZM331.088 67.288C331.088 61.8267 329.552 57.5173 326.48 54.36C323.493 51.2027 319.824 49.624 315.472 49.624C311.12 49.624 307.408 51.2027 304.336 54.36C301.349 57.432 299.856 61.6987 299.856 67.16C299.856 72.6213 301.349 76.9733 304.336 80.216C307.408 83.3733 311.12 84.952 315.472 84.952C319.824 84.952 323.493 83.3733 326.48 80.216C329.552 77.0587 331.088 72.7493 331.088 67.288ZM412.331 30.808C420.694 30.808 427.35 33.5387 432.299 39C437.334 44.376 439.851 51.8 439.851 61.272V103H418.091V64.216C418.091 59.4373 416.854 55.7253 414.379 53.08C411.904 50.4347 408.576 49.112 404.395 49.112C400.214 49.112 396.886 50.4347 394.411 53.08C391.936 55.7253 390.699 59.4373 390.699 64.216V103H368.811V31.576H390.699V41.048C392.918 37.8907 395.904 35.416 399.659 33.624C403.414 31.7467 407.638 30.808 412.331 30.808Z" fill="#12062E"/>
</svg>
