<svg width="380" height="130" viewBox="0 0 380 130" fill="none" xmlns="http://www.w3.org/2000/svg">
<path d="M34.6 5.144C44.072 5.144 52.3493 7.02133 59.432 10.776C66.5147 14.5307 71.976 19.8213 75.816 26.648C79.7413 33.3893 81.704 41.1973 81.704 50.072C81.704 58.8613 79.7413 66.6693 75.816 73.496C71.976 80.3227 66.472 85.6133 59.304 89.368C52.2213 93.1227 43.9867 95 34.6 95H0.936V5.144H34.6ZM33.192 76.056C41.4693 76.056 47.912 73.7947 52.52 69.272C57.128 64.7493 59.432 58.3493 59.432 50.072C59.432 41.7947 57.128 35.352 52.52 30.744C47.912 26.136 41.4693 23.832 33.192 23.832H22.824V76.056H33.192ZM161.264 58.136C161.264 60.184 161.136 62.3173 160.88 64.536H111.344C111.685 68.9733 113.093 72.3867 115.568 74.776C118.128 77.08 121.243 78.232 124.912 78.232C130.373 78.232 134.171 75.928 136.304 71.32H159.6C158.405 76.0133 156.229 80.2373 153.072 83.992C150 87.7467 146.117 90.6907 141.424 92.824C136.731 94.9573 131.483 96.024 125.68 96.024C118.683 96.024 112.453 94.5307 106.992 91.544C101.531 88.5573 97.264 84.2907 94.192 78.744C91.12 73.1973 89.584 66.712 89.584 59.288C89.584 51.864 91.0773 45.3787 94.064 39.832C97.136 34.2853 101.403 30.0187 106.864 27.032C112.325 24.0453 118.597 22.552 125.68 22.552C132.592 22.552 138.736 24.0027 144.112 26.904C149.488 29.8053 153.669 33.944 156.656 39.32C159.728 44.696 161.264 50.968 161.264 58.136ZM138.864 52.376C138.864 48.6213 137.584 45.6347 135.024 43.416C132.464 41.1973 129.264 40.088 125.424 40.088C121.755 40.088 118.64 41.1547 116.08 43.288C113.605 45.4213 112.069 48.4507 111.472 52.376H138.864ZM204.939 74.52L220.427 23.576H243.723L218.379 95H191.371L166.027 23.576H189.451L204.939 74.52ZM320.264 58.136C320.264 60.184 320.136 62.3173 319.88 64.536H270.344C270.685 68.9733 272.093 72.3867 274.568 74.776C277.128 77.08 280.243 78.232 283.912 78.232C289.373 78.232 293.171 75.928 295.304 71.32H318.6C317.405 76.0133 315.229 80.2373 312.072 83.992C309 87.7467 305.117 90.6907 300.424 92.824C295.731 94.9573 290.483 96.024 284.68 96.024C277.683 96.024 271.453 94.5307 265.992 91.544C260.531 88.5573 256.264 84.2907 253.192 78.744C250.12 73.1973 248.584 66.712 248.584 59.288C248.584 51.864 250.077 45.3787 253.064 39.832C256.136 34.2853 260.403 30.0187 265.864 27.032C271.325 24.0453 277.597 22.552 284.68 22.552C291.592 22.552 297.736 24.0027 303.112 26.904C308.488 29.8053 312.669 33.944 315.656 39.32C318.728 44.696 320.264 50.968 320.264 58.136ZM297.864 52.376C297.864 48.6213 296.584 45.6347 294.024 43.416C291.464 41.1973 288.264 40.088 284.424 40.088C280.755 40.088 277.64 41.1547 275.08 43.288C272.605 45.4213 271.069 48.4507 270.472 52.376H297.864ZM353.699 0.279999V95H331.811V0.279999H353.699ZM402.073 96.024C395.076 96.024 388.761 94.5307 383.129 91.544C377.582 88.5573 373.188 84.2907 369.945 78.744C366.788 73.1973 365.209 66.712 365.209 59.288C365.209 51.9493 366.83 45.5067 370.073 39.96C373.316 34.328 377.753 30.0187 383.385 27.032C389.017 24.0453 395.332 22.552 402.329 22.552C409.326 22.552 415.641 24.0453 421.273 27.032C426.905 30.0187 431.342 34.328 434.585 39.96C437.828 45.5067 439.449 51.9493 439.449 59.288C439.449 66.6267 437.785 73.112 434.457 78.744C431.214 84.2907 426.734 88.5573 421.017 91.544C415.385 94.5307 409.07 96.024 402.073 96.024ZM402.073 77.08C406.254 77.08 409.796 75.544 412.697 72.472C415.684 69.4 417.177 65.0053 417.177 59.288C417.177 53.5707 415.726 49.176 412.825 46.104C410.009 43.032 406.51 41.496 402.329 41.496C398.062 41.496 394.521 43.032 391.705 46.104C388.889 49.0907 387.481 53.4853 387.481 59.288C387.481 65.0053 388.846 69.4 391.577 72.472C394.393 75.544 397.892 77.08 402.073 77.08ZM472.949 33.688C475.082 30.36 478.026 27.672 481.781 25.624C485.536 23.576 489.93 22.552 494.965 22.552C500.853 22.552 506.186 24.0453 510.965 27.032C515.744 30.0187 519.498 34.2853 522.229 39.832C525.045 45.3787 526.453 51.8213 526.453 59.16C526.453 66.4987 525.045 72.984 522.229 78.616C519.498 84.1627 515.744 88.472 510.965 91.544C506.186 94.5307 500.853 96.024 494.965 96.024C490.016 96.024 485.621 95 481.781 92.952C478.026 90.904 475.082 88.2587 472.949 85.016V129.048H451.061V23.576H472.949V33.688ZM504.181 59.16C504.181 53.6987 502.645 49.432 499.573 46.36C496.586 43.2027 492.874 41.624 488.437 41.624C484.085 41.624 480.373 43.2027 477.301 46.36C474.314 49.5173 472.821 53.8267 472.821 59.288C472.821 64.7493 474.314 69.0587 477.301 72.216C480.373 75.3733 484.085 76.952 488.437 76.952C492.789 76.952 496.501 75.3733 499.573 72.216C502.645 68.9733 504.181 64.6213 504.181 59.16ZM605.264 58.136C605.264 60.184 605.136 62.3173 604.88 64.536H555.344C555.685 68.9733 557.093 72.3867 559.568 74.776C562.128 77.08 565.243 78.232 568.912 78.232C574.373 78.232 578.171 75.928 580.304 71.32H603.6C602.405 76.0133 600.229 80.2373 597.072 83.992C594 87.7467 590.117 90.6907 585.424 92.824C580.731 94.9573 575.483 96.024 569.68 96.024C562.683 96.024 556.453 94.5307 550.992 91.544C545.531 88.5573 541.264 84.2907 538.192 78.744C535.12 73.1973 533.584 66.712 533.584 59.288C533.584 51.864 535.077 45.3787 538.064 39.832C541.136 34.2853 545.403 30.0187 550.864 27.032C556.325 24.0453 562.597 22.552 569.68 22.552C576.592 22.552 582.736 24.0027 588.112 26.904C593.488 29.8053 597.669 33.944 600.656 39.32C603.728 44.696 605.264 50.968 605.264 58.136ZM582.864 52.376C582.864 48.6213 581.584 45.6347 579.024 43.416C576.464 41.1973 573.264 40.088 569.424 40.088C565.755 40.088 562.64 41.1547 560.08 43.288C557.605 45.4213 556.069 48.4507 555.472 52.376H582.864ZM707.947 22.808C716.822 22.808 723.862 25.496 729.067 30.872C734.358 36.248 737.003 43.7147 737.003 53.272V95H715.243V56.216C715.243 51.608 714.006 48.0667 711.531 45.592C709.142 43.032 705.814 41.752 701.547 41.752C697.28 41.752 693.91 43.032 691.435 45.592C689.046 48.0667 687.851 51.608 687.851 56.216V95H666.091V56.216C666.091 51.608 664.854 48.0667 662.379 45.592C659.99 43.032 656.662 41.752 652.395 41.752C648.128 41.752 644.758 43.032 642.283 45.592C639.894 48.0667 638.699 51.608 638.699 56.216V95H616.811V23.576H638.699V32.536C640.918 29.5493 643.819 27.2027 647.403 25.496C650.987 23.704 655.04 22.808 659.563 22.808C664.939 22.808 669.718 23.96 673.899 26.264C678.166 28.568 681.494 31.8533 683.883 36.12C686.358 32.1947 689.728 28.9947 693.995 26.52C698.262 24.0453 702.912 22.808 707.947 22.808ZM819.639 58.136C819.639 60.184 819.511 62.3173 819.255 64.536H769.719C770.06 68.9733 771.468 72.3867 773.943 74.776C776.503 77.08 779.618 78.232 783.287 78.232C788.748 78.232 792.546 75.928 794.679 71.32H817.975C816.78 76.0133 814.604 80.2373 811.447 83.992C808.375 87.7467 804.492 90.6907 799.799 92.824C795.106 94.9573 789.858 96.024 784.055 96.024C777.058 96.024 770.828 94.5307 765.367 91.544C759.906 88.5573 755.639 84.2907 752.567 78.744C749.495 73.1973 747.959 66.712 747.959 59.288C747.959 51.864 749.452 45.3787 752.439 39.832C755.511 34.2853 759.778 30.0187 765.239 27.032C770.7 24.0453 776.972 22.552 784.055 22.552C790.967 22.552 797.111 24.0027 802.487 26.904C807.863 29.8053 812.044 33.944 815.031 39.32C818.103 44.696 819.639 50.968 819.639 58.136ZM797.239 52.376C797.239 48.6213 795.959 45.6347 793.399 43.416C790.839 41.1973 787.639 40.088 783.799 40.088C780.13 40.088 777.015 41.1547 774.455 43.288C771.98 45.4213 770.444 48.4507 769.847 52.376H797.239ZM874.706 22.808C883.069 22.808 889.725 25.5387 894.674 31C899.709 36.376 902.226 43.8 902.226 53.272V95H880.466V56.216C880.466 51.4373 879.229 47.7253 876.754 45.08C874.279 42.4347 870.951 41.112 866.77 41.112C862.589 41.112 859.261 42.4347 856.786 45.08C854.311 47.7253 853.074 51.4373 853.074 56.216V95H831.186V23.576H853.074V33.048C855.293 29.8907 858.279 27.416 862.034 25.624C865.789 23.7467 870.013 22.808 874.706 22.808ZM957.244 76.44V95H946.108C938.172 95 931.985 93.08 927.548 89.24C923.111 85.3147 920.892 78.9573 920.892 70.168V41.752H912.188V23.576H920.892V6.168H942.78V23.576H957.116V41.752H942.78V70.424C942.78 72.5573 943.292 74.0933 944.316 75.032C945.34 75.9707 947.047 76.44 949.436 76.44H957.244Z" fill="#12062E"/>
</svg>
