<svg width="222" height="38" viewBox="0 0 222 38" fill="none" xmlns="http://www.w3.org/2000/svg">
<path d="M113.554 19.3987C114.738 19.3884 115.897 19.7395 116.887 20.407C117.876 21.0746 118.651 22.0287 119.113 23.1492C119.575 24.2696 119.704 25.5057 119.483 26.7013C119.261 27.8968 118.701 28.9983 117.871 29.8661C117.041 30.7338 115.98 31.329 114.821 31.5764C113.663 31.8238 112.459 31.712 111.362 31.2557C110.265 30.7993 109.324 30.0189 108.658 29.0126C107.993 28.0063 107.632 26.8195 107.622 25.6025V25.5501C107.619 24.7455 107.77 23.9484 108.066 23.2038C108.362 22.4591 108.798 21.7815 109.349 21.2102C109.9 20.6388 110.555 20.1845 111.277 19.8734C111.998 19.5624 112.772 19.4022 113.554 19.3987ZM113.554 20.2181C112.529 20.2095 111.524 20.5138 110.667 21.0925C109.81 21.6711 109.139 22.4982 108.739 23.4691C108.339 24.4399 108.227 25.511 108.419 26.5469C108.611 27.5827 109.097 28.5367 109.816 29.2886C110.535 30.0404 111.454 30.5563 112.458 30.7707C113.462 30.9851 114.505 30.8883 115.456 30.4931C116.406 30.0978 117.221 29.4216 117.798 28.5498C118.375 27.6781 118.688 26.6501 118.696 25.5957V25.5501C118.699 24.8528 118.569 24.1621 118.312 23.5168C118.055 22.8715 117.677 22.2845 117.2 21.7894C116.723 21.2943 116.155 20.9005 115.53 20.631C114.905 20.3614 114.234 20.2211 113.556 20.2181H113.554ZM111.939 22.0666H113.843C114.396 22.0302 114.94 22.2185 115.358 22.5908C115.535 22.775 115.667 22.9994 115.742 23.246C115.818 23.4926 115.836 23.7543 115.795 24.0095C115.768 24.4093 115.617 24.7893 115.363 25.0941C115.09 25.4182 114.739 25.6623 114.344 25.8017L115.326 28.5724V28.6304H114.455L113.57 25.9732H112.109L111.665 28.6287H110.843L111.939 22.0666ZM112.639 22.7777L112.221 25.2639H113.42C113.8 25.2747 114.173 25.1511 114.475 24.9141C114.616 24.8039 114.734 24.6654 114.822 24.5068C114.91 24.3482 114.965 24.1732 114.985 23.992C115.014 23.8373 115.01 23.6778 114.972 23.5249C114.935 23.3721 114.865 23.2295 114.767 23.1078C114.653 22.996 114.519 22.9092 114.371 22.8527C114.224 22.7963 114.067 22.7713 113.909 22.7794L112.639 22.7777Z" fill="white"/>
<path d="M20.008 21.4143L22.3862 27.9938C19.144 30.0657 15.3923 31.1383 11.5756 31.0844C3.81764 31.0844 0.00912534 26.0997 0.00912534 19.4714C-0.0614752 17.3982 0.278181 15.3319 1.00747 13.3977C1.73676 11.4636 2.84048 9.70197 4.2517 8.21973C5.66291 6.73748 7.3522 5.5657 9.21708 4.77511C11.082 3.98453 13.0835 3.59155 15.1005 3.62051C21.4808 3.62051 24.8137 7.40812 24.8137 12.5916C24.7516 14.9495 24.2318 17.2711 23.2848 19.4194H8.4789C8.43133 21.8653 10.0502 23.7047 13.2862 23.7047C15.6804 23.5451 17.9948 22.7565 20.008 21.4143ZM17.533 14.2376C17.6764 13.8206 17.7567 13.3834 17.7708 12.9414C17.7708 11.4965 16.6752 10.4483 14.6758 10.4483C13.53 10.423 12.4067 10.7775 11.4721 11.4596C10.5375 12.1417 9.84123 13.1152 9.48623 14.2359L17.533 14.2376ZM30.5298 19.3213L31.3792 14.0802C31.617 12.8345 31.5694 11.8861 30.5298 11.8861C29.7238 11.8987 28.929 12.0828 28.1958 12.4274L29.1963 4.85743C31.0853 4.14514 33.0881 3.80702 35.0993 3.86022C39.1949 3.86022 41.7243 5.90223 40.717 11.7339L39.6706 17.8153C39.2425 20.6629 39.8608 22.1534 41.7175 22.1534C44.4354 22.1534 46.146 19.9609 46.146 13.5807C46.0985 10.4496 45.6827 7.33563 44.9077 4.30721H54.3899C54.8367 7.07542 55.0758 9.87482 55.105 12.6807C55.105 24.3405 49.963 30.8729 40.4961 30.8729C32.4341 30.8781 29.3407 26.4493 30.5298 19.3213ZM78.8478 21.4177L81.226 27.9972C77.9838 30.069 74.2322 31.1416 70.4155 31.0878C62.6541 31.0878 58.8456 26.1036 58.8456 19.4753C58.7762 17.4016 59.1169 15.3349 59.8471 13.4007C60.5774 11.4665 61.6819 9.70483 63.0938 8.22271C64.5057 6.7406 66.1955 5.56901 68.0608 4.77852C69.9262 3.98804 71.9281 3.59545 73.9454 3.62435C80.3258 3.62435 83.6586 7.41196 83.6586 12.5954C83.6002 14.9525 83.0844 17.2736 82.1416 19.4228H67.334C67.2865 21.8687 68.9053 23.7081 72.1414 23.7081C74.5317 23.5448 76.8416 22.7552 78.8513 21.4143L78.8478 21.4177ZM76.378 14.241C76.5212 13.8239 76.6014 13.3868 76.6158 12.9448C76.6158 11.5 75.5201 10.4517 73.5207 10.4517C72.375 10.4264 71.2517 10.7809 70.3171 11.463C69.3825 12.1451 68.6862 13.1186 68.3312 14.2393L76.378 14.241ZM88.184 30.3905L90.9019 14.0925C91.0921 12.8469 91.0921 11.8981 90.0525 11.8981C89.2366 11.9455 88.4335 12.1285 87.6744 12.4398L88.7225 4.8698C90.6356 4.19546 92.6457 3.85812 94.6679 3.87216C97.5252 3.87216 99.6197 4.96954 100.238 7.61108C100.874 6.46575 101.796 5.51542 102.908 4.85828C104.021 4.20115 105.283 3.86072 106.566 3.87216C108.027 3.85268 109.47 4.21341 110.76 4.92056L108.237 13.6925C106.825 12.9993 105.279 12.641 103.714 12.6441C102.632 12.6952 101.604 13.1389 100.811 13.8963C100.018 14.6538 99.5113 15.6762 99.3819 16.7814L97.0971 30.3888L88.184 30.3905Z" fill="white"/>
<path d="M138.766 7.58628C139.955 7.58628 141.073 7.72081 142.12 7.98985C143.19 8.2589 144.284 8.67469 145.401 9.23724L142.797 26.9208C142.369 29.8803 141.418 32.0082 139.943 33.3045C138.469 34.6253 136.555 35.2857 134.2 35.2857C133.082 35.2857 131.941 35.1145 130.776 34.7721C129.634 34.4296 128.611 33.9771 127.708 33.4146L128.956 30.8464C129.646 31.2622 130.431 31.6169 131.311 31.9104C132.214 32.2284 133.118 32.3873 134.022 32.3873C135.52 32.3873 136.757 32.0082 137.732 31.25C138.707 30.4918 139.337 29.0365 139.622 26.8841L139.943 24.4261C139.206 25.331 138.374 26.0526 137.446 26.5906C136.543 27.1043 135.591 27.3611 134.593 27.3611C132.714 27.3611 131.239 26.7129 130.169 25.4166C129.099 24.0959 128.564 22.3226 128.564 20.0969C128.564 18.0179 128.921 16.0245 129.634 14.1167C130.347 12.209 131.465 10.6436 132.987 9.42068C134.509 8.19775 136.436 7.58628 138.766 7.58628ZM138.766 10.2645C137.268 10.2645 136.008 10.7414 134.985 11.6953C133.986 12.6492 133.249 13.8844 132.773 15.4008C132.298 16.8928 132.06 18.4704 132.06 20.1336C132.06 21.6745 132.345 22.824 132.916 23.5822C133.487 24.316 134.271 24.6829 135.27 24.6829C136.222 24.6829 137.102 24.3649 137.91 23.729C138.742 23.0931 139.575 22.2003 140.407 21.0508L141.941 10.8882C141.394 10.6681 140.883 10.5091 140.407 10.4113C139.932 10.3134 139.385 10.2645 138.766 10.2645Z" fill="white"/>
<path d="M159.245 7.58628C160.411 7.58628 161.516 7.72081 162.563 7.98985C163.633 8.2589 164.727 8.67469 165.845 9.23724L163.918 22.9585C163.871 23.3499 163.847 23.6189 163.847 23.7657C163.847 24.2059 163.93 24.5606 164.097 24.8296C164.287 25.0987 164.608 25.3188 165.06 25.49L164.132 27.8013C163.134 27.6791 162.361 27.3611 161.814 26.8475C161.267 26.3338 160.934 25.5756 160.815 24.5728C160.054 25.5756 159.198 26.3705 158.246 26.9575C157.295 27.5201 156.284 27.8013 155.214 27.8013C153.312 27.8013 151.837 27.1287 150.791 25.7835C149.744 24.4383 149.221 22.6406 149.221 20.3904C149.221 18.4337 149.566 16.477 150.256 14.5203C150.969 12.5636 152.075 10.9249 153.573 9.60412C155.072 8.2589 156.962 7.58628 159.245 7.58628ZM159.317 10.2645C157.818 10.2645 156.57 10.7904 155.571 11.8421C154.596 12.8693 153.871 14.1657 153.395 15.731C152.943 17.2719 152.717 18.8373 152.717 20.4271C152.717 22.0169 152.991 23.2031 153.538 23.9858C154.085 24.744 154.869 25.1231 155.892 25.1231C156.867 25.1231 157.735 24.8174 158.496 24.2059C159.281 23.5945 160.09 22.7139 160.922 21.5644L162.385 10.8882C161.885 10.6681 161.398 10.5091 160.922 10.4113C160.47 10.3134 159.935 10.2645 159.317 10.2645Z" fill="white"/>
<path d="M174.882 27.8013C173.431 27.8013 172.29 27.3855 171.457 26.554C170.649 25.6979 170.245 24.5239 170.245 23.0319C170.245 22.6161 170.28 22.1881 170.352 21.7478L172.242 8.02654H175.488L173.633 21.6011C173.562 22.0413 173.526 22.4449 173.526 22.8118C173.526 23.6434 173.693 24.2426 174.026 24.6095C174.383 24.9764 174.906 25.1598 175.595 25.1598C176.666 25.1598 177.653 24.744 178.556 23.9124C179.484 23.0808 180.399 21.9802 181.303 20.6105L183.015 8.02654H186.262L183.622 27.3611H180.839L181.089 23.8024C180.162 25.1231 179.198 26.1259 178.2 26.8108C177.225 27.4712 176.119 27.8013 174.882 27.8013Z" fill="white"/>
<path d="M203.854 8.02654L203.533 10.5947L192.189 24.5361H201.714L200.965 27.3611H187.837L188.158 24.8296L199.467 10.8882H190.905L191.298 8.02654H203.854Z" fill="white"/>
<path d="M213.296 27.5445C212.321 29.7703 211.06 31.5313 209.514 32.8276C207.969 34.1239 205.959 34.9066 203.486 35.1756L203.343 32.5341C204.627 32.314 205.662 31.996 206.447 31.5802C207.255 31.1644 207.933 30.6263 208.48 29.9659C209.027 29.33 209.586 28.4617 210.157 27.3611H208.944L205.341 8.02654H208.765L211.405 24.7929L218.611 8.02654H222L213.296 27.5445Z" fill="white"/>
</svg>
