<svg width="20" height="20" viewBox="0 0 20 20" fill="none" xmlns="http://www.w3.org/2000/svg">
<path d="M11.25 18.2401C15.2594 17.6369 18.3333 14.1773 18.3333 9.99984C18.3333 5.39746 14.6023 1.6665 9.99996 1.6665C5.39758 1.6665 1.66663 5.39746 1.66663 9.99984C1.66663 14.1773 4.74058 17.6369 8.74996 18.2401V12.4998H7.49996C6.8096 12.4998 6.24996 11.9402 6.24996 11.2498C6.24996 10.5595 6.8096 9.99984 7.49996 9.99984H8.74996V8.33317C8.74996 6.72234 10.0558 5.4165 11.6666 5.4165H12.0833C12.7736 5.4165 13.3333 5.97615 13.3333 6.6665C13.3333 7.35686 12.7736 7.9165 12.0833 7.9165H11.6666C11.4365 7.9165 11.25 8.10305 11.25 8.33317V9.99984H12.5C13.1903 9.99984 13.75 10.5595 13.75 11.2498C13.75 11.9402 13.1903 12.4998 12.5 12.4998H11.25L11.25 18.2401Z" fill="#8F8C98"/>
</svg>
