<svg width="20" height="20" viewBox="0 0 20 20" fill="none" xmlns="http://www.w3.org/2000/svg">
<path d="M11.2493 18.2401C15.2588 17.6369 18.3327 14.1773 18.3327 9.99984C18.3327 5.39746 14.6017 1.6665 9.99935 1.6665C5.39697 1.6665 1.66602 5.39746 1.66602 9.99984C1.66602 14.1773 4.73997 17.6369 8.74935 18.2401V12.4998H7.49935C6.80899 12.4998 6.24935 11.9402 6.24935 11.2498C6.24935 10.5595 6.80899 9.99984 7.49935 9.99984H8.74935V8.33317C8.74935 6.72234 10.0552 5.4165 11.666 5.4165H12.0827C12.773 5.4165 13.3327 5.97615 13.3327 6.6665C13.3327 7.35686 12.773 7.9165 12.0827 7.9165H11.666C11.4359 7.9165 11.2493 8.10305 11.2493 8.33317V9.99984H12.4993C13.1897 9.99984 13.7493 10.5595 13.7493 11.2498C13.7493 11.9402 13.1897 12.4998 12.4993 12.4998H11.2493L11.2493 18.2401Z" fill="white"/>
</svg>
