<svg width="271" height="54" viewBox="0 0 271 54" fill="none" xmlns="http://www.w3.org/2000/svg">
<path d="M109 14.872V18.94H98.524V25.384H106.552V29.38H98.524V40H93.484V14.872H109ZM131.114 29.596C131.114 30.316 131.066 30.964 130.97 31.54H116.39C116.51 32.98 117.014 34.108 117.902 34.924C118.79 35.74 119.882 36.148 121.178 36.148C123.05 36.148 124.382 35.344 125.174 33.736H130.61C130.034 35.656 128.93 37.24 127.298 38.488C125.666 39.712 123.662 40.324 121.286 40.324C119.366 40.324 117.638 39.904 116.102 39.064C114.59 38.2 113.402 36.988 112.538 35.428C111.698 33.868 111.278 32.068 111.278 30.028C111.278 27.964 111.698 26.152 112.538 24.592C113.378 23.032 114.554 21.832 116.066 20.992C117.578 20.152 119.318 19.732 121.286 19.732C123.182 19.732 124.874 20.14 126.362 20.956C127.874 21.772 129.038 22.936 129.854 24.448C130.694 25.936 131.114 27.652 131.114 29.596ZM125.894 28.156C125.87 26.86 125.402 25.828 124.49 25.06C123.578 24.268 122.462 23.872 121.142 23.872C119.894 23.872 118.838 24.256 117.974 25.024C117.134 25.768 116.618 26.812 116.426 28.156H125.894ZM153.333 29.596C153.333 30.316 153.285 30.964 153.189 31.54H138.609C138.729 32.98 139.233 34.108 140.121 34.924C141.009 35.74 142.101 36.148 143.397 36.148C145.269 36.148 146.601 35.344 147.393 33.736H152.829C152.253 35.656 151.149 37.24 149.517 38.488C147.885 39.712 145.881 40.324 143.505 40.324C141.585 40.324 139.857 39.904 138.321 39.064C136.809 38.2 135.621 36.988 134.757 35.428C133.917 33.868 133.497 32.068 133.497 30.028C133.497 27.964 133.917 26.152 134.757 24.592C135.597 23.032 136.773 21.832 138.285 20.992C139.797 20.152 141.537 19.732 143.505 19.732C145.401 19.732 147.093 20.14 148.581 20.956C150.093 21.772 151.257 22.936 152.073 24.448C152.913 25.936 153.333 27.652 153.333 29.596ZM148.113 28.156C148.089 26.86 147.621 25.828 146.709 25.06C145.797 24.268 144.681 23.872 143.361 23.872C142.113 23.872 141.057 24.256 140.193 25.024C139.353 25.768 138.837 26.812 138.645 28.156H148.113ZM155.715 29.956C155.715 27.94 156.111 26.152 156.903 24.592C157.719 23.032 158.823 21.832 160.215 20.992C161.607 20.152 163.155 19.732 164.859 19.732C166.155 19.732 167.391 20.02 168.567 20.596C169.743 21.148 170.679 21.892 171.375 22.828V13.36H176.487V40H171.375V37.048C170.751 38.032 169.875 38.824 168.747 39.424C167.619 40.024 166.311 40.324 164.823 40.324C163.143 40.324 161.607 39.892 160.215 39.028C158.823 38.164 157.719 36.952 156.903 35.392C156.111 33.808 155.715 31.996 155.715 29.956ZM171.411 30.028C171.411 28.804 171.171 27.76 170.691 26.896C170.211 26.008 169.563 25.336 168.747 24.88C167.931 24.4 167.055 24.16 166.119 24.16C165.183 24.16 164.319 24.388 163.527 24.844C162.735 25.3 162.087 25.972 161.583 26.86C161.103 27.724 160.863 28.756 160.863 29.956C160.863 31.156 161.103 32.212 161.583 33.124C162.087 34.012 162.735 34.696 163.527 35.176C164.343 35.656 165.207 35.896 166.119 35.896C167.055 35.896 167.931 35.668 168.747 35.212C169.563 34.732 170.211 34.06 170.691 33.196C171.171 32.308 171.411 31.252 171.411 30.028ZM186.45 22.972C187.098 22.012 187.986 21.232 189.114 20.632C190.266 20.032 191.574 19.732 193.038 19.732C194.742 19.732 196.278 20.152 197.646 20.992C199.038 21.832 200.13 23.032 200.922 24.592C201.738 26.128 202.146 27.916 202.146 29.956C202.146 31.996 201.738 33.808 200.922 35.392C200.13 36.952 199.038 38.164 197.646 39.028C196.278 39.892 194.742 40.324 193.038 40.324C191.55 40.324 190.242 40.036 189.114 39.46C188.01 38.86 187.122 38.092 186.45 37.156V40H181.41V13.36H186.45V22.972ZM196.998 29.956C196.998 28.756 196.746 27.724 196.242 26.86C195.762 25.972 195.114 25.3 194.298 24.844C193.506 24.388 192.642 24.16 191.706 24.16C190.794 24.16 189.93 24.4 189.114 24.88C188.322 25.336 187.674 26.008 187.17 26.896C186.69 27.784 186.45 28.828 186.45 30.028C186.45 31.228 186.69 32.272 187.17 33.16C187.674 34.048 188.322 34.732 189.114 35.212C189.93 35.668 190.794 35.896 191.706 35.896C192.642 35.896 193.506 35.656 194.298 35.176C195.114 34.696 195.762 34.012 196.242 33.124C196.746 32.236 196.998 31.18 196.998 29.956ZM204.512 29.956C204.512 27.94 204.908 26.152 205.7 24.592C206.516 23.032 207.608 21.832 208.976 20.992C210.368 20.152 211.916 19.732 213.62 19.732C215.108 19.732 216.404 20.032 217.508 20.632C218.636 21.232 219.536 21.988 220.208 22.9V20.056H225.284V40H220.208V37.084C219.56 38.02 218.66 38.8 217.508 39.424C216.38 40.024 215.072 40.324 213.584 40.324C211.904 40.324 210.368 39.892 208.976 39.028C207.608 38.164 206.516 36.952 205.7 35.392C204.908 33.808 204.512 31.996 204.512 29.956ZM220.208 30.028C220.208 28.804 219.968 27.76 219.488 26.896C219.008 26.008 218.36 25.336 217.544 24.88C216.728 24.4 215.852 24.16 214.916 24.16C213.98 24.16 213.116 24.388 212.324 24.844C211.532 25.3 210.884 25.972 210.38 26.86C209.9 27.724 209.66 28.756 209.66 29.956C209.66 31.156 209.9 32.212 210.38 33.124C210.884 34.012 211.532 34.696 212.324 35.176C213.14 35.656 214.004 35.896 214.916 35.896C215.852 35.896 216.728 35.668 217.544 35.212C218.36 34.732 219.008 34.06 219.488 33.196C219.968 32.308 220.208 31.252 220.208 30.028ZM228.911 30.028C228.911 27.964 229.331 26.164 230.171 24.628C231.011 23.068 232.175 21.868 233.663 21.028C235.151 20.164 236.855 19.732 238.775 19.732C241.247 19.732 243.287 20.356 244.895 21.604C246.527 22.828 247.619 24.556 248.171 26.788H242.735C242.447 25.924 241.955 25.252 241.259 24.772C240.587 24.268 239.747 24.016 238.739 24.016C237.299 24.016 236.159 24.544 235.319 25.6C234.479 26.632 234.059 28.108 234.059 30.028C234.059 31.924 234.479 33.4 235.319 34.456C236.159 35.488 237.299 36.004 238.739 36.004C240.779 36.004 242.111 35.092 242.735 33.268H248.171C247.619 35.428 246.527 37.144 244.895 38.416C243.263 39.688 241.223 40.324 238.775 40.324C236.855 40.324 235.151 39.904 233.663 39.064C232.175 38.2 231.011 37 230.171 35.464C229.331 33.904 228.911 32.092 228.911 30.028ZM263.671 40L256.903 31.504V40H251.863V13.36H256.903V28.516L263.599 20.056H270.151L261.367 30.064L270.223 40H263.671Z" fill="#12062E"/>
<path d="M68.0607 28.0607C68.6465 27.4749 68.6465 26.5251 68.0607 25.9393L58.5147 16.3934C57.9289 15.8076 56.9792 15.8076 56.3934 16.3934C55.8076 16.9792 55.8076 17.9289 56.3934 18.5147L64.8787 27L56.3934 35.4853C55.8076 36.0711 55.8076 37.0208 56.3934 37.6066C56.9792 38.1924 57.9289 38.1924 58.5147 37.6066L68.0607 28.0607ZM-80 28.5H67V25.5H-80V28.5Z" fill="#12062E"/>
</svg>
