<svg width="80" height="176" viewBox="0 0 80 176" fill="none" xmlns="http://www.w3.org/2000/svg">
<path d="M5.03004 34.0503V23.9902M10.0601 29.0203H0H10.0601Z" stroke="#EEEEEE" stroke-miterlimit="10"/>
<path d="M5.03004 10.0601V0M10.0601 5.03004H0H10.0601Z" stroke="#EEEEEE" stroke-miterlimit="10"/>
<path d="M5.03004 34.0503V23.9902M10.0601 29.0203H0H10.0601Z" stroke="#EEEEEE" stroke-width="2" stroke-miterlimit="10"/>
<path d="M5.03004 10.0601V0M10.0601 5.03004H0H10.0601Z" stroke="#EEEEEE" stroke-width="2" stroke-miterlimit="10"/>
<path d="M28.2449 34.0484V23.9883M33.2749 29.0183H23.2148H33.2749Z" stroke="#EEEEEE" stroke-miterlimit="10"/>
<path d="M28.2449 10.0601V0M33.2749 5.03004H23.2148H33.2749Z" stroke="#EEEEEE" stroke-miterlimit="10"/>
<path d="M28.2449 34.0484V23.9883M33.2749 29.0183H23.2148H33.2749Z" stroke="#EEEEEE" stroke-width="2" stroke-miterlimit="10"/>
<path d="M28.2449 10.0601V0M33.2749 5.03004H23.2148H33.2749Z" stroke="#EEEEEE" stroke-width="2" stroke-miterlimit="10"/>
<path d="M51.4617 34.0484V23.9883M56.4917 29.0183H46.4316H56.4917Z" stroke="#EEEEEE" stroke-miterlimit="10"/>
<path d="M51.4617 10.0601V0M56.4917 5.03004H46.4316H56.4917Z" stroke="#EEEEEE" stroke-miterlimit="10"/>
<path d="M51.4617 34.0484V23.9883M56.4917 29.0183H46.4316H56.4917Z" stroke="#EEEEEE" stroke-width="2" stroke-miterlimit="10"/>
<path d="M51.4617 10.0601V0M56.4917 5.03004H46.4316H56.4917Z" stroke="#EEEEEE" stroke-width="2" stroke-miterlimit="10"/>
<path d="M74.6765 34.0503V23.9902M79.7066 29.0203H69.6465H79.7066Z" stroke="#EEEEEE" stroke-miterlimit="10"/>
<path d="M74.6765 10.0601V0M79.7066 5.03004H69.6465H79.7066Z" stroke="#EEEEEE" stroke-miterlimit="10"/>
<path d="M74.6765 34.0503V23.9902M79.7066 29.0203H69.6465H79.7066Z" stroke="#EEEEEE" stroke-width="2" stroke-miterlimit="10"/>
<path d="M74.6765 10.0601V0M79.7066 5.03004H69.6465H79.7066Z" stroke="#EEEEEE" stroke-width="2" stroke-miterlimit="10"/>
<path d="M5.03004 128.46V118.4M10.0601 123.43H0H10.0601Z" stroke="#EEEEEE" stroke-miterlimit="10"/>
<path d="M5.03004 104.47V94.4102M10.0601 99.4402H0H10.0601Z" stroke="#EEEEEE" stroke-miterlimit="10"/>
<path d="M5.03004 128.46V118.4M10.0601 123.43H0H10.0601Z" stroke="#EEEEEE" stroke-width="2" stroke-miterlimit="10"/>
<path d="M5.03004 104.47V94.4102M10.0601 99.4402H0H10.0601Z" stroke="#EEEEEE" stroke-width="2" stroke-miterlimit="10"/>
<path d="M28.2449 128.459V118.398M33.2749 123.428H23.2148H33.2749Z" stroke="#EEEEEE" stroke-miterlimit="10"/>
<path d="M28.2449 104.47V94.4102M33.2749 99.4402H23.2148H33.2749Z" stroke="#EEEEEE" stroke-miterlimit="10"/>
<path d="M28.2449 128.459V118.398M33.2749 123.428H23.2148H33.2749Z" stroke="#EEEEEE" stroke-width="2" stroke-miterlimit="10"/>
<path d="M28.2449 104.47V94.4102M33.2749 99.4402H23.2148H33.2749Z" stroke="#EEEEEE" stroke-width="2" stroke-miterlimit="10"/>
<path d="M51.4617 128.459V118.398M56.4917 123.428H46.4316H56.4917Z" stroke="#EEEEEE" stroke-miterlimit="10"/>
<path d="M51.4617 104.47V94.4102M56.4917 99.4402H46.4316H56.4917Z" stroke="#EEEEEE" stroke-miterlimit="10"/>
<path d="M51.4617 128.459V118.398M56.4917 123.428H46.4316H56.4917Z" stroke="#EEEEEE" stroke-width="2" stroke-miterlimit="10"/>
<path d="M51.4617 104.47V94.4102M56.4917 99.4402H46.4316H56.4917Z" stroke="#EEEEEE" stroke-width="2" stroke-miterlimit="10"/>
<path d="M74.6765 128.46V118.4M79.7066 123.43H69.6465H79.7066Z" stroke="#EEEEEE" stroke-miterlimit="10"/>
<path d="M74.6765 104.47V94.4102M79.7066 99.4402H69.6465H79.7066Z" stroke="#EEEEEE" stroke-miterlimit="10"/>
<path d="M74.6765 128.46V118.4M79.7066 123.43H69.6465H79.7066Z" stroke="#EEEEEE" stroke-width="2" stroke-miterlimit="10"/>
<path d="M74.6765 104.47V94.4102M79.7066 99.4402H69.6465H79.7066Z" stroke="#EEEEEE" stroke-width="2" stroke-miterlimit="10"/>
<path d="M5.03004 81.2554V71.1953M10.0601 76.2253H0H10.0601Z" stroke="#EEEEEE" stroke-miterlimit="10"/>
<path d="M5.03004 57.2651V47.2051M10.0601 52.2351H0H10.0601Z" stroke="#EEEEEE" stroke-miterlimit="10"/>
<path d="M5.03004 81.2554V71.1953M10.0601 76.2253H0H10.0601Z" stroke="#EEEEEE" stroke-width="2" stroke-miterlimit="10"/>
<path d="M5.03004 57.2651V47.2051M10.0601 52.2351H0H10.0601Z" stroke="#EEEEEE" stroke-width="2" stroke-miterlimit="10"/>
<path d="M28.2449 81.2534V71.1934M33.2749 76.2234H23.2148H33.2749Z" stroke="#EEEEEE" stroke-miterlimit="10"/>
<path d="M28.2449 57.2651V47.2051M33.2749 52.2351H23.2148H33.2749Z" stroke="#EEEEEE" stroke-miterlimit="10"/>
<path d="M28.2449 81.2534V71.1934M33.2749 76.2234H23.2148H33.2749Z" stroke="#EEEEEE" stroke-width="2" stroke-miterlimit="10"/>
<path d="M28.2449 57.2651V47.2051M33.2749 52.2351H23.2148H33.2749Z" stroke="#EEEEEE" stroke-width="2" stroke-miterlimit="10"/>
<path d="M51.4617 81.2534V71.1934M56.4917 76.2234H46.4316H56.4917Z" stroke="#EEEEEE" stroke-miterlimit="10"/>
<path d="M51.4617 57.2651V47.2051M56.4917 52.2351H46.4316H56.4917Z" stroke="#EEEEEE" stroke-miterlimit="10"/>
<path d="M51.4617 81.2534V71.1934M56.4917 76.2234H46.4316H56.4917Z" stroke="#EEEEEE" stroke-width="2" stroke-miterlimit="10"/>
<path d="M51.4617 57.2651V47.2051M56.4917 52.2351H46.4316H56.4917Z" stroke="#EEEEEE" stroke-width="2" stroke-miterlimit="10"/>
<path d="M74.6765 81.2554V71.1953M79.7066 76.2253H69.6465H79.7066Z" stroke="#EEEEEE" stroke-miterlimit="10"/>
<path d="M74.6765 57.2651V47.2051M79.7066 52.2351H69.6465H79.7066Z" stroke="#EEEEEE" stroke-miterlimit="10"/>
<path d="M74.6765 81.2554V71.1953M79.7066 76.2253H69.6465H79.7066Z" stroke="#EEEEEE" stroke-width="2" stroke-miterlimit="10"/>
<path d="M74.6765 57.2651V47.2051M79.7066 52.2351H69.6465H79.7066Z" stroke="#EEEEEE" stroke-width="2" stroke-miterlimit="10"/>
<path d="M5.03004 175.666V165.605M10.0601 170.636H0H10.0601Z" stroke="#EEEEEE" stroke-miterlimit="10"/>
<path d="M5.03004 151.675V141.615M10.0601 146.645H0H10.0601Z" stroke="#EEEEEE" stroke-miterlimit="10"/>
<path d="M5.03004 175.666V165.605M10.0601 170.636H0H10.0601Z" stroke="#EEEEEE" stroke-width="2" stroke-miterlimit="10"/>
<path d="M5.03004 151.675V141.615M10.0601 146.645H0H10.0601Z" stroke="#EEEEEE" stroke-width="2" stroke-miterlimit="10"/>
<path d="M28.2449 175.666V165.605M33.2749 170.636H23.2148H33.2749Z" stroke="#EEEEEE" stroke-miterlimit="10"/>
<path d="M28.2449 151.675V141.615M33.2749 146.645H23.2148H33.2749Z" stroke="#EEEEEE" stroke-miterlimit="10"/>
<path d="M28.2449 175.666V165.605M33.2749 170.636H23.2148H33.2749Z" stroke="#EEEEEE" stroke-width="2" stroke-miterlimit="10"/>
<path d="M28.2449 151.675V141.615M33.2749 146.645H23.2148H33.2749Z" stroke="#EEEEEE" stroke-width="2" stroke-miterlimit="10"/>
<path d="M51.4617 175.666V165.605M56.4917 170.636H46.4316H56.4917Z" stroke="#EEEEEE" stroke-miterlimit="10"/>
<path d="M51.4617 151.675V141.615M56.4917 146.645H46.4316H56.4917Z" stroke="#EEEEEE" stroke-miterlimit="10"/>
<path d="M51.4617 175.666V165.605M56.4917 170.636H46.4316H56.4917Z" stroke="#EEEEEE" stroke-width="2" stroke-miterlimit="10"/>
<path d="M51.4617 151.675V141.615M56.4917 146.645H46.4316H56.4917Z" stroke="#EEEEEE" stroke-width="2" stroke-miterlimit="10"/>
<path d="M74.6765 175.666V165.605M79.7066 170.636H69.6465H79.7066Z" stroke="#EEEEEE" stroke-miterlimit="10"/>
<path d="M74.6765 151.675V141.615M79.7066 146.645H69.6465H79.7066Z" stroke="#EEEEEE" stroke-miterlimit="10"/>
<path d="M74.6765 175.666V165.605M79.7066 170.636H69.6465H79.7066Z" stroke="#EEEEEE" stroke-width="2" stroke-miterlimit="10"/>
<path d="M74.6765 151.675V141.615M79.7066 146.645H69.6465H79.7066Z" stroke="#EEEEEE" stroke-width="2" stroke-miterlimit="10"/>
</svg>
