<svg width="26" height="25" viewBox="0 0 26 25" fill="none" xmlns="http://www.w3.org/2000/svg">
<path d="M12.6562 25C19.5598 25 25.1562 19.4036 25.1562 12.5C25.1562 5.59644 19.5598 0 12.6562 0C5.75269 0 0.15625 5.59644 0.15625 12.5C0.15625 19.4036 5.75269 25 12.6562 25Z" fill="#373C59"/>
<path d="M16.5359 7.77344C16.3654 7.77344 16.1987 7.824 16.0569 7.91872C15.9152 8.01345 15.8047 8.14809 15.7395 8.30561C15.6742 8.46313 15.6571 8.63646 15.6904 8.80369C15.7237 8.97091 15.8057 9.12452 15.9263 9.24508C16.0469 9.36564 16.2005 9.44775 16.3677 9.48101C16.5349 9.51427 16.7083 9.49721 16.8658 9.43196C17.0233 9.36671 17.1579 9.25621 17.2527 9.11445C17.3474 8.97268 17.398 8.80601 17.398 8.63551C17.398 8.40687 17.3071 8.1876 17.1454 8.02593C16.9838 7.86426 16.7645 7.77344 16.5359 7.77344Z" fill="white"/>
<path d="M12.7124 8.875C11.9982 8.875 11.3001 9.08677 10.7063 9.48353C10.1125 9.88029 9.64974 10.4442 9.37644 11.104C9.10315 11.7638 9.03161 12.4898 9.17094 13.1902C9.31026 13.8907 9.65416 14.534 10.1591 15.039C10.6641 15.544 11.3075 15.8879 12.008 16.0272C12.7084 16.1665 13.4344 16.095 14.0942 15.8217C14.7539 15.5484 15.3179 15.0856 15.7147 14.4918C16.1114 13.8981 16.3232 13.1999 16.3232 12.4858C16.3232 12.0116 16.2298 11.5421 16.0483 11.104C15.8668 10.6659 15.6009 10.2679 15.2656 9.93258C14.9303 9.59729 14.5322 9.33132 14.0942 9.14986C13.6561 8.9684 13.1865 8.875 12.7124 8.875ZM12.7124 14.7964C12.2557 14.795 11.8096 14.6583 11.4306 14.4036C11.0515 14.1488 10.7565 13.7875 10.5827 13.3651C10.4089 12.9428 10.3641 12.4785 10.4541 12.0307C10.544 11.583 10.7646 11.1719 11.0881 10.8495C11.4115 10.527 11.8232 10.3077 12.2713 10.2191C12.7193 10.1305 13.1835 10.1766 13.6053 10.3517C14.0271 10.5268 14.3876 10.823 14.6412 11.2028C14.8947 11.5826 15.0301 12.0291 15.0301 12.4858C15.0282 13.0993 14.7832 13.687 14.3487 14.1201C13.9143 14.5532 13.3258 14.7964 12.7124 14.7964Z" fill="white"/>
<path d="M15.5811 19.8134H9.73036C9.15225 19.8134 8.57978 19.6995 8.04568 19.4783C7.51158 19.257 7.02631 18.9328 6.61753 18.524C6.20875 18.1152 5.88446 17.6299 5.66323 17.0958C5.442 16.5617 5.32812 15.9893 5.32812 15.4112V9.56041C5.32812 8.39287 5.79196 7.27315 6.61753 6.44758C7.4431 5.62201 8.56282 5.1582 9.73036 5.1582H15.5811C16.7486 5.1582 17.8684 5.62201 18.6939 6.44758C19.5195 7.27315 19.9833 8.39287 19.9833 9.56041V15.4112C19.9833 15.9893 19.8695 16.5617 19.6482 17.0958C19.427 17.6299 19.1027 18.1152 18.6939 18.524C18.2851 18.9328 17.7998 19.257 17.2657 19.4783C16.7316 19.6995 16.1592 19.8134 15.5811 19.8134ZM9.73036 6.5361C8.92826 6.5361 8.15901 6.85473 7.59184 7.4219C7.02467 7.98907 6.70603 8.75831 6.70603 9.56041V15.4112C6.70417 15.8095 6.78104 16.2043 6.9322 16.5729C7.08335 16.9414 7.30582 17.2765 7.58684 17.5588C7.86786 17.8412 8.20188 18.0652 8.56973 18.2181C8.93758 18.3709 9.33201 18.4496 9.73036 18.4496H15.5811C15.9783 18.4496 16.3715 18.3714 16.7384 18.2194C17.1054 18.0674 17.4388 17.8446 17.7196 17.5638C18.0004 17.283 18.2232 16.9496 18.3752 16.5827C18.5272 16.2157 18.6054 15.8225 18.6054 15.4253V9.56041C18.6054 8.75831 18.2868 7.98907 17.7196 7.4219C17.1524 6.85473 16.3832 6.5361 15.5811 6.5361H9.73036Z" fill="white"/>
</svg>
