<svg width="26" height="25" viewBox="0 0 26 25" fill="none" xmlns="http://www.w3.org/2000/svg">
<path d="M12.8145 25C19.718 25 25.3145 19.4036 25.3145 12.5C25.3145 5.59644 19.718 0 12.8145 0C5.91089 0 0.314453 5.59644 0.314453 12.5C0.314453 19.4036 5.91089 25 12.8145 25Z" fill="#373C59"/>
<path d="M19.7182 8.20975C19.2669 8.40422 18.7916 8.53731 18.3049 8.60545C18.5311 8.60545 18.8561 8.16735 19.0116 8.00483C19.2159 7.75837 19.3718 7.47545 19.4709 7.17102C19.4709 7.17102 19.4709 7.1145 19.4709 7.10036C19.4591 7.09354 19.4456 7.08995 19.432 7.08995C19.4183 7.08995 19.4049 7.09354 19.3931 7.10036C18.8765 7.37369 18.3283 7.58253 17.7608 7.72219C17.7439 7.73286 17.7243 7.73852 17.7043 7.73852C17.6843 7.73852 17.6647 7.73286 17.6478 7.72219C17.6043 7.66937 17.5571 7.61977 17.5065 7.57379C17.2716 7.37025 17.004 7.20781 16.7151 7.0933C16.3309 6.93359 15.9147 6.86584 15.4997 6.89544C15.0971 6.92478 14.7046 7.03576 14.3462 7.22163C13.9879 7.40749 13.6711 7.66435 13.4152 7.97656C13.1508 8.30312 12.9625 8.68452 12.864 9.09301C12.7864 9.48015 12.7864 9.87886 12.864 10.266C12.864 10.3296 12.864 10.3367 12.8075 10.3296C10.6495 10.1157 8.64779 9.10848 7.18992 7.50313C7.12633 7.42541 7.09098 7.42541 7.04152 7.50313C6.74444 8.04084 6.63063 8.6607 6.71733 9.26887C6.80402 9.87704 7.08652 10.4404 7.52201 10.8737L7.86825 11.1775C7.49209 11.1445 7.12545 11.0414 6.78715 10.8737C6.71649 10.8313 6.68821 10.8737 6.68114 10.9302C6.67075 11.0359 6.67075 11.1425 6.68114 11.2482C6.74801 11.7544 6.9481 12.2337 7.26096 12.6372C7.57382 13.0407 7.98824 13.3539 8.46182 13.5447C8.5768 13.5971 8.69786 13.6351 8.8222 13.6577C8.46871 13.7133 8.1087 13.7133 7.75521 13.6577C7.67748 13.6577 7.64923 13.6577 7.67749 13.7567C7.85897 14.2334 8.15943 14.6557 8.55028 14.9835C8.94112 15.3112 9.40933 15.5335 9.91037 15.6292C10.0125 15.636 10.1141 15.6501 10.2142 15.6716C9.78061 16.0647 9.25616 16.3439 8.68794 16.4842C7.94557 16.7481 7.15513 16.8493 6.37023 16.781C6.24304 16.781 6.22183 16.781 6.1865 16.781C6.15117 16.781 6.18654 16.8304 6.22187 16.8658C6.37732 16.9647 6.53984 17.0566 6.70236 17.1484C7.19416 17.4111 7.71303 17.6196 8.24985 17.7702C9.62747 18.1815 11.0885 18.2264 12.4888 17.9005C13.8891 17.5746 15.1801 16.8891 16.2346 15.9118C16.993 15.0882 17.5793 14.1215 17.9591 13.0682C18.3389 12.015 18.5045 10.8965 18.4463 9.77843C18.4463 9.69364 18.5523 9.64417 18.6159 9.59471C19.0307 9.27175 19.3972 8.89102 19.704 8.46413C19.7514 8.40105 19.7763 8.32394 19.7747 8.24508C19.7747 8.24508 19.7747 8.18855 19.7182 8.20975Z" fill="white"/>
</svg>
