<svg width="25" height="25" viewBox="0 0 25 25" fill="none" xmlns="http://www.w3.org/2000/svg">
<path d="M25 12.4953C24.9991 10.1066 24.3138 7.76812 23.0251 5.75677C21.7365 3.74543 19.8986 2.14543 17.7289 1.1462C15.5592 0.146968 13.1486 -0.209651 10.7825 0.118562C8.4164 0.446775 6.1939 1.44608 4.37811 2.99816C2.56231 4.55024 1.22929 6.59011 0.536799 8.87626C-0.155694 11.1624 -0.178655 13.5991 0.470683 15.8979C1.12002 18.1967 2.41446 20.2613 4.20072 21.8473C5.98698 23.4333 8.19024 24.4742 10.5497 24.8469V16.1132H7.39118V12.4953H10.5709V9.73952C10.5709 6.60922 12.4364 4.87802 15.2911 4.87802C16.2381 4.89019 17.1829 4.97286 18.1176 5.12534V8.19911H16.5418C16.2699 8.15604 15.9917 8.1756 15.7285 8.25631C15.4653 8.33702 15.224 8.47674 15.023 8.66483C14.8219 8.85291 14.6665 9.08441 14.5685 9.34167C14.4704 9.59894 14.4324 9.87518 14.4573 10.1494V12.4953H17.9268L17.3756 16.1132H14.4573V24.8469C17.3969 24.3794 20.0735 22.8788 22.0059 20.6148C23.9383 18.3509 24.9999 15.4719 25 12.4953Z" fill="#373C59"/>
<path d="M17.368 16.1141L17.9192 12.4962H14.4568V10.1502C14.4332 9.88016 14.4706 9.60823 14.5663 9.35456C14.662 9.1009 14.8134 8.87198 15.0095 8.68473C15.2056 8.49749 15.4412 8.35671 15.699 8.27281C15.9568 8.1889 16.2302 8.16402 16.4989 8.19999H18.0746V5.12622C17.1399 4.97374 16.1952 4.89108 15.2482 4.87891C12.4217 4.87891 10.528 6.61011 10.528 9.74041V12.4962H7.39062V16.1141H10.5704V24.8478C11.863 25.0457 13.1783 25.0457 14.4709 24.8478V16.1141H17.368Z" fill="white"/>
</svg>
