<svg width="104" height="104" viewBox="0 0 104 104" fill="none" xmlns="http://www.w3.org/2000/svg">
<g clip-path="url(#clip0_576_38214)">
<g clip-path="url(#clip1_576_38214)">
<path d="M52.3631 89H22.9291C17.4517 88.987 15 86.5352 15 81.0188V21.9812C15 16.4648 17.4517 14 22.9421 14H82.1622C87.5222 14 89.987 16.5039 89.987 21.8899C89.987 41.6343 89.987 61.3744 89.987 81.1101C89.987 86.4961 87.5091 88.9348 82.1622 88.9348L52.3631 89ZM21.7423 38.3349V82.2838H83.3359V38.3349H21.7423ZM83.3229 20.7423H21.7553V33.7835H83.3229V20.7423Z" fill="white"/>
<path d="M50.211 78.4497L45.9727 77.4064C48.9069 65.6693 51.8151 53.9974 54.7624 42.1951L59.0139 43.2514C56.0796 55.0146 53.1584 66.6865 50.211 78.4497Z" fill="white"/>
<path d="M40.9123 67.2605L37.8215 70.3904L27.8711 60.4269L37.8607 50.5156L40.4689 53.1239L33.3354 60.0357L40.9123 67.2605Z" fill="white"/>
<path d="M67.0074 70.2865L64.334 67.6783L71.5327 60.636L63.9297 53.2547L67.3204 50.6465L76.9448 60.31L67.0074 70.2865Z" fill="white"/>
<path d="M74.6367 29.2845V25.1504H78.9012V29.2845H74.6367Z" fill="white"/>
<path d="M57.0449 29.3495V25.1502H61.192V29.3495H57.0449Z" fill="white"/>
<path d="M65.9512 25.125H69.9418V29.3373H65.9512V25.125Z" fill="white"/>
</g>
</g>
<defs>
<clipPath id="clip0_576_38214">
<rect width="104" height="104" fill="white"/>
</clipPath>
<clipPath id="clip1_576_38214">
<rect width="75" height="75" fill="white" transform="translate(15 14)"/>
</clipPath>
</defs>
</svg>
