<svg width="181" height="46" viewBox="0 0 181 46" fill="none" xmlns="http://www.w3.org/2000/svg">
<path d="M43.2034 30.3594H44.4285L45.6121 34.8848H45.6329L47.0449 30.3594H48.1455L49.5159 34.8848H49.5367L50.7618 30.3594H51.8832L50.0558 36.6365H48.9968L47.5433 31.8609H47.5225L46.0689 36.6365H45.0515L43.2034 30.3594Z" fill="#2190C2"/>
<path d="M52.9006 34.8848C52.9629 35.5104 53.4404 35.9066 54.0426 35.9066C54.5825 35.9066 54.9148 35.6564 55.1847 35.3227L55.953 35.9066C55.4547 36.5114 54.8317 36.7617 54.1672 36.7617C52.8798 36.7617 51.8623 35.8649 51.8623 34.5302C51.8623 33.1956 52.8798 32.2988 54.1672 32.2988C55.3508 32.2988 56.1607 33.133 56.1607 34.6137V34.9056H52.9006V34.8848ZM55.0809 34.0923C55.0809 33.4667 54.6656 33.0704 54.0011 33.0704C53.3781 33.0704 52.9836 33.4667 52.9006 34.0923H55.0809Z" fill="#2190C2"/>
<path d="M57.0537 29.9424H58.1127V32.9246H58.1335C58.3619 32.6535 58.7772 32.2781 59.5663 32.2781C60.7707 32.2781 61.622 33.2582 61.622 34.5095C61.622 35.7608 60.8537 36.7618 59.5455 36.7618C58.9433 36.7618 58.4034 36.5324 58.092 36.011H58.0712V36.6575H57.0537V29.9424ZM59.3379 33.2374C58.5696 33.2374 58.092 33.8422 58.092 34.5095C58.092 35.1768 58.5696 35.7816 59.3379 35.7816C60.1062 35.7816 60.5838 35.1768 60.5838 34.5095C60.5838 33.863 60.1062 33.2374 59.3379 33.2374Z" fill="#2190C2"/>
<path d="M65.3389 30.3594H67.8099C69.4503 30.3594 70.987 31.3812 70.987 33.5084C70.987 35.6564 69.1804 36.6574 67.6646 36.6574H65.3389V30.3594ZM67.2908 35.6355C68.682 35.6355 69.8241 35.0308 69.8241 33.5084C69.8241 31.986 68.8274 31.3812 67.4777 31.3812H66.4602V35.6355H67.2908Z" fill="#2190C2"/>
<path d="M72.6689 34.8848C72.7312 35.5104 73.2088 35.9066 73.8109 35.9066C74.3508 35.9066 74.6831 35.6564 74.953 35.3227L75.7213 35.9066C75.223 36.5114 74.6 36.7617 73.9355 36.7617C72.6481 36.7617 71.6306 35.8649 71.6306 34.5302C71.6306 33.1956 72.6481 32.2988 73.9355 32.2988C75.1191 32.2988 75.929 33.133 75.929 34.6137V34.9056H72.6689V34.8848ZM74.8492 34.0923C74.8492 33.4667 74.4339 33.0704 73.7694 33.0704C73.1465 33.0704 72.7519 33.4667 72.6689 34.0923H74.8492Z" fill="#2190C2"/>
<path d="M76.0952 32.3823H77.2581L78.3794 35.3645H78.4001L79.5422 32.3823H80.622L78.9608 36.6366H77.8187L76.0952 32.3823Z" fill="#2190C2"/>
<path d="M81.8678 34.8848C81.9301 35.5104 82.4077 35.9066 83.0099 35.9066C83.5498 35.9066 83.8821 35.6564 84.152 35.3227L84.9203 35.9066C84.4219 36.5114 83.799 36.7617 83.1345 36.7617C81.8471 36.7617 80.8296 35.8649 80.8296 34.5302C80.8296 33.1956 81.8471 32.2988 83.1345 32.2988C84.3181 32.2988 85.128 33.133 85.128 34.6137V34.9056H81.8678V34.8848ZM84.0482 34.0923C84.0482 33.4667 83.6329 33.0704 82.9684 33.0704C82.3454 33.0704 81.9509 33.4667 81.8678 34.0923H84.0482Z" fill="#2190C2"/>
<path d="M86.021 29.9424H87.08V36.6575H86.021V29.9424Z" fill="#2190C2"/>
<path d="M90.2778 32.2778C91.5653 32.2778 92.5827 33.1746 92.5827 34.5093C92.5827 35.8439 91.5653 36.7407 90.2778 36.7407C88.9904 36.7407 87.9729 35.8439 87.9729 34.5093C87.9729 33.1746 89.0112 32.2778 90.2778 32.2778ZM90.2778 35.8022C91.0461 35.8022 91.5237 35.1974 91.5237 34.5301C91.5237 33.8628 91.0461 33.258 90.2778 33.258C89.5095 33.258 89.0319 33.8628 89.0319 34.5301C89.0319 35.1974 89.5095 35.8022 90.2778 35.8022Z" fill="#2190C2"/>
<path d="M93.4756 32.3821H94.4931V33.0286H94.5138C94.8253 32.5072 95.386 32.2778 95.9674 32.2778C97.2756 32.2778 98.0647 33.258 98.0647 34.5093C98.0647 35.7605 97.234 36.7407 96.0089 36.7407C95.2198 36.7407 94.7838 36.3653 94.5761 36.0942H94.5554V38.6593H93.4963V32.3821H93.4756ZM95.7597 33.2371C94.9914 33.2371 94.5138 33.8419 94.5138 34.5093C94.5138 35.1766 94.9914 35.7814 95.7597 35.7814C96.528 35.7814 97.0056 35.1766 97.0056 34.5093C97.0056 33.8628 96.528 33.2371 95.7597 33.2371Z" fill="#2190C2"/>
<path d="M98.9368 32.3821H99.9542V33.0494H99.975C100.162 32.6532 100.577 32.2778 101.283 32.2778C101.948 32.2778 102.384 32.5281 102.612 33.0703C102.924 32.5281 103.38 32.2778 104.003 32.2778C105.125 32.2778 105.54 33.0912 105.54 34.113V36.6573H104.481V34.2381C104.481 33.6959 104.315 33.2371 103.692 33.2371C103.027 33.2371 102.778 33.7793 102.778 34.3424V36.6573H101.699V34.113C101.699 33.5917 101.491 33.2371 100.972 33.2371C100.266 33.2371 99.9958 33.7585 99.9958 34.3216V36.6573H98.9368V32.3821Z" fill="#2190C2"/>
<path d="M107.45 34.8848C107.513 35.5104 107.99 35.9066 108.592 35.9066C109.132 35.9066 109.465 35.6564 109.735 35.3227L110.503 35.9066C110.004 36.5114 109.382 36.7617 108.717 36.7617C107.43 36.7617 106.412 35.8649 106.412 34.5302C106.412 33.1956 107.43 32.2988 108.717 32.2988C109.901 32.2988 110.71 33.133 110.71 34.6137V34.9056H107.45V34.8848ZM109.61 34.0923C109.61 33.4667 109.195 33.0704 108.53 33.0704C107.907 33.0704 107.513 33.4667 107.43 34.0923H109.61Z" fill="#2190C2"/>
<path d="M111.583 32.3821H112.6V33.0703H112.621C112.808 32.6532 113.223 32.2778 113.929 32.2778C115.071 32.2778 115.486 33.0912 115.486 33.9462V36.6364H114.427V34.4884C114.427 34.0087 114.386 33.2371 113.659 33.2371C112.953 33.2371 112.683 33.7585 112.683 34.3216V36.6573H111.624V32.3821H111.583Z" fill="#2190C2"/>
<path d="M116.047 33.2999V32.3823H116.919V31.1519H117.978V32.3823H119.141V33.279H117.978V35.135C117.978 35.5521 118.103 35.8232 118.58 35.8232C118.767 35.8232 119.017 35.7815 119.162 35.6981V36.5948C118.933 36.6991 118.56 36.7408 118.331 36.7408C117.21 36.7408 116.94 36.2403 116.94 35.2393V33.279H116.047V33.2999Z" fill="#2190C2"/>
<path d="M127.073 35.1767L128.423 36.6574H127.052L126.388 35.9483C125.89 36.5531 125.329 36.8242 124.54 36.8242C123.439 36.8242 122.422 36.1777 122.422 34.9682C122.422 34.134 123.024 33.4875 123.772 33.1956C123.377 32.7576 123.066 32.3614 123.066 31.7566C123.066 30.7347 123.917 30.2134 124.851 30.2134C125.786 30.2134 126.616 30.6722 126.616 31.7149C126.616 32.4865 125.993 33.0287 125.371 33.3415L126.388 34.426L127.094 33.3624H128.34L127.073 35.1767ZM124.457 33.8212C124.042 34.0714 123.605 34.3634 123.605 34.9056C123.605 35.4478 124.062 35.8649 124.602 35.8649C125.08 35.8649 125.433 35.5521 125.744 35.2393L124.457 33.8212ZM124.125 31.7983C124.125 32.132 124.436 32.4657 124.727 32.7159C125.08 32.5282 125.578 32.2154 125.578 31.7566C125.578 31.4229 125.267 31.1727 124.893 31.1727C124.457 31.1727 124.125 31.4229 124.125 31.7983Z" fill="#2190C2"/>
<path d="M138.577 36.6574H134.943C132.991 36.6574 131.538 35.427 131.538 33.3832C131.538 31.5272 133.033 30.2134 134.819 30.2134C136.605 30.2134 138.1 31.5272 138.1 33.3832C138.1 34.6971 137.394 35.3853 136.791 35.7398V35.7606H138.577V36.6574ZM132.701 33.4041C132.701 34.6971 133.594 35.6355 134.819 35.6355C136.065 35.6355 136.958 34.6762 136.958 33.4041C136.958 32.1528 136.065 31.2144 134.819 31.2144C133.573 31.2144 132.701 32.1528 132.701 33.4041Z" fill="#2190C2"/>
<path d="M141.63 30.3594H142.585L145.284 36.6365H144.018L143.436 35.1976H140.716L140.155 36.6365H138.909L141.63 30.3594ZM143.042 34.2591L142.086 31.6941L141.111 34.2591H143.042Z" fill="#2190C2"/>
<path d="M151.68 31.7149C151.452 31.3812 151.015 31.2144 150.579 31.2144C150.06 31.2144 149.562 31.4438 149.562 32.0277C149.562 33.279 152.531 32.5699 152.531 34.8013C152.531 36.1569 151.472 36.8034 150.247 36.8034C149.479 36.8034 148.711 36.574 148.191 35.9483L149.022 35.135C149.292 35.5521 149.77 35.8024 150.268 35.8024C150.787 35.8024 151.368 35.5104 151.368 34.9473C151.368 33.5709 148.399 34.3634 148.399 32.1111C148.399 30.8182 149.541 30.2134 150.704 30.2134C151.368 30.2134 152.012 30.4011 152.49 30.8599L151.68 31.7149Z" fill="#2190C2"/>
<path d="M154.276 34.8848C154.338 35.5104 154.815 35.9066 155.418 35.9066C155.958 35.9066 156.29 35.6564 156.56 35.3227L157.328 35.9066C156.83 36.5114 156.207 36.7617 155.542 36.7617C154.255 36.7617 153.237 35.8649 153.237 34.5302C153.237 33.1956 154.255 32.2988 155.542 32.2988C156.726 32.2988 157.536 33.133 157.536 34.6137V34.9056H154.276V34.8848ZM156.435 34.0923C156.435 33.4667 156.02 33.0704 155.355 33.0704C154.732 33.0704 154.338 33.4667 154.255 34.0923H156.435Z" fill="#2190C2"/>
<path d="M158.408 32.3821H159.467V33.0494H159.488C159.716 32.5698 160.194 32.2778 160.733 32.2778C160.858 32.2778 160.983 32.2987 161.107 32.3404V33.3623C160.92 33.3206 160.754 33.2788 160.588 33.2788C159.591 33.2788 159.446 34.113 159.446 34.3633V36.6364H158.387V32.3821H158.408Z" fill="#2190C2"/>
<path d="M161.481 32.3823H162.644L163.765 35.3645H163.786L164.928 32.3823H166.008L164.347 36.6366H163.225L161.481 32.3823Z" fill="#2190C2"/>
<path d="M167.129 30.2969C167.524 30.2969 167.814 30.568 167.814 30.9434C167.814 31.3187 167.524 31.5898 167.129 31.5898C166.735 31.5898 166.465 31.2979 166.465 30.9434C166.465 30.5888 166.755 30.2969 167.129 30.2969ZM166.61 32.3823H167.669V36.6366H166.61V32.3823Z" fill="#2190C2"/>
<path d="M171.656 33.6754C171.407 33.4251 171.137 33.2583 170.846 33.2583C170.078 33.2583 169.6 33.863 169.6 34.5304C169.6 35.1977 170.078 35.8025 170.846 35.8025C171.178 35.8025 171.469 35.6565 171.677 35.4063L172.383 36.1779C171.946 36.6158 171.22 36.7827 170.846 36.7827C169.558 36.7827 168.541 35.8859 168.541 34.5512C168.541 33.2166 169.558 32.3198 170.846 32.3198C171.386 32.3198 171.967 32.5075 172.383 32.9663L171.656 33.6754Z" fill="#2190C2"/>
<path d="M173.732 34.8848C173.795 35.5104 174.272 35.9066 174.874 35.9066C175.414 35.9066 175.747 35.6564 176.016 35.3227L176.785 35.9066C176.286 36.5114 175.663 36.7617 174.999 36.7617C173.712 36.7617 172.694 35.8649 172.694 34.5302C172.694 33.1956 173.712 32.2988 174.999 32.2988C176.183 32.2988 176.992 33.133 176.992 34.6137V34.9056H173.732V34.8848ZM175.892 34.0923C175.892 33.4667 175.477 33.0704 174.812 33.0704C174.189 33.0704 173.795 33.4667 173.712 34.0923H175.892Z" fill="#2190C2"/>
<path d="M180.128 33.5708C179.92 33.2788 179.651 33.1329 179.298 33.1329C179.007 33.1329 178.675 33.258 178.675 33.5917C178.675 34.3633 180.959 33.7376 180.959 35.3851C180.959 36.407 180.004 36.7615 179.131 36.7615C178.467 36.7615 177.906 36.5947 177.47 36.0942L178.176 35.4268C178.446 35.7188 178.737 35.9482 179.194 35.9482C179.505 35.9482 179.9 35.8022 179.9 35.4686C179.9 34.5927 177.616 35.2809 177.616 33.6542C177.616 32.6949 178.467 32.2778 179.318 32.2778C179.879 32.2778 180.481 32.4655 180.834 32.9243L180.128 33.5708Z" fill="#2190C2"/>
<path d="M60.4589 24.7912C58.1124 26.0216 55.5376 26.5221 52.9004 26.5221C47.2731 26.5221 43.1824 22.81 43.1824 17.0125C43.1824 11.215 47.2731 7.50293 52.9004 7.50293C55.7452 7.50293 58.2786 8.14942 60.0851 9.83862L57.2818 12.9042C56.2228 11.7781 54.9146 11.1942 52.9004 11.1942C49.5157 11.1942 47.2938 13.655 47.2938 17.0334C47.2938 20.4118 49.5157 22.8726 52.9004 22.8726C54.6239 22.8726 55.9113 22.393 56.6381 21.9759V19.0354H53.3988V15.3442H60.4589V24.7912Z" fill="#162D3D"/>
<path d="M74.2261 23.9153C73.001 25.4794 70.9868 26.3761 69.0141 26.3761C65.1933 26.3761 62.1409 23.811 62.1409 19.8487C62.1409 15.8864 65.1933 13.3213 69.0141 13.3213C72.5857 13.3213 74.8283 15.8864 74.8283 19.8487V21.0583H65.9616C66.2731 22.5181 67.3529 23.4565 68.848 23.4565C70.0939 23.4565 70.9452 22.81 71.5682 21.955L74.2261 23.9153ZM71.0075 18.4515C71.0283 17.1793 70.0316 16.0949 68.6611 16.0949C66.9791 16.0949 66.0655 17.2419 65.9616 18.4515H71.0075Z" fill="#162D3D"/>
<path d="M76.3857 13.6341H80.0611V15.3233H80.1027C80.6218 14.3432 81.8677 13.3213 83.7158 13.3213C87.5781 13.3213 88.3049 15.8864 88.3049 19.2022V26.0633H84.4841V19.9738C84.4841 18.5349 84.4633 16.6997 82.4907 16.6997C80.4972 16.6997 80.2065 18.2638 80.2065 19.8696V26.0633H76.3857V13.6341Z" fill="#162D3D"/>
<path d="M92.2294 7.50293C93.4546 7.50293 94.4513 8.50394 94.4513 9.73435C94.4513 10.9648 93.4546 11.9658 92.2294 11.9658C91.0043 11.9658 90.0076 10.9648 90.0076 9.73435C90.0076 8.50394 91.0043 7.50293 92.2294 7.50293ZM90.319 13.6341H94.1398V26.0633H90.319V13.6341Z" fill="#162D3D"/>
<path d="M108.032 26.0635H104.356V24.3743H104.315C103.796 25.3544 102.55 26.3763 100.702 26.3763C96.8393 26.3763 96.1125 23.8112 96.1125 20.4954V13.6343H99.9333V19.7238C99.9333 21.1627 99.9541 22.9979 101.927 22.9979C103.92 22.9979 104.211 21.4338 104.211 19.828V13.6343H108.032V26.0635Z" fill="#162D3D"/>
<path d="M117.044 17.3045C116.483 16.6163 115.736 16.2618 114.822 16.2618C114.178 16.2618 113.431 16.5329 113.431 17.2836C113.431 19.1188 119.868 17.5547 119.868 22.2887C119.868 25.4585 116.815 26.3761 114.157 26.3761C112.434 26.3761 110.523 25.9382 109.298 24.6869L111.624 22.101C112.33 22.9769 113.181 23.4565 114.323 23.4565C115.196 23.4565 116.047 23.2271 116.047 22.5598C116.047 20.5578 109.61 22.247 109.61 17.513C109.61 14.5934 112.205 13.3213 114.801 13.3213C116.421 13.3213 118.248 13.7384 119.39 14.9479L117.044 17.3045Z" fill="#162D3D"/>
<path d="M137.663 24.7912C135.317 26.0216 132.742 26.5221 130.105 26.5221C124.477 26.5221 120.387 22.81 120.387 17.0125C120.387 11.215 124.477 7.50293 130.105 7.50293C132.95 7.50293 135.483 8.14942 137.289 9.83862L134.486 12.9042C133.427 11.7781 132.119 11.1942 130.105 11.1942C126.72 11.1942 124.498 13.655 124.498 17.0334C124.498 20.4118 126.72 22.8726 130.105 22.8726C131.828 22.8726 133.116 22.393 133.842 21.9759V19.0354H130.603V15.3442H137.663V24.7912Z" fill="#162D3D"/>
<path d="M141.858 7.50293C143.083 7.50293 144.08 8.50394 144.08 9.73435C144.08 10.9648 143.083 11.9658 141.858 11.9658C140.633 11.9658 139.636 10.9648 139.636 9.73435C139.657 8.50394 140.633 7.50293 141.858 7.50293ZM139.947 13.6341H143.768V26.0633H139.947V13.6341Z" fill="#162D3D"/>
<path d="M153.424 24.4991H153.382C152.552 25.8338 151.015 26.376 149.458 26.376C147.132 26.376 145.056 25.0413 145.056 22.5388C145.056 18.2428 150.247 18.1594 153.424 18.1594C153.424 16.8038 152.303 15.9279 150.974 15.9279C149.728 15.9279 148.69 16.491 147.859 17.4086L145.824 15.3023C147.215 13.9676 149.271 13.3003 151.264 13.3003C155.729 13.3003 156.913 15.5734 156.913 19.7234V26.0423H153.403V24.4991H153.424ZM152.469 20.6202C151.306 20.6202 148.71 20.7245 148.71 22.4137C148.71 23.3313 149.686 23.7692 150.517 23.7692C152.012 23.7692 153.424 22.9767 153.424 21.4335V20.6202H152.469Z" fill="#162D3D"/>
<path d="M158.802 13.6341H162.477V15.3233H162.519C163.038 14.3432 164.284 13.3213 166.132 13.3213C169.994 13.3213 170.721 15.8864 170.721 19.2022V26.0633H166.9V19.9738C166.9 18.5349 166.88 16.6997 164.907 16.6997C162.913 16.6997 162.623 18.2638 162.623 19.8696V26.0633H158.802V13.6341Z" fill="#162D3D"/>
<path d="M181 16.6998H177.636V20.8499C177.636 22.1845 177.781 23.1438 179.443 23.1438C179.858 23.1438 180.668 23.1021 181 22.7893V25.98C180.169 26.2928 179.214 26.3554 178.321 26.3554C175.767 26.3554 173.815 25.3127 173.815 22.6016V16.6998H171.365V13.6342H173.815V9.96387H177.636V13.6551H181V16.6998Z" fill="#162D3D"/>
<path d="M35.1879 20.9122C35.4994 19.7026 35.6032 17.8883 36.1431 16.7622C37.2644 14.5099 37.7212 12.6538 34.8349 10.3807C33.8589 9.6091 32.4469 6.43924 30.0797 4.45807C28.0655 2.76887 25.6775 1.49675 23.0196 0.912826C21.7737 0.641719 18.7835 0.412321 17.5376 0.203778C13.8622 -0.421854 11.7442 0.328903 9.77151 3.35279C9.08626 4.41636 7.2797 6.08471 6.53216 7.10658C5.05784 9.1086 4.06112 10.8395 3.62506 13.3003C3.45893 14.2805 2.91904 14.7393 1.59008 16.1365C0.572596 17.2001 -0.216475 18.5973 0.0534703 20.2865C0.302651 21.8298 1.50702 22.8725 3.0021 23.7275C3.99883 24.3114 5.07861 24.8119 5.59773 25.6461C6.36604 26.8765 7.36276 28.6283 8.44254 29.6085C10.9966 31.9441 12.6786 34.4675 12.6786 37.9711V40.4319C12.6786 41.5789 13.177 42.6842 14.0491 43.4349L15.0666 44.3108C16.3125 45.3952 17.9322 46 19.5726 46C21.2338 46 22.8327 45.3952 24.0786 44.3108L25.0961 43.4349C25.9682 42.6842 26.4666 41.5789 26.4666 40.4319V40.0774C26.4666 39.3475 27.0688 38.7844 27.7748 38.8261C29.5813 38.9304 31.5956 38.4299 32.8415 37.7625C34.6065 36.8241 35.6447 35.9065 35.4579 34.1756C35.271 32.2778 34.1081 29.2539 33.1529 28.67C32.4262 28.2321 31.3464 28.2529 31.824 27.4396C32.0732 27.0017 32.3846 26.6471 32.6961 26.23C33.8382 24.6243 34.6895 22.8308 35.1879 20.9122Z" fill="#1DFAFF"/>
<path d="M32.9246 16.7832C32.9246 9.35909 26.9442 3.35303 19.5519 3.35303C12.1803 3.35303 6.2415 9.27567 6.17921 16.679C6.13768 20.6622 7.84041 24.2283 10.5399 26.7099C13.6962 29.6087 15.4612 33.717 15.4612 37.9922V40.453C15.4612 40.7866 15.6065 41.0995 15.8557 41.308L16.8732 42.1839C17.6207 42.8304 18.5759 43.1849 19.5519 43.1849C20.5278 43.1849 21.483 42.8304 22.2306 42.1839L23.2481 41.308C23.4972 41.0995 23.6426 40.7658 23.6426 40.453V37.8879C23.6426 33.6127 25.4492 29.567 28.5847 26.6891C31.2426 24.2283 32.9246 20.7039 32.9246 16.7832Z" fill="#FFFF48"/>
<path d="M31.3049 18.4095C31.3049 11.5276 25.7606 5.95947 18.9082 5.95947C12.0765 5.95947 6.55297 11.4442 6.51144 18.3053C6.49067 21.9965 8.04805 25.3123 10.5399 27.6063C13.4677 30.2965 15.1082 34.092 15.1082 38.0752V40.3484C15.1082 40.6612 15.2328 40.9531 15.4819 41.1408L16.4371 41.9541C17.1224 42.5589 18.0153 42.8717 18.9289 42.8717C19.8426 42.8717 20.7355 42.5381 21.4207 41.9541L22.3759 41.1408C22.6043 40.9323 22.7497 40.6403 22.7497 40.3484V37.971C22.7497 34.0086 24.4317 30.2548 27.3388 27.5855C29.7683 25.3123 31.3049 22.0591 31.3049 18.4095Z" fill="#89EE3B"/>
<path d="M21.4622 29.0662C21.4622 29.0662 20.9431 31.8399 23.0819 34.1964C25.2206 36.5529 29.6644 37.2828 32.7791 34.3215L31.4294 30.7971C31.4294 30.7971 30.5157 31.8399 28.7507 32.0693C26.425 32.3404 25.5321 30.4009 26.6119 28.8994C27.1933 28.1069 27.8578 27.3562 28.6054 26.668L21.4622 29.0662Z" fill="#89EE3B"/>
<path d="M18.5343 7.60693C18.5343 7.60693 15.0665 9.10845 13.8414 12.3617C12.7824 15.1354 13.1977 18.6806 15.8971 21.3291C18.7212 24.1028 20.0917 23.9568 20.4239 26.9598C20.6523 28.9618 20.8184 34.2797 20.8184 34.2797L21.1507 34.6134C21.1507 34.6134 22.4381 27.1892 21.2753 23.9985C20.1124 20.8078 17.6414 21.9965 16.1255 18.1801C14.6097 14.3638 15.5233 10.4848 18.5343 7.60693Z" fill="#89BD5B"/>
<path d="M15.4404 34.7593V40.4525C15.4404 40.7862 15.5858 41.099 15.835 41.3076L16.8524 42.1834C17.6 42.8299 18.5552 43.1845 19.5311 43.1845C20.5071 43.1845 21.4623 42.8299 22.2098 42.1834L23.2273 41.3076C23.4765 41.099 23.6219 40.7653 23.6219 40.4525V34.7593H15.4404Z" fill="#1DFAFF"/>
<path d="M19.3857 37.0745H15.9595V35.8232H18.4513C18.9704 35.8232 19.3857 36.2403 19.3857 36.7617V37.0745Z" fill="#2190C2"/>
<path d="M19.3857 39.556H15.9595V38.3047H18.4513C18.9704 38.3047 19.3857 38.7218 19.3857 39.2431V39.556Z" fill="#2190C2"/>
<path d="M19.1157 41.3494L18.9496 41.12C18.7835 40.8906 18.4928 40.7446 18.2021 40.7446H16.3955V42.4547H19.095V43.3097H22.1059V41.7248H19.8633C19.5518 41.7248 19.2818 41.5788 19.1157 41.3494Z" fill="#2190C2"/>
<path d="M23.6426 40.286H15.4404C15.0459 40.286 14.7136 39.9523 14.7136 39.5561C14.7136 39.1598 15.0459 38.8262 15.4404 38.8262H23.6426C24.0371 38.8262 24.3694 39.1598 24.3694 39.5561C24.3694 39.9523 24.0371 40.286 23.6426 40.286Z" fill="#162D3D"/>
<path d="M23.6426 37.804H15.4404C15.0459 37.804 14.7136 37.4704 14.7136 37.0741C14.7136 36.6779 15.0459 36.3442 15.4404 36.3442H23.6426C24.0371 36.3442 24.3694 36.6779 24.3694 37.0741C24.3694 37.4704 24.0371 37.804 23.6426 37.804Z" fill="#162D3D"/>
<path d="M23.6426 35.3436H15.4404C15.0459 35.3436 14.7136 35.0099 14.7136 34.6137C14.7136 34.2175 15.0459 33.8838 15.4404 33.8838H23.6426C24.0371 33.8838 24.3694 34.2175 24.3694 34.6137C24.3694 35.0099 24.0371 35.3436 23.6426 35.3436Z" fill="#162D3D"/>
<path d="M19.4274 7.21094C18.7629 7.75315 18.1815 8.35793 17.7039 9.00441C17.2263 9.6509 16.8317 10.3599 16.541 11.1107C16.2503 11.8406 16.0842 12.6122 16.0011 13.3838C15.9181 14.1554 15.9596 14.9479 16.1257 15.6987C16.188 16.074 16.3126 16.4494 16.4372 16.804C16.5618 17.1585 16.7071 17.513 16.894 17.8467C17.247 18.514 17.7039 19.1396 18.223 19.6819C18.4929 19.953 18.7629 20.2032 19.0744 20.4326C19.2197 20.5577 19.3858 20.662 19.5312 20.7663C19.6142 20.8288 19.6973 20.8706 19.7596 20.9123L19.905 21.0165C19.9673 21.0582 20.0088 21.1 20.0711 21.1417C20.4864 21.4545 20.8186 21.7882 21.1093 22.1844C21.4 22.5806 21.6492 22.9977 21.8153 23.4565C21.9607 23.811 21.7738 24.2281 21.4208 24.3741C21.0886 24.4992 20.7148 24.3741 20.5487 24.0613L20.5279 24.0404C20.3618 23.7276 20.1541 23.4356 19.905 23.1645C19.7804 23.0394 19.6558 22.9143 19.5312 22.7892C19.4066 22.664 19.2612 22.5598 19.1366 22.4763C19.0951 22.4555 19.0744 22.4346 19.0328 22.4138L18.9082 22.3512C18.8044 22.2887 18.7006 22.2261 18.6175 22.1635C18.4306 22.0384 18.223 21.9133 18.0361 21.7673C17.6623 21.4962 17.3093 21.1834 16.9979 20.8497C16.3541 20.1824 15.8142 19.4108 15.4197 18.5766C15.2121 18.1595 15.0459 17.7215 14.9213 17.2836C14.7968 16.8457 14.6929 16.3869 14.6306 15.9281C14.506 15.0105 14.5268 14.0929 14.6722 13.1961C14.8383 12.2994 15.129 11.4235 15.5651 10.6519C16.458 9.08783 17.8285 7.83657 19.4274 7.21094Z" fill="#162D3D"/>
<path d="M25.3037 20.4323C26.1064 20.4323 26.7572 19.7787 26.7572 18.9725C26.7572 18.1663 26.1064 17.5127 25.3037 17.5127C24.5009 17.5127 23.8501 18.1663 23.8501 18.9725C23.8501 19.7787 24.5009 20.4323 25.3037 20.4323Z" fill="#162D3D"/>
<path d="M18.1397 35.2598C17.766 35.2598 17.4545 34.9678 17.4129 34.5925C17.143 31.5894 16.9769 29.5874 16.7692 28.2527C16.2709 28.211 15.814 28.1485 15.4403 28.0859C14.7135 27.9399 14.1944 27.4811 14.0075 26.8346C13.8206 26.1673 14.0282 25.3748 14.5474 24.8743C15.0042 24.4364 15.6272 24.2904 16.2086 24.4781C17.2676 24.8326 17.7037 25.6668 17.9736 26.8555C18.5135 26.8763 19.0534 26.8763 19.531 26.8763C20.0293 26.8763 20.6108 26.8763 21.1922 26.8346C21.5244 25.4374 22.0643 24.7283 22.8534 24.4781C23.4348 24.2904 24.0578 24.4364 24.5146 24.8743C25.0337 25.3748 25.2621 26.1673 25.0545 26.8346C24.8676 27.4811 24.3485 27.9191 23.6217 28.0859C23.2895 28.1485 22.8742 28.211 22.4173 28.2527C22.2304 29.65 22.1681 31.652 22.2097 34.5299C22.2097 34.9261 21.8982 35.2598 21.4829 35.2807C21.4829 35.2807 21.4829 35.2807 21.4621 35.2807C21.0676 35.2807 20.7354 34.9678 20.7354 34.5507C20.6938 31.8605 20.7561 29.8377 20.9222 28.3361C20.2578 28.357 19.7179 28.357 19.5102 28.357C19.3233 28.357 18.825 28.357 18.2228 28.3361C18.4097 29.6917 18.5758 31.5894 18.8457 34.4673C18.8873 34.8636 18.5758 35.2181 18.1813 35.2598C18.1813 35.2389 18.1605 35.2598 18.1397 35.2598ZM15.7102 25.8545C15.6687 25.8545 15.6272 25.8753 15.5649 25.917C15.4403 26.0422 15.3572 26.2716 15.3987 26.4175C15.4195 26.4592 15.4403 26.5844 15.731 26.6261C15.9179 26.6678 16.167 26.7095 16.4162 26.7304C16.1878 26.0005 15.9386 25.917 15.731 25.8545C15.7517 25.8545 15.731 25.8545 15.7102 25.8545ZM23.3517 25.8545C23.331 25.8545 23.3102 25.8545 23.3102 25.8545C23.2064 25.8962 22.9572 26.063 22.7496 26.7095C22.978 26.6886 23.1649 26.6469 23.331 26.6261C23.6217 26.5635 23.6425 26.4384 23.6632 26.4175C23.7048 26.2716 23.6425 26.0422 23.4971 25.917C23.4348 25.8753 23.3933 25.8545 23.3517 25.8545Z" fill="#162D3D"/>
<path d="M34.1705 4.54155C34.3366 2.76893 32.4677 1.05887 30.6197 1.62193C29.3738 1.99731 30.682 2.76893 31.8448 3.76994C33.1322 4.87522 34.0251 6.23075 34.1705 4.54155Z" fill="#1DFAFF"/>
<path d="M3.41744 28.8579C3.37591 31.131 4.72563 32.6742 7.00979 32.7159C8.50487 32.7368 7.67427 31.5064 6.24148 29.9423C4.66334 28.2114 3.45897 26.7724 3.41744 28.8579Z" fill="#1DFAFF"/>
<path d="M36.33 26.3134C38.4272 25.6669 39.2371 22.7473 38.095 21.4126C37.3059 20.495 36.8283 21.9757 36.2261 23.6441C35.5824 25.4792 35.001 26.7305 36.33 26.3134Z" fill="#1DFAFF"/>
<path d="M4.10256 5.06289C1.67305 4.91691 0.468681 7.35688 1.75611 9.21292C2.56595 10.3599 3.27196 9.04608 4.06103 7.62798C4.93316 6.08476 5.68071 5.14631 4.10256 5.06289Z" fill="#1DFAFF"/>
<path d="M27.2141 29.7336C27.2348 29.6919 27.2556 29.6294 27.2971 29.5877C27.3179 29.5668 27.3179 29.5459 27.3387 29.5251L27.3594 29.4834L27.3802 29.4625L27.401 29.4417C27.5878 29.1914 27.8163 28.9203 28.0239 28.6701C28.2316 28.4198 28.46 28.1696 28.7092 27.9402C28.8338 27.815 28.9376 27.7108 29.0622 27.5856L29.4567 27.2103C30.0174 26.6889 30.5157 26.105 30.9933 25.5002C31.9277 24.2906 32.6545 22.9143 33.1529 21.4545C33.6512 19.9946 33.9212 18.4723 33.942 16.929C33.9627 15.4067 33.7551 13.8635 33.2775 12.3828C32.8206 10.923 32.1354 9.52574 31.2217 8.27448C29.4359 5.77195 26.8195 3.89506 23.8917 2.97747C20.9638 2.05987 17.766 2.10158 14.8589 3.08174C13.4053 3.58224 12.0348 4.31215 10.8305 5.25059C9.60533 6.18904 8.54631 7.31518 7.69495 8.5873C6.84358 9.85941 6.1791 11.2567 5.7638 12.7373C5.3485 14.218 5.16161 15.7612 5.22391 17.2836C5.22391 17.3044 5.22391 17.3253 5.22391 17.3461V17.367V17.4296V17.513C5.22391 17.5755 5.22391 17.6381 5.22391 17.7007C5.22391 17.8258 5.22391 17.9509 5.22391 18.0552C5.22391 18.2846 5.18238 18.5348 5.14085 18.7434C5.09932 18.9519 5.03702 19.1605 4.95396 19.3064C4.8709 19.4524 4.78784 19.5776 4.70478 19.6401C4.68402 19.6401 4.68401 19.661 4.66325 19.661L4.60096 19.7027C4.55943 19.7235 4.5179 19.7444 4.47637 19.7652C4.39331 19.807 4.31024 19.8487 4.24795 19.8695C4.10259 19.9112 3.95724 19.9321 3.83265 19.9112C3.70806 19.8904 3.60423 19.8487 3.47964 19.7652C3.35505 19.6818 3.25123 19.5567 3.12664 19.3899C2.83593 18.9519 2.27527 18.8477 1.83921 19.1188C1.40314 19.4107 1.27855 19.9738 1.56926 20.4117C1.77691 20.7245 2.02609 21.0165 2.35833 21.2668C2.69057 21.517 3.10587 21.7047 3.54194 21.7673C3.978 21.8298 4.41407 21.7881 4.80861 21.663C4.99549 21.6004 5.18238 21.517 5.3485 21.4336C5.43156 21.3919 5.51462 21.3502 5.59768 21.2876L5.72227 21.2042C5.7638 21.1833 5.80533 21.1416 5.84686 21.0999C6.22063 20.8288 6.46981 20.4743 6.63593 20.1198C6.80205 19.7652 6.90587 19.4107 6.98893 19.077C7.05123 18.7434 7.09276 18.4097 7.11352 18.076C7.11352 17.9092 7.11352 17.7424 7.11352 17.5964C7.11352 17.513 7.11352 17.4296 7.09276 17.3461V17.221V17.1584V17.1376C7.05123 15.8238 7.21735 14.4891 7.59112 13.217C7.96489 11.9449 8.52555 10.7353 9.29385 9.65087C10.7889 7.46116 12.99 5.79281 15.4818 4.91692C17.9736 4.06189 20.7562 4.02019 23.2687 4.81265C25.7813 5.60512 28.0447 7.23176 29.5813 9.37976C30.3496 10.4433 30.9518 11.6529 31.3671 12.925C31.7616 14.1971 31.9693 15.511 31.9485 16.8456C31.9277 18.1803 31.7201 19.4941 31.284 20.7454C30.848 21.9967 30.225 23.1854 29.4152 24.2489C29.0206 24.7703 28.5638 25.2708 28.0862 25.7296L27.6917 26.105C27.5463 26.2301 27.4217 26.3761 27.2971 26.5012C27.0272 26.7723 26.778 27.0434 26.5288 27.3354C26.2797 27.6273 26.0512 27.9193 25.8228 28.2321L25.8021 28.253L25.7813 28.2947L25.7398 28.3781C25.6982 28.4198 25.6775 28.4824 25.6359 28.5241C25.5736 28.6284 25.5113 28.7326 25.4698 28.8578C25.366 29.0872 25.2829 29.3374 25.2414 29.5877C25.1376 30.0882 25.1791 30.6512 25.366 31.1726C25.5736 31.6939 25.9266 32.1319 26.3835 32.4239C26.8195 32.7158 27.3179 32.8826 27.7955 32.9452C28.0239 32.9661 28.2731 32.9869 28.4807 32.9661C28.5846 32.9661 28.7092 32.9452 28.813 32.9452C28.9376 32.9244 29.0414 32.9035 29.166 32.8826C29.6436 32.7784 30.0589 32.5907 30.4327 32.3613C30.6195 32.257 30.7857 32.1319 30.9518 32.0068C30.9726 31.9859 30.9726 31.9859 30.9933 31.9651L31.1802 32.5073C31.3463 32.9869 31.5124 33.4666 31.6786 33.9254C31.5955 33.9879 31.5332 34.0505 31.4501 34.1131C31.3256 34.1965 31.201 34.2799 31.0764 34.3633L30.8895 34.4676L30.7857 34.5301L30.6818 34.5719C30.1627 34.843 29.6021 35.0515 29.0206 35.1558C27.8578 35.3852 26.6327 35.2392 25.5321 34.8013C25.2622 34.697 24.9922 34.551 24.743 34.405C24.4939 34.259 24.2447 34.0713 24.037 33.8837C23.9332 33.7794 23.8294 33.696 23.7256 33.5917C23.6633 33.55 23.6217 33.4874 23.5802 33.4457C23.5387 33.404 23.4971 33.3414 23.4556 33.2789C23.2895 33.0495 23.1441 32.7992 22.9988 32.549C22.7288 32.0276 22.5419 31.4228 22.4174 30.8181C22.3551 30.5052 22.3135 30.1924 22.272 29.8796C22.2512 29.7128 22.2305 29.5668 22.2305 29.4C22.2305 29.3165 22.2305 29.2331 22.2097 29.1706V29.0454V28.9412V28.9203C22.2097 28.5866 21.9605 28.3155 21.6283 28.2947C21.2753 28.2738 20.9638 28.5241 20.943 28.8786C20.943 28.9829 20.9223 29.0663 20.9223 29.1706C20.9223 29.254 20.9223 29.3583 20.9223 29.4417C20.9223 29.6294 20.9223 29.7962 20.9223 29.9839C20.943 30.3384 20.9638 30.7138 21.0261 31.0683C21.1299 31.7982 21.3168 32.5073 21.6075 33.2163C21.7529 33.5708 21.9605 33.9045 22.1682 34.2382C22.2305 34.3216 22.272 34.405 22.3551 34.4676C22.4174 34.551 22.4797 34.6344 22.5419 34.697C22.6665 34.843 22.8119 34.9889 22.9365 35.1141C23.2272 35.3852 23.5179 35.6146 23.8501 35.8231C24.1616 36.0317 24.5146 36.2193 24.8469 36.3862C26.2381 37.0327 27.8163 37.1995 29.3113 36.9492C30.0589 36.8241 30.8064 36.5739 31.4917 36.2193L31.6163 36.1568L31.7409 36.0942C31.8239 36.0525 31.907 36.0108 31.99 35.9482C32.1562 35.844 32.3223 35.7397 32.4676 35.6354C32.7791 35.4269 33.0698 35.1766 33.3605 34.9055C33.6097 34.6761 33.7343 34.3007 33.6097 33.9671L33.5889 33.9254C33.3605 33.2372 33.1321 32.5698 32.9037 31.8816L32.7376 31.3811L32.6545 31.1309L32.613 31.0058L32.5922 30.9432L32.5715 30.9015L32.5299 30.8181C32.4469 30.6095 32.3015 30.4218 32.1354 30.2758C31.9693 30.1299 31.7616 30.0047 31.554 29.9422C31.3463 29.8796 31.1179 29.8588 30.8895 29.8796C30.6611 29.9005 30.4534 29.9839 30.2665 30.109C30.2458 30.1299 30.225 30.1299 30.2042 30.1507L30.1627 30.1924L30.1004 30.2341L29.9966 30.3176C29.9343 30.3593 29.872 30.4218 29.8097 30.4635C29.6851 30.547 29.5605 30.6304 29.4359 30.7138C29.1868 30.8598 28.9583 30.964 28.7299 31.0058C28.6676 31.0266 28.6261 31.0266 28.5638 31.0266C28.5015 31.0266 28.4392 31.0475 28.3562 31.0475C28.2316 31.0475 28.107 31.0475 27.9824 31.0266C27.754 30.9849 27.5463 30.9223 27.401 30.8181C27.2556 30.7138 27.1518 30.5887 27.0895 30.4427C27.0272 30.2967 27.0272 30.109 27.048 29.9213C27.131 29.9422 27.1726 29.8379 27.2141 29.7336Z" fill="#162D3D"/>
<path d="M19.531 44.1648C18.3059 44.1648 17.1431 43.7268 16.2086 42.9344L15.1911 42.0585C14.7343 41.6622 14.4644 41.0783 14.4644 40.4527V37.9919C14.4644 33.967 12.7824 30.1089 9.85453 27.4187C8.42174 26.1049 7.27966 24.5199 6.46983 22.7473C6.24141 22.2468 6.46983 21.6837 6.94742 21.4543C7.44578 21.2249 8.00644 21.4543 8.23486 21.934C8.94087 23.4772 9.91682 24.8328 11.1627 25.9797C14.4851 29.0245 16.3955 33.4039 16.3955 37.9919V40.4527C16.3955 40.4944 16.4163 40.5361 16.4578 40.5778L17.4753 41.4537C18.036 41.9542 18.7835 42.2253 19.531 42.2253C20.2786 42.2253 21.0054 41.9542 21.5868 41.4537L22.6043 40.5778C22.6458 40.557 22.6666 40.4944 22.6666 40.4527V37.8876C22.6666 36.9909 22.7496 36.0941 22.895 35.2182C22.978 34.676 23.4972 34.3215 24.0163 34.4258C24.5562 34.5092 24.9092 35.0305 24.8054 35.5519C24.6808 36.3235 24.6185 37.116 24.6185 37.9084V40.4735C24.6185 41.0992 24.3485 41.6831 23.8917 42.0793L22.8742 42.9552C21.9398 43.7268 20.7562 44.1648 19.531 44.1648Z" fill="#162D3D"/>
</svg>
