<svg width="181" height="46" viewBox="0 0 181 46" fill="none" xmlns="http://www.w3.org/2000/svg">
<path d="M43.1836 30.3574H44.4068L45.5903 34.8831H45.6112L47.0229 30.3574H48.1237L49.4908 34.8831H49.5116L50.7348 30.3574H51.8558L50.0282 36.6346H48.9691L47.5157 31.859H47.5006L46.0472 36.6346H45.0298L43.1836 30.3574Z" fill="white"/>
<path d="M52.8807 34.8845C52.9021 35.1702 53.0331 35.4364 53.2461 35.627C53.4591 35.8176 53.7375 35.9177 54.0225 35.9063C54.2456 35.9086 54.466 35.8567 54.6648 35.7551C54.8636 35.6534 55.035 35.505 55.1644 35.3224L55.9328 35.9063C55.7207 36.1771 55.4492 36.3951 55.1394 36.5434C54.8297 36.6917 54.4901 36.7662 54.147 36.7611C53.8485 36.7719 53.5509 36.7222 53.272 36.6149C52.993 36.5076 52.7384 36.345 52.5235 36.1367C52.3085 35.9284 52.1375 35.6788 52.0207 35.4027C51.9039 35.1266 51.8438 34.8297 51.8438 34.5297C51.8438 34.2297 51.9039 33.9328 52.0207 33.6567C52.1375 33.3806 52.3085 33.131 52.5235 32.9227C52.7384 32.7144 52.993 32.5518 53.272 32.4445C53.5509 32.3372 53.8485 32.2875 54.147 32.2983C55.3306 32.2983 56.1408 33.1322 56.1408 34.6106V34.8997H52.8807V34.8845ZM55.0608 34.0896C55.0674 33.9483 55.0435 33.8072 54.9907 33.676C54.9379 33.5449 54.8575 33.4267 54.755 33.3296C54.6525 33.2326 54.5303 33.159 54.3968 33.1138C54.2633 33.0686 54.1216 33.0529 53.9815 33.0679C53.7009 33.0577 53.4276 33.1594 53.2214 33.3509C53.0151 33.5423 52.8927 33.8079 52.8807 34.0896H55.0608Z" fill="white"/>
<path d="M57.0332 29.9414H58.0923V32.9236H58.1132C58.2858 32.7117 58.505 32.543 58.7536 32.4308C59.0022 32.3186 59.2734 32.2659 59.5457 32.2768C59.8289 32.2805 60.1083 32.3419 60.3671 32.4575C60.6258 32.5731 60.8585 32.7403 61.0508 32.9491C61.2431 33.1579 61.3911 33.4038 61.4857 33.6718C61.5804 33.9398 61.6197 34.2244 61.6013 34.5082C61.6266 34.7963 61.5915 35.0864 61.4983 35.36C61.4051 35.6336 61.2559 35.8846 61.0603 36.0967C60.8647 36.3089 60.627 36.4776 60.3626 36.5919C60.0981 36.7063 59.8128 36.7637 59.5249 36.7606C59.2379 36.7772 58.9518 36.7164 58.6962 36.5844C58.4406 36.4523 58.2248 36.2539 58.0714 36.0098H58.0506V36.6565H57.0332V29.9414ZM59.3176 33.2365C59.0661 33.2323 58.8191 33.3034 58.608 33.4407C58.3969 33.578 58.2313 33.7753 58.1322 34.0075C58.0331 34.2396 58.005 34.4962 58.0516 34.7444C58.0982 34.9926 58.2173 35.2213 58.3937 35.4013C58.5701 35.5814 58.7959 35.7046 59.0423 35.7554C59.2886 35.8061 59.5445 35.782 59.7772 35.6863C60.0099 35.5905 60.209 35.4273 60.3491 35.2175C60.4892 35.0077 60.5639 34.7608 60.5638 34.5082C60.5691 34.3415 60.5406 34.1754 60.4801 34.0201C60.4196 33.8647 60.3283 33.7233 60.2118 33.6044C60.0953 33.4855 59.956 33.3916 59.8023 33.3283C59.6486 33.2651 59.4837 33.2338 59.3176 33.2365Z" fill="white"/>
<path d="M65.3184 30.3576H67.7892C68.2098 30.3307 68.6313 30.3934 69.0262 30.5416C69.421 30.6897 69.7802 30.92 70.0802 31.2174C70.3802 31.5147 70.6143 31.8724 70.767 32.2669C70.9197 32.6615 70.9877 33.084 70.9665 33.5067C70.9637 33.9355 70.8745 34.3593 70.7041 34.7525C70.5338 35.1457 70.2859 35.5002 69.9753 35.7945C69.6648 36.0888 69.2981 36.3169 68.8974 36.4649C68.4966 36.613 68.0702 36.6779 67.6438 36.6558H65.3184V30.3576ZM67.2704 35.6326C68.6619 35.6326 69.8038 35.0278 69.8038 33.5053C69.8038 31.9828 68.8072 31.378 67.4574 31.378H66.4401V35.6326H67.2704Z" fill="white"/>
<path d="M72.6502 34.8845C72.6716 35.1702 72.8026 35.4364 73.0156 35.627C73.2286 35.8176 73.507 35.9177 73.7921 35.9063C74.0152 35.9087 74.2356 35.8568 74.4344 35.7552C74.6332 35.6535 74.8046 35.505 74.9339 35.3224L75.7023 35.9063C75.4902 36.1771 75.2187 36.3951 74.909 36.5434C74.5992 36.6917 74.2596 36.7662 73.9165 36.7611C73.618 36.7719 73.3204 36.7222 73.0415 36.6149C72.7625 36.5076 72.508 36.345 72.293 36.1367C72.078 35.9284 71.907 35.6788 71.7903 35.4027C71.6735 35.1266 71.6133 34.8297 71.6133 34.5297C71.6133 34.2297 71.6735 33.9328 71.7903 33.6567C71.907 33.3806 72.078 33.131 72.293 32.9227C72.508 32.7144 72.7625 32.5518 73.0415 32.4445C73.3204 32.3372 73.618 32.2875 73.9165 32.2983C75.1001 32.2983 75.9103 33.1322 75.9103 34.6106V34.8997H72.6502V34.8845ZM74.8303 34.0896C74.8369 33.9483 74.813 33.8072 74.7602 33.676C74.7074 33.5449 74.627 33.4267 74.5245 33.3296C74.422 33.2326 74.2998 33.159 74.1663 33.1138C74.0328 33.0686 73.8911 33.0529 73.751 33.0679C73.4704 33.0577 73.1971 33.1594 72.9909 33.3509C72.7847 33.5423 72.6622 33.8079 72.6502 34.0896H74.8303Z" fill="white"/>
<path d="M76.0762 32.3828H77.2389L78.3599 35.365H78.3807L79.5233 32.3828H80.6026L78.9412 36.6368H77.803L76.0762 32.3828Z" fill="white"/>
<path d="M81.8494 34.8845C81.8708 35.1702 82.0018 35.4364 82.2148 35.627C82.4278 35.8176 82.7062 35.9177 82.9913 35.9063C83.2144 35.9086 83.4347 35.8567 83.6336 35.7551C83.8324 35.6534 84.0038 35.505 84.1331 35.3224L84.9016 35.9063C84.6894 36.1771 84.4179 36.3951 84.1082 36.5434C83.7985 36.6917 83.4588 36.7662 83.1158 36.7611C82.8173 36.7719 82.5196 36.7222 82.2407 36.6149C81.9618 36.5076 81.7072 36.345 81.4922 36.1367C81.2772 35.9284 81.1063 35.6788 80.9895 35.4027C80.8727 35.1266 80.8125 34.8297 80.8125 34.5297C80.8125 34.2297 80.8727 33.9328 80.9895 33.6567C81.1063 33.3806 81.2772 33.131 81.4922 32.9227C81.7072 32.7144 81.9618 32.5518 82.2407 32.4445C82.5196 32.3372 82.8173 32.2875 83.1158 32.2983C84.2993 32.2983 85.1095 33.1322 85.1095 34.6106V34.8997H81.8494V34.8845ZM84.0295 34.0896C84.0361 33.9483 84.0122 33.8072 83.9594 33.676C83.9067 33.5449 83.8263 33.4267 83.7237 33.3296C83.6212 33.2326 83.499 33.159 83.3655 33.1138C83.232 33.0686 83.0904 33.0529 82.9503 33.0679C82.6696 33.0577 82.3964 33.1594 82.1901 33.3509C81.9839 33.5423 81.8614 33.8079 81.8494 34.0896H84.0295Z" fill="white"/>
<path d="M86 29.9414H87.0591V36.6565H86V29.9414Z" fill="white"/>
<path d="M90.2558 32.2762C90.6919 32.2918 91.1137 32.4359 91.4688 32.6906C91.8239 32.9453 92.0965 33.2993 92.2526 33.7085C92.4088 34.1177 92.4416 34.5641 92.347 34.9918C92.2524 35.4196 92.0345 35.81 91.7205 36.1143C91.4065 36.4186 91.0103 36.6234 90.5812 36.7032C90.1521 36.7829 89.7092 36.7341 89.3075 36.5628C88.9059 36.3915 88.5633 36.1053 88.3225 35.7398C88.0817 35.3744 87.9533 34.9458 87.9534 34.5076C87.949 34.2064 88.0063 33.9076 88.1215 33.6296C88.2367 33.3515 88.4075 33.1002 88.6233 32.891C88.8391 32.6819 89.0953 32.5194 89.3761 32.4137C89.6569 32.3079 89.9563 32.2611 90.2558 32.2762ZM90.2558 35.8003C90.5073 35.8045 90.7543 35.7334 90.9654 35.5961C91.1765 35.4588 91.3421 35.2615 91.4412 35.0293C91.5403 34.7971 91.5683 34.5406 91.5218 34.2924C91.4752 34.0442 91.3561 33.8155 91.1797 33.6354C91.0033 33.4554 90.7775 33.3322 90.5312 33.2814C90.2848 33.2307 90.0289 33.2547 89.7962 33.3505C89.5635 33.4463 89.3644 33.6095 89.2243 33.8192C89.0842 34.029 89.0095 34.2759 89.0096 34.5285C89.0043 34.6953 89.0328 34.8613 89.0933 35.0167C89.1538 35.1721 89.245 35.3135 89.3616 35.4324C89.4781 35.5513 89.6174 35.6452 89.7711 35.7084C89.9248 35.7717 90.0897 35.8029 90.2558 35.8003Z" fill="white"/>
<path d="M93.457 32.3795H94.4744V33.0262H94.4953C94.6504 32.7838 94.8665 32.5867 95.1216 32.4549C95.3768 32.3231 95.662 32.2612 95.9486 32.2754C96.5047 32.3192 97.0244 32.5706 97.405 32.9801C97.7856 33.3896 97.9997 33.9274 98.005 34.4876C98.0102 35.0478 97.8062 35.5896 97.4333 36.0062C97.0604 36.4229 96.5456 36.684 95.9904 36.7382C95.7177 36.7518 95.4457 36.7003 95.1967 36.5879C94.9477 36.4755 94.7287 36.3054 94.5579 36.0915H94.5363V38.6567H93.4771V32.3795H93.457ZM95.7414 33.2343C95.49 33.2302 95.2429 33.3013 95.0318 33.4386C94.8207 33.5759 94.6551 33.7732 94.556 34.0053C94.4569 34.2375 94.4289 34.494 94.4754 34.7423C94.522 34.9905 94.6411 35.2192 94.8175 35.3992C94.9939 35.5792 95.2197 35.7025 95.4661 35.7532C95.7124 35.804 95.9683 35.7799 96.201 35.6841C96.4337 35.5884 96.6328 35.4252 96.7729 35.2154C96.913 35.0056 96.9877 34.7587 96.9876 34.5061C96.9928 34.3394 96.9642 34.1734 96.9037 34.0182C96.8432 33.8629 96.7519 33.7216 96.6354 33.6027C96.5189 33.4839 96.3796 33.3901 96.226 33.3269C96.0723 33.2637 95.9075 33.2324 95.7414 33.2351V33.2343Z" fill="white"/>
<path d="M98.918 32.3811H99.9353V33.0488H99.9562C100.074 32.8048 100.261 32.6014 100.494 32.464C100.727 32.3267 100.995 32.2616 101.264 32.2771C101.542 32.2468 101.821 32.308 102.061 32.4514C102.301 32.5948 102.488 32.8126 102.593 33.072C102.725 32.8198 102.927 32.6109 103.173 32.4701C103.42 32.3292 103.701 32.2623 103.985 32.2771C105.106 32.2771 105.522 33.0907 105.522 34.1125V36.6568H104.462V34.2375C104.462 33.6955 104.296 33.2367 103.671 33.2367C103.007 33.2367 102.757 33.7787 102.757 34.3423V36.6546H101.678V34.1125C101.678 33.5915 101.47 33.2367 100.951 33.2367C100.813 33.2322 100.675 33.2581 100.548 33.3124C100.42 33.3668 100.306 33.4484 100.213 33.5516C100.12 33.6547 100.051 33.777 100.01 33.9098C99.969 34.0426 99.9573 34.1828 99.9756 34.3206V36.656H98.918V32.3811Z" fill="white"/>
<path d="M107.43 34.8845C107.451 35.1702 107.582 35.4364 107.795 35.627C108.008 35.8176 108.286 35.9177 108.571 35.9063C108.794 35.9086 109.015 35.8567 109.214 35.7551C109.412 35.6534 109.584 35.505 109.713 35.3224L110.482 35.9063C110.269 36.1771 109.998 36.3951 109.688 36.5434C109.379 36.6917 109.039 36.7662 108.696 36.7611C108.397 36.7719 108.1 36.7222 107.821 36.6149C107.542 36.5076 107.287 36.345 107.072 36.1367C106.857 35.9284 106.686 35.6788 106.57 35.4027C106.453 35.1266 106.393 34.8297 106.393 34.5297C106.393 34.2297 106.453 33.9328 106.57 33.6567C106.686 33.3806 106.857 33.131 107.072 32.9227C107.287 32.7144 107.542 32.5518 107.821 32.4445C108.1 32.3372 108.397 32.2875 108.696 32.2983C109.879 32.2983 110.69 33.1322 110.69 34.6106V34.8997H107.43V34.8845ZM109.588 34.0896C109.595 33.9483 109.571 33.8072 109.518 33.676C109.465 33.5449 109.385 33.4267 109.282 33.3296C109.18 33.2326 109.058 33.159 108.924 33.1138C108.791 33.0686 108.649 33.0529 108.509 33.0679C108.228 33.0577 107.955 33.1594 107.749 33.3509C107.542 33.5423 107.42 33.8079 107.408 34.0896H109.588Z" fill="white"/>
<path d="M111.562 32.3808H112.58V33.0687H112.601C112.713 32.819 112.899 32.6095 113.132 32.4676C113.366 32.3257 113.636 32.2582 113.909 32.2738C114.126 32.2616 114.342 32.2972 114.544 32.3782C114.746 32.4593 114.927 32.5837 115.075 32.7428C115.224 32.9019 115.336 33.0918 115.403 33.299C115.471 33.5063 115.492 33.7259 115.466 33.9423V36.6326H114.407V34.4843C114.407 34.0045 114.365 33.2327 113.638 33.2327C113.5 33.2283 113.362 33.2541 113.235 33.3085C113.107 33.3629 112.993 33.4445 112.9 33.5476C112.808 33.6508 112.738 33.773 112.697 33.9058C112.656 34.0386 112.644 34.1788 112.663 34.3166V36.6521H111.604V32.3772L111.562 32.3808Z" fill="white"/>
<path d="M116.027 33.3006V32.3808H116.899V31.1523H117.959V32.3808H119.121V33.2775H117.959V35.1339C117.959 35.5508 118.083 35.8218 118.561 35.8218C118.761 35.8248 118.96 35.7821 119.142 35.6968V36.5935C118.876 36.6918 118.595 36.7408 118.312 36.738C117.191 36.738 116.92 36.2373 116.92 35.2365V33.2761H116.027V33.3006Z" fill="white"/>
<path d="M127.054 35.1758L128.404 36.6564H127.037L126.373 35.9476C126.158 36.2324 125.878 36.4608 125.556 36.6132C125.234 36.7657 124.88 36.8378 124.524 36.8234C124.262 36.8508 123.997 36.8236 123.746 36.7436C123.494 36.6636 123.262 36.5324 123.063 36.3583C122.864 36.1841 122.703 35.9707 122.59 35.7313C122.477 35.4919 122.415 35.2318 122.406 34.967C122.426 34.569 122.566 34.1864 122.807 33.8699C123.048 33.5534 123.379 33.3178 123.756 33.1945C123.549 33.0135 123.381 32.7932 123.259 32.5462C123.138 32.2993 123.067 32.0306 123.05 31.7558C123.057 31.5334 123.11 31.3149 123.206 31.1142C123.301 30.9135 123.437 30.7349 123.605 30.5898C123.773 30.4447 123.969 30.3362 124.181 30.2712C124.393 30.2062 124.616 30.1862 124.836 30.2123C125.771 30.2123 126.601 30.6711 126.601 31.7139C126.564 32.0743 126.428 32.4173 126.207 32.7045C125.987 32.9918 125.692 33.2119 125.355 33.3404L126.372 34.4243L127.078 33.3607H128.324L127.054 35.1758ZM124.438 33.8202C124.023 34.0703 123.587 34.3622 123.587 34.9041C123.59 35.0329 123.617 35.1599 123.669 35.2778C123.72 35.3957 123.795 35.5023 123.887 35.5914C123.98 35.6805 124.089 35.7504 124.208 35.7972C124.328 35.8439 124.455 35.8665 124.583 35.8638C124.806 35.8418 125.022 35.7751 125.218 35.6675C125.414 35.56 125.587 35.4139 125.725 35.238L124.438 33.8202ZM124.106 31.797C124.178 32.1708 124.394 32.5009 124.708 32.7147C125.061 32.5268 125.559 32.2139 125.559 31.755C125.545 31.5864 125.465 31.4301 125.337 31.3207C125.209 31.2112 125.042 31.1574 124.874 31.1712C124.437 31.1719 124.106 31.4219 124.106 31.797Z" fill="white"/>
<path d="M138.557 36.6561H134.923C134.289 36.6665 133.665 36.4876 133.132 36.1421C132.598 35.7966 132.179 35.3 131.927 34.7151C131.674 34.1302 131.6 33.4833 131.714 32.8562C131.828 32.2291 132.124 31.6499 132.566 31.192C133.007 30.734 133.574 30.4178 134.194 30.2834C134.815 30.149 135.461 30.2024 136.051 30.4368C136.641 30.6712 137.149 31.0762 137.51 31.6004C137.871 32.1246 138.069 32.7447 138.08 33.382C138.1 33.858 137.988 34.3302 137.757 34.7461C137.525 35.1621 137.184 35.5056 136.77 35.7384V35.7594H138.556L138.557 36.6561ZM132.68 33.4044C132.691 33.8254 132.824 34.2341 133.065 34.5791C133.305 34.9241 133.642 35.1902 134.032 35.3438C134.422 35.4975 134.849 35.5319 135.259 35.4429C135.669 35.3538 136.044 35.1451 136.336 34.8431C136.628 34.541 136.825 34.159 136.902 33.745C136.979 33.331 136.932 32.9035 136.768 32.5159C136.604 32.1284 136.329 31.7982 135.979 31.5668C135.629 31.3353 135.218 31.2129 134.799 31.2149C134.514 31.2091 134.231 31.2623 133.967 31.371C133.704 31.4797 133.465 31.6417 133.266 31.8469C133.068 32.052 132.913 32.2961 132.812 32.5638C132.712 32.8315 132.667 33.1171 132.68 33.403V33.4044Z" fill="white"/>
<path d="M141.611 30.3594H142.567L145.266 36.6366H143.999L143.418 35.2008H140.697L140.137 36.6395H138.891L141.611 30.3594ZM143.023 34.2614L142.068 31.6962L141.092 34.2614H143.023Z" fill="white"/>
<path d="M151.661 31.7137C151.53 31.5485 151.362 31.417 151.171 31.3299C150.979 31.2428 150.77 31.2027 150.56 31.2129C150.041 31.2129 149.543 31.442 149.543 32.0266C149.543 33.2781 152.512 32.5685 152.512 34.7999C152.512 36.1555 151.453 36.8022 150.227 36.8022C149.843 36.8224 149.459 36.7561 149.103 36.6082C148.748 36.4603 148.43 36.2346 148.172 35.9474L149.002 35.1338C149.139 35.3398 149.324 35.5087 149.542 35.6252C149.759 35.7417 150.002 35.8023 150.248 35.8014C150.768 35.8014 151.349 35.5124 151.349 34.9466C151.349 33.5737 148.38 34.3627 148.38 32.1104C148.38 30.8177 149.522 30.2128 150.682 30.2128C151.339 30.1873 151.979 30.4192 152.468 30.8596L151.661 31.7137Z" fill="white"/>
<path d="M154.256 34.8845C154.277 35.1702 154.408 35.4364 154.621 35.627C154.834 35.8176 155.112 35.9177 155.398 35.9063C155.621 35.9087 155.841 35.8568 156.04 35.7552C156.239 35.6535 156.41 35.505 156.539 35.3224L157.308 35.9063C157.096 36.1771 156.824 36.3951 156.514 36.5434C156.205 36.6917 155.865 36.7662 155.522 36.7611C155.224 36.7719 154.926 36.7222 154.647 36.6149C154.368 36.5076 154.113 36.345 153.898 36.1367C153.683 35.9284 153.513 35.6788 153.396 35.4027C153.279 35.1266 153.219 34.8297 153.219 34.5297C153.219 34.2297 153.279 33.9328 153.396 33.6567C153.513 33.3806 153.683 33.131 153.898 32.9227C154.113 32.7144 154.368 32.5518 154.647 32.4445C154.926 32.3372 155.224 32.2875 155.522 32.2983C156.706 32.2983 157.516 33.1322 157.516 34.6106V34.8997H154.256V34.8845ZM156.414 34.0896C156.421 33.9483 156.397 33.8072 156.344 33.676C156.291 33.5449 156.211 33.4267 156.108 33.3296C156.006 33.2326 155.884 33.159 155.75 33.1138C155.617 33.0686 155.475 33.0529 155.335 33.0679C155.054 33.0577 154.781 33.1594 154.575 33.3509C154.369 33.5423 154.246 33.8079 154.234 34.0896H156.414Z" fill="white"/>
<path d="M158.388 32.3816H159.446V33.0492H159.467C159.58 32.8146 159.757 32.6173 159.978 32.4806C160.199 32.3438 160.454 32.2734 160.713 32.2775C160.841 32.278 160.967 32.2992 161.088 32.3404V33.3614C160.918 33.3151 160.744 33.2872 160.569 33.2783C160.422 33.268 160.274 33.2885 160.135 33.3385C159.996 33.3885 159.869 33.4669 159.761 33.5687C159.654 33.6706 159.569 33.7937 159.511 33.9303C159.454 34.0669 159.425 34.2139 159.427 34.3622V36.6355H158.367V32.3816H158.388Z" fill="white"/>
<path d="M161.461 32.3828H162.624L163.745 35.365H163.766L164.908 32.3828H165.987L164.326 36.6368H163.205L161.461 32.3828Z" fill="white"/>
<path d="M167.11 30.297C167.238 30.3004 167.361 30.3415 167.465 30.4152C167.57 30.4889 167.65 30.5918 167.696 30.7111C167.743 30.8304 167.753 30.9608 167.725 31.0858C167.698 31.2109 167.635 31.3252 167.543 31.4142C167.452 31.5033 167.336 31.5633 167.211 31.5866C167.085 31.6099 166.956 31.5955 166.839 31.5453C166.721 31.495 166.622 31.4112 166.552 31.3042C166.482 31.1971 166.445 31.0718 166.445 30.9437C166.446 30.8573 166.464 30.772 166.498 30.6926C166.532 30.6132 166.582 30.5414 166.644 30.4813C166.705 30.4212 166.778 30.3739 166.859 30.3423C166.939 30.3107 167.024 30.2953 167.11 30.297ZM166.591 32.3824H167.65V36.6364H166.589L166.591 32.3824Z" fill="white"/>
<path d="M171.636 33.674C171.534 33.5543 171.41 33.4559 171.271 33.3844C171.132 33.313 170.98 33.27 170.823 33.2577C170.493 33.2657 170.178 33.4032 169.947 33.6409C169.716 33.8786 169.587 34.1976 169.587 34.5299C169.587 34.8621 169.716 35.1812 169.947 35.4189C170.178 35.6566 170.493 35.7941 170.823 35.802C170.983 35.8025 171.14 35.7672 171.283 35.6987C171.427 35.6302 171.554 35.5302 171.654 35.406L172.36 36.1778C171.934 36.5541 171.39 36.7682 170.823 36.7826C170.524 36.7934 170.227 36.7437 169.948 36.6364C169.669 36.5291 169.414 36.3665 169.199 36.1582C168.984 35.9499 168.813 35.7003 168.697 35.4242C168.58 35.1481 168.52 34.8512 168.52 34.5512C168.52 34.2512 168.58 33.9543 168.697 33.6782C168.813 33.4021 168.984 33.1525 169.199 32.9442C169.414 32.7359 169.669 32.5733 169.948 32.466C170.227 32.3587 170.524 32.309 170.823 32.3198C171.11 32.314 171.395 32.3685 171.659 32.4799C171.924 32.5913 172.163 32.757 172.36 32.9665L171.636 33.674Z" fill="white"/>
<path d="M173.713 34.8845C173.734 35.1702 173.865 35.4364 174.078 35.627C174.291 35.8176 174.569 35.9177 174.855 35.9063C175.078 35.9087 175.298 35.8568 175.497 35.7552C175.696 35.6535 175.867 35.505 175.996 35.3224L176.765 35.9063C176.553 36.1771 176.281 36.3951 175.971 36.5434C175.662 36.6917 175.322 36.7662 174.979 36.7611C174.681 36.7719 174.383 36.7222 174.104 36.6149C173.825 36.5076 173.57 36.345 173.355 36.1367C173.141 35.9284 172.97 35.6788 172.853 35.4027C172.736 35.1266 172.676 34.8297 172.676 34.5297C172.676 34.2297 172.736 33.9328 172.853 33.6567C172.97 33.3806 173.141 33.131 173.355 32.9227C173.57 32.7144 173.825 32.5518 174.104 32.4445C174.383 32.3372 174.681 32.2875 174.979 32.2983C176.163 32.2983 176.973 33.1322 176.973 34.6106V34.8997H173.713V34.8845ZM175.871 34.0896C175.878 33.9483 175.854 33.8072 175.801 33.676C175.748 33.5449 175.668 33.4267 175.565 33.3296C175.463 33.2326 175.341 33.159 175.207 33.1138C175.074 33.0686 174.932 33.0529 174.792 33.0679C174.511 33.0577 174.238 33.1594 174.032 33.3509C173.826 33.5423 173.703 33.8079 173.691 34.0896H175.871Z" fill="white"/>
<path d="M180.109 33.5698C180.019 33.4318 179.896 33.3192 179.75 33.2425C179.605 33.1659 179.443 33.1278 179.279 33.1319C178.991 33.1319 178.656 33.2569 178.656 33.5907C178.656 34.3625 180.94 33.7353 180.94 35.3842C180.94 36.406 179.985 36.7572 179.112 36.7572C178.803 36.7791 178.493 36.7305 178.206 36.6149C177.918 36.4992 177.66 36.3196 177.451 36.0895L178.157 35.4218C178.277 35.5792 178.431 35.7076 178.607 35.7977C178.783 35.8878 178.977 35.9374 179.174 35.9428C179.486 35.9428 179.88 35.7983 179.88 35.463C179.88 34.5872 177.596 35.2751 177.596 33.6485C177.596 32.6889 178.447 32.2756 179.298 32.2756C179.583 32.262 179.867 32.313 180.13 32.425C180.392 32.537 180.626 32.707 180.814 32.9223L180.109 33.5698Z" fill="white"/>
<path d="M60.4408 24.7924C58.099 25.9784 55.5047 26.5736 52.8824 26.5266C47.2552 26.5266 43.1641 22.8146 43.1641 17.0172C43.1641 11.2198 47.2544 7.50781 52.8824 7.50781C55.7273 7.50781 58.2607 8.15454 60.0674 9.84325L57.2613 12.9085C56.7011 12.3174 56.0179 11.8577 55.2605 11.5621C54.5032 11.2664 53.6902 11.1422 52.8795 11.1981C49.4979 11.1981 47.2732 13.6593 47.2732 17.0375C47.2732 20.4156 49.4957 22.8739 52.8824 22.8739C54.184 22.8994 55.4706 22.5907 56.6202 21.9772V19.0369H53.3825V15.3451H60.4422L60.4408 24.7924Z" fill="white"/>
<path d="M74.2105 23.9163C73.5774 24.6885 72.7814 25.3098 71.88 25.7353C70.9787 26.1608 69.9944 26.3799 68.9984 26.3768C65.1779 26.3768 62.125 23.8115 62.125 19.8495C62.125 15.8875 65.1771 13.3223 68.9984 13.3223C72.5701 13.3223 74.8127 15.8875 74.8127 19.8495V21.0591H65.9434C66.0542 21.742 66.4078 22.3613 66.9386 22.8023C67.4694 23.2433 68.1414 23.4761 68.8301 23.4575C69.372 23.4538 69.9045 23.3145 70.3795 23.0524C70.8544 22.7902 71.2569 22.4134 71.5505 21.9559L74.2105 23.9163ZM70.9922 18.4527C70.9981 18.1416 70.9415 17.8325 70.8257 17.5439C70.7099 17.2553 70.5373 16.9932 70.3182 16.7732C70.0992 16.5531 69.8381 16.3798 69.5508 16.2635C69.2634 16.1472 68.9556 16.0903 68.6459 16.0963C67.9779 16.0541 67.3201 16.2776 66.815 16.7186C66.3098 17.1595 65.9977 17.7825 65.9463 18.4527H70.9922Z" fill="white"/>
<path d="M76.3672 13.6356H80.0424V15.325H80.0841C80.4501 14.6946 80.9794 14.1755 81.6156 13.823C82.2518 13.4704 82.9713 13.2975 83.6975 13.3227C87.5598 13.3227 88.2865 15.8879 88.2865 19.204V26.0687H84.4659V19.9793C84.4659 18.5406 84.4451 16.7052 82.4722 16.7052C80.4784 16.7052 80.1878 18.2696 80.1878 19.8753V26.0687H76.3672V13.6399V13.6356Z" fill="white"/>
<path d="M92.2121 7.50391C92.6515 7.50391 93.0811 7.63478 93.4464 7.87996C93.8118 8.12515 94.0966 8.47365 94.2648 8.88138C94.4329 9.28911 94.4769 9.73778 94.3912 10.1706C94.3055 10.6035 94.0939 11.0011 93.7831 11.3131C93.4724 11.6252 93.0765 11.8377 92.6455 11.9238C92.2145 12.0099 91.7678 11.9657 91.3618 11.7968C90.9558 11.6279 90.6088 11.3419 90.3647 10.975C90.1205 10.608 89.9902 10.1766 89.9902 9.7353C89.991 9.14373 90.2253 8.57661 90.6418 8.15831C91.0583 7.74001 91.623 7.50467 92.2121 7.50391ZM90.3018 13.6352H94.1223V26.0639H90.3018V13.6352Z" fill="white"/>
<path d="M108.013 26.0639H104.338V24.3745H104.296C103.93 25.0049 103.401 25.524 102.765 25.8766C102.128 26.2291 101.409 26.402 100.683 26.3768C96.8205 26.3768 96.0938 23.8116 96.0938 20.4956V13.6309H99.9143V19.7202C99.9143 21.1589 99.9352 22.9943 101.908 22.9943C103.901 22.9943 104.193 21.4299 104.193 19.8243V13.6352H108.013V26.0639Z" fill="white"/>
<path d="M117.027 17.3052C116.762 16.9705 116.424 16.702 116.038 16.5211C115.653 16.3401 115.23 16.2516 114.805 16.2625C114.161 16.2625 113.413 16.5335 113.413 17.2843C113.413 19.1197 119.851 17.5553 119.851 22.289C119.851 25.4591 116.799 26.3768 114.14 26.3768C112.413 26.3768 110.506 25.9389 109.281 24.6873L111.607 22.1011C111.917 22.5266 112.323 22.8716 112.793 23.1074C113.263 23.3432 113.781 23.463 114.306 23.4567C115.178 23.4567 116.033 23.2277 116.033 22.56C116.033 20.5577 109.596 22.2471 109.596 17.5133C109.596 14.594 112.192 13.3223 114.787 13.3223C116.407 13.3223 118.234 13.7392 119.376 14.9488L117.027 17.3052Z" fill="white"/>
<path d="M137.644 24.7924C135.302 25.9784 132.708 26.5736 130.086 26.5266C124.458 26.5266 120.367 22.8146 120.367 17.0172C120.367 11.2198 124.458 7.50781 130.086 7.50781C132.93 7.50781 135.464 8.15454 137.27 9.84325L134.464 12.9085C133.904 12.3174 133.221 11.8577 132.464 11.5621C131.706 11.2664 130.893 11.1422 130.083 11.1981C126.701 11.1981 124.476 13.6593 124.476 17.0375C124.476 20.4156 126.698 22.8768 130.083 22.8768C131.384 22.9023 132.671 22.5936 133.82 21.98V19.0369H130.583V15.3451H137.643L137.644 24.7924Z" fill="white"/>
<path d="M141.839 7.50391C142.278 7.50391 142.708 7.63478 143.073 7.87996C143.439 8.12515 143.724 8.47365 143.892 8.88138C144.06 9.28911 144.104 9.73778 144.018 10.1706C143.932 10.6035 143.721 11.0011 143.41 11.3131C143.099 11.6252 142.703 11.8377 142.272 11.9238C141.841 12.0099 141.395 11.9657 140.989 11.7968C140.583 11.6279 140.236 11.3419 139.992 10.975C139.747 10.608 139.617 10.1766 139.617 9.7353C139.618 9.14373 139.852 8.57661 140.269 8.15831C140.685 7.74001 141.25 7.50467 141.839 7.50391ZM139.929 13.6352H143.749V26.0639H139.929V13.6352Z" fill="white"/>
<path d="M153.406 24.5019H153.364C152.925 25.1263 152.333 25.6269 151.646 25.9559C150.958 26.2848 150.199 26.4311 149.439 26.3807C147.114 26.3807 145.037 25.046 145.037 22.5437C145.037 18.2478 150.228 18.164 153.406 18.164C153.398 17.8534 153.328 17.5475 153.2 17.265C153.071 16.9824 152.887 16.7291 152.657 16.5204C152.428 16.3116 152.159 16.1519 151.867 16.0509C151.574 15.9498 151.264 15.9096 150.956 15.9326C150.361 15.9398 149.775 16.0758 149.237 16.3313C148.7 16.5869 148.224 16.9559 147.841 17.4132L145.806 15.3068C147.305 13.977 149.247 13.2622 151.246 13.3045C155.707 13.3045 156.895 15.5778 156.895 19.7277V26.0468H153.383V24.5019H153.406ZM152.448 20.6216C151.285 20.6216 148.689 20.7256 148.689 22.4151C148.689 23.3328 149.666 23.7707 150.496 23.7707C151.991 23.7707 153.403 22.9758 153.403 21.4352V20.6216H152.448Z" fill="white"/>
<path d="M158.785 13.6356H162.46V15.325H162.502C162.868 14.6946 163.397 14.1755 164.034 13.823C164.67 13.4704 165.389 13.2975 166.115 13.3227C169.978 13.3227 170.704 15.8879 170.704 19.204V26.0687H166.884V19.9793C166.884 18.5406 166.863 16.7052 164.89 16.7052C162.896 16.7052 162.606 18.2696 162.606 19.8753V26.0687H158.785V13.6356Z" fill="white"/>
<path d="M180.983 16.7009H177.619V20.8508C177.619 22.1855 177.763 23.1451 179.426 23.1451C179.969 23.1874 180.512 23.0637 180.983 22.7903V25.9813C180.119 26.263 179.212 26.39 178.305 26.3563C175.75 26.3563 173.798 25.3136 173.798 22.6024V16.7009H171.348V13.6349H173.798V9.96484H177.618V13.6559H180.982L180.983 16.7009Z" fill="white"/>
<path d="M35.1687 20.9123C35.4802 19.7027 35.5838 17.8883 36.1242 16.7624C37.2452 14.5101 37.7021 12.6545 34.8161 10.3812C33.8405 9.60942 32.4281 6.43938 30.0609 4.45584C28.0265 2.72003 25.6045 1.5038 23.0012 0.910764C21.755 0.639789 18.7654 0.41 17.5192 0.201891C13.844 -0.42388 11.7258 0.326903 9.75291 3.35098C9.06795 4.41465 7.26127 6.08313 6.51514 7.10489C5.04851 8.8945 4.04943 11.0232 3.60834 13.2983C3.44214 14.2781 2.90251 14.737 1.57359 16.1345C1.00586 16.6536 0.569952 17.3014 0.302231 18.0241C0.0345095 18.7467 -0.057263 19.5232 0.0345686 20.2887C0.283517 21.8322 1.48797 22.8749 2.98454 23.7297C3.98105 24.3136 5.06103 24.8137 5.58051 25.6483C6.36301 27.0808 7.31774 28.4115 8.42327 29.6103C10.9775 31.9457 12.659 34.469 12.659 37.9729V40.4341C12.6586 41.0039 12.7804 41.5672 13.0164 42.0854C13.2523 42.6037 13.5967 43.0647 14.0261 43.4372L15.0434 44.313C16.294 45.4023 17.8939 46.002 19.5493 46.002C21.2048 46.002 22.8046 45.4023 24.0552 44.313L25.0726 43.4372C25.502 43.0647 25.8464 42.6037 26.0823 42.0854C26.3182 41.5672 26.4401 41.0039 26.4397 40.4341V40.0793C26.4383 39.9093 26.4717 39.7407 26.5378 39.5842C26.6038 39.4276 26.7012 39.2863 26.8238 39.169C26.9464 39.0517 27.0916 38.9609 27.2505 38.9022C27.4095 38.8435 27.5787 38.8182 27.7477 38.8278C29.4988 38.9063 31.2413 38.5405 32.8145 37.7641C34.5794 36.8247 35.6205 35.9077 35.4306 34.1771C35.2435 32.2795 34.0808 29.2555 33.1282 28.6716C32.4015 28.2337 31.3215 28.2547 31.7993 27.4432C32.0643 27.0219 32.3555 26.6179 32.6713 26.2336C33.8208 24.6281 34.6673 22.8245 35.1687 20.9123Z" fill="#1DFAFF"/>
<path d="M32.9056 16.782C32.905 14.5474 32.3492 12.3484 31.2886 10.384C30.228 8.41962 28.6962 6.75206 26.8319 5.53241C24.9675 4.31276 22.8296 3.57957 20.6119 3.39926C18.3942 3.21896 16.1667 3.59724 14.1313 4.49983C12.0959 5.40243 10.3169 6.8008 8.95553 8.56826C7.59414 10.3357 6.69339 12.4164 6.33489 14.6217C5.97639 16.8271 6.17146 19.0875 6.90244 21.198C7.63342 23.3085 8.87719 25.2025 10.5211 26.7084C12.0759 28.1431 13.3164 29.887 14.1636 31.8293C15.0109 33.7717 15.4464 35.8698 15.4425 37.9903V40.4515C15.4418 40.6143 15.4768 40.7753 15.5449 40.923C15.613 41.0707 15.7127 41.2016 15.8368 41.3063L16.8542 42.1821C17.5993 42.8264 18.5496 43.1815 19.5329 43.1829C20.5162 43.1815 21.4664 42.8264 22.2116 42.1821L23.229 41.3063C23.3514 41.2001 23.4498 41.069 23.5178 40.9216C23.5858 40.7742 23.6217 40.6139 23.6232 40.4515V37.8863C23.626 35.7768 24.067 33.6911 24.918 31.7625C25.769 29.834 27.0113 28.1049 28.5655 26.686C29.9327 25.4272 31.0244 23.8968 31.7715 22.1919C32.5186 20.4869 32.9048 18.6447 32.9056 16.782Z" fill="#FFFF48"/>
<path d="M31.2863 18.4102C31.2848 16.3396 30.7692 14.3021 29.786 12.4821C28.8029 10.6621 27.3833 9.11703 25.6557 7.98687C23.9282 6.85671 21.9473 6.1771 19.8923 6.00957C17.8373 5.84204 15.7732 6.19188 13.8868 7.02741C12.0003 7.86294 10.3512 9.15779 9.08863 10.7947C7.82606 12.4317 6.98993 14.359 6.65594 16.4022C6.32194 18.4455 6.50064 20.5401 7.17584 22.4966C7.85104 24.453 9.00142 26.2094 10.5229 27.6068C11.9667 28.9373 13.1187 30.5554 13.9052 32.3579C14.6917 34.1604 15.0956 36.1078 15.091 38.0758V40.3491C15.0865 40.5018 15.1179 40.6534 15.1828 40.7915C15.2477 40.9296 15.3442 41.0504 15.4644 41.144L16.4199 41.9576C17.1121 42.557 17.9977 42.8831 18.9116 42.8753C19.8237 42.8733 20.706 42.5484 21.4032 41.9576L22.3587 41.144C22.472 41.0444 22.5637 40.9224 22.6279 40.7856C22.6922 40.6489 22.7276 40.5003 22.7321 40.3491V37.971C22.7364 36.0147 23.1468 34.0808 23.9369 32.2927C24.727 30.5046 25.8796 28.9015 27.3211 27.5858C28.576 26.4134 29.576 24.9931 30.2583 23.4141C30.9407 21.8351 31.2907 20.1315 31.2863 18.4102Z" fill="#7DDB29"/>
<path d="M21.4421 29.0663C21.3247 29.9883 21.4087 30.9249 21.6884 31.8109C21.9682 32.6969 22.4368 33.5111 23.0617 34.1967C24.3343 35.4991 26.0681 36.2431 27.8848 36.2665C29.7015 36.2899 31.4537 35.5908 32.7592 34.3217L31.4094 30.7976C30.6847 31.5126 29.7408 31.9608 28.7307 32.0694C26.4052 32.3404 25.5123 30.4009 26.5916 28.8994C27.1828 28.0926 27.8505 27.3453 28.5853 26.668L21.4421 29.0663Z" fill="#7DDB29"/>
<path d="M18.5153 7.60742C18.5153 7.60742 15.0473 9.10899 13.8227 12.3621C13.2448 13.8936 13.1316 15.5627 13.4975 17.1587C13.8633 18.7547 14.6918 20.2061 15.8783 21.3296C18.7023 24.1029 20.073 23.957 20.4054 26.9601C20.6335 28.9624 20.7997 34.28 20.7997 34.28L21.1321 34.6139C21.1321 34.6139 22.4193 27.1899 21.2566 23.9989C20.0939 20.8079 17.6224 21.9966 16.1071 18.1805C15.36 16.3861 15.1905 14.402 15.6224 12.506C16.0542 10.61 17.0657 8.89719 18.5153 7.60742Z" fill="#89BD5B"/>
<path d="M15.4219 34.7598V40.4531C15.4212 40.6159 15.4562 40.7769 15.5243 40.9246C15.5924 41.0723 15.6921 41.2032 15.8162 41.308L16.8335 42.1838C17.5787 42.8281 18.529 43.1831 19.5123 43.1846C20.4956 43.1831 21.4458 42.8281 22.191 42.1838L23.2084 41.308C23.3308 41.2018 23.4293 41.0706 23.4973 40.9232C23.5653 40.7758 23.6012 40.6156 23.6026 40.4531V34.7598H15.4219Z" fill="#1DFAFF"/>
<path d="M19.3677 37.0738H15.9414V35.8223H18.433C18.5561 35.8216 18.678 35.8454 18.7918 35.8924C18.9056 35.9394 19.0089 36.0086 19.0959 36.0959C19.1829 36.1833 19.2518 36.2871 19.2986 36.4014C19.3453 36.5157 19.3691 36.6381 19.3684 36.7617L19.3677 37.0738Z" fill="#2190C2"/>
<path d="M19.3677 39.5563H15.9414V38.3047H18.433C18.5561 38.304 18.678 38.3279 18.7918 38.3748C18.9056 38.4218 19.0089 38.491 19.0959 38.5783C19.1829 38.6657 19.2518 38.7695 19.2986 38.8838C19.3453 38.9981 19.3691 39.1205 19.3684 39.2441L19.3677 39.5563Z" fill="#2190C2"/>
<path d="M19.0974 41.3509L18.9312 41.1218C18.8437 41.0058 18.7307 40.9115 18.6011 40.8463C18.4714 40.7812 18.3286 40.7469 18.1836 40.7461H16.377V42.4565H19.0765V43.3113H22.0877V41.7267H19.845C19.6996 41.7282 19.5559 41.6949 19.4259 41.6296C19.2959 41.5642 19.1833 41.4687 19.0974 41.3509Z" fill="#2190C2"/>
<path d="M23.6244 40.2858H15.422C15.2293 40.2858 15.0444 40.2089 14.9082 40.0721C14.7719 39.9352 14.6953 39.7496 14.6953 39.556C14.6953 39.3624 14.7719 39.1768 14.9082 39.0399C15.0444 38.9031 15.2293 38.8262 15.422 38.8262H23.6244C23.8171 38.8262 24.0019 38.9031 24.1382 39.0399C24.2745 39.1768 24.3511 39.3624 24.3511 39.556C24.3511 39.7496 24.2745 39.9352 24.1382 40.0721C24.0019 40.2089 23.8171 40.2858 23.6244 40.2858Z" fill="#162D3D"/>
<path d="M23.6244 37.8054H15.422C15.2293 37.8054 15.0444 37.7285 14.9082 37.5916C14.7719 37.4547 14.6953 37.2691 14.6953 37.0755C14.6953 36.882 14.7719 36.6963 14.9082 36.5595C15.0444 36.4226 15.2293 36.3457 15.422 36.3457H23.6244C23.8171 36.3457 24.0019 36.4226 24.1382 36.5595C24.2745 36.6963 24.3511 36.882 24.3511 37.0755C24.3511 37.2691 24.2745 37.4547 24.1382 37.5916C24.0019 37.7285 23.8171 37.8054 23.6244 37.8054Z" fill="#162D3D"/>
<path d="M23.6244 35.3425H15.422C15.2293 35.3425 15.0444 35.2656 14.9082 35.1287C14.7719 34.9918 14.6953 34.8062 14.6953 34.6126C14.6953 34.4191 14.7719 34.2334 14.9082 34.0966C15.0444 33.9597 15.2293 33.8828 15.422 33.8828H23.6244C23.8171 33.8828 24.0019 33.9597 24.1382 34.0966C24.2745 34.2334 24.3511 34.4191 24.3511 34.6126C24.3511 34.8062 24.2745 34.9918 24.1382 35.1287C24.0019 35.2656 23.8171 35.3425 23.6244 35.3425Z" fill="#162D3D"/>
<path d="M19.4077 7.21094C18.7599 7.73417 18.1798 8.33666 17.6809 9.00443C17.2016 9.65136 16.8105 10.3598 16.5182 11.1108C16.2362 11.8404 16.0547 12.6052 15.9786 13.3841C15.8953 14.1566 15.9373 14.9375 16.103 15.6964C16.1751 16.0732 16.2793 16.4431 16.4146 16.802C16.5367 17.1622 16.6895 17.511 16.8715 17.8447C17.2284 18.5149 17.6755 19.1326 18.2004 19.6801C18.4663 19.9536 18.753 20.2059 19.058 20.4345C19.2019 20.5595 19.3696 20.6636 19.5149 20.7684C19.5977 20.8312 19.6811 20.8724 19.743 20.9129L19.8869 21.0169C19.9495 21.0588 19.9905 21.1 20.0531 21.1419C20.4492 21.4354 20.7991 21.7869 21.0913 22.1847C21.3861 22.5724 21.6239 23.0007 21.7972 23.4564C21.8635 23.6308 21.8595 23.8244 21.7858 23.9958C21.7122 24.1672 21.5748 24.303 21.4029 24.3741C21.2445 24.4376 21.0686 24.4408 20.908 24.3832C20.7475 24.3256 20.6133 24.2111 20.5309 24.0612L20.51 24.0403C20.3405 23.7228 20.1311 23.4284 19.8869 23.1645L19.5128 22.7895C19.3917 22.6726 19.2597 22.5678 19.1185 22.4766C19.0767 22.4556 19.0559 22.4347 19.0149 22.4137L18.8904 22.3509C18.7868 22.288 18.6824 22.2258 18.6026 22.163C18.4155 22.038 18.2083 21.913 18.0212 21.767C17.6469 21.4949 17.2992 21.1876 16.983 20.8493C16.3377 20.1825 15.8048 19.4147 15.4051 18.576C15.1996 18.1614 15.0327 17.7287 14.9065 17.2833C14.7788 16.8388 14.6826 16.3858 14.6187 15.9277C14.4974 15.0199 14.5114 14.0991 14.6604 13.1955C14.8164 12.3038 15.1181 11.4441 15.5533 10.6512C16.4144 9.1002 17.7729 7.88761 19.4077 7.21094Z" fill="#162D3D"/>
<path d="M25.2854 20.433C26.0881 20.433 26.7388 19.7795 26.7388 18.9733C26.7388 18.1672 26.0881 17.5137 25.2854 17.5137C24.4827 17.5137 23.832 18.1672 23.832 18.9733C23.832 19.7795 24.4827 20.433 25.2854 20.433Z" fill="#162D3D"/>
<path d="M18.1213 35.2586C17.9397 35.2562 17.7653 35.1869 17.6313 35.0638C17.4973 34.9407 17.4131 34.7724 17.3946 34.591C17.1247 31.5878 16.9585 29.5862 16.7506 28.2509C16.252 28.209 15.7951 28.1468 15.4217 28.0839C15.0897 28.0323 14.779 27.8874 14.5255 27.6659C14.272 27.4445 14.086 27.1555 13.9891 26.8324C13.8995 26.4868 13.9022 26.1236 13.9969 25.7795C14.0917 25.4353 14.2751 25.1222 14.5288 24.872C14.7433 24.66 15.0116 24.5111 15.3044 24.4412C15.5973 24.3714 15.9036 24.3835 16.1901 24.476C17.2492 24.8308 17.6852 25.6647 17.9551 26.8534C18.4947 26.8743 19.0343 26.8743 19.5128 26.8743C20.0114 26.8743 20.592 26.8743 21.1741 26.8324C21.5065 25.4349 22.0462 24.726 22.8355 24.476C23.122 24.3835 23.4283 24.3716 23.7211 24.4414C24.0139 24.5112 24.2822 24.6601 24.4968 24.872C24.7546 25.1194 24.9408 25.4323 25.0358 25.7774C25.1308 26.1226 25.131 26.4871 25.0364 26.8324C24.9361 27.1536 24.7491 27.4405 24.4962 27.6615C24.2434 27.8824 23.9345 28.0286 23.6039 28.0839C23.2715 28.1468 22.8563 28.209 22.3994 28.2509C22.1872 30.336 22.1178 32.4334 22.1915 34.5281C22.1901 34.7232 22.1138 34.9102 21.9784 35.0501C21.8429 35.19 21.6589 35.272 21.4648 35.2789H21.4439C21.3482 35.2798 21.2533 35.2616 21.1647 35.2253C21.0761 35.1889 20.9956 35.1352 20.9279 35.0673C20.8603 34.9993 20.8068 34.9185 20.7706 34.8295C20.7344 34.7405 20.7163 34.6452 20.7172 34.549C20.6554 32.4757 20.7179 30.4005 20.9043 28.3347C20.2395 28.3556 19.6998 28.3556 19.4926 28.3556C19.3056 28.3556 18.8077 28.3556 18.2054 28.3347C18.3925 29.6903 18.5587 31.5864 18.8285 34.4659C18.8436 34.6595 18.7823 34.8513 18.658 34.9999C18.5336 35.1486 18.3561 35.2423 18.1637 35.2608C18.163 35.2384 18.1421 35.2586 18.1213 35.2586ZM15.6915 25.8533C15.6385 25.8598 15.5885 25.8817 15.5476 25.9161C15.4832 25.981 15.4347 26.06 15.4059 26.1469C15.3771 26.2338 15.3687 26.3262 15.3814 26.4169C15.4023 26.4588 15.4231 26.5838 15.7138 26.6257C15.9396 26.6753 16.1684 26.71 16.3988 26.7298C16.1707 26 15.921 25.9161 15.7138 25.854L15.6915 25.8533ZM23.3333 25.8533H23.2931C23.1894 25.8952 22.9398 26.0621 22.7326 26.7081C22.9606 26.6872 23.1477 26.6452 23.3139 26.625C23.6017 26.5621 23.6255 26.4371 23.6463 26.4162C23.6641 26.3254 23.6581 26.2316 23.6289 26.1438C23.5998 26.056 23.5485 25.9774 23.4801 25.9154C23.4383 25.8807 23.3873 25.8591 23.3333 25.8533Z" fill="#162D3D"/>
<path d="M34.15 4.54263C34.1709 4.0953 34.0874 3.64925 33.906 3.24015C33.7246 2.83104 33.4504 2.47024 33.1054 2.18656C32.7603 1.90288 32.354 1.7042 31.9188 1.6064C31.4837 1.5086 31.0318 1.5144 30.5993 1.62333C29.3531 1.99836 30.6619 2.7701 31.8224 3.77162C33.1147 4.87648 34.0061 6.23135 34.15 4.54263Z" fill="#1DFAFF"/>
<path d="M3.40133 28.8574C3.3596 31.1307 4.70939 32.6735 6.99382 32.7154C8.48895 32.7363 7.65864 31.5057 6.22539 29.942C4.64464 28.2107 3.4409 26.772 3.40133 28.8574Z" fill="#1DFAFF"/>
<path d="M36.3116 26.3148C38.4089 25.6681 39.2184 22.7488 38.0765 21.4142C37.2851 20.4965 36.8102 21.9771 36.2058 23.6456C35.564 25.4802 34.9791 26.7318 36.3116 26.3148Z" fill="#1DFAFF"/>
<path d="M4.08297 5.06347C3.57887 5.00252 3.06807 5.09254 2.61476 5.32224C2.16145 5.55194 1.78584 5.91106 1.53513 6.35449C1.28443 6.79792 1.16979 7.30587 1.20565 7.81452C1.24151 8.32317 1.42625 8.80984 1.73666 9.21337C2.54682 10.3601 3.25266 9.04645 4.03908 7.6287C4.91328 6.08523 5.66084 5.14657 4.08297 5.06347Z" fill="#1DFAFF"/>
<path d="M27.1934 29.7341C27.2131 29.6818 27.241 29.633 27.2761 29.5895C27.297 29.5686 27.297 29.5476 27.3178 29.5267L27.3387 29.4848L27.3596 29.4638L27.3804 29.4429C27.5675 29.1928 27.7956 28.9219 28.0035 28.6711C28.2154 28.4128 28.4443 28.169 28.6885 27.9413L29.0418 27.5865L29.4361 27.2115C29.9912 26.6817 30.505 26.1098 30.9729 25.5011C31.9088 24.2804 32.6381 22.9133 33.1314 21.4545C33.6324 19.9976 33.8996 18.47 33.9229 16.9289C33.9666 13.8252 33.0126 10.7902 31.2025 8.27429C29.392 5.76058 26.8206 3.90232 23.8721 2.9769C20.9245 2.062 17.7654 2.09839 14.8395 3.08096C11.9206 4.08807 9.40637 6.02019 7.67538 8.58645C5.94589 11.1453 5.08004 14.1942 5.20531 17.2844V18.0561C5.19949 18.2875 5.17178 18.5179 5.12257 18.744C5.08868 18.94 5.02562 19.1298 4.9355 19.3069C4.87345 19.4325 4.78909 19.5457 4.68656 19.6408C4.66569 19.6408 4.66569 19.6617 4.64482 19.6617L4.58222 19.7036L4.45775 19.7665C4.38394 19.8059 4.30776 19.8406 4.22967 19.8706C4.0959 19.9144 3.95429 19.9287 3.81451 19.9125C3.6874 19.8917 3.56662 19.8423 3.46124 19.768C3.32344 19.6637 3.20403 19.5369 3.10796 19.3929C2.9721 19.1867 2.76076 19.0426 2.51979 18.9919C2.27882 18.9412 2.02765 18.9879 1.82077 19.122C1.71721 19.1879 1.62787 19.274 1.55801 19.3752C1.48815 19.4764 1.4392 19.5906 1.41404 19.7111C1.38889 19.8316 1.38805 19.956 1.41156 20.0768C1.43508 20.1977 1.48248 20.3125 1.55095 20.4147C1.76367 20.7434 2.03144 21.0326 2.34241 21.2695C2.68856 21.5308 3.09367 21.7021 3.52168 21.7681C3.94623 21.8288 4.37891 21.7932 4.78801 21.6641C4.97296 21.6004 5.15327 21.5238 5.32763 21.435C5.4149 21.3947 5.49824 21.3463 5.57658 21.2905L5.70105 21.2074C5.74743 21.179 5.78938 21.144 5.82553 21.1033C6.16831 20.8499 6.44078 20.5126 6.61699 20.1235C6.76856 19.7884 6.88689 19.4391 6.97026 19.0808C7.03215 18.75 7.07373 18.4158 7.09474 18.08V17.6002C7.0981 17.5163 7.09109 17.4323 7.07387 17.3501V17.1413C7.03207 15.8161 7.20038 14.4926 7.57248 13.2205C7.9398 11.9441 8.51609 10.7379 9.27771 9.65156C10.7827 7.44676 12.9533 5.78605 15.4695 4.91435C17.9857 4.04265 20.7142 4.00612 23.2526 4.81014C25.7892 5.61463 28.0017 7.21539 29.5649 9.37697C30.3389 10.4589 30.9413 11.6548 31.3507 12.9221C31.7509 14.1896 31.9471 15.5132 31.932 16.8429C31.9208 18.171 31.6963 19.4886 31.2672 20.7449C30.8317 22.0047 30.2003 23.1873 29.3965 24.2488C28.9926 24.7764 28.5483 25.2714 28.0676 25.7294L27.6733 26.1044C27.5294 26.2295 27.4035 26.3754 27.279 26.5004C27.0092 26.7714 26.7595 27.0424 26.5106 27.3343C26.2616 27.6262 26.0328 27.9182 25.8047 28.2311L25.7839 28.252L25.763 28.2939L25.7213 28.377C25.6795 28.4189 25.6587 28.4811 25.6177 28.5215C25.5499 28.6262 25.4942 28.7382 25.4515 28.8554C25.1207 29.5838 25.0836 30.4124 25.3478 31.1677C25.5478 31.6817 25.9038 32.1196 26.3652 32.4192C26.7904 32.6988 27.2734 32.8772 27.7776 32.941C28.0049 32.9684 28.2341 32.9755 28.4626 32.9619C28.5662 32.9619 28.6907 32.941 28.795 32.941C28.9195 32.92 29.0231 32.899 29.1483 32.8781C29.5967 32.7775 30.0248 32.6014 30.4146 32.3571C30.5957 32.251 30.7692 32.1324 30.9341 32.0023L30.9758 31.9604L31.1629 32.5023C31.3291 32.9821 31.4953 33.462 31.6615 33.9201C31.5788 33.983 31.5176 34.0451 31.4334 34.108L31.06 34.358L30.8729 34.462L30.7693 34.5249L30.6657 34.5668C30.1444 34.8444 29.5843 35.0412 29.0044 35.1507C27.8315 35.3683 26.6211 35.2452 25.5155 34.7959C25.2417 34.685 24.977 34.5526 24.724 34.3999C24.4721 34.2499 24.2357 34.0751 24.0182 33.8782C23.9146 33.7741 23.8103 33.6903 23.7067 33.5891C23.6537 33.5462 23.6055 33.4978 23.5627 33.4446C23.5163 33.3928 23.4747 33.337 23.4383 33.2777C23.274 33.0422 23.1215 32.7986 22.9814 32.5479C22.7104 31.9989 22.5148 31.4155 22.4 30.8136C22.3374 30.5007 22.2964 30.1879 22.2561 29.8742C22.2319 29.7154 22.218 29.5551 22.2144 29.3944C22.2171 29.3205 22.2094 29.2465 22.1914 29.1748V28.9247C22.1933 28.7653 22.1339 28.6113 22.0257 28.4948C21.9174 28.3782 21.7685 28.3081 21.61 28.299C21.5268 28.2918 21.443 28.3012 21.3634 28.3267C21.2838 28.3522 21.21 28.3932 21.1464 28.4475C21.0827 28.5018 21.0303 28.5682 20.9923 28.6429C20.9544 28.7177 20.9315 28.7992 20.9251 28.8828C20.9251 28.9869 20.9042 29.0707 20.9042 29.1719V29.9855C20.9181 30.3485 20.9527 30.7104 21.0078 31.0694C21.1112 31.8072 21.3065 32.5289 21.5892 33.2177C21.7474 33.5734 21.9349 33.9151 22.1496 34.2395C22.2004 34.3247 22.2634 34.4019 22.3367 34.4685C22.3939 34.549 22.4564 34.6255 22.5238 34.6976C22.6483 34.8421 22.7936 34.9866 22.9181 35.1145C23.1991 35.38 23.5051 35.6174 23.8318 35.8234C24.1523 36.0312 24.4851 36.2191 24.8284 36.3863C26.2261 37.0169 27.7797 37.2129 29.2893 36.9492C30.049 36.82 30.7844 36.5738 31.4694 36.2194L31.5939 36.1565L31.7183 36.0937C31.8056 36.0533 31.8889 36.005 31.9673 35.9491C32.1335 35.8451 32.2997 35.7403 32.445 35.6363C32.7616 35.4173 33.0602 35.1732 33.3379 34.9064C33.4667 34.7917 33.559 34.6414 33.6033 34.4744C33.6475 34.3073 33.6418 34.1309 33.5869 33.9671L33.566 33.9251C33.3379 33.2372 33.1091 32.5695 32.8811 31.8816L32.7148 31.3809L32.6321 31.1308L32.5904 31.0058L32.5695 30.943L32.5486 30.9011L32.5069 30.818C32.4191 30.609 32.2841 30.4235 32.1126 30.276C31.944 30.1255 31.746 30.0118 31.5313 29.9422C31.3156 29.879 31.09 29.8577 30.8664 29.8793C30.6428 29.9017 30.4285 29.9805 30.2434 30.1084C30.2225 30.1293 30.2016 30.1293 30.1808 30.1503L30.139 30.1922L30.0764 30.2341L29.9728 30.3172C29.9102 30.3591 29.8483 30.4213 29.7857 30.4617L29.4123 30.7117C29.1954 30.8483 28.9566 30.9461 28.7065 31.0008C28.6528 31.018 28.5965 31.0251 28.5403 31.0217C28.4777 31.0217 28.4158 31.0427 28.3323 31.0427C28.2075 31.0461 28.0826 31.0391 27.9589 31.0217C27.7526 30.994 27.5545 30.9229 27.3776 30.8129C27.241 30.7194 27.1332 30.5895 27.066 30.4379C27.0092 30.2701 26.9949 30.0908 27.0243 29.9162C27.1128 29.9429 27.1538 29.8388 27.1934 29.7341Z" fill="#162D3D"/>
<path d="M19.5117 44.167C18.2941 44.1666 17.1163 43.7312 16.189 42.9385L15.1716 42.0628C14.9428 41.8632 14.7595 41.6165 14.6341 41.3395C14.5087 41.0624 14.4442 40.7615 14.4449 40.4571V37.996C14.4472 36.0089 14.0388 34.0431 13.2455 32.2228C12.4523 30.4024 11.2915 28.7673 9.83652 27.4207C8.40849 26.1073 7.2584 24.5185 6.45485 22.7491C6.3977 22.6322 6.36446 22.505 6.35705 22.3749C6.34965 22.2449 6.36824 22.1147 6.41174 21.992C6.45524 21.8693 6.52277 21.7566 6.61033 21.6606C6.6979 21.5645 6.80372 21.487 6.92158 21.4327C7.03944 21.3784 7.16693 21.3483 7.29655 21.3442C7.42617 21.3402 7.55528 21.3622 7.67627 21.4091C7.79727 21.4559 7.9077 21.5267 8.00105 21.6171C8.09439 21.7075 8.16877 21.8157 8.21979 21.9355C8.91525 23.468 9.91093 24.8443 11.1475 25.982C12.8012 27.5105 14.1204 29.3676 15.0212 31.4354C15.9221 33.5033 16.385 35.7367 16.3804 37.9938V40.455C16.382 40.479 16.3884 40.5024 16.3991 40.5238C16.4099 40.5453 16.4248 40.5644 16.443 40.58L17.4604 41.4558C18.0298 41.9548 18.7603 42.2291 19.516 42.2275C20.2711 42.2255 21.0004 41.9517 21.5716 41.4558L22.589 40.58C22.6089 40.5659 22.6249 40.5471 22.6359 40.5253C22.6468 40.5035 22.6522 40.4794 22.6516 40.455V37.8897C22.6545 36.9952 22.7308 36.1024 22.8797 35.2205C22.9015 35.0945 22.9478 34.9741 23.016 34.8661C23.0842 34.7581 23.1728 34.6646 23.277 34.5911C23.3811 34.5175 23.4986 34.4652 23.6229 34.4373C23.7471 34.4093 23.8756 34.4062 24.001 34.4281C24.1265 34.45 24.2464 34.4966 24.3539 34.565C24.4614 34.6335 24.5545 34.7225 24.6278 34.8271C24.701 34.9317 24.753 35.0497 24.7809 35.1745C24.8087 35.2993 24.8118 35.4283 24.79 35.5543C24.665 36.3335 24.6024 37.1215 24.6029 37.9107V40.4759C24.6037 40.7803 24.5392 41.0812 24.4138 41.3583C24.2884 41.6353 24.105 41.882 23.8762 42.0816L22.8588 42.9573C21.9161 43.7374 20.7332 44.1649 19.5117 44.167Z" fill="#162D3D"/>
</svg>
