<svg width="329" height="54" viewBox="0 0 329 54" fill="none" xmlns="http://www.w3.org/2000/svg">
<path d="M114.328 14.872V40H109.288V29.308H98.524V40H93.484V14.872H98.524V25.204H109.288V14.872H114.328ZM128.145 40.324C126.225 40.324 124.497 39.904 122.961 39.064C121.425 38.2 120.213 36.988 119.325 35.428C118.461 33.868 118.029 32.068 118.029 30.028C118.029 27.988 118.473 26.188 119.361 24.628C120.273 23.068 121.509 21.868 123.069 21.028C124.629 20.164 126.369 19.732 128.289 19.732C130.209 19.732 131.949 20.164 133.509 21.028C135.069 21.868 136.293 23.068 137.181 24.628C138.093 26.188 138.549 27.988 138.549 30.028C138.549 32.068 138.081 33.868 137.145 35.428C136.233 36.988 134.985 38.2 133.401 39.064C131.841 39.904 130.089 40.324 128.145 40.324ZM128.145 35.932C129.057 35.932 129.909 35.716 130.701 35.284C131.517 34.828 132.165 34.156 132.645 33.268C133.125 32.38 133.365 31.3 133.365 30.028C133.365 28.132 132.861 26.68 131.853 25.672C130.869 24.64 129.657 24.124 128.217 24.124C126.777 24.124 125.565 24.64 124.581 25.672C123.621 26.68 123.141 28.132 123.141 30.028C123.141 31.924 123.609 33.388 124.545 34.42C125.505 35.428 126.705 35.932 128.145 35.932ZM169.894 20.056L164.062 40H158.626L154.99 26.068L151.354 40H145.882L140.014 20.056H145.126L148.654 35.248L152.47 20.056H157.798L161.542 35.212L165.07 20.056H169.894ZM208.847 20.056L203.015 40H197.579L193.943 26.068L190.307 40H184.835L178.967 20.056H184.079L187.607 35.248L191.423 20.056H196.751L200.495 35.212L204.023 20.056H208.847ZM230.114 29.596C230.114 30.316 230.066 30.964 229.97 31.54H215.39C215.51 32.98 216.014 34.108 216.902 34.924C217.79 35.74 218.882 36.148 220.178 36.148C222.05 36.148 223.382 35.344 224.174 33.736H229.61C229.034 35.656 227.93 37.24 226.298 38.488C224.666 39.712 222.662 40.324 220.286 40.324C218.366 40.324 216.638 39.904 215.102 39.064C213.59 38.2 212.402 36.988 211.538 35.428C210.698 33.868 210.278 32.068 210.278 30.028C210.278 27.964 210.698 26.152 211.538 24.592C212.378 23.032 213.554 21.832 215.066 20.992C216.578 20.152 218.318 19.732 220.286 19.732C222.182 19.732 223.874 20.14 225.362 20.956C226.874 21.772 228.038 22.936 228.854 24.448C229.694 25.936 230.114 27.652 230.114 29.596ZM224.894 28.156C224.87 26.86 224.402 25.828 223.49 25.06C222.578 24.268 221.462 23.872 220.142 23.872C218.894 23.872 217.838 24.256 216.974 25.024C216.134 25.768 215.618 26.812 215.426 28.156H224.894ZM270.019 20.056L264.187 40H258.751L255.115 26.068L251.479 40H246.007L240.139 20.056H245.251L248.779 35.248L252.595 20.056H257.923L261.667 35.212L265.195 20.056H270.019ZM281.602 40.324C279.682 40.324 277.954 39.904 276.418 39.064C274.882 38.2 273.67 36.988 272.782 35.428C271.918 33.868 271.486 32.068 271.486 30.028C271.486 27.988 271.93 26.188 272.818 24.628C273.73 23.068 274.966 21.868 276.526 21.028C278.086 20.164 279.826 19.732 281.746 19.732C283.666 19.732 285.406 20.164 286.966 21.028C288.526 21.868 289.75 23.068 290.638 24.628C291.55 26.188 292.006 27.988 292.006 30.028C292.006 32.068 291.538 33.868 290.602 35.428C289.69 36.988 288.442 38.2 286.858 39.064C285.298 39.904 283.546 40.324 281.602 40.324ZM281.602 35.932C282.514 35.932 283.366 35.716 284.158 35.284C284.974 34.828 285.622 34.156 286.102 33.268C286.582 32.38 286.822 31.3 286.822 30.028C286.822 28.132 286.318 26.68 285.31 25.672C284.326 24.64 283.114 24.124 281.674 24.124C280.234 24.124 279.022 24.64 278.038 25.672C277.078 26.68 276.598 28.132 276.598 30.028C276.598 31.924 277.066 33.388 278.002 34.42C278.962 35.428 280.162 35.932 281.602 35.932ZM300.743 23.152C301.391 22.096 302.231 21.268 303.263 20.668C304.319 20.068 305.519 19.768 306.863 19.768V25.06H305.531C303.947 25.06 302.747 25.432 301.931 26.176C301.139 26.92 300.743 28.216 300.743 30.064V40H295.703V20.056H300.743V23.152ZM322.065 40L315.297 31.504V40H310.257V13.36H315.297V28.516L321.993 20.056H328.545L319.761 30.064L328.617 40H322.065Z" fill="#12062E"/>
<path d="M68.0607 28.0607C68.6465 27.4749 68.6465 26.5251 68.0607 25.9393L58.5147 16.3934C57.9289 15.8076 56.9792 15.8076 56.3934 16.3934C55.8076 16.9792 55.8076 17.9289 56.3934 18.5147L64.8787 27L56.3934 35.4853C55.8076 36.0711 55.8076 37.0208 56.3934 37.6066C56.9792 38.1924 57.9289 38.1924 58.5147 37.6066L68.0607 28.0607ZM-80 28.5H67V25.5H-80V28.5Z" fill="#12062E"/>
</svg>
