<svg width="104" height="104" viewBox="0 0 104 104" fill="none" xmlns="http://www.w3.org/2000/svg">
<g clip-path="url(#clip0_576_38170)">
<g clip-path="url(#clip1_576_38170)">
<path d="M81.9809 23.1193L79.9371 45.8707L78.0009 68.0555C77.6244 72.3225 77.2479 76.6072 76.8535 80.8742C76.8079 81.5033 76.547 82.0984 76.1137 82.5617C75.6805 83.025 75.1005 83.329 74.4692 83.4238L59.643 87.3013C57.5992 87.8324 55.5913 88.4167 53.5476 88.8771C52.8698 89.0366 52.1636 89.0366 51.4859 88.8771C44.4941 87.1065 37.5202 85.2297 30.5463 83.4061C29.8434 83.3016 29.2048 82.9431 28.7544 82.4001C28.3039 81.857 28.0736 81.1682 28.1082 80.467C27.2596 70.9061 26.405 61.3511 25.5445 51.802L23.1781 24.7127C23.1243 24.0931 22.9988 23.4734 22.9988 22.8537C22.9455 22.5024 22.9632 22.1442 23.0508 21.7997C23.1384 21.4552 23.2942 21.1313 23.5092 20.8465C23.7242 20.5618 23.9941 20.3219 24.3035 20.1406C24.6128 19.9594 24.9554 19.8405 25.3115 19.7906L46.8247 15.0987C48.3127 14.7623 49.8903 14.3728 51.4859 14.0895C52.1451 13.9801 52.8187 13.9861 53.4758 14.1072C62.0991 15.8778 70.7043 17.8431 79.3096 19.7198C79.7231 19.7396 80.1273 19.8475 80.4946 20.0361C80.8618 20.2247 81.1834 20.4896 81.4372 20.8126C81.691 21.1356 81.8709 21.509 81.9648 21.9071C82.0586 22.3053 82.0641 22.7188 81.9809 23.1193ZM52.4898 60.3006C52.4898 60.1589 52.4898 60.0173 52.4898 59.8756C52.4898 45.912 52.4898 31.9424 52.4898 17.967C52.5054 17.7548 52.5054 17.5418 52.4898 17.3296L26.5843 23.0661C26.5741 23.2549 26.5741 23.444 26.5843 23.6327L27.2297 31.0513C27.6958 36.1858 28.15 41.3204 28.5922 46.4549C29.1659 52.7935 29.7217 59.1497 30.2774 65.4882C30.7196 70.1152 31.1379 74.7895 31.5324 79.5109C31.522 79.7091 31.5885 79.9037 31.7184 80.055C31.8484 80.2064 32.0319 80.3031 32.2315 80.3253L48.7609 84.6455L52.5257 85.637V84.7694C52.5257 80.3785 52.5257 75.9167 52.5257 71.5789C52.5257 69.348 52.5257 67.0994 52.5257 64.8508H57.0614V65.7538C57.0614 68.1972 57.0614 70.6228 57.0614 73.0661C57.0614 74.4472 57.8681 75.1554 59.3382 75.1731C60.8083 75.1908 61.5792 74.5003 61.5792 73.137C61.5792 66.5388 61.5792 59.9464 61.5792 53.36C61.6305 53.0595 61.6076 52.7513 61.5125 52.4613C61.4174 52.1714 61.253 51.9085 61.033 51.6947C60.8131 51.481 60.5442 51.3228 60.2491 51.2336C59.9541 51.1444 59.6416 51.1268 59.3382 51.1823C57.8143 51.1823 56.9897 51.9082 56.9717 53.36C56.9717 55.4139 56.9717 57.4677 56.9717 59.5215V60.4068L52.4898 60.3006ZM64.1249 31.7064V34.9996C64.1249 35.5661 64.3579 35.9911 65.0033 35.9911C65.9434 36.0244 66.8847 35.9829 67.818 35.8671C68.8198 35.7085 69.7315 35.2026 70.3897 34.4401C71.0479 33.6776 71.4094 32.7084 71.4094 31.7064C71.4094 30.7044 71.0479 29.7352 70.3897 28.9727C69.7315 28.2101 68.8198 27.7042 67.818 27.5456C66.9786 27.4568 66.1342 27.4213 65.2902 27.4394C64.4476 27.4394 64.1787 27.7227 64.1787 28.5902L64.1249 31.7064ZM54.6411 32.8926L54.8563 32.6625C55.1367 32.8243 55.3905 33.0273 55.6092 33.2644C56.0036 33.9195 56.3263 34.61 56.667 35.3006C57.0076 35.9911 57.4379 36.1681 57.904 35.8848C58.3701 35.6016 58.406 35.0881 58.155 34.5923C57.904 34.0966 57.4558 33.2467 57.1152 32.5739L57.3303 32.3969C57.8284 32.0929 58.2098 31.6338 58.4143 31.0919C58.6188 30.5501 58.6348 29.9565 58.4597 29.4047C58.2849 28.8276 57.9202 28.3245 57.4235 27.975C56.9267 27.6255 56.3262 27.4495 55.7168 27.4748H54.1212C53.2786 27.4748 52.9918 27.7758 52.9918 28.6256C52.9918 30.7503 52.9918 32.8749 52.9918 34.9996C52.9918 35.5661 53.1711 36.0088 53.8344 36.0088C54.4977 36.0088 54.6411 35.5661 54.6591 35.035L54.6411 32.8926ZM60.4856 34.3445C60.2469 34.3249 60.0071 34.3249 59.7685 34.3445C59.665 34.3419 59.5621 34.3605 59.4662 34.3989C59.3703 34.4374 59.2835 34.495 59.2112 34.5681C59.1388 34.6412 59.0825 34.7283 59.0458 34.8238C59.009 34.9194 58.9926 35.0214 58.9976 35.1235C58.9809 35.232 58.9894 35.3428 59.0223 35.4475C59.0552 35.5523 59.1118 35.6484 59.1877 35.7284C59.2636 35.8085 59.3569 35.8706 59.4606 35.9099C59.5643 35.9493 59.6757 35.9649 59.7864 35.9557C60.7903 35.9557 61.8122 35.9557 62.8162 35.9557C62.9201 35.9658 63.025 35.9539 63.1239 35.9208C63.2228 35.8878 63.3134 35.8343 63.3897 35.7639C63.466 35.6936 63.5263 35.608 63.5665 35.5128C63.6067 35.4176 63.626 35.3151 63.6229 35.212C63.644 35.1047 63.6409 34.9941 63.6137 34.8881C63.5866 34.7822 63.5362 34.6834 63.466 34.5989C63.3958 34.5143 63.3076 34.4461 63.2077 34.3991C63.1077 34.3521 62.9986 34.3274 62.8879 34.3268C62.6727 34.3268 62.4576 34.3268 62.2066 34.3268V29.1214C62.4755 29.1214 62.7624 29.1214 62.9237 29.1214C63.0851 29.1214 63.587 28.6256 63.587 28.36C63.587 28.0945 63.2106 27.5987 62.9775 27.581C61.8738 27.4925 60.7646 27.4925 59.6609 27.581C59.4278 27.581 59.0513 28.0768 59.0513 28.3423C59.0513 28.6079 59.4099 28.9266 59.6967 29.1214C59.9836 29.3161 60.1987 29.1214 60.4856 29.2099V34.3445Z" fill="white"/>
<path d="M52.5082 60.3719V64.816H47.9008V72.8011C47.953 73.2327 47.8743 73.6698 47.6747 74.0572C47.4751 74.4445 47.1636 74.7647 46.7796 74.977C46.3956 75.1894 45.9565 75.2844 45.5178 75.2501C45.0791 75.2157 44.6606 75.0536 44.3152 74.7841C44.0381 74.6509 43.8059 74.4412 43.6468 74.1804C43.4877 73.9196 43.4086 73.6188 43.4189 73.3146C43.4189 66.5688 43.4189 59.8231 43.4189 53.0596C43.4189 51.8202 44.2794 51.2891 45.6957 51.2891C47.112 51.2891 47.7574 51.9088 47.7932 53.0596C47.7932 55.1665 47.7932 57.2558 47.7932 59.3627V60.3719H52.5082Z" fill="white"/>
<path d="M50.9308 31.1043C51.4546 31.3854 51.8628 31.8378 52.0852 32.3839C52.3077 32.93 52.3306 33.5356 52.1499 34.0966C51.9519 34.6584 51.5686 35.1383 51.0615 35.4593C50.5544 35.7804 49.9528 35.924 49.3532 35.8671C48.7795 35.8671 48.1879 35.8671 47.5604 35.8671C47.4516 35.8867 47.3397 35.8811 47.2335 35.8509C47.1272 35.8207 47.0295 35.7666 46.9479 35.6929C46.8663 35.6191 46.8031 35.5278 46.7632 35.4259C46.7233 35.3241 46.7077 35.2145 46.7178 35.1058V28.2715C46.7125 28.1686 46.7293 28.0657 46.7673 27.9698C46.8053 27.8738 46.8635 27.7869 46.9381 27.7149C47.0128 27.6429 47.1021 27.5874 47.2001 27.5521C47.2981 27.5168 47.4026 27.5025 47.5066 27.5102C48.0322 27.4836 48.5588 27.4836 49.0843 27.5102C49.5143 27.4917 49.9406 27.596 50.3122 27.8105C50.6839 28.0251 50.985 28.3407 51.1798 28.7198C51.3746 29.0989 51.4547 29.5254 51.4105 29.9483C51.3664 30.3711 51.1998 30.7725 50.9308 31.1043Z" fill="white"/>
<path d="M38.022 30.6973V28.4311C38.022 27.8645 38.2371 27.4927 38.8646 27.5104C39.4921 27.5281 39.5817 27.953 39.5817 28.4488C39.5817 30.6442 39.5817 32.8397 39.5817 35.0352C39.5817 35.5663 39.4204 35.9204 38.8108 35.9027C38.2013 35.885 38.0041 35.5663 38.022 35.0352V32.3439H34.7771C34.7771 33.2115 34.7771 34.1145 34.7771 34.9112C34.7771 35.4601 34.7771 35.9204 33.9703 35.9027C33.1636 35.885 33.1995 35.4778 33.1995 34.9466C33.1995 32.7866 33.1995 30.6442 33.1995 28.5019C33.1995 27.9176 33.3608 27.4927 34.0421 27.5104C34.7233 27.5281 34.7771 28.0061 34.7592 28.5196V30.6973H38.022Z" fill="white"/>
<path d="M43.1849 30.7146C43.6869 29.7762 44.1351 28.9441 44.5474 28.1474C44.8163 27.6339 45.1749 27.3152 45.7486 27.6162C46.3223 27.9172 46.2505 28.3952 45.9458 28.891C45.7669 29.2525 45.5632 29.6015 45.3362 29.9356C44.7775 30.637 44.366 31.4414 44.1259 32.3018C43.8858 33.1621 43.8219 34.0612 43.9379 34.9462C43.9379 35.4774 43.9379 35.9023 43.167 35.9023C42.3961 35.9023 42.3065 35.4774 42.3782 34.9639C42.4947 34.0217 42.4183 33.066 42.1534 32.1535C41.8886 31.241 41.4407 30.3904 40.8364 29.6523C40.6231 29.3317 40.4373 28.9941 40.2806 28.6431C40.2229 28.5496 40.1863 28.445 40.1733 28.3362C40.1603 28.2275 40.1712 28.1173 40.2052 28.0131C40.2392 27.9089 40.2956 27.8132 40.3705 27.7325C40.4454 27.6517 40.537 27.5879 40.6392 27.5454C40.7309 27.4954 40.8323 27.4654 40.9367 27.4573C41.0411 27.4492 41.146 27.4632 41.2444 27.4984C41.3429 27.5336 41.4326 27.5892 41.5075 27.6614C41.5825 27.7337 41.6409 27.8208 41.679 27.9172C42.163 28.8379 42.7188 29.7231 43.1849 30.7146Z" fill="white"/>
<path d="M65.8279 29.1212C66.4402 28.9751 67.0816 29.0004 67.6801 29.1943C68.2787 29.3882 68.8106 29.743 69.2163 30.219C69.4977 30.6391 69.6477 31.1317 69.6477 31.6354C69.6477 32.1391 69.4977 32.6317 69.2163 33.0518C68.8332 33.5836 68.295 33.9871 67.6735 34.2086C67.052 34.4301 66.3768 34.4589 65.7383 34.2912L65.8279 29.1212Z" fill="white"/>
<path d="M54.6758 31.1216V29.0678C55.4287 29.0678 56.2534 28.7845 56.7554 29.5636C56.8351 29.7296 56.8765 29.911 56.8765 30.0947C56.8765 30.2784 56.8351 30.4599 56.7554 30.6259C56.2893 31.4226 55.4646 31.0508 54.6758 31.1216Z" fill="white"/>
</g>
</g>
<defs>
<clipPath id="clip0_576_38170">
<rect width="104" height="104" fill="white"/>
</clipPath>
<clipPath id="clip1_576_38170">
<rect width="59" height="75" fill="white" transform="translate(23 14)"/>
</clipPath>
</defs>
</svg>
