<svg width="20" height="20" viewBox="0 0 20 20" fill="none" xmlns="http://www.w3.org/2000/svg">
<path d="M13.3333 2.5C15.6345 2.5 17.5 4.36548 17.5 6.66667V13.3333C17.5 15.6345 15.6345 17.5 13.3333 17.5H6.66667C4.36548 17.5 2.5 15.6345 2.5 13.3333V6.66667C2.5 4.36548 4.36548 2.5 6.66667 2.5H13.3333ZM10 6.66667C8.15905 6.66667 6.66667 8.15905 6.66667 10C6.66667 11.8409 8.15905 13.3333 10 13.3333C11.8409 13.3333 13.3333 11.8409 13.3333 10C13.3333 8.15905 11.8409 6.66667 10 6.66667ZM10 8.33333C10.9205 8.33333 11.6667 9.0795 11.6667 10C11.6667 10.9205 10.9205 11.6667 10 11.6667C9.0795 11.6667 8.33333 10.9205 8.33333 10C8.33333 9.0795 9.0795 8.33333 10 8.33333ZM13.75 5.41667C13.2898 5.41667 12.9167 5.78977 12.9167 6.25C12.9167 6.71023 13.2898 7.08333 13.75 7.08333C14.2102 7.08333 14.5833 6.71023 14.5833 6.25C14.5833 5.78977 14.2102 5.41667 13.75 5.41667Z" fill="white"/>
</svg>
