<svg width="104" height="104" viewBox="0 0 104 104" fill="none" xmlns="http://www.w3.org/2000/svg">
<g clip-path="url(#clip0_576_38163)">
<path d="M66.9616 21.0113C66.229 23.2596 65.0437 25.3434 63.6151 27.0765V27.0796C62.1737 28.8226 60.2482 30.3637 58.1063 31.3855C56.1404 32.3233 53.9854 32.8283 51.841 32.6611L51.1847 32.61L51.0983 31.9565C50.8197 29.8491 51.1414 27.7158 51.819 25.7415C52.6075 23.4441 53.8846 21.3479 55.2551 19.7595L55.2548 19.7593C56.673 18.098 58.5749 16.6526 60.6116 15.6053C62.6552 14.5544 64.8501 13.8973 66.8477 13.8159L67.6028 13.7852L67.6856 14.5396C67.9275 16.7459 67.6333 18.9498 66.9616 21.0113Z" fill="white"/>
<path d="M80.8463 40.8318C80.1224 41.2797 73.1253 45.6094 73.212 54.3364C73.3035 64.8574 82.2244 68.5046 82.7168 68.7058H82.72L82.7413 68.7146L83.4412 69.0044L83.2015 69.7207C83.1872 69.7632 83.2034 69.718 83.1826 69.7846C82.955 70.5139 81.412 75.4573 77.9262 80.551C76.3445 82.8614 74.7329 85.1684 72.8302 86.9479C70.8601 88.7904 68.6102 90.0341 65.8307 90.0857C63.2109 90.1349 61.4958 89.3928 59.7129 88.6214C58.0128 87.8857 56.2448 87.1207 53.478 87.1207C50.5716 87.1207 48.7137 87.9121 46.9242 88.6746C45.2396 89.3922 43.6104 90.0863 41.2634 90.1799H41.2602C38.55 90.2805 36.1999 88.9594 34.1113 87.0026C32.1131 85.1306 30.3624 82.6791 28.767 80.3717C25.1658 75.1717 22.0338 67.6057 21.0662 59.9123C20.2703 53.5841 20.9356 47.1557 23.9951 41.8467C25.703 38.8762 28.09 36.4521 30.8809 34.7605C33.659 33.0768 36.8375 32.1186 40.146 32.069V32.0689C43.0426 32.0164 45.7737 33.1002 48.1635 34.0486C49.8548 34.7198 51.3617 35.3178 52.4914 35.3178C53.4894 35.3178 54.9606 34.7378 56.6755 34.0616C59.5719 32.9197 63.1153 31.5228 66.8622 31.8954C68.4357 31.9638 71.7131 32.3407 75.0634 34.1564C77.1977 35.3131 79.3624 37.0496 81.142 39.654L81.6112 40.3408L80.9103 40.7934C80.8728 40.8176 80.9092 40.793 80.8463 40.8318Z" fill="white"/>
</g>
<defs>
<clipPath id="clip0_576_38163">
<rect width="104" height="104" fill="white"/>
</clipPath>
</defs>
</svg>
