<svg width="255" height="40" viewBox="0 0 255 40" fill="none" xmlns="http://www.w3.org/2000/svg">
<g clip-path="url(#clip0_498_40978)">
<path d="M99.8082 29.3864H94.1906L96.1085 18.5581L89.9216 24.8304H89.4762L85.5166 18.5581L83.5988 29.4063H78.1445L81.2527 11.8323L81.4532 10.7031H86.5585L91.0427 17.7199L98.0362 10.7031H103.129L102.956 11.6893L99.8082 29.3864Z" fill="#0052CC"/>
<path d="M117.906 22.5006C117.684 23.8225 117.157 25.0751 116.366 26.1593C115.554 27.2508 114.481 28.122 113.243 28.6937C111.831 29.3392 110.29 29.6579 108.737 29.6259C107.029 29.6259 105.638 29.3151 104.562 28.6937C103.539 28.1419 102.749 27.2426 102.335 26.1593C101.923 24.9842 101.837 23.7201 102.088 22.5006C102.253 21.5117 102.588 20.5587 103.077 19.6825C103.567 18.823 104.211 18.0607 104.978 17.434C105.793 16.7677 106.725 16.2578 107.727 15.9301C108.86 15.567 110.044 15.3896 111.234 15.4049C112.375 15.3781 113.512 15.5594 114.587 15.94C115.44 16.2357 116.202 16.7451 116.8 17.4192C117.345 18.0637 117.718 18.8344 117.886 19.6603C118.077 20.5969 118.083 21.5614 117.906 22.5006ZM112.773 22.5006C112.966 21.4141 112.884 20.5619 112.526 19.9439C112.168 19.3259 111.533 19.0185 110.623 19.0218C110.209 19.0104 109.798 19.0867 109.416 19.2456C109.034 19.4046 108.69 19.6426 108.408 19.9439C107.774 20.6631 107.366 21.5522 107.235 22.5006C107.044 23.5804 107.132 24.4351 107.5 25.0646C107.868 25.6941 108.494 26.0089 109.378 26.0089C109.795 26.0202 110.209 25.9425 110.594 25.7809C110.978 25.6194 111.323 25.3775 111.605 25.0719C112.236 24.3457 112.642 23.4523 112.773 22.5006Z" fill="#0052CC"/>
<path d="M128.572 28.5913C127.856 28.8873 127.115 29.1216 126.358 29.2914C125.503 29.5067 124.626 29.62 123.744 29.6293C120.234 29.6293 118.78 27.9199 119.384 24.5011L120.354 19.0252H118.146L118.297 18.1747L118.743 15.65H120.958L121.685 11.5352H126.575L125.838 15.65H130.498L129.901 19.0252H125.241L124.465 23.4213C124.383 23.8272 124.341 24.2399 124.341 24.654C124.342 24.8066 124.378 24.957 124.446 25.0938C124.514 25.2305 124.613 25.3499 124.734 25.4429C124.982 25.655 125.417 25.7585 126.011 25.7585C126.788 25.7585 127.867 25.438 129.246 24.7895L128.572 28.5913Z" fill="#0052CC"/>
<path d="M137.396 10.4297H132.506L131.783 14.5174H136.671L137.396 10.4297Z" fill="#0052CC"/>
<path d="M134.038 29.3879H129.15L131.581 15.6504H136.471L134.038 29.3879Z" fill="#0052CC"/>
<path d="M152.173 22.5005C151.952 23.8224 151.425 25.075 150.634 26.1594C149.822 27.2507 148.748 28.1221 147.511 28.6938C146.099 29.3395 144.558 29.658 143.005 29.6258C141.297 29.6258 139.905 29.3152 138.83 28.6938C137.807 28.142 137.016 27.2425 136.603 26.1594C136.19 24.9843 136.105 23.72 136.355 22.5005C136.521 21.5118 136.856 20.5587 137.345 19.6825C137.842 18.8209 138.494 18.0585 139.27 17.434C140.086 16.7677 141.019 16.2578 142.022 15.9301C143.154 15.5667 144.337 15.3894 145.526 15.4049C146.668 15.3781 147.804 15.5594 148.88 15.9399C149.737 16.2344 150.504 16.7438 151.107 17.4192C151.65 18.0649 152.023 18.8351 152.193 19.6603C152.372 20.5993 152.366 21.5642 152.173 22.5005ZM147.041 22.5005C147.234 21.414 147.151 20.5619 146.793 19.9439C146.435 19.3258 145.802 19.0185 144.893 19.0218C144.477 19.0087 144.063 19.0842 143.679 19.2432C143.295 19.4023 142.95 19.6411 142.666 19.9439C142.033 20.6637 141.627 21.5527 141.497 22.5005C141.308 23.5805 141.396 24.4352 141.762 25.0647C142.129 25.6942 142.755 26.009 143.641 26.009C144.058 26.0205 144.472 25.943 144.856 25.7814C145.241 25.6197 145.585 25.3778 145.868 25.072C146.502 24.3472 146.91 23.4534 147.041 22.5005Z" fill="#0052CC"/>
<path d="M166.545 29.3851H161.67L162.979 21.9887C163.114 21.3371 163.106 20.6645 162.957 20.0162C162.808 19.4566 162.313 19.1731 161.472 19.1731C161.097 19.1686 160.726 19.2443 160.383 19.3949C160.054 19.5445 159.747 19.7377 159.47 19.9694C159.215 20.1793 158.974 20.4049 158.747 20.6449C158.547 20.8594 158.339 21.0888 158.126 21.3327L156.696 29.4023H151.82L154.25 15.6647H159.128L158.779 17.6371C159.541 16.9124 160.426 16.3281 161.393 15.9112C162.241 15.5792 163.146 15.4118 164.058 15.4181C167.357 15.4181 168.661 17.3905 167.968 21.3352L166.545 29.3851Z" fill="#0052CC"/>
<path d="M179.297 25.3761C179.193 25.9889 178.969 26.5751 178.637 27.1014C178.305 27.6276 177.873 28.0835 177.364 28.4431C176.3 29.2322 174.856 29.6266 173.031 29.6266C172.132 29.6392 171.235 29.5457 170.358 29.3481C169.521 29.1411 168.699 28.8775 167.898 28.5592L168.51 25.1074C169.131 25.5114 169.783 25.8666 170.46 26.17C171.07 26.4228 171.727 26.547 172.388 26.5349C173.608 26.5349 174.276 26.2046 174.392 25.5487C174.413 25.4433 174.41 25.3349 174.382 25.231C174.355 25.1271 174.304 25.031 174.234 24.9495C173.999 24.7066 173.723 24.5062 173.42 24.3579C173.019 24.1361 172.482 23.8649 171.804 23.569C171.013 23.2042 170.321 22.6574 169.784 21.9738C169.527 21.6281 169.347 21.231 169.258 20.8097C169.169 20.3884 169.172 19.9529 169.267 19.533C169.414 18.7993 169.756 18.1183 170.257 17.5606C170.851 16.8808 171.596 16.3482 172.432 16.0049C173.439 15.5886 174.522 15.3846 175.612 15.4058C175.904 15.4058 176.266 15.4255 176.706 15.465C177.259 15.5285 177.807 15.6348 178.344 15.783C178.978 15.9515 179.588 16.2001 180.158 16.5227L179.564 19.8831C179.317 19.7105 179.087 19.5675 178.913 19.4492C178.684 19.2996 178.444 19.1661 178.196 19.0497C177.849 18.8897 177.489 18.761 177.119 18.6651C176.689 18.5523 176.245 18.4959 175.8 18.4975C175.241 18.4975 174.84 18.606 174.593 18.8205C174.381 18.9821 174.231 19.2095 174.165 19.4664C174.146 19.5805 174.156 19.6974 174.193 19.8068C174.23 19.9163 174.293 20.0153 174.377 20.0951C174.56 20.2874 175.001 20.529 175.701 20.815C176.543 21.1386 177.341 21.5679 178.074 22.0921C178.587 22.4482 178.981 22.9476 179.208 23.5271C179.397 24.1256 179.427 24.7623 179.297 25.3761Z" fill="#0052CC"/>
<path d="M197.425 27.9809C196.603 28.3765 195.747 28.7013 194.869 28.9524C194.033 29.1918 193.18 29.3656 192.318 29.4726C191.457 29.5771 190.591 29.6291 189.724 29.6278C188.271 29.6567 186.823 29.4278 185.45 28.9524C184.295 28.5442 183.258 27.8613 182.429 26.9627C181.636 26.0948 181.086 25.0345 180.835 23.8883C180.567 22.6136 180.558 21.2984 180.808 20.0199C181.05 18.5195 181.591 17.0822 182.397 15.7917C183.147 14.6057 184.127 13.5806 185.279 12.7764C186.421 11.9783 187.689 11.3781 189.031 11.0012C190.386 10.6175 191.788 10.4225 193.196 10.4219C195.328 10.4219 197.66 10.8936 200.192 11.8371L199.311 16.8025C198.523 16.2495 197.686 15.7685 196.812 15.3651C195.831 14.9584 194.775 14.7651 193.713 14.7981C192.622 14.7984 191.542 15.019 190.538 15.4465C189.539 15.8606 188.645 16.4924 187.922 17.2956C187.21 18.0828 186.737 19.056 186.559 20.1013C186.385 20.9775 186.489 21.8858 186.858 22.6998C187.235 23.4967 187.856 24.153 188.633 24.5738C189.527 25.0565 190.533 25.2963 191.55 25.2688C192.443 25.272 193.332 25.161 194.196 24.9386C194.942 24.7516 195.671 24.5042 196.376 24.1989C196.98 23.9277 197.608 23.6087 198.259 23.2423L197.425 27.9809Z" fill="#0052CC"/>
<path d="M203.644 29.3885H198.754L202.063 10.6855H206.953L203.644 29.3885Z" fill="#0052CC"/>
<path d="M221.383 22.5006C221.161 23.8223 220.633 25.0747 219.843 26.1593C219.031 27.2498 217.961 28.121 216.727 28.6937C215.314 29.3394 213.773 29.6581 212.22 29.6259C210.513 29.6259 209.12 29.3151 208.045 28.6937C207.021 28.1429 206.23 27.2433 205.818 26.1593C205.411 24.9827 205.332 23.7182 205.59 22.5006C205.757 21.5122 206.092 20.5591 206.58 19.6825C207.071 18.8234 207.716 18.0613 208.483 17.434C209.298 16.7682 210.231 16.2584 211.232 15.9301C212.365 15.5668 213.548 15.3894 214.738 15.4049C215.88 15.3781 217.017 15.5594 218.091 15.94C218.945 16.2349 219.708 16.7445 220.305 17.4192C220.849 18.0641 221.224 18.8345 221.394 19.6604C221.573 20.599 221.568 21.5631 221.383 22.5006ZM216.248 22.5006C216.441 21.4141 216.359 20.5619 216.002 19.9439C215.634 19.33 215.012 19.0218 214.101 19.0218C213.685 19.0087 213.271 19.0842 212.886 19.2433C212.504 19.4023 212.157 19.6411 211.873 19.9439C211.242 20.6643 210.839 21.5532 210.71 22.5006C210.519 23.5804 210.607 24.4351 210.975 25.0646C211.343 25.6942 211.97 26.0089 212.853 26.0089C213.271 26.0211 213.685 25.9438 214.07 25.7821C214.452 25.6204 214.799 25.3783 215.081 25.072C215.714 24.3465 216.119 23.4529 216.248 22.5006Z" fill="#0052CC"/>
<path d="M235.551 29.3879H230.676L231.021 27.4305C230.294 28.1069 229.465 28.6646 228.564 29.0822C227.672 29.461 226.712 29.6474 225.742 29.6296C223.663 29.6296 222.425 29.0248 222.03 27.815C221.626 26.4872 221.559 25.0801 221.834 23.7199L223.266 15.6504H228.141L226.823 23.0715C226.686 23.7228 226.697 24.3963 226.85 25.0439C227 25.6076 227.494 25.8895 228.337 25.8895C228.99 25.9096 229.632 25.6933 230.14 25.2805C230.697 24.8064 231.217 24.2876 231.692 23.7297L233.119 15.6603H237.994L235.551 29.3879Z" fill="#0052CC"/>
<path d="M251.6 29.386H246.712L246.931 28.1534C246.363 28.5707 245.754 28.9276 245.113 29.2185C244.333 29.5259 243.498 29.6685 242.659 29.6376C241.671 29.6422 240.698 29.3871 239.838 28.8979C238.934 28.3726 238.236 27.5561 237.858 26.5829C237.423 25.5358 237.345 24.216 237.627 22.6233C237.847 21.38 238.297 20.1879 238.953 19.1075C239.615 18.0159 240.536 17.1019 241.633 16.4448C242.8 15.7492 244.139 15.3938 245.497 15.4192C246.223 15.3928 246.948 15.4929 247.64 15.715C248.129 15.8933 248.586 16.1489 248.995 16.4719L250.017 10.6953H254.905L251.6 29.386ZM247.486 25.0122L248.403 19.7658C248.012 19.5173 247.606 19.2917 247.188 19.0902C246.843 18.9453 246.469 18.8763 246.094 18.8881C245.697 18.8958 245.306 18.9862 244.947 19.1535C244.587 19.3208 244.268 19.5613 244.005 19.8595C243.336 20.5971 242.905 21.518 242.769 22.5025C242.552 23.7188 242.664 24.603 243.105 25.1552C243.307 25.4208 243.57 25.6346 243.87 25.7787C244.171 25.9228 244.503 25.9929 244.837 25.9837C245.346 26.0022 245.855 25.9079 246.321 25.7075C246.731 25.5129 247.12 25.2801 247.486 25.0122Z" fill="#0052CC"/>
<path d="M65.3741 14.8395C64.1666 12.0831 61.8403 10.1551 58.7965 9.38095C58.5144 9.30945 58.2247 9.26015 57.8534 9.1985L57.5293 9.1492C57.3289 9.12455 57.1261 9.1073 56.9205 9.09249C56.7151 9.0777 56.4899 9.06537 56.2721 9.06045C56.0544 9.05551 55.8614 9.06045 55.6486 9.06045H55.2822C55.0819 9.07276 54.874 9.09249 54.7033 9.10975C52.9016 3.60929 47.826 0.0664062 41.6566 0.0664062C36.967 0.0664062 32.114 2.20891 28.5728 5.81096C27.2063 5.06971 25.674 4.68468 24.1182 4.69163C19.6638 4.69163 15.3726 7.59842 13.5611 11.7971C13.3137 11.7799 13.0909 11.7725 12.8484 11.7725H12.7172C6.89178 11.8489 1.4771 16.4297 0.373378 22.2555L0.351107 22.3542C-0.369036 26.4273 1.35584 30.2166 4.74867 32.0065C6.13071 32.728 7.67021 33.0981 9.23038 33.084H43.906L42.6686 39.9996L58.6355 31.2547C59.9578 30.5073 61.1619 29.5693 62.209 28.471C65.9657 24.551 67.2327 19.0776 65.3741 14.8395ZM56.8414 12.2754L56.8908 12.734C57.0863 12.7685 57.2917 12.803 57.5095 12.8548C58.4999 13.0851 59.423 13.5421 60.2052 14.1896C60.9872 14.8371 61.6074 15.6572 62.0161 16.5851C63.3226 19.5708 62.4218 23.3774 59.7887 26.1609L46.71 17.2852L44.5371 29.5041H9.70304C8.68038 29.5125 7.67139 29.2696 6.76556 28.7965C4.55316 27.6304 3.45935 25.2413 3.90231 22.591C3.91717 22.5293 3.92953 22.4702 3.94192 22.4084C4.6868 18.4958 8.3568 15.3942 12.2792 15.3523H12.4302C12.64 15.35 12.8498 15.3582 13.0588 15.377L15.7315 15.6433L16.7783 13.0052C17.8869 10.2143 20.7056 8.26162 23.6307 8.26162C24.7142 8.25542 25.7783 8.54627 26.7069 9.10235L28.8473 10.3992L30.8272 8.30355C33.5988 5.38196 37.457 3.63641 41.1813 3.63641C46.0417 3.63641 50.0235 6.47909 51.3277 10.8775L51.9636 13.02L54.3394 12.7069C54.4409 12.6945 54.7676 12.6551 55.0325 12.6378H55.5273H55.7378C55.8935 12.6378 56.047 12.6378 56.2326 12.665C56.3638 12.665 56.495 12.6822 56.636 12.7019L56.7819 12.7241L56.8513 12.2828L56.8414 12.2754ZM56.5271 28.5475L47.4201 33.5402L47.5687 32.697L49.1895 23.5649L56.5271 28.5475Z" fill="#0052CC"/>
</g>
<defs>
<clipPath id="clip0_498_40978">
<rect width="255" height="40" fill="white"/>
</clipPath>
</defs>
</svg>
