<svg width="214" height="60" viewBox="0 0 214 60" fill="none" xmlns="http://www.w3.org/2000/svg">
<g clip-path="url(#clip0_498_41010)">
<mask id="mask0_498_41010" style="mask-type:luminance" maskUnits="userSpaceOnUse" x="0" y="0" width="174" height="48">
<path d="M174 0H0V48H174V0Z" fill="white"/>
</mask>
<g mask="url(#mask0_498_41010)">
<path d="M40.9086 41.9748C39.2084 41.9748 37.8715 41.501 36.898 40.5533C35.9793 39.6754 35.4652 38.6651 35.3555 37.5223L37.6384 36.8953C37.803 37.8011 38.1732 38.5118 38.7491 39.0274C39.3387 39.557 40.0723 39.8217 40.9498 39.8217C41.6902 39.8217 42.3348 39.6197 42.8831 39.2156C43.4043 38.8114 43.6647 38.3028 43.6647 37.6896C43.6647 37.1043 43.466 36.6236 43.0682 36.2472C42.6704 35.871 42.1291 35.6062 41.4434 35.453L39.5924 35.0767C38.3995 34.8258 37.474 34.3242 36.8157 33.5716C36.1439 32.8331 35.808 31.9551 35.808 30.9378C35.7805 29.7115 36.2673 28.6315 37.2682 27.6978C38.2691 26.7641 39.4278 26.3112 40.7442 26.3391C42.6363 26.353 44.0213 26.9314 44.8987 28.0741C45.3924 28.6594 45.7144 29.3352 45.8654 30.1017L43.6647 30.7915C43.5137 30.1923 43.1846 29.6627 42.6775 29.2028C42.1703 28.743 41.5462 28.5131 40.8058 28.5131C40.0654 28.5131 39.4552 28.7291 38.9753 29.1611C38.468 29.593 38.2144 30.1087 38.2144 30.7079C38.2144 31.1677 38.3857 31.5928 38.7285 31.983C39.085 32.3592 39.5444 32.6101 40.1066 32.7355L41.9987 33.1117C43.3151 33.3765 44.3228 33.8922 45.0222 34.6586C45.735 35.4251 46.0917 36.3797 46.0917 37.5223C46.0917 38.6791 45.6462 39.6963 44.7548 40.5743C43.7951 41.5079 42.5129 41.9748 40.9086 41.9748Z" fill="#293345"/>
<path d="M58.9346 38.7759H58.9552L61.1148 31.418H63.4594L60.1687 41.8069H57.824L55.4587 34.5117H55.4176L53.0318 41.8069H50.7077L47.4375 31.418H49.8027L51.9623 38.7551H51.9829L54.3069 31.418H56.59L58.9346 38.7759Z" fill="#293345"/>
<path d="M66.5307 29.5786C66.133 29.5786 65.7833 29.4254 65.4818 29.1187C65.1803 28.8122 65.0293 28.4568 65.0293 28.0527C65.0293 27.6346 65.1803 27.2723 65.4818 26.9657C65.7697 26.6591 66.1194 26.5059 66.5307 26.5059C66.9556 26.5059 67.3123 26.6591 67.6002 26.9657C67.8882 27.2584 68.0321 27.6207 68.0321 28.0527C68.0321 28.4707 67.8882 28.8261 67.6002 29.1187C67.2987 29.4254 66.9421 29.5786 66.5307 29.5786ZM65.3995 41.8071V31.4181H67.6825V41.8071H65.3995Z" fill="#293345"/>
<path d="M73.9723 33.466V41.8065H71.6688V33.466H69.7148V31.4175H71.6688V30.2051C71.6688 28.6862 72.0459 27.5783 72.7999 26.8815C73.5133 26.2405 74.3976 25.9199 75.4531 25.9199C76.0291 25.9199 76.4544 25.9757 76.7284 26.0872V28.0521C76.509 27.9964 76.2347 27.9685 75.9056 27.9685C75.3297 27.9685 74.8501 28.1636 74.466 28.5538C74.1368 28.9161 73.9723 29.4596 73.9723 30.1843V31.4175H76.6461V33.466H73.9723Z" fill="#293345"/>
<path d="M84.316 31.4183V33.5087H81.7242V38.4628C81.7242 38.9227 81.8476 39.2641 82.0944 39.487C82.3413 39.6961 82.7386 39.8006 83.2878 39.8006C83.5612 39.8006 83.8694 39.7727 84.2133 39.7169V41.7028C83.7054 41.842 83.1643 41.9118 82.588 41.9118C81.5321 41.9118 80.7436 41.6609 80.2228 41.1593C79.7016 40.6576 79.4413 39.8006 79.4413 38.5882V33.5087H77.4668V31.4183H79.4413V28.1992H81.7242V31.4183H84.316Z" fill="#293345"/>
<path d="M100.388 30.9784L98.0848 31.71C97.8926 30.9714 97.4535 30.2886 96.7682 29.6615C95.9869 28.9369 94.9653 28.5745 93.7042 28.5745C92.7439 28.5745 91.8664 28.8115 91.071 29.2853C90.2896 29.7869 89.6724 30.4629 89.22 31.3129C88.7676 32.1769 88.5414 33.1315 88.5414 34.1766C88.514 35.7235 88.9938 37.0474 89.9814 38.1482C90.9823 39.2491 92.2161 39.7926 93.6835 39.7787C94.9313 39.7787 95.9455 39.4582 96.7276 38.8171C97.509 38.1622 97.9821 37.34 98.1462 36.3506H92.7787V34.1766H100.696V35.0128C100.696 36.9498 100.08 38.5872 98.8455 39.925C97.5844 41.2907 95.8701 41.9736 93.7042 41.9736C92.2227 41.9736 90.9069 41.6391 89.7552 40.9702C88.5753 40.2734 87.6705 39.3467 87.04 38.1901C86.4094 37.0056 86.0938 35.6816 86.0938 34.2185C86.0938 33.1175 86.2926 32.0654 86.6903 31.062C87.0607 30.1005 87.5885 29.2714 88.2746 28.5745C89.7411 27.0834 91.5582 26.3379 93.7249 26.3379C95.4384 26.3379 96.8851 26.7908 98.0641 27.6966C99.2432 28.5885 100.018 29.6824 100.388 30.9784Z" fill="#293345"/>
<path d="M108.614 31.3758V33.7588C108.436 33.717 108.223 33.6961 107.976 33.6961C107.113 33.6961 106.447 33.94 105.981 34.4277C105.528 34.9155 105.302 35.6122 105.302 36.518V41.8066H103.02V31.4176H105.262V33.0272C105.549 32.4837 105.94 32.0656 106.433 31.773C106.941 31.4803 107.482 31.334 108.058 31.334C108.21 31.334 108.394 31.348 108.614 31.3758Z" fill="#293345"/>
<path d="M118.254 41.807H116.033C115.964 41.4865 115.93 41.0126 115.93 40.3855C115.587 40.9569 115.148 41.368 114.614 41.6188C114.065 41.8697 113.503 41.9951 112.927 41.9951C111.927 41.9951 111.104 41.7025 110.459 41.1171C109.815 40.5457 109.492 39.8141 109.492 38.9223V38.8177C109.506 37.4939 110.164 36.5741 111.467 36.0585C112.166 35.7798 112.921 35.6405 113.73 35.6405H115.005C115.635 35.6405 115.95 35.3479 115.95 34.7625C115.95 34.3166 115.779 33.9404 115.436 33.6337C115.066 33.3272 114.566 33.1739 113.935 33.1739C113.332 33.1739 112.831 33.3341 112.434 33.6546C112.036 33.9612 111.796 34.3793 111.714 34.9089L109.636 34.4281C109.705 33.9404 109.938 33.4177 110.336 32.8604C110.761 32.303 111.296 31.8849 111.94 31.6061C112.502 31.3414 113.194 31.209 114.017 31.209C115.937 31.209 117.212 31.9197 117.843 33.3411C118.076 33.8567 118.192 34.4699 118.192 35.1806V40.1347C118.192 40.8315 118.213 41.3889 118.254 41.807ZM115.93 37.6054V37.271H113.73C113.25 37.271 112.804 37.3964 112.392 37.6472C111.981 37.912 111.775 38.2673 111.775 38.7132C111.775 39.1452 111.927 39.4937 112.228 39.7585C112.53 40.0092 112.921 40.1347 113.4 40.1347C114.182 40.1347 114.798 39.9047 115.251 39.4449C115.704 38.985 115.93 38.3718 115.93 37.6054Z" fill="#293345"/>
<path d="M120.418 36.6007C120.418 35.235 120.864 34.0087 121.754 32.9217C122.715 31.779 123.969 31.2077 125.519 31.2077C126.067 31.2077 126.664 31.3539 127.308 31.6467C127.98 31.9253 128.487 32.3434 128.83 32.9008V25.9609H131.113V41.8057H128.871V40.1752C128.624 40.5933 128.274 40.9486 127.822 41.2413C127.356 41.506 126.924 41.6942 126.526 41.8057C126.115 41.9172 125.759 41.9729 125.457 41.9729C124.511 41.9729 123.647 41.715 122.866 41.1994C122.097 40.7117 121.494 40.0498 121.055 39.2137C120.631 38.3775 120.418 37.5065 120.418 36.6007ZM128.85 36.6007C128.85 35.667 128.569 34.8867 128.007 34.2595C127.431 33.6324 126.691 33.3189 125.786 33.3189C124.895 33.3189 124.161 33.6324 123.586 34.2595C123.01 34.9145 122.721 35.6949 122.721 36.6007C122.721 37.5065 123.01 38.2799 123.586 38.921C124.161 39.5481 124.895 39.8617 125.786 39.8617C126.691 39.8617 127.431 39.5481 128.007 38.921C128.569 38.2939 128.85 37.5204 128.85 36.6007Z" fill="#293345"/>
<path d="M143.572 37.2918H135.798C135.812 38.0444 136.127 38.6924 136.744 39.2358C137.361 39.7654 138.047 40.0232 138.801 40.0092C140.227 40.0092 141.131 39.424 141.516 38.2534L143.429 38.8596C143.25 39.4867 142.921 40.0441 142.441 40.5318C141.975 41.0196 141.426 41.3889 140.796 41.6397C140.138 41.8768 139.48 41.9951 138.821 41.9951C137.341 42.023 136.072 41.5073 135.016 40.4482C133.961 39.3891 133.446 38.1071 133.474 36.602C133.474 35.6266 133.693 34.7277 134.132 33.9055C134.585 33.0555 135.201 32.4005 135.983 31.9406C136.778 31.4529 137.655 31.209 138.616 31.209C140.179 31.209 141.399 31.7036 142.276 32.6931C143.168 33.6825 143.614 34.9786 143.614 36.5811C143.614 36.7762 143.6 37.0131 143.572 37.2918ZM138.637 33.1948C137.91 33.1948 137.306 33.4108 136.826 33.8428C136.319 34.2609 136.017 34.8252 135.921 35.536H141.29C141.248 34.8391 140.981 34.2678 140.488 33.8219C139.966 33.4038 139.349 33.1948 138.637 33.1948Z" fill="#293345"/>
<path fill-rule="evenodd" clip-rule="evenodd" d="M14.5056 45.1232C16.0218 43.2853 17.4485 41.3693 18.7805 39.3825C19.6035 38.1552 20.3745 36.873 20.1106 35.4234C19.8118 33.7822 17.1133 31.7197 11.8455 30.0785C10.1947 29.5653 8.51258 29.1685 6.81052 28.8907C8.70224 27.5919 10.515 26.2568 12.3205 24.8326C13.3902 23.9889 14.4179 23.1453 15.4556 22.2592C15.5 22.227 15.5332 22.1807 15.5504 22.1272C15.5674 22.0736 15.5675 22.0158 15.5505 21.9622C15.5012 21.8745 15.3219 21.8361 15.1706 21.9622C14.0619 22.7231 12.8501 23.5501 11.8455 24.2387C10.2897 25.3051 8.8426 26.2696 6.7155 26.4162C5.91884 26.4698 5.11889 26.4031 4.3405 26.2183C4.26802 26.1622 4.21191 26.0862 4.17835 25.9989C4.14482 25.9115 4.13519 25.8162 4.1505 25.7234C4.1753 25.6028 4.24326 25.4967 4.3405 25.4265C5.14402 25.2555 5.92587 25.0603 6.7155 24.8326C9.77772 23.9478 12.7159 22.6502 15.4556 20.9724C15.5867 20.8956 15.6602 20.8127 15.6455 20.7744C15.6308 20.7363 15.5173 20.7279 15.3605 20.7744C14.6157 21.0243 13.899 21.2839 13.1755 21.5664C9.70995 22.919 7.68973 24.1561 4.62552 24.0407C3.88989 24.0129 3.15838 23.9135 2.44051 23.7439C1.93359 23.6251 1.58371 23.4278 1.58551 23.2489C1.5875 23.052 2.01634 22.8258 2.7255 22.7541C4.06834 22.6441 5.38676 22.4806 6.7155 22.2592C9.65625 21.7686 12.5492 21.0068 15.3605 19.9827C15.374 19.9515 15.381 19.9179 15.381 19.8837C15.381 19.8496 15.374 19.8158 15.3605 19.7846C15.3383 19.743 15.3055 19.7087 15.2655 19.6857C15.2064 19.6557 15.1414 19.6401 15.0755 19.6401C15.0097 19.6401 14.9447 19.6557 14.8855 19.6857C12.5581 20.3595 10.1285 20.8997 7.95052 21.1704C5.97955 21.4154 4.45452 21.382 3.01051 21.0714C2.43048 20.9467 1.85918 20.7814 1.30051 20.5766C0.755588 20.423 0.491964 20.084 0.540507 19.8837C0.577841 19.7294 0.810404 19.617 1.11051 19.5867C3.19442 19.7901 5.28861 19.8562 7.38052 19.7846C9.9639 19.6965 12.5366 19.3987 15.0755 18.8939C15.2069 18.8854 15.3357 18.8518 15.4556 18.7949C15.4978 18.7753 15.5317 18.74 15.5505 18.6959C15.5618 18.664 15.5618 18.6288 15.5505 18.5969C15.5177 18.5137 15.3768 18.4669 15.1706 18.4979C14.1227 18.5259 13.0836 18.5588 12.0355 18.5969C11.1668 18.6286 9.95181 18.6657 9.47057 18.6959C8.43502 18.7607 7.56234 18.8252 6.52554 18.7949C5.0989 18.7531 3.98445 18.5672 3.01051 18.2011C2.12635 17.8679 1.29409 17.4011 0.540507 16.8153C0.0197172 16.3517 -0.0909589 15.8156 0.0655073 15.6276C0.199837 15.4662 0.592661 15.4879 1.01551 15.7266C2.19972 16.1551 3.40471 16.5185 4.62552 16.8153C8.14159 17.6656 11.7596 17.9658 15.3605 17.7062C15.3985 17.7082 15.4365 17.7019 15.4719 17.6878C15.5075 17.6736 15.5396 17.6518 15.5666 17.6239C15.5935 17.5958 15.6143 17.5622 15.6279 17.5253C15.6416 17.4883 15.6476 17.4487 15.6455 17.4091C15.6281 17.3465 15.59 17.2921 15.5379 17.2558C15.4857 17.2196 15.4228 17.2038 15.3605 17.2112C13.5513 17.2332 11.7425 17.134 9.94559 16.9143C7.91099 16.6639 6.09641 16.2531 4.7205 15.7266C3.49443 15.2571 2.31683 14.6603 1.20551 13.945C0.414535 13.1299 0.135047 12.4036 0.350508 12.0643C0.419949 11.9653 0.520968 11.895 0.635508 11.8663C2.58615 12.9616 4.6196 13.8885 6.7155 14.6378C9.66877 15.6933 12.7289 16.3908 15.8355 16.7163C15.8732 16.7234 15.9121 16.7175 15.9463 16.6998C15.9806 16.6819 16.0083 16.6529 16.0256 16.6173C16.0366 16.5854 16.0366 16.5504 16.0256 16.5184C13.4282 15.9024 10.8941 15.1698 8.52053 14.3408C6.46992 13.6246 4.76904 12.8703 3.10551 11.2725C2.42689 10.6199 1.82137 9.88948 1.30051 9.09495C0.890772 8.52754 0.89789 7.98394 1.11051 7.80823C1.25434 7.68946 1.49554 7.7359 1.68051 7.80823C2.92484 9.00611 4.25909 10.0983 5.67051 11.0746C8.6947 13.1602 12.0349 14.6996 15.5505 15.6276C15.6892 15.6386 15.8034 15.6002 15.8355 15.5286C15.8791 15.4316 15.789 15.2368 15.5505 15.1326C13.564 14.3392 11.6283 13.4134 9.75552 12.3612C5.91941 10.2036 3.9627 8.26768 3.29551 6.1256C2.70252 4.22172 2.84958 2.14665 3.58051 0.0878906C4.53248 2.24425 5.78055 4.2448 7.2855 6.02664C9.11727 8.18833 11.798 10.0665 15.1706 12.1633C17.8674 13.8403 20.1988 15.2308 22.5806 17.1123C23.6445 17.9527 24.4882 18.8099 25.5256 19.6857C26.3166 20.3536 26.9062 20.8556 27.5206 21.7642C29.0839 24.0764 29.2352 26.8764 29.0405 28.6928C28.6972 31.8978 26.9886 34.4755 23.7206 37.6998C20.8838 40.4757 17.798 42.9617 14.5056 45.1232ZM26.9505 17.4091C28.4408 16.6916 29.9548 16.4248 31.4155 16.7163C32.9699 17.0266 33.8712 17.8447 35.2156 18.8939C36.1522 19.6248 37.1306 20.3148 38.1606 20.9724C36.864 20.9842 35.5843 21.2813 34.4057 21.8443C33.2269 22.4071 32.1756 23.2231 31.3205 24.2387C31.567 23.4291 31.7575 22.6021 31.8906 21.7642C32.1055 20.4075 32.0348 19.3276 31.7955 18.8939C31.089 17.6134 29.2078 17.0656 26.9505 17.4091Z" fill="url(#paint0_linear_498_41010)"/>
</g>
</g>
<defs>
<linearGradient id="paint0_linear_498_41010" x1="-0.047297" y1="22.6056" x2="40.1744" y2="21.1985" gradientUnits="userSpaceOnUse">
<stop stop-color="#8FAAE5"/>
<stop offset="0.234375" stop-color="#93AEEB"/>
<stop offset="0.270833" stop-color="#93AFEC"/>
<stop offset="1" stop-color="#9FBDFF"/>
</linearGradient>
<clipPath id="clip0_498_41010">
<rect width="174" height="48" fill="white"/>
</clipPath>
</defs>
</svg>
