<svg width="241" height="29" viewBox="0 0 241 29" fill="none" xmlns="http://www.w3.org/2000/svg">
<g clip-path="url(#clip0_498_40993)">
<path d="M28.8605 23.9003C28.739 23.8502 28.6285 23.7753 28.5359 23.6802C28.4433 23.5851 28.3703 23.4717 28.3215 23.3468C28.273 23.2273 28.248 23.099 28.248 22.9695C28.248 22.84 28.273 22.7117 28.3215 22.5921L37.1415 0.755651C37.1415 0.705336 37.1905 0.655022 37.2395 0.554393L37.2885 0.504078C37.3375 0.453764 37.3375 0.453764 37.3375 0.403449C37.3375 0.403449 37.3865 0.353135 37.4355 0.353135C37.4845 0.30282 37.5335 0.30282 37.4845 0.30282C37.5772 0.211409 37.6992 0.157756 37.8275 0.151877H38.2195C38.3665 0.151877 38.4645 0.202191 38.5625 0.30282L38.6115 0.353135C38.6605 0.353135 38.7095 0.403449 38.7095 0.403449C38.7095 0.403449 38.7585 0.453764 38.7585 0.504078C38.8075 0.554393 38.8075 0.604707 38.8075 0.554393C38.8565 0.604707 38.8565 0.705336 38.9055 0.755651L47.7255 22.5921C47.7741 22.7117 47.799 22.84 47.799 22.9695C47.799 23.099 47.7741 23.2273 47.7255 23.3468C47.6768 23.4717 47.6038 23.5851 47.5112 23.6802C47.4186 23.7753 47.3081 23.8502 47.1865 23.9003C47.0885 23.9506 46.9415 24.0009 46.7945 24.0009C46.3535 24.0009 46.0595 23.7997 45.9125 23.3972L43.9035 18.416H32.0945L30.0855 23.3972C29.9385 23.7997 29.6445 24.0009 29.2035 24.0009H29.0075C29.0075 24.0009 28.9585 23.9506 28.8605 23.9003ZM43.1685 16.4034L38.0235 3.7242L32.9275 16.4034H43.1685ZM59.4365 0.101562C61.3475 0.101562 62.9645 0.755651 64.2875 2.01351C65.6105 3.27137 66.2965 4.83112 66.2965 6.59213C66.2965 8.30282 65.6595 9.81225 64.4345 11.0701C63.1605 12.328 61.6415 12.9821 59.8775 13.0827H59.4855H53.0665V22.9946C53.0665 23.2965 52.9685 23.4978 52.7725 23.699C52.5765 23.9003 52.3805 24.0009 52.0865 24.0009C51.7925 24.0009 51.5965 23.9003 51.4005 23.699C51.2045 23.4978 51.1065 23.2965 51.1065 22.9946V1.10785C51.1065 0.805965 51.2045 0.604707 51.4005 0.403449C51.5965 0.202191 51.7925 0.101562 52.0865 0.101562H59.4365ZM59.5345 11.0701C60.8575 11.0198 61.9845 10.567 62.9155 9.71163C63.8465 8.85628 64.3365 7.79968 64.3365 6.54181C64.3365 5.28395 63.8465 4.22735 62.9155 3.372C61.9355 2.51666 60.8085 2.06383 59.4365 2.06383H53.0175V11.0701H59.5345ZM72.2745 22.9946C72.2745 23.2965 72.1765 23.4978 71.9805 23.699C71.7845 23.9003 71.5885 24.0009 71.2945 24.0009C71.0005 24.0009 70.8046 23.9003 70.6086 23.699C70.4125 23.4978 70.3145 23.2965 70.3145 22.9946V1.15817C70.3145 0.856279 70.4125 0.655022 70.6086 0.453764C70.8046 0.252506 71.0005 0.151877 71.2945 0.151877C71.5885 0.151877 71.7845 0.252506 71.9805 0.453764C72.1765 0.655022 72.2745 0.856279 72.2745 1.15817V22.9946Z" fill="#292C2D"/>
<path d="M91.4335 24.0005C88.1995 24.0005 85.5045 22.8432 83.2015 20.4785C80.8985 18.164 79.7715 15.3464 79.7715 12.0256C79.7715 8.70487 80.8985 5.88726 83.2015 3.57279C85.4555 1.20801 88.1995 0.0507812 91.4335 0.0507812C94.0795 0.0507812 96.4315 0.855813 98.5385 2.51619C98.7345 2.66713 98.8815 2.91871 98.9305 3.17028C98.9795 3.47216 98.8815 3.67342 98.7345 3.92499C98.5875 4.12625 98.3425 4.2772 98.0975 4.32751C97.8035 4.37782 97.6075 4.32751 97.3625 4.12625C95.5985 2.76776 93.6385 2.06336 91.4335 2.06336C88.7385 2.06336 86.4845 3.01933 84.5735 4.9816C82.6625 6.94386 81.7315 9.25833 81.7315 12.0256C81.7315 14.7929 82.6625 17.1074 84.5735 19.0696C86.4845 21.0319 88.7385 21.9879 91.4335 21.9879C93.9325 21.9879 96.1375 21.1325 97.9505 19.4218C98.1465 19.2206 98.3915 19.12 98.6365 19.1703C98.9305 19.1703 99.1265 19.2709 99.3225 19.5225C99.5185 19.7237 99.6165 19.9753 99.5675 20.2269C99.5675 20.5288 99.4695 20.73 99.2245 20.9313C97.0685 22.9439 94.4715 24.0005 91.4335 24.0005Z" fill="#636566"/>
<path d="M104.076 24.0005C103.782 24.0005 103.586 23.8998 103.39 23.6986C103.194 23.4973 103.096 23.2961 103.096 22.9942V1.05707C103.096 0.755184 103.194 0.553926 103.39 0.352668C103.586 0.15141 103.831 0.0507812 104.076 0.0507812L116.963 0.101096C117.257 0.101096 117.453 0.201725 117.649 0.402982C117.845 0.60424 117.943 0.855813 117.943 1.10739C117.943 1.40927 117.845 1.61053 117.649 1.81179C117.453 2.01305 117.257 2.11367 116.963 2.11367L105.056 2.06336V11.0193H113.974C114.268 11.0193 114.464 11.12 114.66 11.3212C114.856 11.5225 114.954 11.7237 114.954 12.0256C114.954 12.3275 114.856 12.5288 114.66 12.73C114.464 12.9313 114.268 13.0319 113.974 13.0319H105.056V21.9879H116.963C117.257 21.9879 117.453 22.0885 117.649 22.2898C117.845 22.491 117.943 22.6923 117.943 22.9942C117.943 23.2961 117.845 23.4973 117.649 23.6986C117.453 23.8998 117.257 24.0005 116.963 24.0005H104.076Z" fill="#636566"/>
<path d="M138.229 23.6489L123.333 3.97599V22.9949C123.333 23.2967 123.235 23.498 123.039 23.6993C122.843 23.9005 122.647 24.0012 122.353 24.0012C122.059 24.0012 121.863 23.9005 121.667 23.6993C121.471 23.498 121.373 23.2967 121.373 22.9949V1.05775C121.373 0.604925 121.569 0.252723 122.01 0.10178C122.451 -0.0491634 122.794 0.0514655 123.088 0.453981L137.935 20.0766V1.05775C137.935 0.755868 138.033 0.55461 138.229 0.353352C138.425 0.152094 138.67 0.0514655 138.915 0.0514655C139.209 0.0514655 139.405 0.152094 139.601 0.353352C139.797 0.55461 139.895 0.755868 139.895 1.05775V23.2464C139.895 23.2967 139.895 23.3471 139.846 23.3471C139.846 23.3471 139.846 23.3974 139.797 23.4477C139.797 23.498 139.748 23.498 139.748 23.5483C139.748 23.5483 139.699 23.5986 139.699 23.6489C139.699 23.6993 139.65 23.6993 139.65 23.7496L139.503 23.9005C139.503 23.9005 139.454 23.9005 139.454 23.9508C139.405 23.9508 139.405 24.0012 139.356 24.0012C139.356 24.0012 139.307 24.0012 139.307 24.0515C139.258 24.0515 139.258 24.0515 139.209 24.1018H138.719C138.67 24.1018 138.621 24.0515 138.572 24.0515L138.523 24.0012C138.474 24.0012 138.425 23.9508 138.425 23.9508L138.376 23.9005C138.278 23.6993 138.278 23.6993 138.229 23.6489ZM150.332 2.06404H143.913C143.619 2.06404 143.423 1.96342 143.227 1.76216C143.031 1.5609 142.933 1.35964 142.933 1.05775C142.933 0.755868 143.031 0.55461 143.227 0.353352C143.423 0.152094 143.668 0.0514655 143.913 0.0514655H158.662C158.956 0.0514655 159.152 0.152094 159.348 0.353352C159.544 0.55461 159.642 0.755868 159.642 1.05775C159.642 1.35964 159.544 1.5609 159.348 1.76216C159.152 1.96342 158.956 2.06404 158.662 2.06404H152.243V22.9445C152.243 23.2464 152.145 23.4477 151.949 23.6489C151.753 23.8502 151.508 23.9508 151.263 23.9508C151.018 23.9508 150.773 23.8502 150.577 23.6489C150.381 23.4477 150.283 23.1961 150.283 22.9445V2.06404H150.332Z" fill="#636566"/>
<path d="M163.365 24.0005C163.071 24.0005 162.875 23.8998 162.679 23.6986C162.483 23.4973 162.385 23.2961 162.385 22.9942V1.05707C162.385 0.755184 162.483 0.553926 162.679 0.352668C162.875 0.15141 163.12 0.0507812 163.365 0.0507812L176.252 0.101096C176.546 0.101096 176.742 0.201725 176.938 0.402982C177.134 0.60424 177.232 0.855813 177.232 1.10739C177.232 1.40927 177.134 1.61053 176.938 1.81179C176.742 2.01305 176.546 2.11367 176.252 2.11367L164.345 2.06336V11.0193H173.263C173.557 11.0193 173.753 11.12 173.949 11.3212C174.145 11.5225 174.243 11.7237 174.243 12.0256C174.243 12.3275 174.145 12.5288 173.949 12.73C173.753 12.9313 173.557 13.0319 173.263 13.0319H164.345V21.9879H176.252C176.546 21.9879 176.742 22.0885 176.938 22.2898C177.134 22.491 177.232 22.6923 177.232 22.9942C177.232 23.2961 177.134 23.4973 176.938 23.6986C176.742 23.8998 176.546 24.0005 176.252 24.0005H163.365Z" fill="#636566"/>
<path d="M188.944 0.152121C190.806 0.152121 192.423 0.755895 193.746 2.01376C195.069 3.27162 195.706 4.78105 195.706 6.54206C195.706 8.10181 195.167 9.51061 194.089 10.7182C193.011 11.9257 191.688 12.6301 190.071 12.8817L194.677 22.5421C194.775 22.7936 194.824 23.0452 194.726 23.2968C194.628 23.5483 194.481 23.7496 194.236 23.8502C194.089 23.9006 193.942 23.9509 193.795 23.9509C193.403 23.9509 193.109 23.7496 192.913 23.3974L187.915 12.932H182.476V22.7936C182.476 23.0452 182.378 23.2968 182.182 23.498C181.986 23.6993 181.79 23.7999 181.496 23.7999C181.251 23.7999 181.006 23.6993 180.81 23.498C180.614 23.2968 180.516 23.0452 180.516 22.7936V1.1081C180.516 0.806209 180.614 0.604951 180.81 0.403693C181.006 0.202436 181.251 0.101807 181.496 0.101807H188.944V0.152121ZM193.844 6.54206C193.844 5.33451 193.354 4.27791 192.423 3.37225C191.492 2.5169 190.316 2.06407 188.993 2.06407H182.623V10.9697H189.091C190.414 10.9697 191.541 10.5169 192.472 9.66156C193.354 8.80621 193.844 7.74961 193.844 6.54206Z" fill="#636566"/>
<path d="M22.1968 19.2198C21.2168 19.1694 20.2858 19.0185 19.4528 18.7669C18.4238 18.465 17.5418 18.0122 16.8068 17.4084C15.9738 16.7543 15.3368 15.899 14.8468 14.8927C14.6998 15.4965 14.5038 15.9996 14.2588 16.5028C14.7488 17.2072 15.2878 17.8613 15.9738 18.4147C16.8558 19.1191 17.8848 19.6223 19.0608 19.9745C19.9918 20.2764 21.0208 20.4273 22.0988 20.4776H22.1968C22.5398 20.0751 22.8338 19.6223 23.1278 19.1694C22.8828 19.2198 22.5398 19.2198 22.1968 19.2198ZM13.1808 7.1946C12.8868 7.94932 12.6418 8.70403 12.4948 9.55938L12.7398 11.4713C12.8378 12.7795 13.0828 13.9367 13.4748 14.943C13.7688 14.0877 13.9648 13.0814 14.0628 12.0248C14.0138 11.8235 14.0138 11.6223 14.0138 11.3707C13.9158 9.86127 13.6218 8.45246 13.1808 7.1946ZM12.2008 4.98076C11.9558 4.52793 11.6618 4.12542 11.3188 3.7229L10.6328 4.98076C10.7798 5.18202 10.9268 5.43359 11.0738 5.68516C11.3678 6.138 11.5638 6.69145 11.8088 7.1946C12.0048 6.64114 12.2498 6.13799 12.4948 5.63485C12.3968 5.38328 12.2988 5.18202 12.2008 4.98076Z" fill="#FEE734"/>
<path d="M13.6705 3.77344L12.7885 5.0313L12.4945 5.63507L11.8085 7.19482C11.3675 8.45268 11.0735 9.86149 10.9755 11.3709C10.9755 11.5722 10.9265 11.7734 10.9265 12.025C11.0245 13.1319 11.2205 14.0879 11.5145 14.9432C11.9065 13.937 12.2005 12.7797 12.2495 11.4716C12.2985 10.8175 12.3965 10.1634 12.4945 9.5596C12.6415 8.70426 12.8865 7.89922 13.1805 7.19482C13.3658 6.66329 13.6126 6.15652 13.9155 5.68539L14.3565 4.98098L13.6705 3.77344ZM8.1825 17.4087C7.4475 18.0124 6.5165 18.4653 5.5365 18.7671C4.7035 19.0187 3.7725 19.1697 2.7925 19.22H1.8125L2.7435 20.5282H2.8415C3.9195 20.4778 4.9485 20.2766 5.8795 20.025C7.0555 19.6728 8.0845 19.1194 8.9665 18.4653C9.6525 17.9118 10.1915 17.308 10.6815 16.5533L10.0935 14.9432C9.6525 15.8992 9.0155 16.7546 8.1825 17.4087Z" fill="#362D81"/>
<path d="M24.6471 15.849C23.6671 15.9999 20.4821 16.2012 18.7671 14.7924C17.8361 14.0376 17.3461 12.8804 17.2481 11.1194C17.1501 9.76092 16.9541 8.55337 16.6601 7.39614C16.5131 6.84268 16.3661 6.33954 16.1701 5.83639C15.9251 5.13199 15.6311 4.4779 15.2881 3.87413C15.0885 3.47097 14.8592 3.0841 14.6021 2.7169C14.2101 2.16344 13.8181 1.66029 13.4261 1.15715C13.1321 0.804945 12.8381 0.503059 12.5441 0.201172C12.2501 0.503059 11.9561 0.804945 11.6621 1.15715C11.9561 1.45903 12.2501 1.76092 12.5441 2.11312C12.9851 2.61627 13.3771 3.11941 13.7201 3.72318C13.9651 4.1257 14.2101 4.52822 14.4061 4.98105C14.7491 5.68545 15.0431 6.44017 15.2881 7.2452C15.4841 7.9496 15.6801 8.75463 15.8271 9.55966C15.9251 10.0628 15.9741 10.6163 16.0231 11.1697C16.1701 13.2829 16.8561 14.7924 18.0321 15.7483C19.5511 16.9559 21.6091 17.2075 23.1281 17.2075C23.6181 17.2075 24.0101 17.1571 24.3041 17.1571C24.4511 16.7546 24.5981 16.4024 24.6961 15.9999V15.9496L24.6471 15.849Z" fill="#14934A"/>
<path d="M14.8479 19.9742C14.3579 19.5717 13.8189 19.0182 13.2799 18.3641C13.0349 18.7666 12.7409 19.1188 12.4959 19.4207C13.0349 20.0245 13.5739 20.5779 14.0639 20.9805C15.6319 22.2383 17.3469 22.9427 19.0129 23.3452C19.5029 23.0433 19.9929 22.6911 20.4829 22.2886C18.6699 22.0371 16.6119 21.383 14.8479 19.9742ZM11.4669 14.9427C11.1729 14.0874 10.9769 13.0811 10.8789 12.0245C10.8789 11.8735 10.8299 11.7729 10.8299 11.622C10.6829 9.81065 10.2909 8.40184 9.75189 7.29492L9.45789 8.40184C9.35989 8.75404 9.31089 9.20687 9.21289 9.60939C9.35989 10.2132 9.50689 10.9176 9.55589 11.7226C9.64716 12.7931 9.82748 13.8535 10.0949 14.8924C10.2419 15.4962 10.4379 15.9993 10.6829 16.5025C10.9561 17.161 11.3013 17.7856 11.7119 18.3641C12.0059 18.0119 12.2509 17.6597 12.4959 17.2069C12.1039 16.5528 11.7609 15.7981 11.4669 14.9427Z" fill="#DF242A"/>
<path d="M15.2388 7.29492C14.6998 8.40184 14.2588 9.86096 14.1608 11.622C14.1608 11.7729 14.1118 11.8735 14.1118 12.0245C14.0138 13.1314 13.8178 14.0874 13.5238 14.9427C13.2298 15.7981 12.8868 16.5528 12.4948 17.2069L11.7108 18.3641C11.1718 19.0182 10.6328 19.5717 10.1428 19.9742C8.37881 21.383 6.32081 22.0371 4.50781 22.3389C4.94881 22.7415 5.43881 23.0434 5.97781 23.3956C7.64381 22.993 9.35881 22.2886 10.9268 21.0308C11.4168 20.6283 11.9558 20.1251 12.4948 19.471C12.7888 19.1691 13.0338 18.7666 13.2788 18.4144C13.6218 17.861 14.0138 17.2572 14.3078 16.5528C14.5038 16.0496 14.6998 15.4962 14.8958 14.9427C15.1408 13.9867 15.3858 12.9301 15.4348 11.7729C15.4838 10.9679 15.5818 10.3138 15.7778 9.6597C15.6308 8.75404 15.4348 7.99932 15.2388 7.29492Z" fill="#E0157D"/>
<path d="M12.4959 0.251953L11.6139 1.20793C11.2219 1.66076 10.8299 2.21422 10.4379 2.76768C10.1929 3.11988 9.99692 3.52239 9.75192 3.92491C9.40892 4.52868 9.16392 5.18277 8.86992 5.88717L8.72292 6.39032L8.37992 7.44692C8.08592 8.55384 7.88992 9.8117 7.79192 11.1702C7.69392 12.8809 7.15492 14.0884 6.27292 14.8431C5.19492 15.7488 3.52892 16.0004 2.20592 16.0004C1.51992 16.0507 0.882922 15.9501 0.294922 15.7991L0.784922 17.2582C1.12792 17.3086 1.42192 17.3086 1.81392 17.3086H2.20592C2.54892 17.3086 2.84292 17.3086 3.18592 17.2582C4.80292 17.1073 6.07692 16.6042 7.00792 15.8494C8.23292 14.8935 8.86992 13.384 9.01692 11.2708L9.21292 9.66076C9.26192 9.25824 9.35992 8.85573 9.45792 8.45321L9.75192 7.34629C9.99692 6.54126 10.2909 5.78654 10.6339 5.08214C10.8299 4.62931 11.0749 4.2268 11.3199 3.82428C11.6629 3.22051 12.0549 2.71736 12.4959 2.21422L13.3779 1.25824C13.0839 0.855727 12.7899 0.55384 12.4959 0.251953Z" fill="#1AA1D9"/>
</g>
<defs>
<clipPath id="clip0_498_40993">
<rect width="196" height="24" fill="white"/>
</clipPath>
</defs>
</svg>
