<svg width="104" height="104" viewBox="0 0 104 104" fill="none" xmlns="http://www.w3.org/2000/svg">
<g clip-path="url(#clip0_576_38238)">
<path fill-rule="evenodd" clip-rule="evenodd" d="M41.2308 74.8375C41.2308 74.8375 37.9793 76.7295 43.5472 77.3686C50.2944 78.1391 53.7407 78.0282 61.1736 76.6221C61.1736 76.6221 63.1306 77.8474 65.8622 78.9075C49.1948 86.0494 28.141 78.4943 41.2308 74.8375ZM39.1933 65.5176C39.1933 65.5176 35.5457 68.2174 41.1185 68.7937C48.3261 69.5381 54.0154 69.5988 63.8665 67.7033C63.8665 67.7033 65.2266 69.084 67.3672 69.8382C47.2181 75.7316 24.7773 70.3022 39.1933 65.5176Z" fill="white"/>
<path fill-rule="evenodd" clip-rule="evenodd" d="M56.3635 49.7057C60.4723 54.4352 55.2866 58.6888 55.2866 58.6888C55.2866 58.6888 65.7146 53.3067 60.925 46.5644C56.4532 40.2798 53.0231 37.1576 71.5903 26.3906C71.5903 26.3906 42.4447 33.6668 56.3635 49.7057Z" fill="white"/>
<path fill-rule="evenodd" clip-rule="evenodd" d="M78.4055 81.7315C78.4055 81.7315 80.8123 83.716 75.7543 85.2506C66.1364 88.1637 35.716 89.0423 27.2662 85.3664C24.2308 84.0444 29.9258 82.2117 31.7174 81.8247C33.5861 81.4208 34.6525 81.4942 34.6525 81.4942C31.2746 79.1157 12.8191 86.1659 25.2796 88.1885C59.2571 93.6977 87.2177 85.7082 78.4055 81.7315ZM42.7959 55.86C42.7959 55.86 27.3241 59.5358 37.3177 60.872C41.5388 61.4362 49.947 61.3063 57.7853 60.6488C64.1893 60.1114 70.6173 58.9617 70.6173 58.9617C70.6173 58.9617 68.361 59.9299 66.7261 61.0443C51.012 65.1778 20.6602 63.2526 29.3989 59.0273C36.7874 55.4532 42.7959 55.86 42.7959 55.86ZM70.553 71.3734C86.5256 63.0754 79.1407 55.0994 73.9846 56.1742C72.724 56.4376 72.1583 56.665 72.1583 56.665C72.1583 56.665 72.6286 55.9292 73.5227 55.6128C83.7212 52.0287 91.563 66.1863 70.2345 71.7929C70.2338 71.7929 70.4796 71.5712 70.553 71.3734Z" fill="white"/>
<path fill-rule="evenodd" clip-rule="evenodd" d="M60.9236 9C60.9236 9 69.7675 17.8496 52.533 31.4535C38.7116 42.3702 49.3819 48.5927 52.5288 55.705C44.4595 48.426 38.5407 42.0171 42.5111 36.0538C48.3402 27.3002 64.4921 23.0551 60.9236 9Z" fill="white"/>
<path fill-rule="evenodd" clip-rule="evenodd" d="M44.3681 93.8659C59.6973 94.8461 83.2418 93.3214 83.8005 86.0664C83.8005 86.0664 82.7284 88.8164 71.1302 90.9979C58.0447 93.4612 41.9027 93.1745 32.332 91.5947C32.332 91.5947 34.2932 93.2176 44.3681 93.8659Z" fill="white"/>
</g>
<defs>
<clipPath id="clip0_576_38238">
<rect width="104" height="104" fill="white"/>
</clipPath>
</defs>
</svg>
