<svg width="99" height="104" viewBox="0 0 99 104" fill="none" xmlns="http://www.w3.org/2000/svg">
<path fill-rule="evenodd" clip-rule="evenodd" d="M98.2595 23.1277C98.2959 23.264 98.3146 23.4046 98.3149 23.5457V45.4897C98.3149 45.7714 98.2413 46.0481 98.1016 46.2918C97.9618 46.5355 97.7608 46.7376 97.519 46.8777L79.2851 57.4817V78.4997C79.2851 79.0717 78.9842 79.5997 78.4931 79.8877L40.4316 102.02C40.3445 102.07 40.2494 102.102 40.1544 102.136C40.1188 102.148 40.0851 102.17 40.0475 102.18C39.7814 102.251 39.5017 102.251 39.2357 102.18C39.1921 102.168 39.1525 102.144 39.1109 102.128C39.0238 102.096 38.9327 102.068 38.8496 102.02L0.79596 79.8877C0.554217 79.7475 0.353352 79.5453 0.213611 79.3016C0.0738706 79.0579 0.000191544 78.7813 0 78.4997L0 12.6677C0 12.5237 0.0198 12.3837 0.05544 12.2477C0.06732 12.2017 0.09504 12.1597 0.11088 12.1137C0.14058 12.0297 0.1683 11.9437 0.21186 11.8657C0.24156 11.8137 0.28512 11.7717 0.32076 11.7237C0.3663 11.6597 0.40788 11.5937 0.46134 11.5377C0.50688 11.4917 0.56628 11.4577 0.61776 11.4177C0.67518 11.3697 0.72666 11.3177 0.792 11.2797L19.8218 0.213742C20.0627 0.0737035 20.3358 0 20.6138 0C20.8918 0 21.1649 0.0737035 21.4058 0.213742L40.4336 11.2797H40.4375C40.5009 11.3197 40.5544 11.3697 40.6118 11.4157C40.6633 11.4557 40.7207 11.4917 40.7662 11.5357C40.8217 11.5937 40.8613 11.6597 40.9088 11.7237C40.9424 11.7717 40.988 11.8137 41.0157 11.8657C41.0612 11.9457 41.087 12.0297 41.1187 12.1137C41.1345 12.1597 41.1622 12.2017 41.1741 12.2497C41.2106 12.386 41.2292 12.5266 41.2295 12.6677V53.7857L57.0854 44.5637V23.5437C57.0854 23.4037 57.1052 23.2617 57.1408 23.1277C57.1547 23.0797 57.1804 23.0377 57.1963 22.9917C57.2279 22.9077 57.2557 22.8217 57.2992 22.7437C57.3289 22.6917 57.3725 22.6497 57.4061 22.6017C57.4537 22.5377 57.4933 22.4717 57.5487 22.4157C57.5942 22.3697 57.6517 22.3357 57.7031 22.2957C57.7625 22.2477 57.814 22.1957 57.8774 22.1577L76.9091 11.0917C77.15 10.9515 77.4231 10.8777 77.7011 10.8777C77.9791 10.8777 78.2523 10.9515 78.4931 11.0917L97.5209 22.1577C97.5883 22.1977 97.6397 22.2477 97.6991 22.2937C97.7486 22.3337 97.8061 22.3697 97.8516 22.4137C97.907 22.4717 97.9466 22.5377 97.9942 22.6017C98.0298 22.6497 98.0734 22.6917 98.1011 22.7437C98.1466 22.8217 98.1724 22.9077 98.204 22.9917C98.2219 23.0377 98.2476 23.0797 98.2595 23.1277ZM95.143 44.5637V26.3157L88.4842 30.1877L79.2851 35.5377V53.7857L95.1449 44.5637H95.143ZM76.1152 77.5737V59.3137L67.0666 64.5337L41.2276 79.4297V97.8617L76.1152 77.5737ZM3.17196 15.4377V77.5737L38.0556 97.8597V79.4317L19.8317 69.0137L19.8257 69.0097L19.8178 69.0057C19.7564 68.9697 19.705 68.9177 19.6475 68.8737C19.598 68.8337 19.5406 68.8017 19.4971 68.7577L19.4931 68.7517C19.4416 68.7017 19.406 68.6397 19.3624 68.5837C19.3228 68.5297 19.2753 68.4837 19.2436 68.4277L19.2416 68.4217C19.206 68.3617 19.1842 68.2897 19.1585 68.2217C19.1327 68.1617 19.0991 68.1057 19.0832 68.0417C19.0634 67.9657 19.0595 67.8837 19.0516 67.8057C19.0436 67.7457 19.0278 67.6857 19.0278 67.6257V67.6217V24.6597L9.8307 19.3077L3.17196 15.4377ZM20.6158 3.44974L4.7619 12.6677L20.6118 21.8857L36.4637 12.6657L20.6118 3.44974H20.6158ZM28.8605 60.9777L38.0576 55.6297V15.4377L31.3988 19.3097L22.1998 24.6597V64.8517L28.8605 60.9777ZM77.7011 14.3277L61.8493 23.5457L77.7011 32.7637L93.551 23.5437L77.7011 14.3277ZM76.1152 35.5377L66.9161 30.1877L60.2573 26.3157V44.5637L69.4544 49.9117L76.1152 53.7857V35.5377ZM39.6396 76.6597L62.8907 63.2517L74.5133 56.5517L58.6733 47.3397L40.4356 57.9457L23.8135 67.6117L39.6396 76.6597Z" fill="white"/>
</svg>
