<svg width="176" height="212" viewBox="0 0 176 212" fill="none" xmlns="http://www.w3.org/2000/svg">
<path d="M1.53939 41.029V28.9072M7.60026 34.9681H-4.52148H7.60026Z" stroke="#EEEEEE" stroke-miterlimit="10"/>
<path d="M1.53939 12.1217V0M7.60026 6.06087H-4.52148H7.60026Z" stroke="#EEEEEE" stroke-miterlimit="10"/>
<path d="M1.53939 41.029V28.9072M7.60026 34.9681H-4.52148H7.60026Z" stroke="#EEEEEE" stroke-width="2" stroke-miterlimit="10"/>
<path d="M1.53939 12.1217V0M7.60026 6.06087H-4.52148H7.60026Z" stroke="#EEEEEE" stroke-width="2" stroke-miterlimit="10"/>
<path d="M29.512 41.029V28.9072M35.5729 34.9681H23.4512H35.5729Z" stroke="#EEEEEE" stroke-miterlimit="10"/>
<path d="M29.512 12.1217V0M35.5729 6.06087H23.4512H35.5729Z" stroke="#EEEEEE" stroke-miterlimit="10"/>
<path d="M29.512 41.029V28.9072M35.5729 34.9681H23.4512H35.5729Z" stroke="#EEEEEE" stroke-width="2" stroke-miterlimit="10"/>
<path d="M29.512 12.1217V0M35.5729 6.06087H23.4512H35.5729Z" stroke="#EEEEEE" stroke-width="2" stroke-miterlimit="10"/>
<path d="M57.4847 41.026V28.9043M63.5456 34.9652H51.4238H63.5456Z" stroke="#EEEEEE" stroke-miterlimit="10"/>
<path d="M57.4847 12.1217V0M63.5456 6.06087H51.4238H63.5456Z" stroke="#EEEEEE" stroke-miterlimit="10"/>
<path d="M57.4847 41.026V28.9043M63.5456 34.9652H51.4238H63.5456Z" stroke="#EEEEEE" stroke-width="2" stroke-miterlimit="10"/>
<path d="M57.4847 12.1217V0M63.5456 6.06087H51.4238H63.5456Z" stroke="#EEEEEE" stroke-width="2" stroke-miterlimit="10"/>
<path d="M85.4613 41.026V28.9043M91.5221 34.9652H79.4004H91.5221Z" stroke="#EEEEEE" stroke-miterlimit="10"/>
<path d="M85.4613 12.1217V0M91.5221 6.06087H79.4004H91.5221Z" stroke="#EEEEEE" stroke-miterlimit="10"/>
<path d="M85.4613 41.026V28.9043M91.5221 34.9652H79.4004H91.5221Z" stroke="#EEEEEE" stroke-width="2" stroke-miterlimit="10"/>
<path d="M85.4613 12.1217V0M91.5221 6.06087H79.4004H91.5221Z" stroke="#EEEEEE" stroke-width="2" stroke-miterlimit="10"/>
<path d="M113.432 41.029V28.9072M119.493 34.9681H107.371H119.493Z" stroke="#EEEEEE" stroke-miterlimit="10"/>
<path d="M113.432 12.1217V0M119.493 6.06087H107.371H119.493Z" stroke="#EEEEEE" stroke-miterlimit="10"/>
<path d="M113.432 41.029V28.9072M119.493 34.9681H107.371H119.493Z" stroke="#EEEEEE" stroke-width="2" stroke-miterlimit="10"/>
<path d="M113.432 12.1217V0M119.493 6.06087H107.371H119.493Z" stroke="#EEEEEE" stroke-width="2" stroke-miterlimit="10"/>
<path d="M141.407 41.029V28.9072M147.467 34.9681H135.346H147.467Z" stroke="#EEEEEE" stroke-miterlimit="10"/>
<path d="M141.407 12.1217V0M147.467 6.06087H135.346H147.467Z" stroke="#EEEEEE" stroke-miterlimit="10"/>
<path d="M141.407 41.029V28.9072M147.467 34.9681H135.346H147.467Z" stroke="#EEEEEE" stroke-width="2" stroke-miterlimit="10"/>
<path d="M141.407 12.1217V0M147.467 6.06087H135.346H147.467Z" stroke="#EEEEEE" stroke-width="2" stroke-miterlimit="10"/>
<path d="M169.381 41.026V28.9043M175.442 34.9652H163.32H175.442Z" stroke="#EEEEEE" stroke-miterlimit="10"/>
<path d="M169.381 12.1217V0M175.442 6.06087H163.32H175.442Z" stroke="#EEEEEE" stroke-miterlimit="10"/>
<path d="M169.381 41.026V28.9043M175.442 34.9652H163.32H175.442Z" stroke="#EEEEEE" stroke-width="2" stroke-miterlimit="10"/>
<path d="M169.381 12.1217V0M175.442 6.06087H163.32H175.442Z" stroke="#EEEEEE" stroke-width="2" stroke-miterlimit="10"/>
<path d="M1.53939 154.789V142.667M7.60026 148.728H-4.52148H7.60026Z" stroke="#EEEEEE" stroke-miterlimit="10"/>
<path d="M1.53939 125.882V113.76M7.60026 119.821H-4.52148H7.60026Z" stroke="#EEEEEE" stroke-miterlimit="10"/>
<path d="M1.53939 154.789V142.667M7.60026 148.728H-4.52148H7.60026Z" stroke="#EEEEEE" stroke-width="2" stroke-miterlimit="10"/>
<path d="M1.53939 125.882V113.76M7.60026 119.821H-4.52148H7.60026Z" stroke="#EEEEEE" stroke-width="2" stroke-miterlimit="10"/>
<path d="M29.512 154.789V142.667M35.5729 148.728H23.4512H35.5729Z" stroke="#EEEEEE" stroke-miterlimit="10"/>
<path d="M29.512 125.882V113.76M35.5729 119.821H23.4512H35.5729Z" stroke="#EEEEEE" stroke-miterlimit="10"/>
<path d="M29.512 154.789V142.667M35.5729 148.728H23.4512H35.5729Z" stroke="#EEEEEE" stroke-width="2" stroke-miterlimit="10"/>
<path d="M29.512 125.882V113.76M35.5729 119.821H23.4512H35.5729Z" stroke="#EEEEEE" stroke-width="2" stroke-miterlimit="10"/>
<path d="M57.4847 154.786V142.664M63.5456 148.725H51.4238H63.5456Z" stroke="#EEEEEE" stroke-miterlimit="10"/>
<path d="M57.4847 125.882V113.76M63.5456 119.821H51.4238H63.5456Z" stroke="#EEEEEE" stroke-miterlimit="10"/>
<path d="M57.4847 154.786V142.664M63.5456 148.725H51.4238H63.5456Z" stroke="#EEEEEE" stroke-width="2" stroke-miterlimit="10"/>
<path d="M57.4847 125.882V113.76M63.5456 119.821H51.4238H63.5456Z" stroke="#EEEEEE" stroke-width="2" stroke-miterlimit="10"/>
<path d="M85.4613 154.786V142.664M91.5221 148.725H79.4004H91.5221Z" stroke="#EEEEEE" stroke-miterlimit="10"/>
<path d="M85.4613 125.882V113.76M91.5221 119.821H79.4004H91.5221Z" stroke="#EEEEEE" stroke-miterlimit="10"/>
<path d="M85.4613 154.786V142.664M91.5221 148.725H79.4004H91.5221Z" stroke="#EEEEEE" stroke-width="2" stroke-miterlimit="10"/>
<path d="M85.4613 125.882V113.76M91.5221 119.821H79.4004H91.5221Z" stroke="#EEEEEE" stroke-width="2" stroke-miterlimit="10"/>
<path d="M113.432 154.789V142.667M119.493 148.728H107.371H119.493Z" stroke="#EEEEEE" stroke-miterlimit="10"/>
<path d="M113.432 125.882V113.76M119.493 119.821H107.371H119.493Z" stroke="#EEEEEE" stroke-miterlimit="10"/>
<path d="M113.432 154.789V142.667M119.493 148.728H107.371H119.493Z" stroke="#EEEEEE" stroke-width="2" stroke-miterlimit="10"/>
<path d="M113.432 125.882V113.76M119.493 119.821H107.371H119.493Z" stroke="#EEEEEE" stroke-width="2" stroke-miterlimit="10"/>
<path d="M141.407 154.789V142.667M147.467 148.728H135.346H147.467Z" stroke="#EEEEEE" stroke-miterlimit="10"/>
<path d="M141.407 125.882V113.76M147.467 119.821H135.346H147.467Z" stroke="#EEEEEE" stroke-miterlimit="10"/>
<path d="M141.407 154.789V142.667M147.467 148.728H135.346H147.467Z" stroke="#EEEEEE" stroke-width="2" stroke-miterlimit="10"/>
<path d="M141.407 125.882V113.76M147.467 119.821H135.346H147.467Z" stroke="#EEEEEE" stroke-width="2" stroke-miterlimit="10"/>
<path d="M169.381 154.786V142.664M175.442 148.725H163.32H175.442Z" stroke="#EEEEEE" stroke-miterlimit="10"/>
<path d="M169.381 125.882V113.76M175.442 119.821H163.32H175.442Z" stroke="#EEEEEE" stroke-miterlimit="10"/>
<path d="M169.381 154.786V142.664M175.442 148.725H163.32H175.442Z" stroke="#EEEEEE" stroke-width="2" stroke-miterlimit="10"/>
<path d="M169.381 125.882V113.76M175.442 119.821H163.32H175.442Z" stroke="#EEEEEE" stroke-width="2" stroke-miterlimit="10"/>
<path d="M1.53939 97.9089V85.7871M7.60026 91.848H-4.52148H7.60026Z" stroke="#EEEEEE" stroke-miterlimit="10"/>
<path d="M1.53939 69.0006V56.8789M7.60026 62.9398H-4.52148H7.60026Z" stroke="#EEEEEE" stroke-miterlimit="10"/>
<path d="M1.53939 97.9089V85.7871M7.60026 91.848H-4.52148H7.60026Z" stroke="#EEEEEE" stroke-width="2" stroke-miterlimit="10"/>
<path d="M1.53939 69.0006V56.8789M7.60026 62.9398H-4.52148H7.60026Z" stroke="#EEEEEE" stroke-width="2" stroke-miterlimit="10"/>
<path d="M29.512 97.9089V85.7871M35.5729 91.848H23.4512H35.5729Z" stroke="#EEEEEE" stroke-miterlimit="10"/>
<path d="M29.512 69.0006V56.8789M35.5729 62.9398H23.4512H35.5729Z" stroke="#EEEEEE" stroke-miterlimit="10"/>
<path d="M29.512 97.9089V85.7871M35.5729 91.848H23.4512H35.5729Z" stroke="#EEEEEE" stroke-width="2" stroke-miterlimit="10"/>
<path d="M29.512 69.0006V56.8789M35.5729 62.9398H23.4512H35.5729Z" stroke="#EEEEEE" stroke-width="2" stroke-miterlimit="10"/>
<path d="M57.4847 97.9059V85.7842M63.5456 91.8451H51.4238H63.5456Z" stroke="#EEEEEE" stroke-miterlimit="10"/>
<path d="M57.4847 69.0006V56.8789M63.5456 62.9398H51.4238H63.5456Z" stroke="#EEEEEE" stroke-miterlimit="10"/>
<path d="M57.4847 97.9059V85.7842M63.5456 91.8451H51.4238H63.5456Z" stroke="#EEEEEE" stroke-width="2" stroke-miterlimit="10"/>
<path d="M57.4847 69.0006V56.8789M63.5456 62.9398H51.4238H63.5456Z" stroke="#EEEEEE" stroke-width="2" stroke-miterlimit="10"/>
<path d="M85.4613 97.9059V85.7842M91.5221 91.8451H79.4004H91.5221Z" stroke="#EEEEEE" stroke-miterlimit="10"/>
<path d="M85.4613 69.0006V56.8789M91.5221 62.9398H79.4004H91.5221Z" stroke="#EEEEEE" stroke-miterlimit="10"/>
<path d="M85.4613 97.9059V85.7842M91.5221 91.8451H79.4004H91.5221Z" stroke="#EEEEEE" stroke-width="2" stroke-miterlimit="10"/>
<path d="M85.4613 69.0006V56.8789M91.5221 62.9398H79.4004H91.5221Z" stroke="#EEEEEE" stroke-width="2" stroke-miterlimit="10"/>
<path d="M113.432 97.9089V85.7871M119.493 91.848H107.371H119.493Z" stroke="#EEEEEE" stroke-miterlimit="10"/>
<path d="M113.432 69.0006V56.8789M119.493 62.9398H107.371H119.493Z" stroke="#EEEEEE" stroke-miterlimit="10"/>
<path d="M113.432 97.9089V85.7871M119.493 91.848H107.371H119.493Z" stroke="#EEEEEE" stroke-width="2" stroke-miterlimit="10"/>
<path d="M113.432 69.0006V56.8789M119.493 62.9398H107.371H119.493Z" stroke="#EEEEEE" stroke-width="2" stroke-miterlimit="10"/>
<path d="M141.407 97.9089V85.7871M147.467 91.848H135.346H147.467Z" stroke="#EEEEEE" stroke-miterlimit="10"/>
<path d="M141.407 69.0006V56.8789M147.467 62.9398H135.346H147.467Z" stroke="#EEEEEE" stroke-miterlimit="10"/>
<path d="M141.407 97.9089V85.7871M147.467 91.848H135.346H147.467Z" stroke="#EEEEEE" stroke-width="2" stroke-miterlimit="10"/>
<path d="M141.407 69.0006V56.8789M147.467 62.9398H135.346H147.467Z" stroke="#EEEEEE" stroke-width="2" stroke-miterlimit="10"/>
<path d="M169.381 97.9059V85.7842M175.442 91.8451H163.32H175.442Z" stroke="#EEEEEE" stroke-miterlimit="10"/>
<path d="M169.381 69.0006V56.8789M175.442 62.9398H163.32H175.442Z" stroke="#EEEEEE" stroke-miterlimit="10"/>
<path d="M169.381 97.9059V85.7842M175.442 91.8451H163.32H175.442Z" stroke="#EEEEEE" stroke-width="2" stroke-miterlimit="10"/>
<path d="M169.381 69.0006V56.8789M175.442 62.9398H163.32H175.442Z" stroke="#EEEEEE" stroke-width="2" stroke-miterlimit="10"/>
<path d="M1.53939 211.664V199.542M7.60026 205.603H-4.52148H7.60026Z" stroke="#EEEEEE" stroke-miterlimit="10"/>
<path d="M1.53939 182.76V170.639M7.60026 176.7H-4.52148H7.60026Z" stroke="#EEEEEE" stroke-miterlimit="10"/>
<path d="M1.53939 211.664V199.542M7.60026 205.603H-4.52148H7.60026Z" stroke="#EEEEEE" stroke-width="2" stroke-miterlimit="10"/>
<path d="M1.53939 182.76V170.639M7.60026 176.7H-4.52148H7.60026Z" stroke="#EEEEEE" stroke-width="2" stroke-miterlimit="10"/>
<path d="M29.512 211.664V199.542M35.5729 205.603H23.4512H35.5729Z" stroke="#EEEEEE" stroke-miterlimit="10"/>
<path d="M29.512 182.76V170.639M35.5729 176.7H23.4512H35.5729Z" stroke="#EEEEEE" stroke-miterlimit="10"/>
<path d="M29.512 211.664V199.542M35.5729 205.603H23.4512H35.5729Z" stroke="#EEEEEE" stroke-width="2" stroke-miterlimit="10"/>
<path d="M29.512 182.76V170.639M35.5729 176.7H23.4512H35.5729Z" stroke="#EEEEEE" stroke-width="2" stroke-miterlimit="10"/>
<path d="M57.4847 211.664V199.542M63.5456 205.603H51.4238H63.5456Z" stroke="#EEEEEE" stroke-miterlimit="10"/>
<path d="M57.4847 182.76V170.639M63.5456 176.7H51.4238H63.5456Z" stroke="#EEEEEE" stroke-miterlimit="10"/>
<path d="M57.4847 211.664V199.542M63.5456 205.603H51.4238H63.5456Z" stroke="#EEEEEE" stroke-width="2" stroke-miterlimit="10"/>
<path d="M57.4847 182.76V170.639M63.5456 176.7H51.4238H63.5456Z" stroke="#EEEEEE" stroke-width="2" stroke-miterlimit="10"/>
<path d="M85.4613 211.664V199.542M91.5221 205.603H79.4004H91.5221Z" stroke="#EEEEEE" stroke-miterlimit="10"/>
<path d="M85.4613 182.76V170.639M91.5221 176.7H79.4004H91.5221Z" stroke="#EEEEEE" stroke-miterlimit="10"/>
<path d="M85.4613 211.664V199.542M91.5221 205.603H79.4004H91.5221Z" stroke="#EEEEEE" stroke-width="2" stroke-miterlimit="10"/>
<path d="M85.4613 182.76V170.639M91.5221 176.7H79.4004H91.5221Z" stroke="#EEEEEE" stroke-width="2" stroke-miterlimit="10"/>
<path d="M113.432 211.664V199.542M119.493 205.603H107.371H119.493Z" stroke="#EEEEEE" stroke-miterlimit="10"/>
<path d="M113.432 182.76V170.639M119.493 176.7H107.371H119.493Z" stroke="#EEEEEE" stroke-miterlimit="10"/>
<path d="M113.432 211.664V199.542M119.493 205.603H107.371H119.493Z" stroke="#EEEEEE" stroke-width="2" stroke-miterlimit="10"/>
<path d="M113.432 182.76V170.639M119.493 176.7H107.371H119.493Z" stroke="#EEEEEE" stroke-width="2" stroke-miterlimit="10"/>
<path d="M141.407 211.664V199.542M147.467 205.603H135.346H147.467Z" stroke="#EEEEEE" stroke-miterlimit="10"/>
<path d="M141.407 182.76V170.639M147.467 176.7H135.346H147.467Z" stroke="#EEEEEE" stroke-miterlimit="10"/>
<path d="M141.407 211.664V199.542M147.467 205.603H135.346H147.467Z" stroke="#EEEEEE" stroke-width="2" stroke-miterlimit="10"/>
<path d="M141.407 182.76V170.639M147.467 176.7H135.346H147.467Z" stroke="#EEEEEE" stroke-width="2" stroke-miterlimit="10"/>
<path d="M169.381 211.664V199.542M175.442 205.603H163.32H175.442Z" stroke="#EEEEEE" stroke-miterlimit="10"/>
<path d="M169.381 182.76V170.639M175.442 176.7H163.32H175.442Z" stroke="#EEEEEE" stroke-miterlimit="10"/>
<path d="M169.381 211.664V199.542M175.442 205.603H163.32H175.442Z" stroke="#EEEEEE" stroke-width="2" stroke-miterlimit="10"/>
<path d="M169.381 182.76V170.639M175.442 176.7H163.32H175.442Z" stroke="#EEEEEE" stroke-width="2" stroke-miterlimit="10"/>
</svg>
