<svg width="335" height="52" viewBox="0 0 335 52" fill="none" xmlns="http://www.w3.org/2000/svg">
<g clip-path="url(#clip0_323_31698)">
<path d="M131.12 38.2021H123.74L126.26 24.1253L118.132 32.2792H117.547L112.345 24.1253L109.826 38.2279H102.66L106.743 15.3818L107.007 13.9138H113.714L119.605 23.0356L128.792 13.9138H135.483L135.256 15.1959L131.12 38.2021Z" fill="white"/>
<path d="M154.895 29.2534C154.604 30.9719 153.912 32.6002 152.873 34.0097C151.805 35.4286 150.395 36.5612 148.77 37.3044C146.914 38.1435 144.89 38.5579 142.85 38.5162C140.606 38.5162 138.778 38.1122 137.365 37.3044C136.021 36.5871 134.983 35.418 134.439 34.0097C133.898 32.482 133.785 30.8387 134.114 29.2534C134.332 27.9679 134.772 26.7289 135.414 25.5899C136.057 24.4724 136.904 23.4815 137.911 22.6668C138.982 21.8006 140.207 21.1377 141.523 20.7117C143.011 20.2396 144.567 20.0091 146.13 20.029C147.629 19.9942 149.122 20.2299 150.535 20.7245C151.655 21.1089 152.656 21.7712 153.442 22.6476C154.158 23.4854 154.648 24.4873 154.869 25.561C155.119 26.7786 155.128 28.0324 154.895 29.2534ZM148.152 29.2534C148.406 27.841 148.297 26.733 147.827 25.9296C147.357 25.1262 146.523 24.7266 145.327 24.7309C144.783 24.7161 144.243 24.8152 143.741 25.0219C143.24 25.2285 142.788 25.538 142.417 25.9296C141.584 26.8646 141.048 28.0204 140.876 29.2534C140.625 30.6571 140.741 31.7682 141.224 32.5866C141.707 33.405 142.53 33.8142 143.691 33.8142C144.239 33.8289 144.784 33.7279 145.289 33.5177C145.793 33.3078 146.246 32.9933 146.618 32.5961C147.447 31.652 147.98 30.4905 148.152 29.2534Z" fill="white"/>
<path d="M168.907 37.1669C167.965 37.5516 166.992 37.8563 165.997 38.0771C164.874 38.357 163.722 38.5042 162.564 38.5162C157.952 38.5162 156.042 36.2941 156.836 31.8496L158.11 24.731H155.21L155.408 23.6253L155.993 20.3432H158.903L159.859 14.9939H166.283L165.314 20.3432H171.436L170.653 24.731H164.531L163.51 30.4459C163.403 30.9735 163.348 31.5101 163.347 32.0483C163.349 32.2468 163.396 32.4423 163.486 32.6201C163.575 32.7979 163.705 32.953 163.864 33.0739C164.19 33.3497 164.762 33.4842 165.542 33.4842C166.563 33.4842 167.98 33.0677 169.791 32.2245L168.907 37.1669Z" fill="white"/>
<path d="M180.501 13.5576H174.076L173.127 18.8717H179.548L180.501 13.5576Z" fill="white"/>
<path d="M176.089 38.2021H169.668L172.861 20.3433H179.285L176.089 38.2021Z" fill="white"/>
<path d="M199.912 29.253C199.621 30.9715 198.929 32.5998 197.89 34.0095C196.823 35.4282 195.413 36.5611 193.787 37.3043C191.932 38.1437 189.908 38.5578 187.867 38.5158C185.624 38.5158 183.796 38.1121 182.383 37.3043C181.038 36.5869 180 35.4176 179.457 34.0095C178.915 32.4819 178.803 30.8383 179.131 29.253C179.35 27.9677 179.79 26.7286 180.432 25.5896C181.085 24.4695 181.942 23.4784 182.961 22.6666C184.034 21.8003 185.259 21.1374 186.577 20.7114C188.063 20.2391 189.618 20.0085 191.18 20.0288C192.679 19.9939 194.172 20.2296 195.585 20.7243C196.712 21.107 197.72 21.7693 198.511 22.6473C199.225 23.4867 199.715 24.4879 199.938 25.5608C200.174 26.7815 200.165 28.0358 199.912 29.253ZM193.17 29.253C193.423 27.8406 193.315 26.7328 192.845 25.9293C192.374 25.1259 191.542 24.7264 190.348 24.7307C189.802 24.7137 189.258 24.8118 188.754 25.0186C188.249 25.2253 187.795 25.5358 187.422 25.9293C186.591 26.8651 186.057 28.0208 185.887 29.253C185.638 30.657 185.754 31.7681 186.235 32.5865C186.716 33.4049 187.539 33.814 188.703 33.814C189.25 33.829 189.795 33.7283 190.3 33.5181C190.805 33.3079 191.258 32.9935 191.629 32.596C192.462 31.6537 192.998 30.4918 193.17 29.253Z" fill="white"/>
<path d="M218.795 38.2019H212.391L214.111 28.5866C214.288 27.7396 214.278 26.8651 214.081 26.0224C213.886 25.2949 213.236 24.9263 212.131 24.9263C211.638 24.9205 211.15 25.0189 210.7 25.2147C210.268 25.4091 209.864 25.6603 209.5 25.9615C209.166 26.2343 208.849 26.5277 208.551 26.8397C208.288 27.1186 208.015 27.4167 207.735 27.7339L205.856 38.2243H199.451L202.644 20.3654H209.052L208.593 22.9295C209.594 21.9874 210.757 21.2278 212.027 20.6859C213.142 20.2543 214.33 20.0367 215.528 20.0449C219.863 20.0449 221.575 22.609 220.665 27.7371L218.795 38.2019Z" fill="white"/>
<path d="M235.545 32.9902C235.408 33.7868 235.113 34.5489 234.678 35.233C234.242 35.9172 233.674 36.5099 233.006 36.9773C231.608 38.0032 229.71 38.5158 227.313 38.5158C226.132 38.5322 224.954 38.4107 223.802 38.1537C222.702 37.8848 221.623 37.542 220.57 37.1282L221.373 32.6409C222.19 33.1661 223.046 33.6278 223.935 34.0223C224.737 34.3509 225.599 34.5124 226.468 34.4966C228.071 34.4966 228.948 34.0672 229.101 33.2146C229.129 33.0776 229.124 32.9366 229.088 32.8015C229.052 32.6665 228.985 32.5415 228.893 32.4356C228.585 32.1198 228.223 31.8593 227.823 31.6665C227.297 31.3782 226.591 31.0257 225.701 30.641C224.662 30.1667 223.753 29.4559 223.048 28.5672C222.709 28.1177 222.474 27.6015 222.356 27.0539C222.239 26.5062 222.243 25.9401 222.368 25.3941C222.562 24.4403 223.011 23.555 223.669 22.83C224.449 21.9463 225.427 21.2539 226.526 20.8076C227.849 20.2665 229.272 20.0013 230.704 20.0288C231.088 20.0288 231.562 20.0544 232.141 20.1057C232.868 20.1883 233.588 20.3266 234.293 20.5192C235.126 20.7382 235.927 21.0613 236.676 21.4807L235.896 25.8493C235.571 25.6249 235.269 25.439 235.041 25.2852C234.739 25.0907 234.424 24.9172 234.098 24.7659C233.643 24.5579 233.17 24.3906 232.684 24.266C232.118 24.1192 231.536 24.0459 230.951 24.048C230.216 24.048 229.69 24.189 229.365 24.4679C229.087 24.6781 228.889 24.9736 228.802 25.3076C228.778 25.456 228.791 25.6078 228.84 25.7502C228.889 25.8925 228.972 26.0211 229.082 26.1249C229.322 26.3749 229.901 26.689 230.821 27.0608C231.927 27.4815 232.975 28.0396 233.939 28.721C234.612 29.1839 235.13 29.8332 235.428 30.5865C235.676 31.3646 235.716 32.1923 235.545 32.9902Z" fill="white"/>
<path d="M259.362 36.3751C258.281 36.8893 257.158 37.3116 256.004 37.638C254.906 37.9492 253.786 38.1752 252.652 38.3143C251.522 38.4502 250.384 38.5177 249.245 38.516C247.336 38.5536 245.434 38.256 243.63 37.638C242.113 37.1074 240.75 36.2196 239.661 35.0514C238.619 33.9232 237.898 32.5448 237.567 31.0547C237.215 29.3975 237.203 27.6878 237.531 26.0258C237.85 24.0753 238.56 22.2067 239.619 20.5291C240.604 18.9873 241.892 17.6547 243.406 16.6092C244.905 15.5717 246.572 14.7915 248.335 14.3015C250.115 13.8027 251.956 13.5492 253.806 13.5483C256.607 13.5483 259.67 14.1616 262.997 15.3881L261.84 21.8432C260.804 21.1243 259.705 20.4989 258.556 19.9746C257.268 19.4459 255.88 19.1945 254.486 19.2374C253.052 19.2378 251.633 19.5246 250.315 20.0804C249.001 20.6187 247.827 21.4401 246.878 22.4842C245.942 23.5076 245.321 24.7727 245.087 26.1316C244.858 27.2707 244.995 28.4515 245.48 29.5097C245.975 30.5456 246.791 31.3988 247.811 31.9458C248.986 32.5733 250.308 32.8851 251.644 32.8494C252.817 32.8535 253.985 32.7092 255.12 32.4201C256.099 32.1769 257.057 31.8554 257.984 31.4585C258.777 31.1059 259.602 30.6913 260.458 30.2148L259.362 36.3751Z" fill="white"/>
<path d="M267.532 38.2021H261.108L265.455 13.8882H271.879L267.532 38.2021Z" fill="white"/>
<path d="M290.84 29.2534C290.547 30.9716 289.854 32.5997 288.816 34.0097C287.75 35.4273 286.344 36.5598 284.723 37.3044C282.867 38.1438 280.842 38.5582 278.801 38.5162C276.559 38.5162 274.73 38.1122 273.316 37.3044C271.971 36.5884 270.933 35.4188 270.391 34.0097C269.856 32.4801 269.753 30.8363 270.091 29.2534C270.311 27.9684 270.751 26.7294 271.392 25.5899C272.037 24.473 272.884 23.4823 273.892 22.6668C274.963 21.8013 276.189 21.1385 277.503 20.7117C278.992 20.2394 280.547 20.0088 282.11 20.029C283.61 19.9942 285.104 20.2299 286.515 20.7245C287.636 21.108 288.639 21.7705 289.423 22.6476C290.138 23.4859 290.63 24.4875 290.854 25.561C291.089 26.7813 291.083 28.0346 290.84 29.2534ZM284.093 29.2534C284.347 27.841 284.239 26.733 283.77 25.9296C283.287 25.1316 282.469 24.7309 281.273 24.7309C280.726 24.714 280.182 24.8121 279.677 25.0188C279.174 25.2255 278.719 25.5361 278.346 25.9296C277.517 26.8662 276.987 28.0218 276.819 29.2534C276.567 30.6571 276.683 31.7682 277.167 32.5866C277.65 33.405 278.473 33.8142 279.633 33.8142C280.182 33.83 280.726 33.7295 281.232 33.5193C281.734 33.3092 282.19 32.9944 282.56 32.5961C283.392 31.653 283.925 30.4913 284.093 29.2534Z" fill="white"/>
<path d="M309.451 38.2021H303.046L303.499 35.6573C302.544 36.5367 301.456 37.2617 300.271 37.8046C299.1 38.2971 297.838 38.5394 296.565 38.5163C293.833 38.5163 292.207 37.73 291.687 36.1572C291.157 34.4311 291.069 32.6019 291.431 30.8336L293.311 20.3433H299.716L297.984 29.9907C297.805 30.8374 297.818 31.713 298.02 32.5548C298.216 33.2877 298.865 33.6541 299.973 33.6541C300.832 33.6803 301.674 33.399 302.342 32.8624C303.074 32.246 303.756 31.5717 304.38 30.8464L306.256 20.3561H312.66L309.451 38.2021Z" fill="white"/>
<path d="M330.534 38.2017H324.113L324.4 36.5993C323.654 37.1419 322.854 37.6058 322.011 37.9839C320.987 38.3836 319.89 38.569 318.788 38.5287C317.49 38.5347 316.212 38.2031 315.082 37.5671C313.894 36.8843 312.978 35.8228 312.48 34.5577C311.909 33.1964 311.807 31.4807 312.177 29.4102C312.467 27.7939 313.058 26.2442 313.919 24.8397C314.789 23.4206 315.999 22.2324 317.441 21.3781C318.973 20.4739 320.733 20.0119 322.517 20.0448C323.469 20.0106 324.422 20.1407 325.331 20.4294C325.974 20.6612 326.574 20.9934 327.112 21.4134L328.454 13.9038H334.875L330.534 38.2017ZM325.129 32.5158L326.333 25.6954C325.82 25.3724 325.287 25.0792 324.737 24.8172C324.284 24.6288 323.793 24.5391 323.301 24.5544C322.779 24.5644 322.265 24.6819 321.793 24.8994C321.321 25.1169 320.901 25.4295 320.556 25.8172C319.678 26.7762 319.111 27.9733 318.932 29.2531C318.647 30.8344 318.794 31.9838 319.374 32.7017C319.639 33.0469 319.984 33.3249 320.379 33.5122C320.774 33.6995 321.21 33.7907 321.649 33.7787C322.318 33.8027 322.986 33.6802 323.599 33.4197C324.138 33.1667 324.649 32.864 325.129 32.5158Z" fill="white"/>
<path d="M85.8838 19.2919C84.2975 15.7086 81.2413 13.2022 77.2426 12.1958C76.872 12.1029 76.4914 12.0388 76.0037 11.9586L75.5778 11.8945C75.3146 11.8625 75.0481 11.8401 74.778 11.8208C74.5082 11.8016 74.2124 11.7856 73.9263 11.7792C73.6402 11.7727 73.3866 11.7792 73.1071 11.7792H72.6258C72.3626 11.7952 72.0894 11.8208 71.8652 11.8433C69.4984 4.69266 62.8304 0.0869141 54.7255 0.0869141C48.5646 0.0869141 42.1891 2.87217 37.5369 7.55484C35.7418 6.5912 33.7288 6.09067 31.6848 6.09971C25.8329 6.09971 20.1955 9.87853 17.8157 15.3368C17.4906 15.3144 17.198 15.3048 16.8794 15.3048H16.7071C9.05404 15.4041 1.94064 21.3592 0.49065 28.9328L0.461392 29.061C-0.484678 34.356 1.78133 39.2822 6.23858 41.6091C8.05421 42.547 10.0767 43.0281 12.1263 43.0098H57.6806L56.055 52.0001L77.031 40.6317C78.7682 39.66 80.3501 38.4406 81.7257 37.0129C86.661 31.9169 88.3255 24.8015 85.8838 19.2919ZM74.6742 15.9586L74.7391 16.5548C74.9959 16.5997 75.2657 16.6445 75.5518 16.7118C76.8529 17.0112 78.0656 17.6053 79.0932 18.447C80.1206 19.2888 80.9353 20.355 81.4722 21.5612C83.1886 25.4426 82.0052 30.3912 78.5461 34.0097L61.3642 22.4714L58.5097 38.356H12.7473C11.4038 38.3669 10.0782 38.051 8.88823 37.436C5.98174 35.9201 4.54477 32.8143 5.1267 29.3689C5.14622 29.2886 5.16246 29.2119 5.17873 29.1315C6.1573 24.0451 10.9787 20.0131 16.1317 19.9586H16.33C16.6056 19.9556 16.8812 19.9663 17.1558 19.9907L20.6669 20.3368L22.0422 16.9073C23.4986 13.2792 27.2016 10.7407 31.0443 10.7407C32.4678 10.7326 33.8658 11.1107 35.0856 11.8336L37.8976 13.5195L40.4986 10.7952C44.1397 6.99713 49.2084 4.72791 54.1011 4.72791C60.4862 4.72791 65.7173 8.4234 67.4307 14.1413L68.2661 16.9266L71.3871 16.5195C71.5205 16.5035 71.9497 16.4522 72.2977 16.4298H72.9478H73.2243C73.4289 16.4298 73.6305 16.4298 73.8744 16.465C74.0467 16.465 74.219 16.4875 74.4044 16.5131L74.596 16.542L74.6871 15.9682L74.6742 15.9586ZM74.2613 37.1123L62.2971 43.6028L62.4924 42.5067L64.6217 30.6349L74.2613 37.1123Z" fill="white"/>
</g>
<defs>
<clipPath id="clip0_323_31698">
<rect width="335" height="52" fill="white"/>
</clipPath>
</defs>
</svg>
