<svg width="36" height="36" viewBox="0 0 36 36" fill="none" xmlns="http://www.w3.org/2000/svg">
<path fill-rule="evenodd" clip-rule="evenodd" d="M5.92246 9H30.077C30.86 9 31.5005 9.6405 31.5005 10.4235V10.5765C31.5005 11.3595 30.86 12 30.077 12H5.92246C5.13946 12 4.50046 11.3595 4.50046 10.5765V10.4235C4.50046 9.6405 5.13946 9 5.92246 9ZM30.077 16.5H5.92246C5.13946 16.5 4.50046 17.1405 4.50046 17.9235V18.0765C4.50046 18.8595 5.13946 19.5 5.92246 19.5H30.077C30.86 19.5 31.5005 18.8595 31.5005 18.0765V17.9235C31.5005 17.1405 30.86 16.5 30.077 16.5ZM30.077 24H5.92246C5.13946 24 4.50046 24.6405 4.50046 25.4235V25.5765C4.50046 26.3595 5.13946 27 5.92246 27H30.077C30.86 27 31.5005 26.3595 31.5005 25.5765V25.4235C31.5005 24.6405 30.86 24 30.077 24Z" fill="black"/>
<mask id="mask0_191_5510" style="mask-type:luminance" maskUnits="userSpaceOnUse" x="4" y="4" width="28" height="23">
<path fill-rule="evenodd" clip-rule="evenodd" d="M5.922 4.5H30.0765C30.8595 4.5 31.5 5.46075 31.5 6.63525V6.86475C31.5 8.03925 30.8595 9 30.0765 9H5.922C5.139 9 4.5 8.03925 4.5 6.86475V6.63525C4.5 5.46075 5.139 4.5 5.922 4.5ZM30.077 16.5H5.92246C5.13946 16.5 4.50046 17.1405 4.50046 17.9235V18.0765C4.50046 18.8595 5.13946 19.5 5.92246 19.5H30.077C30.86 19.5 31.5005 18.8595 31.5005 18.0765V17.9235C31.5005 17.1405 30.86 16.5 30.077 16.5ZM30.077 24H5.92246C5.13946 24 4.50046 24.6405 4.50046 25.4235V25.5765C4.50046 26.3595 5.13946 27 5.92246 27H30.077C30.86 27 31.5005 26.3595 31.5005 25.5765V25.4235C31.5005 24.6405 30.86 24 30.077 24Z" fill="white"/>
</mask>
<g mask="url(#mask0_191_5510)">
</g>
</svg>
