<svg width="214" height="64" viewBox="0 0 214 64" fill="none" xmlns="http://www.w3.org/2000/svg">
<g clip-path="url(#clip0_394_33180)">
<path d="M48.4706 31.997L15.8672 0V9.70841L38.5782 31.997L15.8672 54.2917V64L48.4706 31.997Z" fill="#41ACFC"/>
<path d="M30.6445 31.9978L7.93359 9.71484V19.4233L20.7523 31.9978L7.93359 44.5783V54.2866L30.6445 31.9978Z" fill="#41ACFC"/>
<path d="M0.0116586 19.416L0 44.5709L12.8187 31.9848L0.0116586 19.416Z" fill="#41ACFC"/>
<path d="M96.714 18.3186V45.6702H89.9112L69.1356 25.9217V45.6702H62.875V18.3186H69.6778L90.4535 38.1073V18.3186H96.714Z" fill="white"/>
<path d="M104.421 18.3186H119.216C131.346 18.3186 136.301 23.6677 136.301 31.9516C136.301 40.2356 131.306 45.6817 119.175 45.6817H104.421V18.3186ZM119.175 40.4414C126.631 40.4414 129.744 37.7468 129.744 31.9516C129.744 26.1563 126.631 23.5475 119.175 23.5475H110.734V40.4414H119.175Z" fill="white"/>
<path d="M165.355 39.3947H148.106L144.608 45.6878H137.904L153.352 18.3359H160.277L175.725 45.6878H168.841L165.355 39.3947ZM162.609 34.4059L156.727 23.828L150.898 34.4059H162.609Z" fill="white"/>
<path d="M199.863 31.9516L214 45.6817H205.6L195.783 35.9046L185.99 45.6817H177.654L191.749 31.9516L177.572 18.3186H186.013L195.806 28.0441L205.64 18.3186H214L199.863 31.9516Z" fill="white"/>
</g>
<defs>
<clipPath id="clip0_394_33180">
<rect width="214" height="64" fill="white"/>
</clipPath>
</defs>
</svg>
