<svg width="104" height="104" viewBox="0 0 104 104" fill="none" xmlns="http://www.w3.org/2000/svg">
<g clip-path="url(#clip0_576_38232)">
<g clip-path="url(#clip1_576_38232)">
<path fill-rule="evenodd" clip-rule="evenodd" d="M61.5737 67.9845C48.7416 67.9845 46.0514 62.1984 46.0514 57.293C46.0514 57.0713 46.1406 56.8588 46.2994 56.702C46.4582 56.5453 46.6736 56.4572 46.8982 56.4572H50.6892C50.8907 56.4579 51.0853 56.5295 51.2381 56.6591C51.391 56.7888 51.4919 56.9679 51.5229 57.1644C52.0962 60.9768 53.7962 62.8991 61.5607 62.8991C67.7422 62.8991 70.3673 61.504 70.3673 58.2895C70.3673 56.4251 69.6182 55.075 60.0169 54.1171C51.9854 53.3327 46.9894 51.5905 46.9894 45.245C46.9894 39.4074 51.9789 35.9293 60.3426 35.9293C69.7354 35.9293 74.3862 39.1438 74.9725 46.0615C74.9819 46.1784 74.9665 46.296 74.9273 46.4067C74.888 46.5174 74.8258 46.6188 74.7445 46.7044C74.6607 46.7914 74.5596 46.8603 74.4475 46.9068C74.3354 46.9533 74.2147 46.9763 74.0931 46.9744H70.3477C70.1574 46.9748 69.9725 46.9115 69.8234 46.7947C69.6743 46.6779 69.5698 46.5146 69.527 46.3315C68.6085 42.3262 66.3939 41.0404 60.3621 41.0404C53.6139 41.0275 52.8257 43.3484 52.8257 45.0843C52.8257 47.193 53.7507 47.8102 62.8569 48.9996C71.9631 50.1889 76.158 51.8605 76.158 58.1031C76.158 64.3457 70.8297 68.0231 61.5346 68.0231L61.5737 67.9845ZM52.513 91.0005C51.434 91.0011 50.3737 90.7217 49.4385 90.1904L39.6679 84.4686C38.2023 83.6585 38.9188 83.3756 39.4008 83.1827C40.9548 82.7009 42.4425 82.0315 43.8302 81.1897C43.9461 81.1361 44.074 81.1126 44.2018 81.1216C44.3295 81.1306 44.4527 81.1718 44.5597 81.2412L52.0831 85.6451C52.2238 85.7177 52.3803 85.7557 52.5391 85.7557C52.6979 85.7557 52.8543 85.7177 52.9951 85.6451L82.307 68.9296C82.4442 68.8484 82.5578 68.7334 82.6366 68.5959C82.7154 68.4585 82.7567 68.3032 82.7564 68.1452V34.7785C82.757 34.618 82.7152 34.4602 82.6353 34.3204C82.5553 34.1806 82.44 34.0638 82.3005 33.9813L52.9885 17.2658C52.8511 17.1868 52.6949 17.1451 52.5358 17.1451C52.3768 17.1451 52.2206 17.1868 52.0831 17.2658L22.7712 33.9813C22.6306 34.0615 22.5138 34.1767 22.4326 34.3155C22.3514 34.4544 22.3087 34.6118 22.3087 34.7721V68.2031C22.3083 68.3609 22.3503 68.5161 22.4304 68.6527C22.5105 68.7894 22.6258 68.9026 22.7647 68.981L30.7962 73.5585C35.1408 75.6865 37.844 73.147 37.844 70.6011V37.6266C37.8432 37.516 37.8647 37.4064 37.9073 37.3042C37.95 37.202 38.0129 37.1092 38.0924 37.0314C38.1719 36.9535 38.2664 36.8921 38.3703 36.8508C38.4742 36.8095 38.5854 36.7891 38.6973 36.7908H42.4037C42.5151 36.79 42.6256 36.811 42.7288 36.8527C42.8319 36.8944 42.9256 36.9559 43.0044 37.0337C43.0832 37.1115 43.1455 37.204 43.1878 37.3057C43.23 37.4075 43.2513 37.5166 43.2505 37.6266V70.614C43.2505 76.3551 40.0783 79.6146 34.5676 79.6146C32.874 79.6146 31.5322 79.6146 27.8063 77.8016L20.0745 73.4556C19.1395 72.9176 18.3637 72.1471 17.8243 71.2211C17.2848 70.295 17.0006 69.2456 17 68.1774L17 34.7464C16.998 33.6777 17.2811 32.6272 17.8208 31.7007C18.3605 30.7742 19.1378 30.0042 20.0745 29.4681L49.432 12.7526C50.3782 12.2434 51.4386 11.9766 52.5163 11.9766C53.594 11.9766 54.6544 12.2434 55.6006 12.7526L84.9125 29.4681C85.8556 30.0063 86.6378 30.7809 87.18 31.7134C87.7222 32.6459 88.0051 33.7034 88 34.7785V68.2095C87.9974 69.2773 87.7124 70.326 87.1732 71.2517C86.6339 72.1775 85.8592 72.9482 84.9255 73.4878L55.6136 90.2032C54.674 90.7353 53.6093 91.0147 52.5261 91.0133L52.513 91.0005Z" fill="white"/>
</g>
</g>
<defs>
<clipPath id="clip0_576_38232">
<rect width="104" height="104" fill="white"/>
</clipPath>
<clipPath id="clip1_576_38232">
<rect width="71" height="79" fill="white" transform="translate(17 12)"/>
</clipPath>
</defs>
</svg>
