<svg width="334" height="275" viewBox="0 0 334 275" fill="none" xmlns="http://www.w3.org/2000/svg">
<path d="M-0.144931 53.1711V37.4609M7.71014 45.316H-8H7.71014Z" stroke="#12062E" stroke-opacity="0.1" stroke-miterlimit="10"/>
<path d="M-0.144931 15.7101V0M7.71014 7.85507H-8H7.71014Z" stroke="#12062E" stroke-opacity="0.1" stroke-miterlimit="10"/>
<path d="M-0.144931 53.1711V37.4609M7.71014 45.316H-8H7.71014Z" stroke="#12062E" stroke-opacity="0.1" stroke-width="2" stroke-miterlimit="10"/>
<path d="M-0.144931 15.7101V0M7.71014 7.85507H-8H7.71014Z" stroke="#12062E" stroke-opacity="0.1" stroke-width="2" stroke-miterlimit="10"/>
<path d="M36.107 53.1711V37.4609M43.9621 45.316H28.252H43.9621Z" stroke="#12062E" stroke-opacity="0.1" stroke-miterlimit="10"/>
<path d="M36.107 15.7101V0M43.9621 7.85507H28.252H43.9621Z" stroke="#12062E" stroke-opacity="0.1" stroke-miterlimit="10"/>
<path d="M36.107 53.1711V37.4609M43.9621 45.316H28.252H43.9621Z" stroke="#12062E" stroke-opacity="0.1" stroke-width="2" stroke-miterlimit="10"/>
<path d="M36.107 15.7101V0M43.9621 7.85507H28.252H43.9621Z" stroke="#12062E" stroke-opacity="0.1" stroke-width="2" stroke-miterlimit="10"/>
<path d="M72.3648 53.1711V37.4609M80.2199 45.316H64.5098H80.2199Z" stroke="#12062E" stroke-opacity="0.1" stroke-miterlimit="10"/>
<path d="M72.3648 15.7101V0M80.2199 7.85507H64.5098H80.2199Z" stroke="#12062E" stroke-opacity="0.1" stroke-miterlimit="10"/>
<path d="M72.3648 53.1711V37.4609M80.2199 45.316H64.5098H80.2199Z" stroke="#12062E" stroke-opacity="0.1" stroke-width="2" stroke-miterlimit="10"/>
<path d="M72.3648 15.7101V0M80.2199 7.85507H64.5098H80.2199Z" stroke="#12062E" stroke-opacity="0.1" stroke-width="2" stroke-miterlimit="10"/>
<path d="M108.617 53.1711V37.4609M116.472 45.316H100.762H116.472Z" stroke="#12062E" stroke-opacity="0.1" stroke-miterlimit="10"/>
<path d="M108.617 15.7101V0M116.472 7.85507H100.762H116.472Z" stroke="#12062E" stroke-opacity="0.1" stroke-miterlimit="10"/>
<path d="M108.617 53.1711V37.4609M116.472 45.316H100.762H116.472Z" stroke="#12062E" stroke-opacity="0.1" stroke-width="2" stroke-miterlimit="10"/>
<path d="M108.617 15.7101V0M116.472 7.85507H100.762H116.472Z" stroke="#12062E" stroke-opacity="0.1" stroke-width="2" stroke-miterlimit="10"/>
<path d="M144.871 53.1711V37.4609M152.726 45.316H137.016H152.726Z" stroke="#12062E" stroke-opacity="0.1" stroke-miterlimit="10"/>
<path d="M144.871 15.7101V0M152.726 7.85507H137.016H152.726Z" stroke="#12062E" stroke-opacity="0.1" stroke-miterlimit="10"/>
<path d="M144.871 53.1711V37.4609M152.726 45.316H137.016H152.726Z" stroke="#12062E" stroke-opacity="0.1" stroke-width="2" stroke-miterlimit="10"/>
<path d="M144.871 15.7101V0M152.726 7.85507H137.016H152.726Z" stroke="#12062E" stroke-opacity="0.1" stroke-width="2" stroke-miterlimit="10"/>
<path d="M181.125 53.1711V37.4609M188.98 45.316H173.27H188.98Z" stroke="#12062E" stroke-opacity="0.1" stroke-miterlimit="10"/>
<path d="M181.125 15.7101V0M188.98 7.85507H173.27H188.98Z" stroke="#12062E" stroke-opacity="0.1" stroke-miterlimit="10"/>
<path d="M181.125 53.1711V37.4609M188.98 45.316H173.27H188.98Z" stroke="#12062E" stroke-opacity="0.1" stroke-width="2" stroke-miterlimit="10"/>
<path d="M181.125 15.7101V0M188.98 7.85507H173.27H188.98Z" stroke="#12062E" stroke-opacity="0.1" stroke-width="2" stroke-miterlimit="10"/>
<path d="M217.38 53.1711V37.4609M225.236 45.316H209.525H225.236Z" stroke="#12062E" stroke-opacity="0.1" stroke-miterlimit="10"/>
<path d="M217.38 15.7101V0M225.236 7.85507H209.525H225.236Z" stroke="#12062E" stroke-opacity="0.1" stroke-miterlimit="10"/>
<path d="M217.38 53.1711V37.4609M225.236 45.316H209.525H225.236Z" stroke="#12062E" stroke-opacity="0.1" stroke-width="2" stroke-miterlimit="10"/>
<path d="M217.38 15.7101V0M225.236 7.85507H209.525H225.236Z" stroke="#12062E" stroke-opacity="0.1" stroke-width="2" stroke-miterlimit="10"/>
<path d="M253.634 53.1711V37.4609M261.489 45.316H245.779H261.489Z" stroke="#12062E" stroke-opacity="0.1" stroke-miterlimit="10"/>
<path d="M253.634 15.7101V0M261.489 7.85507H245.779H261.489Z" stroke="#12062E" stroke-opacity="0.1" stroke-miterlimit="10"/>
<path d="M253.634 53.1711V37.4609M261.489 45.316H245.779H261.489Z" stroke="#12062E" stroke-opacity="0.1" stroke-width="2" stroke-miterlimit="10"/>
<path d="M253.634 15.7101V0M261.489 7.85507H245.779H261.489Z" stroke="#12062E" stroke-opacity="0.1" stroke-width="2" stroke-miterlimit="10"/>
<path d="M289.888 53.1711V37.4609M297.743 45.316H282.033H297.743Z" stroke="#12062E" stroke-opacity="0.1" stroke-miterlimit="10"/>
<path d="M289.888 15.7101V0M297.743 7.85507H282.033H297.743Z" stroke="#12062E" stroke-opacity="0.1" stroke-miterlimit="10"/>
<path d="M289.888 53.1711V37.4609M297.743 45.316H282.033H297.743Z" stroke="#12062E" stroke-opacity="0.1" stroke-width="2" stroke-miterlimit="10"/>
<path d="M289.888 15.7101V0M297.743 7.85507H282.033H297.743Z" stroke="#12062E" stroke-opacity="0.1" stroke-width="2" stroke-miterlimit="10"/>
<path d="M326.144 53.1711V37.4609M333.999 45.316H318.289H333.999Z" stroke="#12062E" stroke-opacity="0.1" stroke-miterlimit="10"/>
<path d="M326.144 15.7101V0M333.999 7.85507H318.289H333.999Z" stroke="#12062E" stroke-opacity="0.1" stroke-miterlimit="10"/>
<path d="M326.144 53.1711V37.4609M333.999 45.316H318.289H333.999Z" stroke="#12062E" stroke-opacity="0.1" stroke-width="2" stroke-miterlimit="10"/>
<path d="M326.144 15.7101V0M333.999 7.85507H318.289H333.999Z" stroke="#12062E" stroke-opacity="0.1" stroke-width="2" stroke-miterlimit="10"/>
<path d="M-0.144931 200.607V184.896M7.71014 192.751H-8H7.71014Z" stroke="#12062E" stroke-opacity="0.1" stroke-miterlimit="10"/>
<path d="M-0.144931 163.142V147.432M7.71014 155.287H-8H7.71014Z" stroke="#12062E" stroke-opacity="0.1" stroke-miterlimit="10"/>
<path d="M-0.144931 200.607V184.896M7.71014 192.751H-8H7.71014Z" stroke="#12062E" stroke-opacity="0.1" stroke-width="2" stroke-miterlimit="10"/>
<path d="M-0.144931 163.142V147.432M7.71014 155.287H-8H7.71014Z" stroke="#12062E" stroke-opacity="0.1" stroke-width="2" stroke-miterlimit="10"/>
<path d="M36.107 200.605V184.894M43.9621 192.749H28.252H43.9621Z" stroke="#12062E" stroke-opacity="0.1" stroke-miterlimit="10"/>
<path d="M36.107 163.142V147.432M43.9621 155.287H28.252H43.9621Z" stroke="#12062E" stroke-opacity="0.1" stroke-miterlimit="10"/>
<path d="M36.107 200.605V184.894M43.9621 192.749H28.252H43.9621Z" stroke="#12062E" stroke-opacity="0.1" stroke-width="2" stroke-miterlimit="10"/>
<path d="M36.107 163.142V147.432M43.9621 155.287H28.252H43.9621Z" stroke="#12062E" stroke-opacity="0.1" stroke-width="2" stroke-miterlimit="10"/>
<path d="M72.3648 200.605V184.894M80.2199 192.749H64.5098H80.2199Z" stroke="#12062E" stroke-opacity="0.1" stroke-miterlimit="10"/>
<path d="M72.3648 163.142V147.432M80.2199 155.287H64.5098H80.2199Z" stroke="#12062E" stroke-opacity="0.1" stroke-miterlimit="10"/>
<path d="M72.3648 200.605V184.894M80.2199 192.749H64.5098H80.2199Z" stroke="#12062E" stroke-opacity="0.1" stroke-width="2" stroke-miterlimit="10"/>
<path d="M72.3648 163.142V147.432M80.2199 155.287H64.5098H80.2199Z" stroke="#12062E" stroke-opacity="0.1" stroke-width="2" stroke-miterlimit="10"/>
<path d="M108.617 200.607V184.896M116.472 192.751H100.762H116.472Z" stroke="#12062E" stroke-opacity="0.1" stroke-miterlimit="10"/>
<path d="M108.617 163.142V147.432M116.472 155.287H100.762H116.472Z" stroke="#12062E" stroke-opacity="0.1" stroke-miterlimit="10"/>
<path d="M108.617 200.607V184.896M116.472 192.751H100.762H116.472Z" stroke="#12062E" stroke-opacity="0.1" stroke-width="2" stroke-miterlimit="10"/>
<path d="M108.617 163.142V147.432M116.472 155.287H100.762H116.472Z" stroke="#12062E" stroke-opacity="0.1" stroke-width="2" stroke-miterlimit="10"/>
<path d="M144.871 200.607V184.896M152.726 192.751H137.016H152.726Z" stroke="#12062E" stroke-opacity="0.1" stroke-miterlimit="10"/>
<path d="M144.871 163.142V147.432M152.726 155.287H137.016H152.726Z" stroke="#12062E" stroke-opacity="0.1" stroke-miterlimit="10"/>
<path d="M144.871 200.607V184.896M152.726 192.751H137.016H152.726Z" stroke="#12062E" stroke-opacity="0.1" stroke-width="2" stroke-miterlimit="10"/>
<path d="M144.871 163.142V147.432M152.726 155.287H137.016H152.726Z" stroke="#12062E" stroke-opacity="0.1" stroke-width="2" stroke-miterlimit="10"/>
<path d="M181.125 200.605V184.894M188.98 192.749H173.27H188.98Z" stroke="#12062E" stroke-opacity="0.1" stroke-miterlimit="10"/>
<path d="M181.125 163.142V147.432M188.98 155.287H173.27H188.98Z" stroke="#12062E" stroke-opacity="0.1" stroke-miterlimit="10"/>
<path d="M181.125 200.605V184.894M188.98 192.749H173.27H188.98Z" stroke="#12062E" stroke-opacity="0.1" stroke-width="2" stroke-miterlimit="10"/>
<path d="M181.125 163.142V147.432M188.98 155.287H173.27H188.98Z" stroke="#12062E" stroke-opacity="0.1" stroke-width="2" stroke-miterlimit="10"/>
<path d="M217.38 200.605V184.894M225.236 192.749H209.525H225.236Z" stroke="#12062E" stroke-opacity="0.1" stroke-miterlimit="10"/>
<path d="M217.38 163.142V147.432M225.236 155.287H209.525H225.236Z" stroke="#12062E" stroke-opacity="0.1" stroke-miterlimit="10"/>
<path d="M217.38 200.605V184.894M225.236 192.749H209.525H225.236Z" stroke="#12062E" stroke-opacity="0.1" stroke-width="2" stroke-miterlimit="10"/>
<path d="M217.38 163.142V147.432M225.236 155.287H209.525H225.236Z" stroke="#12062E" stroke-opacity="0.1" stroke-width="2" stroke-miterlimit="10"/>
<path d="M253.634 200.607V184.896M261.489 192.751H245.779H261.489Z" stroke="#12062E" stroke-opacity="0.1" stroke-miterlimit="10"/>
<path d="M253.634 163.142V147.432M261.489 155.287H245.779H261.489Z" stroke="#12062E" stroke-opacity="0.1" stroke-miterlimit="10"/>
<path d="M253.634 200.607V184.896M261.489 192.751H245.779H261.489Z" stroke="#12062E" stroke-opacity="0.1" stroke-width="2" stroke-miterlimit="10"/>
<path d="M253.634 163.142V147.432M261.489 155.287H245.779H261.489Z" stroke="#12062E" stroke-opacity="0.1" stroke-width="2" stroke-miterlimit="10"/>
<path d="M289.888 200.607V184.896M297.743 192.751H282.033H297.743Z" stroke="#12062E" stroke-opacity="0.1" stroke-miterlimit="10"/>
<path d="M289.888 163.142V147.432M297.743 155.287H282.033H297.743Z" stroke="#12062E" stroke-opacity="0.1" stroke-miterlimit="10"/>
<path d="M289.888 200.607V184.896M297.743 192.751H282.033H297.743Z" stroke="#12062E" stroke-opacity="0.1" stroke-width="2" stroke-miterlimit="10"/>
<path d="M289.888 163.142V147.432M297.743 155.287H282.033H297.743Z" stroke="#12062E" stroke-opacity="0.1" stroke-width="2" stroke-miterlimit="10"/>
<path d="M326.144 200.605V184.894M333.999 192.749H318.289H333.999Z" stroke="#12062E" stroke-opacity="0.1" stroke-miterlimit="10"/>
<path d="M326.144 163.142V147.432M333.999 155.287H318.289H333.999Z" stroke="#12062E" stroke-opacity="0.1" stroke-miterlimit="10"/>
<path d="M326.144 200.605V184.894M333.999 192.749H318.289H333.999Z" stroke="#12062E" stroke-opacity="0.1" stroke-width="2" stroke-miterlimit="10"/>
<path d="M326.144 163.142V147.432M333.999 155.287H318.289H333.999Z" stroke="#12062E" stroke-opacity="0.1" stroke-width="2" stroke-miterlimit="10"/>
<path d="M-0.144931 126.89V111.18M7.71014 119.035H-8H7.71014Z" stroke="#12062E" stroke-opacity="0.1" stroke-miterlimit="10"/>
<path d="M-0.144931 89.425V73.7148M7.71014 81.5699H-8H7.71014Z" stroke="#12062E" stroke-opacity="0.1" stroke-miterlimit="10"/>
<path d="M-0.144931 126.89V111.18M7.71014 119.035H-8H7.71014Z" stroke="#12062E" stroke-opacity="0.1" stroke-width="2" stroke-miterlimit="10"/>
<path d="M-0.144931 89.425V73.7148M7.71014 81.5699H-8H7.71014Z" stroke="#12062E" stroke-opacity="0.1" stroke-width="2" stroke-miterlimit="10"/>
<path d="M36.109 126.886V111.176M43.964 119.031H28.2539H43.964Z" stroke="#12062E" stroke-opacity="0.1" stroke-miterlimit="10"/>
<path d="M36.109 89.425V73.7148M43.964 81.5699H28.2539H43.964Z" stroke="#12062E" stroke-opacity="0.1" stroke-miterlimit="10"/>
<path d="M36.109 126.886V111.176M43.964 119.031H28.2539H43.964Z" stroke="#12062E" stroke-opacity="0.1" stroke-width="2" stroke-miterlimit="10"/>
<path d="M36.109 89.425V73.7148M43.964 81.5699H28.2539H43.964Z" stroke="#12062E" stroke-opacity="0.1" stroke-width="2" stroke-miterlimit="10"/>
<path d="M72.3648 126.886V111.176M80.2199 119.031H64.5098H80.2199Z" stroke="#12062E" stroke-opacity="0.1" stroke-miterlimit="10"/>
<path d="M72.3648 89.425V73.7148M80.2199 81.5699H64.5098H80.2199Z" stroke="#12062E" stroke-opacity="0.1" stroke-miterlimit="10"/>
<path d="M72.3648 126.886V111.176M80.2199 119.031H64.5098H80.2199Z" stroke="#12062E" stroke-opacity="0.1" stroke-width="2" stroke-miterlimit="10"/>
<path d="M72.3648 89.425V73.7148M80.2199 81.5699H64.5098H80.2199Z" stroke="#12062E" stroke-opacity="0.1" stroke-width="2" stroke-miterlimit="10"/>
<path d="M108.617 126.89V111.18M116.472 119.035H100.762H116.472Z" stroke="#12062E" stroke-opacity="0.1" stroke-miterlimit="10"/>
<path d="M108.617 89.425V73.7148M116.472 81.5699H100.762H116.472Z" stroke="#12062E" stroke-opacity="0.1" stroke-miterlimit="10"/>
<path d="M108.617 126.89V111.18M116.472 119.035H100.762H116.472Z" stroke="#12062E" stroke-opacity="0.1" stroke-width="2" stroke-miterlimit="10"/>
<path d="M108.617 89.425V73.7148M116.472 81.5699H100.762H116.472Z" stroke="#12062E" stroke-opacity="0.1" stroke-width="2" stroke-miterlimit="10"/>
<path d="M144.871 126.89V111.18M152.726 119.035H137.016H152.726Z" stroke="#12062E" stroke-opacity="0.1" stroke-miterlimit="10"/>
<path d="M144.871 89.425V73.7148M152.726 81.5699H137.016H152.726Z" stroke="#12062E" stroke-opacity="0.1" stroke-miterlimit="10"/>
<path d="M144.871 126.89V111.18M152.726 119.035H137.016H152.726Z" stroke="#12062E" stroke-opacity="0.1" stroke-width="2" stroke-miterlimit="10"/>
<path d="M144.871 89.425V73.7148M152.726 81.5699H137.016H152.726Z" stroke="#12062E" stroke-opacity="0.1" stroke-width="2" stroke-miterlimit="10"/>
<path d="M181.125 126.886V111.176M188.98 119.031H173.27H188.98Z" stroke="#12062E" stroke-opacity="0.1" stroke-miterlimit="10"/>
<path d="M181.125 89.425V73.7148M188.98 81.5699H173.27H188.98Z" stroke="#12062E" stroke-opacity="0.1" stroke-miterlimit="10"/>
<path d="M181.125 126.886V111.176M188.98 119.031H173.27H188.98Z" stroke="#12062E" stroke-opacity="0.1" stroke-width="2" stroke-miterlimit="10"/>
<path d="M181.125 89.425V73.7148M188.98 81.5699H173.27H188.98Z" stroke="#12062E" stroke-opacity="0.1" stroke-width="2" stroke-miterlimit="10"/>
<path d="M217.382 126.886V111.176M225.237 119.031H209.527H225.237Z" stroke="#12062E" stroke-opacity="0.1" stroke-miterlimit="10"/>
<path d="M217.382 89.425V73.7148M225.237 81.5699H209.527H225.237Z" stroke="#12062E" stroke-opacity="0.1" stroke-miterlimit="10"/>
<path d="M217.382 126.886V111.176M225.237 119.031H209.527H225.237Z" stroke="#12062E" stroke-opacity="0.1" stroke-width="2" stroke-miterlimit="10"/>
<path d="M217.382 89.425V73.7148M225.237 81.5699H209.527H225.237Z" stroke="#12062E" stroke-opacity="0.1" stroke-width="2" stroke-miterlimit="10"/>
<path d="M253.634 126.89V111.18M261.489 119.035H245.779H261.489Z" stroke="#12062E" stroke-opacity="0.1" stroke-miterlimit="10"/>
<path d="M253.634 89.425V73.7148M261.489 81.5699H245.779H261.489Z" stroke="#12062E" stroke-opacity="0.1" stroke-miterlimit="10"/>
<path d="M253.634 126.89V111.18M261.489 119.035H245.779H261.489Z" stroke="#12062E" stroke-opacity="0.1" stroke-width="2" stroke-miterlimit="10"/>
<path d="M253.634 89.425V73.7148M261.489 81.5699H245.779H261.489Z" stroke="#12062E" stroke-opacity="0.1" stroke-width="2" stroke-miterlimit="10"/>
<path d="M289.888 126.89V111.18M297.743 119.035H282.033H297.743Z" stroke="#12062E" stroke-opacity="0.1" stroke-miterlimit="10"/>
<path d="M289.888 89.425V73.7148M297.743 81.5699H282.033H297.743Z" stroke="#12062E" stroke-opacity="0.1" stroke-miterlimit="10"/>
<path d="M289.888 126.89V111.18M297.743 119.035H282.033H297.743Z" stroke="#12062E" stroke-opacity="0.1" stroke-width="2" stroke-miterlimit="10"/>
<path d="M289.888 89.425V73.7148M297.743 81.5699H282.033H297.743Z" stroke="#12062E" stroke-opacity="0.1" stroke-width="2" stroke-miterlimit="10"/>
<path d="M326.144 126.886V111.176M333.999 119.031H318.289H333.999Z" stroke="#12062E" stroke-opacity="0.1" stroke-miterlimit="10"/>
<path d="M326.144 89.425V73.7148M333.999 81.5699H318.289H333.999Z" stroke="#12062E" stroke-opacity="0.1" stroke-miterlimit="10"/>
<path d="M326.144 126.886V111.176M333.999 119.031H318.289H333.999Z" stroke="#12062E" stroke-opacity="0.1" stroke-width="2" stroke-miterlimit="10"/>
<path d="M326.144 89.425V73.7148M333.999 81.5699H318.289H333.999Z" stroke="#12062E" stroke-opacity="0.1" stroke-width="2" stroke-miterlimit="10"/>
<path d="M-0.144931 274.323V258.613M7.71014 266.468H-8H7.71014Z" stroke="#12062E" stroke-opacity="0.1" stroke-miterlimit="10"/>
<path d="M-0.144931 236.862V221.152M7.71014 229.007H-8H7.71014Z" stroke="#12062E" stroke-opacity="0.1" stroke-miterlimit="10"/>
<path d="M-0.144931 274.323V258.613M7.71014 266.468H-8H7.71014Z" stroke="#12062E" stroke-opacity="0.1" stroke-width="2" stroke-miterlimit="10"/>
<path d="M-0.144931 236.862V221.152M7.71014 229.007H-8H7.71014Z" stroke="#12062E" stroke-opacity="0.1" stroke-width="2" stroke-miterlimit="10"/>
<path d="M36.109 274.323V258.613M43.964 266.468H28.2539H43.964Z" stroke="#12062E" stroke-opacity="0.1" stroke-miterlimit="10"/>
<path d="M36.109 236.862V221.152M43.964 229.007H28.2539H43.964Z" stroke="#12062E" stroke-opacity="0.1" stroke-miterlimit="10"/>
<path d="M36.109 274.323V258.613M43.964 266.468H28.2539H43.964Z" stroke="#12062E" stroke-opacity="0.1" stroke-width="2" stroke-miterlimit="10"/>
<path d="M36.109 236.862V221.152M43.964 229.007H28.2539H43.964Z" stroke="#12062E" stroke-opacity="0.1" stroke-width="2" stroke-miterlimit="10"/>
<path d="M72.3648 274.323V258.613M80.2199 266.468H64.5098H80.2199Z" stroke="#12062E" stroke-opacity="0.1" stroke-miterlimit="10"/>
<path d="M72.3648 236.862V221.152M80.2199 229.007H64.5098H80.2199Z" stroke="#12062E" stroke-opacity="0.1" stroke-miterlimit="10"/>
<path d="M72.3648 274.323V258.613M80.2199 266.468H64.5098H80.2199Z" stroke="#12062E" stroke-opacity="0.1" stroke-width="2" stroke-miterlimit="10"/>
<path d="M72.3648 236.862V221.152M80.2199 229.007H64.5098H80.2199Z" stroke="#12062E" stroke-opacity="0.1" stroke-width="2" stroke-miterlimit="10"/>
<path d="M108.617 274.323V258.613M116.472 266.468H100.762H116.472Z" stroke="#12062E" stroke-opacity="0.1" stroke-miterlimit="10"/>
<path d="M108.617 236.862V221.152M116.472 229.007H100.762H116.472Z" stroke="#12062E" stroke-opacity="0.1" stroke-miterlimit="10"/>
<path d="M108.617 274.323V258.613M116.472 266.468H100.762H116.472Z" stroke="#12062E" stroke-opacity="0.1" stroke-width="2" stroke-miterlimit="10"/>
<path d="M108.617 236.862V221.152M116.472 229.007H100.762H116.472Z" stroke="#12062E" stroke-opacity="0.1" stroke-width="2" stroke-miterlimit="10"/>
<path d="M144.871 274.323V258.613M152.726 266.468H137.016H152.726Z" stroke="#12062E" stroke-opacity="0.1" stroke-miterlimit="10"/>
<path d="M144.871 236.862V221.152M152.726 229.007H137.016H152.726Z" stroke="#12062E" stroke-opacity="0.1" stroke-miterlimit="10"/>
<path d="M144.871 274.323V258.613M152.726 266.468H137.016H152.726Z" stroke="#12062E" stroke-opacity="0.1" stroke-width="2" stroke-miterlimit="10"/>
<path d="M144.871 236.862V221.152M152.726 229.007H137.016H152.726Z" stroke="#12062E" stroke-opacity="0.1" stroke-width="2" stroke-miterlimit="10"/>
<path d="M181.125 274.323V258.613M188.98 266.468H173.27H188.98Z" stroke="#12062E" stroke-opacity="0.1" stroke-miterlimit="10"/>
<path d="M181.125 236.862V221.152M188.98 229.007H173.27H188.98Z" stroke="#12062E" stroke-opacity="0.1" stroke-miterlimit="10"/>
<path d="M181.125 274.323V258.613M188.98 266.468H173.27H188.98Z" stroke="#12062E" stroke-opacity="0.1" stroke-width="2" stroke-miterlimit="10"/>
<path d="M181.125 236.862V221.152M188.98 229.007H173.27H188.98Z" stroke="#12062E" stroke-opacity="0.1" stroke-width="2" stroke-miterlimit="10"/>
<path d="M217.382 274.323V258.613M225.237 266.468H209.527H225.237Z" stroke="#12062E" stroke-opacity="0.1" stroke-miterlimit="10"/>
<path d="M217.382 236.862V221.152M225.237 229.007H209.527H225.237Z" stroke="#12062E" stroke-opacity="0.1" stroke-miterlimit="10"/>
<path d="M217.382 274.323V258.613M225.237 266.468H209.527H225.237Z" stroke="#12062E" stroke-opacity="0.1" stroke-width="2" stroke-miterlimit="10"/>
<path d="M217.382 236.862V221.152M225.237 229.007H209.527H225.237Z" stroke="#12062E" stroke-opacity="0.1" stroke-width="2" stroke-miterlimit="10"/>
<path d="M253.634 274.323V258.613M261.489 266.468H245.779H261.489Z" stroke="#12062E" stroke-opacity="0.1" stroke-miterlimit="10"/>
<path d="M253.634 236.862V221.152M261.489 229.007H245.779H261.489Z" stroke="#12062E" stroke-opacity="0.1" stroke-miterlimit="10"/>
<path d="M253.634 274.323V258.613M261.489 266.468H245.779H261.489Z" stroke="#12062E" stroke-opacity="0.1" stroke-width="2" stroke-miterlimit="10"/>
<path d="M253.634 236.862V221.152M261.489 229.007H245.779H261.489Z" stroke="#12062E" stroke-opacity="0.1" stroke-width="2" stroke-miterlimit="10"/>
<path d="M289.888 274.323V258.613M297.743 266.468H282.033H297.743Z" stroke="#12062E" stroke-opacity="0.1" stroke-miterlimit="10"/>
<path d="M289.888 236.862V221.152M297.743 229.007H282.033H297.743Z" stroke="#12062E" stroke-opacity="0.1" stroke-miterlimit="10"/>
<path d="M289.888 274.323V258.613M297.743 266.468H282.033H297.743Z" stroke="#12062E" stroke-opacity="0.1" stroke-width="2" stroke-miterlimit="10"/>
<path d="M289.888 236.862V221.152M297.743 229.007H282.033H297.743Z" stroke="#12062E" stroke-opacity="0.1" stroke-width="2" stroke-miterlimit="10"/>
<path d="M326.144 274.323V258.613M333.999 266.468H318.289H333.999Z" stroke="#12062E" stroke-opacity="0.1" stroke-miterlimit="10"/>
<path d="M326.144 236.862V221.152M333.999 229.007H318.289H333.999Z" stroke="#12062E" stroke-opacity="0.1" stroke-miterlimit="10"/>
<path d="M326.144 274.323V258.613M333.999 266.468H318.289H333.999Z" stroke="#12062E" stroke-opacity="0.1" stroke-width="2" stroke-miterlimit="10"/>
<path d="M326.144 236.862V221.152M333.999 229.007H318.289H333.999Z" stroke="#12062E" stroke-opacity="0.1" stroke-width="2" stroke-miterlimit="10"/>
</svg>
