<svg width="181" height="174" viewBox="0 0 181 174" fill="none" xmlns="http://www.w3.org/2000/svg">
<path d="M7.85507 99.6066V83.8965M15.7101 91.7516H0H15.7101Z" stroke="#12062E" stroke-opacity="0.1" stroke-miterlimit="10"/>
<path d="M7.85507 62.1418V46.4316M15.7101 54.2867H0H15.7101Z" stroke="#12062E" stroke-opacity="0.1" stroke-miterlimit="10"/>
<path d="M7.85507 99.6066V83.8965M15.7101 91.7516H0H15.7101Z" stroke="#12062E" stroke-opacity="0.1" stroke-width="2" stroke-miterlimit="10"/>
<path d="M7.85507 62.1418V46.4316M15.7101 54.2867H0H15.7101Z" stroke="#12062E" stroke-opacity="0.1" stroke-width="2" stroke-miterlimit="10"/>
<path d="M44.107 99.6047V83.8945M51.9621 91.7496H36.252H51.9621Z" stroke="#12062E" stroke-opacity="0.1" stroke-miterlimit="10"/>
<path d="M44.107 62.1418V46.4316M51.9621 54.2867H36.252H51.9621Z" stroke="#12062E" stroke-opacity="0.1" stroke-miterlimit="10"/>
<path d="M44.107 99.6047V83.8945M51.9621 91.7496H36.252H51.9621Z" stroke="#12062E" stroke-opacity="0.1" stroke-width="2" stroke-miterlimit="10"/>
<path d="M44.107 62.1418V46.4316M51.9621 54.2867H36.252H51.9621Z" stroke="#12062E" stroke-opacity="0.1" stroke-width="2" stroke-miterlimit="10"/>
<path d="M80.3648 99.6047V83.8945M88.2199 91.7496H72.5098H88.2199Z" stroke="#12062E" stroke-opacity="0.1" stroke-miterlimit="10"/>
<path d="M80.3648 62.1418V46.4316M88.2199 54.2867H72.5098H88.2199Z" stroke="#12062E" stroke-opacity="0.1" stroke-miterlimit="10"/>
<path d="M80.3648 99.6047V83.8945M88.2199 91.7496H72.5098H88.2199Z" stroke="#12062E" stroke-opacity="0.1" stroke-width="2" stroke-miterlimit="10"/>
<path d="M80.3648 62.1418V46.4316M88.2199 54.2867H72.5098H88.2199Z" stroke="#12062E" stroke-opacity="0.1" stroke-width="2" stroke-miterlimit="10"/>
<path d="M116.617 99.6066V83.8965M124.472 91.7516H108.762H124.472Z" stroke="#12062E" stroke-opacity="0.1" stroke-miterlimit="10"/>
<path d="M116.617 62.1418V46.4316M124.472 54.2867H108.762H124.472Z" stroke="#12062E" stroke-opacity="0.1" stroke-miterlimit="10"/>
<path d="M116.617 99.6066V83.8965M124.472 91.7516H108.762H124.472Z" stroke="#12062E" stroke-opacity="0.1" stroke-width="2" stroke-miterlimit="10"/>
<path d="M116.617 62.1418V46.4316M124.472 54.2867H108.762H124.472Z" stroke="#12062E" stroke-opacity="0.1" stroke-width="2" stroke-miterlimit="10"/>
<path d="M152.871 99.6066V83.8965M160.726 91.7516H145.016H160.726Z" stroke="#12062E" stroke-opacity="0.1" stroke-miterlimit="10"/>
<path d="M152.871 62.1418V46.4316M160.726 54.2867H145.016H160.726Z" stroke="#12062E" stroke-opacity="0.1" stroke-miterlimit="10"/>
<path d="M152.871 99.6066V83.8965M160.726 91.7516H145.016H160.726Z" stroke="#12062E" stroke-opacity="0.1" stroke-width="2" stroke-miterlimit="10"/>
<path d="M152.871 62.1418V46.4316M160.726 54.2867H145.016H160.726Z" stroke="#12062E" stroke-opacity="0.1" stroke-width="2" stroke-miterlimit="10"/>
<path d="M7.85507 25.8898V10.1797M15.7101 18.0348H0H15.7101Z" stroke="#12062E" stroke-opacity="0.1" stroke-miterlimit="10"/>
<path d="M7.85507 25.8898V10.1797M15.7101 18.0348H0H15.7101Z" stroke="#12062E" stroke-opacity="0.1" stroke-width="2" stroke-miterlimit="10"/>
<path d="M44.109 25.8859V10.1758M51.964 18.0309H36.2539H51.964Z" stroke="#12062E" stroke-opacity="0.1" stroke-miterlimit="10"/>
<path d="M44.109 25.8859V10.1758M51.964 18.0309H36.2539H51.964Z" stroke="#12062E" stroke-opacity="0.1" stroke-width="2" stroke-miterlimit="10"/>
<path d="M80.3648 25.8859V10.1758M88.2199 18.0309H72.5098H88.2199Z" stroke="#12062E" stroke-opacity="0.1" stroke-miterlimit="10"/>
<path d="M80.3648 25.8859V10.1758M88.2199 18.0309H72.5098H88.2199Z" stroke="#12062E" stroke-opacity="0.1" stroke-width="2" stroke-miterlimit="10"/>
<path d="M116.617 25.8898V10.1797M124.472 18.0348H108.762H124.472Z" stroke="#12062E" stroke-opacity="0.1" stroke-miterlimit="10"/>
<path d="M116.617 25.8898V10.1797M124.472 18.0348H108.762H124.472Z" stroke="#12062E" stroke-opacity="0.1" stroke-width="2" stroke-miterlimit="10"/>
<path d="M152.871 25.8898V10.1797M160.726 18.0348H145.016H160.726Z" stroke="#12062E" stroke-opacity="0.1" stroke-miterlimit="10"/>
<path d="M152.871 25.8898V10.1797M160.726 18.0348H145.016H160.726Z" stroke="#12062E" stroke-opacity="0.1" stroke-width="2" stroke-miterlimit="10"/>
<path d="M7.85507 173.323V157.613M15.7101 165.468H0H15.7101Z" stroke="#12062E" stroke-opacity="0.1" stroke-miterlimit="10"/>
<path d="M7.85507 135.862V120.152M15.7101 128.007H0H15.7101Z" stroke="#12062E" stroke-opacity="0.1" stroke-miterlimit="10"/>
<path d="M7.85507 173.323V157.613M15.7101 165.468H0H15.7101Z" stroke="#12062E" stroke-opacity="0.1" stroke-width="2" stroke-miterlimit="10"/>
<path d="M7.85507 135.862V120.152M15.7101 128.007H0H15.7101Z" stroke="#12062E" stroke-opacity="0.1" stroke-width="2" stroke-miterlimit="10"/>
<path d="M44.109 173.323V157.613M51.964 165.468H36.2539H51.964Z" stroke="#12062E" stroke-opacity="0.1" stroke-miterlimit="10"/>
<path d="M44.109 135.862V120.152M51.964 128.007H36.2539H51.964Z" stroke="#12062E" stroke-opacity="0.1" stroke-miterlimit="10"/>
<path d="M44.109 173.323V157.613M51.964 165.468H36.2539H51.964Z" stroke="#12062E" stroke-opacity="0.1" stroke-width="2" stroke-miterlimit="10"/>
<path d="M44.109 135.862V120.152M51.964 128.007H36.2539H51.964Z" stroke="#12062E" stroke-opacity="0.1" stroke-width="2" stroke-miterlimit="10"/>
<path d="M80.3648 173.323V157.613M88.2199 165.468H72.5098H88.2199Z" stroke="#12062E" stroke-opacity="0.1" stroke-miterlimit="10"/>
<path d="M80.3648 135.862V120.152M88.2199 128.007H72.5098H88.2199Z" stroke="#12062E" stroke-opacity="0.1" stroke-miterlimit="10"/>
<path d="M80.3648 173.323V157.613M88.2199 165.468H72.5098H88.2199Z" stroke="#12062E" stroke-opacity="0.1" stroke-width="2" stroke-miterlimit="10"/>
<path d="M80.3648 135.862V120.152M88.2199 128.007H72.5098H88.2199Z" stroke="#12062E" stroke-opacity="0.1" stroke-width="2" stroke-miterlimit="10"/>
<path d="M116.617 173.323V157.613M124.472 165.468H108.762H124.472Z" stroke="#12062E" stroke-opacity="0.1" stroke-miterlimit="10"/>
<path d="M116.617 135.862V120.152M124.472 128.007H108.762H124.472Z" stroke="#12062E" stroke-opacity="0.1" stroke-miterlimit="10"/>
<path d="M116.617 173.323V157.613M124.472 165.468H108.762H124.472Z" stroke="#12062E" stroke-opacity="0.1" stroke-width="2" stroke-miterlimit="10"/>
<path d="M116.617 135.862V120.152M124.472 128.007H108.762H124.472Z" stroke="#12062E" stroke-opacity="0.1" stroke-width="2" stroke-miterlimit="10"/>
<path d="M152.871 173.323V157.613M160.726 165.468H145.016H160.726Z" stroke="#12062E" stroke-opacity="0.1" stroke-miterlimit="10"/>
<path d="M152.871 135.862V120.152M160.726 128.007H145.016H160.726Z" stroke="#12062E" stroke-opacity="0.1" stroke-miterlimit="10"/>
<path d="M152.871 173.323V157.613M160.726 165.468H145.016H160.726Z" stroke="#12062E" stroke-opacity="0.1" stroke-width="2" stroke-miterlimit="10"/>
<path d="M152.871 135.862V120.152M160.726 128.007H145.016H160.726Z" stroke="#12062E" stroke-opacity="0.1" stroke-width="2" stroke-miterlimit="10"/>
</svg>
