<svg width="150" height="203" viewBox="0 0 150 203" fill="none" xmlns="http://www.w3.org/2000/svg">
<path d="M5.03004 39.2467V27.6504M10.0601 33.4486H0H10.0601Z" stroke="#EEEEEE" stroke-miterlimit="10"/>
<path d="M5.03004 11.5963V0M10.0601 5.79817H0H10.0601Z" stroke="#EEEEEE" stroke-miterlimit="10"/>
<path d="M5.03004 39.2467V27.6504M10.0601 33.4486H0H10.0601Z" stroke="#EEEEEE" stroke-width="2" stroke-miterlimit="10"/>
<path d="M5.03004 11.5963V0M10.0601 5.79817H0H10.0601Z" stroke="#EEEEEE" stroke-width="2" stroke-miterlimit="10"/>
<path d="M28.2449 39.2467V27.6504M33.2749 33.4486H23.2148H33.2749Z" stroke="#EEEEEE" stroke-miterlimit="10"/>
<path d="M28.2449 11.5963V0M33.2749 5.79817H23.2148H33.2749Z" stroke="#EEEEEE" stroke-miterlimit="10"/>
<path d="M28.2449 39.2467V27.6504M33.2749 33.4486H23.2148H33.2749Z" stroke="#EEEEEE" stroke-width="2" stroke-miterlimit="10"/>
<path d="M28.2449 11.5963V0M33.2749 5.79817H23.2148H33.2749Z" stroke="#EEEEEE" stroke-width="2" stroke-miterlimit="10"/>
<path d="M51.4636 39.2467V27.6504M56.4937 33.4486H46.4336H56.4937Z" stroke="#EEEEEE" stroke-miterlimit="10"/>
<path d="M51.4636 11.5963V0M56.4937 5.79817H46.4336H56.4937Z" stroke="#EEEEEE" stroke-miterlimit="10"/>
<path d="M51.4636 39.2467V27.6504M56.4937 33.4486H46.4336H56.4937Z" stroke="#EEEEEE" stroke-width="2" stroke-miterlimit="10"/>
<path d="M51.4636 11.5963V0M56.4937 5.79817H46.4336H56.4937Z" stroke="#EEEEEE" stroke-width="2" stroke-miterlimit="10"/>
<path d="M74.6785 39.2467V27.6504M79.7085 33.4486H69.6484H79.7085Z" stroke="#EEEEEE" stroke-miterlimit="10"/>
<path d="M74.6785 11.5963V0M79.7085 5.79817H69.6484H79.7085Z" stroke="#EEEEEE" stroke-miterlimit="10"/>
<path d="M74.6785 39.2467V27.6504M79.7085 33.4486H69.6484H79.7085Z" stroke="#EEEEEE" stroke-width="2" stroke-miterlimit="10"/>
<path d="M74.6785 11.5963V0M79.7085 5.79817H69.6484H79.7085Z" stroke="#EEEEEE" stroke-width="2" stroke-miterlimit="10"/>
<path d="M97.8933 39.2467V27.6504M102.923 33.4486H92.8633H102.923Z" stroke="#EEEEEE" stroke-miterlimit="10"/>
<path d="M97.8933 11.5963V0M102.923 5.79817H92.8633H102.923Z" stroke="#EEEEEE" stroke-miterlimit="10"/>
<path d="M97.8933 39.2467V27.6504M102.923 33.4486H92.8633H102.923Z" stroke="#EEEEEE" stroke-width="2" stroke-miterlimit="10"/>
<path d="M97.8933 11.5963V0M102.923 5.79817H92.8633H102.923Z" stroke="#EEEEEE" stroke-width="2" stroke-miterlimit="10"/>
<path d="M121.108 39.2467V27.6504M126.138 33.4486H116.078H126.138Z" stroke="#EEEEEE" stroke-miterlimit="10"/>
<path d="M121.108 11.5963V0M126.138 5.79817H116.078H126.138Z" stroke="#EEEEEE" stroke-miterlimit="10"/>
<path d="M121.108 39.2467V27.6504M126.138 33.4486H116.078H126.138Z" stroke="#EEEEEE" stroke-width="2" stroke-miterlimit="10"/>
<path d="M121.108 11.5963V0M126.138 5.79817H116.078H126.138Z" stroke="#EEEEEE" stroke-width="2" stroke-miterlimit="10"/>
<path d="M144.323 39.2467V27.6504M149.353 33.4486H139.293H149.353Z" stroke="#EEEEEE" stroke-miterlimit="10"/>
<path d="M144.323 11.5963V0M149.353 5.79817H139.293H149.353Z" stroke="#EEEEEE" stroke-miterlimit="10"/>
<path d="M144.323 39.2467V27.6504M149.353 33.4486H139.293H149.353Z" stroke="#EEEEEE" stroke-width="2" stroke-miterlimit="10"/>
<path d="M144.323 11.5963V0M149.353 5.79817H139.293H149.353Z" stroke="#EEEEEE" stroke-width="2" stroke-miterlimit="10"/>
<path d="M5.03004 148.075V136.479M10.0601 142.277H0H10.0601Z" stroke="#EEEEEE" stroke-miterlimit="10"/>
<path d="M5.03004 120.424V108.828M10.0601 114.626H0H10.0601Z" stroke="#EEEEEE" stroke-miterlimit="10"/>
<path d="M5.03004 148.075V136.479M10.0601 142.277H0H10.0601Z" stroke="#EEEEEE" stroke-width="2" stroke-miterlimit="10"/>
<path d="M5.03004 120.424V108.828M10.0601 114.626H0H10.0601Z" stroke="#EEEEEE" stroke-width="2" stroke-miterlimit="10"/>
<path d="M28.2449 148.075V136.479M33.2749 142.277H23.2148H33.2749Z" stroke="#EEEEEE" stroke-miterlimit="10"/>
<path d="M28.2449 120.424V108.828M33.2749 114.626H23.2148H33.2749Z" stroke="#EEEEEE" stroke-miterlimit="10"/>
<path d="M28.2449 148.075V136.479M33.2749 142.277H23.2148H33.2749Z" stroke="#EEEEEE" stroke-width="2" stroke-miterlimit="10"/>
<path d="M28.2449 120.424V108.828M33.2749 114.626H23.2148H33.2749Z" stroke="#EEEEEE" stroke-width="2" stroke-miterlimit="10"/>
<path d="M51.4636 148.075V136.479M56.4937 142.277H46.4336H56.4937Z" stroke="#EEEEEE" stroke-miterlimit="10"/>
<path d="M51.4636 120.424V108.828M56.4937 114.626H46.4336H56.4937Z" stroke="#EEEEEE" stroke-miterlimit="10"/>
<path d="M51.4636 148.075V136.479M56.4937 142.277H46.4336H56.4937Z" stroke="#EEEEEE" stroke-width="2" stroke-miterlimit="10"/>
<path d="M51.4636 120.424V108.828M56.4937 114.626H46.4336H56.4937Z" stroke="#EEEEEE" stroke-width="2" stroke-miterlimit="10"/>
<path d="M74.6785 148.075V136.479M79.7085 142.277H69.6484H79.7085Z" stroke="#EEEEEE" stroke-miterlimit="10"/>
<path d="M74.6785 120.424V108.828M79.7085 114.626H69.6484H79.7085Z" stroke="#EEEEEE" stroke-miterlimit="10"/>
<path d="M74.6785 148.075V136.479M79.7085 142.277H69.6484H79.7085Z" stroke="#EEEEEE" stroke-width="2" stroke-miterlimit="10"/>
<path d="M74.6785 120.424V108.828M79.7085 114.626H69.6484H79.7085Z" stroke="#EEEEEE" stroke-width="2" stroke-miterlimit="10"/>
<path d="M97.8933 148.075V136.479M102.923 142.277H92.8633H102.923Z" stroke="#EEEEEE" stroke-miterlimit="10"/>
<path d="M97.8933 120.424V108.828M102.923 114.626H92.8633H102.923Z" stroke="#EEEEEE" stroke-miterlimit="10"/>
<path d="M97.8933 148.075V136.479M102.923 142.277H92.8633H102.923Z" stroke="#EEEEEE" stroke-width="2" stroke-miterlimit="10"/>
<path d="M97.8933 120.424V108.828M102.923 114.626H92.8633H102.923Z" stroke="#EEEEEE" stroke-width="2" stroke-miterlimit="10"/>
<path d="M121.108 148.075V136.479M126.138 142.277H116.078H126.138Z" stroke="#EEEEEE" stroke-miterlimit="10"/>
<path d="M121.108 120.424V108.828M126.138 114.626H116.078H126.138Z" stroke="#EEEEEE" stroke-miterlimit="10"/>
<path d="M121.108 148.075V136.479M126.138 142.277H116.078H126.138Z" stroke="#EEEEEE" stroke-width="2" stroke-miterlimit="10"/>
<path d="M121.108 120.424V108.828M126.138 114.626H116.078H126.138Z" stroke="#EEEEEE" stroke-width="2" stroke-miterlimit="10"/>
<path d="M144.323 148.075V136.479M149.353 142.277H139.293H149.353Z" stroke="#EEEEEE" stroke-miterlimit="10"/>
<path d="M144.323 120.424V108.828M149.353 114.626H139.293H149.353Z" stroke="#EEEEEE" stroke-miterlimit="10"/>
<path d="M144.323 148.075V136.479M149.353 142.277H139.293H149.353Z" stroke="#EEEEEE" stroke-width="2" stroke-miterlimit="10"/>
<path d="M144.323 120.424V108.828M149.353 114.626H139.293H149.353Z" stroke="#EEEEEE" stroke-width="2" stroke-miterlimit="10"/>
<path d="M5.03004 93.6627V82.0664M10.0601 87.8646H0H10.0601Z" stroke="#EEEEEE" stroke-miterlimit="10"/>
<path d="M5.03004 66.0084V54.4121M10.0601 60.2103H0H10.0601Z" stroke="#EEEEEE" stroke-miterlimit="10"/>
<path d="M5.03004 93.6627V82.0664M10.0601 87.8646H0H10.0601Z" stroke="#EEEEEE" stroke-width="2" stroke-miterlimit="10"/>
<path d="M5.03004 66.0084V54.4121M10.0601 60.2103H0H10.0601Z" stroke="#EEEEEE" stroke-width="2" stroke-miterlimit="10"/>
<path d="M28.2449 93.6588V82.0625M33.2749 87.8607H23.2148H33.2749Z" stroke="#EEEEEE" stroke-miterlimit="10"/>
<path d="M28.2449 66.0084V54.4121M33.2749 60.2103H23.2148H33.2749Z" stroke="#EEEEEE" stroke-miterlimit="10"/>
<path d="M28.2449 93.6588V82.0625M33.2749 87.8607H23.2148H33.2749Z" stroke="#EEEEEE" stroke-width="2" stroke-miterlimit="10"/>
<path d="M28.2449 66.0084V54.4121M33.2749 60.2103H23.2148H33.2749Z" stroke="#EEEEEE" stroke-width="2" stroke-miterlimit="10"/>
<path d="M51.4636 93.6588V82.0625M56.4937 87.8607H46.4336H56.4937Z" stroke="#EEEEEE" stroke-miterlimit="10"/>
<path d="M51.4636 66.0084V54.4121M56.4937 60.2103H46.4336H56.4937Z" stroke="#EEEEEE" stroke-miterlimit="10"/>
<path d="M51.4636 93.6588V82.0625M56.4937 87.8607H46.4336H56.4937Z" stroke="#EEEEEE" stroke-width="2" stroke-miterlimit="10"/>
<path d="M51.4636 66.0084V54.4121M56.4937 60.2103H46.4336H56.4937Z" stroke="#EEEEEE" stroke-width="2" stroke-miterlimit="10"/>
<path d="M74.6785 93.6627V82.0664M79.7085 87.8646H69.6484H79.7085Z" stroke="#EEEEEE" stroke-miterlimit="10"/>
<path d="M74.6785 66.0084V54.4121M79.7085 60.2103H69.6484H79.7085Z" stroke="#EEEEEE" stroke-miterlimit="10"/>
<path d="M74.6785 93.6627V82.0664M79.7085 87.8646H69.6484H79.7085Z" stroke="#EEEEEE" stroke-width="2" stroke-miterlimit="10"/>
<path d="M74.6785 66.0084V54.4121M79.7085 60.2103H69.6484H79.7085Z" stroke="#EEEEEE" stroke-width="2" stroke-miterlimit="10"/>
<path d="M97.8933 93.6627V82.0664M102.923 87.8646H92.8633H102.923Z" stroke="#EEEEEE" stroke-miterlimit="10"/>
<path d="M97.8933 66.0084V54.4121M102.923 60.2103H92.8633H102.923Z" stroke="#EEEEEE" stroke-miterlimit="10"/>
<path d="M97.8933 93.6627V82.0664M102.923 87.8646H92.8633H102.923Z" stroke="#EEEEEE" stroke-width="2" stroke-miterlimit="10"/>
<path d="M97.8933 66.0084V54.4121M102.923 60.2103H92.8633H102.923Z" stroke="#EEEEEE" stroke-width="2" stroke-miterlimit="10"/>
<path d="M121.108 93.6588V82.0625M126.138 87.8607H116.078H126.138Z" stroke="#EEEEEE" stroke-miterlimit="10"/>
<path d="M121.108 66.0084V54.4121M126.138 60.2103H116.078H126.138Z" stroke="#EEEEEE" stroke-miterlimit="10"/>
<path d="M121.108 93.6588V82.0625M126.138 87.8607H116.078H126.138Z" stroke="#EEEEEE" stroke-width="2" stroke-miterlimit="10"/>
<path d="M121.108 66.0084V54.4121M126.138 60.2103H116.078H126.138Z" stroke="#EEEEEE" stroke-width="2" stroke-miterlimit="10"/>
<path d="M144.323 93.6588V82.0625M149.353 87.8607H139.293H149.353Z" stroke="#EEEEEE" stroke-miterlimit="10"/>
<path d="M144.323 66.0084V54.4121M149.353 60.2103H139.293H149.353Z" stroke="#EEEEEE" stroke-miterlimit="10"/>
<path d="M144.323 93.6588V82.0625M149.353 87.8607H139.293H149.353Z" stroke="#EEEEEE" stroke-width="2" stroke-miterlimit="10"/>
<path d="M144.323 66.0084V54.4121M149.353 60.2103H139.293H149.353Z" stroke="#EEEEEE" stroke-width="2" stroke-miterlimit="10"/>
<path d="M5.03004 202.493V190.896M10.0601 196.695H0H10.0601Z" stroke="#EEEEEE" stroke-miterlimit="10"/>
<path d="M5.03004 174.839V163.242M10.0601 169.04H0H10.0601Z" stroke="#EEEEEE" stroke-miterlimit="10"/>
<path d="M5.03004 202.493V190.896M10.0601 196.695H0H10.0601Z" stroke="#EEEEEE" stroke-width="2" stroke-miterlimit="10"/>
<path d="M5.03004 174.839V163.242M10.0601 169.04H0H10.0601Z" stroke="#EEEEEE" stroke-width="2" stroke-miterlimit="10"/>
<path d="M28.2449 202.493V190.896M33.2749 196.695H23.2148H33.2749Z" stroke="#EEEEEE" stroke-miterlimit="10"/>
<path d="M28.2449 174.839V163.242M33.2749 169.04H23.2148H33.2749Z" stroke="#EEEEEE" stroke-miterlimit="10"/>
<path d="M28.2449 202.493V190.896M33.2749 196.695H23.2148H33.2749Z" stroke="#EEEEEE" stroke-width="2" stroke-miterlimit="10"/>
<path d="M28.2449 174.839V163.242M33.2749 169.04H23.2148H33.2749Z" stroke="#EEEEEE" stroke-width="2" stroke-miterlimit="10"/>
<path d="M51.4636 202.493V190.896M56.4937 196.695H46.4336H56.4937Z" stroke="#EEEEEE" stroke-miterlimit="10"/>
<path d="M51.4636 174.839V163.242M56.4937 169.04H46.4336H56.4937Z" stroke="#EEEEEE" stroke-miterlimit="10"/>
<path d="M51.4636 202.493V190.896M56.4937 196.695H46.4336H56.4937Z" stroke="#EEEEEE" stroke-width="2" stroke-miterlimit="10"/>
<path d="M51.4636 174.839V163.242M56.4937 169.04H46.4336H56.4937Z" stroke="#EEEEEE" stroke-width="2" stroke-miterlimit="10"/>
<path d="M74.6785 202.493V190.896M79.7085 196.695H69.6484H79.7085Z" stroke="#EEEEEE" stroke-miterlimit="10"/>
<path d="M74.6785 174.839V163.242M79.7085 169.04H69.6484H79.7085Z" stroke="#EEEEEE" stroke-miterlimit="10"/>
<path d="M74.6785 202.493V190.896M79.7085 196.695H69.6484H79.7085Z" stroke="#EEEEEE" stroke-width="2" stroke-miterlimit="10"/>
<path d="M74.6785 174.839V163.242M79.7085 169.04H69.6484H79.7085Z" stroke="#EEEEEE" stroke-width="2" stroke-miterlimit="10"/>
<path d="M97.8933 202.493V190.896M102.923 196.695H92.8633H102.923Z" stroke="#EEEEEE" stroke-miterlimit="10"/>
<path d="M97.8933 174.839V163.242M102.923 169.04H92.8633H102.923Z" stroke="#EEEEEE" stroke-miterlimit="10"/>
<path d="M97.8933 202.493V190.896M102.923 196.695H92.8633H102.923Z" stroke="#EEEEEE" stroke-width="2" stroke-miterlimit="10"/>
<path d="M97.8933 174.839V163.242M102.923 169.04H92.8633H102.923Z" stroke="#EEEEEE" stroke-width="2" stroke-miterlimit="10"/>
<path d="M121.108 202.493V190.896M126.138 196.695H116.078H126.138Z" stroke="#EEEEEE" stroke-miterlimit="10"/>
<path d="M121.108 174.839V163.242M126.138 169.04H116.078H126.138Z" stroke="#EEEEEE" stroke-miterlimit="10"/>
<path d="M121.108 202.493V190.896M126.138 196.695H116.078H126.138Z" stroke="#EEEEEE" stroke-width="2" stroke-miterlimit="10"/>
<path d="M121.108 174.839V163.242M126.138 169.04H116.078H126.138Z" stroke="#EEEEEE" stroke-width="2" stroke-miterlimit="10"/>
<path d="M144.323 202.493V190.896M149.353 196.695H139.293H149.353Z" stroke="#EEEEEE" stroke-miterlimit="10"/>
<path d="M144.323 174.839V163.242M149.353 169.04H139.293H149.353Z" stroke="#EEEEEE" stroke-miterlimit="10"/>
<path d="M144.323 202.493V190.896M149.353 196.695H139.293H149.353Z" stroke="#EEEEEE" stroke-width="2" stroke-miterlimit="10"/>
<path d="M144.323 174.839V163.242M149.353 169.04H139.293H149.353Z" stroke="#EEEEEE" stroke-width="2" stroke-miterlimit="10"/>
</svg>
