<svg width="282" height="54" viewBox="0 0 282 54" fill="none" xmlns="http://www.w3.org/2000/svg">
<path d="M115.148 40.252C112.796 40.252 110.636 39.7 108.668 38.596C106.7 37.492 105.14 35.968 103.988 34.024C102.836 32.056 102.26 29.836 102.26 27.364C102.26 24.916 102.836 22.72 103.988 20.776C105.14 18.808 106.7 17.272 108.668 16.168C110.636 15.064 112.796 14.512 115.148 14.512C117.524 14.512 119.684 15.064 121.628 16.168C123.596 17.272 125.144 18.808 126.272 20.776C127.424 22.72 128 24.916 128 27.364C128 29.836 127.424 32.056 126.272 34.024C125.144 35.968 123.596 37.492 121.628 38.596C119.66 39.7 117.5 40.252 115.148 40.252ZM115.148 35.752C116.66 35.752 117.992 35.416 119.144 34.744C120.296 34.048 121.196 33.064 121.844 31.792C122.492 30.52 122.816 29.044 122.816 27.364C122.816 25.684 122.492 24.22 121.844 22.972C121.196 21.7 120.296 20.728 119.144 20.056C117.992 19.384 116.66 19.048 115.148 19.048C113.636 19.048 112.292 19.384 111.116 20.056C109.964 20.728 109.064 21.7 108.416 22.972C107.768 24.22 107.444 25.684 107.444 27.364C107.444 29.044 107.768 30.52 108.416 31.792C109.064 33.064 109.964 34.048 111.116 34.744C112.292 35.416 113.636 35.752 115.148 35.752ZM150.578 20.056V40H145.502V37.48C144.854 38.344 144.002 39.028 142.946 39.532C141.914 40.012 140.786 40.252 139.562 40.252C138.002 40.252 136.622 39.928 135.422 39.28C134.222 38.608 133.274 37.636 132.578 36.364C131.906 35.068 131.57 33.532 131.57 31.756V20.056H136.61V31.036C136.61 32.62 137.006 33.844 137.798 34.708C138.59 35.548 139.67 35.968 141.038 35.968C142.43 35.968 143.522 35.548 144.314 34.708C145.106 33.844 145.502 32.62 145.502 31.036V20.056H150.578ZM160.59 23.152C161.238 22.096 162.078 21.268 163.11 20.668C164.166 20.068 165.366 19.768 166.71 19.768V25.06H165.378C163.794 25.06 162.594 25.432 161.778 26.176C160.986 26.92 160.59 28.216 160.59 30.064V40H155.55V20.056H160.59V23.152ZM195.783 14.872V18.94H189.087V40H184.047V18.94H177.351V14.872H195.783ZM218.001 29.596C218.001 30.316 217.953 30.964 217.857 31.54H203.277C203.397 32.98 203.901 34.108 204.789 34.924C205.677 35.74 206.769 36.148 208.065 36.148C209.937 36.148 211.269 35.344 212.061 33.736H217.497C216.921 35.656 215.817 37.24 214.185 38.488C212.553 39.712 210.549 40.324 208.173 40.324C206.253 40.324 204.525 39.904 202.989 39.064C201.477 38.2 200.289 36.988 199.425 35.428C198.585 33.868 198.165 32.068 198.165 30.028C198.165 27.964 198.585 26.152 199.425 24.592C200.265 23.032 201.441 21.832 202.953 20.992C204.465 20.152 206.205 19.732 208.173 19.732C210.069 19.732 211.761 20.14 213.249 20.956C214.761 21.772 215.925 22.936 216.741 24.448C217.581 25.936 218.001 27.652 218.001 29.596ZM212.781 28.156C212.757 26.86 212.289 25.828 211.377 25.06C210.465 24.268 209.349 23.872 208.029 23.872C206.781 23.872 205.725 24.256 204.861 25.024C204.021 25.768 203.505 26.812 203.313 28.156H212.781ZM220.383 29.956C220.383 27.94 220.779 26.152 221.571 24.592C222.387 23.032 223.479 21.832 224.847 20.992C226.239 20.152 227.787 19.732 229.491 19.732C230.979 19.732 232.275 20.032 233.379 20.632C234.507 21.232 235.407 21.988 236.079 22.9V20.056H241.155V40H236.079V37.084C235.431 38.02 234.531 38.8 233.379 39.424C232.251 40.024 230.943 40.324 229.455 40.324C227.775 40.324 226.239 39.892 224.847 39.028C223.479 38.164 222.387 36.952 221.571 35.392C220.779 33.808 220.383 31.996 220.383 29.956ZM236.079 30.028C236.079 28.804 235.839 27.76 235.359 26.896C234.879 26.008 234.231 25.336 233.415 24.88C232.599 24.4 231.723 24.16 230.787 24.16C229.851 24.16 228.987 24.388 228.195 24.844C227.403 25.3 226.755 25.972 226.251 26.86C225.771 27.724 225.531 28.756 225.531 29.956C225.531 31.156 225.771 32.212 226.251 33.124C226.755 34.012 227.403 34.696 228.195 35.176C229.011 35.656 229.875 35.896 230.787 35.896C231.723 35.896 232.599 35.668 233.415 35.212C234.231 34.732 234.879 34.06 235.359 33.196C235.839 32.308 236.079 31.252 236.079 30.028ZM270.846 19.768C273.294 19.768 275.262 20.524 276.75 22.036C278.262 23.524 279.018 25.612 279.018 28.3V40H273.978V28.984C273.978 27.424 273.582 26.236 272.79 25.42C271.998 24.58 270.918 24.16 269.55 24.16C268.182 24.16 267.09 24.58 266.274 25.42C265.482 26.236 265.086 27.424 265.086 28.984V40H260.046V28.984C260.046 27.424 259.65 26.236 258.858 25.42C258.066 24.58 256.986 24.16 255.618 24.16C254.226 24.16 253.122 24.58 252.306 25.42C251.514 26.236 251.118 27.424 251.118 28.984V40H246.078V20.056H251.118V22.468C251.766 21.628 252.594 20.968 253.602 20.488C254.634 20.008 255.762 19.768 256.986 19.768C258.546 19.768 259.938 20.104 261.162 20.776C262.386 21.424 263.334 22.36 264.006 23.584C264.654 22.432 265.59 21.508 266.814 20.812C268.062 20.116 269.406 19.768 270.846 19.768Z" fill="#12062E"/>
<path d="M78.0607 28.0607C78.6465 27.4749 78.6465 26.5251 78.0607 25.9393L68.5147 16.3934C67.9289 15.8076 66.9792 15.8076 66.3934 16.3934C65.8076 16.9792 65.8076 17.9289 66.3934 18.5147L74.8787 27L66.3934 35.4853C65.8076 36.0711 65.8076 37.0208 66.3934 37.6066C66.9792 38.1924 67.9289 38.1924 68.5147 37.6066L78.0607 28.0607ZM-70 28.5H77V25.5H-70V28.5Z" fill="#12062E"/>
</svg>
