<svg width="36" height="36" viewBox="0 0 36 36" fill="none" xmlns="http://www.w3.org/2000/svg">
<g clip-path="url(#clip0_453_35232)">
<path d="M18 3C11.7 3 6 7.83 6 15.3C6 20.07 9.675 25.68 17.01 32.145C17.58 32.64 18.435 32.64 19.005 32.145C26.325 25.68 30 20.07 30 15.3C30 7.83 24.3 3 18 3ZM18 18C16.35 18 15 16.65 15 15C15 13.35 16.35 12 18 12C19.65 12 21 13.35 21 15C21 16.65 19.65 18 18 18Z" fill="#12062E"/>
</g>
<defs>
<clipPath id="clip0_453_35232">
<rect width="36" height="36" fill="white"/>
</clipPath>
</defs>
</svg>
