<svg width="104" height="104" viewBox="0 0 104 104" fill="none" xmlns="http://www.w3.org/2000/svg">
<path d="M30.3842 44.2297H26.286L24.0533 55.7054H27.6932C30.095 55.7054 31.889 55.2504 33.0753 54.3372C34.242 53.4402 35.0383 51.9159 35.4445 49.8002C35.8475 47.7689 35.6622 46.3292 34.9212 45.4842C34.1575 44.6554 32.6495 44.2297 30.3842 44.2297ZM52 24.6484C23.2733 24.6484 0 36.9042 0 52.0004C0 67.0967 23.2733 79.3524 52 79.3524C80.7267 79.3524 104 67.0967 104 52.0004C104 36.9042 80.7267 24.6484 52 24.6484ZM37.8658 56.9437C36.7478 58.0259 35.3795 58.8384 33.904 59.3259C32.448 59.7842 30.589 60.0377 28.3367 60.0377H23.205L21.801 67.3177H15.8242L21.1575 39.9137H32.6333C36.088 39.9137 38.61 40.8107 40.1993 42.6209C41.7755 44.4312 42.2662 46.9727 41.6195 50.2227C41.3855 51.5097 40.9273 52.7447 40.3033 53.8984C39.676 54.9937 38.883 56.0142 37.8625 56.9437H37.8658ZM55.3182 60.0377L57.6713 47.9054C57.941 46.5307 57.8402 45.5882 57.3625 45.0747C56.9075 44.5839 55.9065 44.3304 54.3855 44.3304H49.6633L46.618 60.0377H40.677L46.007 32.6174H51.9318L50.5115 39.9137H55.7927C59.1305 39.9137 61.412 40.4889 62.6665 41.6394C63.9372 42.8094 64.3077 44.6847 63.8202 47.2782L61.3275 60.0409L55.3182 60.0377ZM88.2213 50.2227C87.9873 51.5097 87.5452 52.7447 86.905 53.8984C86.294 54.9937 85.4848 56.0142 84.4838 56.9437C83.3495 58.0097 81.9975 58.8384 80.5057 59.3259C79.0497 59.7842 77.1875 60.0377 74.9385 60.0377H69.8263L68.406 67.3177H62.4292L67.7625 39.9137H79.2383C82.693 39.9137 85.215 40.8107 86.8042 42.6404C88.3805 44.4344 88.868 46.9727 88.2213 50.2227ZM76.986 44.2297H72.904L70.6713 55.7054H74.295C76.713 55.7054 78.507 55.2504 79.677 54.3372C80.86 53.4402 81.6562 51.9159 82.0657 49.8002C82.4687 47.7689 82.2835 46.3292 81.5198 45.4842C80.7788 44.6554 79.2545 44.2297 76.986 44.2297Z" fill="white"/>
</svg>
