<svg width="380" height="139" viewBox="0 0 380 139" fill="none" xmlns="http://www.w3.org/2000/svg">
<path d="M69.416 42.072C69.416 47.2773 68.2213 52.056 65.832 56.408C63.4427 60.6747 59.7733 64.1307 54.824 66.776C49.8747 69.4213 43.7307 70.744 36.392 70.744H22.824V103H0.936V13.144H36.392C43.56 13.144 49.6187 14.3813 54.568 16.856C59.5173 19.3307 63.2293 22.744 65.704 27.096C68.1787 31.448 69.416 36.44 69.416 42.072ZM34.728 53.336C38.9093 53.336 42.024 52.3547 44.072 50.392C46.12 48.4293 47.144 45.656 47.144 42.072C47.144 38.488 46.12 35.7147 44.072 33.752C42.024 31.7893 38.9093 30.808 34.728 30.808H22.824V53.336H34.728ZM102.699 8.28V103H80.811V8.28H102.699ZM114.209 67.16C114.209 59.8213 115.574 53.3787 118.305 47.832C121.121 42.2853 124.918 38.0187 129.697 35.032C134.476 32.0453 139.809 30.552 145.697 30.552C150.732 30.552 155.126 31.576 158.881 33.624C162.721 35.672 165.665 38.36 167.713 41.688V31.576H189.601V103H167.713V92.888C165.58 96.216 162.593 98.904 158.753 100.952C154.998 103 150.604 104.024 145.569 104.024C139.766 104.024 134.476 102.531 129.697 99.544C124.918 96.472 121.121 92.1627 118.305 86.616C115.574 80.984 114.209 74.4987 114.209 67.16ZM167.713 67.288C167.713 61.8267 166.177 57.5173 163.105 54.36C160.118 51.2027 156.449 49.624 152.097 49.624C147.745 49.624 144.033 51.2027 140.961 54.36C137.974 57.432 136.481 61.6987 136.481 67.16C136.481 72.6213 137.974 76.9733 140.961 80.216C144.033 83.3733 147.745 84.952 152.097 84.952C156.449 84.952 160.118 83.3733 163.105 80.216C166.177 77.0587 167.713 72.7493 167.713 67.288ZM248.956 30.808C257.319 30.808 263.975 33.5387 268.924 39C273.959 44.376 276.476 51.8 276.476 61.272V103H254.716V64.216C254.716 59.4373 253.479 55.7253 251.004 53.08C248.529 50.4347 245.201 49.112 241.02 49.112C236.839 49.112 233.511 50.4347 231.036 53.08C228.561 55.7253 227.324 59.4373 227.324 64.216V103H205.436V31.576H227.324V41.048C229.543 37.8907 232.529 35.416 236.284 33.624C240.039 31.7467 244.263 30.808 248.956 30.808ZM335.206 30.808C343.569 30.808 350.225 33.5387 355.174 39C360.209 44.376 362.726 51.8 362.726 61.272V103H340.966V64.216C340.966 59.4373 339.729 55.7253 337.254 53.08C334.779 50.4347 331.451 49.112 327.27 49.112C323.089 49.112 319.761 50.4347 317.286 53.08C314.811 55.7253 313.574 59.4373 313.574 64.216V103H291.686V31.576H313.574V41.048C315.793 37.8907 318.779 35.416 322.534 33.624C326.289 31.7467 330.513 30.808 335.206 30.808ZM388.944 24.152C385.104 24.152 381.947 23.0427 379.472 20.824C377.083 18.52 375.888 15.704 375.888 12.376C375.888 8.96266 377.083 6.14666 379.472 3.92799C381.947 1.62399 385.104 0.471992 388.944 0.471992C392.699 0.471992 395.771 1.62399 398.16 3.92799C400.635 6.14666 401.872 8.96266 401.872 12.376C401.872 15.704 400.635 18.52 398.16 20.824C395.771 23.0427 392.699 24.152 388.944 24.152ZM399.824 31.576V103H377.936V31.576H399.824ZM459.206 30.808C467.569 30.808 474.225 33.5387 479.174 39C484.209 44.376 486.726 51.8 486.726 61.272V103H464.966V64.216C464.966 59.4373 463.729 55.7253 461.254 53.08C458.779 50.4347 455.451 49.112 451.27 49.112C447.089 49.112 443.761 50.4347 441.286 53.08C438.811 55.7253 437.574 59.4373 437.574 64.216V103H415.686V31.576H437.574V41.048C439.793 37.8907 442.779 35.416 446.534 33.624C450.289 31.7467 454.513 30.808 459.206 30.808ZM529.072 30.552C534.107 30.552 538.501 31.576 542.256 33.624C546.096 35.672 549.04 38.36 551.088 41.688V31.576H572.976V102.872C572.976 109.443 571.653 115.373 569.008 120.664C566.448 126.04 562.48 130.307 557.104 133.464C551.813 136.621 545.2 138.2 537.264 138.2C526.683 138.2 518.107 135.683 511.536 130.648C504.965 125.699 501.211 118.957 500.272 110.424H521.904C522.587 113.155 524.208 115.288 526.768 116.824C529.328 118.445 532.485 119.256 536.24 119.256C540.763 119.256 544.347 117.933 546.992 115.288C549.723 112.728 551.088 108.589 551.088 102.872V92.76C548.955 96.088 546.011 98.8187 542.256 100.952C538.501 103 534.107 104.024 529.072 104.024C523.184 104.024 517.851 102.531 513.072 99.544C508.293 96.472 504.496 92.1627 501.68 86.616C498.949 80.984 497.584 74.4987 497.584 67.16C497.584 59.8213 498.949 53.3787 501.68 47.832C504.496 42.2853 508.293 38.0187 513.072 35.032C517.851 32.0453 523.184 30.552 529.072 30.552ZM551.088 67.288C551.088 61.8267 549.552 57.5173 546.48 54.36C543.493 51.2027 539.824 49.624 535.472 49.624C531.12 49.624 527.408 51.2027 524.336 54.36C521.349 57.432 519.856 61.6987 519.856 67.16C519.856 72.6213 521.349 76.9733 524.336 80.216C527.408 83.3733 531.12 84.952 535.472 84.952C539.824 84.952 543.493 83.3733 546.48 80.216C549.552 77.0587 551.088 72.7493 551.088 67.288Z" fill="#12062E"/>
</svg>
