<svg width="146" height="50" viewBox="0 0 146 50" fill="none" xmlns="http://www.w3.org/2000/svg">
<rect width="146" height="50" rx="10" fill="white"/>
<path d="M34.7331 25.8266C34.7459 24.83 35.0106 23.8529 35.5026 22.9861C35.9945 22.1193 36.6977 21.3911 37.5468 20.8691C37.0074 20.0988 36.2958 19.4649 35.4686 19.0177C34.6414 18.5705 33.7213 18.3223 32.7814 18.2929C30.7764 18.0824 28.8327 19.4926 27.811 19.4926C26.7695 19.4926 25.1965 18.3138 23.5025 18.3486C22.4068 18.384 21.339 18.7027 20.4031 19.2734C19.4672 19.8442 18.695 20.6477 18.162 21.6057C15.8528 25.6036 17.5752 31.4792 19.7872 34.7108C20.8939 36.2933 22.1873 38.0609 23.8797 37.9982C25.5358 37.9295 26.1544 36.9422 28.1534 36.9422C30.134 36.9422 30.7143 37.9982 32.441 37.9584C34.2181 37.9295 35.3378 36.3689 36.4056 34.7715C37.2008 33.6439 37.8127 32.3977 38.2186 31.0791C37.1861 30.6424 36.3051 29.9115 35.6853 28.9774C35.0654 28.0434 34.7343 26.9476 34.7331 25.8266Z" fill="black"/>
<path d="M31.471 16.1677C32.44 15.0045 32.9173 13.5095 32.8018 12C31.3214 12.1555 29.954 12.863 28.972 13.9815C28.4918 14.528 28.1241 15.1637 27.8898 15.8523C27.6555 16.541 27.5592 17.2691 27.6064 17.995C28.3468 18.0026 29.0794 17.8421 29.7488 17.5256C30.4182 17.2091 31.0071 16.7448 31.471 16.1677Z" fill="black"/>
<path d="M57.5813 31.4078H52.5543L51.347 34.8909H49.2178L53.9793 22.0042H56.1915L60.9531 34.8909H58.7875L57.5813 31.4078ZM53.0749 29.8005H57.0597L55.0953 24.1476H55.0403L53.0749 29.8005Z" fill="black"/>
<path d="M71.2361 30.195C71.2361 33.1147 69.6368 34.9906 67.2234 34.9906C66.612 35.0218 66.004 34.8842 65.469 34.5935C64.9339 34.3028 64.4935 33.8707 64.1981 33.3468H64.1524V38.0004H62.1787V25.4968H64.0892V27.0595H64.1255C64.4345 26.538 64.8824 26.1082 65.4215 25.8157C65.9606 25.5232 66.5708 25.379 67.1871 25.3985C69.6275 25.3985 71.2361 27.2834 71.2361 30.195ZM69.2075 30.195C69.2075 28.2928 68.2014 27.0422 66.6665 27.0422C65.1585 27.0422 64.1441 28.3192 64.1441 30.195C64.1441 32.0881 65.1585 33.3559 66.6665 33.3559C68.2014 33.3559 69.2075 32.1145 69.2075 30.195Z" fill="black"/>
<path d="M81.8191 30.195C81.8191 33.1147 80.2199 34.9906 77.8064 34.9906C77.1951 35.0218 76.587 34.8842 76.052 34.5935C75.5169 34.3028 75.0765 33.8707 74.7811 33.3468H74.7354V38.0004H72.7617V25.4968H74.6721V27.0595H74.7084C75.0174 26.538 75.4653 26.1082 76.0045 25.8157C76.5436 25.5232 77.1538 25.379 77.7701 25.3985C80.2105 25.3985 81.8191 27.2834 81.8191 30.195ZM79.7905 30.195C79.7905 28.2928 78.7844 27.0422 77.2495 27.0422C75.7415 27.0422 74.7271 28.3192 74.7271 30.195C74.7271 32.0881 75.7415 33.3559 77.2495 33.3559C78.7844 33.3559 79.7905 32.1144 79.7905 30.195H79.7905Z" fill="black"/>
<path d="M88.8134 31.3009C88.9596 32.5788 90.2301 33.4179 91.9663 33.4179C93.6299 33.4179 94.8267 32.5788 94.8267 31.4265C94.8267 30.4262 94.1049 29.8273 92.3957 29.4169L90.6865 29.0145C88.2647 28.443 87.1404 27.3363 87.1404 25.5405C87.1404 23.317 89.1235 21.7898 91.9393 21.7898C94.7261 21.7898 96.6365 23.317 96.7008 25.5405H94.7085C94.5892 24.2545 93.5012 23.4782 91.9113 23.4782C90.3213 23.4782 89.2334 24.2636 89.2334 25.4067C89.2334 26.3178 89.9283 26.8539 91.6281 27.2643L93.0812 27.6129C95.7871 28.2382 96.9114 29.3003 96.9114 31.1853C96.9114 33.5962 94.946 35.1062 91.82 35.1062C88.8953 35.1062 86.9205 33.6317 86.793 31.3008L88.8134 31.3009Z" fill="black"/>
<path d="M101.171 23.2722V25.4957H103V27.0229H101.171V32.2025C101.171 33.0072 101.537 33.3822 102.341 33.3822C102.558 33.3785 102.775 33.3636 102.99 33.3376V34.8557C102.629 34.9216 102.262 34.9515 101.894 34.9448C99.9473 34.9448 99.1881 34.2304 99.1881 32.4082V27.0229H97.79V25.4957H99.1881V23.2722H101.171Z" fill="black"/>
<path d="M104.059 30.1934C104.059 27.2373 105.84 25.3796 108.619 25.3796C111.407 25.3796 113.18 27.2372 113.18 30.1934C113.18 33.1577 111.416 35.0072 108.619 35.0072C105.823 35.0072 104.059 33.1577 104.059 30.1934ZM111.169 30.1934C111.169 28.1656 110.218 26.9687 108.619 26.9687C107.02 26.9687 106.07 28.1747 106.07 30.1934C106.07 32.2294 107.02 33.4171 108.619 33.4171C110.218 33.4171 111.169 32.2294 111.169 30.1934H111.169Z" fill="black"/>
<path d="M114.808 25.4967H116.69V27.0959H116.736C116.863 26.5964 117.163 26.155 117.584 25.8459C118.005 25.5367 118.522 25.3787 119.049 25.3984C119.276 25.3976 119.503 25.4217 119.725 25.4703V27.2742C119.438 27.1885 119.138 27.1491 118.838 27.1577C118.551 27.1463 118.265 27.1957 118 27.3025C117.735 27.4093 117.496 27.5709 117.301 27.7762C117.105 27.9816 116.958 28.2258 116.868 28.4922C116.778 28.7586 116.749 29.0407 116.781 29.3193V34.8922H114.808L114.808 25.4967Z" fill="black"/>
<path d="M128.825 32.1311C128.559 33.8367 126.86 35.0072 124.685 35.0072C121.888 35.0072 120.151 33.1759 120.151 30.238C120.151 27.291 121.897 25.3796 124.602 25.3796C127.262 25.3796 128.935 27.1653 128.935 30.014V30.6748H122.144V30.7913C122.112 31.1371 122.157 31.4855 122.274 31.8132C122.391 32.141 122.578 32.4407 122.822 32.6924C123.067 32.9441 123.364 33.142 123.693 33.2731C124.022 33.4042 124.375 33.4654 124.73 33.4526C125.197 33.4953 125.665 33.3897 126.065 33.1516C126.465 32.9135 126.776 32.5556 126.951 32.1311L128.825 32.1311ZM122.153 29.3269H126.96C126.978 29.016 126.93 28.7049 126.819 28.4131C126.707 28.1213 126.536 27.855 126.314 27.6311C126.093 27.4072 125.826 27.2304 125.532 27.1119C125.237 26.9934 124.92 26.9357 124.602 26.9423C124.28 26.9405 123.962 27.0008 123.664 27.1199C123.367 27.239 123.097 27.4144 122.869 27.6361C122.641 27.8578 122.461 28.1214 122.338 28.4116C122.215 28.7018 122.152 29.0129 122.153 29.3269V29.3269Z" fill="black"/>
<path d="M52.8271 12.3059C53.2408 12.2768 53.6561 12.3379 54.0428 12.4847C54.4295 12.6315 54.778 12.8603 55.0633 13.1546C55.3485 13.4489 55.5633 13.8015 55.6923 14.1867C55.8212 14.572 55.861 14.9805 55.8088 15.3826C55.8088 17.3608 54.7147 18.4979 52.8271 18.4979H50.5381V12.3059H52.8271ZM51.5223 17.6222H52.7171C53.0128 17.6395 53.3087 17.5921 53.5833 17.4836C53.8578 17.375 54.1042 17.208 54.3044 16.9947C54.5046 16.7813 54.6536 16.5271 54.7405 16.2504C54.8274 15.9737 54.8501 15.6816 54.807 15.3952C54.847 15.11 54.822 14.8197 54.7337 14.545C54.6455 14.2704 54.4961 14.0182 54.2964 13.8066C54.0966 13.595 53.8515 13.4291 53.5784 13.3209C53.3054 13.2128 53.0113 13.1649 52.7171 13.1809H51.5223V17.6222Z" fill="black"/>
<path d="M56.9208 16.158C56.8908 15.8509 56.9267 15.541 57.0264 15.2483C57.126 14.9556 57.2872 14.6865 57.4996 14.4582C57.7119 14.2299 57.9707 14.0475 58.2594 13.9227C58.5482 13.7979 58.8604 13.7334 59.1761 13.7334C59.4918 13.7334 59.804 13.7979 60.0927 13.9227C60.3815 14.0475 60.6403 14.2299 60.8526 14.4582C61.065 14.6865 61.2262 14.9556 61.3258 15.2483C61.4255 15.541 61.4614 15.8509 61.4314 16.158C61.462 16.4654 61.4265 16.7756 61.3271 17.0688C61.2277 17.362 61.0666 17.6317 60.8542 17.8604C60.6418 18.0891 60.3828 18.2719 60.0938 18.397C59.8048 18.5221 59.4922 18.5867 59.1761 18.5867C58.86 18.5867 58.5474 18.5221 58.2584 18.397C57.9694 18.2719 57.7104 18.0891 57.498 17.8604C57.2856 17.6317 57.1245 17.362 57.0251 17.0688C56.9257 16.7756 56.8902 16.4654 56.9208 16.158ZM60.4606 16.158C60.4606 15.1451 59.9949 14.5527 59.1777 14.5527C58.3573 14.5527 57.8958 15.1451 57.8958 16.158C57.8958 17.179 58.3573 17.7668 59.1777 17.7668C59.9949 17.7668 60.4606 17.1749 60.4606 16.158H60.4606Z" fill="black"/>
<path d="M67.4266 18.4966H66.4476L65.4592 15.055H65.3845L64.4002 18.4966H63.4305L62.1123 13.8237H63.0696L63.9263 17.3894H63.9968L64.98 13.8237H65.8854L66.8687 17.3894H66.9433L67.7959 13.8237H68.7397L67.4266 18.4966Z" fill="black"/>
<path d="M69.8486 13.824H70.7572V14.5664H70.8277C70.9473 14.2998 71.1491 14.0763 71.4049 13.927C71.6608 13.7778 71.9579 13.7103 72.2548 13.7338C72.4875 13.7168 72.7211 13.751 72.9384 13.8342C73.1557 13.9173 73.3511 14.0471 73.5101 14.214C73.669 14.3809 73.7875 14.5807 73.8568 14.7984C73.926 15.0161 73.9442 15.2463 73.9101 15.4719V18.4969H72.9663V15.7035C72.9663 14.9525 72.6323 14.5791 71.9343 14.5791C71.7763 14.5719 71.6186 14.5981 71.472 14.6561C71.3254 14.714 71.1933 14.8022 71.0849 14.9147C70.9764 15.0272 70.8941 15.1613 70.8436 15.3077C70.7932 15.4542 70.7757 15.6096 70.7924 15.7632V18.497H69.8486L69.8486 13.824Z" fill="black"/>
<path d="M75.4141 11.9998H76.3579V18.4968H75.4141V11.9998Z" fill="black"/>
<path d="M77.6698 16.1581C77.6398 15.851 77.6758 15.5411 77.7754 15.2484C77.8751 14.9556 78.0363 14.6865 78.2487 14.4582C78.4611 14.2299 78.7199 14.0475 79.0086 13.9227C79.2974 13.7979 79.6096 13.7334 79.9254 13.7334C80.2411 13.7334 80.5533 13.7979 80.8421 13.9227C81.1308 14.0475 81.3896 14.2299 81.602 14.4582C81.8144 14.6865 81.9756 14.9556 82.0753 15.2484C82.1749 15.5411 82.2109 15.851 82.1809 16.1581C82.2115 16.4655 82.1759 16.7758 82.0765 17.0689C81.9771 17.3621 81.816 17.6317 81.6035 17.8605C81.3911 18.0892 81.1321 18.272 80.8431 18.3971C80.554 18.5221 80.2415 18.5868 79.9254 18.5868C79.6093 18.5868 79.2967 18.5221 79.0076 18.3971C78.7186 18.272 78.4596 18.0892 78.2472 17.8605C78.0347 17.6317 77.8736 17.3621 77.7742 17.0689C77.6748 16.7758 77.6392 16.4655 77.6698 16.1581ZM81.2096 16.1581C81.2096 15.1451 80.7439 14.5528 79.9266 14.5528C79.1063 14.5528 78.6448 15.1451 78.6448 16.1581C78.6448 17.1791 79.1063 17.7669 79.9266 17.7669C80.7439 17.7669 81.2096 17.175 81.2096 16.1581H81.2096Z" fill="black"/>
<path d="M83.1748 17.175C83.1748 16.3338 83.8158 15.8489 84.9535 15.78L86.2489 15.707V15.3037C86.2489 14.8102 85.9149 14.5315 85.2698 14.5315C84.743 14.5315 84.3779 14.7205 84.2731 15.0509H83.3594C83.4559 14.2482 84.2285 13.7334 85.3134 13.7334C86.5123 13.7334 87.1886 14.3166 87.1886 15.3037V18.4965H86.28V17.8398H86.2053C86.0538 18.0754 85.8409 18.2674 85.5886 18.3963C85.3362 18.5252 85.0534 18.5863 84.7689 18.5735C84.5681 18.5939 84.3652 18.573 84.1733 18.5121C83.9813 18.4511 83.8045 18.3516 83.6543 18.2198C83.5041 18.0881 83.3839 17.927 83.3013 17.7471C83.2187 17.5671 83.1756 17.3722 83.1748 17.175ZM86.2489 16.7757V16.385L85.0811 16.458C84.4225 16.5011 84.1238 16.72 84.1238 17.1319C84.1238 17.5525 84.4972 17.7972 85.0106 17.7972C85.161 17.8121 85.313 17.7973 85.4574 17.7536C85.6019 17.7099 85.7358 17.6383 85.8514 17.543C85.9669 17.4477 86.0616 17.3306 86.1299 17.1988C86.1982 17.067 86.2387 16.9231 86.2489 16.7757Z" fill="black"/>
<path d="M88.4287 16.1584C88.4287 14.6818 89.2055 13.7464 90.4138 13.7464C90.7127 13.733 91.0093 13.8029 91.269 13.9481C91.5287 14.0933 91.7407 14.3077 91.8803 14.5662H91.9509V11.9998H92.8947V18.4968H91.9903V17.7586H91.9156C91.7652 18.0154 91.5458 18.2271 91.2811 18.3708C91.0163 18.5145 90.7164 18.5847 90.4138 18.5738C89.1972 18.5739 88.4287 17.6385 88.4287 16.1584ZM89.4037 16.1584C89.4037 17.1495 89.8818 17.7459 90.6814 17.7459C91.4769 17.7459 91.9685 17.1409 91.9685 16.1624C91.9685 15.1885 91.4717 14.5749 90.6814 14.5749C89.8869 14.5749 89.4036 15.1753 89.4036 16.1584H89.4037Z" fill="black"/>
<path d="M96.7997 16.158C96.7697 15.8509 96.8056 15.541 96.9053 15.2483C97.0049 14.9556 97.1661 14.6865 97.3785 14.4582C97.5908 14.2299 97.8496 14.0475 98.1383 13.9227C98.4271 13.7979 98.7393 13.7334 99.055 13.7334C99.3707 13.7334 99.6829 13.7979 99.9717 13.9227C100.26 14.0475 100.519 14.2299 100.732 14.4582C100.944 14.6865 101.105 14.9556 101.205 15.2483C101.304 15.541 101.34 15.8509 101.31 16.158C101.341 16.4654 101.305 16.7756 101.206 17.0688C101.107 17.362 100.946 17.6317 100.733 17.8604C100.521 18.0891 100.262 18.2719 99.9727 18.397C99.6837 18.5221 99.3711 18.5867 99.055 18.5867C98.7389 18.5867 98.4263 18.5221 98.1373 18.397C97.8483 18.2719 97.5893 18.0891 97.3769 17.8604C97.1645 17.6317 97.0034 17.362 96.904 17.0688C96.8046 16.7756 96.7691 16.4654 96.7997 16.158ZM100.339 16.158C100.339 15.1451 99.8738 14.5527 99.0566 14.5527C98.2362 14.5527 97.7747 15.1451 97.7747 16.158C97.7747 17.179 98.2362 17.7668 99.0566 17.7668C99.8738 17.7668 100.339 17.1749 100.339 16.158Z" fill="black"/>
<path d="M102.576 13.824H103.485V14.5664H103.555C103.675 14.2998 103.877 14.0763 104.132 13.927C104.388 13.7778 104.685 13.7103 104.982 13.7338C105.215 13.7168 105.449 13.751 105.666 13.8342C105.883 13.9173 106.079 14.0471 106.238 14.214C106.397 14.3809 106.515 14.5807 106.584 14.7984C106.654 15.0161 106.672 15.2463 106.638 15.4719V18.4969H105.694V15.7035C105.694 14.9525 105.36 14.5791 104.662 14.5791C104.504 14.5719 104.346 14.5981 104.2 14.6561C104.053 14.714 103.921 14.8022 103.812 14.9147C103.704 15.0272 103.622 15.1613 103.571 15.3077C103.521 15.4542 103.503 15.6096 103.52 15.7632V18.497H102.576V13.824Z" fill="black"/>
<path d="M111.971 12.6614V13.8461H113.007V14.6229H111.971V17.0257C111.971 17.5152 112.177 17.7295 112.647 17.7295C112.767 17.7292 112.887 17.722 113.007 17.7082V18.4764C112.837 18.506 112.666 18.5218 112.493 18.5235C111.444 18.5235 111.026 18.1628 111.026 17.2618V14.6228H110.267V13.846H111.026V12.6614H111.971Z" fill="black"/>
<path d="M114.296 11.9998H115.231V14.5749H115.306C115.432 14.3058 115.639 14.081 115.9 13.9312C116.161 13.7814 116.463 13.7139 116.764 13.7378C116.996 13.7255 117.227 13.7632 117.442 13.8484C117.657 13.9335 117.85 14.0639 118.007 14.2303C118.164 14.3967 118.282 14.595 118.352 14.811C118.422 15.027 118.442 15.2554 118.411 15.4799V18.4968H117.466V15.7074C117.466 14.961 117.111 14.583 116.444 14.583C116.282 14.57 116.118 14.5918 115.966 14.6468C115.813 14.7019 115.675 14.7889 115.56 14.9017C115.445 15.0146 115.357 15.1505 115.302 15.3001C115.247 15.4497 115.225 15.6093 115.24 15.7677V18.4968H114.296L114.296 11.9998Z" fill="black"/>
<path d="M123.914 17.2349C123.786 17.6619 123.508 18.0314 123.129 18.2785C122.75 18.5256 122.295 18.6348 121.842 18.5868C121.527 18.5949 121.214 18.5359 120.924 18.414C120.635 18.292 120.376 18.11 120.166 17.8805C119.956 17.651 119.799 17.3796 119.707 17.085C119.615 16.7905 119.59 16.4799 119.633 16.1748C119.591 15.8688 119.617 15.5576 119.708 15.2621C119.8 14.9667 119.956 14.694 120.165 14.4625C120.374 14.231 120.632 14.0461 120.92 13.9204C121.209 13.7946 121.522 13.7308 121.838 13.7335C123.168 13.7335 123.971 14.6218 123.971 16.0892V16.411H120.594V16.4626C120.579 16.6341 120.601 16.8067 120.659 16.9694C120.716 17.1321 120.808 17.2812 120.928 17.4072C121.048 17.5333 121.193 17.6335 121.355 17.7013C121.517 17.7692 121.692 17.8033 121.868 17.8013C122.093 17.8278 122.322 17.7881 122.525 17.6872C122.727 17.5864 122.895 17.4289 123.005 17.2348L123.914 17.2349ZM120.594 15.7289H123.01C123.022 15.5721 123 15.4146 122.946 15.2664C122.891 15.1183 122.806 14.9829 122.695 14.8689C122.585 14.7549 122.45 14.6648 122.302 14.6045C122.153 14.5441 121.993 14.5148 121.832 14.5184C121.669 14.5164 121.507 14.5463 121.356 14.6065C121.205 14.6666 121.067 14.7557 120.952 14.8685C120.837 14.9813 120.746 15.1156 120.684 15.2633C120.623 15.4111 120.592 15.5694 120.594 15.7289H120.594Z" fill="black"/>
</svg>
