<svg width="155" height="52" viewBox="0 0 155 52" fill="none" xmlns="http://www.w3.org/2000/svg">
<rect width="155" height="52" rx="10" fill="white"/>
<path d="M30.7287 25.4168L19.9658 36.8398C19.9668 36.8418 19.9668 36.8448 19.9678 36.8468C20.2984 38.0872 21.4306 39 22.7751 39C23.3128 39 23.8173 38.8544 24.2499 38.5997L24.2843 38.5795L36.3987 31.5892L30.7287 25.4168Z" fill="#EA4335"/>
<path d="M41.6162 23.473L41.6061 23.4659L36.3758 20.4343L30.4834 25.6777L36.397 31.5894L41.599 28.5881C42.5108 28.0947 43.1305 27.1334 43.1305 26.0255C43.1305 24.9236 42.5199 23.9673 41.6162 23.473Z" fill="#FBBC04"/>
<path d="M19.9653 15.1578C19.9006 15.3964 19.8662 15.6471 19.8662 15.9059V36.0911C19.8662 36.3499 19.9006 36.6006 19.9663 36.8381L31.0981 25.7073L19.9653 15.1578Z" fill="#4285F4"/>
<path d="M30.8085 26L36.3785 20.4311L24.2782 13.4156C23.8385 13.1517 23.325 13.0001 22.7761 13.0001C21.4316 13.0001 20.2974 13.9149 19.9668 15.1563C19.9668 15.1573 19.9658 15.1583 19.9658 15.1593L30.8085 26Z" fill="#34A853"/>
<path d="M60.2238 16.2279C60.2238 17.0286 59.9868 17.6659 59.512 18.1417C58.9721 18.7074 58.2698 18.9902 57.406 18.9902C56.5776 18.9902 55.8744 18.7036 55.2963 18.1293C54.7163 17.556 54.4277 16.8442 54.4277 15.9957C54.4277 15.1462 54.7163 14.4354 55.2963 13.8611C55.8744 13.2878 56.5776 13.0002 57.406 13.0002C57.8159 13.0002 58.2096 13.0805 58.5823 13.241C58.9559 13.4015 59.2549 13.6146 59.4795 13.8812L58.975 14.3857C58.5956 13.9328 58.073 13.7054 57.406 13.7054C56.8022 13.7054 56.2805 13.9175 55.84 14.3417C55.3995 14.7669 55.1797 15.3173 55.1797 15.9957C55.1797 16.6731 55.3995 17.2245 55.84 17.6487C56.2805 18.0739 56.8022 18.2851 57.406 18.2851C58.0462 18.2851 58.5794 18.072 59.0075 17.6449C59.2846 17.3668 59.4441 16.9808 59.4871 16.484H57.406V15.795H60.1837C60.2104 15.945 60.2238 16.0893 60.2238 16.2279Z" fill="black"/>
<path d="M60.2238 16.2279C60.2238 17.0286 59.9868 17.6659 59.512 18.1417C58.9721 18.7074 58.2698 18.9902 57.406 18.9902C56.5776 18.9902 55.8744 18.7036 55.2963 18.1293C54.7163 17.556 54.4277 16.8442 54.4277 15.9957C54.4277 15.1462 54.7163 14.4354 55.2963 13.8611C55.8744 13.2878 56.5776 13.0002 57.406 13.0002C57.8159 13.0002 58.2096 13.0805 58.5823 13.241C58.9559 13.4015 59.2549 13.6146 59.4795 13.8812L58.975 14.3857C58.5956 13.9328 58.073 13.7054 57.406 13.7054C56.8022 13.7054 56.2805 13.9175 55.84 14.3417C55.3995 14.7669 55.1797 15.3173 55.1797 15.9957C55.1797 16.6731 55.3995 17.2245 55.84 17.6487C56.2805 18.0739 56.8022 18.2851 57.406 18.2851C58.0462 18.2851 58.5794 18.072 59.0075 17.6449C59.2846 17.3668 59.4441 16.9808 59.4871 16.484H57.406V15.795H60.1837C60.2104 15.945 60.2238 16.0893 60.2238 16.2279Z" fill="black"/>
<path d="M64.6284 13.8345H62.0179V15.6518H64.3723V16.3408H62.0179V18.1581H64.6284V18.8633H61.2812V13.1303H64.6284V13.8345Z" fill="black"/>
<path d="M64.6284 13.8345H62.0179V15.6518H64.3723V16.3408H62.0179V18.1581H64.6284V18.8633H61.2812V13.1303H64.6284V13.8345Z" fill="black"/>
<path d="M67.7346 18.8633H66.9979V13.8345H65.3965V13.1303H69.336V13.8345H67.7346V18.8633Z" fill="black"/>
<path d="M67.7346 18.8633H66.9979V13.8345H65.3965V13.1303H69.336V13.8345H67.7346V18.8633Z" fill="black"/>
<path d="M72.1865 13.1303H72.9232V18.8633H72.1865V13.1303Z" fill="black"/>
<path d="M76.1907 18.8633H75.454V13.8345H73.8525V13.1303H77.7921V13.8345H76.1907V18.8633Z" fill="black"/>
<path d="M76.1907 18.8633H75.454V13.8345H73.8525V13.1303H77.7921V13.8345H76.1907V18.8633Z" fill="black"/>
<path d="M81.5895 17.6411C82.0138 18.071 82.5326 18.2851 83.147 18.2851C83.7614 18.2851 84.2802 18.071 84.7045 17.6411C85.1287 17.2111 85.3418 16.6626 85.3418 15.9957C85.3418 15.3287 85.1287 14.7793 84.7045 14.3503C84.2802 13.9203 83.7614 13.7054 83.147 13.7054C82.5326 13.7054 82.0138 13.9203 81.5895 14.3503C81.1662 14.7793 80.9532 15.3287 80.9532 15.9957C80.9532 16.6626 81.1662 17.2111 81.5895 17.6411ZM85.2491 18.1207C84.6853 18.7007 83.985 18.9902 83.147 18.9902C82.309 18.9902 81.6086 18.7007 81.0458 18.1207C80.4821 17.5417 80.2012 16.8337 80.2012 15.9957C80.2012 15.1577 80.4821 14.4487 81.0458 13.8697C81.6086 13.2907 82.309 13.0002 83.147 13.0002C83.9802 13.0002 84.6787 13.2916 85.2453 13.8735C85.8109 14.4554 86.0938 15.1625 86.0938 15.9957C86.0938 16.8337 85.8119 17.5417 85.2491 18.1207Z" fill="black"/>
<path d="M81.5895 17.6411C82.0138 18.071 82.5326 18.2851 83.147 18.2851C83.7614 18.2851 84.2802 18.071 84.7045 17.6411C85.1287 17.2111 85.3418 16.6626 85.3418 15.9957C85.3418 15.3287 85.1287 14.7793 84.7045 14.3503C84.2802 13.9203 83.7614 13.7054 83.147 13.7054C82.5326 13.7054 82.0138 13.9203 81.5895 14.3503C81.1662 14.7793 80.9532 15.3287 80.9532 15.9957C80.9532 16.6626 81.1662 17.2111 81.5895 17.6411ZM85.2491 18.1207C84.6853 18.7007 83.985 18.9902 83.147 18.9902C82.309 18.9902 81.6086 18.7007 81.0458 18.1207C80.4821 17.5417 80.2012 16.8337 80.2012 15.9957C80.2012 15.1577 80.4821 14.4487 81.0458 13.8697C81.6086 13.2907 82.309 13.0002 83.147 13.0002C83.9802 13.0002 84.6787 13.2916 85.2453 13.8735C85.8109 14.4554 86.0938 15.1625 86.0938 15.9957C86.0938 16.8337 85.8119 17.5417 85.2491 18.1207Z" fill="black"/>
<path d="M87.1279 18.8633V13.1303H88.0242L90.8104 17.5896H90.8429L90.8104 16.485V13.1303H91.5481V18.8633H90.7789L87.8637 14.1871H87.8321L87.8637 15.2926V18.8633H87.1279Z" fill="black"/>
<path d="M87.1279 18.8633V13.1303H88.0242L90.8104 17.5896H90.8429L90.8104 16.485V13.1303H91.5481V18.8633H90.7789L87.8637 14.1871H87.8321L87.8637 15.2926V18.8633H87.1279Z" fill="black"/>
<path d="M117.093 35.1054H118.876V23.1606H117.093V35.1054ZM133.152 27.4633L131.108 32.6421H131.047L128.926 27.4633H127.005L130.186 34.7012L128.373 38.7277H130.232L135.135 27.4633H133.152ZM123.041 33.7486C122.456 33.7486 121.642 33.4571 121.642 32.7338C121.642 31.8127 122.656 31.4592 123.532 31.4592C124.315 31.4592 124.685 31.6283 125.161 31.8586C125.022 32.965 124.07 33.7486 123.041 33.7486ZM123.256 27.2024C121.965 27.2024 120.627 27.7709 120.075 29.0312L121.657 29.6915C121.995 29.0312 122.625 28.8153 123.286 28.8153C124.208 28.8153 125.146 29.3685 125.161 30.3527V30.475C124.838 30.2906 124.147 30.0145 123.302 30.0145C121.596 30.0145 119.859 30.9518 119.859 32.7032C119.859 34.3018 121.258 35.3318 122.825 35.3318C124.024 35.3318 124.685 34.7939 125.1 34.1632H125.161V35.0853H126.882V30.5056C126.882 28.3853 125.3 27.2024 123.256 27.2024ZM112.237 28.9175H109.701V24.8232H112.237C113.57 24.8232 114.327 25.9268 114.327 26.8699C114.327 27.7958 113.57 28.9175 112.237 28.9175ZM112.191 23.1606H107.919V35.1054H109.701V30.5801H112.191C114.167 30.5801 116.11 29.1488 116.11 26.8699C116.11 24.591 114.167 23.1606 112.191 23.1606ZM88.8949 33.7505C87.6633 33.7505 86.6323 32.7195 86.6323 31.3034C86.6323 29.8721 87.6633 28.8249 88.8949 28.8249C90.1113 28.8249 91.0648 29.8721 91.0648 31.3034C91.0648 32.7195 90.1113 33.7505 88.8949 33.7505ZM90.9425 28.1321H90.8804C90.4801 27.6553 89.7109 27.2244 88.7411 27.2244C86.7087 27.2244 84.8464 29.0093 84.8464 31.3034C84.8464 33.5813 86.7087 35.3519 88.7411 35.3519C89.7109 35.3519 90.4801 34.921 90.8804 34.4279H90.9425V35.0136C90.9425 36.5682 90.1113 37.3995 88.7716 37.3995C87.6785 37.3995 87.0011 36.6141 86.724 35.9519L85.1694 36.5988C85.6156 37.6766 86.8014 39 88.7716 39C90.8652 39 92.6357 37.7684 92.6357 34.7671V27.47H90.9425V28.1321ZM93.8673 35.1054H95.6532V23.1597H93.8673V35.1054ZM98.2846 31.1649C98.2388 29.595 99.501 28.7943 100.409 28.7943C101.118 28.7943 101.718 29.1478 101.917 29.6561L98.2846 31.1649ZM103.827 29.81C103.488 28.9023 102.456 27.2244 100.348 27.2244C98.2541 27.2244 96.515 28.8707 96.515 31.2881C96.515 33.5661 98.2388 35.3519 100.547 35.3519C102.41 35.3519 103.488 34.2129 103.935 33.5508L102.549 32.6268C102.088 33.3043 101.456 33.7505 100.547 33.7505C99.6395 33.7505 98.9927 33.3348 98.577 32.5198L104.011 30.2715L103.827 29.81ZM60.5346 28.4713V30.195H64.6595C64.5363 31.1649 64.2133 31.8729 63.7212 32.365C63.1202 32.966 62.181 33.6282 60.5346 33.6282C57.994 33.6282 56.0084 31.5805 56.0084 29.0408C56.0084 26.5001 57.994 24.4534 60.5346 24.4534C61.9048 24.4534 62.9052 24.9923 63.6438 25.6851L64.8602 24.4687C63.8283 23.4836 62.459 22.7288 60.5346 22.7288C57.0557 22.7288 54.1309 25.5618 54.1309 29.0408C54.1309 32.5198 57.0557 35.3519 60.5346 35.3519C62.4122 35.3519 63.8283 34.7356 64.9366 33.5813C66.0766 32.4424 66.4301 30.8419 66.4301 29.5482C66.4301 29.1478 66.3995 28.779 66.3374 28.4713H60.5346ZM71.1206 33.7505C69.889 33.7505 68.8265 32.7348 68.8265 31.2881C68.8265 29.8253 69.889 28.8249 71.1206 28.8249C72.3513 28.8249 73.4139 29.8253 73.4139 31.2881C73.4139 32.7348 72.3513 33.7505 71.1206 33.7505ZM71.1206 27.2244C68.8723 27.2244 67.0407 28.9328 67.0407 31.2881C67.0407 33.6282 68.8723 35.3519 71.1206 35.3519C73.368 35.3519 75.1997 33.6282 75.1997 31.2881C75.1997 28.9328 73.368 27.2244 71.1206 27.2244ZM80.0192 33.7505C78.7876 33.7505 77.7251 32.7348 77.7251 31.2881C77.7251 29.8253 78.7876 28.8249 80.0192 28.8249C81.2509 28.8249 82.3125 29.8253 82.3125 31.2881C82.3125 32.7348 81.2509 33.7505 80.0192 33.7505ZM80.0192 27.2244C77.7719 27.2244 75.9402 28.9328 75.9402 31.2881C75.9402 33.6282 77.7719 35.3519 80.0192 35.3519C82.2666 35.3519 84.0983 33.6282 84.0983 31.2881C84.0983 28.9328 82.2666 27.2244 80.0192 27.2244Z" fill="black"/>
</svg>
