<svg width="95" height="104" viewBox="0 0 95 104" fill="none" xmlns="http://www.w3.org/2000/svg">
<path d="M46.4998 0.000709927C42.9526 0.0171577 39.5652 0.319053 36.5846 0.845379C27.8042 2.39339 26.21 5.63353 26.21 11.6089V19.5005H46.9593V22.131H26.21H18.4229C12.3926 22.131 7.11231 25.7481 5.4607 32.6291C3.55558 40.5162 3.47108 45.4379 5.4607 53.6734C6.93563 59.8036 10.458 64.1714 16.4883 64.1714H23.6224V54.7111C23.6224 47.8766 29.548 41.848 36.5846 41.848H57.3097C63.0788 41.848 67.6843 37.1077 67.6843 31.3259V11.6089C67.6843 5.99731 62.9406 1.78193 57.3097 0.845379C53.7453 0.253261 50.0469 -0.0157381 46.4998 0.000709927ZM35.2787 6.3478C37.422 6.3478 39.1722 8.12297 39.1722 10.3057C39.1722 12.4806 37.422 14.2394 35.2787 14.2394C33.1278 14.2394 31.3852 12.4806 31.3852 10.3057C31.3852 8.12297 33.1278 6.3478 35.2787 6.3478Z" fill="white"/>
<path d="M70.2729 22.1309V31.3257C70.2729 38.4543 64.2167 44.4543 57.3107 44.4543H36.5856C30.9086 44.4543 26.2109 49.3029 26.2109 54.9764V74.6934C26.2109 80.305 31.1007 83.6056 36.5856 85.2156C43.1536 87.1429 49.452 87.4912 57.3107 85.2156C62.5344 83.7063 67.6853 80.6688 67.6853 74.6934V66.8018H46.9602V64.1712H67.6853H78.0599C84.0903 64.1712 86.3374 59.9737 88.4346 53.6732C90.6009 47.187 90.5087 40.9495 88.4346 32.6289C86.9443 26.6381 84.0979 22.1309 78.0599 22.1309H70.2729ZM58.6166 72.0629C60.7675 72.0629 62.5101 73.8217 62.5101 75.9966C62.5101 78.1793 60.7675 79.9545 58.6166 79.9545C56.4733 79.9545 54.7231 78.1793 54.7231 75.9966C54.7231 73.8217 56.4733 72.0629 58.6166 72.0629Z" fill="white"/>
</svg>
