<svg width="383" height="139" viewBox="0 0 383 139" fill="none" xmlns="http://www.w3.org/2000/svg">
<path d="M67.936 118.36L56.416 102.872C53.0027 103.555 49.6747 103.896 46.432 103.896C37.984 103.896 30.2187 101.933 23.136 98.008C16.1387 94.0827 10.5493 88.6213 6.368 81.624C2.272 74.5413 0.224 66.6053 0.224 57.816C0.224 49.0267 2.272 41.1333 6.368 34.136C10.5493 27.1387 16.1387 21.6773 23.136 17.752C30.2187 13.8267 37.984 11.864 46.432 11.864C54.88 11.864 62.6027 13.8267 69.6 17.752C76.6827 21.6773 82.2293 27.1387 86.24 34.136C90.336 41.1333 92.384 49.0267 92.384 57.816C92.384 65.496 90.8053 72.536 87.648 78.936C84.576 85.2507 80.2667 90.4987 74.72 94.68L94.432 118.36H67.936ZM22.624 57.816C22.624 65.752 24.7573 72.1093 29.024 76.888C33.376 81.5813 39.1787 83.928 46.432 83.928C53.6 83.928 59.3173 81.5387 63.584 76.76C67.936 71.9813 70.112 65.6667 70.112 57.816C70.112 49.88 67.936 43.5653 63.584 38.872C59.3173 34.0933 53.6 31.704 46.432 31.704C39.1787 31.704 33.376 34.0507 29.024 38.744C24.7573 43.4373 22.624 49.7947 22.624 57.816ZM175.339 31.576V103H153.451V93.272C151.232 96.4293 148.203 98.9893 144.363 100.952C140.608 102.829 136.427 103.768 131.819 103.768C126.358 103.768 121.536 102.573 117.355 100.184C113.174 97.7093 109.931 94.168 107.627 89.56C105.323 84.952 104.171 79.5333 104.171 73.304V31.576H125.931V70.36C125.931 75.1387 127.168 78.8507 129.643 81.496C132.118 84.1413 135.446 85.464 139.627 85.464C143.894 85.464 147.264 84.1413 149.739 81.496C152.214 78.8507 153.451 75.1387 153.451 70.36V31.576H175.339ZM186.709 67.16C186.709 59.8213 188.074 53.3787 190.805 47.832C193.621 42.2853 197.418 38.0187 202.197 35.032C206.976 32.0453 212.309 30.552 218.197 30.552C223.232 30.552 227.626 31.576 231.381 33.624C235.221 35.672 238.165 38.36 240.213 41.688V31.576H262.101V103H240.213V92.888C238.08 96.216 235.093 98.904 231.253 100.952C227.498 103 223.104 104.024 218.069 104.024C212.266 104.024 206.976 102.531 202.197 99.544C197.418 96.472 193.621 92.1627 190.805 86.616C188.074 80.984 186.709 74.4987 186.709 67.16ZM240.213 67.288C240.213 61.8267 238.677 57.5173 235.605 54.36C232.618 51.2027 228.949 49.624 224.597 49.624C220.245 49.624 216.533 51.2027 213.461 54.36C210.474 57.432 208.981 61.6987 208.981 67.16C208.981 72.6213 210.474 76.9733 213.461 80.216C216.533 83.3733 220.245 84.952 224.597 84.952C228.949 84.952 232.618 83.3733 235.605 80.216C238.677 77.0587 240.213 72.7493 240.213 67.288ZM299.824 8.28V103H277.936V8.28H299.824ZM326.694 24.152C322.854 24.152 319.697 23.0427 317.222 20.824C314.833 18.52 313.638 15.704 313.638 12.376C313.638 8.96266 314.833 6.14666 317.222 3.92799C319.697 1.62399 322.854 0.471992 326.694 0.471992C330.449 0.471992 333.521 1.62399 335.91 3.92799C338.385 6.14666 339.622 8.96266 339.622 12.376C339.622 15.704 338.385 18.52 335.91 20.824C333.521 23.0427 330.449 24.152 326.694 24.152ZM337.574 31.576V103H315.686V31.576H337.574ZM393.244 84.44V103H382.108C374.172 103 367.985 101.08 363.548 97.24C359.111 93.3147 356.892 86.9573 356.892 78.168V49.752H348.188V31.576H356.892V14.168H378.78V31.576H393.116V49.752H378.78V78.424C378.78 80.5573 379.292 82.0933 380.316 83.032C381.34 83.9707 383.047 84.44 385.436 84.44H393.244ZM478.396 31.576L433.596 136.92H410.044L426.428 100.568L397.372 31.576H421.82L438.332 76.248L454.716 31.576H478.396ZM509.724 57.944C509.724 49.0693 511.644 41.176 515.484 34.264C519.324 27.2667 524.657 21.848 531.484 18.008C538.396 14.0827 546.204 12.12 554.908 12.12C565.575 12.12 574.705 14.936 582.3 20.568C589.895 26.2 594.972 33.88 597.532 43.608H573.468C571.676 39.8533 569.116 36.9947 565.788 35.032C562.545 33.0693 558.833 32.088 554.652 32.088C547.911 32.088 542.449 34.4347 538.268 39.128C534.087 43.8213 531.996 50.0933 531.996 57.944C531.996 65.7947 534.087 72.0667 538.268 76.76C542.449 81.4533 547.911 83.8 554.652 83.8C558.833 83.8 562.545 82.8187 565.788 80.856C569.116 78.8933 571.676 76.0347 573.468 72.28H597.532C594.972 82.008 589.895 89.688 582.3 95.32C574.705 100.867 565.575 103.64 554.908 103.64C546.204 103.64 538.396 101.72 531.484 97.88C524.657 93.9547 519.324 88.536 515.484 81.624C511.644 74.712 509.724 66.8187 509.724 57.944ZM654.84 30.808C663.032 30.808 669.603 33.5387 674.552 39C679.501 44.376 681.976 51.8 681.976 61.272V103H660.216V64.216C660.216 59.4373 658.979 55.7253 656.504 53.08C654.029 50.4347 650.701 49.112 646.52 49.112C642.339 49.112 639.011 50.4347 636.536 53.08C634.061 55.7253 632.824 59.4373 632.824 64.216V103H610.936V8.28H632.824V41.176C635.043 38.0187 638.072 35.5013 641.912 33.624C645.752 31.7467 650.061 30.808 654.84 30.808ZM764.514 66.136C764.514 68.184 764.386 70.3173 764.13 72.536H714.594C714.935 76.9733 716.343 80.3867 718.818 82.776C721.378 85.08 724.493 86.232 728.162 86.232C733.623 86.232 737.421 83.928 739.554 79.32H762.85C761.655 84.0133 759.479 88.2373 756.322 91.992C753.25 95.7467 749.367 98.6907 744.674 100.824C739.981 102.957 734.733 104.024 728.93 104.024C721.933 104.024 715.703 102.531 710.242 99.544C704.781 96.5573 700.514 92.2907 697.442 86.744C694.37 81.1973 692.834 74.712 692.834 67.288C692.834 59.864 694.327 53.3787 697.314 47.832C700.386 42.2853 704.653 38.0187 710.114 35.032C715.575 32.0453 721.847 30.552 728.93 30.552C735.842 30.552 741.986 32.0027 747.362 34.904C752.738 37.8053 756.919 41.944 759.906 47.32C762.978 52.696 764.514 58.968 764.514 66.136ZM742.114 60.376C742.114 56.6213 740.834 53.6347 738.274 51.416C735.714 49.1973 732.514 48.088 728.674 48.088C725.005 48.088 721.89 49.1547 719.33 51.288C716.855 53.4213 715.319 56.4507 714.722 60.376H742.114ZM771.709 67.288C771.709 59.864 773.202 53.3787 776.189 47.832C779.261 42.2853 783.485 38.0187 788.861 35.032C794.322 32.0453 800.552 30.552 807.549 30.552C816.509 30.552 823.976 32.8987 829.949 37.592C836.008 42.2853 839.976 48.8987 841.853 57.432H818.557C816.594 51.9707 812.797 49.24 807.165 49.24C803.154 49.24 799.954 50.8187 797.565 53.976C795.176 57.048 793.981 61.4853 793.981 67.288C793.981 73.0907 795.176 77.5707 797.565 80.728C799.954 83.8 803.154 85.336 807.165 85.336C812.797 85.336 816.594 82.6053 818.557 77.144H841.853C839.976 85.5067 836.008 92.0773 829.949 96.856C823.89 101.635 816.424 104.024 807.549 104.024C800.552 104.024 794.322 102.531 788.861 99.544C783.485 96.5573 779.261 92.2907 776.189 86.744C773.202 81.1973 771.709 74.712 771.709 67.288ZM897.209 103L875.449 73.048V103H853.561V8.28H875.449V60.632L897.081 31.576H924.089L894.393 67.416L924.345 103H897.209ZM943.694 24.152C939.854 24.152 936.697 23.0427 934.222 20.824C931.833 18.52 930.638 15.704 930.638 12.376C930.638 8.96266 931.833 6.14666 934.222 3.92799C936.697 1.62399 939.854 0.471992 943.694 0.471992C947.449 0.471992 950.521 1.62399 952.91 3.92799C955.385 6.14666 956.622 8.96266 956.622 12.376C956.622 15.704 955.385 18.52 952.91 20.824C950.521 23.0427 947.449 24.152 943.694 24.152ZM954.574 31.576V103H932.686V31.576H954.574ZM1013.96 30.808C1022.32 30.808 1028.97 33.5387 1033.92 39C1038.96 44.376 1041.48 51.8 1041.48 61.272V103H1019.72V64.216C1019.72 59.4373 1018.48 55.7253 1016 53.08C1013.53 50.4347 1010.2 49.112 1006.02 49.112C1001.84 49.112 998.511 50.4347 996.036 53.08C993.561 55.7253 992.324 59.4373 992.324 64.216V103H970.436V31.576H992.324V41.048C994.543 37.8907 997.529 35.416 1001.28 33.624C1005.04 31.7467 1009.26 30.808 1013.96 30.808ZM1083.82 30.552C1088.86 30.552 1093.25 31.576 1097.01 33.624C1100.85 35.672 1103.79 38.36 1105.84 41.688V31.576H1127.73V102.872C1127.73 109.443 1126.4 115.373 1123.76 120.664C1121.2 126.04 1117.23 130.307 1111.85 133.464C1106.56 136.621 1099.95 138.2 1092.01 138.2C1081.43 138.2 1072.86 135.683 1066.29 130.648C1059.72 125.699 1055.96 118.957 1055.02 110.424H1076.65C1077.34 113.155 1078.96 115.288 1081.52 116.824C1084.08 118.445 1087.24 119.256 1090.99 119.256C1095.51 119.256 1099.1 117.933 1101.74 115.288C1104.47 112.728 1105.84 108.589 1105.84 102.872V92.76C1103.7 96.088 1100.76 98.8187 1097.01 100.952C1093.25 103 1088.86 104.024 1083.82 104.024C1077.93 104.024 1072.6 102.531 1067.82 99.544C1063.04 96.472 1059.25 92.1627 1056.43 86.616C1053.7 80.984 1052.33 74.4987 1052.33 67.16C1052.33 59.8213 1053.7 53.3787 1056.43 47.832C1059.25 42.2853 1063.04 38.0187 1067.82 35.032C1072.6 32.0453 1077.93 30.552 1083.82 30.552ZM1105.84 67.288C1105.84 61.8267 1104.3 57.5173 1101.23 54.36C1098.24 51.2027 1094.57 49.624 1090.22 49.624C1085.87 49.624 1082.16 51.2027 1079.09 54.36C1076.1 57.432 1074.61 61.6987 1074.61 67.16C1074.61 72.6213 1076.1 76.9733 1079.09 80.216C1082.16 83.3733 1085.87 84.952 1090.22 84.952C1094.57 84.952 1098.24 83.3733 1101.23 80.216C1104.3 77.0587 1105.84 72.7493 1105.84 67.288Z" fill="#12062E"/>
</svg>
