<svg width="155" height="47" viewBox="0 0 155 47" fill="none" xmlns="http://www.w3.org/2000/svg">
<g clip-path="url(#clip0_604_37450)">
<path d="M35.1712 23.4979L11.709 0.5V7.47792L28.0524 23.4979L11.709 39.5221V46.5L35.1712 23.4979Z" fill="#41ACFC"/>
<path d="M22.3434 23.4983L6 7.48242V14.4604L15.2247 23.4983L6 32.5405V39.5183L22.3434 23.4983Z" fill="#41ACFC"/>
<path d="M0.299405 14.4553L0.291016 32.5354L9.51565 23.4891L0.299405 14.4553Z" fill="#41ACFC"/>
<path d="M69.8886 13.6665V33.3255H64.9931L50.0424 19.1312V33.3255H45.5371V13.6665H50.4326L65.3833 27.8896V13.6665H69.8886Z" fill="#1B2174"/>
<path d="M75.4355 13.6665H86.0823C94.8118 13.6665 98.3775 17.5111 98.3775 23.4652C98.3775 29.4193 94.7826 33.3337 86.0529 33.3337H75.4355V13.6665ZM86.0529 29.5673C91.4182 29.5673 93.6584 27.6305 93.6584 23.4652C93.6584 19.2998 91.4182 17.4248 86.0529 17.4248H79.9785V29.5673H86.0529Z" fill="#1B2174"/>
<path d="M119.283 28.815H106.87L104.354 33.3381H99.5293L110.646 13.679H115.629L126.746 33.3381H121.792L119.283 28.815ZM117.307 25.2293L113.075 17.6264L108.88 25.2293H117.307Z" fill="#1B2174"/>
<path d="M144.117 23.4652L154.29 33.3337H148.245L141.181 26.3065L134.134 33.3337H128.135L138.278 23.4652L128.076 13.6665H134.15L141.198 20.6567L148.275 13.6665H154.29L144.117 23.4652Z" fill="#1B2174"/>
</g>
<defs>
<clipPath id="clip0_604_37450">
<rect width="154" height="46" fill="white" transform="translate(0.291016 0.5)"/>
</clipPath>
</defs>
</svg>
