<svg width="380" height="105" viewBox="0 0 380 105" fill="none" xmlns="http://www.w3.org/2000/svg">
<path d="M46.76 103L28.072 69.08H22.824V103H0.936V13.144H37.672C44.7547 13.144 50.7707 14.3813 55.72 16.856C60.7547 19.3307 64.5093 22.744 66.984 27.096C69.4587 31.3627 70.696 36.1413 70.696 41.432C70.696 47.4053 68.9893 52.7387 65.576 57.432C62.248 62.1253 57.2987 65.4533 50.728 67.416L71.464 103H46.76ZM22.824 53.592H36.392C40.4027 53.592 43.3893 52.6107 45.352 50.648C47.4 48.6853 48.424 45.912 48.424 42.328C48.424 38.9147 47.4 36.2267 45.352 34.264C43.3893 32.3013 40.4027 31.32 36.392 31.32H22.824V53.592ZM151.764 66.136C151.764 68.184 151.636 70.3173 151.38 72.536H101.844C102.185 76.9733 103.593 80.3867 106.068 82.776C108.628 85.08 111.743 86.232 115.412 86.232C120.873 86.232 124.671 83.928 126.804 79.32H150.1C148.905 84.0133 146.729 88.2373 143.572 91.992C140.5 95.7467 136.617 98.6907 131.924 100.824C127.231 102.957 121.983 104.024 116.18 104.024C109.183 104.024 102.953 102.531 97.492 99.544C92.0307 96.5573 87.764 92.2907 84.692 86.744C81.62 81.1973 80.084 74.712 80.084 67.288C80.084 59.864 81.5773 53.3787 84.564 47.832C87.636 42.2853 91.9027 38.0187 97.364 35.032C102.825 32.0453 109.097 30.552 116.18 30.552C123.092 30.552 129.236 32.0027 134.612 34.904C139.988 37.8053 144.169 41.944 147.156 47.32C150.228 52.696 151.764 58.968 151.764 66.136ZM129.364 60.376C129.364 56.6213 128.084 53.6347 125.524 51.416C122.964 49.1973 119.764 48.088 115.924 48.088C112.255 48.088 109.14 49.1547 106.58 51.288C104.105 53.4213 102.569 56.4507 101.972 60.376H129.364ZM158.959 67.16C158.959 59.8213 160.324 53.3787 163.055 47.832C165.871 42.2853 169.668 38.0187 174.447 35.032C179.226 32.0453 184.559 30.552 190.447 30.552C195.482 30.552 199.876 31.576 203.631 33.624C207.471 35.672 210.415 38.36 212.463 41.688V31.576H234.351V103H212.463V92.888C210.33 96.216 207.343 98.904 203.503 100.952C199.748 103 195.354 104.024 190.319 104.024C184.516 104.024 179.226 102.531 174.447 99.544C169.668 96.472 165.871 92.1627 163.055 86.616C160.324 80.984 158.959 74.4987 158.959 67.16ZM212.463 67.288C212.463 61.8267 210.927 57.5173 207.855 54.36C204.868 51.2027 201.199 49.624 196.847 49.624C192.495 49.624 188.783 51.2027 185.711 54.36C182.724 57.432 181.231 61.6987 181.231 67.16C181.231 72.6213 182.724 76.9733 185.711 80.216C188.783 83.3733 192.495 84.952 196.847 84.952C201.199 84.952 204.868 83.3733 207.855 80.216C210.927 77.0587 212.463 72.7493 212.463 67.288ZM272.074 8.28V103H250.186V8.28H272.074ZM355.264 66.136C355.264 68.184 355.136 70.3173 354.88 72.536H305.344C305.685 76.9733 307.093 80.3867 309.568 82.776C312.128 85.08 315.243 86.232 318.912 86.232C324.373 86.232 328.171 83.928 330.304 79.32H353.6C352.405 84.0133 350.229 88.2373 347.072 91.992C344 95.7467 340.117 98.6907 335.424 100.824C330.731 102.957 325.483 104.024 319.68 104.024C312.683 104.024 306.453 102.531 300.992 99.544C295.531 96.5573 291.264 92.2907 288.192 86.744C285.12 81.1973 283.584 74.712 283.584 67.288C283.584 59.864 285.077 53.3787 288.064 47.832C291.136 42.2853 295.403 38.0187 300.864 35.032C306.325 32.0453 312.597 30.552 319.68 30.552C326.592 30.552 332.736 32.0027 338.112 34.904C343.488 37.8053 347.669 41.944 350.656 47.32C353.728 52.696 355.264 58.968 355.264 66.136ZM332.864 60.376C332.864 56.6213 331.584 53.6347 329.024 51.416C326.464 49.1973 323.264 48.088 319.424 48.088C315.755 48.088 312.64 49.1547 310.08 51.288C307.605 53.4213 306.069 56.4507 305.472 60.376H332.864ZM362.459 67.16C362.459 59.8213 363.824 53.3787 366.555 47.832C369.371 42.2853 373.168 38.0187 377.947 35.032C382.726 32.0453 388.059 30.552 393.947 30.552C398.982 30.552 403.376 31.576 407.131 33.624C410.971 35.672 413.915 38.36 415.963 41.688V31.576H437.851V103H415.963V92.888C413.83 96.216 410.843 98.904 407.003 100.952C403.248 103 398.854 104.024 393.819 104.024C388.016 104.024 382.726 102.531 377.947 99.544C373.168 96.472 369.371 92.1627 366.555 86.616C363.824 80.984 362.459 74.4987 362.459 67.16ZM415.963 67.288C415.963 61.8267 414.427 57.5173 411.355 54.36C408.368 51.2027 404.699 49.624 400.347 49.624C395.995 49.624 392.283 51.2027 389.211 54.36C386.224 57.432 384.731 61.6987 384.731 67.16C384.731 72.6213 386.224 76.9733 389.211 80.216C392.283 83.3733 395.995 84.952 400.347 84.952C404.699 84.952 408.368 83.3733 411.355 80.216C414.427 77.0587 415.963 72.7493 415.963 67.288ZM482.742 104.024C476.513 104.024 470.966 102.957 466.102 100.824C461.238 98.6907 457.398 95.7893 454.582 92.12C451.766 88.3653 450.187 84.184 449.846 79.576H471.478C471.734 82.0507 472.886 84.056 474.934 85.592C476.982 87.128 479.499 87.896 482.486 87.896C485.217 87.896 487.307 87.384 488.758 86.36C490.294 85.2507 491.062 83.8427 491.062 82.136C491.062 80.088 489.995 78.5947 487.862 77.656C485.729 76.632 482.273 75.5227 477.494 74.328C472.374 73.1333 468.107 71.896 464.694 70.616C461.281 69.2507 458.337 67.16 455.862 64.344C453.387 61.4427 452.15 57.56 452.15 52.696C452.15 48.6 453.259 44.888 455.478 41.56C457.782 38.1467 461.11 35.4587 465.462 33.496C469.899 31.5333 475.147 30.552 481.206 30.552C490.166 30.552 497.206 32.7707 502.326 37.208C507.531 41.6453 510.518 47.5333 511.286 54.872H491.062C490.721 52.3973 489.611 50.4347 487.734 48.984C485.942 47.5333 483.553 46.808 480.566 46.808C478.006 46.808 476.043 47.32 474.678 48.344C473.313 49.2827 472.63 50.6053 472.63 52.312C472.63 54.36 473.697 55.896 475.83 56.92C478.049 57.944 481.462 58.968 486.07 59.992C491.361 61.3573 495.67 62.7227 498.998 64.088C502.326 65.368 505.227 67.5013 507.702 70.488C510.262 73.3893 511.585 77.3147 511.67 82.264C511.67 86.4453 510.475 90.2 508.086 93.528C505.782 96.7707 502.411 99.3307 497.974 101.208C493.622 103.085 488.545 104.024 482.742 104.024ZM592.389 66.136C592.389 68.184 592.261 70.3173 592.005 72.536H542.469C542.81 76.9733 544.218 80.3867 546.693 82.776C549.253 85.08 552.368 86.232 556.037 86.232C561.498 86.232 565.296 83.928 567.429 79.32H590.725C589.53 84.0133 587.354 88.2373 584.197 91.992C581.125 95.7467 577.242 98.6907 572.549 100.824C567.856 102.957 562.608 104.024 556.805 104.024C549.808 104.024 543.578 102.531 538.117 99.544C532.656 96.5573 528.389 92.2907 525.317 86.744C522.245 81.1973 520.709 74.712 520.709 67.288C520.709 59.864 522.202 53.3787 525.189 47.832C528.261 42.2853 532.528 38.0187 537.989 35.032C543.45 32.0453 549.722 30.552 556.805 30.552C563.717 30.552 569.861 32.0027 575.237 34.904C580.613 37.8053 584.794 41.944 587.781 47.32C590.853 52.696 592.389 58.968 592.389 66.136ZM569.989 60.376C569.989 56.6213 568.709 53.6347 566.149 51.416C563.589 49.1973 560.389 48.088 556.549 48.088C552.88 48.088 549.765 49.1547 547.205 51.288C544.73 53.4213 543.194 56.4507 542.597 60.376H569.989ZM699.797 103L691.477 94.936C683.2 101.251 673.301 104.408 661.781 104.408C654.869 104.408 648.853 103.299 643.733 101.08C638.613 98.776 634.645 95.576 631.829 91.48C629.098 87.2987 627.733 82.4347 627.733 76.888C627.733 71.256 629.226 66.1787 632.213 61.656C635.285 57.048 639.85 53.2933 645.909 50.392C643.69 47.6613 642.112 45.0587 641.173 42.584C640.234 40.024 639.765 37.2507 639.765 34.264C639.765 29.9973 640.874 26.1147 643.093 22.616C645.312 19.1173 648.512 16.3867 652.693 14.424C656.96 12.376 661.994 11.352 667.797 11.352C673.685 11.352 678.677 12.4187 682.773 14.552C686.869 16.6853 689.941 19.544 691.989 23.128C694.037 26.712 694.976 30.6373 694.805 34.904H674.197C674.282 32.6 673.685 30.8507 672.405 29.656C671.21 28.376 669.589 27.736 667.541 27.736C665.493 27.736 663.786 28.3333 662.421 29.528C661.056 30.7227 660.373 32.2587 660.373 34.136C660.373 35.928 660.928 37.8053 662.037 39.768C663.232 41.7307 665.066 43.992 667.541 46.552L689.429 67.928C689.6 67.5013 689.813 66.9893 690.069 66.392C690.41 65.7947 690.752 65.112 691.093 64.344L695.829 56.28H717.717L711.573 67.416C709.269 72.4507 706.624 77.2293 703.637 81.752L725.269 103H699.797ZM662.805 86.744C668.522 86.744 673.6 85.1227 678.037 81.88L658.069 62.552C651.925 65.7093 648.853 69.976 648.853 75.352C648.853 78.5947 650.09 81.3253 652.565 83.544C655.125 85.6773 658.538 86.744 662.805 86.744ZM862.071 13.144V103H840.183V49.112L820.087 103H802.423L782.199 48.984V103H760.311V13.144H786.167L811.383 75.352L836.343 13.144H862.071ZM910.323 104.024C903.326 104.024 897.011 102.531 891.379 99.544C885.832 96.5573 881.438 92.2907 878.195 86.744C875.038 81.1973 873.459 74.712 873.459 67.288C873.459 59.9493 875.08 53.5067 878.323 47.96C881.566 42.328 886.003 38.0187 891.635 35.032C897.267 32.0453 903.582 30.552 910.579 30.552C917.576 30.552 923.891 32.0453 929.523 35.032C935.155 38.0187 939.592 42.328 942.835 47.96C946.078 53.5067 947.699 59.9493 947.699 67.288C947.699 74.6267 946.035 81.112 942.707 86.744C939.464 92.2907 934.984 96.5573 929.267 99.544C923.635 102.531 917.32 104.024 910.323 104.024ZM910.323 85.08C914.504 85.08 918.046 83.544 920.947 80.472C923.934 77.4 925.427 73.0053 925.427 67.288C925.427 61.5707 923.976 57.176 921.075 54.104C918.259 51.032 914.76 49.496 910.579 49.496C906.312 49.496 902.771 51.032 899.955 54.104C897.139 57.0907 895.731 61.4853 895.731 67.288C895.731 73.0053 897.096 77.4 899.827 80.472C902.643 83.544 906.142 85.08 910.323 85.08ZM1002.83 30.808C1011.19 30.808 1017.85 33.5387 1022.8 39C1027.83 44.376 1030.35 51.8 1030.35 61.272V103H1008.59V64.216C1008.59 59.4373 1007.35 55.7253 1004.88 53.08C1002.4 50.4347 999.076 49.112 994.895 49.112C990.714 49.112 987.386 50.4347 984.911 53.08C982.436 55.7253 981.199 59.4373 981.199 64.216V103H959.311V31.576H981.199V41.048C983.418 37.8907 986.404 35.416 990.159 33.624C993.914 31.7467 998.138 30.808 1002.83 30.808ZM1056.57 24.152C1052.73 24.152 1049.57 23.0427 1047.1 20.824C1044.71 18.52 1043.51 15.704 1043.51 12.376C1043.51 8.96266 1044.71 6.14666 1047.1 3.92799C1049.57 1.62399 1052.73 0.471992 1056.57 0.471992C1060.32 0.471992 1063.4 1.62399 1065.79 3.92799C1068.26 6.14666 1069.5 8.96266 1069.5 12.376C1069.5 15.704 1068.26 18.52 1065.79 20.824C1063.4 23.0427 1060.32 24.152 1056.57 24.152ZM1067.45 31.576V103H1045.56V31.576H1067.45ZM1123.12 84.44V103H1111.98C1104.05 103 1097.86 101.08 1093.42 97.24C1088.99 93.3147 1086.77 86.9573 1086.77 78.168V49.752H1078.06V31.576H1086.77V14.168H1108.66V31.576H1122.99V49.752H1108.66V78.424C1108.66 80.5573 1109.17 82.0933 1110.19 83.032C1111.22 83.9707 1112.92 84.44 1115.31 84.44H1123.12ZM1167.82 104.024C1160.83 104.024 1154.51 102.531 1148.88 99.544C1143.33 96.5573 1138.94 92.2907 1135.7 86.744C1132.54 81.1973 1130.96 74.712 1130.96 67.288C1130.96 59.9493 1132.58 53.5067 1135.82 47.96C1139.07 42.328 1143.5 38.0187 1149.14 35.032C1154.77 32.0453 1161.08 30.552 1168.08 30.552C1175.08 30.552 1181.39 32.0453 1187.02 35.032C1192.66 38.0187 1197.09 42.328 1200.34 47.96C1203.58 53.5067 1205.2 59.9493 1205.2 67.288C1205.2 74.6267 1203.54 81.112 1200.21 86.744C1196.96 92.2907 1192.48 96.5573 1186.77 99.544C1181.14 102.531 1174.82 104.024 1167.82 104.024ZM1167.82 85.08C1172 85.08 1175.55 83.544 1178.45 80.472C1181.43 77.4 1182.93 73.0053 1182.93 67.288C1182.93 61.5707 1181.48 57.176 1178.58 54.104C1175.76 51.032 1172.26 49.496 1168.08 49.496C1163.81 49.496 1160.27 51.032 1157.46 54.104C1154.64 57.0907 1153.23 61.4853 1153.23 67.288C1153.23 73.0053 1154.6 77.4 1157.33 80.472C1160.14 83.544 1163.64 85.08 1167.82 85.08ZM1238.7 43.48C1241.26 39.5547 1244.46 36.4827 1248.3 34.264C1252.14 31.96 1256.41 30.808 1261.1 30.808V53.976H1255.08C1249.62 53.976 1245.53 55.1707 1242.8 57.56C1240.06 59.864 1238.7 63.96 1238.7 69.848V103H1216.81V31.576H1238.7V43.48Z" fill="#12062E"/>
</svg>
