<svg width="380" height="138" viewBox="0 0 380 138" fill="none" xmlns="http://www.w3.org/2000/svg">
<path d="M46.76 103L28.072 69.08H22.824V103H0.936V13.144H37.672C44.7547 13.144 50.7707 14.3813 55.72 16.856C60.7547 19.3307 64.5093 22.744 66.984 27.096C69.4587 31.3627 70.696 36.1413 70.696 41.432C70.696 47.4053 68.9893 52.7387 65.576 57.432C62.248 62.1253 57.2987 65.4533 50.728 67.416L71.464 103H46.76ZM22.824 53.592H36.392C40.4027 53.592 43.3893 52.6107 45.352 50.648C47.4 48.6853 48.424 45.912 48.424 42.328C48.424 38.9147 47.4 36.2267 45.352 34.264C43.3893 32.3013 40.4027 31.32 36.392 31.32H22.824V53.592ZM151.764 66.136C151.764 68.184 151.636 70.3173 151.38 72.536H101.844C102.185 76.9733 103.593 80.3867 106.068 82.776C108.628 85.08 111.743 86.232 115.412 86.232C120.873 86.232 124.671 83.928 126.804 79.32H150.1C148.905 84.0133 146.729 88.2373 143.572 91.992C140.5 95.7467 136.617 98.6907 131.924 100.824C127.231 102.957 121.983 104.024 116.18 104.024C109.183 104.024 102.953 102.531 97.492 99.544C92.0307 96.5573 87.764 92.2907 84.692 86.744C81.62 81.1973 80.084 74.712 80.084 67.288C80.084 59.864 81.5773 53.3787 84.564 47.832C87.636 42.2853 91.9027 38.0187 97.364 35.032C102.825 32.0453 109.097 30.552 116.18 30.552C123.092 30.552 129.236 32.0027 134.612 34.904C139.988 37.8053 144.169 41.944 147.156 47.32C150.228 52.696 151.764 58.968 151.764 66.136ZM129.364 60.376C129.364 56.6213 128.084 53.6347 125.524 51.416C122.964 49.1973 119.764 48.088 115.924 48.088C112.255 48.088 109.14 49.1547 106.58 51.288C104.105 53.4213 102.569 56.4507 101.972 60.376H129.364ZM158.959 67.416C158.959 60.3333 160.41 54.0187 163.311 48.472C166.298 42.9253 170.266 38.616 175.215 35.544C180.25 32.3867 185.711 30.808 191.599 30.808C196.122 30.808 200.175 31.6187 203.759 33.24C207.343 34.776 210.244 36.952 212.463 39.768V31.576H234.351V137.048H212.463V94.04C209.988 97.0267 206.959 99.416 203.375 101.208C199.876 103 195.866 103.896 191.343 103.896C185.54 103.896 180.164 102.36 175.215 99.288C170.266 96.216 166.298 91.9067 163.311 86.36C160.41 80.8133 158.959 74.4987 158.959 67.416ZM212.463 67.288C212.463 63.448 211.695 60.248 210.159 57.688C208.708 55.0427 206.788 53.08 204.399 51.8C202.01 50.4347 199.492 49.752 196.847 49.752C194.287 49.752 191.812 50.4347 189.423 51.8C187.034 53.08 185.071 55.0427 183.535 57.688C181.999 60.3333 181.231 63.576 181.231 67.416C181.231 71.256 181.999 74.4987 183.535 77.144C185.071 79.704 187.034 81.6667 189.423 83.032C191.812 84.312 194.287 84.952 196.847 84.952C199.407 84.952 201.882 84.312 204.271 83.032C206.746 81.6667 208.708 79.6613 210.159 77.016C211.695 74.3707 212.463 71.128 212.463 67.288ZM320.714 31.576V103H298.826V93.272C296.607 96.4293 293.578 98.9893 289.738 100.952C285.983 102.829 281.802 103.768 277.194 103.768C271.733 103.768 266.911 102.573 262.73 100.184C258.549 97.7093 255.306 94.168 253.002 89.56C250.698 84.952 249.546 79.5333 249.546 73.304V31.576H271.306V70.36C271.306 75.1387 272.543 78.8507 275.018 81.496C277.493 84.1413 280.821 85.464 285.002 85.464C289.269 85.464 292.639 84.1413 295.114 81.496C297.589 78.8507 298.826 75.1387 298.826 70.36V31.576H320.714ZM347.444 24.152C343.604 24.152 340.447 23.0427 337.972 20.824C335.583 18.52 334.388 15.704 334.388 12.376C334.388 8.96266 335.583 6.14666 337.972 3.92799C340.447 1.62399 343.604 0.471992 347.444 0.471992C351.199 0.471992 354.271 1.62399 356.66 3.92799C359.135 6.14666 360.372 8.96266 360.372 12.376C360.372 15.704 359.135 18.52 356.66 20.824C354.271 23.0427 351.199 24.152 347.444 24.152ZM358.324 31.576V103H336.436V31.576H358.324ZM396.074 43.48C398.634 39.5547 401.834 36.4827 405.674 34.264C409.514 31.96 413.781 30.808 418.474 30.808V53.976H412.458C406.997 53.976 402.901 55.1707 400.17 57.56C397.439 59.864 396.074 63.96 396.074 69.848V103H374.186V31.576H396.074V43.48ZM496.264 66.136C496.264 68.184 496.136 70.3173 495.88 72.536H446.344C446.685 76.9733 448.093 80.3867 450.568 82.776C453.128 85.08 456.243 86.232 459.912 86.232C465.373 86.232 469.171 83.928 471.304 79.32H494.6C493.405 84.0133 491.229 88.2373 488.072 91.992C485 95.7467 481.117 98.6907 476.424 100.824C471.731 102.957 466.483 104.024 460.68 104.024C453.683 104.024 447.453 102.531 441.992 99.544C436.531 96.5573 432.264 92.2907 429.192 86.744C426.12 81.1973 424.584 74.712 424.584 67.288C424.584 59.864 426.077 53.3787 429.064 47.832C432.136 42.2853 436.403 38.0187 441.864 35.032C447.325 32.0453 453.597 30.552 460.68 30.552C467.592 30.552 473.736 32.0027 479.112 34.904C484.488 37.8053 488.669 41.944 491.656 47.32C494.728 52.696 496.264 58.968 496.264 66.136ZM473.864 60.376C473.864 56.6213 472.584 53.6347 470.024 51.416C467.464 49.1973 464.264 48.088 460.424 48.088C456.755 48.088 453.64 49.1547 451.08 51.288C448.605 53.4213 447.069 56.4507 446.472 60.376H473.864ZM598.947 30.808C607.822 30.808 614.862 33.496 620.067 38.872C625.358 44.248 628.003 51.7147 628.003 61.272V103H606.243V64.216C606.243 59.608 605.006 56.0667 602.531 53.592C600.142 51.032 596.814 49.752 592.547 49.752C588.28 49.752 584.91 51.032 582.435 53.592C580.046 56.0667 578.851 59.608 578.851 64.216V103H557.091V64.216C557.091 59.608 555.854 56.0667 553.379 53.592C550.99 51.032 547.662 49.752 543.395 49.752C539.128 49.752 535.758 51.032 533.283 53.592C530.894 56.0667 529.699 59.608 529.699 64.216V103H507.811V31.576H529.699V40.536C531.918 37.5493 534.819 35.2027 538.403 33.496C541.987 31.704 546.04 30.808 550.563 30.808C555.939 30.808 560.718 31.96 564.899 34.264C569.166 36.568 572.494 39.8533 574.883 44.12C577.358 40.1947 580.728 36.9947 584.995 34.52C589.262 32.0453 593.912 30.808 598.947 30.808ZM710.639 66.136C710.639 68.184 710.511 70.3173 710.255 72.536H660.719C661.06 76.9733 662.468 80.3867 664.943 82.776C667.503 85.08 670.618 86.232 674.287 86.232C679.748 86.232 683.546 83.928 685.679 79.32H708.975C707.78 84.0133 705.604 88.2373 702.447 91.992C699.375 95.7467 695.492 98.6907 690.799 100.824C686.106 102.957 680.858 104.024 675.055 104.024C668.058 104.024 661.828 102.531 656.367 99.544C650.906 96.5573 646.639 92.2907 643.567 86.744C640.495 81.1973 638.959 74.712 638.959 67.288C638.959 59.864 640.452 53.3787 643.439 47.832C646.511 42.2853 650.778 38.0187 656.239 35.032C661.7 32.0453 667.972 30.552 675.055 30.552C681.967 30.552 688.111 32.0027 693.487 34.904C698.863 37.8053 703.044 41.944 706.031 47.32C709.103 52.696 710.639 58.968 710.639 66.136ZM688.239 60.376C688.239 56.6213 686.959 53.6347 684.399 51.416C681.839 49.1973 678.639 48.088 674.799 48.088C671.13 48.088 668.015 49.1547 665.455 51.288C662.98 53.4213 661.444 56.4507 660.847 60.376H688.239ZM765.706 30.808C774.069 30.808 780.725 33.5387 785.674 39C790.709 44.376 793.226 51.8 793.226 61.272V103H771.466V64.216C771.466 59.4373 770.229 55.7253 767.754 53.08C765.279 50.4347 761.951 49.112 757.77 49.112C753.589 49.112 750.261 50.4347 747.786 53.08C745.311 55.7253 744.074 59.4373 744.074 64.216V103H722.186V31.576H744.074V41.048C746.293 37.8907 749.279 35.416 753.034 33.624C756.789 31.7467 761.013 30.808 765.706 30.808ZM848.244 84.44V103H837.108C829.172 103 822.985 101.08 818.548 97.24C814.111 93.3147 811.892 86.9573 811.892 78.168V49.752H803.188V31.576H811.892V14.168H833.78V31.576H848.116V49.752H833.78V78.424C833.78 80.5573 834.292 82.0933 835.316 83.032C836.34 83.9707 838.047 84.44 840.436 84.44H848.244ZM889.492 104.024C883.263 104.024 877.716 102.957 872.852 100.824C867.988 98.6907 864.148 95.7893 861.332 92.12C858.516 88.3653 856.937 84.184 856.596 79.576H878.228C878.484 82.0507 879.636 84.056 881.684 85.592C883.732 87.128 886.249 87.896 889.236 87.896C891.967 87.896 894.057 87.384 895.508 86.36C897.044 85.2507 897.812 83.8427 897.812 82.136C897.812 80.088 896.745 78.5947 894.612 77.656C892.479 76.632 889.023 75.5227 884.244 74.328C879.124 73.1333 874.857 71.896 871.444 70.616C868.031 69.2507 865.087 67.16 862.612 64.344C860.137 61.4427 858.9 57.56 858.9 52.696C858.9 48.6 860.009 44.888 862.228 41.56C864.532 38.1467 867.86 35.4587 872.212 33.496C876.649 31.5333 881.897 30.552 887.956 30.552C896.916 30.552 903.956 32.7707 909.076 37.208C914.281 41.6453 917.268 47.5333 918.036 54.872H897.812C897.471 52.3973 896.361 50.4347 894.484 48.984C892.692 47.5333 890.303 46.808 887.316 46.808C884.756 46.808 882.793 47.32 881.428 48.344C880.063 49.2827 879.38 50.6053 879.38 52.312C879.38 54.36 880.447 55.896 882.58 56.92C884.799 57.944 888.212 58.968 892.82 59.992C898.111 61.3573 902.42 62.7227 905.748 64.088C909.076 65.368 911.977 67.5013 914.452 70.488C917.012 73.3893 918.335 77.3147 918.42 82.264C918.42 86.4453 917.225 90.2 914.836 93.528C912.532 96.7707 909.161 99.3307 904.724 101.208C900.372 103.085 895.295 104.024 889.492 104.024Z" fill="#12062E"/>
</svg>
