<svg width="334" height="145" viewBox="0 0 334 145" fill="none" xmlns="http://www.w3.org/2000/svg">
<path d="M-0.144931 53.1721V37.4619M7.71014 45.317H-8H7.71014Z" stroke="#12062E" stroke-opacity="0.1" stroke-miterlimit="10"/>
<path d="M-0.144931 15.7101V0M7.71014 7.85507H-8H7.71014Z" stroke="#12062E" stroke-opacity="0.1" stroke-miterlimit="10"/>
<path d="M-0.144931 53.1721V37.4619M7.71014 45.317H-8H7.71014Z" stroke="#12062E" stroke-opacity="0.1" stroke-width="2" stroke-miterlimit="10"/>
<path d="M-0.144931 15.7101V0M7.71014 7.85507H-8H7.71014Z" stroke="#12062E" stroke-opacity="0.1" stroke-width="2" stroke-miterlimit="10"/>
<path d="M36.107 53.1721V37.4619M43.9621 45.317H28.252H43.9621Z" stroke="#12062E" stroke-opacity="0.1" stroke-miterlimit="10"/>
<path d="M36.107 15.7101V0M43.9621 7.85507H28.252H43.9621Z" stroke="#12062E" stroke-opacity="0.1" stroke-miterlimit="10"/>
<path d="M36.107 53.1721V37.4619M43.9621 45.317H28.252H43.9621Z" stroke="#12062E" stroke-opacity="0.1" stroke-width="2" stroke-miterlimit="10"/>
<path d="M36.107 15.7101V0M43.9621 7.85507H28.252H43.9621Z" stroke="#12062E" stroke-opacity="0.1" stroke-width="2" stroke-miterlimit="10"/>
<path d="M72.3648 53.1721V37.4619M80.2199 45.317H64.5098H80.2199Z" stroke="#12062E" stroke-opacity="0.1" stroke-miterlimit="10"/>
<path d="M72.3648 15.7101V0M80.2199 7.85507H64.5098H80.2199Z" stroke="#12062E" stroke-opacity="0.1" stroke-miterlimit="10"/>
<path d="M72.3648 53.1721V37.4619M80.2199 45.317H64.5098H80.2199Z" stroke="#12062E" stroke-opacity="0.1" stroke-width="2" stroke-miterlimit="10"/>
<path d="M72.3648 15.7101V0M80.2199 7.85507H64.5098H80.2199Z" stroke="#12062E" stroke-opacity="0.1" stroke-width="2" stroke-miterlimit="10"/>
<path d="M108.617 53.1721V37.4619M116.472 45.317H100.762H116.472Z" stroke="#12062E" stroke-opacity="0.1" stroke-miterlimit="10"/>
<path d="M108.617 15.7101V0M116.472 7.85507H100.762H116.472Z" stroke="#12062E" stroke-opacity="0.1" stroke-miterlimit="10"/>
<path d="M108.617 53.1721V37.4619M116.472 45.317H100.762H116.472Z" stroke="#12062E" stroke-opacity="0.1" stroke-width="2" stroke-miterlimit="10"/>
<path d="M108.617 15.7101V0M116.472 7.85507H100.762H116.472Z" stroke="#12062E" stroke-opacity="0.1" stroke-width="2" stroke-miterlimit="10"/>
<path d="M144.871 53.1721V37.4619M152.726 45.317H137.016H152.726Z" stroke="#12062E" stroke-opacity="0.1" stroke-miterlimit="10"/>
<path d="M144.871 15.7101V0M152.726 7.85507H137.016H152.726Z" stroke="#12062E" stroke-opacity="0.1" stroke-miterlimit="10"/>
<path d="M144.871 53.1721V37.4619M152.726 45.317H137.016H152.726Z" stroke="#12062E" stroke-opacity="0.1" stroke-width="2" stroke-miterlimit="10"/>
<path d="M144.871 15.7101V0M152.726 7.85507H137.016H152.726Z" stroke="#12062E" stroke-opacity="0.1" stroke-width="2" stroke-miterlimit="10"/>
<path d="M181.125 53.1721V37.4619M188.98 45.317H173.27H188.98Z" stroke="#12062E" stroke-opacity="0.1" stroke-miterlimit="10"/>
<path d="M181.125 15.7101V0M188.98 7.85507H173.27H188.98Z" stroke="#12062E" stroke-opacity="0.1" stroke-miterlimit="10"/>
<path d="M181.125 53.1721V37.4619M188.98 45.317H173.27H188.98Z" stroke="#12062E" stroke-opacity="0.1" stroke-width="2" stroke-miterlimit="10"/>
<path d="M181.125 15.7101V0M188.98 7.85507H173.27H188.98Z" stroke="#12062E" stroke-opacity="0.1" stroke-width="2" stroke-miterlimit="10"/>
<path d="M217.38 53.1721V37.4619M225.236 45.317H209.525H225.236Z" stroke="#12062E" stroke-opacity="0.1" stroke-miterlimit="10"/>
<path d="M217.38 15.7101V0M225.236 7.85507H209.525H225.236Z" stroke="#12062E" stroke-opacity="0.1" stroke-miterlimit="10"/>
<path d="M217.38 53.1721V37.4619M225.236 45.317H209.525H225.236Z" stroke="#12062E" stroke-opacity="0.1" stroke-width="2" stroke-miterlimit="10"/>
<path d="M217.38 15.7101V0M225.236 7.85507H209.525H225.236Z" stroke="#12062E" stroke-opacity="0.1" stroke-width="2" stroke-miterlimit="10"/>
<path d="M253.634 53.1721V37.4619M261.489 45.317H245.779H261.489Z" stroke="#12062E" stroke-opacity="0.1" stroke-miterlimit="10"/>
<path d="M253.634 15.7101V0M261.489 7.85507H245.779H261.489Z" stroke="#12062E" stroke-opacity="0.1" stroke-miterlimit="10"/>
<path d="M253.634 53.1721V37.4619M261.489 45.317H245.779H261.489Z" stroke="#12062E" stroke-opacity="0.1" stroke-width="2" stroke-miterlimit="10"/>
<path d="M253.634 15.7101V0M261.489 7.85507H245.779H261.489Z" stroke="#12062E" stroke-opacity="0.1" stroke-width="2" stroke-miterlimit="10"/>
<path d="M289.888 53.1721V37.4619M297.743 45.317H282.033H297.743Z" stroke="#12062E" stroke-opacity="0.1" stroke-miterlimit="10"/>
<path d="M289.888 15.7101V0M297.743 7.85507H282.033H297.743Z" stroke="#12062E" stroke-opacity="0.1" stroke-miterlimit="10"/>
<path d="M289.888 53.1721V37.4619M297.743 45.317H282.033H297.743Z" stroke="#12062E" stroke-opacity="0.1" stroke-width="2" stroke-miterlimit="10"/>
<path d="M289.888 15.7101V0M297.743 7.85507H282.033H297.743Z" stroke="#12062E" stroke-opacity="0.1" stroke-width="2" stroke-miterlimit="10"/>
<path d="M326.144 53.1721V37.4619M333.999 45.317H318.289H333.999Z" stroke="#12062E" stroke-opacity="0.1" stroke-miterlimit="10"/>
<path d="M326.144 15.7101V0M333.999 7.85507H318.289H333.999Z" stroke="#12062E" stroke-opacity="0.1" stroke-miterlimit="10"/>
<path d="M326.144 53.1721V37.4619M333.999 45.317H318.289H333.999Z" stroke="#12062E" stroke-opacity="0.1" stroke-width="2" stroke-miterlimit="10"/>
<path d="M326.144 15.7101V0M333.999 7.85507H318.289H333.999Z" stroke="#12062E" stroke-opacity="0.1" stroke-width="2" stroke-miterlimit="10"/>
<path d="M-0.144931 126.891V111.181M7.71014 119.036H-8H7.71014Z" stroke="#12062E" stroke-opacity="0.1" stroke-miterlimit="10"/>
<path d="M-0.144931 89.426V73.7158M7.71014 81.5709H-8H7.71014Z" stroke="#12062E" stroke-opacity="0.1" stroke-miterlimit="10"/>
<path d="M-0.144931 126.891V111.181M7.71014 119.036H-8H7.71014Z" stroke="#12062E" stroke-opacity="0.1" stroke-width="2" stroke-miterlimit="10"/>
<path d="M-0.144931 89.426V73.7158M7.71014 81.5709H-8H7.71014Z" stroke="#12062E" stroke-opacity="0.1" stroke-width="2" stroke-miterlimit="10"/>
<path d="M36.107 126.887V111.177M43.9621 119.032H28.252H43.9621Z" stroke="#12062E" stroke-opacity="0.1" stroke-miterlimit="10"/>
<path d="M36.107 89.426V73.7158M43.9621 81.5709H28.252H43.9621Z" stroke="#12062E" stroke-opacity="0.1" stroke-miterlimit="10"/>
<path d="M36.107 126.887V111.177M43.9621 119.032H28.252H43.9621Z" stroke="#12062E" stroke-opacity="0.1" stroke-width="2" stroke-miterlimit="10"/>
<path d="M36.107 89.426V73.7158M43.9621 81.5709H28.252H43.9621Z" stroke="#12062E" stroke-opacity="0.1" stroke-width="2" stroke-miterlimit="10"/>
<path d="M72.3648 126.887V111.177M80.2199 119.032H64.5098H80.2199Z" stroke="#12062E" stroke-opacity="0.1" stroke-miterlimit="10"/>
<path d="M72.3648 89.426V73.7158M80.2199 81.5709H64.5098H80.2199Z" stroke="#12062E" stroke-opacity="0.1" stroke-miterlimit="10"/>
<path d="M72.3648 126.887V111.177M80.2199 119.032H64.5098H80.2199Z" stroke="#12062E" stroke-opacity="0.1" stroke-width="2" stroke-miterlimit="10"/>
<path d="M72.3648 89.426V73.7158M80.2199 81.5709H64.5098H80.2199Z" stroke="#12062E" stroke-opacity="0.1" stroke-width="2" stroke-miterlimit="10"/>
<path d="M108.617 126.891V111.181M116.472 119.036H100.762H116.472Z" stroke="#12062E" stroke-opacity="0.1" stroke-miterlimit="10"/>
<path d="M108.617 89.426V73.7158M116.472 81.5709H100.762H116.472Z" stroke="#12062E" stroke-opacity="0.1" stroke-miterlimit="10"/>
<path d="M108.617 126.891V111.181M116.472 119.036H100.762H116.472Z" stroke="#12062E" stroke-opacity="0.1" stroke-width="2" stroke-miterlimit="10"/>
<path d="M108.617 89.426V73.7158M116.472 81.5709H100.762H116.472Z" stroke="#12062E" stroke-opacity="0.1" stroke-width="2" stroke-miterlimit="10"/>
<path d="M144.871 126.891V111.181M152.726 119.036H137.016H152.726Z" stroke="#12062E" stroke-opacity="0.1" stroke-miterlimit="10"/>
<path d="M144.871 89.426V73.7158M152.726 81.5709H137.016H152.726Z" stroke="#12062E" stroke-opacity="0.1" stroke-miterlimit="10"/>
<path d="M144.871 126.891V111.181M152.726 119.036H137.016H152.726Z" stroke="#12062E" stroke-opacity="0.1" stroke-width="2" stroke-miterlimit="10"/>
<path d="M144.871 89.426V73.7158M152.726 81.5709H137.016H152.726Z" stroke="#12062E" stroke-opacity="0.1" stroke-width="2" stroke-miterlimit="10"/>
<path d="M181.125 126.887V111.177M188.98 119.032H173.27H188.98Z" stroke="#12062E" stroke-opacity="0.1" stroke-miterlimit="10"/>
<path d="M181.125 89.426V73.7158M188.98 81.5709H173.27H188.98Z" stroke="#12062E" stroke-opacity="0.1" stroke-miterlimit="10"/>
<path d="M181.125 126.887V111.177M188.98 119.032H173.27H188.98Z" stroke="#12062E" stroke-opacity="0.1" stroke-width="2" stroke-miterlimit="10"/>
<path d="M181.125 89.426V73.7158M188.98 81.5709H173.27H188.98Z" stroke="#12062E" stroke-opacity="0.1" stroke-width="2" stroke-miterlimit="10"/>
<path d="M217.38 126.887V111.177M225.236 119.032H209.525H225.236Z" stroke="#12062E" stroke-opacity="0.1" stroke-miterlimit="10"/>
<path d="M217.38 89.426V73.7158M225.236 81.5709H209.525H225.236Z" stroke="#12062E" stroke-opacity="0.1" stroke-miterlimit="10"/>
<path d="M217.38 126.887V111.177M225.236 119.032H209.525H225.236Z" stroke="#12062E" stroke-opacity="0.1" stroke-width="2" stroke-miterlimit="10"/>
<path d="M217.38 89.426V73.7158M225.236 81.5709H209.525H225.236Z" stroke="#12062E" stroke-opacity="0.1" stroke-width="2" stroke-miterlimit="10"/>
<path d="M253.634 126.891V111.181M261.489 119.036H245.779H261.489Z" stroke="#12062E" stroke-opacity="0.1" stroke-miterlimit="10"/>
<path d="M253.634 89.426V73.7158M261.489 81.5709H245.779H261.489Z" stroke="#12062E" stroke-opacity="0.1" stroke-miterlimit="10"/>
<path d="M253.634 126.891V111.181M261.489 119.036H245.779H261.489Z" stroke="#12062E" stroke-opacity="0.1" stroke-width="2" stroke-miterlimit="10"/>
<path d="M253.634 89.426V73.7158M261.489 81.5709H245.779H261.489Z" stroke="#12062E" stroke-opacity="0.1" stroke-width="2" stroke-miterlimit="10"/>
<path d="M289.888 126.891V111.181M297.743 119.036H282.033H297.743Z" stroke="#12062E" stroke-opacity="0.1" stroke-miterlimit="10"/>
<path d="M289.888 89.426V73.7158M297.743 81.5709H282.033H297.743Z" stroke="#12062E" stroke-opacity="0.1" stroke-miterlimit="10"/>
<path d="M289.888 126.891V111.181M297.743 119.036H282.033H297.743Z" stroke="#12062E" stroke-opacity="0.1" stroke-width="2" stroke-miterlimit="10"/>
<path d="M289.888 89.426V73.7158M297.743 81.5709H282.033H297.743Z" stroke="#12062E" stroke-opacity="0.1" stroke-width="2" stroke-miterlimit="10"/>
<path d="M326.144 126.887V111.177M333.999 119.032H318.289H333.999Z" stroke="#12062E" stroke-opacity="0.1" stroke-miterlimit="10"/>
<path d="M326.144 89.426V73.7158M333.999 81.5709H318.289H333.999Z" stroke="#12062E" stroke-opacity="0.1" stroke-miterlimit="10"/>
<path d="M326.144 126.887V111.177M333.999 119.032H318.289H333.999Z" stroke="#12062E" stroke-opacity="0.1" stroke-width="2" stroke-miterlimit="10"/>
<path d="M326.144 89.426V73.7158M333.999 81.5709H318.289H333.999Z" stroke="#12062E" stroke-opacity="0.1" stroke-width="2" stroke-miterlimit="10"/>
</svg>
