<svg width="220" height="219" viewBox="0 0 220 219" fill="none" xmlns="http://www.w3.org/2000/svg">
<path d="M5.03004 60.0493V49.9893M10.0601 55.0193H0H10.0601Z" stroke="#EEEEEE" stroke-miterlimit="10"/>
<path d="M5.03004 36.0601V26M10.0601 31.03H0H10.0601Z" stroke="#EEEEEE" stroke-miterlimit="10"/>
<path d="M5.03004 60.0493V49.9893M10.0601 55.0193H0H10.0601Z" stroke="#EEEEEE" stroke-width="2" stroke-miterlimit="10"/>
<path d="M5.03004 36.0601V26M10.0601 31.03H0H10.0601Z" stroke="#EEEEEE" stroke-width="2" stroke-miterlimit="10"/>
<path d="M28.2449 60.0493V49.9893M33.2749 55.0193H23.2148H33.2749Z" stroke="#EEEEEE" stroke-miterlimit="10"/>
<path d="M28.2449 36.0601V26M33.2749 31.03H23.2148H33.2749Z" stroke="#EEEEEE" stroke-miterlimit="10"/>
<path d="M28.2449 60.0493V49.9893M33.2749 55.0193H23.2148H33.2749Z" stroke="#EEEEEE" stroke-width="2" stroke-miterlimit="10"/>
<path d="M28.2449 36.0601V26M33.2749 31.03H23.2148H33.2749Z" stroke="#EEEEEE" stroke-width="2" stroke-miterlimit="10"/>
<path d="M51.4617 60.0493V49.9893M56.4917 55.0193H46.4316H56.4917Z" stroke="#EEEEEE" stroke-miterlimit="10"/>
<path d="M51.4617 36.0601V26M56.4917 31.03H46.4316H56.4917Z" stroke="#EEEEEE" stroke-miterlimit="10"/>
<path d="M51.4617 60.0493V49.9893M56.4917 55.0193H46.4316H56.4917Z" stroke="#EEEEEE" stroke-width="2" stroke-miterlimit="10"/>
<path d="M51.4617 36.0601V26M56.4917 31.03H46.4316H56.4917Z" stroke="#EEEEEE" stroke-width="2" stroke-miterlimit="10"/>
<path d="M74.6765 60.0493V49.9893M79.7066 55.0193H69.6465H79.7066Z" stroke="#EEEEEE" stroke-miterlimit="10"/>
<path d="M74.6765 36.0601V26M79.7066 31.03H69.6465H79.7066Z" stroke="#EEEEEE" stroke-miterlimit="10"/>
<path d="M74.6765 60.0493V49.9893M79.7066 55.0193H69.6465H79.7066Z" stroke="#EEEEEE" stroke-width="2" stroke-miterlimit="10"/>
<path d="M74.6765 36.0601V26M79.7066 31.03H69.6465H79.7066Z" stroke="#EEEEEE" stroke-width="2" stroke-miterlimit="10"/>
<path d="M97.8914 60.0493V49.9893M102.921 55.0193H92.8613H102.921Z" stroke="#EEEEEE" stroke-miterlimit="10"/>
<path d="M97.8914 36.0601V26M102.921 31.03H92.8613H102.921Z" stroke="#EEEEEE" stroke-miterlimit="10"/>
<path d="M97.8914 60.0493V49.9893M102.921 55.0193H92.8613H102.921Z" stroke="#EEEEEE" stroke-width="2" stroke-miterlimit="10"/>
<path d="M97.8914 36.0601V26M102.921 31.03H92.8613H102.921Z" stroke="#EEEEEE" stroke-width="2" stroke-miterlimit="10"/>
<path d="M121.106 60.0493V49.9893M126.136 55.0193H116.076H126.136Z" stroke="#EEEEEE" stroke-miterlimit="10"/>
<path d="M121.106 36.0601V26M126.136 31.03H116.076H126.136Z" stroke="#EEEEEE" stroke-miterlimit="10"/>
<path d="M121.106 60.0493V49.9893M126.136 55.0193H116.076H126.136Z" stroke="#EEEEEE" stroke-width="2" stroke-miterlimit="10"/>
<path d="M121.106 36.0601V26M126.136 31.03H116.076H126.136Z" stroke="#EEEEEE" stroke-width="2" stroke-miterlimit="10"/>
<path d="M144.325 60.0493V49.9893M149.355 55.0193H139.295H149.355Z" stroke="#EEEEEE" stroke-miterlimit="10"/>
<path d="M144.325 36.0601V26M149.355 31.03H139.295H149.355Z" stroke="#EEEEEE" stroke-miterlimit="10"/>
<path d="M144.325 60.0493V49.9893M149.355 55.0193H139.295H149.355Z" stroke="#EEEEEE" stroke-width="2" stroke-miterlimit="10"/>
<path d="M144.325 36.0601V26M149.355 31.03H139.295H149.355Z" stroke="#EEEEEE" stroke-width="2" stroke-miterlimit="10"/>
<path d="M167.54 60.0493V49.9893M172.57 55.0193H162.51H172.57Z" stroke="#EEEEEE" stroke-miterlimit="10"/>
<path d="M167.54 36.0601V26M172.57 31.03H162.51H172.57Z" stroke="#EEEEEE" stroke-miterlimit="10"/>
<path d="M167.54 60.0493V49.9893M172.57 55.0193H162.51H172.57Z" stroke="#EEEEEE" stroke-width="2" stroke-miterlimit="10"/>
<path d="M167.54 36.0601V26M172.57 31.03H162.51H172.57Z" stroke="#EEEEEE" stroke-width="2" stroke-miterlimit="10"/>
<path d="M190.755 60.0493V49.9893M195.785 55.0193H185.725H195.785Z" stroke="#EEEEEE" stroke-miterlimit="10"/>
<path d="M190.755 36.0601V26M195.785 31.03H185.725H195.785Z" stroke="#EEEEEE" stroke-miterlimit="10"/>
<path d="M190.755 60.0493V49.9893M195.785 55.0193H185.725H195.785Z" stroke="#EEEEEE" stroke-width="2" stroke-miterlimit="10"/>
<path d="M190.755 36.0601V26M195.785 31.03H185.725H195.785Z" stroke="#EEEEEE" stroke-width="2" stroke-miterlimit="10"/>
<path d="M213.971 60.0493V49.9893M219.001 55.0193H208.941H219.001Z" stroke="#EEEEEE" stroke-miterlimit="10"/>
<path d="M213.971 36.0601V26M219.001 31.03H208.941H219.001Z" stroke="#EEEEEE" stroke-miterlimit="10"/>
<path d="M213.971 60.0493V49.9893M219.001 55.0193H208.941H219.001Z" stroke="#EEEEEE" stroke-width="2" stroke-miterlimit="10"/>
<path d="M213.971 36.0601V26M219.001 31.03H208.941H219.001Z" stroke="#EEEEEE" stroke-width="2" stroke-miterlimit="10"/>
<path d="M5.03004 154.459V144.399M10.0601 149.429H0H10.0601Z" stroke="#EEEEEE" stroke-miterlimit="10"/>
<path d="M5.03004 130.47V120.41M10.0601 125.44H0H10.0601Z" stroke="#EEEEEE" stroke-miterlimit="10"/>
<path d="M5.03004 154.459V144.399M10.0601 149.429H0H10.0601Z" stroke="#EEEEEE" stroke-width="2" stroke-miterlimit="10"/>
<path d="M5.03004 130.47V120.41M10.0601 125.44H0H10.0601Z" stroke="#EEEEEE" stroke-width="2" stroke-miterlimit="10"/>
<path d="M28.2449 154.459V144.399M33.2749 149.429H23.2148H33.2749Z" stroke="#EEEEEE" stroke-miterlimit="10"/>
<path d="M28.2449 130.47V120.41M33.2749 125.44H23.2148H33.2749Z" stroke="#EEEEEE" stroke-miterlimit="10"/>
<path d="M28.2449 154.459V144.399M33.2749 149.429H23.2148H33.2749Z" stroke="#EEEEEE" stroke-width="2" stroke-miterlimit="10"/>
<path d="M28.2449 130.47V120.41M33.2749 125.44H23.2148H33.2749Z" stroke="#EEEEEE" stroke-width="2" stroke-miterlimit="10"/>
<path d="M51.4617 154.459V144.399M56.4917 149.429H46.4316H56.4917Z" stroke="#EEEEEE" stroke-miterlimit="10"/>
<path d="M51.4617 130.47V120.41M56.4917 125.44H46.4316H56.4917Z" stroke="#EEEEEE" stroke-miterlimit="10"/>
<path d="M51.4617 154.459V144.399M56.4917 149.429H46.4316H56.4917Z" stroke="#EEEEEE" stroke-width="2" stroke-miterlimit="10"/>
<path d="M51.4617 130.47V120.41M56.4917 125.44H46.4316H56.4917Z" stroke="#EEEEEE" stroke-width="2" stroke-miterlimit="10"/>
<path d="M74.6765 154.459V144.399M79.7066 149.429H69.6465H79.7066Z" stroke="#EEEEEE" stroke-miterlimit="10"/>
<path d="M74.6765 130.47V120.41M79.7066 125.44H69.6465H79.7066Z" stroke="#EEEEEE" stroke-miterlimit="10"/>
<path d="M74.6765 154.459V144.399M79.7066 149.429H69.6465H79.7066Z" stroke="#EEEEEE" stroke-width="2" stroke-miterlimit="10"/>
<path d="M74.6765 130.47V120.41M79.7066 125.44H69.6465H79.7066Z" stroke="#EEEEEE" stroke-width="2" stroke-miterlimit="10"/>
<path d="M97.8914 154.459V144.399M102.921 149.429H92.8613H102.921Z" stroke="#EEEEEE" stroke-miterlimit="10"/>
<path d="M97.8914 130.47V120.41M102.921 125.44H92.8613H102.921Z" stroke="#EEEEEE" stroke-miterlimit="10"/>
<path d="M97.8914 154.459V144.399M102.921 149.429H92.8613H102.921Z" stroke="#EEEEEE" stroke-width="2" stroke-miterlimit="10"/>
<path d="M97.8914 130.47V120.41M102.921 125.44H92.8613H102.921Z" stroke="#EEEEEE" stroke-width="2" stroke-miterlimit="10"/>
<path d="M121.106 154.459V144.399M126.136 149.429H116.076H126.136Z" stroke="#EEEEEE" stroke-miterlimit="10"/>
<path d="M121.106 130.47V120.41M126.136 125.44H116.076H126.136Z" stroke="#EEEEEE" stroke-miterlimit="10"/>
<path d="M121.106 154.459V144.399M126.136 149.429H116.076H126.136Z" stroke="#EEEEEE" stroke-width="2" stroke-miterlimit="10"/>
<path d="M121.106 130.47V120.41M126.136 125.44H116.076H126.136Z" stroke="#EEEEEE" stroke-width="2" stroke-miterlimit="10"/>
<path d="M144.325 154.459V144.399M149.355 149.429H139.295H149.355Z" stroke="#EEEEEE" stroke-miterlimit="10"/>
<path d="M144.325 130.47V120.41M149.355 125.44H139.295H149.355Z" stroke="#EEEEEE" stroke-miterlimit="10"/>
<path d="M144.325 154.459V144.399M149.355 149.429H139.295H149.355Z" stroke="#EEEEEE" stroke-width="2" stroke-miterlimit="10"/>
<path d="M144.325 130.47V120.41M149.355 125.44H139.295H149.355Z" stroke="#EEEEEE" stroke-width="2" stroke-miterlimit="10"/>
<path d="M167.54 154.459V144.399M172.57 149.429H162.51H172.57Z" stroke="#EEEEEE" stroke-miterlimit="10"/>
<path d="M167.54 130.47V120.41M172.57 125.44H162.51H172.57Z" stroke="#EEEEEE" stroke-miterlimit="10"/>
<path d="M167.54 154.459V144.399M172.57 149.429H162.51H172.57Z" stroke="#EEEEEE" stroke-width="2" stroke-miterlimit="10"/>
<path d="M167.54 130.47V120.41M172.57 125.44H162.51H172.57Z" stroke="#EEEEEE" stroke-width="2" stroke-miterlimit="10"/>
<path d="M190.755 154.459V144.399M195.785 149.429H185.725H195.785Z" stroke="#EEEEEE" stroke-miterlimit="10"/>
<path d="M190.755 130.47V120.41M195.785 125.44H185.725H195.785Z" stroke="#EEEEEE" stroke-miterlimit="10"/>
<path d="M190.755 154.459V144.399M195.785 149.429H185.725H195.785Z" stroke="#EEEEEE" stroke-width="2" stroke-miterlimit="10"/>
<path d="M190.755 130.47V120.41M195.785 125.44H185.725H195.785Z" stroke="#EEEEEE" stroke-width="2" stroke-miterlimit="10"/>
<path d="M213.971 154.459V144.399M219.001 149.429H208.941H219.001Z" stroke="#EEEEEE" stroke-miterlimit="10"/>
<path d="M213.971 130.47V120.41M219.001 125.44H208.941H219.001Z" stroke="#EEEEEE" stroke-miterlimit="10"/>
<path d="M213.971 154.459V144.399M219.001 149.429H208.941H219.001Z" stroke="#EEEEEE" stroke-width="2" stroke-miterlimit="10"/>
<path d="M213.971 130.47V120.41M219.001 125.44H208.941H219.001Z" stroke="#EEEEEE" stroke-width="2" stroke-miterlimit="10"/>
<path d="M5.03004 107.254V97.1943M10.0601 102.224H0H10.0601Z" stroke="#EEEEEE" stroke-miterlimit="10"/>
<path d="M5.03004 83.2651V73.2051M10.0601 78.2351H0H10.0601Z" stroke="#EEEEEE" stroke-miterlimit="10"/>
<path d="M5.03004 107.254V97.1943M10.0601 102.224H0H10.0601Z" stroke="#EEEEEE" stroke-width="2" stroke-miterlimit="10"/>
<path d="M5.03004 83.2651V73.2051M10.0601 78.2351H0H10.0601Z" stroke="#EEEEEE" stroke-width="2" stroke-miterlimit="10"/>
<path d="M28.2449 107.254V97.1943M33.2749 102.224H23.2148H33.2749Z" stroke="#EEEEEE" stroke-miterlimit="10"/>
<path d="M28.2449 83.2651V73.2051M33.2749 78.2351H23.2148H33.2749Z" stroke="#EEEEEE" stroke-miterlimit="10"/>
<path d="M28.2449 107.254V97.1943M33.2749 102.224H23.2148H33.2749Z" stroke="#EEEEEE" stroke-width="2" stroke-miterlimit="10"/>
<path d="M28.2449 83.2651V73.2051M33.2749 78.2351H23.2148H33.2749Z" stroke="#EEEEEE" stroke-width="2" stroke-miterlimit="10"/>
<path d="M51.4617 107.254V97.1943M56.4917 102.224H46.4316H56.4917Z" stroke="#EEEEEE" stroke-miterlimit="10"/>
<path d="M51.4617 83.2651V73.2051M56.4917 78.2351H46.4316H56.4917Z" stroke="#EEEEEE" stroke-miterlimit="10"/>
<path d="M51.4617 107.254V97.1943M56.4917 102.224H46.4316H56.4917Z" stroke="#EEEEEE" stroke-width="2" stroke-miterlimit="10"/>
<path d="M51.4617 83.2651V73.2051M56.4917 78.2351H46.4316H56.4917Z" stroke="#EEEEEE" stroke-width="2" stroke-miterlimit="10"/>
<path d="M74.6765 107.254V97.1943M79.7066 102.224H69.6465H79.7066Z" stroke="#EEEEEE" stroke-miterlimit="10"/>
<path d="M74.6765 83.2651V73.2051M79.7066 78.2351H69.6465H79.7066Z" stroke="#EEEEEE" stroke-miterlimit="10"/>
<path d="M74.6765 107.254V97.1943M79.7066 102.224H69.6465H79.7066Z" stroke="#EEEEEE" stroke-width="2" stroke-miterlimit="10"/>
<path d="M74.6765 83.2651V73.2051M79.7066 78.2351H69.6465H79.7066Z" stroke="#EEEEEE" stroke-width="2" stroke-miterlimit="10"/>
<path d="M97.8914 107.254V97.1943M102.921 102.224H92.8613H102.921Z" stroke="#EEEEEE" stroke-miterlimit="10"/>
<path d="M97.8914 83.2651V73.2051M102.921 78.2351H92.8613H102.921Z" stroke="#EEEEEE" stroke-miterlimit="10"/>
<path d="M97.8914 107.254V97.1943M102.921 102.224H92.8613H102.921Z" stroke="#EEEEEE" stroke-width="2" stroke-miterlimit="10"/>
<path d="M97.8914 83.2651V73.2051M102.921 78.2351H92.8613H102.921Z" stroke="#EEEEEE" stroke-width="2" stroke-miterlimit="10"/>
<path d="M121.106 107.254V97.1943M126.136 102.224H116.076H126.136Z" stroke="#EEEEEE" stroke-miterlimit="10"/>
<path d="M121.106 83.2651V73.2051M126.136 78.2351H116.076H126.136Z" stroke="#EEEEEE" stroke-miterlimit="10"/>
<path d="M121.106 107.254V97.1943M126.136 102.224H116.076H126.136Z" stroke="#EEEEEE" stroke-width="2" stroke-miterlimit="10"/>
<path d="M121.106 83.2651V73.2051M126.136 78.2351H116.076H126.136Z" stroke="#EEEEEE" stroke-width="2" stroke-miterlimit="10"/>
<path d="M144.325 107.254V97.1943M149.355 102.224H139.295H149.355Z" stroke="#EEEEEE" stroke-miterlimit="10"/>
<path d="M144.325 83.2651V73.2051M149.355 78.2351H139.295H149.355Z" stroke="#EEEEEE" stroke-miterlimit="10"/>
<path d="M144.325 107.254V97.1943M149.355 102.224H139.295H149.355Z" stroke="#EEEEEE" stroke-width="2" stroke-miterlimit="10"/>
<path d="M144.325 83.2651V73.2051M149.355 78.2351H139.295H149.355Z" stroke="#EEEEEE" stroke-width="2" stroke-miterlimit="10"/>
<path d="M167.54 107.254V97.1943M172.57 102.224H162.51H172.57Z" stroke="#EEEEEE" stroke-miterlimit="10"/>
<path d="M167.54 83.2651V73.2051M172.57 78.2351H162.51H172.57Z" stroke="#EEEEEE" stroke-miterlimit="10"/>
<path d="M167.54 107.254V97.1943M172.57 102.224H162.51H172.57Z" stroke="#EEEEEE" stroke-width="2" stroke-miterlimit="10"/>
<path d="M167.54 83.2651V73.2051M172.57 78.2351H162.51H172.57Z" stroke="#EEEEEE" stroke-width="2" stroke-miterlimit="10"/>
<path d="M190.755 107.254V97.1943M195.785 102.224H185.725H195.785Z" stroke="#EEEEEE" stroke-miterlimit="10"/>
<path d="M190.755 83.2651V73.2051M195.785 78.2351H185.725H195.785Z" stroke="#EEEEEE" stroke-miterlimit="10"/>
<path d="M190.755 107.254V97.1943M195.785 102.224H185.725H195.785Z" stroke="#EEEEEE" stroke-width="2" stroke-miterlimit="10"/>
<path d="M190.755 83.2651V73.2051M195.785 78.2351H185.725H195.785Z" stroke="#EEEEEE" stroke-width="2" stroke-miterlimit="10"/>
<path d="M213.971 107.254V97.1943M219.001 102.224H208.941H219.001Z" stroke="#EEEEEE" stroke-miterlimit="10"/>
<path d="M213.971 83.2651V73.2051M219.001 78.2351H208.941H219.001Z" stroke="#EEEEEE" stroke-miterlimit="10"/>
<path d="M213.971 107.254V97.1943M219.001 102.224H208.941H219.001Z" stroke="#EEEEEE" stroke-width="2" stroke-miterlimit="10"/>
<path d="M213.971 83.2651V73.2051M219.001 78.2351H208.941H219.001Z" stroke="#EEEEEE" stroke-width="2" stroke-miterlimit="10"/>
<path d="M5.03004 201.665V191.604M10.0601 196.635H0H10.0601Z" stroke="#EEEEEE" stroke-miterlimit="10"/>
<path d="M5.03004 177.675V167.615M10.0601 172.645H0H10.0601Z" stroke="#EEEEEE" stroke-miterlimit="10"/>
<path d="M5.03004 201.665V191.604M10.0601 196.635H0H10.0601Z" stroke="#EEEEEE" stroke-width="2" stroke-miterlimit="10"/>
<path d="M5.03004 177.675V167.615M10.0601 172.645H0H10.0601Z" stroke="#EEEEEE" stroke-width="2" stroke-miterlimit="10"/>
<path d="M28.2449 201.665V191.604M33.2749 196.635H23.2148H33.2749Z" stroke="#EEEEEE" stroke-miterlimit="10"/>
<path d="M28.2449 177.675V167.615M33.2749 172.645H23.2148H33.2749Z" stroke="#EEEEEE" stroke-miterlimit="10"/>
<path d="M28.2449 201.665V191.604M33.2749 196.635H23.2148H33.2749Z" stroke="#EEEEEE" stroke-width="2" stroke-miterlimit="10"/>
<path d="M28.2449 177.675V167.615M33.2749 172.645H23.2148H33.2749Z" stroke="#EEEEEE" stroke-width="2" stroke-miterlimit="10"/>
<path d="M51.4617 201.665V191.604M56.4917 196.635H46.4316H56.4917Z" stroke="#EEEEEE" stroke-miterlimit="10"/>
<path d="M51.4617 177.675V167.615M56.4917 172.645H46.4316H56.4917Z" stroke="#EEEEEE" stroke-miterlimit="10"/>
<path d="M51.4617 201.665V191.604M56.4917 196.635H46.4316H56.4917Z" stroke="#EEEEEE" stroke-width="2" stroke-miterlimit="10"/>
<path d="M51.4617 177.675V167.615M56.4917 172.645H46.4316H56.4917Z" stroke="#EEEEEE" stroke-width="2" stroke-miterlimit="10"/>
<path d="M74.6765 201.665V191.604M79.7066 196.635H69.6465H79.7066Z" stroke="#EEEEEE" stroke-miterlimit="10"/>
<path d="M74.6765 177.675V167.615M79.7066 172.645H69.6465H79.7066Z" stroke="#EEEEEE" stroke-miterlimit="10"/>
<path d="M74.6765 201.665V191.604M79.7066 196.635H69.6465H79.7066Z" stroke="#EEEEEE" stroke-width="2" stroke-miterlimit="10"/>
<path d="M74.6765 177.675V167.615M79.7066 172.645H69.6465H79.7066Z" stroke="#EEEEEE" stroke-width="2" stroke-miterlimit="10"/>
<path d="M97.8914 201.665V191.604M102.921 196.635H92.8613H102.921Z" stroke="#EEEEEE" stroke-miterlimit="10"/>
<path d="M97.8914 177.675V167.615M102.921 172.645H92.8613H102.921Z" stroke="#EEEEEE" stroke-miterlimit="10"/>
<path d="M97.8914 201.665V191.604M102.921 196.635H92.8613H102.921Z" stroke="#EEEEEE" stroke-width="2" stroke-miterlimit="10"/>
<path d="M97.8914 177.675V167.615M102.921 172.645H92.8613H102.921Z" stroke="#EEEEEE" stroke-width="2" stroke-miterlimit="10"/>
<path d="M121.106 201.665V191.604M126.136 196.635H116.076H126.136Z" stroke="#EEEEEE" stroke-miterlimit="10"/>
<path d="M121.106 177.675V167.615M126.136 172.645H116.076H126.136Z" stroke="#EEEEEE" stroke-miterlimit="10"/>
<path d="M121.106 201.665V191.604M126.136 196.635H116.076H126.136Z" stroke="#EEEEEE" stroke-width="2" stroke-miterlimit="10"/>
<path d="M121.106 177.675V167.615M126.136 172.645H116.076H126.136Z" stroke="#EEEEEE" stroke-width="2" stroke-miterlimit="10"/>
<path d="M144.325 201.665V191.604M149.355 196.635H139.295H149.355Z" stroke="#EEEEEE" stroke-miterlimit="10"/>
<path d="M144.325 177.675V167.615M149.355 172.645H139.295H149.355Z" stroke="#EEEEEE" stroke-miterlimit="10"/>
<path d="M144.325 201.665V191.604M149.355 196.635H139.295H149.355Z" stroke="#EEEEEE" stroke-width="2" stroke-miterlimit="10"/>
<path d="M144.325 177.675V167.615M149.355 172.645H139.295H149.355Z" stroke="#EEEEEE" stroke-width="2" stroke-miterlimit="10"/>
<path d="M167.54 201.665V191.604M172.57 196.635H162.51H172.57Z" stroke="#EEEEEE" stroke-miterlimit="10"/>
<path d="M167.54 177.675V167.615M172.57 172.645H162.51H172.57Z" stroke="#EEEEEE" stroke-miterlimit="10"/>
<path d="M167.54 201.665V191.604M172.57 196.635H162.51H172.57Z" stroke="#EEEEEE" stroke-width="2" stroke-miterlimit="10"/>
<path d="M167.54 177.675V167.615M172.57 172.645H162.51H172.57Z" stroke="#EEEEEE" stroke-width="2" stroke-miterlimit="10"/>
<path d="M190.755 201.665V191.604M195.785 196.635H185.725H195.785Z" stroke="#EEEEEE" stroke-miterlimit="10"/>
<path d="M190.755 177.675V167.615M195.785 172.645H185.725H195.785Z" stroke="#EEEEEE" stroke-miterlimit="10"/>
<path d="M190.755 201.665V191.604M195.785 196.635H185.725H195.785Z" stroke="#EEEEEE" stroke-width="2" stroke-miterlimit="10"/>
<path d="M190.755 177.675V167.615M195.785 172.645H185.725H195.785Z" stroke="#EEEEEE" stroke-width="2" stroke-miterlimit="10"/>
<path d="M213.971 201.665V191.604M219.001 196.635H208.941H219.001Z" stroke="#EEEEEE" stroke-miterlimit="10"/>
<path d="M213.971 177.675V167.615M219.001 172.645H208.941H219.001Z" stroke="#EEEEEE" stroke-miterlimit="10"/>
<path d="M213.971 201.665V191.604M219.001 196.635H208.941H219.001Z" stroke="#EEEEEE" stroke-width="2" stroke-miterlimit="10"/>
<path d="M213.971 177.675V167.615M219.001 172.645H208.941H219.001Z" stroke="#EEEEEE" stroke-width="2" stroke-miterlimit="10"/>
<path d="M158.105 51.35C158.105 52.08 157.98 52.74 157.73 53.33C157.48 53.91 157.12 54.37 156.65 54.71C156.18 55.05 155.625 55.225 154.985 55.235V52.985C155.415 52.955 155.755 52.805 156.005 52.535C156.255 52.255 156.38 51.875 156.38 51.395C156.38 50.905 156.265 50.52 156.035 50.24C155.795 49.96 155.485 49.82 155.105 49.82C154.795 49.82 154.54 49.915 154.34 50.105C154.14 50.295 153.985 50.535 153.875 50.825C153.755 51.105 153.625 51.495 153.485 51.995C153.285 52.675 153.09 53.23 152.9 53.66C152.7 54.08 152.405 54.445 152.015 54.755C151.615 55.055 151.085 55.205 150.425 55.205C149.805 55.205 149.265 55.05 148.805 54.74C148.345 54.43 147.995 53.995 147.755 53.435C147.505 52.875 147.38 52.235 147.38 51.515C147.38 50.435 147.645 49.56 148.175 48.89C148.695 48.21 149.425 47.835 150.365 47.765V50.075C150.005 50.095 149.71 50.25 149.48 50.54C149.24 50.82 149.12 51.195 149.12 51.665C149.12 52.075 149.225 52.405 149.435 52.655C149.645 52.895 149.95 53.015 150.35 53.015C150.63 53.015 150.865 52.925 151.055 52.745C151.235 52.555 151.385 52.325 151.505 52.055C151.615 51.775 151.745 51.385 151.895 50.885C152.095 50.205 152.295 49.65 152.495 49.22C152.695 48.79 152.995 48.42 153.395 48.11C153.795 47.8 154.32 47.645 154.97 47.645C155.53 47.645 156.05 47.79 156.53 48.08C157.01 48.37 157.395 48.795 157.685 49.355C157.965 49.915 158.105 50.58 158.105 51.35ZM152.75 46.3344C151.72 46.3344 150.8 46.1044 149.99 45.6444C149.17 45.1744 148.535 44.5394 148.085 43.7394C147.625 42.9294 147.395 42.0244 147.395 41.0244C147.395 39.8544 147.695 38.8294 148.295 37.9494C148.895 37.0694 149.725 36.4544 150.785 36.1044V38.5194C150.285 38.7594 149.91 39.0994 149.66 39.5394C149.41 39.9694 149.285 40.4694 149.285 41.0394C149.285 41.6494 149.43 42.1944 149.72 42.6744C150 43.1444 150.4 43.5144 150.92 43.7844C151.44 44.0444 152.05 44.1744 152.75 44.1744C153.44 44.1744 154.05 44.0444 154.58 43.7844C155.1 43.5144 155.505 43.1444 155.795 42.6744C156.075 42.1944 156.215 41.6494 156.215 41.0394C156.215 40.4694 156.09 39.9694 155.84 39.5394C155.58 39.0994 155.2 38.7594 154.7 38.5194V36.1044C155.77 36.4544 156.605 37.0694 157.205 37.9494C157.795 38.8194 158.09 39.8444 158.09 41.0244C158.09 42.0244 157.865 42.9294 157.415 43.7394C156.955 44.5394 156.32 45.1744 155.51 45.6444C154.7 46.1044 153.78 46.3344 152.75 46.3344ZM158 28.9107L153.92 31.2207V32.2107H158V34.3107H147.53V30.3807C147.53 29.5707 147.675 28.8807 147.965 28.3107C148.245 27.7407 148.63 27.3157 149.12 27.0357C149.6 26.7457 150.14 26.6007 150.74 26.6007C151.43 26.6007 152.055 26.8007 152.615 27.2007C153.165 27.6007 153.545 28.1957 153.755 28.9857L158 26.4807V28.9107ZM152.345 32.2107V30.4557C152.345 29.8857 152.21 29.4607 151.94 29.1807C151.66 28.9007 151.275 28.7607 150.785 28.7607C150.305 28.7607 149.935 28.9007 149.675 29.1807C149.405 29.4607 149.27 29.8857 149.27 30.4557V32.2107H152.345ZM158.105 19.8413C158.105 20.8213 157.875 21.7213 157.415 22.5413C156.955 23.3613 156.32 24.0113 155.51 24.4913C154.69 24.9713 153.765 25.2113 152.735 25.2113C151.715 25.2113 150.8 24.9713 149.99 24.4913C149.17 24.0113 148.53 23.3613 148.07 22.5413C147.61 21.7213 147.38 20.8213 147.38 19.8413C147.38 18.8513 147.61 17.9513 148.07 17.1413C148.53 16.3213 149.17 15.6763 149.99 15.2063C150.8 14.7263 151.715 14.4863 152.735 14.4863C153.765 14.4863 154.69 14.7263 155.51 15.2063C156.32 15.6763 156.955 16.3213 157.415 17.1413C157.875 17.9613 158.105 18.8613 158.105 19.8413ZM156.23 19.8413C156.23 19.2113 156.09 18.6563 155.81 18.1763C155.52 17.6963 155.11 17.3213 154.58 17.0513C154.05 16.7813 153.435 16.6463 152.735 16.6463C152.035 16.6463 151.425 16.7813 150.905 17.0513C150.375 17.3213 149.97 17.6963 149.69 18.1763C149.41 18.6563 149.27 19.2113 149.27 19.8413C149.27 20.4713 149.41 21.0313 149.69 21.5213C149.97 22.0013 150.375 22.3763 150.905 22.6463C151.425 22.9163 152.035 23.0513 152.735 23.0513C153.435 23.0513 154.05 22.9163 154.58 22.6463C155.11 22.3763 155.52 22.0013 155.81 21.5213C156.09 21.0313 156.23 20.4713 156.23 19.8413ZM156.335 10.824V7.37398H158V12.924H147.53V10.824H156.335ZM156.335 3.93922V0.489219H158V6.03922H147.53V3.93922H156.335Z" fill="black"/>
<path d="M151.439 218.061C152.025 218.646 152.975 218.646 153.561 218.061L163.107 208.515C163.692 207.929 163.692 206.979 163.107 206.393C162.521 205.808 161.571 205.808 160.985 206.393L152.5 214.879L144.015 206.393C143.429 205.808 142.479 205.808 141.893 206.393C141.308 206.979 141.308 207.929 141.893 208.515L151.439 218.061ZM151 70V217H154V70H151Z" fill="black"/>
</svg>
