<svg width="57" height="176" viewBox="0 0 57 176" fill="none" xmlns="http://www.w3.org/2000/svg">
<path d="M5.53785 34.0484V23.9883M10.5679 29.0183H0.507812H10.5679Z" stroke="#EEEEEE" stroke-miterlimit="10"/>
<path d="M5.53785 10.0601V0M10.5679 5.03004H0.507812H10.5679Z" stroke="#EEEEEE" stroke-miterlimit="10"/>
<path d="M5.53785 34.0484V23.9883M10.5679 29.0183H0.507812H10.5679Z" stroke="#EEEEEE" stroke-width="2" stroke-miterlimit="10"/>
<path d="M5.53785 10.0601V0M10.5679 5.03004H0.507812H10.5679Z" stroke="#EEEEEE" stroke-width="2" stroke-miterlimit="10"/>
<path d="M28.7566 34.0484V23.9883M33.7866 29.0183H23.7266H33.7866Z" stroke="#EEEEEE" stroke-miterlimit="10"/>
<path d="M28.7566 10.0601V0M33.7866 5.03004H23.7266H33.7866Z" stroke="#EEEEEE" stroke-miterlimit="10"/>
<path d="M28.7566 34.0484V23.9883M33.7866 29.0183H23.7266H33.7866Z" stroke="#EEEEEE" stroke-width="2" stroke-miterlimit="10"/>
<path d="M28.7566 10.0601V0M33.7866 5.03004H23.7266H33.7866Z" stroke="#EEEEEE" stroke-width="2" stroke-miterlimit="10"/>
<path d="M51.9714 34.0484V23.9883M57.0015 29.0183H46.9414H57.0015Z" stroke="#EEEEEE" stroke-miterlimit="10"/>
<path d="M51.9714 10.0601V0M57.0015 5.03004H46.9414H57.0015Z" stroke="#EEEEEE" stroke-miterlimit="10"/>
<path d="M51.9714 34.0484V23.9883M57.0015 29.0183H46.9414H57.0015Z" stroke="#EEEEEE" stroke-width="2" stroke-miterlimit="10"/>
<path d="M51.9714 10.0601V0M57.0015 5.03004H46.9414H57.0015Z" stroke="#EEEEEE" stroke-width="2" stroke-miterlimit="10"/>
<path d="M5.53785 128.459V118.398M10.5679 123.428H0.507812H10.5679Z" stroke="#EEEEEE" stroke-miterlimit="10"/>
<path d="M5.53785 104.47V94.4102M10.5679 99.4402H0.507812H10.5679Z" stroke="#EEEEEE" stroke-miterlimit="10"/>
<path d="M5.53785 128.459V118.398M10.5679 123.428H0.507812H10.5679Z" stroke="#EEEEEE" stroke-width="2" stroke-miterlimit="10"/>
<path d="M5.53785 104.47V94.4102M10.5679 99.4402H0.507812H10.5679Z" stroke="#EEEEEE" stroke-width="2" stroke-miterlimit="10"/>
<path d="M28.7566 128.459V118.398M33.7866 123.428H23.7266H33.7866Z" stroke="#EEEEEE" stroke-miterlimit="10"/>
<path d="M28.7566 104.47V94.4102M33.7866 99.4402H23.7266H33.7866Z" stroke="#EEEEEE" stroke-miterlimit="10"/>
<path d="M28.7566 128.459V118.398M33.7866 123.428H23.7266H33.7866Z" stroke="#EEEEEE" stroke-width="2" stroke-miterlimit="10"/>
<path d="M28.7566 104.47V94.4102M33.7866 99.4402H23.7266H33.7866Z" stroke="#EEEEEE" stroke-width="2" stroke-miterlimit="10"/>
<path d="M51.9714 128.459V118.398M57.0015 123.428H46.9414H57.0015Z" stroke="#EEEEEE" stroke-miterlimit="10"/>
<path d="M51.9714 104.47V94.4102M57.0015 99.4402H46.9414H57.0015Z" stroke="#EEEEEE" stroke-miterlimit="10"/>
<path d="M51.9714 128.459V118.398M57.0015 123.428H46.9414H57.0015Z" stroke="#EEEEEE" stroke-width="2" stroke-miterlimit="10"/>
<path d="M51.9714 104.47V94.4102M57.0015 99.4402H46.9414H57.0015Z" stroke="#EEEEEE" stroke-width="2" stroke-miterlimit="10"/>
<path d="M5.53785 81.2554V71.1953M10.5679 76.2253H0.507812H10.5679Z" stroke="#EEEEEE" stroke-miterlimit="10"/>
<path d="M5.53785 57.2651V47.2051M10.5679 52.2351H0.507812H10.5679Z" stroke="#EEEEEE" stroke-miterlimit="10"/>
<path d="M5.53785 81.2554V71.1953M10.5679 76.2253H0.507812H10.5679Z" stroke="#EEEEEE" stroke-width="2" stroke-miterlimit="10"/>
<path d="M5.53785 57.2651V47.2051M10.5679 52.2351H0.507812H10.5679Z" stroke="#EEEEEE" stroke-width="2" stroke-miterlimit="10"/>
<path d="M28.7527 81.2554V71.1953M33.7827 76.2253H23.7227H33.7827Z" stroke="#EEEEEE" stroke-miterlimit="10"/>
<path d="M28.7527 57.2651V47.2051M33.7827 52.2351H23.7227H33.7827Z" stroke="#EEEEEE" stroke-miterlimit="10"/>
<path d="M28.7527 81.2554V71.1953M33.7827 76.2253H23.7227H33.7827Z" stroke="#EEEEEE" stroke-width="2" stroke-miterlimit="10"/>
<path d="M28.7527 57.2651V47.2051M33.7827 52.2351H23.7227H33.7827Z" stroke="#EEEEEE" stroke-width="2" stroke-miterlimit="10"/>
<path d="M51.9714 81.2534V71.1934M57.0015 76.2234H46.9414H57.0015Z" stroke="#EEEEEE" stroke-miterlimit="10"/>
<path d="M51.9714 57.2651V47.2051M57.0015 52.2351H46.9414H57.0015Z" stroke="#EEEEEE" stroke-miterlimit="10"/>
<path d="M51.9714 81.2534V71.1934M57.0015 76.2234H46.9414H57.0015Z" stroke="#EEEEEE" stroke-width="2" stroke-miterlimit="10"/>
<path d="M51.9714 57.2651V47.2051M57.0015 52.2351H46.9414H57.0015Z" stroke="#EEEEEE" stroke-width="2" stroke-miterlimit="10"/>
<path d="M5.53785 175.666V165.605M10.5679 170.636H0.507812H10.5679Z" stroke="#EEEEEE" stroke-miterlimit="10"/>
<path d="M5.53785 151.675V141.615M10.5679 146.645H0.507812H10.5679Z" stroke="#EEEEEE" stroke-miterlimit="10"/>
<path d="M5.53785 175.666V165.605M10.5679 170.636H0.507812H10.5679Z" stroke="#EEEEEE" stroke-width="2" stroke-miterlimit="10"/>
<path d="M5.53785 151.675V141.615M10.5679 146.645H0.507812H10.5679Z" stroke="#EEEEEE" stroke-width="2" stroke-miterlimit="10"/>
<path d="M28.7566 175.666V165.605M33.7866 170.636H23.7266H33.7866Z" stroke="#EEEEEE" stroke-miterlimit="10"/>
<path d="M28.7566 151.675V141.615M33.7866 146.645H23.7266H33.7866Z" stroke="#EEEEEE" stroke-miterlimit="10"/>
<path d="M28.7566 175.666V165.605M33.7866 170.636H23.7266H33.7866Z" stroke="#EEEEEE" stroke-width="2" stroke-miterlimit="10"/>
<path d="M28.7566 151.675V141.615M33.7866 146.645H23.7266H33.7866Z" stroke="#EEEEEE" stroke-width="2" stroke-miterlimit="10"/>
<path d="M51.9714 175.666V165.605M57.0015 170.636H46.9414H57.0015Z" stroke="#EEEEEE" stroke-miterlimit="10"/>
<path d="M51.9714 151.675V141.615M57.0015 146.645H46.9414H57.0015Z" stroke="#EEEEEE" stroke-miterlimit="10"/>
<path d="M51.9714 175.666V165.605M57.0015 170.636H46.9414H57.0015Z" stroke="#EEEEEE" stroke-width="2" stroke-miterlimit="10"/>
<path d="M51.9714 151.675V141.615M57.0015 146.645H46.9414H57.0015Z" stroke="#EEEEEE" stroke-width="2" stroke-miterlimit="10"/>
</svg>
