<svg width="23" height="219" viewBox="0 0 23 219" fill="none" xmlns="http://www.w3.org/2000/svg">
<path d="M17.105 51.35C17.105 52.08 16.98 52.74 16.73 53.33C16.48 53.91 16.12 54.37 15.65 54.71C15.18 55.05 14.625 55.225 13.985 55.235V52.985C14.415 52.955 14.755 52.805 15.005 52.535C15.255 52.255 15.38 51.875 15.38 51.395C15.38 50.905 15.265 50.52 15.035 50.24C14.795 49.96 14.485 49.82 14.105 49.82C13.795 49.82 13.54 49.915 13.34 50.105C13.14 50.295 12.985 50.535 12.875 50.825C12.755 51.105 12.625 51.495 12.485 51.995C12.285 52.675 12.09 53.23 11.9 53.66C11.7 54.08 11.405 54.445 11.015 54.755C10.615 55.055 10.085 55.205 9.425 55.205C8.805 55.205 8.265 55.05 7.805 54.74C7.345 54.43 6.995 53.995 6.755 53.435C6.505 52.875 6.38 52.235 6.38 51.515C6.38 50.435 6.645 49.56 7.175 48.89C7.695 48.21 8.425 47.835 9.365 47.765V50.075C9.005 50.095 8.71 50.25 8.48 50.54C8.24 50.82 8.12 51.195 8.12 51.665C8.12 52.075 8.225 52.405 8.435 52.655C8.645 52.895 8.95 53.015 9.35 53.015C9.63 53.015 9.865 52.925 10.055 52.745C10.235 52.555 10.385 52.325 10.505 52.055C10.615 51.775 10.745 51.385 10.895 50.885C11.095 50.205 11.295 49.65 11.495 49.22C11.695 48.79 11.995 48.42 12.395 48.11C12.795 47.8 13.32 47.645 13.97 47.645C14.53 47.645 15.05 47.79 15.53 48.08C16.01 48.37 16.395 48.795 16.685 49.355C16.965 49.915 17.105 50.58 17.105 51.35ZM11.75 46.3344C10.72 46.3344 9.8 46.1044 8.99 45.6444C8.17 45.1744 7.535 44.5394 7.085 43.7394C6.625 42.9294 6.395 42.0244 6.395 41.0244C6.395 39.8544 6.695 38.8294 7.295 37.9494C7.895 37.0694 8.725 36.4544 9.785 36.1044V38.5194C9.285 38.7594 8.91 39.0994 8.66 39.5394C8.41 39.9694 8.285 40.4694 8.285 41.0394C8.285 41.6494 8.43 42.1944 8.72 42.6744C9 43.1444 9.4 43.5144 9.92 43.7844C10.44 44.0444 11.05 44.1744 11.75 44.1744C12.44 44.1744 13.05 44.0444 13.58 43.7844C14.1 43.5144 14.505 43.1444 14.795 42.6744C15.075 42.1944 15.215 41.6494 15.215 41.0394C15.215 40.4694 15.09 39.9694 14.84 39.5394C14.58 39.0994 14.2 38.7594 13.7 38.5194V36.1044C14.77 36.4544 15.605 37.0694 16.205 37.9494C16.795 38.8194 17.09 39.8444 17.09 41.0244C17.09 42.0244 16.865 42.9294 16.415 43.7394C15.955 44.5394 15.32 45.1744 14.51 45.6444C13.7 46.1044 12.78 46.3344 11.75 46.3344ZM17 28.9107L12.92 31.2207V32.2107H17V34.3107H6.53L6.53 30.3807C6.53 29.5707 6.675 28.8807 6.965 28.3107C7.245 27.7407 7.63 27.3157 8.12 27.0357C8.6 26.7457 9.14 26.6007 9.74 26.6007C10.43 26.6007 11.055 26.8007 11.615 27.2007C12.165 27.6007 12.545 28.1957 12.755 28.9857L17 26.4807L17 28.9107ZM11.345 32.2107V30.4557C11.345 29.8857 11.21 29.4607 10.94 29.1807C10.66 28.9007 10.275 28.7607 9.785 28.7607C9.305 28.7607 8.935 28.9007 8.675 29.1807C8.405 29.4607 8.27 29.8857 8.27 30.4557V32.2107H11.345ZM17.105 19.8413C17.105 20.8213 16.875 21.7213 16.415 22.5413C15.955 23.3613 15.32 24.0113 14.51 24.4913C13.69 24.9713 12.765 25.2113 11.735 25.2113C10.715 25.2113 9.8 24.9713 8.99 24.4913C8.17 24.0113 7.53 23.3613 7.07 22.5413C6.61 21.7213 6.38 20.8213 6.38 19.8413C6.38 18.8513 6.61 17.9513 7.07 17.1413C7.53 16.3213 8.17 15.6763 8.99 15.2063C9.8 14.7263 10.715 14.4863 11.735 14.4863C12.765 14.4863 13.69 14.7263 14.51 15.2063C15.32 15.6763 15.955 16.3213 16.415 17.1413C16.875 17.9613 17.105 18.8613 17.105 19.8413ZM15.23 19.8413C15.23 19.2113 15.09 18.6563 14.81 18.1763C14.52 17.6963 14.11 17.3213 13.58 17.0513C13.05 16.7813 12.435 16.6463 11.735 16.6463C11.035 16.6463 10.425 16.7813 9.905 17.0513C9.375 17.3213 8.97 17.6963 8.69 18.1763C8.41 18.6563 8.27 19.2113 8.27 19.8413C8.27 20.4713 8.41 21.0313 8.69 21.5213C8.97 22.0013 9.375 22.3763 9.905 22.6463C10.425 22.9163 11.035 23.0513 11.735 23.0513C12.435 23.0513 13.05 22.9163 13.58 22.6463C14.11 22.3763 14.52 22.0013 14.81 21.5213C15.09 21.0313 15.23 20.4713 15.23 19.8413ZM15.335 10.824V7.37398H17V12.924H6.53V10.824H15.335ZM15.335 3.93922V0.489219H17V6.03922H6.53L6.53 3.93922H15.335Z" fill="black"/>
<path d="M10.4393 218.061C11.0251 218.646 11.9749 218.646 12.5607 218.061L22.1066 208.515C22.6924 207.929 22.6924 206.979 22.1066 206.393C21.5208 205.808 20.5711 205.808 19.9853 206.393L11.5 214.879L3.01472 206.393C2.42893 205.808 1.47918 205.808 0.893398 206.393C0.307612 206.979 0.307612 207.929 0.893398 208.515L10.4393 218.061ZM10 70L10 217H13L13 70H10Z" fill="black"/>
</svg>
