<svg width="320" height="232" viewBox="0 0 320 232" fill="none" xmlns="http://www.w3.org/2000/svg">
<path d="M300.702 0.685063C302.638 0.24127 304.632 0.105277 306.611 0.282123C308.27 0.42046 309.885 0.88189 311.365 1.64019C312.651 2.29444 313.738 3.27848 314.514 4.49065C315.256 5.72755 315.611 7.15628 315.534 8.59472L309.685 151.028C309.573 152.767 309.06 154.458 308.185 155.968C307.244 157.641 306.039 159.152 304.616 160.445C303.073 161.889 301.337 163.115 299.457 164.087C297.502 165.111 295.412 165.86 293.249 166.31L13.0185 224.021C11.1082 224.438 9.14059 224.529 7.19972 224.289C5.60328 224.09 4.0688 223.55 2.70068 222.708C1.47627 221.947 0.48945 220.862 -0.148714 219.573C-0.832531 218.212 -1.11339 216.685 -0.958541 215.171L14.6381 73.6926C14.8426 72.0609 15.4003 70.4926 16.2728 69.0961C17.2337 67.5157 18.4266 66.0871 19.812 64.8577C21.305 63.5198 22.9629 62.3764 24.746 61.4551C26.5741 60.488 28.5269 59.7749 30.5497 59.3359L300.702 0.685063Z" fill="url(#paint0_linear_686_36164)"/>
<path d="M303.672 10.1772C303.485 9.88284 303.221 9.64533 302.907 9.49074C302.55 9.29975 302.157 9.18297 301.752 9.14748C301.275 9.10309 300.794 9.1384 300.328 9.25195L209.567 28.9067L127.85 191.577L293.714 157.356C294.237 157.242 294.742 157.056 295.214 156.804C295.674 156.572 296.098 156.275 296.474 155.924C296.82 155.603 297.114 155.231 297.343 154.819C297.553 154.454 297.676 154.046 297.703 153.626L303.927 11.2219C303.958 10.8554 303.868 10.4889 303.672 10.1772V10.1772Z" fill="white"/>
<path d="M29.7092 67.7821C29.2216 67.8891 28.7519 68.065 28.3145 68.3044C27.8724 68.5253 27.4635 68.8066 27.0997 69.1402C26.7649 69.4432 26.4723 69.7896 26.2299 70.1699C26.0212 70.5057 25.8882 70.8824 25.84 71.2743L10.6032 212.797C10.5537 213.159 10.611 213.527 10.7682 213.857C10.9235 214.174 11.1685 214.438 11.4731 214.618C11.812 214.822 12.1899 214.955 12.5828 215.006C13.0442 215.086 13.5161 215.086 13.9775 215.006L127.848 191.516L209.566 28.8457L29.7092 67.7821Z" fill="#14A800"/>
<path d="M319.133 15.4896C319.116 15.1983 319.076 14.9089 319.013 14.624C318.966 14.3451 318.896 14.0705 318.803 13.8032C318.719 13.5339 318.619 13.2698 318.503 13.0122L314.889 5.20703C315.009 5.46434 315.115 5.72845 315.204 5.99799C315.279 6.2517 315.354 6.53526 315.414 6.81881C315.465 7.10525 315.5 7.3942 315.519 7.6844C315.541 7.98744 315.541 8.29172 315.519 8.59476L309.67 151.028C309.558 152.768 309.045 154.458 308.17 155.968C307.229 157.641 306.024 159.153 304.601 160.445C303.058 161.889 301.322 163.115 299.442 164.087C297.487 165.111 295.397 165.86 293.234 166.31L13.0185 224.021C11.5987 224.317 10.1498 224.453 8.6994 224.424C7.4567 224.381 6.22562 224.171 5.04018 223.797C3.96127 223.476 2.94647 222.971 2.04082 222.305C1.2244 221.679 0.541283 220.898 0.03125 220.006L4.26035 227.468C4.77108 228.363 5.45998 229.146 6.28491 229.767C7.18976 230.434 8.2048 230.939 9.28427 231.259C10.4872 231.645 11.7399 231.856 13.0035 231.886C14.4486 231.927 15.8935 231.797 17.3076 231.498L297.163 174.101C301.408 173.204 305.33 171.183 308.515 168.25C309.934 166.958 311.134 165.446 312.07 163.773C312.944 162.263 313.457 160.573 313.569 158.833L319.283 16.3999C319.256 16.0932 319.206 15.7889 319.133 15.4896Z" fill="#262A2E"/>
<g style="mix-blend-mode:overlay" opacity="0.3">
<path d="M191.525 24.3984L312.804 75.1396L311.305 113.121L130.803 37.5762L191.525 24.3984ZM5.66992 155.52L117.741 202.485L216.63 182.144L12.1785 96.4808L5.66992 155.52Z" fill="white"/>
</g>
<defs>
<linearGradient id="paint0_linear_686_36164" x1="-0.958541" y1="112.316" x2="315.549" y2="112.316" gradientUnits="userSpaceOnUse">
<stop stop-color="#293445"/>
<stop offset="1" stop-color="#454F61"/>
</linearGradient>
</defs>
</svg>
