<svg width="177" height="259" viewBox="0 0 177 259" fill="none" xmlns="http://www.w3.org/2000/svg">
<path d="M175.666 195.771L123.927 14.2962C123.852 14.0425 123.762 13.8037 123.672 13.5649C123.582 13.3247 123.477 13.0904 123.357 12.8635C123.252 12.6417 123.132 12.4273 122.997 12.2218C122.871 12.0087 122.731 11.8043 122.577 11.6099L116.743 4.01367C116.902 4.20789 117.047 4.41228 117.178 4.62553L117.538 5.26727C117.643 5.49113 117.748 5.72991 117.838 5.9687C117.939 6.21186 118.024 6.46108 118.093 6.71489L169.757 188.368C170.183 189.961 170.25 191.627 169.952 193.248C169.635 194.986 169.01 196.653 168.107 198.173C167.159 199.802 165.965 201.277 164.568 202.546C163.107 203.887 161.442 204.99 159.634 205.814L63.4749 249.84C62.1472 250.466 60.7393 250.908 59.2907 251.153C57.9831 251.345 56.6542 251.345 55.3466 251.153C54.1436 251.003 52.9763 250.644 51.8973 250.093C50.8702 249.578 49.9574 248.862 49.2129 247.989L55.3916 255.183C56.1449 256.052 57.0619 256.767 58.091 257.287C59.1647 257.837 60.3271 258.196 61.5252 258.346C62.8315 258.515 64.1556 258.489 65.4544 258.272C66.9007 258.025 68.3077 257.588 69.6385 256.973L165.618 213.097C167.412 212.273 169.067 211.175 170.522 209.844C171.919 208.574 173.113 207.1 174.061 205.471C174.956 203.954 175.575 202.292 175.891 200.561C176.174 198.967 176.098 197.331 175.666 195.771V195.771Z" fill="#262A2E"/>
<path d="M102.347 2.22257C103.985 1.44956 105.737 0.945567 107.536 0.730181C109.109 0.544649 110.702 0.66119 112.23 1.07345C113.609 1.44534 114.876 2.14725 115.919 3.11801C116.956 4.10658 117.707 5.3538 118.094 6.72958L169.758 188.383C170.184 189.975 170.251 191.642 169.953 193.263C169.636 195 169.011 196.668 168.108 198.188C167.16 199.817 165.966 201.291 164.569 202.561C163.108 203.902 161.442 205.005 159.635 205.829L63.4757 249.854C61.7942 250.664 59.9813 251.17 58.1218 251.347C56.4921 251.501 54.8481 251.318 53.2928 250.81C51.8735 250.352 50.5869 249.558 49.5436 248.496C48.4901 247.391 47.7412 246.034 47.3691 244.556L0.384138 62.0225C0.0386205 60.5197 0.0386205 58.9587 0.384138 57.4558C0.728865 55.8202 1.35278 54.2554 2.22876 52.8294C3.16642 51.2889 4.32313 49.8915 5.66299 48.6806C7.05716 47.4099 8.63427 46.3536 10.342 45.5466L102.347 2.22257Z" fill="url(#paint0_linear_686_36157)"/>
<path d="M165.602 190.28L156.604 158.582L145.536 119.571L134.694 81.291L33.5403 171.431L33.1504 171.774L43.2433 210.785L51.4615 242.618C51.7094 243.636 52.2273 244.569 52.9611 245.319C53.6724 246.059 54.5596 246.608 55.5406 246.916C56.6095 247.258 57.7371 247.38 58.8549 247.274C60.1306 247.167 61.3759 246.828 62.5291 246.274L91.3979 233.067L129.58 215.576L158.644 202.264C159.878 201.696 161.016 200.941 162.018 200.025C162.982 199.161 163.806 198.155 164.462 197.041C165.078 195.997 165.509 194.856 165.737 193.668C165.946 192.543 165.899 191.385 165.602 190.28Z" fill="#14A800"/>
<path d="M114.104 8.59511C113.839 7.64516 113.32 6.78411 112.604 6.10282C111.885 5.43937 111.016 4.95817 110.07 4.69997C109.015 4.41435 107.916 4.33328 106.831 4.46119C105.592 4.61592 104.387 4.9687 103.261 5.50588L11.136 48.7851C9.96005 49.3446 8.87353 50.0738 7.91164 50.9491C6.99278 51.7813 6.19977 52.7414 5.55717 53.7995C4.95736 54.7795 4.53125 55.8547 4.29745 56.9783C4.0571 58.0143 4.0571 59.0912 4.29745 60.1272L33.1213 171.728L134.665 81.2445L114.104 8.59511Z" fill="white"/>
<g style="mix-blend-mode:overlay" opacity="0.3">
<path d="M25.4132 159.387L169.382 187.011L169.772 188.354C170.199 189.947 170.265 191.613 169.967 193.234C169.65 194.972 169.026 196.639 168.123 198.159C167.174 199.788 165.98 201.262 164.583 202.532C163.122 203.873 161.457 204.976 159.65 205.8L140.889 214.441L34.4113 193.995L25.4132 159.387ZM51.0277 26.3555L10.2364 45.5476C8.52866 46.3546 6.9516 47.4109 5.55743 48.6816C4.21757 49.8924 3.06082 51.2899 2.12315 52.8304C1.77169 53.4206 1.46104 54.0339 1.19336 54.6661L139.164 81.1708L127.766 41.1002L51.0277 26.3555Z" fill="white"/>
</g>
<defs>
<linearGradient id="paint0_linear_686_36157" x1="0.0991992" y1="125.986" x2="170.133" y2="125.986" gradientUnits="userSpaceOnUse">
<stop stop-color="#293445"/>
<stop offset="1" stop-color="#454F61"/>
</linearGradient>
</defs>
</svg>
