<svg width="541" height="595" viewBox="0 0 541 595" fill="none" xmlns="http://www.w3.org/2000/svg">
<path d="M540.017 172.489C539.657 170.766 539.077 169.096 538.292 167.52C537.516 165.967 536.533 164.526 535.368 163.236C534.28 162.031 532.991 161.021 531.558 160.252L232.117 0.939201C231.638 0.688021 231.136 0.483124 230.618 0.327322C230.164 0.181147 229.697 0.0811425 229.223 0.0288448C228.806 -0.0288029 228.383 -0.0388171 227.963 -0.00100292C227.542 0.0453707 227.129 0.145694 226.733 0.297475L220.465 2.71514C220.86 2.55858 221.273 2.45324 221.695 2.40174C222.133 2.35683 222.576 2.35683 223.014 2.40174C223.488 2.45404 223.955 2.55404 224.409 2.70022C224.926 2.85887 225.428 3.06366 225.909 3.3121L525.38 162.998C526.812 163.774 528.105 164.783 529.204 165.982C531.542 168.611 533.141 171.808 533.838 175.25C534.188 176.933 534.279 178.659 534.108 180.369L506.424 422.688L506.799 422.509C510.094 420.269 512.389 416.846 513.202 412.958L540.271 177.593C540.455 175.889 540.369 174.167 540.017 172.489V172.489Z" fill="#262A2E"/>
<path d="M525.38 162.923C526.812 163.699 528.105 164.708 529.204 165.907C531.542 168.536 533.141 171.734 533.838 175.175C534.188 176.858 534.279 178.584 534.108 180.294L506.424 422.688L199.904 243.437L216.161 10.1171C216.245 8.68409 216.591 7.27825 217.181 5.9683C217.669 4.91484 218.417 4.00115 219.355 3.31185C220.234 2.69615 221.28 2.35813 222.355 2.3418C223.595 2.35025 224.814 2.67387 225.894 3.282L525.38 162.923Z" fill="url(#paint0_linear_686_36080)"/>
<path d="M523.383 184.262L460.112 150.266L278.516 269.642L499.284 397.868L523.383 184.262Z" fill="white"/>
<path d="M224.123 23.4727L209.516 229.556L278.516 269.642L460.112 150.266L224.123 23.4727Z" fill="#14A800"/>
<path d="M288.294 585.506L3.55017 401.942C2.4667 401.277 1.57736 400.34 0.970723 399.226C0.437704 398.212 0.208658 397.067 0.310861 395.928C0.434359 394.706 0.845376 393.53 1.51061 392.495C2.30758 391.242 3.32334 390.14 4.50997 389.242L199.588 242.898L506.408 422.701L307.79 583.775C306.407 584.879 304.859 585.76 303.201 586.386C301.53 587.02 299.779 587.422 297.997 587.58C296.269 587.732 294.527 587.642 292.823 587.312C291.214 586.994 289.679 586.382 288.294 585.506V585.506Z" fill="url(#paint1_linear_686_36080)"/>
<path d="M163.116 400.154L173.808 406.81L184.546 413.511L195.329 420.227C198.943 422.48 202.557 424.704 206.171 426.987L216.969 433.703L227.797 440.448L238.684 447.239L249.617 454.044C250.373 454.485 251.069 455.022 251.687 455.641C252.101 456.03 252.343 456.567 252.361 457.133C252.309 457.746 252.044 458.321 251.612 458.76C250.96 459.506 250.231 460.181 249.437 460.775L240.634 467.699L224.033 480.773L207.341 493.98L198.418 500.98C197.742 501.51 197.013 501.97 196.243 502.353C195.598 502.666 194.903 502.863 194.189 502.935C193.514 503.001 192.832 502.94 192.179 502.756C191.461 502.537 190.779 502.215 190.155 501.8L177.183 493.503L164.3 485.265L151.478 477.057L138.731 468.893L129.733 463.148L120.735 457.417L111.841 451.716L102.963 446.03C102.394 445.683 101.888 445.244 101.464 444.732C101.164 444.343 101.011 443.863 101.029 443.373C101.082 442.827 101.296 442.307 101.644 441.881C102.118 441.263 102.679 440.715 103.308 440.254C104.118 439.613 107.537 436.986 112.231 433.374L128.983 420.51L145.584 407.765L154.447 400.975C155.161 400.396 155.936 399.896 156.757 399.482C157.416 399.16 158.126 398.953 158.856 398.87C159.544 398.812 160.237 398.888 160.896 399.094C161.671 399.325 162.409 399.667 163.086 400.109" fill="#CBD9E6"/>
<path d="M101.69 442.43C102.169 441.82 102.729 441.278 103.354 440.818C104.164 440.177 107.583 437.55 112.352 433.923L128.984 421.119L145.585 408.374L154.448 401.583C155.165 401.008 155.939 400.508 156.758 400.091C157.414 399.761 158.126 399.553 158.858 399.479C159.55 399.409 160.249 399.48 160.912 399.688C161.679 399.934 162.411 400.281 163.087 400.718L173.779 407.374L184.517 414.06L195.3 420.79L206.142 427.536L216.94 434.267L227.768 441.012L238.655 447.788L249.588 454.608C250.349 455.048 251.05 455.585 251.673 456.205C252.022 456.558 252.248 457.013 252.318 457.503C252.339 457.37 252.339 457.234 252.318 457.1C252.299 456.534 252.057 455.997 251.643 455.608C251.025 454.989 250.329 454.452 249.573 454.011L238.64 447.206L227.753 440.415L216.925 433.67L206.127 426.954C202.513 424.686 198.899 422.477 195.285 420.193L184.502 413.478L173.764 406.777L163.072 400.121C162.395 399.679 161.657 399.337 160.882 399.106C160.223 398.9 159.531 398.824 158.843 398.882C158.113 398.965 157.402 399.172 156.743 399.494C155.922 399.908 155.147 400.408 154.433 400.986L145.57 407.777L128.984 420.507L112.292 433.326C107.598 436.938 104.179 439.565 103.369 440.206C102.74 440.667 102.179 441.215 101.705 441.833C101.357 442.259 101.143 442.779 101.09 443.325C101.09 443.415 101.09 443.505 101.09 443.594C101.204 443.168 101.409 442.771 101.69 442.43V442.43Z" fill="#A3B9CC"/>
<path d="M477.255 424.613L199.919 261.002C199.314 260.914 198.701 260.884 198.09 260.913C197.52 260.943 196.956 261.043 196.41 261.211C195.886 261.369 195.382 261.59 194.911 261.868C194.413 262.165 193.946 262.509 193.516 262.898C193.321 263.077 193.096 263.256 192.871 263.435L192.166 263.972L191.446 264.479L190.741 265.017C189.968 265.564 189.246 266.178 188.582 266.852C188.168 267.25 187.903 267.777 187.832 268.345C187.842 268.594 187.904 268.839 188.015 269.062C188.127 269.286 188.284 269.484 188.477 269.643C189.091 270.218 189.77 270.718 190.501 271.136L463.053 432.701C463.887 433.225 464.771 433.665 465.693 434.015C466.402 434.273 467.161 434.365 467.912 434.283C468.665 434.199 469.392 433.955 470.042 433.567C470.946 433.056 471.799 432.462 472.591 431.791L473.296 431.194L473.986 430.612L474.706 430.03L475.456 429.493C475.958 429.163 476.421 428.778 476.835 428.344C477.169 428.002 477.429 427.595 477.6 427.15C477.759 426.752 477.816 426.321 477.765 425.896C477.681 425.439 477.508 425.003 477.255 424.613V424.613Z" fill="#454F5C"/>
<path d="M441.008 451.984L439.598 451.133L438.203 450.283L436.794 449.432L435.399 448.596L433.989 447.745L432.58 446.91L431.155 446.074L429.745 445.253C429.18 444.915 428.569 444.658 427.931 444.492C427.331 444.356 426.713 444.316 426.101 444.373C425.48 444.44 424.874 444.601 424.301 444.85C423.668 445.138 423.074 445.504 422.532 445.94L419.787 448.133L417.058 450.327L414.329 452.521L411.599 454.73C411.069 455.159 410.605 455.661 410.219 456.222C409.936 456.608 409.779 457.072 409.77 457.55C409.782 458.01 409.951 458.452 410.249 458.804C410.675 459.287 411.183 459.691 411.749 459.998L412.694 460.58L413.654 461.177L414.613 461.759L415.588 462.341L417.178 463.311L418.783 464.266L420.402 465.236L422.007 466.206C422.688 466.627 423.394 467.006 424.121 467.341C424.657 467.579 425.231 467.721 425.816 467.758C426.442 467.765 427.066 467.669 427.661 467.475C428.527 467.207 429.378 466.893 430.21 466.535L430.3 466.46L430.405 466.37H430.495L430.585 466.296C430.75 466.147 430.885 465.982 431.035 465.833L431.485 465.371C431.635 465.221 431.785 465.057 431.935 464.923L432.43 464.49C433.17 463.883 433.904 463.286 434.634 462.699L436.854 460.908L439.058 459.132L441.233 457.327C441.766 456.901 442.231 456.398 442.613 455.834C442.88 455.442 443.026 454.98 443.032 454.506C443.002 454.046 442.817 453.61 442.508 453.267C442.09 452.753 441.582 452.318 441.008 451.984V451.984Z" fill="#454F5C"/>
<path d="M266.595 447.298L268.92 445.462L271.259 443.627L273.584 441.791C274.376 441.207 275.101 440.536 275.743 439.791C276.166 439.352 276.43 438.785 276.493 438.18C276.465 437.612 276.218 437.078 275.803 436.687C275.183 436.069 274.482 435.537 273.719 435.105L262.771 428.36L251.884 421.644L241.026 414.958L230.213 408.287L219.37 401.616L208.558 394.96L197.805 388.319L187.082 381.738C186.408 381.298 185.676 380.951 184.908 380.708C184.247 380.514 183.555 380.443 182.868 380.499C182.143 380.582 181.438 380.789 180.784 381.111C179.965 381.521 179.196 382.022 178.489 382.603L176.06 384.439L173.645 386.289L171.231 388.155L168.831 390.02C168.218 390.479 167.669 391.016 167.197 391.617C166.855 392.043 166.655 392.565 166.627 393.11C166.607 393.592 166.767 394.066 167.077 394.438C167.494 394.948 168.002 395.378 168.576 395.706L190.157 409.138C197.385 413.625 204.644 418.132 211.932 422.659L233.887 436.314L256.053 450.074C256.688 450.481 257.381 450.792 258.107 450.999C258.753 451.192 259.432 451.253 260.102 451.178C260.806 451.105 261.491 450.908 262.126 450.596C262.883 450.233 263.597 449.787 264.256 449.268L266.595 447.298Z" fill="#454F5C"/>
<path d="M400.981 484.758L395.627 481.475L390.288 478.207C388.519 477.117 386.749 476.028 384.964 474.953L379.64 471.7L375.816 469.357L371.932 467.029L368.093 464.7L364.284 462.372C363.719 462.029 363.108 461.768 362.469 461.596C361.886 461.45 361.284 461.399 360.685 461.447C360.067 461.515 359.464 461.681 358.9 461.939C358.253 462.24 357.643 462.615 357.085 463.059L354.371 465.208L351.656 467.372L348.957 469.536L346.258 471.73C345.695 472.16 345.191 472.662 344.758 473.222C344.444 473.619 344.265 474.105 344.248 474.61C344.271 475.085 344.456 475.537 344.773 475.893C345.204 476.395 345.71 476.828 346.273 477.177L348.477 478.535L350.697 479.908L352.901 481.266L355.121 482.639L357.34 483.997L359.575 485.37L361.794 486.743L364.029 488.116L366.293 489.504L368.573 490.907L370.852 492.325L373.132 493.727L375.426 495.13L377.706 496.533L380 497.951L382.31 499.354C382.87 499.693 383.469 499.963 384.094 500.16C385.259 500.491 386.502 500.417 387.619 499.951C388.236 499.689 388.816 499.348 389.343 498.936L392.343 496.608L395.342 494.25L398.237 491.907L401.116 489.534C401.585 489.158 401.99 488.709 402.316 488.206C402.565 487.835 402.696 487.398 402.691 486.952C402.678 486.522 402.525 486.109 402.256 485.773C401.894 485.362 401.463 485.019 400.981 484.758V484.758Z" fill="#454F5C"/>
<path d="M421.015 468.295L417.715 466.295L414.416 464.281L411.117 462.281L407.818 460.296L404.533 458.296L401.234 456.311L397.95 454.341L394.665 452.356C394.084 451.997 393.452 451.726 392.791 451.55C392.207 451.383 391.595 451.332 390.991 451.401C390.361 451.463 389.747 451.635 389.177 451.909C388.508 452.234 387.879 452.635 387.302 453.103L384.633 455.177L381.978 457.296L379.324 459.43L376.684 461.549C376.086 462.02 375.547 462.562 375.08 463.161C374.759 463.567 374.575 464.063 374.555 464.579C374.57 465.07 374.768 465.538 375.11 465.892C375.578 466.406 376.125 466.844 376.729 467.191L378.049 467.997L379.369 468.802L380.688 469.623L382.023 470.429L383.838 471.533L385.637 472.638L387.467 473.742L389.282 474.847L391.501 476.205L393.736 477.563L395.955 478.921L398.19 480.294L399.299 480.965L400.424 481.652L401.534 482.323L402.659 483.01C403.23 483.364 403.852 483.631 404.503 483.801C405.094 483.963 405.707 484.023 406.318 483.98C406.944 483.927 407.558 483.77 408.133 483.517C408.777 483.227 409.382 482.856 409.932 482.413L412.752 480.174L415.571 477.906L418.36 475.638L421.135 473.369C421.642 472.963 422.087 472.486 422.454 471.951C422.719 471.563 422.865 471.107 422.874 470.638C422.852 470.189 422.683 469.76 422.394 469.414C422.002 468.966 421.535 468.588 421.015 468.295Z" fill="#454F5C"/>
<path d="M129.059 316.13L130.469 316.996L131.879 317.861L133.288 318.727L134.713 319.593L136.123 320.458C136.603 320.742 137.083 321.025 137.622 321.324L139.047 322.189L140.547 323.055L141.717 323.771L142.886 324.488L144.071 325.204L145.241 325.92L145.976 326.368L146.696 326.816L147.43 327.263L148.15 327.711L149.2 328.338L150.235 328.965L151.27 329.592L152.304 330.218C152.842 330.54 153.423 330.787 154.029 330.95C154.597 331.094 155.186 331.134 155.769 331.069C156.376 331.006 156.968 330.845 157.523 330.592C158.17 330.309 158.779 329.948 159.338 329.517L162.067 327.472L164.782 325.413L167.496 323.353L170.181 321.294C170.693 320.931 171.148 320.493 171.53 319.996C171.813 319.65 171.99 319.23 172.04 318.787C172.048 318.389 171.921 318 171.68 317.682C171.338 317.258 170.922 316.899 170.45 316.623L167.316 314.713L164.167 312.802L161.017 310.892L157.868 308.982L155.154 307.34L152.424 305.698L149.695 304.057L146.965 302.415C146.449 302.1 145.888 301.864 145.301 301.714C144.758 301.573 144.195 301.527 143.636 301.579C143.051 301.646 142.479 301.802 141.942 302.042C141.319 302.324 140.731 302.675 140.187 303.087L137.457 305.102L134.743 307.131L132.044 309.176L129.359 311.235C128.795 311.618 128.289 312.08 127.86 312.608C127.563 312.958 127.385 313.391 127.35 313.847C127.346 314.275 127.501 314.689 127.785 315.011C128.14 315.456 128.572 315.835 129.059 316.13V316.13Z" fill="#454F5C"/>
<path d="M148.884 301.104L149.634 301.567L150.384 302.029L151.133 302.477L151.883 302.94L153.383 303.85L154.883 304.76L156.382 305.671L157.882 306.581L159.172 307.357L160.461 308.148L161.766 308.939L163.056 309.715L164.031 310.312L165.005 310.894L165.98 311.476L166.97 312.058C167.524 312.402 168.125 312.663 168.755 312.834C169.32 312.994 169.91 313.045 170.494 312.983C171.109 312.917 171.708 312.745 172.264 312.476C172.934 312.163 173.567 311.777 174.153 311.327L176.763 309.357L179.372 307.387L181.967 305.417L184.561 303.447C185.128 303.021 185.632 302.518 186.061 301.955C186.369 301.598 186.558 301.155 186.601 300.686C186.617 300.252 186.461 299.828 186.166 299.507C185.775 299.047 185.302 298.662 184.771 298.373L182.522 297.015L180.272 295.657L178.023 294.314L175.773 292.956L173.539 291.612L171.289 290.269L169.04 288.941L166.805 287.598C166.249 287.258 165.649 286.997 165.02 286.822C164.456 286.658 163.866 286.602 163.281 286.658C162.669 286.715 162.072 286.871 161.511 287.12C160.85 287.414 160.225 287.785 159.652 288.225L156.982 290.195L154.328 292.18L151.703 294.179L149.079 296.179C148.52 296.569 148.016 297.03 147.579 297.552C147.284 297.905 147.096 298.335 147.039 298.791C147.034 299.209 147.177 299.616 147.444 299.94C147.846 300.415 148.334 300.81 148.884 301.104V301.104Z" fill="#454F5C"/>
<path d="M461.118 436.016L458.299 434.285L455.479 432.598L452.645 430.912C451.715 430.345 450.77 429.793 449.826 429.241C448.881 428.688 448.326 428.315 447.516 427.868L445.222 426.495L442.912 425.136L440.603 423.778C440.026 423.424 439.399 423.157 438.743 422.987C438.153 422.827 437.537 422.776 436.928 422.838C436.303 422.908 435.694 423.084 435.129 423.361C434.46 423.664 433.834 424.056 433.269 424.525L430.6 426.659L427.93 428.793L425.261 430.942L422.621 433.091C422.048 433.51 421.543 434.013 421.122 434.583C420.834 434.962 420.676 435.422 420.672 435.897C420.705 436.359 420.895 436.796 421.212 437.135C421.649 437.609 422.155 438.017 422.711 438.344L423.956 439.105L425.216 439.851L426.461 440.613L427.72 441.359L428.965 442.105L430.225 442.866L431.485 443.612L432.744 444.373L433.839 445.03C434.214 445.239 434.574 445.463 434.934 445.687L436.044 446.343L437.138 447L437.873 447.448L438.608 447.88L439.343 448.328L440.078 448.761L440.813 449.194L441.547 449.641L442.282 450.074L443.017 450.507C443.571 450.841 444.166 451.102 444.787 451.283C445.938 451.592 447.162 451.498 448.251 451.014C448.875 450.738 449.459 450.381 449.991 449.955L452.915 447.716C453.875 446.97 454.805 446.224 455.749 445.448C456.694 444.672 457.624 443.955 458.554 443.165C459.484 442.374 460.398 441.672 461.328 440.881C461.806 440.5 462.221 440.047 462.558 439.538C462.806 439.162 462.931 438.719 462.918 438.269C462.887 437.836 462.719 437.423 462.438 437.09C462.062 436.661 461.615 436.298 461.118 436.016Z" fill="#454F5C"/>
<path d="M293.708 460.506L296.467 458.312L299.212 456.103C299.745 455.682 300.205 455.178 300.576 454.611C300.862 454.232 301.02 453.772 301.026 453.298C301.007 452.843 300.838 452.408 300.546 452.059C300.146 451.59 299.67 451.192 299.137 450.88L297.232 449.686L295.328 448.507L293.423 447.328L291.518 446.149L289.614 444.985L287.709 443.806L285.805 442.642L283.9 441.478C283.35 441.14 282.754 440.884 282.13 440.717C281.55 440.559 280.946 440.503 280.346 440.553C279.728 440.601 279.124 440.757 278.561 441.015C277.917 441.295 277.312 441.656 276.761 442.09L273.987 444.239L271.198 446.418L268.453 448.656L265.694 450.865C265.127 451.291 264.622 451.793 264.194 452.357C263.906 452.733 263.734 453.184 263.699 453.656C263.697 454.101 263.851 454.534 264.134 454.879C264.519 455.352 264.987 455.751 265.514 456.058L266.264 456.536L267.014 457.014L267.778 457.491L268.528 457.969L269.668 458.67L270.823 459.372L271.962 460.088L273.102 460.789L274.197 461.476L275.277 462.147L276.372 462.819L277.451 463.505L278.276 464.013L279.101 464.52L279.911 465.028L280.736 465.52C281.321 465.883 281.951 466.169 282.61 466.371C283.189 466.538 283.793 466.603 284.395 466.565C285.018 466.512 285.627 466.35 286.194 466.087C286.867 465.78 287.497 465.389 288.069 464.923L290.948 462.64L293.708 460.506Z" fill="#454F5C"/>
<path d="M108.663 330.86L110.342 331.919L112.037 332.964L113.747 334.024L115.441 335.068L117.406 336.277L119.385 337.486L121.365 338.695L123.345 339.904C123.837 340.203 124.373 340.424 124.934 340.56C125.48 340.684 126.042 340.719 126.599 340.665C127.186 340.61 127.762 340.469 128.308 340.247C128.907 339.995 129.471 339.669 129.988 339.277L132.792 337.203L135.567 335.098C136.497 334.412 137.411 333.71 138.326 333.009L141.086 330.905C141.583 330.534 142.027 330.097 142.405 329.606C142.68 329.259 142.847 328.838 142.885 328.397C142.907 327.991 142.785 327.59 142.54 327.263C142.211 326.838 141.804 326.478 141.341 326.204L140.666 325.771L139.961 325.338L139.271 324.905L138.566 324.487C138.206 324.249 137.831 324.025 137.456 323.801L136.332 323.114L135.207 322.443L134.082 321.756L132.912 321.04L131.743 320.324L130.588 319.592L129.418 318.876L128.728 318.458L128.038 318.055L127.349 317.637L126.644 317.234C126.176 316.963 125.671 316.762 125.144 316.637C124.653 316.526 124.147 316.491 123.644 316.533C123.101 316.582 122.57 316.718 122.07 316.936C121.534 317.171 121.031 317.472 120.57 317.831L117.571 319.995L114.661 322.174L111.767 324.383L108.888 326.592C108.455 326.903 108.079 327.287 107.778 327.726C107.541 328.053 107.406 328.442 107.388 328.845C107.374 329.223 107.484 329.595 107.703 329.905C107.954 330.285 108.281 330.609 108.663 330.86V330.86Z" fill="#454F5C"/>
<path d="M172.069 385.035L174.814 382.916L177.528 380.797C178.058 380.409 178.528 379.947 178.923 379.424C179.208 379.072 179.371 378.637 179.388 378.185C179.391 377.757 179.236 377.343 178.953 377.021C178.583 376.564 178.13 376.179 177.618 375.887L176.853 375.395L176.074 374.917L175.309 374.44L174.529 373.962L173.494 373.32L172.459 372.679L171.425 372.052L170.375 371.41L169.49 370.858L168.62 370.321L167.735 369.783L166.851 369.231L165.981 368.694L165.096 368.157L164.211 367.604C163.911 367.425 163.611 367.261 163.326 367.067C162.735 366.706 162.1 366.42 161.437 366.216C160.852 366.054 160.243 365.993 159.637 366.037C158.998 366.092 158.374 366.259 157.792 366.53C157.101 366.856 156.447 367.257 155.843 367.724L153.173 369.724L150.519 371.738L147.88 373.768L145.255 375.798C144.695 376.231 144.191 376.733 143.755 377.29C143.458 377.67 143.271 378.125 143.216 378.603C143.203 379.039 143.341 379.465 143.606 379.812C143.979 380.271 144.431 380.66 144.94 380.961L146.725 382.081L148.524 383.215L150.324 384.334L152.139 385.453L153.953 386.588L155.768 387.707L157.583 388.826L159.397 389.945C159.943 390.285 160.533 390.546 161.152 390.721C161.722 390.88 162.316 390.936 162.906 390.886C163.516 390.812 164.112 390.651 164.676 390.408C165.331 390.111 165.95 389.741 166.521 389.304L169.295 387.199L172.069 385.035Z" fill="#454F5C"/>
<path d="M280.347 355.697L278.967 354.861L277.587 354.011L276.208 353.175L274.828 352.354L273.628 351.638L272.413 350.907L271.214 350.205L269.999 349.489C269.437 349.15 268.832 348.889 268.199 348.713C267.629 348.555 267.035 348.499 266.445 348.549C265.829 348.6 265.227 348.752 264.66 348.996C264.015 349.274 263.41 349.635 262.86 350.071C261.916 350.757 261.001 351.459 260.071 352.175L257.312 354.294L254.567 356.414L251.838 358.563C251.352 358.937 250.923 359.38 250.563 359.876C250.3 360.23 250.158 360.659 250.158 361.1C250.163 361.523 250.311 361.933 250.578 362.264C250.934 362.699 251.366 363.068 251.853 363.353L252.333 363.666L252.828 363.98L253.323 364.278L253.817 364.577L254.612 365.054L255.407 365.532L256.217 366.01L257.012 366.487L257.447 366.756L257.882 367.009L258.316 367.278L258.736 367.547L258.961 367.666L259.171 367.8L259.381 367.935L259.606 368.054L259.996 368.293L260.401 368.547L260.791 368.785C260.926 368.856 261.056 368.936 261.181 369.024L261.481 369.203L261.781 369.382L262.081 369.547L262.381 369.726C262.949 370.055 263.559 370.306 264.195 370.472C264.772 370.624 265.371 370.675 265.965 370.621C266.582 370.558 267.184 370.397 267.749 370.143C268.395 369.846 269.004 369.476 269.564 369.039L272.233 366.98C273.123 366.313 274.008 365.627 274.888 364.92L277.557 362.861L280.197 360.786C280.767 360.364 281.272 359.861 281.696 359.294C281.992 358.921 282.17 358.469 282.206 357.995C282.211 357.554 282.057 357.125 281.771 356.787C281.361 356.347 280.879 355.979 280.347 355.697V355.697Z" fill="#454F5C"/>
<path d="M146.321 372.796L149.125 370.677L151.899 368.543L154.659 366.394C155.138 366.034 155.562 365.606 155.919 365.126C156.183 364.769 156.339 364.344 156.369 363.902C156.381 363.499 156.265 363.102 156.039 362.768C155.732 362.352 155.344 362.002 154.899 361.738L153.504 360.842L152.109 359.962L150.715 359.081L149.305 358.216L148.105 357.47L146.981 356.679L145.781 355.962L144.566 355.231C144.025 354.904 143.439 354.657 142.826 354.5C142.254 354.351 141.66 354.306 141.072 354.365C140.457 354.43 139.855 354.586 139.287 354.828C138.638 355.122 138.024 355.487 137.458 355.918L134.698 357.977L131.954 360.051L129.224 362.141L126.51 364.245C125.99 364.623 125.534 365.081 125.16 365.603C124.887 365.968 124.726 366.403 124.695 366.857C124.7 367.29 124.847 367.709 125.115 368.051C125.465 368.501 125.897 368.881 126.39 369.17C126.57 369.289 126.75 369.409 126.945 369.513L127.485 369.871L128.04 370.215L128.594 370.558L129.344 371.02L130.079 371.483L130.829 371.946L131.579 372.408L132.329 372.871L133.079 373.349L133.828 373.811L134.578 374.289L135.088 374.602L135.583 374.901L136.093 375.214L136.603 375.513C137.129 375.83 137.7 376.067 138.297 376.214C138.861 376.351 139.445 376.391 140.022 376.333C140.633 376.283 141.231 376.132 141.792 375.886C142.419 375.611 143.013 375.265 143.561 374.856L146.321 372.796Z" fill="#454F5C"/>
<path d="M295.524 417.658L296.873 418.508L298.223 419.344L299.588 420.195L300.937 421.031L302.437 421.926L303.937 422.822L305.436 423.702L306.936 424.583C307.441 424.889 307.994 425.11 308.571 425.239C309.136 425.371 309.719 425.406 310.295 425.344C310.885 425.292 311.462 425.145 312.005 424.911C312.594 424.665 313.149 424.344 313.655 423.956L316.519 421.732L319.369 419.508L322.173 417.27L324.977 415.031C325.466 414.664 325.892 414.221 326.237 413.718C326.501 413.357 326.653 412.926 326.672 412.479C326.666 412.054 326.524 411.641 326.267 411.3C325.931 410.866 325.513 410.501 325.037 410.226L323.538 409.315L322.038 408.435L320.538 407.539L319.039 406.659L317.944 405.928L316.579 405.122L315.229 404.316L313.865 403.525C313.339 403.207 312.767 402.971 312.17 402.824C311.61 402.695 311.033 402.655 310.46 402.704C309.862 402.769 309.276 402.919 308.721 403.152C308.102 403.42 307.518 403.761 306.981 404.167L305.616 405.196L304.267 406.241L302.947 407.301L301.597 408.36L300.098 409.524L298.598 410.673L297.098 411.838L295.599 413.031C295.148 413.4 294.754 413.833 294.429 414.315C294.179 414.676 294.038 415.101 294.024 415.539C294.015 415.953 294.135 416.36 294.369 416.703C294.682 417.098 295.075 417.424 295.524 417.658V417.658Z" fill="#454F5C"/>
<path d="M357.94 455.788L358.81 456.31L359.68 456.833L360.55 457.355L361.419 457.892L361.869 458.161L362.319 458.43L362.769 458.713L363.234 458.982L363.459 459.131L363.684 459.265L363.909 459.4L364.134 459.549L364.614 459.847L365.109 460.146L365.588 460.444L366.068 460.743L366.308 460.877L366.563 461.026L366.803 461.176L367.043 461.325C367.617 461.656 368.232 461.912 368.873 462.086C369.47 462.236 370.088 462.291 370.702 462.25C371.327 462.207 371.941 462.061 372.517 461.817C373.151 461.549 373.746 461.198 374.287 460.773L377.166 458.519L380.015 456.251L382.835 453.967L385.639 451.684C386.106 451.322 386.506 450.882 386.824 450.386C387.072 450.019 387.208 449.589 387.214 449.147C387.207 448.724 387.071 448.313 386.824 447.968C386.499 447.539 386.091 447.178 385.624 446.908L384.124 445.998L382.625 445.103L381.125 444.222L379.625 443.327L378.126 442.446L376.626 441.581L375.126 440.715L373.627 439.849C373.105 439.537 372.539 439.306 371.947 439.163C371.381 439.042 370.8 439.001 370.222 439.043C369.634 439.103 369.058 439.249 368.513 439.476C367.917 439.73 367.357 440.062 366.848 440.461L363.924 442.73L361.434 445.028L358.435 447.341L355.601 449.669C355.152 450.022 354.771 450.451 354.476 450.938C354.248 451.317 354.129 451.75 354.131 452.191C354.155 452.623 354.307 453.038 354.566 453.385C354.889 453.811 355.291 454.171 355.751 454.445L356.275 454.788L356.815 455.116L357.34 455.46L357.94 455.788Z" fill="#454F5C"/>
<path d="M339.673 391.259L338.353 390.438L337.018 389.632L335.699 388.826L334.439 388.02L332.939 387.155L331.44 386.274L329.94 385.409L328.44 384.558C327.945 384.264 327.409 384.043 326.851 383.901C326.312 383.765 325.756 383.71 325.201 383.737C324.636 383.764 324.079 383.879 323.551 384.081C323.011 384.293 322.505 384.585 322.052 384.946C321.032 385.692 320.027 386.439 319.052 387.215L316.053 389.513L313.053 391.841L310.159 394.184C309.729 394.529 309.359 394.943 309.064 395.408C308.847 395.757 308.733 396.161 308.734 396.572C308.761 396.973 308.907 397.358 309.154 397.676C309.466 398.07 309.847 398.404 310.279 398.661L311.659 399.512L313.039 400.377L314.433 401.228L315.813 402.064L317.223 402.915L318.617 403.75L320.042 404.586L321.452 405.422C322.017 405.756 322.629 406.007 323.266 406.168C323.855 406.307 324.465 406.342 325.066 406.272C325.691 406.201 326.3 406.024 326.866 405.75C327.528 405.446 328.152 405.065 328.725 404.616L330.03 403.601L331.32 402.586L332.594 401.556L333.884 400.542L335.384 399.422L336.808 398.303L338.308 397.184L339.718 396.035C340.185 395.668 340.59 395.23 340.918 394.736C341.17 394.364 341.315 393.931 341.337 393.483C341.337 393.063 341.201 392.654 340.948 392.319C340.601 391.882 340.167 391.521 339.673 391.259Z" fill="#454F5C"/>
<path d="M236.96 382.048L238.1 382.75L239.255 383.466L240.395 384.183L241.549 384.884L243.049 385.779L244.549 386.675L246.048 387.585L247.548 388.466C248.092 388.81 248.69 389.063 249.318 389.212C249.905 389.361 250.514 389.406 251.117 389.346C251.744 389.278 252.357 389.112 252.932 388.854C253.589 388.566 254.208 388.2 254.776 387.764L256.171 386.69L257.566 385.615L258.946 384.541L260.325 383.466L261.675 382.422L263.01 381.392L264.359 380.347L265.679 379.302C266.166 378.918 266.595 378.465 266.954 377.959C267.217 377.59 267.372 377.157 267.404 376.706C267.411 376.282 267.268 375.87 266.999 375.542C266.666 375.095 266.242 374.724 265.754 374.452L264.359 373.587L262.95 372.721L261.54 371.855L260.04 371.005L258.811 370.259L257.596 369.527L256.366 368.796L255.121 368.05C254.564 367.714 253.964 367.453 253.337 367.274C252.155 366.959 250.899 367.059 249.783 367.557C249.129 367.836 248.514 368.198 247.953 368.632L245.149 370.751L242.374 372.885L239.615 375.034L236.96 377.153C236.468 377.521 236.037 377.964 235.686 378.467C235.424 378.834 235.278 379.27 235.266 379.72C235.282 380.147 235.44 380.557 235.716 380.884C236.052 381.348 236.474 381.743 236.96 382.048V382.048Z" fill="#454F5C"/>
<path d="M171.708 322.474L168.979 324.518L166.279 326.578C165.379 327.25 164.465 327.936 163.58 328.623C162.695 329.309 161.78 330.01 160.88 330.697C160.385 331.054 159.95 331.488 159.591 331.98C159.316 332.339 159.154 332.77 159.126 333.219C159.115 333.627 159.241 334.026 159.486 334.353C159.807 334.786 160.215 335.147 160.685 335.413L161.96 336.219L163.265 337.025L164.554 337.816L165.844 338.607L167.149 339.412L168.454 340.189L169.773 340.98L171.078 341.77C171.587 342.072 172.138 342.299 172.713 342.442C173.263 342.571 173.83 342.612 174.392 342.561C174.975 342.505 175.546 342.364 176.087 342.144C176.694 341.884 177.268 341.553 177.797 341.159L180.631 339.054L183.45 336.92L186.255 334.771L189.029 332.622C189.499 332.267 189.913 331.844 190.259 331.369C190.516 331.026 190.667 330.616 190.694 330.19C190.692 329.791 190.56 329.403 190.319 329.085C189.997 328.668 189.6 328.314 189.149 328.041L188.609 327.697L188.054 327.354L187.5 327.011L186.945 326.668L186.21 326.22L185.46 325.772L184.71 325.324L183.96 324.877L183.24 324.444L182.521 323.996L181.801 323.563L181.096 323.131L180.541 322.802L180.001 322.474L179.461 322.16L178.921 321.847C178.354 321.505 177.744 321.239 177.107 321.056C176.531 320.899 175.932 320.843 175.337 320.892C174.719 320.947 174.115 321.109 173.553 321.37C172.895 321.661 172.275 322.032 171.708 322.474V322.474Z" fill="#454F5C"/>
<path d="M199.694 350.516L201.119 349.412L202.618 348.322L203.953 347.308L205.288 346.293L206.622 345.263L207.927 344.233C208.429 343.862 208.874 343.419 209.247 342.92C209.52 342.566 209.687 342.141 209.727 341.696C209.738 341.289 209.611 340.889 209.367 340.562C209.031 340.128 208.613 339.763 208.137 339.488L206.847 338.682L205.543 337.891L204.238 337.085L202.933 336.294C202.498 336.025 202.063 335.757 201.614 335.503L200.309 334.712L198.974 333.921L197.654 333.145C197.144 332.828 196.588 332.591 196.005 332.443C195.462 332.301 194.9 332.245 194.34 332.279C193.762 332.323 193.195 332.459 192.66 332.682C192.061 332.926 191.496 333.247 190.981 333.637L188.011 335.786L185.132 337.95L182.298 340.129L179.478 342.338C179.029 342.674 178.638 343.083 178.324 343.547C178.083 343.895 177.948 344.304 177.934 344.726C177.937 345.122 178.063 345.507 178.294 345.83C178.585 346.231 178.958 346.567 179.388 346.815L180.768 347.681L182.148 348.546L183.542 349.397L184.922 350.248L186.212 351.024L187.487 351.8L188.776 352.561L190.066 353.337C190.571 353.643 191.123 353.865 191.701 353.994C192.255 354.125 192.829 354.161 193.395 354.098C193.985 354.046 194.562 353.9 195.105 353.665C195.712 353.411 196.285 353.085 196.815 352.695L198.314 351.621L199.694 350.516Z" fill="#454F5C"/>
<path d="M222.803 321.19L222.384 320.922C222.238 320.846 222.098 320.761 221.964 320.668L221.544 320.414L221.109 320.161L220.269 319.653L219.414 319.161L218.574 318.653L217.72 318.146L216.85 317.624C216.565 317.445 216.28 317.265 215.98 317.101L215.11 316.564L214.24 316.042L213.805 315.773L213.37 315.519L212.921 315.266L212.486 314.997C211.939 314.685 211.354 314.445 210.746 314.281C210.179 314.132 209.59 314.087 209.006 314.146C208.396 314.21 207.799 314.366 207.237 314.609C206.593 314.899 205.985 315.259 205.422 315.684L202.708 317.713L199.993 319.758L197.309 321.817L194.654 323.847C194.145 324.214 193.695 324.657 193.32 325.16C193.041 325.507 192.869 325.927 192.825 326.369C192.814 326.777 192.941 327.176 193.185 327.503C193.52 327.929 193.932 328.288 194.4 328.563L195.629 329.324L196.859 330.085L198.104 330.846L199.348 331.607L200.713 332.428L202.093 333.249L203.473 334.07L204.867 334.891C205.394 335.204 205.965 335.436 206.562 335.577C207.13 335.718 207.718 335.764 208.302 335.711C208.9 335.645 209.486 335.494 210.041 335.264C210.655 334.996 211.234 334.655 211.766 334.249L214.525 332.159L217.285 330.07L220.029 327.951L222.743 325.847C223.226 325.484 223.651 325.052 224.003 324.563C224.25 324.205 224.395 323.788 224.423 323.354C224.417 322.938 224.275 322.535 224.018 322.205C223.679 321.796 223.267 321.452 222.803 321.19V321.19Z" fill="#454F5C"/>
<path d="M261.225 344.232L259.966 343.456L258.721 342.695L257.461 341.949L256.216 341.187L254.807 340.352L253.397 339.501L251.987 338.68L250.578 337.844C250.024 337.522 249.429 337.276 248.808 337.113C248.234 336.977 247.641 336.937 247.053 336.994C246.441 337.062 245.843 337.228 245.284 337.486C244.635 337.78 244.021 338.145 243.454 338.576L242.104 339.591L240.785 340.62L239.465 341.635L238.145 342.665L236.766 343.71L235.461 344.739L234.081 345.799C233.616 346.142 233.166 346.5 232.716 346.859C232.237 347.224 231.812 347.656 231.457 348.142C231.188 348.493 231.021 348.911 230.977 349.351C230.949 349.749 231.06 350.144 231.292 350.47C231.603 350.882 231.99 351.231 232.432 351.5L233.796 352.351L235.146 353.201L236.511 354.037L237.89 354.873L239.255 355.693L240.65 356.514L242.045 357.35L243.439 358.156C243.905 358.439 244.41 358.65 244.939 358.783C245.459 358.909 245.995 358.955 246.529 358.917C247.087 358.87 247.633 358.733 248.148 358.514C248.721 358.288 249.261 357.987 249.753 357.619C250.743 356.887 251.732 356.126 252.752 355.41L255.662 353.186L258.541 350.948L261.375 348.679C261.822 348.334 262.212 347.921 262.53 347.455C262.757 347.109 262.877 346.705 262.875 346.291C262.858 345.892 262.71 345.51 262.455 345.202C262.116 344.799 261.697 344.469 261.225 344.232V344.232Z" fill="#454F5C"/>
<path d="M389.059 441.3L390.469 440.195L391.864 439.091L393.244 437.972L394.623 436.852L395.928 435.778L397.218 434.748L398.507 433.718L399.782 432.689C400.349 432.263 400.854 431.761 401.282 431.196C401.593 430.797 401.776 430.313 401.807 429.808C401.797 429.338 401.616 428.887 401.297 428.54C400.876 428.041 400.368 427.621 399.797 427.301L398.582 426.57L397.368 425.824L396.138 425.092L394.923 424.361L393.423 423.466L391.924 422.57L390.424 421.69L388.924 420.794C388.357 420.457 387.746 420.196 387.11 420.018C386.529 419.858 385.927 419.793 385.325 419.824C384.71 419.867 384.107 420.013 383.541 420.257C382.908 420.521 382.312 420.867 381.771 421.287L378.907 423.51L376.072 425.749L373.268 428.002L370.433 430.241C369.971 430.602 369.571 431.035 369.249 431.524C368.998 431.891 368.858 432.32 368.844 432.763C368.851 433.182 368.987 433.588 369.234 433.927C369.557 434.353 369.959 434.712 370.418 434.987L371.918 435.942L373.418 436.882L374.917 437.822L376.417 438.763L377.782 439.583L379.162 440.404L380.541 441.21L381.936 442.016C382.471 442.338 383.053 442.574 383.661 442.717C384.236 442.849 384.829 442.884 385.415 442.822C386.021 442.754 386.613 442.593 387.17 442.344C387.842 442.077 388.477 441.726 389.059 441.3V441.3Z" fill="#454F5C"/>
<path d="M203.969 309.864L202.679 309.073L201.389 308.282L200.084 307.506L198.795 306.715L197.49 305.939L196.185 305.163L194.866 304.387L193.561 303.625C193.04 303.326 192.48 303.1 191.896 302.954C191.342 302.82 190.767 302.789 190.202 302.864C189.606 302.927 189.024 303.083 188.477 303.327C187.847 303.591 187.253 303.932 186.707 304.342C186.257 304.67 185.807 304.998 185.373 305.342L184.053 306.342L182.733 307.341L181.413 308.341L180.049 309.386L178.669 310.416L177.304 311.46L175.94 312.505C175.442 312.876 174.998 313.313 174.62 313.803C174.339 314.156 174.162 314.58 174.11 315.027C174.08 315.432 174.197 315.835 174.44 316.161C174.749 316.58 175.142 316.931 175.595 317.191L176.884 317.997L178.159 318.773L179.449 319.564L180.754 320.355L182.058 321.146L183.363 321.922L184.668 322.698L185.987 323.474C186.519 323.798 187.095 324.045 187.697 324.205C188.25 324.346 188.823 324.392 189.392 324.34C189.98 324.293 190.558 324.152 191.101 323.922C191.72 323.648 192.304 323.303 192.841 322.892L195.63 320.833C196.545 320.131 197.475 319.445 198.375 318.743C199.275 318.042 200.204 317.355 201.119 316.654L203.819 314.55C204.315 314.182 204.751 313.739 205.108 313.236C205.383 312.891 205.54 312.468 205.558 312.028C205.563 311.623 205.431 311.229 205.183 310.908C204.852 310.484 204.439 310.129 203.969 309.864V309.864Z" fill="#454F5C"/>
<path d="M217.464 370.111L218.858 371.006C219.338 371.29 219.803 371.588 220.268 371.887L221.768 372.767L223.192 373.633L224.527 374.439L225.862 375.245L227.197 376.05L228.546 376.841C229.012 377.12 229.518 377.326 230.046 377.453C230.582 377.575 231.133 377.615 231.681 377.573C232.246 377.524 232.802 377.393 233.33 377.185C233.895 376.962 234.425 376.66 234.905 376.289L237.904 374.08L240.904 371.827L243.798 369.573L246.662 367.305C247.104 366.969 247.484 366.56 247.787 366.096C248.027 365.759 248.162 365.36 248.177 364.947C248.186 364.561 248.064 364.182 247.832 363.873C247.547 363.48 247.185 363.15 246.767 362.903L245.193 361.918L243.603 360.933L242.013 359.962L240.409 358.992L239.254 358.291L238.099 357.605L236.929 356.918L235.76 356.232C235.252 355.917 234.694 355.69 234.11 355.56C233.561 355.429 232.992 355.393 232.43 355.455C231.841 355.52 231.265 355.671 230.721 355.903C230.114 356.169 229.54 356.504 229.011 356.903L227.616 357.963L226.237 359.022L224.857 360.082L223.492 361.156L221.993 362.261L220.493 363.35L218.993 364.455C218.528 364.813 218.049 365.186 217.584 365.574C217.141 365.924 216.752 366.336 216.429 366.798C216.18 367.149 216.035 367.562 216.009 367.992C215.995 368.39 216.111 368.783 216.339 369.111C216.634 369.523 217.019 369.865 217.464 370.111Z" fill="#454F5C"/>
<path d="M275.953 405.677L277.317 406.542L278.682 407.393L280.062 408.244L281.441 409.094L282.836 409.93L284.231 410.766L285.626 411.602L287.035 412.437C287.543 412.742 288.094 412.968 288.67 413.109C289.224 413.243 289.796 413.288 290.365 413.243C290.947 413.196 291.518 413.06 292.059 412.84C292.651 412.6 293.207 412.279 293.709 411.885C294.684 411.139 295.673 410.393 296.633 409.662L299.528 407.408C300.487 406.662 301.447 405.916 302.392 405.155L305.226 402.886C305.685 402.521 306.085 402.089 306.411 401.603C306.662 401.253 306.803 400.838 306.816 400.409C306.815 399.998 306.678 399.6 306.426 399.275C306.109 398.862 305.718 398.513 305.271 398.245L303.877 397.379L302.482 396.514L301.072 395.648L299.678 394.797L298.253 393.947L296.843 393.096L295.419 392.26L293.994 391.425C293.487 391.125 292.935 390.909 292.359 390.783C291.815 390.651 291.251 390.616 290.694 390.678C290.115 390.743 289.549 390.894 289.015 391.126C288.426 391.373 287.872 391.694 287.365 392.081L285.866 393.201C285.386 393.559 284.886 393.932 284.366 394.32L282.941 395.439L281.516 396.558L280.122 397.648L278.727 398.722L277.332 399.812L275.968 400.901C275.484 401.264 275.064 401.702 274.723 402.2C274.469 402.566 274.318 402.994 274.288 403.438C274.275 403.86 274.401 404.274 274.648 404.617C275.003 405.058 275.448 405.419 275.953 405.677V405.677Z" fill="#454F5C"/>
<path d="M291.773 335.413L290.409 334.592L289.059 333.786L287.694 332.966L286.33 332.16L284.95 331.309L283.57 330.503L282.205 329.697L280.841 328.906C280.342 328.611 279.801 328.395 279.236 328.265C278.697 328.13 278.14 328.085 277.586 328.13C277.019 328.172 276.463 328.303 275.937 328.518C275.357 328.746 274.812 329.052 274.317 329.429C273.357 330.145 272.398 330.921 271.453 331.593L268.618 333.757L265.784 335.95L262.995 338.159C262.541 338.491 262.15 338.9 261.84 339.368C261.599 339.709 261.469 340.115 261.465 340.532C261.467 340.931 261.599 341.318 261.84 341.636C262.151 342.03 262.533 342.364 262.965 342.621L263.489 342.95L264.014 343.278L264.554 343.591L265.079 343.92L265.889 344.397L266.684 344.875L267.494 345.352L268.303 345.83L269.083 346.308L269.878 346.785L270.658 347.248L271.453 347.725L272.053 348.083L272.637 348.442C272.847 348.546 273.042 348.665 273.237 348.785L273.837 349.143C274.365 349.444 274.929 349.675 275.517 349.83C276.065 349.968 276.632 350.018 277.196 349.979C277.781 349.944 278.354 349.808 278.891 349.576C279.496 349.327 280.066 349.001 280.586 348.606L283.45 346.531L286.255 344.382L289.014 342.218L291.773 340.039C292.235 339.683 292.635 339.255 292.958 338.771C293.206 338.415 293.342 337.995 293.348 337.562C293.342 337.155 293.199 336.761 292.943 336.443C292.624 336.027 292.227 335.677 291.773 335.413V335.413Z" fill="#454F5C"/>
<path d="M108.723 349.621L110.223 348.517L111.723 347.427L113.117 346.383L114.512 345.338L115.907 344.293L117.286 343.234C117.748 342.875 118.161 342.459 118.516 341.995C118.785 341.658 118.961 341.257 119.026 340.831C119.076 340.449 118.985 340.062 118.771 339.742C118.503 339.342 118.15 339.006 117.736 338.757L116.417 337.906L115.082 337.07L113.747 336.235L112.397 335.399L111.048 334.563L109.698 333.742L108.333 332.936L106.969 332.13C106.505 331.85 105.999 331.649 105.469 331.534C104.978 331.42 104.471 331.39 103.969 331.444C103.422 331.506 102.886 331.647 102.38 331.862C101.845 332.105 101.342 332.41 100.88 332.772L97.9705 334.906L95.0761 337.07L92.2118 339.234L89.3624 341.428C88.8951 341.769 88.4808 342.176 88.1326 342.637C87.875 342.976 87.7144 343.378 87.6677 343.801C87.6425 344.187 87.7481 344.571 87.9677 344.89C88.2459 345.287 88.6033 345.622 89.0175 345.875L90.3072 346.711L91.6269 347.532L92.9466 348.368L94.2663 349.188L95.586 350.009L96.9207 350.83L98.2555 351.636L99.6052 352.442C100.068 352.73 100.574 352.941 101.105 353.069C101.641 353.159 102.188 353.159 102.725 353.069C103.298 353.009 103.859 352.863 104.389 352.636C104.974 352.394 105.528 352.083 106.039 351.711L107.538 350.636L108.723 349.621Z" fill="#454F5C"/>
<path d="M234.217 301.236L232.897 300.431L231.562 299.64L230.243 298.834L228.908 298.043L227.588 297.267L226.253 296.476L224.904 295.685L223.569 294.909C223.102 294.633 222.597 294.427 222.069 294.297C221.535 294.167 220.982 294.127 220.435 294.177C219.868 294.214 219.312 294.34 218.785 294.551C218.209 294.77 217.669 295.071 217.18 295.446L214.316 297.55L211.467 299.684L208.662 301.833L205.888 304.012C205.435 304.344 205.039 304.747 204.718 305.206C204.485 305.541 204.35 305.934 204.328 306.34C204.336 306.724 204.467 307.096 204.703 307.4C205.005 307.797 205.382 308.132 205.813 308.385C205.978 308.504 206.158 308.609 206.338 308.713L206.863 309.042L207.402 309.37L207.942 309.698L208.752 310.176L209.562 310.653L210.387 311.146L211.197 311.623L211.947 312.071L212.681 312.519C212.936 312.668 213.176 312.832 213.431 312.967L214.181 313.429L214.736 313.758L215.306 314.086L215.876 314.429L216.431 314.757C216.945 315.059 217.501 315.286 218.08 315.429C219.188 315.713 220.358 315.624 221.409 315.175C222.004 314.931 222.564 314.61 223.074 314.22L225.894 312.131L228.683 310.012L231.442 307.892C232.372 307.176 233.287 306.475 234.187 305.758C234.655 305.412 235.065 304.994 235.401 304.52C235.646 304.173 235.786 303.764 235.806 303.341C235.8 302.94 235.663 302.553 235.416 302.236C235.089 301.826 234.68 301.486 234.217 301.236V301.236Z" fill="#454F5C"/>
<path d="M350.832 370.5L349.423 369.649L348.013 368.799L346.603 367.948L345.194 367.112L343.769 366.262L342.269 365.426L340.844 364.59L339.42 363.769C338.913 363.47 338.361 363.254 337.785 363.128C337.236 362.994 336.669 362.948 336.105 362.993C335.529 363.048 334.964 363.183 334.426 363.396C333.848 363.65 333.3 363.965 332.791 364.337L329.942 366.545L327.107 368.754L324.273 370.978L321.469 373.216C321.022 373.563 320.636 373.981 320.329 374.455C320.09 374.802 319.964 375.213 319.969 375.634C319.988 376.041 320.135 376.433 320.389 376.753C320.708 377.164 321.106 377.509 321.559 377.768L322.098 378.111L322.638 378.44L323.178 378.768L323.733 379.096L324.558 379.589L325.368 380.081L326.193 380.574L327.017 381.051L327.827 381.544L328.622 382.036C328.907 382.186 329.162 382.35 329.447 382.514L330.242 383.006L330.857 383.365L331.471 383.723L332.086 384.096L332.686 384.454C333.21 384.752 333.769 384.983 334.351 385.14C334.898 385.284 335.465 385.34 336.03 385.305C336.601 385.271 337.162 385.151 337.695 384.946C338.274 384.704 338.818 384.388 339.315 384.006C340.305 383.275 341.279 382.514 342.314 381.768L345.223 379.514L348.088 377.231C349.033 376.47 349.992 375.738 350.922 374.933C351.35 374.601 351.715 374.197 352.002 373.739C352.219 373.389 352.334 372.986 352.332 372.575C352.311 372.174 352.17 371.79 351.927 371.47C351.625 371.083 351.254 370.754 350.832 370.5V370.5Z" fill="#454F5C"/>
<path d="M246.107 415.494L246.677 415.867L247.247 416.225L247.832 416.583L248.417 416.942L248.702 417.121L248.987 417.3L249.287 417.479L249.571 417.658L250.066 417.956L250.546 418.255L251.026 418.538L251.506 418.837L252.286 419.314C252.541 419.479 252.796 419.643 253.066 419.792L253.831 420.285C254.101 420.434 254.355 420.598 254.61 420.762L255.195 421.12L255.78 421.478L256.365 421.822L256.95 422.18C257.504 422.508 258.099 422.764 258.72 422.941C259.296 423.092 259.894 423.147 260.489 423.105C261.098 423.053 261.695 422.907 262.259 422.672C262.892 422.409 263.487 422.062 264.028 421.643L266.908 419.434L269.757 417.21L272.592 414.987L275.396 412.748C275.841 412.385 276.235 411.963 276.566 411.494C276.816 411.139 276.956 410.719 276.971 410.286C276.969 409.873 276.838 409.471 276.596 409.136C276.279 408.724 275.887 408.375 275.441 408.107L274.046 407.226L272.652 406.361L271.257 405.495L269.847 404.644L268.437 403.779L267.028 402.928L265.618 402.092L264.193 401.242C263.725 400.961 263.221 400.745 262.694 400.6C262.159 400.469 261.608 400.419 261.059 400.451C260.499 400.496 259.948 400.622 259.424 400.824C258.857 401.058 258.323 401.364 257.835 401.734C256.83 402.465 255.84 403.227 254.835 403.973L251.836 406.256L248.957 408.554L246.062 410.868C245.615 411.214 245.229 411.632 244.922 412.106C244.685 412.465 244.559 412.886 244.563 413.315C244.582 413.727 244.728 414.123 244.982 414.449C245.289 414.864 245.671 415.218 246.107 415.494V415.494Z" fill="#454F5C"/>
<path d="M359.409 403.077L358.209 402.346L357.009 401.614C356.604 401.376 356.199 401.137 355.81 400.883L354.595 400.167L353.095 399.286L351.595 398.421L350.096 397.54L348.596 396.66C348.017 396.321 347.397 396.055 346.751 395.869C346.166 395.706 345.558 395.646 344.952 395.69C344.341 395.74 343.743 395.891 343.182 396.137C342.532 396.426 341.922 396.797 341.368 397.242L338.578 399.391L335.939 401.57L333.179 403.749L330.435 405.927C329.928 406.304 329.482 406.758 329.115 407.271C328.854 407.638 328.708 408.074 328.695 408.524C328.704 408.957 328.863 409.373 329.145 409.703C329.516 410.158 329.962 410.547 330.465 410.852L330.99 411.181L331.515 411.509L332.04 411.822L332.564 412.151L333.419 412.658L334.274 413.166L335.129 413.673L335.984 414.195L336.824 414.703L337.678 415.225L338.518 415.747L339.373 416.27L339.913 416.583L340.453 416.897L340.993 417.225L341.533 417.538C342.079 417.844 342.664 418.074 343.272 418.225C343.841 418.361 344.429 418.401 345.012 418.344C345.603 418.294 346.182 418.142 346.721 417.896C347.332 417.634 347.903 417.288 348.416 416.867C349.361 416.15 350.291 415.374 351.205 414.688L353.98 412.494C354.91 411.778 355.824 411.002 356.739 410.3L359.499 408.106C360.017 407.714 360.472 407.246 360.848 406.718C361.121 406.339 361.272 405.886 361.283 405.42C361.263 404.975 361.094 404.55 360.803 404.211C360.406 403.758 359.934 403.374 359.409 403.077V403.077Z" fill="#454F5C"/>
<path d="M335.489 442.029L336.989 442.954L338.488 443.88L339.988 444.805L341.488 445.715L342.882 446.566L344.277 447.417L345.687 448.252L347.082 449.088C347.589 449.379 348.134 449.6 348.701 449.745C349.25 449.879 349.817 449.924 350.381 449.879C350.952 449.835 351.514 449.704 352.045 449.491C352.613 449.26 353.143 448.949 353.62 448.566L356.62 446.223L359.619 443.85L362.618 441.477L365.618 439.074C366.035 438.746 366.39 438.347 366.667 437.895C366.891 437.554 367.006 437.153 366.997 436.746C366.987 436.353 366.856 435.973 366.622 435.657C366.315 435.259 365.933 434.924 365.498 434.672L363.998 433.687L362.498 432.731L360.999 431.761L359.424 430.821L358.059 429.985L356.679 429.165L355.315 428.359L353.935 427.553C353.419 427.246 352.857 427.025 352.27 426.896C351.719 426.774 351.151 426.749 350.591 426.822C350.004 426.892 349.433 427.053 348.896 427.299C348.303 427.566 347.745 427.901 347.232 428.299L345.822 429.403L344.427 430.508L343.047 431.612L341.653 432.717L340.153 433.851L338.653 434.985L337.154 436.134L335.654 437.283C335.196 437.649 334.796 438.082 334.469 438.567C334.219 438.934 334.074 439.362 334.049 439.805C334.04 440.224 334.161 440.636 334.394 440.984C334.685 441.402 335.057 441.758 335.489 442.029Z" fill="#454F5C"/>
<path d="M242.044 332.804L240.694 331.968L239.345 331.133L237.98 330.312L236.615 329.491L235.25 328.67L233.886 327.864C233.421 327.596 232.956 327.312 232.491 327.058C232.026 326.805 231.576 326.506 231.111 326.252C230.647 325.977 230.141 325.78 229.612 325.67C229.086 325.551 228.543 325.521 228.007 325.581C227.45 325.643 226.904 325.783 226.387 325.999C225.856 326.23 225.353 326.521 224.888 326.864L223.388 327.939C222.908 328.297 222.428 328.655 221.963 329.028L220.554 330.118L219.144 331.192L217.644 332.282L216.22 333.371L214.72 334.446C214.255 334.819 213.775 335.177 213.325 335.55C212.862 335.891 212.453 336.298 212.11 336.759C211.863 337.102 211.708 337.503 211.661 337.923C211.641 338.309 211.746 338.69 211.96 339.012C212.252 339.418 212.624 339.758 213.055 340.012L214.39 340.848L215.74 341.684L217.089 342.519L218.454 343.355L219.819 344.176L221.198 344.982C221.648 345.265 222.113 345.534 222.578 345.803L223.958 346.609C224.689 347.051 225.517 347.311 226.371 347.366C227.225 347.42 228.08 347.268 228.862 346.922C229.439 346.683 229.983 346.372 230.481 345.997L233.361 343.818L236.21 341.639L239.03 339.445L241.849 337.251C242.29 336.916 242.675 336.513 242.989 336.057C243.229 335.71 243.365 335.3 243.379 334.878C243.389 334.485 243.262 334.1 243.019 333.789C242.764 333.398 242.432 333.063 242.044 332.804Z" fill="#454F5C"/>
<path d="M411.329 406.45L409.904 405.585L408.479 404.719L406.98 403.854L405.48 402.988L403.98 402.078L402.481 401.152L400.906 400.242L399.331 399.332C398.861 399.069 398.356 398.873 397.832 398.75C397.295 398.633 396.744 398.598 396.197 398.645C395.636 398.688 395.085 398.813 394.562 399.018C394.019 399.218 393.512 399.505 393.063 399.869L390.063 402.167L387.064 404.495C386.074 405.272 385.099 405.988 384.065 406.853C383.03 407.719 382.115 408.42 381.17 409.211C380.76 409.533 380.414 409.928 380.15 410.375C379.946 410.723 379.847 411.122 379.865 411.525C379.886 411.92 380.028 412.3 380.27 412.614C380.557 413.01 380.925 413.34 381.35 413.584L381.875 413.927L382.415 414.256L382.94 414.584L383.48 414.912L384.394 415.45L385.294 415.987L386.224 416.524L387.124 417.061L388.054 417.614L388.968 418.166L389.883 418.733L390.798 419.285L391.383 419.628L391.968 419.972L392.538 420.315L393.138 420.643C393.608 420.917 394.112 421.127 394.637 421.27C395.716 421.529 396.848 421.467 397.892 421.091C398.429 420.885 398.934 420.604 399.391 420.255L402.391 417.897L405.39 415.524C406.395 414.718 407.385 413.927 408.389 413.121L411.389 410.704C411.776 410.391 412.097 410.006 412.333 409.57C412.533 409.225 412.631 408.832 412.618 408.435C412.642 408.086 412.575 407.737 412.423 407.421C412.137 407.019 411.763 406.687 411.329 406.45Z" fill="#454F5C"/>
<path d="M256.187 393.646C256.622 393.929 257.057 394.213 257.507 394.481L258.826 395.317L260.161 396.138L261.511 396.959C261.991 397.257 262.471 397.556 263.01 397.839L264.51 398.735L266.01 399.6L267.51 400.481C268.008 400.776 268.549 400.992 269.114 401.122C269.659 401.254 270.222 401.289 270.779 401.227C271.361 401.16 271.931 401.015 272.473 400.794C273.062 400.538 273.621 400.218 274.138 399.839L275.638 398.72L277.137 397.6L278.562 396.481L279.987 395.347L281.487 394.243L282.986 393.123L284.486 392.004L285.896 390.87C286.325 390.525 286.699 390.118 287.005 389.661C287.254 389.315 287.399 388.906 287.425 388.482C287.436 388.091 287.326 387.705 287.11 387.378C286.826 386.981 286.464 386.646 286.046 386.393L284.741 385.572L283.421 384.751L282.086 383.93L280.752 383.124L279.252 382.214L277.752 381.304L276.253 380.408L274.753 379.513C274.261 379.234 273.73 379.027 273.178 378.901C272.647 378.781 272.1 378.751 271.559 378.811C271.001 378.871 270.456 379.012 269.939 379.229C269.402 379.474 268.899 379.785 268.439 380.154L265.545 382.363L262.681 384.587L259.816 386.825L256.967 389.064C256.506 389.419 256.097 389.835 255.752 390.303C255.501 390.66 255.351 391.077 255.317 391.511C255.295 391.911 255.411 392.306 255.647 392.631C255.771 392.996 255.953 393.338 256.187 393.646V393.646Z" fill="#454F5C"/>
<path d="M319.699 379.274L318.199 378.408L316.775 377.528L315.275 376.662L313.775 375.796C313.355 375.528 312.92 375.274 312.485 375.02L311.196 374.259L309.906 373.498L308.601 372.722C308.078 372.417 307.512 372.191 306.922 372.051C305.759 371.799 304.547 371.919 303.457 372.394C302.847 372.647 302.272 372.978 301.748 373.379L300.353 374.453L298.973 375.528C298.508 375.886 298.043 376.244 297.594 376.617L296.214 377.692L294.834 378.766L293.439 379.841L292.06 380.915L290.95 382.05C290.454 382.435 290.015 382.887 289.645 383.393C289.383 383.762 289.227 384.195 289.195 384.646C289.192 385.074 289.335 385.49 289.6 385.825C289.951 386.27 290.384 386.645 290.875 386.93L292.075 387.676L293.26 388.407L294.459 389.138L295.659 389.87L297.159 390.78L298.658 391.69L300.158 392.601L301.658 393.511C302.194 393.822 302.769 394.063 303.367 394.227C303.922 394.361 304.494 394.406 305.062 394.362C305.648 394.299 306.22 394.143 306.757 393.899C307.371 393.625 307.95 393.28 308.481 392.869L311.286 390.72L314.06 388.556L316.819 386.377L319.564 384.199C320.068 383.813 320.513 383.355 320.884 382.841C321.148 382.474 321.3 382.038 321.319 381.587C321.321 381.162 321.172 380.75 320.899 380.423C320.568 379.974 320.162 379.586 319.699 379.274V379.274Z" fill="#454F5C"/>
<path d="M305.556 452.086L306.126 452.459L306.711 452.832L307.311 453.205L307.896 453.578L308.196 453.757L308.496 453.936L308.796 454.115L309.095 454.309L309.59 454.608L310.085 454.906L310.58 455.22L311.075 455.518L311.96 456.055L312.845 456.607L313.714 457.16C314.014 457.339 314.314 457.518 314.599 457.712L315.154 458.04L315.709 458.383L316.279 458.712C316.459 458.831 316.654 458.936 316.849 459.04C317.377 459.364 317.954 459.601 318.558 459.741C319.138 459.878 319.736 459.918 320.328 459.861C320.934 459.798 321.525 459.642 322.083 459.398C322.705 459.14 323.286 458.793 323.807 458.369C324.767 457.637 325.712 456.876 326.642 456.16L329.461 453.936L332.251 451.698L335.01 449.459C335.518 449.072 335.964 448.609 336.33 448.086C336.598 447.71 336.749 447.263 336.765 446.802C336.756 446.361 336.598 445.934 336.315 445.594C335.958 445.131 335.515 444.741 335.01 444.445L333.66 443.609L332.325 442.773L330.976 441.937L329.626 441.116L328.126 440.221L326.627 439.326L325.127 438.43L323.627 437.55C323.131 437.248 322.589 437.026 322.023 436.893C321.479 436.76 320.917 436.714 320.358 436.759C319.786 436.801 319.225 436.932 318.693 437.147C318.119 437.375 317.579 437.681 317.089 438.057L314.089 440.355L311.09 442.669C310.115 443.445 309.125 444.161 308.166 445.012L305.256 447.37C304.805 447.717 304.419 448.141 304.117 448.623C303.887 448.99 303.768 449.415 303.772 449.847C303.802 450.271 303.958 450.676 304.222 451.011C304.595 451.449 305.048 451.814 305.556 452.086V452.086Z" fill="#454F5C"/>
<path d="M127.349 361.158L128.849 360.053L130.349 358.949L131.743 357.904L133.153 356.845L134.548 355.785L135.912 354.726C136.393 354.356 136.821 353.924 137.187 353.442C137.462 353.099 137.633 352.685 137.682 352.248C137.709 351.855 137.597 351.465 137.367 351.144C137.066 350.728 136.683 350.378 136.242 350.114L134.998 349.308L133.738 348.517L132.493 347.741L131.218 346.95L129.854 346.114L128.489 345.294L127.109 344.458L125.73 343.637C125.22 343.335 124.67 343.109 124.095 342.966C123.554 342.841 122.997 342.806 122.445 342.861C121.867 342.928 121.301 343.079 120.766 343.309C120.164 343.569 119.595 343.9 119.071 344.294L116.222 346.428C115.262 347.129 114.317 347.846 113.387 348.562L110.418 350.711L107.613 352.875C107.146 353.217 106.736 353.63 106.399 354.099C106.148 354.446 105.993 354.853 105.949 355.278C105.918 355.667 106.018 356.056 106.234 356.382C106.506 356.779 106.858 357.114 107.269 357.367L108.648 358.248L110.028 359.113L111.408 359.994L112.802 360.859L114.077 361.65L115.367 362.441L116.642 363.217L117.946 363.993C118.407 364.284 118.914 364.496 119.446 364.62C119.977 364.736 120.523 364.772 121.066 364.725C121.638 364.658 122.198 364.512 122.73 364.292C123.316 364.036 123.874 363.721 124.395 363.352L125.895 362.262L127.349 361.158Z" fill="#454F5C"/>
<path d="M369.937 428.017C370.432 427.644 370.912 427.256 371.437 426.883L372.861 425.734L374.361 424.585L375.696 423.525L377.03 422.465L378.365 421.406L379.7 420.331H379.79L379.895 420.257L379.985 420.182L380.075 420.108C380.51 419.73 380.888 419.293 381.2 418.809C381.433 418.443 381.558 418.019 381.559 417.585C381.551 417.174 381.409 416.776 381.155 416.451C380.83 416.035 380.427 415.686 379.97 415.421L378.56 414.556L377.15 413.69L375.741 412.84L374.316 411.989L372.906 411.138L371.482 410.288L369.982 409.452L368.482 408.601C367.942 408.294 367.362 408.063 366.758 407.915C366.184 407.778 365.59 407.737 365.003 407.795C364.404 407.858 363.818 408.009 363.263 408.243C362.659 408.505 362.09 408.841 361.569 409.243C360.609 409.989 359.664 410.735 358.734 411.467L355.9 413.69L353.096 415.914L350.306 418.167C349.846 418.519 349.446 418.942 349.121 419.421C348.865 419.78 348.719 420.205 348.701 420.645C348.694 421.059 348.826 421.463 349.076 421.794C349.379 422.226 349.773 422.588 350.231 422.853L351.731 423.764L353.231 424.689L354.73 425.599L356.23 426.495L357.625 427.331C358.089 427.614 358.554 427.898 359.034 428.166C359.514 428.435 359.964 428.733 360.444 429.002L361.854 429.823C362.368 430.14 362.93 430.371 363.518 430.509C364.072 430.646 364.645 430.686 365.213 430.629C365.793 430.576 366.36 430.43 366.893 430.196C367.49 429.935 368.054 429.605 368.572 429.211C368.932 428.778 369.457 428.39 369.937 428.017Z" fill="#454F5C"/>
<path d="M188.206 379.859L188.761 380.202L189.331 380.56L189.886 380.918L190.456 381.261L191.22 381.724L191.97 382.187L192.735 382.649L193.485 383.112L194.28 383.605L195.075 384.097L195.854 384.59L196.664 385.082L197.189 385.41L197.729 385.739L198.254 386.052L198.794 386.38C199.315 386.684 199.875 386.914 200.459 387.067C201.018 387.201 201.595 387.247 202.168 387.201C202.756 387.142 203.332 386.996 203.878 386.768C204.489 386.523 205.064 386.197 205.587 385.798L208.452 383.634L211.286 381.455L214.106 379.262L216.91 377.068C217.384 376.712 217.799 376.284 218.14 375.799C218.393 375.445 218.539 375.025 218.56 374.591C218.559 374.18 218.422 373.781 218.17 373.456C217.841 373.031 217.434 372.671 216.97 372.397L215.695 371.606L214.421 370.8L213.131 370.009L211.856 369.233L210.446 368.367L209.022 367.517L207.522 366.666L206.097 365.815C205.602 365.521 205.066 365.3 204.508 365.159C203.974 365.025 203.422 364.98 202.873 365.024C202.3 365.072 201.739 365.208 201.208 365.427C200.618 365.657 200.062 365.969 199.559 366.353L196.649 368.531L193.755 370.725L190.891 372.949C189.946 373.695 189.001 374.441 188.056 375.187C187.591 375.539 187.19 375.969 186.871 376.456C186.619 376.808 186.488 377.232 186.496 377.665C186.517 378.079 186.669 378.476 186.931 378.799C187.291 379.224 187.722 379.583 188.206 379.859V379.859Z" fill="#454F5C"/>
<path d="M390.677 447.238L392.027 448.089L393.392 448.939L394.756 449.775L396.136 450.611L397.786 451.596L399.45 452.596L401.115 453.566L402.795 454.551C403.26 454.823 403.766 455.02 404.294 455.133C404.831 455.244 405.383 455.274 405.929 455.222C406.491 455.152 407.041 455.006 407.564 454.79C408.099 454.549 408.603 454.243 409.063 453.879L412.063 451.551L415.062 449.208L417.971 446.85C418.931 446.074 419.906 445.283 420.851 444.492C421.288 444.155 421.659 443.74 421.945 443.268C422.176 442.902 422.296 442.477 422.29 442.045C422.286 441.632 422.156 441.231 421.915 440.895C421.61 440.488 421.228 440.144 420.791 439.881L419.291 438.985L417.791 438.09L416.292 437.209L414.792 436.329L413.292 435.448L411.793 434.583C411.313 434.284 410.818 434.001 410.293 433.717L408.793 432.851C408.26 432.527 407.678 432.29 407.069 432.15C406.499 432.018 405.911 431.983 405.329 432.046C404.728 432.117 404.142 432.278 403.589 432.523C402.971 432.81 402.387 433.165 401.85 433.583L400.455 434.687L399.075 435.792L397.696 436.911L396.316 438.015L394.816 439.164L393.317 440.298L391.817 441.463L390.392 442.612C389.951 442.976 389.567 443.403 389.252 443.88C389.006 444.239 388.856 444.656 388.818 445.089C388.803 445.492 388.919 445.89 389.148 446.223C389.556 446.692 390.085 447.043 390.677 447.238Z" fill="#454F5C"/>
<path d="M198.433 358.425L199.813 359.305L201.208 360.171L202.603 361.021L203.997 361.887L205.287 362.663L206.577 363.439L207.866 364.215L209.171 364.991C209.681 365.289 210.231 365.51 210.806 365.648C211.362 365.767 211.934 365.797 212.5 365.737C213.09 365.668 213.666 365.512 214.21 365.275C214.815 365.007 215.384 364.666 215.905 364.26L218.739 362.111C219.684 361.394 220.629 360.618 221.558 359.947L224.363 357.783C225.308 357.067 226.237 356.29 227.167 355.604C227.625 355.267 228.025 354.859 228.352 354.395C228.604 354.057 228.75 353.652 228.772 353.231C228.781 352.835 228.66 352.448 228.427 352.127C228.124 351.721 227.741 351.381 227.302 351.127L225.953 350.276L224.603 349.44L223.238 348.605L221.873 347.784L220.509 346.963L219.129 346.142L217.749 345.321L216.355 344.516C215.889 344.233 215.384 344.021 214.855 343.889C214.324 343.77 213.776 343.74 213.235 343.799C212.673 343.866 212.122 344.012 211.601 344.232C211.008 344.487 210.45 344.813 209.936 345.202C209.456 345.54 208.956 345.898 208.436 346.277L207.012 347.366L205.512 348.47L204.087 349.56L202.692 350.604L201.313 351.664L199.918 352.724L198.553 353.783C198.083 354.143 197.668 354.571 197.324 355.052C197.062 355.405 196.906 355.824 196.874 356.261C196.852 356.665 196.968 357.065 197.204 357.395C197.534 357.823 197.953 358.174 198.433 358.425V358.425Z" fill="#454F5C"/>
<path d="M300.397 367.737L298.972 366.856L297.473 365.961L295.973 365.095C295.508 364.797 295.028 364.513 294.473 364.23L292.973 363.364L291.474 362.498L289.974 361.648L288.474 360.812C288.01 360.544 287.503 360.357 286.975 360.26C286.451 360.16 285.916 360.135 285.385 360.185C284.842 360.245 284.311 360.386 283.81 360.603C283.276 360.821 282.772 361.107 282.311 361.454L280.811 362.543L279.386 363.662L277.962 364.767L276.552 365.871L275.052 367.02L273.553 368.155L272.053 369.304L270.553 370.453C270.124 370.792 269.75 371.195 269.443 371.647C269.196 371.982 269.05 372.381 269.024 372.796C269.019 373.184 269.134 373.564 269.354 373.885C269.635 374.281 269.998 374.611 270.418 374.855L271.768 375.706L273.118 376.542L274.497 377.377L275.862 378.213L277.362 379.094L278.861 379.974L280.361 380.855L281.861 381.72C282.325 382.002 282.831 382.209 283.361 382.332C283.893 382.444 284.439 382.475 284.98 382.422C285.538 382.355 286.083 382.209 286.6 381.989C287.167 381.75 287.702 381.439 288.189 381.064L291.069 378.855L293.918 376.631L296.768 374.408L299.587 372.169C300.032 371.833 300.422 371.431 300.742 370.975C300.992 370.628 301.147 370.221 301.192 369.796C301.222 369.411 301.122 369.028 300.907 368.707C300.793 368.357 300.621 368.029 300.397 367.737V367.737Z" fill="#454F5C"/>
<path d="M315.393 429.806L316.818 430.716L318.318 431.612L319.817 432.492L321.317 433.387L322.817 434.268L324.316 435.148L325.816 436.029L327.316 436.91C327.778 437.188 328.285 437.385 328.815 437.492C329.357 437.611 329.914 437.641 330.465 437.581C331.031 437.533 331.587 437.403 332.115 437.193C332.652 436.98 333.156 436.694 333.614 436.342L336.614 433.999L339.613 431.641L342.612 429.283L345.612 426.896C346.014 426.59 346.359 426.216 346.632 425.791C346.854 425.452 346.983 425.061 347.006 424.657C347.024 424.276 346.919 423.9 346.707 423.582C346.461 423.206 346.133 422.89 345.747 422.657L344.142 421.642L342.552 420.642L340.933 419.643L339.313 418.658L337.918 417.822L336.524 416.986L335.129 416.165L333.719 415.345C332.785 414.792 331.693 414.566 330.615 414.703C330.067 414.768 329.531 414.914 329.025 415.136C328.492 415.375 327.989 415.675 327.526 416.031L326.026 417.15L324.526 418.285L323.102 419.434L321.602 420.568L320.102 421.732L318.603 422.911L317.103 424.075L315.603 425.269C315.17 425.609 314.795 426.018 314.493 426.478C314.261 426.835 314.127 427.247 314.104 427.672C314.107 428.077 314.232 428.472 314.463 428.806C314.7 429.2 315.017 429.54 315.393 429.806V429.806Z" fill="#454F5C"/>
<path d="M226.538 403.436L227.048 403.764L227.558 404.093L228.068 404.406L228.578 404.735L229.417 405.242L230.242 405.749L231.082 406.257L231.907 406.764L232.807 407.316L233.692 407.868L234.591 408.436L235.491 408.988L236.031 409.316L236.571 409.644L237.126 409.973L237.681 410.301C238.172 410.585 238.703 410.796 239.255 410.928C239.784 411.061 240.331 411.107 240.875 411.062C241.437 411.017 241.988 410.886 242.51 410.674C243.079 410.445 243.614 410.139 244.099 409.764L247.099 407.51L250.098 405.227C251.088 404.466 252.048 403.735 253.097 402.929L255.977 400.63C256.42 400.281 256.809 399.869 257.132 399.407C257.369 399.063 257.505 398.66 257.521 398.243C257.518 397.853 257.387 397.476 257.147 397.168C256.845 396.771 256.468 396.436 256.037 396.183L254.537 395.243L253.037 394.303L251.538 393.362L250.038 392.437L248.718 391.631L247.399 390.84L246.064 390.049L244.729 389.258C244.264 388.978 243.758 388.771 243.23 388.647C242.698 388.528 242.151 388.497 241.61 388.557C241.053 388.619 240.507 388.759 239.99 388.975C239.424 389.217 238.89 389.528 238.401 389.9L235.491 392.124L232.462 394.347L229.597 396.586L226.733 398.84C226.277 399.19 225.877 399.608 225.548 400.078C225.297 400.427 225.156 400.843 225.143 401.272C225.131 401.68 225.258 402.08 225.503 402.406C225.773 402.817 226.125 403.168 226.538 403.436V403.436Z" fill="#454F5C"/>
<path d="M168.905 367.948L169.414 368.277L169.924 368.605C170.089 368.724 170.269 368.829 170.449 368.933L170.959 369.262L171.799 369.769L172.639 370.276L173.479 370.784L174.318 371.306L175.578 372.082L176.853 372.873L178.113 373.649L179.387 374.44H179.477H179.567H179.672H179.762C180.233 374.712 180.737 374.922 181.262 375.067C181.786 375.198 182.327 375.249 182.867 375.216C183.411 375.181 183.946 375.065 184.456 374.873C184.99 374.647 185.494 374.356 185.956 374.007L188.955 371.754L191.955 369.485L194.954 367.202L197.878 364.889C198.292 364.569 198.651 364.187 198.943 363.755C199.165 363.421 199.295 363.035 199.318 362.635C199.316 362.262 199.201 361.898 198.988 361.591C198.714 361.217 198.367 360.902 197.968 360.665L196.604 359.8L195.239 358.949L193.859 358.098L192.48 357.248L191.085 356.412L189.69 355.576L188.31 354.741L186.901 353.905C186.435 353.627 185.929 353.42 185.401 353.293C184.875 353.176 184.334 353.141 183.796 353.189C183.246 353.234 182.706 353.36 182.192 353.562C181.66 353.799 181.157 354.094 180.692 354.442L177.693 356.651L174.693 358.875L171.784 361.113L168.905 363.367C168.474 363.688 168.104 364.082 167.81 364.531C167.577 364.871 167.442 365.269 167.42 365.68C167.42 366.067 167.535 366.446 167.75 366.769C168.016 367.262 168.416 367.671 168.905 367.948V367.948Z" fill="#454F5C"/>
<path d="M311.286 346.992L310.011 346.231L308.751 345.47L307.447 344.738L306.172 343.977L304.672 343.112L303.173 342.231L301.673 341.366L300.173 340.5C299.668 340.207 299.122 339.991 298.554 339.858C298.015 339.724 297.458 339.679 296.904 339.724C296.343 339.773 295.792 339.904 295.269 340.112C294.692 340.351 294.148 340.662 293.65 341.037L290.95 343.246C289.975 343.977 289.016 344.738 288.056 345.47L285.191 347.708L282.342 349.962C281.916 350.282 281.546 350.67 281.247 351.111C281.029 351.444 280.909 351.832 280.902 352.23C280.925 352.616 281.066 352.986 281.307 353.29C281.619 353.683 282 354.017 282.432 354.275L282.957 354.603C283.137 354.708 283.317 354.812 283.482 354.931L284.022 355.245L284.562 355.573L285.371 356.051L286.181 356.543L286.991 357.021L287.801 357.498L288.731 358.065L289.661 358.618L290.575 359.185C290.89 359.364 291.205 359.543 291.505 359.737L291.97 360.02L292.435 360.289L292.9 360.573L293.38 360.841C293.928 361.164 294.519 361.41 295.134 361.573C296.273 361.86 297.477 361.744 298.539 361.244C299.165 360.952 299.754 360.587 300.293 360.155L302.948 358.021L305.692 355.901L308.436 353.767L311.151 351.618C311.629 351.262 312.049 350.834 312.396 350.35C312.651 350.002 312.797 349.586 312.816 349.156C312.82 348.752 312.688 348.357 312.441 348.037C312.128 347.617 311.736 347.262 311.286 346.992V346.992Z" fill="#454F5C"/>
<path d="M285.58 439.792L286.899 440.627L288.204 441.448L289.524 442.269L290.858 443.075L292.358 444L293.858 444.896L295.357 445.806L296.857 446.702C297.374 447.016 297.935 447.253 298.522 447.403C299.071 447.537 299.638 447.582 300.201 447.537C300.781 447.485 301.349 447.339 301.881 447.104C302.483 446.847 303.048 446.511 303.561 446.105L306.56 443.821L309.469 441.523L312.364 439.225L315.228 436.926C315.676 436.576 316.066 436.158 316.383 435.688C316.627 435.341 316.768 434.932 316.788 434.509C316.786 434.112 316.66 433.726 316.428 433.404C316.118 432.99 315.725 432.644 315.273 432.39C314.793 432.076 314.313 431.763 313.773 431.464L312.274 430.539L310.774 429.629C310.294 429.315 309.784 429.017 309.274 428.718L307.91 427.882L306.515 427.047L305.135 426.211L303.741 425.39C303.213 425.075 302.642 424.839 302.046 424.689C301.486 424.558 300.908 424.522 300.336 424.584C299.745 424.653 299.168 424.814 298.627 425.062C298.001 425.343 297.411 425.699 296.872 426.121L295.462 427.226L294.068 428.315L292.673 429.42C292.208 429.793 291.743 430.166 291.263 430.524L289.869 431.628L288.459 432.733L287.049 433.837L285.669 434.956C285.185 435.328 284.76 435.771 284.41 436.27C284.145 436.636 283.994 437.072 283.975 437.523C283.968 437.949 284.105 438.364 284.365 438.702C284.694 439.141 285.107 439.511 285.58 439.792V439.792Z" fill="#454F5C"/>
<path d="M370.628 382.261L370.163 381.963L369.683 381.679L369.218 381.396L368.738 381.112L367.778 380.545L366.818 379.993C366.504 379.799 366.189 379.605 365.859 379.426L364.914 378.859L363.624 378.098L362.349 377.336L361.06 376.575L359.77 375.799H359.68H359.59H359.485H359.395C358.874 375.504 358.313 375.283 357.73 375.143C357.181 375.012 356.615 374.962 356.051 374.993C355.483 375.041 354.926 375.177 354.401 375.396C353.814 375.638 353.264 375.959 352.766 376.351L349.887 378.545L347.038 380.56C346.093 381.306 345.148 382.052 344.218 382.813L341.399 385.037C340.942 385.392 340.542 385.815 340.214 386.291C339.975 386.645 339.84 387.058 339.824 387.485C339.844 387.887 339.991 388.274 340.244 388.589C340.575 389 340.983 389.345 341.444 389.604L342.944 390.514L344.443 391.425L345.943 392.335L347.443 393.23L348.792 394.036L350.142 394.842L351.507 395.648L352.871 396.439C353.382 396.738 353.932 396.964 354.506 397.111C355.051 397.239 355.613 397.28 356.171 397.23C356.745 397.165 357.306 397.014 357.835 396.782C358.425 396.519 358.979 396.183 359.485 395.782L362.319 393.589L365.124 391.38L367.913 389.171L370.688 386.947C371.162 386.586 371.577 386.153 371.917 385.664C372.165 385.303 372.301 384.877 372.307 384.44C372.292 384.023 372.145 383.621 371.887 383.291C371.534 382.874 371.107 382.525 370.628 382.261V382.261Z" fill="#454F5C"/>
<path d="M168.184 285.88L168.739 286.223L169.309 286.582L169.864 286.925L170.434 287.268L171.199 287.716L171.963 288.164L172.728 288.626L173.478 289.074L174.273 289.552L175.053 290.014L175.833 290.492L176.627 290.969L177.212 291.313L177.812 291.671L178.397 292.014L179.012 292.357C179.481 292.625 179.986 292.826 180.512 292.954C181.004 293.058 181.509 293.093 182.011 293.059C182.527 293 183.032 292.869 183.511 292.671C184.048 292.446 184.553 292.149 185.011 291.79L187.905 289.656C188.88 288.94 189.825 288.164 190.784 287.492L193.634 285.328L196.468 283.149C196.889 282.835 197.258 282.457 197.563 282.03C197.784 281.701 197.914 281.32 197.938 280.926C197.937 280.557 197.822 280.197 197.608 279.896C197.324 279.526 196.973 279.212 196.573 278.97L195.283 278.194C194.864 277.926 194.429 277.672 193.994 277.418L192.719 276.642L191.429 275.866L190.005 275.031L188.505 274.195L187.08 273.359L185.581 272.538C184.697 272.025 183.674 271.801 182.656 271.897C182.143 271.959 181.639 272.084 181.156 272.27C180.624 272.486 180.121 272.767 179.657 273.105L176.657 275.254L173.748 277.433L170.854 279.627L167.959 281.836C167.56 282.144 167.211 282.512 166.925 282.925C166.702 283.235 166.577 283.604 166.565 283.985C166.56 284.343 166.671 284.693 166.88 284.985C167.237 285.382 167.684 285.689 168.184 285.88V285.88Z" fill="#454F5C"/>
<path d="M346.828 468.606L348.222 467.472L349.617 466.353L351.117 465.189L352.617 464.04L354.116 462.876L355.616 461.711C356.065 461.347 356.459 460.92 356.786 460.443C357.033 460.085 357.178 459.667 357.206 459.234C357.22 458.831 357.104 458.433 356.876 458.1C356.571 457.688 356.189 457.338 355.751 457.07L354.161 456.055L352.542 455.055C352.017 454.712 351.477 454.384 350.937 454.055L349.317 453.056L347.983 452.25C347.533 451.981 347.098 451.698 346.648 451.444L345.313 450.638L343.963 449.847C343.454 449.545 342.904 449.319 342.329 449.175C341.794 449.046 341.242 449.006 340.694 449.056C340.13 449.114 339.578 449.26 339.059 449.489C338.48 449.736 337.936 450.057 337.44 450.444L334.44 452.772L331.441 455.115L328.442 457.473L325.442 459.831C325.018 460.171 324.649 460.573 324.348 461.025C324.117 461.377 323.988 461.784 323.973 462.204C323.973 462.598 324.093 462.983 324.318 463.308C324.607 463.705 324.975 464.04 325.397 464.293L326.897 465.219L328.397 466.144C328.892 466.442 329.387 466.741 329.896 467.054L331.396 467.965L332.896 468.875L334.395 469.77L335.895 470.666L337.395 471.561C337.907 471.878 338.47 472.105 339.059 472.233C339.614 472.367 340.189 472.397 340.754 472.322C341.345 472.259 341.922 472.103 342.464 471.86C343.075 471.59 343.65 471.244 344.173 470.83L345.598 469.711L346.828 468.606Z" fill="#454F5C"/>
<path d="M425.921 427.731L428.71 425.463L431.5 423.209C431.972 422.838 432.382 422.395 432.714 421.896C432.961 421.523 433.096 421.089 433.104 420.643C433.087 420.214 432.935 419.801 432.669 419.464C432.323 419.024 431.895 418.654 431.41 418.374L430.885 418.046L430.36 417.732L429.835 417.404L429.295 417.091L428.41 416.568L427.525 416.046L426.641 415.524L425.741 415.016L424.811 414.449L423.866 413.882L422.921 413.39L421.977 412.822L421.407 412.494L420.837 412.166C420.657 412.046 420.462 411.942 420.267 411.838L419.682 411.509C419.215 411.233 418.71 411.027 418.182 410.897C417.652 410.776 417.106 410.736 416.563 410.778C416.018 410.819 415.482 410.939 414.973 411.136C414.436 411.363 413.932 411.659 413.473 412.017L410.474 414.33C409.469 415.106 408.495 415.822 407.475 416.673L404.55 419.031L401.641 421.419C401.203 421.756 400.832 422.171 400.546 422.642C400.32 422.987 400.209 423.395 400.231 423.806C400.265 424.212 400.422 424.597 400.681 424.911C401.027 425.31 401.437 425.648 401.896 425.911L403.516 426.911L405.15 427.896L406.785 428.881L408.419 429.866L409.709 430.642L410.999 431.403L412.274 432.164L413.578 432.925C414.094 433.236 414.656 433.463 415.243 433.597C415.797 433.733 416.37 433.773 416.938 433.716C417.527 433.664 418.104 433.518 418.647 433.283C419.243 433.023 419.803 432.687 420.312 432.283L423.131 430.045L425.921 427.731Z" fill="#454F5C"/>
<path d="M215.484 290.12L214.15 289.299C213.7 289.045 213.265 288.762 212.815 288.493L211.48 287.687L210.13 286.896L208.781 286.09L207.431 285.299L206.081 284.508L204.732 283.717C204.263 283.444 203.758 283.238 203.232 283.105C202.706 282.989 202.164 282.953 201.627 283.001C201.064 283.048 200.513 283.184 199.993 283.404C199.422 283.64 198.883 283.946 198.388 284.314L195.584 286.389L192.794 288.493C191.864 289.194 190.95 289.881 190.035 290.597L187.275 292.702C186.797 293.057 186.373 293.479 186.016 293.955C185.766 294.291 185.616 294.689 185.581 295.104C185.57 295.498 185.698 295.883 185.941 296.194C186.273 296.589 186.668 296.926 187.11 297.194L188.43 297.985L189.735 298.791L191.054 299.581L192.374 300.372L193.694 301.163L195.029 301.954L196.348 302.73L197.683 303.521C198.149 303.803 198.654 304.014 199.183 304.148C199.703 304.27 200.24 304.31 200.772 304.268C201.33 304.206 201.875 304.065 202.392 303.85C202.977 303.607 203.531 303.297 204.042 302.924L205.436 301.91L206.801 300.865L208.166 299.82L209.516 298.791L211.015 297.671L212.515 296.567L214.015 295.462L215.514 294.343C215.942 294.014 216.316 293.621 216.624 293.179C216.849 292.852 216.984 292.471 217.014 292.075C217.026 291.706 216.915 291.344 216.699 291.045C216.365 290.654 215.951 290.338 215.484 290.12V290.12Z" fill="#454F5C"/>
<path d="M272.458 323.952L271.198 323.176L269.954 322.355L268.679 321.594L267.419 320.833L265.919 319.982L264.495 319.147L262.995 318.311L261.57 317.475C261.06 317.176 260.51 316.95 259.936 316.804C259.39 316.682 258.829 316.642 258.271 316.684C257.697 316.749 257.135 316.9 256.606 317.132C256.004 317.392 255.435 317.723 254.912 318.117L252.107 320.236L249.408 322.355L246.634 324.489L243.874 326.638C243.409 326.989 243 327.406 242.659 327.877C242.412 328.222 242.276 328.633 242.27 329.056C242.279 329.457 242.427 329.842 242.689 330.146C243.026 330.561 243.438 330.911 243.904 331.175L245.224 331.981L246.544 332.772C246.979 333.041 247.413 333.309 247.863 333.563L249.183 334.369L250.518 335.16L251.837 335.951L253.172 336.742L254.507 337.518C255.038 337.842 255.614 338.089 256.217 338.249C256.766 338.383 257.333 338.428 257.896 338.383C258.485 338.319 259.061 338.168 259.606 337.936C260.238 337.654 260.836 337.304 261.39 336.891L262.725 335.876C263.175 335.548 263.61 335.205 264.045 334.861L265.365 333.847L266.684 332.817L268.094 331.742L269.519 330.653L271.018 329.563L272.413 328.459C272.884 328.099 273.298 327.672 273.643 327.191C273.9 326.842 274.051 326.428 274.078 325.997C274.089 325.6 273.956 325.213 273.703 324.907C273.355 324.51 272.932 324.186 272.458 323.952V323.952Z" fill="#454F5C"/>
<path d="M331.051 358.767L329.551 357.872L328.051 356.991L326.552 356.111L325.052 355.23L323.702 354.424L322.443 353.693L321.093 352.902L319.743 352.126C319.243 351.82 318.696 351.599 318.123 351.469C317.578 351.345 317.016 351.31 316.459 351.365C315.885 351.412 315.322 351.553 314.794 351.783C314.212 352.025 313.667 352.346 313.175 352.738L310.31 354.917L307.461 357.126L304.626 359.349L301.822 361.573C301.381 361.904 301.001 362.308 300.697 362.767C300.468 363.108 300.338 363.506 300.322 363.916C300.329 364.302 300.455 364.677 300.682 364.991C300.975 365.386 301.348 365.717 301.777 365.961L302.332 366.319L302.902 366.677L303.472 367.02L304.041 367.363L304.881 367.856L305.721 368.348L306.546 368.856L307.401 369.348L308.301 369.886L309.2 370.438L310.1 370.99L311.015 371.527L311.555 371.855L312.11 372.184L312.665 372.512L313.22 372.826C313.691 373.086 314.195 373.281 314.719 373.408C315.236 373.516 315.767 373.552 316.294 373.512C316.862 373.459 317.419 373.318 317.944 373.094C318.479 372.871 318.983 372.58 319.443 372.229L322.368 369.975L325.262 367.722L328.156 365.453L331.021 363.185C331.454 362.845 331.833 362.443 332.145 361.991C332.375 361.65 332.504 361.252 332.52 360.842C332.516 360.455 332.39 360.079 332.16 359.767C331.861 359.364 331.484 359.024 331.051 358.767Z" fill="#454F5C"/>
<path d="M207.297 391.604L208.632 392.44L209.982 393.29L211.331 394.126L212.681 394.962L214.046 395.798L215.41 396.619L216.775 397.454L218.155 398.275C218.666 398.588 219.222 398.819 219.804 398.962C220.353 399.098 220.922 399.138 221.484 399.081C222.075 399.018 222.652 398.862 223.194 398.618C223.817 398.354 224.402 398.008 224.933 397.589L226.298 396.559L227.648 395.514L228.983 394.469L230.332 393.41L231.832 392.305L233.332 391.186L234.831 390.082L236.256 388.963C236.759 388.581 237.204 388.129 237.576 387.619C237.848 387.26 238.01 386.83 238.041 386.381C238.049 385.962 237.905 385.554 237.636 385.232C237.289 384.788 236.862 384.413 236.376 384.127L235.116 383.351L233.856 382.56L232.597 381.784L231.337 381.008L229.927 380.157L228.518 379.307L227.093 378.456L225.683 377.605C225.159 377.292 224.594 377.051 224.004 376.889C223.46 376.756 222.897 376.71 222.339 376.755C221.76 376.802 221.192 376.943 220.659 377.173C220.054 377.438 219.484 377.779 218.965 378.188L216.115 380.351L213.281 382.515L210.447 384.709L207.642 386.903C207.153 387.269 206.723 387.706 206.367 388.201C206.096 388.55 205.934 388.971 205.902 389.41C205.898 389.819 206.03 390.218 206.277 390.544C206.553 390.954 206.898 391.313 207.297 391.604Z" fill="#454F5C"/>
<path d="M265.605 427.478L267.104 428.418C267.599 428.731 268.094 429.045 268.604 429.343L270.104 430.283L271.603 431.209L272.983 432.044L274.363 432.895L275.742 433.731L277.137 434.552C277.599 434.842 278.105 435.054 278.637 435.178C279.162 435.3 279.704 435.34 280.241 435.298C280.792 435.254 281.333 435.128 281.846 434.925C282.383 434.698 282.887 434.402 283.346 434.044C284.366 433.283 285.37 432.552 286.345 431.731L289.345 429.373L292.344 427.03L295.343 424.657C295.766 424.332 296.131 423.938 296.423 423.493C296.646 423.143 296.775 422.743 296.798 422.329C296.792 421.945 296.672 421.571 296.453 421.254C296.168 420.862 295.806 420.532 295.388 420.284L293.889 419.374L292.389 418.464L290.889 417.553L289.39 416.658L287.89 415.777L286.39 414.897L284.891 414.016L283.391 413.136C282.927 412.86 282.42 412.664 281.891 412.554C281.373 412.447 280.842 412.422 280.316 412.479C279.769 412.541 279.234 412.682 278.727 412.897C278.191 413.124 277.686 413.42 277.227 413.778L275.727 414.897L274.228 416.016L272.803 417.15L271.303 418.3L269.804 419.464L268.304 420.628L266.804 421.792L265.305 422.986C264.863 423.326 264.478 423.734 264.165 424.194C263.927 424.545 263.787 424.952 263.76 425.373C263.753 425.769 263.874 426.156 264.105 426.478C264.511 426.932 265.028 427.277 265.605 427.478V427.478Z" fill="#454F5C"/>
<path d="M253.456 312.622L252.181 311.846L250.892 311.07L249.602 310.294L248.312 309.533L246.813 308.682L245.313 307.831L243.813 306.981L242.314 306.13C241.846 305.854 241.341 305.648 240.814 305.518C240.323 305.404 239.817 305.364 239.314 305.399C238.769 305.443 238.233 305.569 237.725 305.772C237.19 306.003 236.687 306.299 236.225 306.652L233.331 308.831C232.356 309.547 231.396 310.324 230.436 311.01L227.572 313.219L224.722 315.427C224.294 315.761 223.915 316.153 223.598 316.592C223.369 316.916 223.239 317.3 223.223 317.696C223.227 318.074 223.353 318.44 223.583 318.741C223.872 319.124 224.234 319.448 224.647 319.696L225.157 320.009L225.682 320.337L226.207 320.651L226.717 320.964C227.002 321.128 227.287 321.293 227.557 321.472L228.412 321.964L229.251 322.457L230.091 322.964L230.871 323.442L231.651 323.904L232.431 324.382L233.226 324.859L233.795 325.203C233.99 325.322 234.185 325.441 234.395 325.546L234.98 325.889C235.175 326.009 235.37 326.128 235.58 326.232C236.05 326.506 236.554 326.717 237.08 326.859C237.595 326.98 238.126 327.021 238.654 326.979C239.199 326.939 239.735 326.819 240.244 326.62C240.778 326.389 241.282 326.093 241.744 325.74L244.668 323.546L247.562 321.352L250.427 319.129C251.387 318.397 252.331 317.636 253.276 316.905C253.702 316.584 254.072 316.196 254.371 315.756C254.595 315.424 254.72 315.036 254.731 314.637C254.729 314.254 254.603 313.882 254.371 313.577C254.126 313.207 253.816 312.883 253.456 312.622V312.622Z" fill="#454F5C"/>
<path d="M157.313 335.935L155.948 335.1L154.569 334.249L153.339 333.503L152.109 332.772C151.704 332.518 151.299 332.264 150.879 332.025L149.635 331.279C149.126 330.973 148.575 330.742 148 330.593C147.466 330.459 146.914 330.413 146.365 330.458C145.798 330.514 145.241 330.655 144.716 330.876C144.112 331.14 143.543 331.475 143.021 331.876L140.172 333.995L137.337 336.129L134.518 338.264L131.714 340.413C131.243 340.772 130.824 341.194 130.469 341.666C130.214 342.009 130.067 342.419 130.049 342.845C130.044 343.245 130.177 343.634 130.424 343.95C130.742 344.37 131.139 344.725 131.594 344.994L132.043 345.278L132.493 345.561L132.943 345.845L133.393 346.128L133.723 346.322L134.038 346.531L134.368 346.725L134.698 346.919L135.208 347.233L135.733 347.561L136.243 347.875L136.768 348.188L137.472 348.636L138.192 349.068L138.897 349.516L139.617 349.964L140.157 350.292L140.697 350.621L141.237 350.949L141.776 351.262C142.326 351.604 142.922 351.866 143.546 352.038C144.108 352.189 144.691 352.245 145.271 352.202C145.871 352.138 146.458 351.982 147.01 351.74C147.654 351.446 148.263 351.08 148.825 350.65L151.584 348.576L154.314 346.502L157.043 344.427L159.758 342.353C160.269 341.976 160.723 341.529 161.107 341.024C161.39 340.678 161.567 340.259 161.617 339.816C161.627 339.413 161.5 339.019 161.257 338.696C160.917 338.266 160.5 337.902 160.028 337.622L158.663 336.786L157.313 335.935Z" fill="#454F5C"/>
<path d="M390.663 394.154L390.138 393.826L389.613 393.513L389.088 393.199L388.563 392.886L387.738 392.393L386.914 391.916C386.644 391.752 386.374 391.587 386.089 391.438L385.279 390.946L384.334 390.394L383.419 389.841L382.49 389.289L381.56 388.737L381.095 388.453L380.63 388.185L380.165 387.901L379.685 387.633C379.102 387.291 378.477 387.025 377.826 386.842C377.24 386.684 376.631 386.628 376.026 386.678C375.415 386.735 374.817 386.891 374.256 387.14C373.609 387.434 373 387.805 372.442 388.245L369.727 390.379L366.998 392.498L364.298 394.647L361.614 396.796C361.101 397.182 360.647 397.639 360.264 398.154C360.002 398.523 359.846 398.957 359.814 399.408C359.826 399.84 359.985 400.256 360.264 400.587C360.634 401.03 361.081 401.404 361.584 401.691L363.084 402.586L364.583 403.497L366.083 404.392L367.583 405.288C368.018 405.541 368.453 405.795 368.872 406.064L370.177 406.825L371.482 407.601L372.787 408.377C373.328 408.693 373.907 408.938 374.511 409.108C375.074 409.253 375.657 409.304 376.236 409.257C376.815 409.232 377.387 409.116 377.931 408.914C378.54 408.649 379.11 408.302 379.625 407.884L382.46 405.676L385.279 403.452L388.083 401.228L390.858 398.975C391.333 398.612 391.743 398.174 392.073 397.676C392.323 397.318 392.454 396.89 392.447 396.453C392.421 396.032 392.264 395.631 391.998 395.304C391.628 394.842 391.175 394.452 390.663 394.154V394.154Z" fill="#454F5C"/>
<path d="M150.083 356.366L151.388 357.202L152.708 358.023L154.027 358.843L155.347 359.649L156.682 360.47L158.002 361.291L159.351 362.097L160.686 362.903C161.202 363.222 161.763 363.463 162.351 363.619C162.905 363.75 163.478 363.785 164.045 363.723C164.643 363.661 165.226 363.499 165.77 363.246C166.402 362.959 167 362.604 167.554 362.186L168.949 361.127C169.429 360.783 169.879 360.425 170.344 360.067L171.739 359.008L173.103 357.948L174.453 356.918L175.788 355.903L177.137 354.874L178.472 353.844C178.98 353.459 179.439 353.013 179.837 352.516C180.128 352.171 180.315 351.752 180.377 351.307C180.398 350.9 180.276 350.499 180.032 350.173C179.702 349.748 179.295 349.388 178.832 349.113L177.332 348.218L175.908 347.337L174.408 346.457L172.908 345.576L171.694 344.83L170.464 344.099L169.234 343.352L168.004 342.636C167.541 342.343 167.035 342.122 166.505 341.979C165.981 341.845 165.439 341.8 164.9 341.845C164.337 341.894 163.786 342.03 163.265 342.248C162.684 342.493 162.135 342.809 161.631 343.188L158.736 345.337L155.977 347.516L153.128 349.71L150.278 351.904C149.823 352.249 149.423 352.662 149.093 353.128C148.835 353.464 148.683 353.869 148.658 354.292C148.639 354.679 148.75 355.063 148.973 355.381C149.27 355.783 149.648 356.119 150.083 356.366V356.366Z" fill="#454F5C"/>
<path d="M309.666 476.234L311.075 475.115L312.485 473.996L313.88 472.862L314.57 472.324L315.245 471.787L315.934 471.235L316.609 470.698L317.344 470.116L318.079 469.548L318.799 468.966L319.519 468.384C319.978 468.009 320.377 467.566 320.703 467.071C320.958 466.7 321.104 466.266 321.123 465.817C321.142 465.397 321.021 464.983 320.778 464.638C320.484 464.208 320.094 463.85 319.639 463.594L318.139 462.639L316.639 461.698L315.14 460.773L313.64 459.833L312.275 458.997L310.895 458.147L309.516 457.311L308.121 456.49C307.612 456.175 307.055 455.943 306.471 455.804C305.917 455.67 305.345 455.624 304.777 455.669C304.187 455.721 303.61 455.867 303.067 456.102C302.468 456.359 301.904 456.69 301.387 457.087L298.388 459.37L295.464 461.669L292.569 463.982L289.69 466.31C289.222 466.68 288.813 467.118 288.475 467.608C288.225 467.969 288.084 468.394 288.07 468.832C288.084 469.254 288.231 469.662 288.49 469.996C288.832 470.419 289.243 470.782 289.705 471.071L291.1 471.951L292.494 472.832L293.904 473.712L295.314 474.593L296.723 475.473L298.223 476.354L299.648 477.219L301.073 478.085C301.626 478.426 302.228 478.682 302.857 478.846C303.434 478.995 304.034 479.04 304.627 478.98C305.243 478.905 305.844 478.739 306.411 478.488C307.061 478.178 307.675 477.797 308.241 477.354L309.666 476.234Z" fill="#454F5C"/>
<path d="M346.437 492.62L347.322 493.172L348.192 493.724L349.077 494.276L349.601 494.605L350.141 494.918L350.681 495.246L351.221 495.56C351.837 495.924 352.505 496.196 353.201 496.366C353.84 496.485 354.496 496.485 355.135 496.366C355.833 496.245 356.506 496.013 357.13 495.679C357.895 495.257 358.614 494.757 359.274 494.187C359.933 493.679 360.537 493.104 361.074 492.47C361.439 492.043 361.687 491.529 361.794 490.978C361.832 490.746 361.823 490.508 361.766 490.28C361.71 490.052 361.607 489.837 361.464 489.65C361.088 489.147 360.614 488.726 360.069 488.411L358.675 487.516L357.265 486.635L355.87 485.755L354.46 484.889L353.051 484.024L351.626 483.158L350.201 482.307C349.736 482.009 349.257 481.725 348.777 481.442C348.188 481.09 347.552 480.823 346.887 480.651C346.281 480.493 345.649 480.452 345.027 480.531C344.369 480.617 343.73 480.814 343.138 481.113C342.43 481.451 341.766 481.872 341.158 482.367C340.434 482.912 339.766 483.527 339.164 484.203C338.761 484.626 338.463 485.137 338.294 485.695C338.202 486.17 338.298 486.662 338.564 487.068C338.924 487.599 339.395 488.047 339.944 488.381L340.453 488.71L340.963 489.038L341.473 489.366L341.998 489.695L342.883 490.232L343.783 490.784L344.683 491.321L345.567 491.873L346.437 492.62Z" fill="#454F5C"/>
<path d="M349.991 501.771L350.546 501.278C351.007 500.898 351.406 500.45 351.731 499.95C351.977 499.577 352.113 499.142 352.121 498.696C352.123 498.272 351.986 497.858 351.731 497.517C351.402 497.078 350.989 496.708 350.516 496.428L349.271 495.637L348.027 494.861L346.782 494.085L345.537 493.309L343.857 492.279L342.178 491.234L340.483 490.205L338.804 489.16C338.43 488.933 338.033 488.748 337.619 488.608C336.757 488.352 335.847 488.306 334.964 488.473C334.449 488.567 333.946 488.717 333.465 488.921L332.955 489.175L332.46 489.488L331.995 489.816L331.545 490.16C330.715 490.771 329.947 491.461 329.251 492.219C328.81 492.65 328.534 493.22 328.471 493.831C328.48 494.114 328.548 494.393 328.669 494.649C328.79 494.906 328.962 495.135 329.176 495.323C329.865 495.955 330.625 496.506 331.44 496.965L332.565 497.652L333.69 498.353L334.814 499.054L335.939 499.756L336.854 500.338L337.769 500.905L338.684 501.487L339.598 502.054C339.808 502.188 340.018 502.323 340.243 502.442L340.888 502.845L341.548 503.233L342.208 503.621C342.67 503.901 343.177 504.098 343.707 504.203C344.198 504.32 344.705 504.355 345.207 504.308C345.721 504.257 346.226 504.136 346.707 503.949C347.236 503.745 347.739 503.48 348.206 503.158C348.425 503.026 348.635 502.882 348.836 502.726L349.436 502.263C349.616 502.099 349.796 501.935 349.991 501.771Z" fill="#454F5C"/>
<path d="M371.047 509.14L370.432 508.737L369.802 508.334L369.172 507.946L368.542 507.558L367.702 507.036L366.848 506.513L366.008 505.991L365.153 505.469L364.208 504.887L363.263 504.29L362.304 503.693C362.004 503.484 361.674 503.29 361.359 503.096L360.789 502.738L360.219 502.394L359.634 502.051L359.049 501.708C358.541 501.408 357.99 501.187 357.415 501.051C356.869 500.927 356.307 500.892 355.75 500.947C355.171 501.002 354.604 501.148 354.07 501.379C353.485 501.618 352.935 501.934 352.436 502.32L351.881 502.738L351.341 503.17L350.801 503.603L350.291 504.051C349.879 504.394 349.52 504.796 349.226 505.245C348.988 505.595 348.848 506.002 348.821 506.424C348.793 506.806 348.887 507.188 349.091 507.513C349.347 507.904 349.684 508.235 350.081 508.483L351.581 509.483L353.08 510.468L354.58 511.453L356.08 512.438L357.655 513.423L359.244 514.393L360.834 515.348L362.439 516.318C362.906 516.587 363.411 516.784 363.938 516.9C364.431 517.005 364.936 517.035 365.438 516.99C365.954 516.936 366.46 516.805 366.938 516.602C367.471 516.393 367.975 516.117 368.437 515.781L369.112 515.289L369.772 514.781L370.402 514.259L371.002 513.722C371.408 513.367 371.752 512.949 372.021 512.483C372.221 512.116 372.329 511.706 372.336 511.289C372.316 510.884 372.175 510.495 371.931 510.17C371.696 509.78 371.397 509.432 371.047 509.14V509.14Z" fill="#454F5C"/>
<path d="M329.266 489.291L329.746 488.888L330.226 488.5C330.644 488.147 331.008 487.734 331.305 487.276C331.544 486.921 331.684 486.509 331.71 486.082C331.724 485.71 331.631 485.343 331.44 485.023C331.169 484.621 330.817 484.281 330.406 484.023L328.906 483.097L327.406 482.172L325.907 481.247L324.407 480.336L322.832 479.366L321.243 478.396L319.653 477.441L318.048 476.486C317.614 476.222 317.137 476.035 316.639 475.934C316.141 475.861 315.636 475.861 315.139 475.934C314.625 475.986 314.121 476.106 313.639 476.292C313.109 476.488 312.605 476.749 312.14 477.068L311.825 477.277L311.525 477.516L311.225 477.755L310.94 477.978C310.191 478.549 309.499 479.189 308.87 479.889C308.471 480.293 308.218 480.818 308.15 481.381C308.159 481.644 308.22 481.902 308.331 482.14C308.442 482.379 308.6 482.593 308.795 482.769C309.39 483.353 310.061 483.855 310.79 484.261L311.99 485.023L313.204 485.769L314.419 486.515L315.619 487.276L316.459 487.798L317.298 488.321L318.138 488.843L318.978 489.38L319.548 489.724L320.118 490.067L320.673 490.41L321.258 490.753C321.81 491.089 322.405 491.35 323.027 491.529C323.584 491.675 324.163 491.726 324.737 491.679C325.324 491.621 325.897 491.464 326.431 491.216C327.057 490.925 327.65 490.57 328.201 490.156L328.696 489.768L329.266 489.291Z" fill="#454F5C"/>
<path d="M506.618 424.138L506.409 422.646L307.791 583.779C306.408 584.883 304.859 585.764 303.202 586.39C301.531 587.024 299.779 587.426 297.998 587.584C296.269 587.736 294.528 587.646 292.824 587.316C291.225 586.995 289.7 586.382 288.325 585.51L3.58083 401.946C3.18545 401.691 2.80952 401.406 2.45607 401.096C2.13755 400.8 1.84179 400.48 1.57127 400.14C1.32271 399.809 1.10676 399.454 0.926404 399.081C0.749747 398.729 0.613894 398.359 0.521484 397.977C1.64624 402.349 1.31632 400.723 2.45607 405.095C2.55808 405.481 2.69876 405.856 2.87599 406.215C3.05087 406.586 3.26717 406.936 3.52084 407.259C3.78326 407.606 4.07966 407.926 4.40566 408.214C4.74969 408.534 5.121 408.824 5.51542 409.08L289.555 592.823C290.934 593.688 292.458 594.3 294.054 594.628C295.757 594.958 297.499 595.048 299.228 594.897C301.005 594.745 302.752 594.343 304.417 593.703C306.043 593.076 307.561 592.2 308.916 591.106L498.745 443.599C501.594 441.274 503.808 438.272 505.184 434.871C506.56 431.47 507.054 427.779 506.618 424.138V424.138Z" fill="url(#paint2_linear_686_36080)"/>
<path d="M12.6543 407.84L72.9114 446.493L133.004 485.414L72.7315 446.776L12.6543 407.84Z" fill="#8599BA"/>
<g style="mix-blend-mode:overlay" opacity="0.3">
<path d="M489.537 143.821L527.899 234.513L520.401 300.551L443.737 119.391L489.537 143.821ZM276.883 288.448L363.399 339.04L221.035 2.56641C220.432 2.71439 219.863 2.97248 219.355 3.32752C218.419 4.01266 217.671 4.92102 217.18 5.96905C216.592 7.27436 216.247 8.67498 216.161 10.103L208.107 125.853L276.883 288.448Z" fill="white"/>
</g>
<defs>
<linearGradient id="paint0_linear_686_36080" x1="485.728" y1="139.253" x2="223.999" y2="297.933" gradientUnits="userSpaceOnUse">
<stop stop-color="#293445"/>
<stop offset="1" stop-color="#454F61"/>
</linearGradient>
<linearGradient id="paint1_linear_686_36080" x1="470.475" y1="427.178" x2="12.8761" y2="402.479" gradientUnits="userSpaceOnUse">
<stop offset="0.01" stop-color="#DCE5ED"/>
<stop offset="0.16" stop-color="#E1EAF1"/>
<stop offset="0.34" stop-color="#F1F8FE"/>
<stop offset="0.36" stop-color="#F2F9FF"/>
<stop offset="0.73" stop-color="#F2F9FF"/>
<stop offset="0.84" stop-color="#EDF4FB"/>
<stop offset="0.99" stop-color="#DDE6EE"/>
<stop offset="1" stop-color="#DCE5ED"/>
</linearGradient>
<linearGradient id="paint2_linear_686_36080" x1="-17.7746" y1="490.385" x2="530.906" y2="510.73" gradientUnits="userSpaceOnUse">
<stop offset="0.01" stop-color="#B6C4D1"/>
<stop offset="0.12" stop-color="#BBC9D5"/>
<stop offset="0.26" stop-color="#CBD6E0"/>
<stop offset="0.37" stop-color="#DCE5ED"/>
<stop offset="0.66" stop-color="#DCE5ED"/>
<stop offset="1" stop-color="#B6C4D1"/>
</linearGradient>
</defs>
</svg>
