<svg width="245" height="54" viewBox="0 0 245 54" fill="none" xmlns="http://www.w3.org/2000/svg">
<path d="M102.16 40.252C100.408 40.252 98.824 39.952 97.408 39.352C96.016 38.752 94.912 37.888 94.096 36.76C93.28 35.632 92.86 34.3 92.836 32.764H98.236C98.308 33.796 98.668 34.612 99.316 35.212C99.988 35.812 100.9 36.112 102.052 36.112C103.228 36.112 104.152 35.836 104.824 35.284C105.496 34.708 105.832 33.964 105.832 33.052C105.832 32.308 105.604 31.696 105.148 31.216C104.692 30.736 104.116 30.364 103.42 30.1C102.748 29.812 101.812 29.5 100.612 29.164C98.98 28.684 97.648 28.216 96.616 27.76C95.608 27.28 94.732 26.572 93.988 25.636C93.268 24.676 92.908 23.404 92.908 21.82C92.908 20.332 93.28 19.036 94.024 17.932C94.768 16.828 95.812 15.988 97.156 15.412C98.5 14.812 100.036 14.512 101.764 14.512C104.356 14.512 106.456 15.148 108.064 16.42C109.696 17.668 110.596 19.42 110.764 21.676H105.22C105.172 20.812 104.8 20.104 104.104 19.552C103.432 18.976 102.532 18.688 101.404 18.688C100.42 18.688 99.628 18.94 99.028 19.444C98.452 19.948 98.164 20.68 98.164 21.64C98.164 22.312 98.38 22.876 98.812 23.332C99.268 23.764 99.82 24.124 100.468 24.412C101.14 24.676 102.076 24.988 103.276 25.348C104.908 25.828 106.24 26.308 107.272 26.788C108.304 27.268 109.192 27.988 109.936 28.948C110.68 29.908 111.052 31.168 111.052 32.728C111.052 34.072 110.704 35.32 110.008 36.472C109.312 37.624 108.292 38.548 106.948 39.244C105.604 39.916 104.008 40.252 102.16 40.252ZM133.962 29.596C133.962 30.316 133.914 30.964 133.818 31.54H119.238C119.358 32.98 119.862 34.108 120.75 34.924C121.638 35.74 122.73 36.148 124.026 36.148C125.898 36.148 127.23 35.344 128.022 33.736H133.458C132.882 35.656 131.778 37.24 130.146 38.488C128.514 39.712 126.51 40.324 124.134 40.324C122.214 40.324 120.486 39.904 118.95 39.064C117.438 38.2 116.25 36.988 115.386 35.428C114.546 33.868 114.125 32.068 114.125 30.028C114.125 27.964 114.546 26.152 115.386 24.592C116.226 23.032 117.402 21.832 118.914 20.992C120.426 20.152 122.166 19.732 124.134 19.732C126.03 19.732 127.722 20.14 129.21 20.956C130.722 21.772 131.886 22.936 132.702 24.448C133.542 25.936 133.962 27.652 133.962 29.596ZM128.742 28.156C128.718 26.86 128.25 25.828 127.338 25.06C126.426 24.268 125.31 23.872 123.99 23.872C122.742 23.872 121.686 24.256 120.822 25.024C119.982 25.768 119.466 26.812 119.274 28.156H128.742ZM142.68 23.152C143.328 22.096 144.168 21.268 145.2 20.668C146.256 20.068 147.456 19.768 148.8 19.768V25.06H147.468C145.884 25.06 144.684 25.432 143.868 26.176C143.076 26.92 142.68 28.216 142.68 30.064V40H137.64V20.056H142.68V23.152ZM160.511 35.356L165.551 20.056H170.915L163.535 40H157.415L150.071 20.056H155.471L160.511 35.356ZM176.302 17.68C175.414 17.68 174.67 17.404 174.07 16.852C173.494 16.276 173.206 15.568 173.206 14.728C173.206 13.888 173.494 13.192 174.07 12.64C174.67 12.064 175.414 11.776 176.302 11.776C177.19 11.776 177.922 12.064 178.498 12.64C179.098 13.192 179.398 13.888 179.398 14.728C179.398 15.568 179.098 16.276 178.498 16.852C177.922 17.404 177.19 17.68 176.302 17.68ZM178.786 20.056V40H173.746V20.056H178.786ZM182.469 30.028C182.469 27.964 182.889 26.164 183.729 24.628C184.569 23.068 185.733 21.868 187.221 21.028C188.709 20.164 190.413 19.732 192.333 19.732C194.805 19.732 196.845 20.356 198.453 21.604C200.085 22.828 201.177 24.556 201.729 26.788H196.293C196.005 25.924 195.513 25.252 194.817 24.772C194.145 24.268 193.305 24.016 192.297 24.016C190.857 24.016 189.717 24.544 188.877 25.6C188.037 26.632 187.617 28.108 187.617 30.028C187.617 31.924 188.037 33.4 188.877 34.456C189.717 35.488 190.857 36.004 192.297 36.004C194.337 36.004 195.669 35.092 196.293 33.268H201.729C201.177 35.428 200.085 37.144 198.453 38.416C196.821 39.688 194.781 40.324 192.333 40.324C190.413 40.324 188.709 39.904 187.221 39.064C185.733 38.2 184.569 37 183.729 35.464C182.889 33.904 182.469 32.092 182.469 30.028ZM223.962 29.596C223.962 30.316 223.914 30.964 223.818 31.54H209.238C209.358 32.98 209.862 34.108 210.75 34.924C211.638 35.74 212.73 36.148 214.026 36.148C215.898 36.148 217.23 35.344 218.022 33.736H223.458C222.882 35.656 221.778 37.24 220.146 38.488C218.514 39.712 216.51 40.324 214.134 40.324C212.214 40.324 210.486 39.904 208.95 39.064C207.438 38.2 206.25 36.988 205.386 35.428C204.546 33.868 204.125 32.068 204.125 30.028C204.125 27.964 204.546 26.152 205.386 24.592C206.226 23.032 207.402 21.832 208.914 20.992C210.426 20.152 212.166 19.732 214.134 19.732C216.03 19.732 217.722 20.14 219.21 20.956C220.722 21.772 221.886 22.936 222.702 24.448C223.542 25.936 223.962 27.652 223.962 29.596ZM218.742 28.156C218.718 26.86 218.25 25.828 217.338 25.06C216.426 24.268 215.31 23.872 213.99 23.872C212.742 23.872 211.686 24.256 210.822 25.024C209.982 25.768 209.466 26.812 209.274 28.156H218.742ZM235.272 40.324C233.64 40.324 232.176 40.036 230.88 39.46C229.584 38.86 228.552 38.056 227.784 37.048C227.04 36.04 226.632 34.924 226.56 33.7H231.636C231.732 34.468 232.104 35.104 232.752 35.608C233.424 36.112 234.252 36.364 235.236 36.364C236.196 36.364 236.94 36.172 237.468 35.788C238.02 35.404 238.296 34.912 238.296 34.312C238.296 33.664 237.96 33.184 237.288 32.872C236.64 32.536 235.596 32.176 234.156 31.792C232.668 31.432 231.444 31.06 230.484 30.676C229.548 30.292 228.732 29.704 228.036 28.912C227.364 28.12 227.028 27.052 227.028 25.708C227.028 24.604 227.34 23.596 227.964 22.684C228.612 21.772 229.524 21.052 230.7 20.524C231.9 19.996 233.304 19.732 234.912 19.732C237.288 19.732 239.184 20.332 240.6 21.532C242.016 22.708 242.796 24.304 242.94 26.32H238.116C238.044 25.528 237.708 24.904 237.108 24.448C236.532 23.968 235.752 23.728 234.768 23.728C233.856 23.728 233.148 23.896 232.644 24.232C232.164 24.568 231.924 25.036 231.924 25.636C231.924 26.308 232.26 26.824 232.932 27.184C233.604 27.52 234.648 27.868 236.064 28.228C237.504 28.588 238.692 28.96 239.628 29.344C240.564 29.728 241.368 30.328 242.04 31.144C242.736 31.936 243.096 32.992 243.12 34.312C243.12 35.464 242.796 36.496 242.148 37.408C241.524 38.32 240.612 39.04 239.412 39.568C238.236 40.072 236.856 40.324 235.272 40.324Z" fill="#12062E"/>
<path d="M68.0607 28.0607C68.6465 27.4749 68.6465 26.5251 68.0607 25.9393L58.5147 16.3934C57.9289 15.8076 56.9792 15.8076 56.3934 16.3934C55.8076 16.9792 55.8076 17.9289 56.3934 18.5147L64.8787 27L56.3934 35.4853C55.8076 36.0711 55.8076 37.0208 56.3934 37.6066C56.9792 38.1924 57.9289 38.1924 58.5147 37.6066L68.0607 28.0607ZM-80 28.5H67V25.5H-80V28.5Z" fill="#12062E"/>
</svg>
