<svg width="95" height="161" viewBox="0 0 95 161" fill="none" xmlns="http://www.w3.org/2000/svg">
<path d="M4.6101 31.2075V21.9873M9.2202 26.5974H0H9.2202Z" stroke="#EEEEEE" stroke-miterlimit="10"/>
<path d="M4.6101 9.2202V0M9.2202 4.6101H0H9.2202Z" stroke="#EEEEEE" stroke-miterlimit="10"/>
<path d="M4.6101 31.2075V21.9873M9.2202 26.5974H0H9.2202Z" stroke="#EEEEEE" stroke-width="2" stroke-miterlimit="10"/>
<path d="M4.6101 9.2202V0M9.2202 4.6101H0H9.2202Z" stroke="#EEEEEE" stroke-width="2" stroke-miterlimit="10"/>
<path d="M25.8868 31.2058V21.9856M30.4969 26.5957H21.2767H30.4969Z" stroke="#EEEEEE" stroke-miterlimit="10"/>
<path d="M25.8868 9.2202V0M30.4969 4.6101H21.2767H30.4969Z" stroke="#EEEEEE" stroke-miterlimit="10"/>
<path d="M25.8868 31.2058V21.9856M30.4969 26.5957H21.2767H30.4969Z" stroke="#EEEEEE" stroke-width="2" stroke-miterlimit="10"/>
<path d="M25.8868 9.2202V0M30.4969 4.6101H21.2767H30.4969Z" stroke="#EEEEEE" stroke-width="2" stroke-miterlimit="10"/>
<path d="M47.1661 31.2058V21.9856M51.7762 26.5957H42.556H51.7762Z" stroke="#EEEEEE" stroke-miterlimit="10"/>
<path d="M47.1661 9.2202V0M51.7762 4.6101H42.556H51.7762Z" stroke="#EEEEEE" stroke-miterlimit="10"/>
<path d="M47.1661 31.2058V21.9856M51.7762 26.5957H42.556H51.7762Z" stroke="#EEEEEE" stroke-width="2" stroke-miterlimit="10"/>
<path d="M47.1661 9.2202V0M51.7762 4.6101H42.556H51.7762Z" stroke="#EEEEEE" stroke-width="2" stroke-miterlimit="10"/>
<path d="M68.4424 31.2075V21.9873M73.0525 26.5974H63.8323H73.0525Z" stroke="#EEEEEE" stroke-miterlimit="10"/>
<path d="M68.4423 9.2202V0M73.0524 4.6101H63.8322H73.0524Z" stroke="#EEEEEE" stroke-miterlimit="10"/>
<path d="M68.4424 31.2075V21.9873M73.0525 26.5974H63.8323H73.0525Z" stroke="#EEEEEE" stroke-width="2" stroke-miterlimit="10"/>
<path d="M68.4423 9.2202V0M73.0524 4.6101H63.8322H73.0524Z" stroke="#EEEEEE" stroke-width="2" stroke-miterlimit="10"/>
<path d="M89.7196 31.2075V21.9873M94.3297 26.5974H85.1095H94.3297Z" stroke="#EEEEEE" stroke-miterlimit="10"/>
<path d="M89.7198 9.2202V0M94.3299 4.6101H85.1097H94.3299Z" stroke="#EEEEEE" stroke-miterlimit="10"/>
<path d="M89.7196 31.2075V21.9873M94.3297 26.5974H85.1095H94.3297Z" stroke="#EEEEEE" stroke-width="2" stroke-miterlimit="10"/>
<path d="M89.7198 9.2202V0M94.3299 4.6101H85.1097H94.3299Z" stroke="#EEEEEE" stroke-width="2" stroke-miterlimit="10"/>
<path d="M4.6101 117.736V108.516M9.2202 113.126H0H9.2202Z" stroke="#EEEEEE" stroke-miterlimit="10"/>
<path d="M4.6101 95.7485V86.5283M9.2202 91.1384H0H9.2202Z" stroke="#EEEEEE" stroke-miterlimit="10"/>
<path d="M4.6101 117.736V108.516M9.2202 113.126H0H9.2202Z" stroke="#EEEEEE" stroke-width="2" stroke-miterlimit="10"/>
<path d="M4.6101 95.7485V86.5283M9.2202 91.1384H0H9.2202Z" stroke="#EEEEEE" stroke-width="2" stroke-miterlimit="10"/>
<path d="M25.8868 117.734V108.514M30.4969 113.124H21.2767H30.4969Z" stroke="#EEEEEE" stroke-miterlimit="10"/>
<path d="M25.8868 95.7485V86.5283M30.4969 91.1384H21.2767H30.4969Z" stroke="#EEEEEE" stroke-miterlimit="10"/>
<path d="M25.8868 117.734V108.514M30.4969 113.124H21.2767H30.4969Z" stroke="#EEEEEE" stroke-width="2" stroke-miterlimit="10"/>
<path d="M25.8868 95.7485V86.5283M30.4969 91.1384H21.2767H30.4969Z" stroke="#EEEEEE" stroke-width="2" stroke-miterlimit="10"/>
<path d="M47.1661 117.734V108.514M51.7762 113.124H42.556H51.7762Z" stroke="#EEEEEE" stroke-miterlimit="10"/>
<path d="M47.1661 95.7485V86.5283M51.7762 91.1384H42.556H51.7762Z" stroke="#EEEEEE" stroke-miterlimit="10"/>
<path d="M47.1661 117.734V108.514M51.7762 113.124H42.556H51.7762Z" stroke="#EEEEEE" stroke-width="2" stroke-miterlimit="10"/>
<path d="M47.1661 95.7485V86.5283M51.7762 91.1384H42.556H51.7762Z" stroke="#EEEEEE" stroke-width="2" stroke-miterlimit="10"/>
<path d="M68.4424 117.736V108.516M73.0525 113.126H63.8323H73.0525Z" stroke="#EEEEEE" stroke-miterlimit="10"/>
<path d="M68.4423 95.7485V86.5283M73.0524 91.1384H63.8322H73.0524Z" stroke="#EEEEEE" stroke-miterlimit="10"/>
<path d="M68.4424 117.736V108.516M73.0525 113.126H63.8323H73.0525Z" stroke="#EEEEEE" stroke-width="2" stroke-miterlimit="10"/>
<path d="M68.4423 95.7485V86.5283M73.0524 91.1384H63.8322H73.0524Z" stroke="#EEEEEE" stroke-width="2" stroke-miterlimit="10"/>
<path d="M89.7196 117.736V108.516M94.3297 113.126H85.1095H94.3297Z" stroke="#EEEEEE" stroke-miterlimit="10"/>
<path d="M89.7198 95.7485V86.5283M94.3299 91.1384H85.1097H94.3299Z" stroke="#EEEEEE" stroke-miterlimit="10"/>
<path d="M89.7196 117.736V108.516M94.3297 113.126H85.1095H94.3297Z" stroke="#EEEEEE" stroke-width="2" stroke-miterlimit="10"/>
<path d="M89.7198 95.7485V86.5283M94.3299 91.1384H85.1097H94.3299Z" stroke="#EEEEEE" stroke-width="2" stroke-miterlimit="10"/>
<path d="M4.6101 74.4717V65.2515M9.2202 69.8616H0H9.2202Z" stroke="#EEEEEE" stroke-miterlimit="10"/>
<path d="M4.6101 52.4841V43.2639M9.2202 47.874H0H9.2202Z" stroke="#EEEEEE" stroke-miterlimit="10"/>
<path d="M4.6101 74.4717V65.2515M9.2202 69.8616H0H9.2202Z" stroke="#EEEEEE" stroke-width="2" stroke-miterlimit="10"/>
<path d="M4.6101 52.4841V43.2639M9.2202 47.874H0H9.2202Z" stroke="#EEEEEE" stroke-width="2" stroke-miterlimit="10"/>
<path d="M25.8868 74.47V65.2498M30.4969 69.8599H21.2767H30.4969Z" stroke="#EEEEEE" stroke-miterlimit="10"/>
<path d="M25.8868 52.4841V43.2639M30.4969 47.874H21.2767H30.4969Z" stroke="#EEEEEE" stroke-miterlimit="10"/>
<path d="M25.8868 74.47V65.2498M30.4969 69.8599H21.2767H30.4969Z" stroke="#EEEEEE" stroke-width="2" stroke-miterlimit="10"/>
<path d="M25.8868 52.4841V43.2639M30.4969 47.874H21.2767H30.4969Z" stroke="#EEEEEE" stroke-width="2" stroke-miterlimit="10"/>
<path d="M47.1661 74.47V65.2498M51.7762 69.8599H42.556H51.7762Z" stroke="#EEEEEE" stroke-miterlimit="10"/>
<path d="M47.1661 52.4841V43.2639M51.7762 47.874H42.556H51.7762Z" stroke="#EEEEEE" stroke-miterlimit="10"/>
<path d="M47.1661 74.47V65.2498M51.7762 69.8599H42.556H51.7762Z" stroke="#EEEEEE" stroke-width="2" stroke-miterlimit="10"/>
<path d="M47.1661 52.4841V43.2639M51.7762 47.874H42.556H51.7762Z" stroke="#EEEEEE" stroke-width="2" stroke-miterlimit="10"/>
<path d="M68.4424 74.4717V65.2515M73.0525 69.8616H63.8323H73.0525Z" stroke="#EEEEEE" stroke-miterlimit="10"/>
<path d="M68.4423 52.4841V43.2639M73.0524 47.874H63.8322H73.0524Z" stroke="#EEEEEE" stroke-miterlimit="10"/>
<path d="M68.4424 74.4717V65.2515M73.0525 69.8616H63.8323H73.0525Z" stroke="#EEEEEE" stroke-width="2" stroke-miterlimit="10"/>
<path d="M68.4423 52.4841V43.2639M73.0524 47.874H63.8322H73.0524Z" stroke="#EEEEEE" stroke-width="2" stroke-miterlimit="10"/>
<path d="M89.7196 74.4717V65.2515M94.3297 69.8616H85.1095H94.3297Z" stroke="#EEEEEE" stroke-miterlimit="10"/>
<path d="M89.7198 52.4841V43.2639M94.3299 47.874H85.1097H94.3299Z" stroke="#EEEEEE" stroke-miterlimit="10"/>
<path d="M89.7196 74.4717V65.2515M94.3297 69.8616H85.1095H94.3297Z" stroke="#EEEEEE" stroke-width="2" stroke-miterlimit="10"/>
<path d="M89.7198 52.4841V43.2639M94.3299 47.874H85.1097H94.3299Z" stroke="#EEEEEE" stroke-width="2" stroke-miterlimit="10"/>
<path d="M4.6101 161V151.78M9.2202 156.39H0H9.2202Z" stroke="#EEEEEE" stroke-miterlimit="10"/>
<path d="M4.6101 139.013V129.792M9.2202 134.403H0H9.2202Z" stroke="#EEEEEE" stroke-miterlimit="10"/>
<path d="M4.6101 161V151.78M9.2202 156.39H0H9.2202Z" stroke="#EEEEEE" stroke-width="2" stroke-miterlimit="10"/>
<path d="M4.6101 139.013V129.792M9.2202 134.403H0H9.2202Z" stroke="#EEEEEE" stroke-width="2" stroke-miterlimit="10"/>
<path d="M25.8868 161V151.78M30.4969 156.39H21.2767H30.4969Z" stroke="#EEEEEE" stroke-miterlimit="10"/>
<path d="M25.8868 139.013V129.792M30.4969 134.403H21.2767H30.4969Z" stroke="#EEEEEE" stroke-miterlimit="10"/>
<path d="M25.8868 161V151.78M30.4969 156.39H21.2767H30.4969Z" stroke="#EEEEEE" stroke-width="2" stroke-miterlimit="10"/>
<path d="M25.8868 139.013V129.792M30.4969 134.403H21.2767H30.4969Z" stroke="#EEEEEE" stroke-width="2" stroke-miterlimit="10"/>
<path d="M47.1661 161V151.78M51.7762 156.39H42.556H51.7762Z" stroke="#EEEEEE" stroke-miterlimit="10"/>
<path d="M47.1661 139.013V129.792M51.7762 134.403H42.556H51.7762Z" stroke="#EEEEEE" stroke-miterlimit="10"/>
<path d="M47.1661 161V151.78M51.7762 156.39H42.556H51.7762Z" stroke="#EEEEEE" stroke-width="2" stroke-miterlimit="10"/>
<path d="M47.1661 139.013V129.792M51.7762 134.403H42.556H51.7762Z" stroke="#EEEEEE" stroke-width="2" stroke-miterlimit="10"/>
<path d="M68.4424 161V151.78M73.0525 156.39H63.8323H73.0525Z" stroke="#EEEEEE" stroke-miterlimit="10"/>
<path d="M68.4423 139.013V129.792M73.0524 134.403H63.8322H73.0524Z" stroke="#EEEEEE" stroke-miterlimit="10"/>
<path d="M68.4424 161V151.78M73.0525 156.39H63.8323H73.0525Z" stroke="#EEEEEE" stroke-width="2" stroke-miterlimit="10"/>
<path d="M68.4423 139.013V129.792M73.0524 134.403H63.8322H73.0524Z" stroke="#EEEEEE" stroke-width="2" stroke-miterlimit="10"/>
<path d="M89.7196 161V151.78M94.3297 156.39H85.1095H94.3297Z" stroke="#EEEEEE" stroke-miterlimit="10"/>
<path d="M89.7198 139.013V129.792M94.3299 134.403H85.1097H94.3299Z" stroke="#EEEEEE" stroke-miterlimit="10"/>
<path d="M89.7196 161V151.78M94.3297 156.39H85.1095H94.3297Z" stroke="#EEEEEE" stroke-width="2" stroke-miterlimit="10"/>
<path d="M89.7198 139.013V129.792M94.3299 134.403H85.1097H94.3299Z" stroke="#EEEEEE" stroke-width="2" stroke-miterlimit="10"/>
</svg>
