<svg width="90" height="104" viewBox="0 0 90 104" fill="none" xmlns="http://www.w3.org/2000/svg">
<path d="M75.0686 29.1074C75.0056 28.64 74.6051 28.3814 74.2741 28.3529C73.9437 28.3247 66.9511 27.7949 66.9511 27.7949C66.9511 27.7949 62.0947 22.8663 61.5616 22.3208C61.0283 21.7756 59.9867 21.9414 59.5824 22.0631C59.5229 22.081 58.5213 22.397 56.8646 22.921C55.2424 18.149 52.3794 13.7638 47.3426 13.7638C47.2035 13.7638 47.0604 13.7695 46.9173 13.7779C45.4848 11.8413 43.7103 11 42.1777 11C30.4446 11 24.839 25.9938 23.0815 33.6131C18.5223 35.0572 15.2834 36.0839 14.8697 36.2168C12.3249 37.0328 12.2444 37.1148 11.9102 39.5661C11.6587 41.4219 5 94.0622 5 94.0622L56.8863 104L85 97.7829C85 97.7829 75.1306 29.5748 75.0686 29.1074ZM53.9969 23.8277L49.6065 25.2168C49.6081 24.9005 49.6096 24.5893 49.6096 24.249C49.6096 21.2832 49.2069 18.8953 48.5608 17.0023C51.1561 17.3352 52.8845 20.3538 53.9969 23.8277ZM45.3414 17.5904C46.0629 19.4386 46.5321 22.0909 46.5321 25.6701C46.5321 25.8532 46.5305 26.0206 46.5289 26.19C43.6737 27.0941 40.5711 28.0756 37.4616 29.0604C39.2075 22.1722 42.4802 18.8453 45.3414 17.5904ZM41.8554 14.2171C42.3618 14.2171 42.872 14.3928 43.3602 14.7364C39.5999 16.5451 35.5694 21.1007 33.8672 30.1981L26.6999 32.4673C28.6936 25.5283 33.4279 14.2171 41.8554 14.2171Z" fill="white"/>
<path d="M74.3165 28.3815C73.9874 28.3534 67.0225 27.8237 67.0225 27.8237C67.0225 27.8237 62.1853 22.897 61.6544 22.3517C61.4557 22.1488 61.1877 22.0448 60.9076 22L57 104L85 97.7858C85 97.7858 75.1697 29.6031 75.1079 29.1358C75.0452 28.6686 74.6462 28.41 74.3165 28.3815Z" fill="#F6F6F6"/>
<path d="M47 44.3836L43.5417 54.885C43.5417 54.885 40.5117 53.2342 36.7975 53.2342C31.3525 53.2342 31.0785 56.7224 31.0785 57.6014C31.0785 62.3976 43.3258 64.2354 43.3258 75.4697C43.3258 84.3085 37.8342 90 30.4296 90C21.544 90 17 84.3548 17 84.3548L19.3792 76.3302C19.3792 76.3302 24.05 80.4238 27.9913 80.4238C30.5667 80.4238 31.6143 78.3539 31.6143 76.8415C31.6143 70.5851 21.5665 70.3061 21.5665 60.0257C21.5665 51.3731 27.6502 43 39.9306 43C44.6624 43 47 44.3836 47 44.3836Z" fill="#12062E"/>
</svg>
