<svg width="97" height="68" viewBox="0 0 97 68" fill="none" xmlns="http://www.w3.org/2000/svg">
<path d="M3.23566 21.9039V15.4326M6.47131 18.6683H0H6.47131Z" stroke="#EEEEEE" stroke-miterlimit="10"/>
<path d="M3.23566 6.47131V0M6.47131 3.23566H0H6.47131Z" stroke="#EEEEEE" stroke-miterlimit="10"/>
<path d="M3.23566 21.9039V15.4326M6.47131 18.6683H0H6.47131Z" stroke="#EEEEEE" stroke-width="2" stroke-miterlimit="10"/>
<path d="M3.23566 6.47131V0M6.47131 3.23566H0H6.47131Z" stroke="#EEEEEE" stroke-width="2" stroke-miterlimit="10"/>
<path d="M18.169 21.902V15.4307M21.4047 18.6663H14.9333H21.4047Z" stroke="#EEEEEE" stroke-miterlimit="10"/>
<path d="M18.169 6.47131V0M21.4047 3.23566H14.9333H21.4047Z" stroke="#EEEEEE" stroke-miterlimit="10"/>
<path d="M18.169 21.902V15.4307M21.4047 18.6663H14.9333H21.4047Z" stroke="#EEEEEE" stroke-width="2" stroke-miterlimit="10"/>
<path d="M18.169 6.47131V0M21.4047 3.23566H14.9333H21.4047Z" stroke="#EEEEEE" stroke-width="2" stroke-miterlimit="10"/>
<path d="M33.1041 21.902V15.4307M36.3398 18.6663H29.8685H36.3398Z" stroke="#EEEEEE" stroke-miterlimit="10"/>
<path d="M33.1041 6.47131V0M36.3398 3.23566H29.8685H36.3398Z" stroke="#EEEEEE" stroke-miterlimit="10"/>
<path d="M33.1041 21.902V15.4307M36.3398 18.6663H29.8685H36.3398Z" stroke="#EEEEEE" stroke-width="2" stroke-miterlimit="10"/>
<path d="M33.1041 6.47131V0M36.3398 3.23566H29.8685H36.3398Z" stroke="#EEEEEE" stroke-width="2" stroke-miterlimit="10"/>
<path d="M48.0372 21.9039V15.4326M51.2728 18.6683H44.8015H51.2728Z" stroke="#EEEEEE" stroke-miterlimit="10"/>
<path d="M48.0371 6.47131V0M51.2728 3.23566H44.8015H51.2728Z" stroke="#EEEEEE" stroke-miterlimit="10"/>
<path d="M48.0372 21.9039V15.4326M51.2728 18.6683H44.8015H51.2728Z" stroke="#EEEEEE" stroke-width="2" stroke-miterlimit="10"/>
<path d="M48.0371 6.47131V0M51.2728 3.23566H44.8015H51.2728Z" stroke="#EEEEEE" stroke-width="2" stroke-miterlimit="10"/>
<path d="M62.9708 21.9039V15.4326M66.2065 18.6683H59.7352H66.2065Z" stroke="#EEEEEE" stroke-miterlimit="10"/>
<path d="M62.9709 6.47131V0M66.2066 3.23566H59.7353H66.2066Z" stroke="#EEEEEE" stroke-miterlimit="10"/>
<path d="M62.9708 21.9039V15.4326M66.2065 18.6683H59.7352H66.2065Z" stroke="#EEEEEE" stroke-width="2" stroke-miterlimit="10"/>
<path d="M62.9709 6.47131V0M66.2066 3.23566H59.7353H66.2066Z" stroke="#EEEEEE" stroke-width="2" stroke-miterlimit="10"/>
<path d="M77.904 21.902V15.4307M81.1396 18.6663H74.6683H81.1396Z" stroke="#EEEEEE" stroke-miterlimit="10"/>
<path d="M77.904 6.47131V0M81.1396 3.23566H74.6683H81.1396Z" stroke="#EEEEEE" stroke-miterlimit="10"/>
<path d="M77.904 21.902V15.4307M81.1396 18.6663H74.6683H81.1396Z" stroke="#EEEEEE" stroke-width="2" stroke-miterlimit="10"/>
<path d="M77.904 6.47131V0M81.1396 3.23566H74.6683H81.1396Z" stroke="#EEEEEE" stroke-width="2" stroke-miterlimit="10"/>
<path d="M92.8391 21.902V15.4307M96.0748 18.6663H89.6035H96.0748Z" stroke="#EEEEEE" stroke-miterlimit="10"/>
<path d="M92.8391 6.47131V0M96.0747 3.23566H89.6034H96.0747Z" stroke="#EEEEEE" stroke-miterlimit="10"/>
<path d="M92.8391 21.902V15.4307M96.0748 18.6663H89.6035H96.0748Z" stroke="#EEEEEE" stroke-width="2" stroke-miterlimit="10"/>
<path d="M92.8391 6.47131V0M96.0747 3.23566H89.6034H96.0747Z" stroke="#EEEEEE" stroke-width="2" stroke-miterlimit="10"/>
<path d="M3.23566 67.2008V60.7295M6.47131 63.9651H0H6.47131Z" stroke="#EEEEEE" stroke-miterlimit="10"/>
<path d="M3.23566 67.2008V60.7295M6.47131 63.9651H0H6.47131Z" stroke="#EEEEEE" stroke-width="2" stroke-miterlimit="10"/>
<path d="M18.169 67.2008V60.7295M21.4047 63.9651H14.9333H21.4047Z" stroke="#EEEEEE" stroke-miterlimit="10"/>
<path d="M18.169 67.2008V60.7295M21.4047 63.9651H14.9333H21.4047Z" stroke="#EEEEEE" stroke-width="2" stroke-miterlimit="10"/>
<path d="M33.1041 67.2008V60.7295M36.3398 63.9651H29.8685H36.3398Z" stroke="#EEEEEE" stroke-miterlimit="10"/>
<path d="M33.1041 67.2008V60.7295M36.3398 63.9651H29.8685H36.3398Z" stroke="#EEEEEE" stroke-width="2" stroke-miterlimit="10"/>
<path d="M48.0371 67.2008V60.7295M51.2728 63.9651H44.8015H51.2728Z" stroke="#EEEEEE" stroke-miterlimit="10"/>
<path d="M48.0371 67.2008V60.7295M51.2728 63.9651H44.8015H51.2728Z" stroke="#EEEEEE" stroke-width="2" stroke-miterlimit="10"/>
<path d="M62.9709 67.2008V60.7295M66.2066 63.9651H59.7353H66.2066Z" stroke="#EEEEEE" stroke-miterlimit="10"/>
<path d="M62.9709 67.2008V60.7295M66.2066 63.9651H59.7353H66.2066Z" stroke="#EEEEEE" stroke-width="2" stroke-miterlimit="10"/>
<path d="M77.904 67.2008V60.7295M81.1396 63.9651H74.6683H81.1396Z" stroke="#EEEEEE" stroke-miterlimit="10"/>
<path d="M77.904 67.2008V60.7295M81.1396 63.9651H74.6683H81.1396Z" stroke="#EEEEEE" stroke-width="2" stroke-miterlimit="10"/>
<path d="M92.8391 67.2008V60.7295M96.0748 63.9651H89.6035H96.0748Z" stroke="#EEEEEE" stroke-miterlimit="10"/>
<path d="M92.8391 67.2008V60.7295M96.0748 63.9651H89.6035H96.0748Z" stroke="#EEEEEE" stroke-width="2" stroke-miterlimit="10"/>
<path d="M3.23566 52.2692V45.7979M6.47131 49.0335H0H6.47131Z" stroke="#EEEEEE" stroke-miterlimit="10"/>
<path d="M3.23566 36.8365V30.3652M6.47131 33.6009H0H6.47131Z" stroke="#EEEEEE" stroke-miterlimit="10"/>
<path d="M3.23566 52.2692V45.7979M6.47131 49.0335H0H6.47131Z" stroke="#EEEEEE" stroke-width="2" stroke-miterlimit="10"/>
<path d="M3.23566 36.8365V30.3652M6.47131 33.6009H0H6.47131Z" stroke="#EEEEEE" stroke-width="2" stroke-miterlimit="10"/>
<path d="M18.169 52.2672V45.7959M21.4047 49.0316H14.9333H21.4047Z" stroke="#EEEEEE" stroke-miterlimit="10"/>
<path d="M18.169 36.8365V30.3652M21.4047 33.6009H14.9333H21.4047Z" stroke="#EEEEEE" stroke-miterlimit="10"/>
<path d="M18.169 52.2672V45.7959M21.4047 49.0316H14.9333H21.4047Z" stroke="#EEEEEE" stroke-width="2" stroke-miterlimit="10"/>
<path d="M18.169 36.8365V30.3652M21.4047 33.6009H14.9333H21.4047Z" stroke="#EEEEEE" stroke-width="2" stroke-miterlimit="10"/>
<path d="M33.1041 52.2672V45.7959M36.3398 49.0316H29.8685H36.3398Z" stroke="#EEEEEE" stroke-miterlimit="10"/>
<path d="M33.1041 36.8365V30.3652M36.3398 33.6009H29.8685H36.3398Z" stroke="#EEEEEE" stroke-miterlimit="10"/>
<path d="M33.1041 52.2672V45.7959M36.3398 49.0316H29.8685H36.3398Z" stroke="#EEEEEE" stroke-width="2" stroke-miterlimit="10"/>
<path d="M33.1041 36.8365V30.3652M36.3398 33.6009H29.8685H36.3398Z" stroke="#EEEEEE" stroke-width="2" stroke-miterlimit="10"/>
<path d="M48.0372 52.2692V45.7979M51.2728 49.0335H44.8015H51.2728Z" stroke="#EEEEEE" stroke-miterlimit="10"/>
<path d="M48.0371 36.8365V30.3652M51.2728 33.6009H44.8015H51.2728Z" stroke="#EEEEEE" stroke-miterlimit="10"/>
<path d="M48.0372 52.2692V45.7979M51.2728 49.0335H44.8015H51.2728Z" stroke="#EEEEEE" stroke-width="2" stroke-miterlimit="10"/>
<path d="M48.0371 36.8365V30.3652M51.2728 33.6009H44.8015H51.2728Z" stroke="#EEEEEE" stroke-width="2" stroke-miterlimit="10"/>
<path d="M62.9708 52.2692V45.7979M66.2065 49.0335H59.7352H66.2065Z" stroke="#EEEEEE" stroke-miterlimit="10"/>
<path d="M62.9711 36.8365V30.3652M66.2067 33.6009H59.7354H66.2067Z" stroke="#EEEEEE" stroke-miterlimit="10"/>
<path d="M62.9708 52.2692V45.7979M66.2065 49.0335H59.7352H66.2065Z" stroke="#EEEEEE" stroke-width="2" stroke-miterlimit="10"/>
<path d="M62.9711 36.8365V30.3652M66.2067 33.6009H59.7354H66.2067Z" stroke="#EEEEEE" stroke-width="2" stroke-miterlimit="10"/>
<path d="M77.904 52.2672V45.7959M81.1396 49.0316H74.6683H81.1396Z" stroke="#EEEEEE" stroke-miterlimit="10"/>
<path d="M77.904 36.8365V30.3652M81.1396 33.6009H74.6683H81.1396Z" stroke="#EEEEEE" stroke-miterlimit="10"/>
<path d="M77.904 52.2672V45.7959M81.1396 49.0316H74.6683H81.1396Z" stroke="#EEEEEE" stroke-width="2" stroke-miterlimit="10"/>
<path d="M77.904 36.8365V30.3652M81.1396 33.6009H74.6683H81.1396Z" stroke="#EEEEEE" stroke-width="2" stroke-miterlimit="10"/>
<path d="M92.8391 52.2672V45.7959M96.0748 49.0316H89.6035H96.0748Z" stroke="#EEEEEE" stroke-miterlimit="10"/>
<path d="M92.8391 36.8365V30.3652M96.0747 33.6009H89.6034H96.0747Z" stroke="#EEEEEE" stroke-miterlimit="10"/>
<path d="M92.8391 52.2672V45.7959M96.0748 49.0316H89.6035H96.0748Z" stroke="#EEEEEE" stroke-width="2" stroke-miterlimit="10"/>
<path d="M92.8391 36.8365V30.3652M96.0747 33.6009H89.6034H96.0747Z" stroke="#EEEEEE" stroke-width="2" stroke-miterlimit="10"/>
</svg>
