<svg width="82" height="83" viewBox="0 0 82 83" fill="none" xmlns="http://www.w3.org/2000/svg">
<path d="M3.97083 52.6334V46.1621M7.20648 49.3978H0.735168H7.20648Z" stroke="#EEEEEE" stroke-miterlimit="10"/>
<path d="M3.97095 37.2008V30.7295M7.2066 33.9651H0.735291H7.2066Z" stroke="#EEEEEE" stroke-miterlimit="10"/>
<path d="M3.97083 52.6334V46.1621M7.20648 49.3978H0.735168H7.20648Z" stroke="#EEEEEE" stroke-width="2" stroke-miterlimit="10"/>
<path d="M3.97095 37.2008V30.7295M7.2066 33.9651H0.735291H7.2066Z" stroke="#EEEEEE" stroke-width="2" stroke-miterlimit="10"/>
<path d="M18.904 52.6315V46.1602M22.1396 49.3958H15.6683H22.1396Z" stroke="#EEEEEE" stroke-miterlimit="10"/>
<path d="M18.904 37.2008V30.7295M22.1396 33.9651H15.6683H22.1396Z" stroke="#EEEEEE" stroke-miterlimit="10"/>
<path d="M18.904 52.6315V46.1602M22.1396 49.3958H15.6683H22.1396Z" stroke="#EEEEEE" stroke-width="2" stroke-miterlimit="10"/>
<path d="M18.904 37.2008V30.7295M22.1396 33.9651H15.6683H22.1396Z" stroke="#EEEEEE" stroke-width="2" stroke-miterlimit="10"/>
<path d="M33.8391 52.6315V46.1602M37.0748 49.3958H30.6035H37.0748Z" stroke="#EEEEEE" stroke-miterlimit="10"/>
<path d="M33.8391 37.2008V30.7295M37.0748 33.9651H30.6035H37.0748Z" stroke="#EEEEEE" stroke-miterlimit="10"/>
<path d="M33.8391 52.6315V46.1602M37.0748 49.3958H30.6035H37.0748Z" stroke="#EEEEEE" stroke-width="2" stroke-miterlimit="10"/>
<path d="M33.8391 37.2008V30.7295M37.0748 33.9651H30.6035H37.0748Z" stroke="#EEEEEE" stroke-width="2" stroke-miterlimit="10"/>
<path d="M48.7721 52.6334V46.1621M52.0078 49.3978H45.5364H52.0078Z" stroke="#EEEEEE" stroke-miterlimit="10"/>
<path d="M48.7722 37.2008V30.7295M52.0079 33.9651H45.5366H52.0079Z" stroke="#EEEEEE" stroke-miterlimit="10"/>
<path d="M48.7721 52.6334V46.1621M52.0078 49.3978H45.5364H52.0078Z" stroke="#EEEEEE" stroke-width="2" stroke-miterlimit="10"/>
<path d="M48.7722 37.2008V30.7295M52.0079 33.9651H45.5366H52.0079Z" stroke="#EEEEEE" stroke-width="2" stroke-miterlimit="10"/>
<path d="M63.706 52.6334V46.1621M66.9417 49.3978H60.4703H66.9417Z" stroke="#EEEEEE" stroke-miterlimit="10"/>
<path d="M63.7061 37.2008V30.7295M66.9417 33.9651H60.4704H66.9417Z" stroke="#EEEEEE" stroke-miterlimit="10"/>
<path d="M63.706 52.6334V46.1621M66.9417 49.3978H60.4703H66.9417Z" stroke="#EEEEEE" stroke-width="2" stroke-miterlimit="10"/>
<path d="M63.7061 37.2008V30.7295M66.9417 33.9651H60.4704H66.9417Z" stroke="#EEEEEE" stroke-width="2" stroke-miterlimit="10"/>
<path d="M78.6409 52.6315V46.1602M81.8765 49.3958H75.4052H81.8765Z" stroke="#EEEEEE" stroke-miterlimit="10"/>
<path d="M78.6408 37.2008V30.7295M81.8765 33.9651H75.4052H81.8765Z" stroke="#EEEEEE" stroke-miterlimit="10"/>
<path d="M78.6409 52.6315V46.1602M81.8765 49.3958H75.4052H81.8765Z" stroke="#EEEEEE" stroke-width="2" stroke-miterlimit="10"/>
<path d="M78.6408 37.2008V30.7295M81.8765 33.9651H75.4052H81.8765Z" stroke="#EEEEEE" stroke-width="2" stroke-miterlimit="10"/>
<path d="M3.97083 22.2692V15.7979M7.20648 19.0335H0.735168H7.20648Z" stroke="#EEEEEE" stroke-miterlimit="10"/>
<path d="M3.97107 6.83655V0.365234M7.20673 3.60089H0.735413H7.20673Z" stroke="#EEEEEE" stroke-miterlimit="10"/>
<path d="M3.97083 22.2692V15.7979M7.20648 19.0335H0.735168H7.20648Z" stroke="#EEEEEE" stroke-width="2" stroke-miterlimit="10"/>
<path d="M3.97107 6.83655V0.365234M7.20673 3.60089H0.735413H7.20673Z" stroke="#EEEEEE" stroke-width="2" stroke-miterlimit="10"/>
<path d="M18.904 22.2672V15.7959M22.1396 19.0316H15.6683H22.1396Z" stroke="#EEEEEE" stroke-miterlimit="10"/>
<path d="M18.904 6.83655V0.365234M22.1396 3.60089H15.6683H22.1396Z" stroke="#EEEEEE" stroke-miterlimit="10"/>
<path d="M18.904 22.2672V15.7959M22.1396 19.0316H15.6683H22.1396Z" stroke="#EEEEEE" stroke-width="2" stroke-miterlimit="10"/>
<path d="M18.904 6.83655V0.365234M22.1396 3.60089H15.6683H22.1396Z" stroke="#EEEEEE" stroke-width="2" stroke-miterlimit="10"/>
<path d="M33.8391 22.2672V15.7959M37.0748 19.0316H30.6035H37.0748Z" stroke="#EEEEEE" stroke-miterlimit="10"/>
<path d="M33.8391 6.83655V0.365234M37.0747 3.60089H30.6034H37.0747Z" stroke="#EEEEEE" stroke-miterlimit="10"/>
<path d="M33.8391 22.2672V15.7959M37.0748 19.0316H30.6035H37.0748Z" stroke="#EEEEEE" stroke-width="2" stroke-miterlimit="10"/>
<path d="M33.8391 6.83655V0.365234M37.0747 3.60089H30.6034H37.0747Z" stroke="#EEEEEE" stroke-width="2" stroke-miterlimit="10"/>
<path d="M48.7721 22.2692V15.7979M52.0078 19.0335H45.5364H52.0078Z" stroke="#EEEEEE" stroke-miterlimit="10"/>
<path d="M48.7723 6.83655V0.365234M52.008 3.60089H45.5367H52.008Z" stroke="#EEEEEE" stroke-miterlimit="10"/>
<path d="M48.7721 22.2692V15.7979M52.0078 19.0335H45.5364H52.0078Z" stroke="#EEEEEE" stroke-width="2" stroke-miterlimit="10"/>
<path d="M48.7723 6.83655V0.365234M52.008 3.60089H45.5367H52.008Z" stroke="#EEEEEE" stroke-width="2" stroke-miterlimit="10"/>
<path d="M63.706 22.2692V15.7979M66.9416 19.0335H60.4703H66.9416Z" stroke="#EEEEEE" stroke-miterlimit="10"/>
<path d="M63.7061 6.83655V0.365234M66.9417 3.60089H60.4704H66.9417Z" stroke="#EEEEEE" stroke-miterlimit="10"/>
<path d="M63.706 22.2692V15.7979M66.9416 19.0335H60.4703H66.9416Z" stroke="#EEEEEE" stroke-width="2" stroke-miterlimit="10"/>
<path d="M63.7061 6.83655V0.365234M66.9417 3.60089H60.4704H66.9417Z" stroke="#EEEEEE" stroke-width="2" stroke-miterlimit="10"/>
<path d="M78.6409 22.2672V15.7959M81.8765 19.0316H75.4052H81.8765Z" stroke="#EEEEEE" stroke-miterlimit="10"/>
<path d="M78.6408 6.83655V0.365234M81.8765 3.60089H75.4052H81.8765Z" stroke="#EEEEEE" stroke-miterlimit="10"/>
<path d="M78.6409 22.2672V15.7959M81.8765 19.0316H75.4052H81.8765Z" stroke="#EEEEEE" stroke-width="2" stroke-miterlimit="10"/>
<path d="M78.6408 6.83655V0.365234M81.8765 3.60089H75.4052H81.8765Z" stroke="#EEEEEE" stroke-width="2" stroke-miterlimit="10"/>
<path d="M3.97083 83.0006V76.5293M7.20648 79.765H0.735168H7.20648Z" stroke="#EEEEEE" stroke-miterlimit="10"/>
<path d="M3.97095 67.569V61.0977M7.2066 64.3333H0.735291H7.2066Z" stroke="#EEEEEE" stroke-miterlimit="10"/>
<path d="M3.97083 83.0006V76.5293M7.20648 79.765H0.735168H7.20648Z" stroke="#EEEEEE" stroke-width="2" stroke-miterlimit="10"/>
<path d="M3.97095 67.569V61.0977M7.2066 64.3333H0.735291H7.2066Z" stroke="#EEEEEE" stroke-width="2" stroke-miterlimit="10"/>
<path d="M18.904 83.0006V76.5293M22.1396 79.765H15.6683H22.1396Z" stroke="#EEEEEE" stroke-miterlimit="10"/>
<path d="M18.904 67.569V61.0977M22.1396 64.3333H15.6683H22.1396Z" stroke="#EEEEEE" stroke-miterlimit="10"/>
<path d="M18.904 83.0006V76.5293M22.1396 79.765H15.6683H22.1396Z" stroke="#EEEEEE" stroke-width="2" stroke-miterlimit="10"/>
<path d="M18.904 67.569V61.0977M22.1396 64.3333H15.6683H22.1396Z" stroke="#EEEEEE" stroke-width="2" stroke-miterlimit="10"/>
<path d="M33.8392 83.0006V76.5293M37.0748 79.765H30.6035H37.0748Z" stroke="#EEEEEE" stroke-miterlimit="10"/>
<path d="M33.8391 67.569V61.0977M37.0748 64.3333H30.6035H37.0748Z" stroke="#EEEEEE" stroke-miterlimit="10"/>
<path d="M33.8392 83.0006V76.5293M37.0748 79.765H30.6035H37.0748Z" stroke="#EEEEEE" stroke-width="2" stroke-miterlimit="10"/>
<path d="M33.8391 67.569V61.0977M37.0748 64.3333H30.6035H37.0748Z" stroke="#EEEEEE" stroke-width="2" stroke-miterlimit="10"/>
<path d="M48.7721 83.0006V76.5293M52.0078 79.765H45.5364H52.0078Z" stroke="#EEEEEE" stroke-miterlimit="10"/>
<path d="M48.7722 67.569V61.0977M52.0079 64.3333H45.5366H52.0079Z" stroke="#EEEEEE" stroke-miterlimit="10"/>
<path d="M48.7721 83.0006V76.5293M52.0078 79.765H45.5364H52.0078Z" stroke="#EEEEEE" stroke-width="2" stroke-miterlimit="10"/>
<path d="M48.7722 67.569V61.0977M52.0079 64.3333H45.5366H52.0079Z" stroke="#EEEEEE" stroke-width="2" stroke-miterlimit="10"/>
<path d="M63.706 83.0006V76.5293M66.9417 79.765H60.4703H66.9417Z" stroke="#EEEEEE" stroke-miterlimit="10"/>
<path d="M63.7061 67.569V61.0977M66.9417 64.3333H60.4704H66.9417Z" stroke="#EEEEEE" stroke-miterlimit="10"/>
<path d="M63.706 83.0006V76.5293M66.9417 79.765H60.4703H66.9417Z" stroke="#EEEEEE" stroke-width="2" stroke-miterlimit="10"/>
<path d="M63.7061 67.569V61.0977M66.9417 64.3333H60.4704H66.9417Z" stroke="#EEEEEE" stroke-width="2" stroke-miterlimit="10"/>
<path d="M78.6409 83.0006V76.5293M81.8765 79.765H75.4052H81.8765Z" stroke="#EEEEEE" stroke-miterlimit="10"/>
<path d="M78.6408 67.569V61.0977M81.8765 64.3333H75.4052H81.8765Z" stroke="#EEEEEE" stroke-miterlimit="10"/>
<path d="M78.6409 83.0006V76.5293M81.8765 79.765H75.4052H81.8765Z" stroke="#EEEEEE" stroke-width="2" stroke-miterlimit="10"/>
<path d="M78.6408 67.569V61.0977M81.8765 64.3333H75.4052H81.8765Z" stroke="#EEEEEE" stroke-width="2" stroke-miterlimit="10"/>
</svg>
