<svg width="976" height="641" viewBox="0 0 976 641" fill="none" xmlns="http://www.w3.org/2000/svg">
<g clip-path="url(#clip0_271_29618)">
<path d="M462.317 122.775L408.121 80.2438L469.912 31.7188C401.696 36.2315 337.586 65.8829 290.01 114.926C242.433 163.969 214.777 228.91 212.402 297.163V316.836C214.358 373.08 233.593 427.36 267.496 472.307H403.755C374.726 457.512 350.089 435.369 332.307 408.087C314.525 380.806 304.219 349.341 302.418 316.836V297.163C304.7 254.085 321.897 213.137 351.065 181.327C380.233 149.516 419.56 128.818 462.317 122.775Z" fill="#12062E"/>
<path d="M873.804 618.48V582.121H594.27C634.741 566.513 671.268 542.18 701.248 510.856C707.095 504.777 712.636 498.498 717.872 492.02H873.804V457.971L975.999 538.215L873.804 618.48Z" fill="#7DDB29"/>
<path d="M633.058 341.048C638.24 318.637 638.24 295.341 633.058 272.93H604.753C602.22 264.264 598.738 255.904 594.368 248.001L614.301 228.089C602.149 208.552 585.666 192.066 566.124 179.902L546.072 199.814C538.16 195.451 529.791 191.972 521.116 189.44V161.285C498.682 156.108 475.361 156.108 452.927 161.285V189.56C444.258 192.092 435.896 195.571 427.991 199.934L407.939 180.022C388.401 192.189 371.913 208.666 359.742 228.188L379.674 248.1C375.302 256.002 371.819 264.362 369.289 273.03H341.164C335.956 295.438 335.956 318.74 341.164 341.148H369.449C371.98 349.809 375.463 358.163 379.834 366.058L359.901 386.069C372.056 405.542 388.525 421.966 408.038 434.076L427.971 414.165C435.872 418.536 444.235 422.015 452.907 424.539V452.793C475.338 457.997 498.665 457.997 521.096 452.793V424.519C529.807 422.009 538.211 418.536 546.151 414.165L566.184 434.076C585.741 421.917 602.233 405.422 614.381 385.87L594.448 365.958C598.828 358.067 602.311 349.712 604.833 341.048H633.058ZM555.819 375.635C542.227 389.215 524.909 398.464 506.055 402.212C487.202 405.96 467.659 404.038 449.898 396.691C432.137 389.343 416.957 376.898 406.277 360.932C395.596 344.965 389.896 326.193 389.896 306.989C389.896 287.786 395.596 269.014 406.277 253.047C416.957 237.08 432.137 224.636 449.898 217.288C467.659 209.94 487.202 208.019 506.055 211.767C524.909 215.514 542.227 224.763 555.819 238.343C574.041 256.551 584.278 281.243 584.278 306.989C584.278 332.736 574.041 357.428 555.819 375.635Z" fill="#D0D8ED"/>
<path d="M542.169 35.6819V0L439.975 80.2445L542.169 160.489V128.869C578.708 140.07 610.915 162.225 634.423 192.33C657.931 222.435 671.603 259.034 673.585 297.163V316.836C671.405 355.12 657.44 391.796 633.599 421.849C609.758 451.902 577.206 473.864 540.395 484.732C523.549 489.564 506.097 491.957 488.57 491.841L270.906 492.02L329.787 538.235L270.906 581.842H500.311C569.449 578.693 634.877 549.698 683.614 500.61C732.351 451.521 760.837 385.926 763.421 316.836V297.163C759.434 166.642 666.568 59.0782 542.169 35.6819Z" fill="#12062E"/>
<path d="M295.88 538.235L193.685 457.99V492.019H0V582.1H193.546H193.685V618.479L295.88 538.235Z" fill="#12062E"/>
<path d="M134.864 133.07C138.353 133.07 141.699 134.455 144.167 136.919C146.634 139.384 148.02 142.727 148.02 146.212C148.02 149.697 146.634 153.04 144.167 155.505C141.699 157.969 138.353 159.354 134.864 159.354H127.25V133.07H134.864ZM134.167 153.998C136.234 153.998 138.216 153.177 139.678 151.717C141.139 150.257 141.96 148.277 141.96 146.212C141.96 144.147 141.139 142.167 139.678 140.707C138.216 139.247 136.234 138.427 134.167 138.427H133.25V153.998H134.167Z" fill="#8394C5"/>
<path d="M155.475 151.966C155.471 152.422 155.561 152.873 155.74 153.293C155.918 153.712 156.181 154.09 156.512 154.404C156.842 154.717 157.234 154.96 157.663 155.116C158.091 155.272 158.547 155.339 159.003 155.311C159.767 155.375 160.534 155.242 161.232 154.924C161.93 154.607 162.535 154.117 162.989 153.499L166.976 155.49C166.093 156.911 164.835 158.06 163.34 158.812C161.846 159.564 160.172 159.889 158.504 159.752C157.332 159.808 156.16 159.626 155.061 159.216C153.961 158.807 152.956 158.179 152.106 157.37C151.257 156.561 150.58 155.588 150.118 154.51C149.656 153.433 149.418 152.272 149.418 151.1C149.418 149.927 149.656 148.767 150.118 147.69C150.58 146.612 151.257 145.639 152.106 144.83C152.956 144.021 153.961 143.393 155.061 142.984C156.16 142.574 157.332 142.392 158.504 142.448C159.693 142.327 160.894 142.469 162.022 142.864C163.149 143.259 164.176 143.898 165.029 144.734C165.881 145.571 166.539 146.585 166.954 147.704C167.37 148.823 167.534 150.02 167.434 151.209C167.454 151.461 167.454 151.714 167.434 151.966H155.475ZM161.853 148.84C161.787 148.083 161.426 147.381 160.849 146.886C160.271 146.391 159.523 146.142 158.763 146.192C158.382 146.151 157.996 146.187 157.63 146.3C157.263 146.412 156.923 146.598 156.63 146.845C156.337 147.093 156.098 147.398 155.927 147.74C155.756 148.083 155.656 148.457 155.634 148.84H161.853Z" fill="#8394C5"/>
<path d="M180.948 159.833C179.967 159.87 178.989 159.713 178.068 159.371C177.148 159.03 176.305 158.51 175.586 157.841V167.797H169.945V143.007H175.526V144.859C176.21 144.121 177.04 143.533 177.963 143.132C178.886 142.731 179.882 142.526 180.888 142.529C183.113 142.636 185.212 143.594 186.749 145.205C188.286 146.816 189.143 148.956 189.143 151.181C189.143 153.406 188.286 155.546 186.749 157.157C185.212 158.768 183.113 159.726 180.888 159.833H180.948ZM179.254 147.348C178.744 147.323 178.234 147.404 177.757 147.587C177.28 147.77 176.846 148.05 176.484 148.41C176.122 148.77 175.839 149.201 175.654 149.677C175.468 150.152 175.384 150.661 175.407 151.171C175.407 151.67 175.505 152.165 175.697 152.626C175.888 153.088 176.168 153.507 176.522 153.86C176.875 154.213 177.295 154.494 177.757 154.685C178.219 154.876 178.714 154.974 179.214 154.974C179.714 154.974 180.209 154.876 180.671 154.685C181.133 154.494 181.552 154.213 181.906 153.86C182.26 153.507 182.54 153.088 182.731 152.626C182.923 152.165 183.021 151.67 183.021 151.171C183.046 150.667 182.966 150.164 182.787 149.693C182.607 149.222 182.332 148.793 181.977 148.434C181.623 148.074 181.198 147.792 180.73 147.605C180.261 147.418 179.758 147.331 179.254 147.348Z" fill="#8394C5"/>
<path d="M191.73 131.955H197.332V159.294H191.73V131.955Z" fill="#8394C5"/>
<path d="M209.87 142.529C215.292 142.529 219.637 146.113 219.637 151.211C219.637 156.308 215.531 159.833 209.87 159.833C204.209 159.833 200.023 156.249 200.023 151.211C200.023 146.173 204.349 142.529 209.87 142.529ZM209.87 155.034C210.375 155.051 210.879 154.963 211.349 154.777C211.818 154.59 212.245 154.308 212.6 153.949C212.956 153.59 213.233 153.162 213.415 152.69C213.597 152.219 213.68 151.715 213.657 151.211C213.657 150.202 213.256 149.235 212.542 148.522C211.828 147.808 210.86 147.408 209.85 147.408C208.84 147.408 207.872 147.808 207.158 148.522C206.444 149.235 206.043 150.202 206.043 151.211C206.018 151.718 206.098 152.225 206.28 152.699C206.462 153.173 206.742 153.604 207.1 153.964C207.459 154.324 207.888 154.605 208.362 154.789C208.836 154.973 209.342 155.057 209.85 155.034H209.87Z" fill="#8394C5"/>
<path d="M241.046 143.007L228.189 167.658H221.671L227.332 156.806L219.578 143.007H226.076L230.641 151.33L234.627 142.947L241.046 143.007Z" fill="#8394C5"/>
<path d="M304.211 163.277C303.371 163.283 302.555 163.555 301.878 164.053L257.708 127.535C254.849 125.169 251.254 123.873 247.542 123.871H127.329C127.064 123.871 126.811 123.976 126.624 124.163C126.437 124.349 126.332 124.603 126.332 124.867C126.332 125.131 126.437 125.384 126.624 125.571C126.811 125.757 127.064 125.862 127.329 125.862H246.924C250.636 125.864 254.232 127.16 257.09 129.526L300.702 165.646C300.353 166.436 300.27 167.319 300.466 168.161C300.663 169.003 301.128 169.758 301.792 170.312C302.455 170.866 303.282 171.19 304.146 171.234C305.01 171.278 305.865 171.04 306.581 170.556C307.298 170.071 307.838 169.368 308.119 168.55C308.4 167.733 308.407 166.846 308.139 166.024C307.872 165.202 307.344 164.49 306.635 163.994C305.926 163.499 305.075 163.247 304.211 163.277Z" fill="#D8DFF0"/>
<path d="M75.2254 320.121C80.1089 320.121 83.7964 322.749 83.7964 327.927C83.8913 329.615 83.411 331.286 82.4338 332.667C81.4565 334.049 80.0399 335.059 78.4146 335.533L87.4839 346.464H79.8498L71.8767 336.07V346.464H65.7773V320.181L75.2254 320.121ZM72.5146 331.789C74.767 331.789 77.4778 331.61 77.4778 328.345C77.4778 325.079 74.767 324.9 72.5146 324.9H71.7571V331.789H72.5146Z" fill="#8394C5"/>
<path d="M92.5666 339.017C92.5633 339.476 92.654 339.931 92.8332 340.354C93.0123 340.777 93.2762 341.158 93.6086 341.476C93.9409 341.793 94.3347 342.038 94.7657 342.198C95.1967 342.357 95.6557 342.427 96.1147 342.402C96.8806 342.464 97.6494 342.328 98.3475 342.007C99.0456 341.686 99.6494 341.191 100.101 340.57L104.187 342.562C103.308 343.998 102.046 345.162 100.544 345.925C99.0412 346.688 97.3561 347.019 95.6761 346.883C94.5038 346.939 93.3323 346.757 92.2326 346.347C91.1328 345.938 90.1277 345.31 89.2782 344.501C88.4286 343.692 87.7523 342.719 87.2902 341.641C86.8281 340.563 86.5898 339.403 86.5898 338.231C86.5898 337.058 86.8281 335.898 87.2902 334.82C87.7523 333.743 88.4286 332.77 89.2782 331.961C90.1277 331.152 91.1328 330.524 92.2326 330.115C93.3323 329.705 94.5038 329.523 95.6761 329.579C96.8449 329.478 98.0217 329.631 99.1251 330.029C100.228 330.427 101.232 331.06 102.066 331.884C102.901 332.708 103.546 333.703 103.957 334.801C104.367 335.898 104.535 337.072 104.446 338.241C104.446 338.48 104.446 338.818 104.446 339.017H92.5666ZM98.9451 335.891C98.879 335.134 98.5185 334.433 97.941 333.938C97.3635 333.443 96.6149 333.193 95.8555 333.243C95.4742 333.202 95.0884 333.239 94.7217 333.351C94.355 333.463 94.015 333.649 93.7223 333.897C93.4296 334.144 93.1904 334.449 93.0192 334.792C92.8479 335.135 92.7482 335.509 92.7261 335.891H98.9451Z" fill="#8394C5"/>
<path d="M115.09 338.959L119.077 330.059H125.774L117.004 346.466H113.177L104.406 330.118H111.104L115.09 338.959Z" fill="#8394C5"/>
<path d="M133.291 323.308C133.291 323.97 133.095 324.616 132.727 325.167C132.359 325.717 131.836 326.145 131.224 326.399C130.612 326.652 129.939 326.718 129.289 326.589C128.64 326.46 128.043 326.141 127.575 325.673C127.106 325.206 126.787 324.61 126.658 323.961C126.529 323.312 126.595 322.639 126.849 322.028C127.102 321.417 127.531 320.894 128.082 320.527C128.633 320.159 129.28 319.963 129.942 319.963C130.382 319.963 130.818 320.049 131.224 320.218C131.63 320.386 131.999 320.632 132.31 320.943C132.621 321.253 132.868 321.622 133.036 322.028C133.204 322.434 133.291 322.869 133.291 323.308ZM127.052 346.465H132.693V330.118H127.052V346.465Z" fill="#8394C5"/>
<path d="M141.361 339.019C141.347 339.485 141.429 339.948 141.603 340.38C141.778 340.813 142.04 341.204 142.373 341.53C142.707 341.855 143.105 342.108 143.541 342.273C143.978 342.437 144.443 342.509 144.909 342.484C145.675 342.545 146.444 342.409 147.142 342.088C147.84 341.767 148.444 341.273 148.896 340.652L152.882 342.643C151.997 344.065 150.735 345.215 149.237 345.967C147.739 346.719 146.062 347.043 144.391 346.904C143.219 346.96 142.047 346.778 140.947 346.369C139.848 345.959 138.843 345.331 137.993 344.522C137.143 343.713 136.467 342.74 136.005 341.663C135.543 340.585 135.305 339.425 135.305 338.252C135.305 337.08 135.543 335.92 136.005 334.842C136.467 333.764 137.143 332.791 137.993 331.983C138.843 331.174 139.848 330.545 140.947 330.136C142.047 329.727 143.219 329.544 144.391 329.601C145.56 329.499 146.737 329.653 147.84 330.051C148.943 330.449 149.947 331.082 150.781 331.906C151.615 332.729 152.26 333.725 152.671 334.822C153.082 335.92 153.25 337.094 153.161 338.262C153.161 338.501 153.161 338.84 153.161 339.039L141.361 339.019ZM147.74 335.893C147.674 335.135 147.313 334.434 146.736 333.939C146.158 333.444 145.409 333.195 144.65 333.245C144.269 333.203 143.883 333.24 143.516 333.353C143.15 333.465 142.81 333.651 142.517 333.898C142.224 334.146 141.985 334.45 141.814 334.793C141.642 335.136 141.543 335.51 141.521 335.893H147.74Z" fill="#8394C5"/>
<path d="M161.973 346.465L153.203 330.117H159.701L163.688 338.938L167.674 330.117H171.661L175.647 338.938L179.634 330.117H186.152L177.162 346.465H173.415L169.648 338.022L165.801 346.465H161.973Z" fill="#8394C5"/>
<path d="M266.878 363.789C266.047 363.795 265.239 364.059 264.566 364.546L203.114 313.691C200.256 311.325 196.66 310.029 192.948 310.027H66.5357C66.2714 310.027 66.0179 310.132 65.831 310.319C65.6441 310.506 65.5391 310.759 65.5391 311.023C65.5391 311.287 65.6441 311.54 65.831 311.727C66.0179 311.914 66.2714 312.019 66.5357 312.019H192.231C195.943 312.021 199.538 313.316 202.396 315.682L263.29 366.079C263.034 366.607 262.898 367.185 262.892 367.771C262.892 368.559 263.126 369.329 263.564 369.984C264.002 370.639 264.624 371.149 265.353 371.451C266.081 371.752 266.883 371.831 267.656 371.677C268.429 371.524 269.14 371.144 269.697 370.587C270.255 370.031 270.634 369.321 270.788 368.548C270.942 367.776 270.863 366.975 270.561 366.248C270.26 365.52 269.749 364.898 269.093 364.46C268.438 364.023 267.667 363.789 266.878 363.789Z" fill="#D8DFF0"/>
<path d="M794.333 320.121C796.061 320.121 797.772 320.461 799.368 321.121C800.964 321.782 802.414 322.75 803.636 323.97C804.857 325.191 805.826 326.639 806.488 328.234C807.149 329.828 807.489 331.537 807.489 333.263C807.489 334.989 807.149 336.698 806.488 338.292C805.826 339.886 804.857 341.335 803.636 342.556C802.414 343.776 800.964 344.744 799.368 345.404C797.772 346.065 796.061 346.405 794.333 346.405H786.699V320.121H794.333ZM793.636 341.048C795.703 341.048 797.685 340.228 799.147 338.768C800.608 337.308 801.429 335.328 801.429 333.263C801.429 331.198 800.608 329.218 799.147 327.758C797.685 326.298 795.703 325.477 793.636 325.477H792.699V341.048H793.636Z" fill="#8394C5"/>
<path d="M814.926 339.018C814.922 339.478 815.013 339.932 815.192 340.355C815.371 340.778 815.635 341.16 815.968 341.477C816.3 341.794 816.694 342.04 817.125 342.199C817.556 342.358 818.015 342.428 818.474 342.404C819.24 342.465 820.008 342.329 820.706 342.008C821.405 341.687 822.008 341.193 822.46 340.572L826.546 342.563C825.661 343.985 824.399 345.135 822.901 345.887C821.403 346.639 819.726 346.963 818.055 346.824C816.883 346.88 815.711 346.698 814.611 346.289C813.512 345.879 812.507 345.251 811.657 344.442C810.807 343.633 810.131 342.66 809.669 341.583C809.207 340.505 808.969 339.345 808.969 338.172C808.969 337 809.207 335.84 809.669 334.762C810.131 333.684 810.807 332.711 811.657 331.902C812.507 331.094 813.512 330.465 814.611 330.056C815.711 329.647 816.883 329.464 818.055 329.521C819.224 329.419 820.401 329.573 821.504 329.971C822.607 330.369 823.611 331.002 824.445 331.825C825.279 332.649 825.924 333.645 826.335 334.742C826.746 335.84 826.914 337.014 826.825 338.182C826.825 338.421 826.825 338.76 826.825 338.959L814.926 339.018ZM821.324 335.892C821.253 335.133 820.888 334.432 820.308 333.937C819.727 333.443 818.976 333.194 818.214 333.244C817.833 333.203 817.447 333.24 817.081 333.352C816.714 333.464 816.374 333.65 816.081 333.898C815.789 334.146 815.549 334.45 815.378 334.793C815.207 335.136 815.107 335.51 815.085 335.892H821.324Z" fill="#8394C5"/>
<path d="M837.45 338.959L841.436 330.059H848.133L839.363 346.466H835.536L826.766 330.118H833.463L837.45 338.959Z" fill="#8394C5"/>
<path d="M853.994 339.018C853.991 339.477 854.081 339.932 854.261 340.355C854.44 340.778 854.704 341.159 855.036 341.477C855.368 341.794 855.762 342.039 856.193 342.199C856.624 342.358 857.083 342.428 857.542 342.403C858.308 342.465 859.077 342.328 859.775 342.008C860.473 341.687 861.077 341.192 861.529 340.571L865.515 342.563C864.629 343.985 863.368 345.135 861.87 345.887C860.371 346.639 858.695 346.963 857.024 346.824C855.851 346.88 854.68 346.698 853.58 346.288C852.48 345.879 851.475 345.251 850.626 344.442C849.776 343.633 849.1 342.66 848.638 341.582C848.176 340.505 847.938 339.344 847.938 338.172C847.938 337 848.176 335.839 848.638 334.762C849.1 333.684 849.776 332.711 850.626 331.902C851.475 331.093 852.48 330.465 853.58 330.056C854.68 329.646 855.851 329.464 857.024 329.52C858.193 329.419 859.371 329.573 860.475 329.971C861.579 330.369 862.584 331.001 863.42 331.825C864.256 332.648 864.903 333.643 865.316 334.741C865.729 335.838 865.899 337.012 865.814 338.182C865.835 338.44 865.835 338.7 865.814 338.959L853.994 339.018ZM860.392 335.892C860.321 335.133 859.957 334.432 859.376 333.937C858.795 333.443 858.044 333.194 857.283 333.244C856.902 333.203 856.516 333.24 856.149 333.352C855.782 333.464 855.442 333.65 855.15 333.898C854.857 334.145 854.618 334.45 854.447 334.793C854.275 335.136 854.176 335.51 854.153 335.892H860.392Z" fill="#8394C5"/>
<path d="M868.484 319.006H874.125V346.464H868.484V319.006Z" fill="#8394C5"/>
<path d="M886.62 329.58C892.042 329.58 896.387 333.144 896.387 338.242C896.387 343.339 892.281 346.883 886.62 346.883C880.959 346.883 876.773 343.279 876.773 338.242C876.773 333.204 881.019 329.58 886.62 329.58ZM886.62 342.065C887.125 342.082 887.629 341.994 888.099 341.807C888.568 341.621 888.995 341.339 889.35 340.98C889.706 340.621 889.983 340.193 890.165 339.721C890.347 339.25 890.43 338.746 890.407 338.242C890.407 337.233 890.006 336.266 889.292 335.552C888.578 334.839 887.61 334.439 886.6 334.439C885.59 334.439 884.622 334.839 883.908 335.552C883.194 336.266 882.793 337.233 882.793 338.242C882.768 338.749 882.848 339.256 883.03 339.73C883.213 340.204 883.492 340.634 883.85 340.994C884.209 341.354 884.638 341.636 885.112 341.82C885.586 342.004 886.092 342.088 886.6 342.065H886.62Z" fill="#8394C5"/>
<path d="M909.964 346.884C907.989 346.953 906.068 346.237 904.622 344.892V354.729H898.961V330.058H904.542V331.91C905.221 331.171 906.046 330.582 906.966 330.18C907.886 329.779 908.88 329.575 909.884 329.58C912.109 329.687 914.208 330.645 915.745 332.256C917.282 333.867 918.139 336.007 918.139 338.232C918.139 340.457 917.282 342.597 915.745 344.208C914.208 345.819 912.109 346.777 909.884 346.884H909.964ZM908.289 334.399C907.783 334.382 907.279 334.47 906.808 334.656C906.337 334.843 905.91 335.124 905.553 335.483C905.196 335.841 904.916 336.27 904.732 336.741C904.548 337.212 904.463 337.716 904.482 338.222C904.444 338.746 904.515 339.272 904.69 339.767C904.864 340.263 905.139 340.717 905.497 341.102C905.855 341.486 906.289 341.793 906.771 342.003C907.253 342.212 907.774 342.321 908.299 342.321C908.825 342.321 909.345 342.212 909.827 342.003C910.31 341.793 910.743 341.486 911.101 341.102C911.46 340.717 911.735 340.263 911.909 339.767C912.084 339.272 912.154 338.746 912.116 338.222C912.142 337.713 912.061 337.204 911.878 336.729C911.694 336.254 911.413 335.822 911.053 335.461C910.692 335.101 910.26 334.82 909.784 334.637C909.308 334.454 908.799 334.373 908.289 334.399Z" fill="#8394C5"/>
<path d="M916.661 310.027H784.249C780.536 310.029 776.941 311.325 774.083 313.691L712.651 364.546C711.972 364.055 711.156 363.79 710.319 363.789C709.53 363.789 708.759 364.023 708.104 364.46C707.448 364.898 706.937 365.52 706.635 366.248C706.334 366.975 706.255 367.776 706.409 368.548C706.562 369.321 706.942 370.031 707.5 370.587C708.057 371.144 708.768 371.524 709.541 371.677C710.314 371.831 711.116 371.752 711.844 371.451C712.573 371.149 713.195 370.639 713.633 369.984C714.071 369.329 714.305 368.559 714.305 367.771C714.305 367.186 714.176 366.609 713.926 366.079L774.801 315.682C777.659 313.316 781.254 312.021 784.966 312.019H916.661C916.925 312.019 917.179 311.914 917.366 311.727C917.553 311.54 917.658 311.287 917.658 311.023C917.658 310.759 917.553 310.506 917.366 310.319C917.179 310.132 916.925 310.027 916.661 310.027Z" fill="#D8DFF0"/>
<path d="M733.758 132.99H752.255V138.247H745.996V159.294H740.017V138.247H733.778L733.758 132.99Z" fill="#8394C5"/>
<path d="M756.621 151.906C756.612 152.368 756.698 152.826 756.875 153.253C757.052 153.679 757.316 154.064 757.649 154.384C757.982 154.704 758.378 154.951 758.812 155.111C759.246 155.27 759.708 155.339 760.169 155.311C760.933 155.375 761.701 155.241 762.399 154.924C763.097 154.607 763.701 154.116 764.155 153.499L768.242 155.49C767.358 156.916 766.098 158.07 764.6 158.826C763.101 159.581 761.423 159.908 759.75 159.771C758.578 159.827 757.407 159.645 756.307 159.236C755.207 158.826 754.202 158.198 753.352 157.389C752.503 156.58 751.826 155.608 751.364 154.53C750.902 153.452 750.664 152.292 750.664 151.12C750.664 149.947 750.902 148.787 751.364 147.709C751.826 146.631 752.503 145.659 753.352 144.85C754.202 144.041 755.207 143.413 756.307 143.003C757.407 142.594 758.578 142.412 759.75 142.468C760.918 142.37 762.094 142.526 763.195 142.925C764.297 143.324 765.299 143.957 766.133 144.78C766.966 145.604 767.611 146.597 768.024 147.693C768.436 148.789 768.605 149.962 768.521 151.13C768.541 151.388 768.541 151.648 768.521 151.906H756.621ZM762.999 148.78C762.938 148.021 762.579 147.316 762.001 146.82C761.422 146.324 760.67 146.077 759.91 146.132C759.528 146.088 759.141 146.122 758.773 146.234C758.405 146.345 758.064 146.53 757.771 146.778C757.477 147.027 757.238 147.332 757.068 147.677C756.897 148.021 756.8 148.396 756.78 148.78H762.999Z" fill="#8394C5"/>
<path d="M783.629 143.743L781.775 147.347C780.649 146.763 779.414 146.417 778.147 146.331C776.892 146.331 776.393 146.55 776.393 147.327C776.393 148.103 777.549 148.442 778.945 148.88C781.117 149.557 783.928 150.871 783.928 154.117C783.928 158.915 779.523 159.692 776.174 159.692C773.873 159.724 771.634 158.941 769.855 157.482L772.148 153.639C773.281 154.615 774.659 155.262 776.134 155.511C776.932 155.511 777.888 155.511 777.888 154.336C777.888 153.161 776.114 153.061 774.261 152.106C773.323 151.78 772.504 151.181 771.911 150.386C771.317 149.591 770.976 148.636 770.932 147.645C770.932 144.3 773.782 142.389 778.088 142.389C780.014 142.407 781.911 142.871 783.629 143.743Z" fill="#8394C5"/>
<path d="M787.337 136.854H792.978V142.947H796.426V147.347H792.978V152.544C792.978 154.077 793.356 154.794 794.253 154.794C794.762 154.762 795.252 154.59 795.669 154.296L797.064 158.856C795.779 159.509 794.36 159.857 792.918 159.872C788.413 159.872 787.337 156.526 787.337 153.619V147.347H784.965V142.947H787.337V136.854Z" fill="#8394C5"/>
<path d="M796.07 123.871H729.674C725.983 123.887 722.411 125.182 719.569 127.535L675.318 164.113C674.648 163.619 673.839 163.347 673.006 163.336C672.218 163.336 671.447 163.57 670.791 164.007C670.136 164.445 669.625 165.067 669.323 165.795C669.021 166.522 668.942 167.323 669.096 168.096C669.25 168.868 669.63 169.578 670.187 170.135C670.745 170.691 671.455 171.071 672.228 171.224C673.002 171.378 673.803 171.299 674.532 170.998C675.26 170.696 675.883 170.186 676.321 169.531C676.759 168.876 676.993 168.106 676.993 167.319C676.983 166.739 676.847 166.168 676.594 165.646L720.206 129.526C723.07 127.156 726.673 125.86 730.392 125.862H796.07C796.334 125.862 796.588 125.757 796.775 125.571C796.962 125.384 797.067 125.131 797.067 124.867C797.062 124.604 796.955 124.354 796.769 124.168C796.583 123.983 796.333 123.876 796.07 123.871Z" fill="#D8DFF0"/>
<path d="M74.0095 605.936C79.1321 605.936 82.9991 608.584 82.9991 614.04C82.9991 619.495 79.1321 622.482 74.0095 622.482H70.4017V632.239H64.4219V605.936H74.0095ZM72.0162 617.703C74.3682 617.703 76.6007 616.907 76.6007 614.239C76.6007 611.571 74.3682 610.714 72.0162 610.714H70.3219V617.703H72.0162Z" fill="#8394C5"/>
<path d="M85.7109 604.82H91.2921V632.239H85.7109V604.82Z" fill="#8394C5"/>
<path d="M102.074 615.413C104.054 615.347 105.98 616.062 107.436 617.404V615.851H113.077V632.199H107.496V630.347C106.812 631.084 105.982 631.672 105.06 632.073C104.137 632.474 103.14 632.68 102.134 632.676C99.9089 632.57 97.8102 631.612 96.2733 630.001C94.7363 628.39 93.8789 626.25 93.8789 624.025C93.8789 621.799 94.7363 619.659 96.2733 618.049C97.8102 616.438 99.9089 615.48 102.134 615.373L102.074 615.413ZM103.749 627.898C104.261 627.926 104.774 627.847 105.255 627.665C105.735 627.484 106.172 627.204 106.538 626.844C106.904 626.484 107.19 626.052 107.379 625.575C107.568 625.098 107.656 624.587 107.635 624.075C107.673 623.551 107.603 623.024 107.428 622.529C107.253 622.034 106.978 621.579 106.62 621.195C106.262 620.81 105.828 620.503 105.346 620.294C104.864 620.084 104.344 619.976 103.818 619.976C103.292 619.976 102.772 620.084 102.29 620.294C101.808 620.503 101.374 620.81 101.016 621.195C100.658 621.579 100.383 622.034 100.208 622.529C100.034 623.024 99.9633 623.551 100.001 624.075C99.9762 624.576 100.055 625.078 100.234 625.548C100.412 626.018 100.686 626.445 101.038 626.805C101.39 627.164 101.812 627.446 102.279 627.634C102.745 627.822 103.246 627.912 103.749 627.898Z" fill="#8394C5"/>
<path d="M116.906 615.892H122.547V617.604C123.757 616.284 125.442 615.497 127.231 615.414C130.241 615.414 134.427 616.907 134.427 621.388V632.16H128.826V622.921C128.85 622.518 128.793 622.114 128.657 621.734C128.522 621.353 128.311 621.004 128.038 620.706C127.764 620.409 127.434 620.17 127.066 620.003C126.698 619.836 126.3 619.745 125.896 619.735C125.043 619.762 124.23 620.101 123.612 620.689C122.995 621.277 122.615 622.071 122.547 622.921V632.16H116.906V615.892Z" fill="#8394C5"/>
<path d="M65.0396 598.468H126.133C127.044 598.468 127.946 598.289 128.788 597.94C129.629 597.592 130.394 597.082 131.038 596.438C131.682 595.795 132.193 595.031 132.542 594.19C132.89 593.349 133.07 592.448 133.07 591.538V544.069C134.009 543.826 134.828 543.25 135.372 542.448C135.917 541.646 136.15 540.673 136.028 539.711C135.905 538.75 135.436 537.865 134.708 537.225C133.98 536.584 133.043 536.23 132.073 536.23C131.103 536.23 130.166 536.584 129.438 537.225C128.71 537.865 128.24 538.75 128.118 539.711C127.996 540.673 128.229 541.646 128.773 542.448C129.318 543.25 130.137 543.826 131.076 544.069V591.18C131.076 592.585 130.518 593.932 129.523 594.925C128.529 595.919 127.18 596.477 125.774 596.477H65.0396C64.7753 596.477 64.5218 596.581 64.3349 596.768C64.148 596.955 64.043 597.208 64.043 597.472C64.043 597.736 64.148 597.989 64.3349 598.176C64.5218 598.363 64.7753 598.468 65.0396 598.468Z" fill="#D8DFF0"/>
<path d="M387.849 605.936C389.621 605.867 391.388 606.156 393.046 606.786C394.703 607.416 396.216 608.373 397.495 609.602C398.773 610.83 399.789 612.303 400.484 613.933C401.178 615.563 401.536 617.316 401.536 619.087C401.536 620.859 401.178 622.612 400.484 624.242C399.789 625.872 398.773 627.345 397.495 628.573C396.216 629.801 394.703 630.759 393.046 631.389C391.388 632.019 389.621 632.308 387.849 632.239H380.234V605.936H387.849ZM387.151 626.883C389.152 626.782 391.038 625.916 392.419 624.466C393.8 623.015 394.57 621.089 394.57 619.087C394.57 617.086 393.8 615.16 392.419 613.709C391.038 612.258 389.152 611.393 387.151 611.292H386.234V626.883H387.151Z" fill="#8394C5"/>
<path d="M408.459 624.853C408.453 625.31 408.541 625.763 408.718 626.185C408.895 626.607 409.157 626.988 409.489 627.303C409.82 627.619 410.212 627.863 410.642 628.021C411.072 628.178 411.53 628.245 411.987 628.218C412.751 628.281 413.519 628.148 414.217 627.831C414.915 627.514 415.519 627.023 415.973 626.406L419.96 628.397C419.079 629.819 417.822 630.97 416.326 631.722C414.831 632.474 413.157 632.798 411.489 632.658C410.316 632.714 409.145 632.532 408.045 632.123C406.945 631.713 405.94 631.085 405.091 630.276C404.241 629.467 403.565 628.494 403.103 627.417C402.641 626.339 402.402 625.179 402.402 624.006C402.402 622.834 402.641 621.674 403.103 620.596C403.565 619.518 404.241 618.545 405.091 617.737C405.94 616.928 406.945 616.299 408.045 615.89C409.145 615.481 410.316 615.298 411.489 615.355C412.657 615.257 413.832 615.413 414.934 615.812C416.036 616.211 417.038 616.844 417.871 617.667C418.705 618.49 419.35 619.484 419.762 620.58C420.174 621.676 420.344 622.848 420.259 624.016C420.279 624.275 420.279 624.534 420.259 624.793L408.459 624.853ZM414.837 621.726C414.776 620.967 414.417 620.263 413.838 619.767C413.26 619.271 412.508 619.023 411.748 619.078C411.366 619.037 410.981 619.074 410.614 619.186C410.247 619.298 409.907 619.484 409.615 619.732C409.322 619.979 409.083 620.284 408.911 620.627C408.74 620.97 408.64 621.344 408.618 621.726H414.837Z" fill="#8394C5"/>
<path d="M435.469 616.688L433.615 620.392C432.491 619.798 431.256 619.445 429.987 619.357C428.732 619.357 428.233 619.576 428.233 620.352C428.233 621.129 429.369 621.467 430.785 621.905C432.957 622.582 435.768 623.797 435.768 627.142C435.768 631.961 431.363 632.717 428.014 632.717C425.716 632.751 423.479 631.976 421.695 630.527L423.988 626.664C425.12 627.64 426.499 628.287 427.974 628.536C428.771 628.536 429.728 628.536 429.728 627.361C429.728 626.186 427.954 626.087 426.1 625.131C425.16 624.81 424.338 624.212 423.744 623.416C423.15 622.62 422.811 621.663 422.772 620.671C422.772 617.326 425.622 615.414 429.927 615.414C431.848 615.408 433.744 615.844 435.469 616.688Z" fill="#8394C5"/>
<path d="M444.815 609.121C444.815 609.782 444.618 610.429 444.25 610.979C443.882 611.529 443.359 611.958 442.747 612.211C442.135 612.464 441.462 612.531 440.813 612.401C440.163 612.272 439.566 611.954 439.098 611.486C438.63 611.018 438.311 610.422 438.182 609.773C438.052 609.124 438.119 608.452 438.372 607.84C438.626 607.229 439.055 606.707 439.605 606.339C440.156 605.972 440.804 605.775 441.466 605.775C442.352 605.781 443.201 606.135 443.828 606.761C444.455 607.387 444.809 608.235 444.815 609.121ZM438.516 632.238H444.157V615.891H438.516V632.238Z" fill="#8394C5"/>
<path d="M452.092 633.992C452.578 634.702 453.243 635.271 454.02 635.642C454.797 636.013 455.659 636.172 456.517 636.102C457.035 636.133 457.554 636.056 458.04 635.876C458.527 635.697 458.972 635.419 459.346 635.06C459.72 634.701 460.016 634.269 460.215 633.791C460.415 633.312 460.513 632.798 460.504 632.279V631.065C459.775 631.699 458.922 632.174 457.998 632.459C457.075 632.743 456.102 632.831 455.142 632.717C452.917 632.611 450.818 631.653 449.281 630.042C447.744 628.431 446.887 626.291 446.887 624.066C446.887 621.84 447.744 619.7 449.281 618.09C450.818 616.479 452.917 615.521 455.142 615.414C457.088 615.37 458.975 616.084 460.404 617.405H460.444V615.952H466.085V632.737C466.085 638.233 462.098 641.06 456.457 641.06C453.049 641.06 449.122 640.304 447.388 636.321L452.092 633.992ZM456.836 627.899C457.342 627.915 457.846 627.828 458.317 627.641C458.788 627.455 459.215 627.174 459.573 626.815C459.93 626.456 460.209 626.028 460.393 625.557C460.578 625.085 460.663 624.581 460.643 624.076C460.681 623.552 460.611 623.026 460.436 622.53C460.261 622.035 459.986 621.581 459.628 621.196C459.27 620.811 458.836 620.505 458.354 620.295C457.872 620.085 457.352 619.977 456.826 619.977C456.3 619.977 455.78 620.085 455.298 620.295C454.816 620.505 454.382 620.811 454.024 621.196C453.666 621.581 453.391 622.035 453.216 622.53C453.042 623.026 452.971 623.552 453.009 624.076C452.983 624.585 453.065 625.093 453.248 625.569C453.431 626.044 453.712 626.476 454.073 626.836C454.433 627.196 454.866 627.477 455.342 627.66C455.818 627.843 456.327 627.924 456.836 627.899Z" fill="#8394C5"/>
<path d="M469.97 615.892H475.611V617.604C476.209 616.949 476.931 616.418 477.735 616.042C478.538 615.666 479.409 615.453 480.295 615.414C483.285 615.414 487.471 616.907 487.471 621.388V632.16H481.83V622.921C481.854 622.518 481.797 622.114 481.662 621.734C481.526 621.353 481.316 621.004 481.042 620.706C480.769 620.409 480.438 620.17 480.07 620.003C479.702 619.836 479.304 619.745 478.9 619.735C478.045 619.761 477.23 620.1 476.609 620.687C475.988 621.275 475.604 622.07 475.532 622.921V632.16H469.891L469.97 615.892Z" fill="#8394C5"/>
<path d="M381.469 598.468H479.139C480.979 598.468 482.743 597.738 484.044 596.438C485.345 595.139 486.076 593.376 486.076 591.538V544.069C487.015 543.826 487.834 543.25 488.378 542.448C488.923 541.646 489.156 540.673 489.034 539.711C488.911 538.75 488.442 537.865 487.714 537.225C486.986 536.584 486.049 536.23 485.079 536.23C484.109 536.23 483.172 536.584 482.444 537.225C481.716 537.865 481.246 538.75 481.124 539.711C481.002 540.673 481.235 541.646 481.78 542.448C482.324 543.25 483.143 543.826 484.082 544.069V591.18C484.082 592.585 483.524 593.932 482.529 594.925C481.535 595.919 480.186 596.477 478.78 596.477H381.469C381.205 596.477 380.951 596.581 380.765 596.768C380.578 596.955 380.473 597.208 380.473 597.472C380.473 597.736 380.578 597.989 380.765 598.176C380.951 598.363 381.205 598.468 381.469 598.468Z" fill="#D8DFF0"/>
<path d="M712.352 598.469H817.536C818.446 598.469 819.347 598.289 820.188 597.941C821.028 597.592 821.792 597.082 822.434 596.438C823.077 595.794 823.586 595.03 823.932 594.189C824.279 593.349 824.456 592.448 824.453 591.539V544.07C824.961 543.94 825.439 543.711 825.858 543.396C826.278 543.081 826.631 542.687 826.898 542.236C827.165 541.784 827.339 541.285 827.412 540.766C827.485 540.247 827.455 539.718 827.323 539.211C827.138 538.508 826.763 537.869 826.239 537.363C825.715 536.858 825.063 536.505 824.353 536.344C823.35 536.153 822.311 536.354 821.452 536.906C820.593 537.457 819.978 538.318 819.735 539.309C819.493 540.3 819.64 541.346 820.147 542.232C820.654 543.118 821.482 543.776 822.46 544.07V591.181C822.462 591.875 822.328 592.564 822.063 593.206C821.799 593.849 821.411 594.433 820.92 594.925C820.429 595.417 819.846 595.807 819.204 596.074C818.561 596.34 817.873 596.477 817.178 596.477H712.352C712.088 596.477 711.834 596.582 711.647 596.769C711.46 596.956 711.355 597.209 711.355 597.473C711.355 597.737 711.46 597.99 711.647 598.177C711.834 598.364 712.088 598.469 712.352 598.469Z" fill="#D8DFF0"/>
<path d="M716.816 626.982H725.886V632.239H710.816V605.936H716.796L716.816 626.982Z" fill="#8394C5"/>
<path d="M735.793 615.413C737.774 615.34 739.702 616.056 741.155 617.404V615.851H746.816V632.199H741.215V630.347C740.531 631.084 739.701 631.672 738.778 632.073C737.855 632.474 736.859 632.68 735.853 632.676C733.628 632.57 731.529 631.612 729.992 630.001C728.455 628.39 727.598 626.25 727.598 624.025C727.598 621.799 728.455 619.659 729.992 618.049C731.529 616.438 733.628 615.48 735.853 615.373L735.793 615.413ZM737.487 627.898C737.993 627.914 738.498 627.827 738.968 627.64C739.439 627.454 739.867 627.173 740.224 626.814C740.581 626.455 740.86 626.027 741.045 625.556C741.229 625.084 741.314 624.58 741.294 624.075C741.332 623.551 741.262 623.024 741.087 622.529C740.912 622.034 740.637 621.579 740.279 621.195C739.921 620.81 739.487 620.503 739.005 620.294C738.523 620.084 738.003 619.976 737.477 619.976C736.951 619.976 736.431 620.084 735.949 620.294C735.467 620.503 735.033 620.81 734.675 621.195C734.317 621.579 734.042 622.034 733.867 622.529C733.693 623.024 733.622 623.551 733.66 624.075C733.634 624.585 733.716 625.095 733.901 625.572C734.085 626.049 734.368 626.482 734.731 626.843C735.093 627.203 735.528 627.484 736.006 627.665C736.485 627.847 736.996 627.926 737.507 627.898H737.487Z" fill="#8394C5"/>
<path d="M755.946 623.656C755.946 626.882 756.823 628.136 759.175 628.136C761.527 628.136 762.404 626.882 762.404 623.656V615.891H768.045V625.03C768.045 630.526 765.294 632.716 759.175 632.716C753.055 632.716 750.305 630.526 750.305 625.03V615.891H755.946V623.656Z" fill="#8394C5"/>
<path d="M771.552 615.892H777.193V617.604C777.795 616.948 778.52 616.417 779.327 616.042C780.134 615.666 781.007 615.453 781.897 615.414C784.887 615.414 789.073 616.907 789.073 621.388V632.16H783.412V622.921C783.436 622.518 783.379 622.114 783.243 621.734C783.108 621.353 782.897 621.004 782.624 620.706C782.35 620.409 782.02 620.17 781.652 620.003C781.284 619.836 780.886 619.745 780.482 619.735C779.629 619.762 778.816 620.101 778.198 620.689C777.581 621.277 777.201 622.071 777.133 622.921V632.16H771.492L771.552 615.892Z" fill="#8394C5"/>
<path d="M797.445 624.054C797.445 625.093 797.851 626.091 798.577 626.835C799.304 627.58 800.292 628.011 801.332 628.037C802.305 628.053 803.262 627.783 804.083 627.26L806.076 631.242C804.449 632.297 802.531 632.812 800.595 632.716C799.261 632.631 797.965 632.239 796.808 631.571C795.651 630.903 794.665 629.977 793.925 628.865C793.186 627.753 792.713 626.485 792.545 625.161C792.377 623.837 792.518 622.492 792.956 621.231C793.395 619.97 794.119 618.827 795.072 617.892C796.026 616.956 797.183 616.254 798.453 615.839C799.723 615.424 801.072 615.308 802.394 615.5C803.717 615.692 804.977 616.187 806.076 616.946L804.083 620.789C803.258 620.277 802.303 620.014 801.332 620.032C800.285 620.058 799.291 620.495 798.563 621.247C797.836 622 797.434 623.008 797.445 624.054Z" fill="#8394C5"/>
<path d="M808.285 604.82H813.926V617.604C814.528 616.948 815.253 616.417 816.06 616.041C816.867 615.665 817.74 615.452 818.63 615.413C821.62 615.413 825.806 616.907 825.806 621.387V632.159H820.225V622.92C820.246 622.516 820.186 622.112 820.049 621.731C819.911 621.351 819.698 621.002 819.423 620.705C819.148 620.408 818.817 620.169 818.447 620.002C818.078 619.835 817.68 619.744 817.275 619.734C816.422 619.761 815.609 620.101 814.991 620.688C814.374 621.276 813.994 622.071 813.926 622.92V632.159H808.285V604.82Z" fill="#8394C5"/>
</g>
<defs>
<clipPath id="clip0_271_29618">
<rect width="976" height="641" fill="white"/>
</clipPath>
</defs>
</svg>
