<svg width="314" height="87" viewBox="0 0 314 87" fill="none" xmlns="http://www.w3.org/2000/svg">
<g clip-path="url(#clip0_323_31760)">
<mask id="mask0_323_31760" style="mask-type:luminance" maskUnits="userSpaceOnUse" x="0" y="0" width="314" height="87">
<path d="M314 0H0V87H314V0Z" fill="white"/>
</mask>
<g mask="url(#mask0_323_31760)">
<path d="M73.823 76.0778C70.7548 76.0778 68.3422 75.2189 66.5854 73.5013C64.9275 71.9101 63.9997 70.0789 63.8018 68.0077L67.9216 66.8712C68.2185 68.5129 68.8866 69.8011 69.926 70.7356C70.9898 71.6954 72.3137 72.1753 73.8973 72.1753C75.2335 72.1753 76.3966 71.8091 77.3861 71.0766C78.3266 70.3442 78.7966 69.4223 78.7966 68.3108C78.7966 67.25 78.438 66.3786 77.7202 65.6965C77.0023 65.0146 76.0255 64.5347 74.788 64.2569L71.4477 63.5749C69.295 63.1202 67.6248 62.211 66.437 60.847C65.2245 59.5084 64.6183 57.917 64.6183 56.0732C64.5688 53.8505 65.4473 51.893 67.2535 50.2007C69.0598 48.5084 71.1507 47.6875 73.5262 47.738C76.9407 47.7632 79.4402 48.8115 81.0235 50.8827C81.9143 51.9435 82.4955 53.1685 82.768 54.5578L78.7966 55.808C78.5242 54.722 77.9303 53.7621 77.015 52.9286C76.0998 52.0951 74.9736 51.6784 73.6374 51.6784C72.3013 51.6784 71.2002 52.0699 70.3342 52.8529C69.4186 53.6357 68.9609 54.5704 68.9609 55.6564C68.9609 56.4899 69.2701 57.2604 69.8887 57.9676C70.5321 58.6495 71.3611 59.1042 72.3756 59.3315L75.7901 60.0134C78.1656 60.4933 79.9843 61.428 81.2463 62.8171C82.5326 64.2064 83.1763 65.9366 83.1763 68.0077C83.1763 70.1042 82.3723 71.948 80.7637 73.5393C79.032 75.2316 76.7181 76.0778 73.823 76.0778Z" fill="#293345"/>
<path d="M106.353 70.2809H106.39L110.288 56.9446H114.519L108.58 75.7746H104.349L100.081 62.552H100.006L95.7009 75.7746H91.5069L85.6055 56.9446H89.8738L93.771 70.2431H93.808L98.002 56.9446H102.122L106.353 70.2809Z" fill="#293345"/>
<path d="M120.062 53.6105C119.344 53.6105 118.713 53.3327 118.169 52.777C117.625 52.2214 117.353 51.5773 117.353 50.8448C117.353 50.087 117.625 49.4302 118.169 48.8747C118.689 48.3189 119.32 48.0411 120.062 48.0411C120.829 48.0411 121.472 48.3189 121.992 48.8747C122.512 49.4051 122.771 50.0618 122.771 50.8448C122.771 51.6025 122.512 52.2466 121.992 52.777C121.448 53.3327 120.804 53.6105 120.062 53.6105ZM118.021 75.7746V56.9446H122.14V75.7746H118.021Z" fill="#293345"/>
<path d="M133.49 60.6575V75.7746H129.333V60.6575H125.807V56.9446H129.333V54.7472C129.333 51.994 130.013 49.986 131.374 48.7231C132.661 47.5613 134.257 46.9802 136.162 46.9802C137.201 46.9802 137.969 47.0813 138.463 47.2834V50.8449C138.067 50.7438 137.572 50.6933 136.978 50.6933C135.939 50.6933 135.074 51.0469 134.38 51.7541C133.787 52.4109 133.49 53.3959 133.49 54.7093V56.9446H138.315V60.6575H133.49Z" fill="#293345"/>
<path d="M152.155 56.9446V60.7334H147.478V69.7127C147.478 70.5462 147.701 71.165 148.146 71.5692C148.591 71.948 149.308 72.1374 150.299 72.1374C150.793 72.1374 151.349 72.0869 151.97 71.9859V75.5852C151.053 75.8375 150.077 75.9641 149.037 75.9641C147.131 75.9641 145.708 75.5094 144.768 74.6001C143.828 73.6908 143.358 72.1374 143.358 69.94V60.7334H139.795V56.9446H143.358V51.11H147.478V56.9446H152.155Z" fill="#293345"/>
<path d="M181.16 56.149L177.003 57.475C176.656 56.1363 175.864 54.8987 174.627 53.7621C173.217 52.4487 171.374 51.7919 169.098 51.7919C167.365 51.7919 165.782 52.2214 164.346 53.0801C162.936 53.9894 161.822 55.2145 161.006 56.7552C160.189 58.3212 159.781 60.0514 159.781 61.9457C159.732 64.7494 160.598 67.149 162.38 69.1443C164.186 71.1397 166.413 72.1247 169.061 72.0996C171.312 72.0996 173.143 71.5186 174.554 70.3567C175.964 69.1696 176.818 67.6793 177.114 65.8861H167.428V61.9457H181.716V63.4612C181.716 66.9721 180.604 69.94 178.376 72.3647C176.1 74.8401 173.007 76.0778 169.098 76.0778C166.425 76.0778 164.05 75.4715 161.972 74.2591C159.842 72.9961 158.21 71.3166 157.072 69.2202C155.934 67.0733 155.364 64.6736 155.364 62.0216C155.364 60.0261 155.723 58.1191 156.441 56.3005C157.109 54.5578 158.062 53.055 159.3 51.7919C161.946 49.0893 165.225 47.738 169.135 47.738C172.228 47.738 174.838 48.5589 176.966 50.2007C179.094 51.8173 180.492 53.8 181.16 56.149Z" fill="#293345"/>
<path d="M196.005 56.8689V61.1881C195.684 61.1123 195.299 61.0744 194.854 61.0744C193.296 61.0744 192.095 61.5164 191.253 62.4005C190.437 63.2845 190.029 64.5474 190.029 66.1891V75.7747H185.909V56.9446H189.955V59.862C190.474 58.877 191.18 58.1192 192.07 57.5888C192.986 57.0584 193.963 56.7931 195.002 56.7931C195.275 56.7931 195.609 56.8184 196.005 56.8689Z" fill="#293345"/>
<path d="M213.402 75.7746H209.393C209.269 75.1937 209.208 74.3349 209.208 73.1982C208.589 74.2338 207.796 74.979 206.832 75.4337C205.842 75.8883 204.828 76.1156 203.788 76.1156C201.983 76.1156 200.498 75.5852 199.335 74.5243C198.172 73.4887 197.59 72.1626 197.59 70.5462V70.3567C197.615 67.9571 198.802 66.2901 201.153 65.3555C202.415 64.8505 203.777 64.5979 205.236 64.5979H207.538C208.676 64.5979 209.244 64.0675 209.244 63.0065C209.244 62.1984 208.936 61.5164 208.317 60.9607C207.648 60.4051 206.745 60.1272 205.607 60.1272C204.519 60.1272 203.616 60.4176 202.898 60.9985C202.18 61.5543 201.747 62.3119 201.599 63.2718L197.85 62.4004C197.974 61.5164 198.394 60.5692 199.112 59.5589C199.879 58.5486 200.845 57.7908 202.007 57.2856C203.022 56.8057 204.271 56.5658 205.755 56.5658C209.22 56.5658 211.521 57.854 212.659 60.4303C213.081 61.3648 213.29 62.4762 213.29 63.7644V72.7437C213.29 74.0065 213.327 75.0168 213.402 75.7746ZM209.208 68.1592V67.5531H205.236C204.371 67.5531 203.566 67.7804 202.823 68.2351C202.082 68.715 201.709 69.3591 201.709 70.1673C201.709 70.9503 201.983 71.5818 202.527 72.0617C203.071 72.5163 203.777 72.7437 204.641 72.7437C206.053 72.7437 207.165 72.3268 207.982 71.4933C208.8 70.6598 209.208 69.5485 209.208 68.1592Z" fill="#293345"/>
<path d="M217.305 66.3406C217.305 63.8653 218.109 61.6426 219.717 59.6724C221.449 57.6013 223.713 56.5657 226.509 56.5657C227.499 56.5657 228.576 56.8309 229.739 57.3614C230.952 57.8665 231.867 58.6243 232.484 59.6346V47.056H236.605V75.7746H232.559V72.8193C232.114 73.5771 231.483 74.2212 230.666 74.7516C229.826 75.2315 229.045 75.5725 228.328 75.7746C227.586 75.9768 226.943 76.0777 226.397 76.0777C224.691 76.0777 223.132 75.6103 221.722 74.6758C220.336 73.7917 219.247 72.5921 218.455 71.0766C217.689 69.5611 217.305 67.9824 217.305 66.3406ZM232.522 66.3406C232.522 64.6483 232.015 63.2339 231 62.0973C229.96 60.9606 228.625 60.3924 226.992 60.3924C225.383 60.3924 224.06 60.9606 223.021 62.0973C221.982 63.2844 221.461 64.6989 221.461 66.3406C221.461 67.9824 221.982 69.3842 223.021 70.5462C224.06 71.6827 225.383 72.2511 226.992 72.2511C228.625 72.2511 229.96 71.6827 231 70.5462C232.015 69.4095 232.522 68.0076 232.522 66.3406Z" fill="#293345"/>
<path d="M259.089 67.591H245.059C245.085 68.9549 245.653 70.1294 246.767 71.1145C247.881 72.0744 249.117 72.5416 250.478 72.5163C253.051 72.5163 254.684 71.4555 255.378 69.3337L258.83 70.4325C258.507 71.5692 257.914 72.5794 257.048 73.4635C256.206 74.3475 255.216 75.0168 254.079 75.4715C252.891 75.9012 251.704 76.1156 250.515 76.1156C247.843 76.1663 245.554 75.2316 243.649 73.3119C241.744 71.3923 240.816 69.0686 240.865 66.3406C240.865 64.5727 241.261 62.9435 242.054 61.4532C242.87 59.9126 243.983 58.7254 245.394 57.8919C246.828 57.0078 248.412 56.5658 250.145 56.5658C252.966 56.5658 255.167 57.4624 256.751 59.2558C258.359 61.049 259.164 63.3982 259.164 66.3028C259.164 66.6564 259.138 67.0858 259.089 67.591ZM250.182 60.165C248.871 60.165 247.781 60.5567 246.915 61.3395C246 62.0973 245.456 63.1203 245.282 64.4085H254.97C254.895 63.1454 254.413 62.11 253.522 61.3017C252.582 60.544 251.468 60.165 250.182 60.165Z" fill="#293345"/>
<path fill-rule="evenodd" clip-rule="evenodd" d="M26.1767 81.7859C28.9128 78.4547 31.4875 74.982 33.8912 71.381C35.3764 69.1563 36.7678 66.8324 36.2915 64.205C35.7523 61.2303 30.8826 57.4921 21.3764 54.5175C18.3974 53.5872 15.3618 52.868 12.2902 52.3646C15.704 50.0104 18.9753 47.5906 22.2336 45.0093C24.1639 43.4801 26.0185 41.951 27.8911 40.3448C27.9713 40.2865 28.0312 40.2026 28.0622 40.1057C28.093 40.0084 28.0931 39.9037 28.0625 39.8067C27.9735 39.6476 27.6498 39.578 27.3768 39.8067C25.3761 41.1857 23.1892 42.6847 21.3764 43.9328C18.5688 45.8657 15.9573 47.6138 12.1188 47.8795C10.6811 47.9766 9.23754 47.8557 7.83285 47.5208C7.70206 47.419 7.6008 47.2813 7.54023 47.1231C7.47973 46.9646 7.46236 46.792 7.48998 46.6238C7.53474 46.4052 7.65737 46.2129 7.83285 46.0856C9.28289 45.7756 10.6938 45.4218 12.1188 45.0093C17.6449 43.4056 22.9471 41.0535 27.8911 38.0126C28.1277 37.8734 28.2605 37.7231 28.2338 37.6538C28.2074 37.5847 28.0025 37.5694 27.7195 37.6538C26.3754 38.1067 25.082 38.5772 23.7765 39.0891C17.5225 41.5409 13.8769 43.783 8.3472 43.5739C7.01969 43.5236 5.69961 43.3433 4.40413 43.0359C3.48935 42.8205 2.85795 42.4631 2.86121 42.1387C2.8648 41.7819 3.63868 41.3719 4.91844 41.2419C7.34171 41.0425 9.72093 40.7463 12.1188 40.3448C17.4257 39.4558 22.6463 38.0749 27.7195 36.2188C27.7438 36.1623 27.7566 36.1012 27.7566 36.0393C27.7566 35.9775 27.7438 35.9162 27.7195 35.8598C27.6796 35.7844 27.6202 35.7221 27.5481 35.6804C27.4414 35.6261 27.3241 35.5979 27.2053 35.5979C27.0865 35.5979 26.9692 35.6261 26.8624 35.6804C22.6623 36.9018 18.2779 37.8808 14.3475 38.3715C10.7907 38.8155 8.03862 38.755 5.43275 38.192C4.38604 37.9659 3.35508 37.6663 2.3469 37.2951C1.36353 37.0169 0.887796 36.4024 0.975398 36.0393C1.04277 35.7596 1.46245 35.5559 2.00402 35.5011C5.76465 35.8697 9.54382 35.9895 13.3189 35.8598C17.9808 35.7 22.6236 35.1603 27.2053 34.2452C27.4424 34.23 27.6748 34.1691 27.8911 34.0659C27.9674 34.0303 28.0285 33.9664 28.0625 33.8864C28.0828 33.8286 28.0828 33.7649 28.0625 33.7071C28.0033 33.5563 27.7489 33.4714 27.3768 33.5276C25.4857 33.5784 23.6107 33.6379 21.7192 33.7071C20.1516 33.7644 17.959 33.8318 17.0906 33.8864C15.2218 34.0039 13.647 34.1208 11.776 34.0659C9.20146 33.9902 7.19033 33.6532 5.43275 32.9895C3.8372 32.3857 2.33531 31.5395 0.975398 30.4778C0.0355817 29.6376 -0.164144 28.6659 0.118214 28.3251C0.360626 28.0327 1.06952 28.0719 1.83258 28.5046C3.9696 29.2812 6.14413 29.94 8.3472 30.4778C14.6923 32.019 21.2213 32.5631 27.7195 32.0925C27.7881 32.0962 27.8566 32.0849 27.9206 32.0592C27.9847 32.0336 28.0427 31.9941 28.0915 31.9434C28.1399 31.8926 28.1776 31.8317 28.2021 31.7647C28.2268 31.6977 28.2376 31.6259 28.2338 31.5542C28.2024 31.4406 28.1337 31.342 28.0396 31.2762C27.9454 31.2106 27.8319 31.1821 27.7195 31.1955C24.4546 31.2353 21.1905 31.0555 17.9478 30.6573C14.2762 30.2034 11.0016 29.4589 8.51861 28.5046C6.30605 27.6537 4.18094 26.5718 2.17545 25.2754C0.748069 23.7981 0.243706 22.4816 0.632526 21.8667C0.757839 21.6872 0.940137 21.5599 1.14684 21.5078C4.66695 23.4931 8.33652 25.173 12.1188 26.5311C17.4482 28.4442 22.9706 29.7084 28.5767 30.2985C28.6447 30.3113 28.7149 30.3006 28.7766 30.2684C28.8385 30.2361 28.8886 30.1836 28.9197 30.119C28.9396 30.0611 28.9396 29.9977 28.9197 29.9397C24.2324 28.8232 19.6594 27.4954 15.3761 25.9929C11.6756 24.6946 8.6062 23.3275 5.6042 20.4315C4.37957 19.2487 3.28683 17.9248 2.3469 16.4847C1.60749 15.4563 1.62033 14.471 2.00402 14.1525C2.26358 13.9373 2.69884 14.0214 3.03264 14.1525C5.27816 16.3237 7.68594 18.3033 10.233 20.0728C15.6904 23.853 21.7182 26.6431 28.0625 28.3251C28.3128 28.3451 28.5188 28.2755 28.5767 28.1456C28.6553 27.9699 28.4928 27.6167 28.0625 27.4279C24.4775 25.9898 20.9843 24.312 17.6048 22.4048C10.6822 18.4941 7.15108 14.9853 5.94707 11.1028C4.87696 7.65199 5.14235 3.89092 6.46139 0.159424C8.1793 4.06782 10.4316 7.69381 13.1474 10.9234C16.453 14.8415 21.2907 18.2456 27.3768 22.0462C32.2435 25.0857 36.4508 27.6059 40.7488 31.0162C42.6689 32.5394 44.1913 34.0931 46.0634 35.6804C47.4909 36.8909 48.5549 37.8009 49.6636 39.4477C52.4848 43.6386 52.7578 48.7136 52.4065 52.0057C51.7868 57.8149 48.7035 62.487 42.8061 68.3311C37.6869 73.3624 32.1183 77.8683 26.1767 81.7859ZM48.6349 31.5542C51.3242 30.2536 54.0563 29.7701 56.6924 30.2985C59.4973 30.8608 61.1238 32.3436 63.55 34.2452C65.2402 35.5701 67.0058 36.8207 68.8645 38.0126C66.5246 38.034 64.2154 38.5725 62.0884 39.5928C59.9611 40.613 58.064 42.092 56.5209 43.9328C56.9657 42.4654 57.3095 40.9665 57.5496 39.4477C57.9375 36.9888 57.8099 35.0314 57.3781 34.2452C56.1031 31.9245 52.7083 30.9316 48.6349 31.5542Z" fill="url(#paint0_linear_323_31760)"/>
</g>
</g>
<defs>
<linearGradient id="paint0_linear_323_31760" x1="-0.085352" y1="40.9728" x2="72.4994" y2="38.4446" gradientUnits="userSpaceOnUse">
<stop stop-color="#8FAAE5"/>
<stop offset="0.234375" stop-color="#93AEEB"/>
<stop offset="0.270833" stop-color="#93AFEC"/>
<stop offset="1" stop-color="#9FBDFF"/>
</linearGradient>
<clipPath id="clip0_323_31760">
<rect width="314" height="87" fill="white"/>
</clipPath>
</defs>
</svg>
