<svg width="20" height="20" viewBox="0 0 20 20" fill="none" xmlns="http://www.w3.org/2000/svg">
<path d="M3.82813 4.15324C4.13575 4.11738 4.43789 4.25507 4.61264 4.51077C5.84212 6.30977 7.31885 7.05816 8.95742 7.22842C9.03784 6.52743 9.227 5.83481 9.58259 5.22501C10.1042 4.3303 10.9525 3.6716 12.1643 3.4282C13.8388 3.09187 15.1138 3.69828 15.8537 4.44096L17.3468 4.16182C17.6658 4.10221 17.9903 4.23312 18.1787 4.49736C18.3669 4.76159 18.3848 5.11109 18.2243 5.3931L16.7913 7.9115C16.922 11.546 15.912 14.0824 13.7586 15.8299C12.6163 16.7568 10.9817 17.2826 9.18742 17.4449C7.37915 17.6085 5.33512 17.4107 3.30319 16.8173C2.9467 16.7132 2.70212 16.3858 2.70344 16.0145C2.70474 15.6431 2.95163 15.3174 3.30884 15.2158C4.33069 14.9252 5.10844 14.674 5.81148 14.2352C4.81276 13.705 4.07688 13.0118 3.55605 12.2216C2.83216 11.1232 2.56374 9.89867 2.51044 8.79425C2.45716 7.68995 2.61674 6.66715 2.78482 5.92896C2.88049 5.50874 2.99224 5.08657 3.14628 4.68327C3.25815 4.39261 3.52051 4.18911 3.82813 4.15324Z" fill="#8F8C98"/>
</svg>
