<svg width="158" height="52" viewBox="0 0 158 52" fill="none" xmlns="http://www.w3.org/2000/svg">
<path d="M0 20.3365H16.7533V20.9605H15.8527C14.3885 20.9605 14.2147 21.0073 14.2147 21.5793C14.2147 21.7717 14.2727 22.1045 14.3833 22.2969L19.7974 36.4981L22.8995 27.2681C23.2945 26.0253 23.5209 24.9281 23.5209 24.2053C23.5209 23.3421 23.1259 22.4373 22.5045 21.6209C22.0515 21.1425 21.488 20.9501 20.2503 20.9501H19.3497V20.3261H30.3465V20.9501H29.388C27.5289 20.5653 25.043 23.2901 23.5789 27.2629L18.5597 42.0413H11.4497L3.04413 22.2969C2.37 20.9553 2.31207 20.9085 1.24293 20.9553H0V20.3365Z" fill="#D5BFA0"/>
<path d="M33.0964 32.9199C33.0964 37.2515 33.2386 38.1771 34.1708 40.0647C34.7291 41.1723 35.6191 41.6299 37.157 41.6299C39.3058 41.6299 41.2176 40.7095 42.6185 38.9103C43.7403 37.5271 44.1143 36.4195 44.346 34.1159H44.9517C44.5777 36.7887 44.1564 37.9431 43.1294 39.3731C41.6337 41.4011 39.1162 42.5087 35.893 42.5087C32.4855 42.5087 29.2149 41.2191 27.2083 39.0975C25.5756 37.2983 24.6855 34.8543 24.6855 32.0463C24.6855 25.4059 29.3992 20.3359 35.5191 20.3359C38.8792 20.3359 41.6337 21.8127 43.4559 24.5323C44.7621 26.5135 45.1834 28.1255 45.2308 31.1727H33.0543L33.0964 32.9199ZM37.4888 30.5227V26.8359C37.4888 22.6863 36.9305 21.2147 35.34 21.2147C33.6599 21.2147 33.0543 22.6915 33.0964 26.7943V30.5279H37.4888V30.5227Z" fill="#D5BFA0"/>
<path d="M54.484 10.9297V38.7705C54.484 40.2941 54.9948 41.0273 56.1166 41.0741H57.5176V41.6721H43.3292V41.0793H44.5879C46.0836 40.9389 46.4576 40.5229 46.4102 38.9109V13.2385C46.505 12.3649 45.7097 11.6733 44.3562 11.5329H42.7656V10.9349H54.484V10.9297Z" fill="#D5BFA0"/>
<path d="M66.9549 10.9297V38.7705C66.9549 40.2941 67.4658 41.0273 68.5876 41.0741H69.9885V41.6721H55.7949V41.0793H57.0536C58.5493 40.9389 58.9233 40.5229 58.8759 38.9109V13.2385C58.9707 12.3649 58.1754 11.6733 56.8219 11.5329H53.9199V10.9349H66.9549V10.9297Z" fill="#D5BFA0"/>
<path d="M93.046 38.5425C93.046 42.2293 89.9281 42.3229 86.6101 42.3229C84.8352 42.3229 83.1078 41.7665 82.223 40.8929C81.6647 40.3417 81.196 39.4161 80.7746 38.0329C79.4211 41.3505 78.2045 42.2761 75.2657 42.2761C71.0155 42.2761 68.498 40.2481 68.498 36.7901C68.498 35.4069 68.9668 34.1173 69.8516 32.9629C70.5521 32.1309 72.1373 31.4445 74.5652 30.9817C77.1354 30.5189 79.142 29.5985 79.9372 28.5845C80.4955 27.8461 80.8694 26.1873 80.8694 24.2945C80.8694 21.8973 80.0742 21.0237 77.8833 21.0237C76.298 21.0237 74.8971 21.5801 74.1966 22.5005C75.5975 22.5941 76.2506 22.8229 76.8088 23.3741C77.6515 24.1125 78.115 25.2201 78.115 26.3225C78.115 28.4441 76.3401 30.1029 74.0544 30.1029C71.816 30.1029 70.0412 28.3505 70.0412 26.0937C70.0412 22.7293 73.8226 20.3789 79.2842 20.3789C82.8339 20.3789 85.4936 21.2109 87.0367 22.8697C88.2059 24.0709 88.4376 24.9445 88.4376 27.8461V39.5097C88.4376 40.3885 88.8958 40.8461 89.3172 40.8461C90.4864 40.8461 91.1131 40.6225 90.6391 36.6185L92.809 31.3717L93.046 38.5425ZM80.7746 28.4961C80.1216 29.1409 79.5159 29.6921 79.2789 29.8793C77.2723 31.4029 76.8036 32.3233 76.6667 35.0429V38.0381C76.6667 40.2533 76.9458 41.0801 77.741 41.0801C79.3263 41.0801 80.7746 37.8977 80.7746 34.4397V28.4961Z" fill="#D5BFA0"/>
<path d="M87.9531 11.2209H97.9914V23.2537C99.6715 20.9969 100.888 20.3053 102.942 20.3053C107.424 20.3053 110.41 24.4549 110.41 30.5857C110.41 37.3613 106.35 42.4781 101.025 42.4781C99.8084 42.4781 98.6445 42.1557 97.6175 41.5109C97.1961 41.2821 97.0592 41.0949 95.5161 39.4829C94.7208 38.6977 94.0677 38.3337 93.3673 38.3337C91.782 38.3337 90.9393 39.5765 90.8445 41.9269L90.3126 40.9805L90.2389 14.2213C90.2389 12.1465 90.0545 11.9177 88.7431 11.7773H87.9531V11.2209ZM97.9914 38.6041C97.9914 41.0013 98.6445 41.9217 100.467 41.9217C101.215 41.9217 101.82 41.4121 102.147 40.4917C102.426 39.8001 102.426 39.8001 102.521 34.6833C102.289 24.6369 102.289 24.6369 101.494 22.9729C101.309 22.5101 100.793 22.2345 100.277 22.2345C98.9236 22.2345 97.9914 23.7997 97.9914 25.9681V38.6041Z" fill="#D5BFA0"/>
<path d="M133.683 31.3547C133.683 34.6723 132.235 37.4387 129.343 39.7891C127.242 41.5415 124.956 42.4151 122.665 42.4151C117.204 42.4151 111.742 37.1579 111.742 31.9059C111.742 25.4527 116.74 20.3359 123.039 20.3359C128.78 20.3359 133.683 25.4059 133.683 31.3547ZM125.23 31.4431V26.9243C125.23 24.7559 124.904 22.6395 124.387 21.8075C124.108 21.2563 123.36 20.8403 122.755 20.8403C121.912 20.8403 120.98 21.5319 120.653 22.4107C120.137 23.7471 120.095 24.8079 120.095 32.1399C120.095 39.6539 120.701 41.9107 122.665 41.9107C123.413 41.9107 124.208 41.4479 124.488 40.8967C125.004 40.0231 125.235 37.8079 125.235 34.6723V31.4431H125.23Z" fill="#D5BFA0"/>
<path d="M128.465 41.7761H128.765C130.019 41.7761 130.819 41.2821 133.579 38.8069C135.433 37.0753 137.339 35.0421 139.746 32.1717L133.932 22.3645C133.179 21.1737 132.831 20.9813 131.778 20.9813H130.524V20.3365H145.919V20.9813L145.366 20.9293C144.412 20.9293 143.812 21.2725 143.812 21.8705C143.812 22.1669 143.965 22.5621 144.312 23.1549L146.972 27.5593L148.726 25.0841C149.126 24.4913 149.379 23.6957 149.379 22.7545C149.379 21.4181 148.926 20.9709 147.525 20.9709H147.272V20.3261H155.746V20.9709C155.446 20.9189 155.246 20.9189 155.093 20.9189C153.64 20.9189 151.686 22.4061 149.426 25.2765L147.272 28.0013L153.787 39.3477C154.94 41.3289 155.641 41.7241 158 41.7761V42.4209H142.306V41.7761C143.659 41.7761 144.312 41.3809 144.312 40.4865C144.312 40.0913 144.16 39.5973 143.812 38.9993L139.999 32.7593C136.791 36.5709 136.186 37.6109 136.186 39.3425C136.186 41.0741 137.239 41.7709 139.746 41.7709V42.4157H128.465V41.7761Z" fill="#D5BFA0"/>
</svg>
