<svg width="20" height="20" viewBox="0 0 20 20" fill="none" xmlns="http://www.w3.org/2000/svg">
<path fill-rule="evenodd" clip-rule="evenodd" d="M9.99996 1.6665C5.39758 1.6665 1.66663 5.39746 1.66663 9.99984C1.66663 11.5745 2.10417 13.0493 2.86459 14.3068L2.12147 16.8333C1.93348 17.4725 2.52733 18.0663 3.16642 17.8783L5.69305 17.1352C6.95044 17.8957 8.42529 18.3332 9.99996 18.3332C14.6023 18.3332 18.3333 14.6022 18.3333 9.99984C18.3333 5.39746 14.6023 1.6665 9.99996 1.6665ZM8.11513 11.8854C9.80054 13.5708 11.41 13.793 11.9782 13.8139C12.8425 13.8458 13.6841 13.1857 14.0122 12.42C14.0926 12.2325 14.0725 12.0069 13.9379 11.8343C13.4818 11.2503 12.8644 10.8318 12.2611 10.4152C12.0005 10.2348 11.642 10.2907 11.45 10.5461L10.9495 11.3087C10.8939 11.3933 10.7835 11.4223 10.6956 11.3721C10.3569 11.1784 9.86296 10.8482 9.50763 10.4928C9.15271 10.1379 8.84254 9.66634 8.66846 9.34942C8.62271 9.26609 8.64804 9.16317 8.72429 9.1065L9.49388 8.535C9.72338 8.33634 9.76371 7.9989 9.59479 7.75174C9.22079 7.20458 8.78513 6.50917 8.15454 6.04922C7.98232 5.92359 7.76446 5.90949 7.58458 5.98657C6.81804 6.31509 6.15474 7.15641 6.18661 8.0223C6.20753 8.59059 6.42973 10.2 8.11513 11.8854Z" fill="#8F8C98"/>
</svg>
