<svg width="20" height="20" viewBox="0 0 20 20" fill="none" xmlns="http://www.w3.org/2000/svg">
<path fill-rule="evenodd" clip-rule="evenodd" d="M9.99935 1.6665C5.39697 1.6665 1.66602 5.39746 1.66602 9.99984C1.66602 11.5745 2.10356 13.0493 2.86398 14.3068L2.12086 16.8333C1.93287 17.4725 2.52672 18.0663 3.16581 17.8783L5.69244 17.1352C6.94983 17.8957 8.42468 18.3332 9.99935 18.3332C14.6017 18.3332 18.3327 14.6022 18.3327 9.99984C18.3327 5.39746 14.6017 1.6665 9.99935 1.6665ZM8.11452 11.8854C9.79993 13.5708 11.4093 13.793 11.9776 13.8139C12.8419 13.8458 13.6835 13.1857 14.0116 12.42C14.092 12.2325 14.0719 12.0069 13.9373 11.8343C13.4812 11.2503 12.8638 10.8318 12.2605 10.4152C11.9998 10.2348 11.6414 10.2907 11.4494 10.5461L10.9488 11.3087C10.8933 11.3933 10.7828 11.4223 10.695 11.3721C10.3563 11.1784 9.86235 10.8482 9.50702 10.4928C9.1521 10.1379 8.84193 9.66634 8.66785 9.34942C8.6221 9.26609 8.64743 9.16317 8.72368 9.1065L9.49327 8.535C9.72277 8.33634 9.7631 7.9989 9.59418 7.75174C9.22018 7.20458 8.78451 6.50917 8.15393 6.04922C7.98171 5.92359 7.76385 5.90949 7.58397 5.98657C6.81743 6.31509 6.15413 7.15641 6.186 8.0223C6.20692 8.59059 6.42912 10.2 8.11452 11.8854Z" fill="white"/>
</svg>
