<svg width="104" height="104" viewBox="0 0 104 104" fill="none" xmlns="http://www.w3.org/2000/svg">
<path d="M11.252 56.4976C11.252 72.6267 20.6256 86.5654 34.218 93.1707L14.7799 39.9141C12.5189 44.9818 11.252 50.5901 11.252 56.4976Z" fill="white"/>
<path d="M79.5112 54.4426C79.5112 49.4067 77.7023 45.9191 76.1507 43.2045C74.0851 39.848 72.149 37.0055 72.149 33.6489C72.149 29.9031 74.99 26.4163 78.9917 26.4163C79.1724 26.4163 79.3438 26.4388 79.5198 26.4489C72.2699 19.8071 62.611 15.752 52.0022 15.752C37.7661 15.752 25.2414 23.0559 17.9551 34.1188C18.9111 34.1475 19.8121 34.1676 20.5774 34.1676C24.8397 34.1676 31.4375 33.6505 31.4375 33.6505C33.6341 33.521 33.8931 36.7473 31.6988 37.007C31.6988 37.007 29.4912 37.2668 27.0348 37.3955L41.8741 81.5331L50.7918 54.7885L44.443 37.3939C42.2486 37.2652 40.1698 37.0055 40.1698 37.0055C37.9739 36.8768 38.2314 33.5194 40.4272 33.6489C40.4272 33.6489 47.1568 34.1661 51.1609 34.1661C55.4224 34.1661 62.0209 33.6489 62.0209 33.6489C64.2191 33.5194 64.4773 36.7457 62.2822 37.0055C62.2822 37.0055 60.07 37.2652 57.6183 37.3939L72.3444 81.1974L76.4089 67.6153C78.1706 61.9792 79.5112 57.931 79.5112 54.4426Z" fill="white"/>
<path d="M52.7165 60.0625L40.4902 95.5889C44.1407 96.662 48.0014 97.249 52.0016 97.249C56.7469 97.249 61.2977 96.4286 65.5336 94.9392C65.4242 94.7647 65.325 94.5794 65.2436 94.3778L52.7165 60.0625Z" fill="white"/>
<path d="M87.7575 36.9473C87.9327 38.2452 88.032 39.6386 88.032 41.1373C88.032 45.2724 87.2597 49.9207 84.9336 55.7328L72.4863 91.7198C84.6009 84.6554 92.7494 71.5309 92.7494 56.4981C92.7502 49.4136 90.9405 42.7516 87.7575 36.9473Z" fill="white"/>
<path d="M52.0016 9C25.8099 9 4.5 30.3078 4.5 56.4988C4.5 82.693 25.8099 104 52.0016 104C78.1925 104 99.5054 82.693 99.5054 56.4988C99.5047 30.3078 78.1925 9 52.0016 9ZM52.0016 101.823C27.0109 101.823 6.67805 81.4904 6.67805 56.4988C6.67805 31.5088 27.0102 11.178 52.0016 11.178C76.9914 11.178 97.3227 31.5088 97.3227 56.4988C97.3227 81.4904 76.9914 101.823 52.0016 101.823Z" fill="white"/>
</svg>
