<svg width="68" height="116" viewBox="0 0 68 116" fill="none" xmlns="http://www.w3.org/2000/svg">
<path d="M3.31199 22.4204V15.7964M6.62397 19.1084H0H6.62397Z" stroke="#EEEEEE" stroke-miterlimit="10"/>
<path d="M3.31199 6.62397V0M6.62397 3.31199H0H6.62397Z" stroke="#EEEEEE" stroke-miterlimit="10"/>
<path d="M3.31199 22.4204V15.7964M6.62397 19.1084H0H6.62397Z" stroke="#EEEEEE" stroke-width="2" stroke-miterlimit="10"/>
<path d="M3.31199 6.62397V0M6.62397 3.31199H0H6.62397Z" stroke="#EEEEEE" stroke-width="2" stroke-miterlimit="10"/>
<path d="M18.5971 22.4189V15.7949M21.9091 19.1069H15.2852H21.9091Z" stroke="#EEEEEE" stroke-miterlimit="10"/>
<path d="M18.5971 6.62397V0M21.9091 3.31199H15.2852H21.9091Z" stroke="#EEEEEE" stroke-miterlimit="10"/>
<path d="M18.5971 22.4189V15.7949M21.9091 19.1069H15.2852H21.9091Z" stroke="#EEEEEE" stroke-width="2" stroke-miterlimit="10"/>
<path d="M18.5971 6.62397V0M21.9091 3.31199H15.2852H21.9091Z" stroke="#EEEEEE" stroke-width="2" stroke-miterlimit="10"/>
<path d="M33.8852 22.4189V15.7949M37.1972 19.1069H30.5732H37.1972Z" stroke="#EEEEEE" stroke-miterlimit="10"/>
<path d="M33.8852 6.62397V0M37.1972 3.31199H30.5732H37.1972Z" stroke="#EEEEEE" stroke-miterlimit="10"/>
<path d="M33.8852 22.4189V15.7949M37.1972 19.1069H30.5732H37.1972Z" stroke="#EEEEEE" stroke-width="2" stroke-miterlimit="10"/>
<path d="M33.8852 6.62397V0M37.1972 3.31199H30.5732H37.1972Z" stroke="#EEEEEE" stroke-width="2" stroke-miterlimit="10"/>
<path d="M49.1704 22.4204V15.7964M52.4824 19.1084H45.8584H52.4824Z" stroke="#EEEEEE" stroke-miterlimit="10"/>
<path d="M49.1704 6.62397V0M52.4824 3.31199H45.8584H52.4824Z" stroke="#EEEEEE" stroke-miterlimit="10"/>
<path d="M49.1704 22.4204V15.7964M52.4824 19.1084H45.8584H52.4824Z" stroke="#EEEEEE" stroke-width="2" stroke-miterlimit="10"/>
<path d="M49.1704 6.62397V0M52.4824 3.31199H45.8584H52.4824Z" stroke="#EEEEEE" stroke-width="2" stroke-miterlimit="10"/>
<path d="M64.4565 22.4204V15.7964M67.7685 19.1084H61.1445H67.7685Z" stroke="#EEEEEE" stroke-miterlimit="10"/>
<path d="M64.4565 6.62397V0M67.7685 3.31199H61.1445H67.7685Z" stroke="#EEEEEE" stroke-miterlimit="10"/>
<path d="M64.4565 22.4204V15.7964M67.7685 19.1084H61.1445H67.7685Z" stroke="#EEEEEE" stroke-width="2" stroke-miterlimit="10"/>
<path d="M64.4565 6.62397V0M67.7685 3.31199H61.1445H67.7685Z" stroke="#EEEEEE" stroke-width="2" stroke-miterlimit="10"/>
<path d="M3.31199 84.5839V77.96M6.62397 81.2719H0H6.62397Z" stroke="#EEEEEE" stroke-miterlimit="10"/>
<path d="M3.31199 68.7875V62.1636M6.62397 65.4756H0H6.62397Z" stroke="#EEEEEE" stroke-miterlimit="10"/>
<path d="M3.31199 84.5839V77.96M6.62397 81.2719H0H6.62397Z" stroke="#EEEEEE" stroke-width="2" stroke-miterlimit="10"/>
<path d="M3.31199 68.7875V62.1636M6.62397 65.4756H0H6.62397Z" stroke="#EEEEEE" stroke-width="2" stroke-miterlimit="10"/>
<path d="M18.5971 84.5825V77.9585M21.9091 81.2705H15.2852H21.9091Z" stroke="#EEEEEE" stroke-miterlimit="10"/>
<path d="M18.5971 68.7875V62.1636M21.9091 65.4756H15.2852H21.9091Z" stroke="#EEEEEE" stroke-miterlimit="10"/>
<path d="M18.5971 84.5825V77.9585M21.9091 81.2705H15.2852H21.9091Z" stroke="#EEEEEE" stroke-width="2" stroke-miterlimit="10"/>
<path d="M18.5971 68.7875V62.1636M21.9091 65.4756H15.2852H21.9091Z" stroke="#EEEEEE" stroke-width="2" stroke-miterlimit="10"/>
<path d="M33.8852 84.5825V77.9585M37.1972 81.2705H30.5732H37.1972Z" stroke="#EEEEEE" stroke-miterlimit="10"/>
<path d="M33.8852 68.7875V62.1636M37.1972 65.4756H30.5732H37.1972Z" stroke="#EEEEEE" stroke-miterlimit="10"/>
<path d="M33.8852 84.5825V77.9585M37.1972 81.2705H30.5732H37.1972Z" stroke="#EEEEEE" stroke-width="2" stroke-miterlimit="10"/>
<path d="M33.8852 68.7875V62.1636M37.1972 65.4756H30.5732H37.1972Z" stroke="#EEEEEE" stroke-width="2" stroke-miterlimit="10"/>
<path d="M49.1704 84.5839V77.96M52.4824 81.2719H45.8584H52.4824Z" stroke="#EEEEEE" stroke-miterlimit="10"/>
<path d="M49.1704 68.7875V62.1636M52.4824 65.4756H45.8584H52.4824Z" stroke="#EEEEEE" stroke-miterlimit="10"/>
<path d="M49.1704 84.5839V77.96M52.4824 81.2719H45.8584H52.4824Z" stroke="#EEEEEE" stroke-width="2" stroke-miterlimit="10"/>
<path d="M49.1704 68.7875V62.1636M52.4824 65.4756H45.8584H52.4824Z" stroke="#EEEEEE" stroke-width="2" stroke-miterlimit="10"/>
<path d="M64.4565 84.5839V77.96M67.7685 81.2719H61.1445H67.7685Z" stroke="#EEEEEE" stroke-miterlimit="10"/>
<path d="M64.4565 68.7875V62.1636M67.7685 65.4756H61.1445H67.7685Z" stroke="#EEEEEE" stroke-miterlimit="10"/>
<path d="M64.4565 84.5839V77.96M67.7685 81.2719H61.1445H67.7685Z" stroke="#EEEEEE" stroke-width="2" stroke-miterlimit="10"/>
<path d="M64.4565 68.7875V62.1636M67.7685 65.4756H61.1445H67.7685Z" stroke="#EEEEEE" stroke-width="2" stroke-miterlimit="10"/>
<path d="M3.31199 53.5019V46.8779M6.62397 50.1899H0H6.62397Z" stroke="#EEEEEE" stroke-miterlimit="10"/>
<path d="M3.31199 37.7055V31.0815M6.62397 34.3935H0H6.62397Z" stroke="#EEEEEE" stroke-miterlimit="10"/>
<path d="M3.31199 53.5019V46.8779M6.62397 50.1899H0H6.62397Z" stroke="#EEEEEE" stroke-width="2" stroke-miterlimit="10"/>
<path d="M3.31199 37.7055V31.0815M6.62397 34.3935H0H6.62397Z" stroke="#EEEEEE" stroke-width="2" stroke-miterlimit="10"/>
<path d="M18.5971 53.5004V46.8765M21.9091 50.1885H15.2852H21.9091Z" stroke="#EEEEEE" stroke-miterlimit="10"/>
<path d="M18.5971 37.7055V31.0815M21.9091 34.3935H15.2852H21.9091Z" stroke="#EEEEEE" stroke-miterlimit="10"/>
<path d="M18.5971 53.5004V46.8765M21.9091 50.1885H15.2852H21.9091Z" stroke="#EEEEEE" stroke-width="2" stroke-miterlimit="10"/>
<path d="M18.5971 37.7055V31.0815M21.9091 34.3935H15.2852H21.9091Z" stroke="#EEEEEE" stroke-width="2" stroke-miterlimit="10"/>
<path d="M33.8852 53.5004V46.8765M37.1972 50.1885H30.5732H37.1972Z" stroke="#EEEEEE" stroke-miterlimit="10"/>
<path d="M33.8852 37.7055V31.0815M37.1972 34.3935H30.5732H37.1972Z" stroke="#EEEEEE" stroke-miterlimit="10"/>
<path d="M33.8852 53.5004V46.8765M37.1972 50.1885H30.5732H37.1972Z" stroke="#EEEEEE" stroke-width="2" stroke-miterlimit="10"/>
<path d="M33.8852 37.7055V31.0815M37.1972 34.3935H30.5732H37.1972Z" stroke="#EEEEEE" stroke-width="2" stroke-miterlimit="10"/>
<path d="M49.1704 53.5019V46.8779M52.4824 50.1899H45.8584H52.4824Z" stroke="#EEEEEE" stroke-miterlimit="10"/>
<path d="M49.1704 37.7055V31.0815M52.4824 34.3935H45.8584H52.4824Z" stroke="#EEEEEE" stroke-miterlimit="10"/>
<path d="M49.1704 53.5019V46.8779M52.4824 50.1899H45.8584H52.4824Z" stroke="#EEEEEE" stroke-width="2" stroke-miterlimit="10"/>
<path d="M49.1704 37.7055V31.0815M52.4824 34.3935H45.8584H52.4824Z" stroke="#EEEEEE" stroke-width="2" stroke-miterlimit="10"/>
<path d="M64.4565 53.5019V46.8779M67.7685 50.1899H61.1445H67.7685Z" stroke="#EEEEEE" stroke-miterlimit="10"/>
<path d="M64.4565 37.7055V31.0815M67.7685 34.3935H61.1445H67.7685Z" stroke="#EEEEEE" stroke-miterlimit="10"/>
<path d="M64.4565 53.5019V46.8779M67.7685 50.1899H61.1445H67.7685Z" stroke="#EEEEEE" stroke-width="2" stroke-miterlimit="10"/>
<path d="M64.4565 37.7055V31.0815M67.7685 34.3935H61.1445H67.7685Z" stroke="#EEEEEE" stroke-width="2" stroke-miterlimit="10"/>
<path d="M3.31199 115.666V109.042M6.62397 112.354H0H6.62397Z" stroke="#EEEEEE" stroke-miterlimit="10"/>
<path d="M3.31199 99.8696V93.2456M6.62397 96.5576H0H6.62397Z" stroke="#EEEEEE" stroke-miterlimit="10"/>
<path d="M3.31199 115.666V109.042M6.62397 112.354H0H6.62397Z" stroke="#EEEEEE" stroke-width="2" stroke-miterlimit="10"/>
<path d="M3.31199 99.8696V93.2456M6.62397 96.5576H0H6.62397Z" stroke="#EEEEEE" stroke-width="2" stroke-miterlimit="10"/>
<path d="M18.5971 115.666V109.042M21.9091 112.354H15.2852H21.9091Z" stroke="#EEEEEE" stroke-miterlimit="10"/>
<path d="M18.5971 99.8696V93.2456M21.9091 96.5576H15.2852H21.9091Z" stroke="#EEEEEE" stroke-miterlimit="10"/>
<path d="M18.5971 115.666V109.042M21.9091 112.354H15.2852H21.9091Z" stroke="#EEEEEE" stroke-width="2" stroke-miterlimit="10"/>
<path d="M18.5971 99.8696V93.2456M21.9091 96.5576H15.2852H21.9091Z" stroke="#EEEEEE" stroke-width="2" stroke-miterlimit="10"/>
<path d="M33.8852 115.666V109.042M37.1972 112.354H30.5732H37.1972Z" stroke="#EEEEEE" stroke-miterlimit="10"/>
<path d="M33.8852 99.8696V93.2456M37.1972 96.5576H30.5732H37.1972Z" stroke="#EEEEEE" stroke-miterlimit="10"/>
<path d="M33.8852 115.666V109.042M37.1972 112.354H30.5732H37.1972Z" stroke="#EEEEEE" stroke-width="2" stroke-miterlimit="10"/>
<path d="M33.8852 99.8696V93.2456M37.1972 96.5576H30.5732H37.1972Z" stroke="#EEEEEE" stroke-width="2" stroke-miterlimit="10"/>
<path d="M49.1704 115.666V109.042M52.4824 112.354H45.8584H52.4824Z" stroke="#EEEEEE" stroke-miterlimit="10"/>
<path d="M49.1704 99.8696V93.2456M52.4824 96.5576H45.8584H52.4824Z" stroke="#EEEEEE" stroke-miterlimit="10"/>
<path d="M49.1704 115.666V109.042M52.4824 112.354H45.8584H52.4824Z" stroke="#EEEEEE" stroke-width="2" stroke-miterlimit="10"/>
<path d="M49.1704 99.8696V93.2456M52.4824 96.5576H45.8584H52.4824Z" stroke="#EEEEEE" stroke-width="2" stroke-miterlimit="10"/>
<path d="M64.4565 115.666V109.042M67.7685 112.354H61.1445H67.7685Z" stroke="#EEEEEE" stroke-miterlimit="10"/>
<path d="M64.4565 99.8696V93.2456M67.7685 96.5576H61.1445H67.7685Z" stroke="#EEEEEE" stroke-miterlimit="10"/>
<path d="M64.4565 115.666V109.042M67.7685 112.354H61.1445H67.7685Z" stroke="#EEEEEE" stroke-width="2" stroke-miterlimit="10"/>
<path d="M64.4565 99.8696V93.2456M67.7685 96.5576H61.1445H67.7685Z" stroke="#EEEEEE" stroke-width="2" stroke-miterlimit="10"/>
</svg>
