<svg width="140" height="144" viewBox="0 0 140 144" fill="none" xmlns="http://www.w3.org/2000/svg">
<g clip-path="url(#clip0_86_27899)">
<path d="M7.51 67C7.51 52.3227 10.326 40.76 15.958 32.312C21.6753 23.864 30.8487 19.64 43.478 19.64C56.1073 19.64 65.238 23.864 70.87 32.312C76.5873 40.76 79.446 52.3227 79.446 67C79.446 81.848 76.5873 93.496 70.87 101.944C65.238 110.392 56.1073 114.616 43.478 114.616C30.8487 114.616 21.6753 110.392 15.958 101.944C10.326 93.496 7.51 81.848 7.51 67ZM57.942 67C57.942 58.3813 57.0033 51.768 55.126 47.16C53.2487 42.4667 49.366 40.12 43.478 40.12C37.59 40.12 33.7073 42.4667 31.83 47.16C29.9527 51.768 29.014 58.3813 29.014 67C29.014 72.8027 29.3553 77.624 30.038 81.464C30.7207 85.2187 32.086 88.2907 34.134 90.68C36.2673 92.984 39.382 94.136 43.478 94.136C47.574 94.136 50.646 92.984 52.694 90.68C54.8273 88.2907 56.2353 85.2187 56.918 81.464C57.6007 77.624 57.942 72.8027 57.942 67ZM22.8935 182.912V162.56H58.3495V256H35.5655V182.912H22.8935ZM11.9295 379.464C14.8308 377.16 16.1535 376.093 15.8975 376.264C24.2602 369.352 30.8308 363.677 35.6095 359.24C40.4735 354.803 44.5695 350.152 47.8975 345.288C51.2255 340.424 52.8895 335.688 52.8895 331.08C52.8895 327.581 52.0788 324.851 50.4575 322.888C48.8362 320.925 46.4042 319.944 43.1615 319.944C39.9188 319.944 37.3588 321.181 35.4815 323.656C33.6895 326.045 32.7935 329.459 32.7935 333.896H11.6735C11.8442 326.643 13.3802 320.584 16.2815 315.72C19.2682 310.856 23.1508 307.272 27.9295 304.968C32.7935 302.664 38.1695 301.512 44.0575 301.512C54.2122 301.512 61.8495 304.115 66.9695 309.32C72.1748 314.525 74.7775 321.309 74.7775 329.672C74.7775 338.803 71.6628 347.293 65.4335 355.144C59.2042 362.909 51.2682 370.504 41.6255 377.928H76.1855V395.72H11.9295V379.464ZM11.278 470.928C11.6193 461.797 14.606 454.757 20.238 449.808C25.87 444.859 33.5073 442.384 43.15 442.384C49.55 442.384 55.0113 443.493 59.534 445.712C64.142 447.931 67.598 450.96 69.902 454.8C72.2913 458.64 73.486 462.949 73.486 467.728C73.486 473.36 72.078 477.968 69.262 481.552C66.446 485.051 63.1607 487.44 59.406 488.72V489.232C64.27 490.853 68.11 493.541 70.926 497.296C73.742 501.051 75.15 505.872 75.15 511.76C75.15 517.051 73.9127 521.744 71.438 525.84C69.0487 529.851 65.5073 533.008 60.814 535.312C56.206 537.616 50.702 538.768 44.302 538.768C34.062 538.768 25.87 536.251 19.726 531.216C13.6673 526.181 10.4673 518.587 10.126 508.432H31.374C31.4593 512.187 32.526 515.173 34.574 517.392C36.622 519.525 39.6087 520.592 43.534 520.592C46.862 520.592 49.422 519.653 51.214 517.776C53.0913 515.813 54.03 513.253 54.03 510.096C54.03 506 52.7073 503.056 50.062 501.264C47.502 499.387 43.3633 498.448 37.646 498.448H33.55V480.656H37.646C41.998 480.656 45.4967 479.931 48.142 478.48C50.8727 476.944 52.238 474.256 52.238 470.416C52.238 467.344 51.3847 464.955 49.678 463.248C47.9713 461.541 45.6247 460.688 42.638 460.688C39.3953 460.688 36.9633 461.669 35.342 463.632C33.806 465.595 32.91 468.027 32.654 470.928H11.278ZM6.4595 662.36V644.696L46.9075 586.84H71.3555V643.416H81.8515V662.36H71.3555V679H49.4675V662.36H6.4595ZM51.0035 610.904L29.4995 643.416H51.0035V610.904ZM73.427 745.632H33.491V763.296C35.1977 761.419 37.587 759.883 40.659 758.688C43.731 757.493 47.059 756.896 50.643 756.896C57.043 756.896 62.3337 758.347 66.515 761.248C70.7817 764.149 73.8963 767.904 75.859 772.512C77.8217 777.12 78.803 782.112 78.803 787.488C78.803 797.472 75.987 805.408 70.355 811.296C64.723 817.099 56.787 820 46.547 820C39.7203 820 33.7897 818.848 28.755 816.544C23.7203 814.155 19.8377 810.869 17.107 806.688C14.3763 802.507 12.883 797.685 12.627 792.224H34.003C34.515 794.869 35.7523 797.088 37.715 798.88C39.6777 800.587 42.3657 801.44 45.779 801.44C49.7897 801.44 52.7763 800.16 54.739 797.6C56.7017 795.04 57.683 791.627 57.683 787.36C57.683 783.179 56.659 779.979 54.611 777.76C52.563 775.541 49.5763 774.432 45.651 774.432C42.7497 774.432 40.3603 775.157 38.483 776.608C36.6057 777.973 35.3683 779.808 34.771 782.112H13.651V726.432H73.427V745.632Z" fill="#7DDB29"/>
<path d="M135.416 39.528H124.28V50.92H113.912V39.528H102.776V29.736H113.912V18.28H124.28V29.736H135.416V39.528Z" fill="#7DDB29"/>
</g>
<defs>
<clipPath id="clip0_86_27899">
<rect width="140" height="144" fill="white"/>
</clipPath>
</defs>
</svg>
