<svg width="26" height="25" viewBox="0 0 26 25" fill="none" xmlns="http://www.w3.org/2000/svg">
<path d="M12.9707 25C19.8743 25 25.4707 19.4036 25.4707 12.5C25.4707 5.59644 19.8743 0 12.9707 0C6.06714 0 0.470703 5.59644 0.470703 12.5C0.470703 19.4036 6.06714 25 12.9707 25Z" fill="#373C59"/>
<path d="M19.6625 10.7394C19.6625 9.94296 19.346 9.1791 18.7829 8.61591C18.2197 8.05272 17.4558 7.73633 16.6593 7.73633H8.98553C8.18906 7.73633 7.42517 8.05272 6.86198 8.61591C6.29879 9.1791 5.98242 9.94296 5.98242 10.7394V14.2725C5.98242 15.069 6.29879 15.8328 6.86198 16.396C7.42517 16.9592 8.18906 17.2756 8.98553 17.2756H16.6593C17.4558 17.2756 18.2197 16.9592 18.7829 16.396C19.346 15.8328 19.6625 15.069 19.6625 14.2725V10.7394ZM15.1472 12.7886L11.706 14.4916C11.5717 14.5693 11.1124 14.4916 11.1124 14.3149V10.8172C11.1124 10.6617 11.5788 10.5628 11.713 10.6405L15.0059 12.4353C15.1472 12.4918 15.2885 12.6897 15.1472 12.7674V12.7886Z" fill="white"/>
</svg>
